<svg xmlns="http://www.w3.org/2000/svg" width="62" height="62" viewBox="0 0 62 62">
  <g id="Grupo_72168" data-name="Grupo 72168" transform="translate(-181 -14704.943)">
    <circle id="Elipse_4588" data-name="Elipse 4588" cx="31" cy="31" r="31" transform="translate(181 14704.943)" fill="#26aab7"/>
    <g id="Flat" transform="translate(174 14698.706)">
      <path id="Trazado_127340" data-name="Trazado 127340" d="M232.207,72.237a16.673,16.673,0,0,1-3.948,12.037H224a10.528,10.528,0,0,0,2.647-7.312,17.471,17.471,0,0,0-.5-3.971,21.018,21.018,0,0,0-1.344-3.652l6.684-1.006A15.4,15.4,0,0,1,232.207,72.237Z" transform="translate(-189.546 -47.69)" fill="#96b268"/>
      <path id="Trazado_127341" data-name="Trazado 127341" d="M274.516,126.511l-1.4-.242a12.241,12.241,0,0,0,.1-4.283l1.384-.315A13.307,13.307,0,0,1,274.516,126.511Z" transform="translate(-234.305 -96.295)" fill="#88a35a"/>
      <path id="Trazado_127342" data-name="Trazado 127342" d="M194.867,113.123l-1.333-.488c2.236-6.114,1.073-9.984-.3-12.153l1.2-.758C195.976,102.163,197.3,106.467,194.867,113.123Z" transform="translate(-161.511 -76.296)" fill="#f9c365"/>
      <path id="Trazado_127343" data-name="Trazado 127343" d="M159.658,30.043a20.41,20.41,0,0,0-1.179-2.1l1.191-.772a21.84,21.84,0,0,1,1.263,2.245Z" transform="translate(-129.838 -10.182)" fill="#f9c365"/>
      <path id="Trazado_127344" data-name="Trazado 127344" d="M68.259,248v7.1H66.129a2.129,2.129,0,1,0,0,4.259h2.129V262.2a4.259,4.259,0,0,0,4.259,4.259h3.549s-1.093,8.469,0,11.73,15.615,0,15.615,0V266.163a16.807,16.807,0,0,1,1.775-7.517,16.807,16.807,0,0,0,1.774-7.517V248Z" transform="translate(-43.741 -211.416)" fill="#fdc8a2"/>
      <g id="Grupo_72166" data-name="Grupo 72166" transform="translate(24.517 39.423)">
        <path id="Trazado_127345" data-name="Trazado 127345" d="M350.341,311.574a20.277,20.277,0,0,0-.962,2.259l1.337.476a18.887,18.887,0,0,1,.895-2.1,14.693,14.693,0,0,0,1.349-4.153l-1.4-.234A13.282,13.282,0,0,1,350.341,311.574Z" transform="translate(-328.318 -305.354)" fill="#fdb683"/>
        <path id="Trazado_127346" data-name="Trazado 127346" d="M375.544,280v.291c0,.355-.015.715-.044,1.071l1.415.116c.032-.394.049-.793.049-1.187V280Z" transform="translate(-352.121 -280)" fill="#fdb683"/>
        <path id="Trazado_127347" data-name="Trazado 127347" d="M115.133,370.967a4.4,4.4,0,0,1-3.133,1.3v1.42a5.812,5.812,0,0,0,4.137-1.714l.624-.624-1-1Z" transform="translate(-112 -362.328)" fill="#fdb683"/>
        <path id="Trazado_127348" data-name="Trazado 127348" d="M200,456h5.678v1.42H200Z" transform="translate(-192.192 -440.385)" fill="#fdb683"/>
      </g>
      <path id="Trazado_127349" data-name="Trazado 127349" d="M27.549,26.839,28.968,24l1.42,2.839,3.549.71-2.129,2.129.71,2.839L28.968,31.1l-3.549,1.42.71-2.839L24,27.549Z" transform="translate(-7.29 -7.29)" fill="#f9c365"/>
      <path id="Trazado_127350" data-name="Trazado 127350" d="M54.2,116.776a26.169,26.169,0,0,0-7.1-11.357L43.549,104,40,105.42s9.227,4.259,11.357,11.357Z" transform="translate(-21.871 -80.192)" fill="#de5540"/>
      <path id="Trazado_127351" data-name="Trazado 127351" d="M122.647,80.325C121.227,71.1,114.129,64,114.129,64L112,66.129l.71,2.839a26.169,26.169,0,0,1,7.1,11.357Z" transform="translate(-87.483 -43.741)" fill="#d64a34"/>
      <path id="Trazado_127352" data-name="Trazado 127352" d="M390.488,34.4l-4.643-3.268,3.484-4.95a5.136,5.136,0,0,1,4.966-2.122,5.136,5.136,0,0,1-.323,5.391Z" transform="translate(-337.031 -7.294)" fill="#de5540"/>
      <path id="Trazado_127353" data-name="Trazado 127353" d="M439.692,48.164a1.42,1.42,0,1,0,.344,1.978,1.421,1.421,0,0,0-.344-1.978Z" transform="translate(-384.062 -29.075)" fill="#ffb431"/>
      <g id="Grupo_72167" data-name="Grupo 72167" transform="translate(45.266 20.464)">
        <path id="Trazado_127354" data-name="Trazado 127354" d="M351.453,66.786l-3.139-.473L345.863,69.8l2.386-.924,1.161.817Z" transform="translate(-345.863 -66.313)" fill="#1565c0"/>
        <path id="Trazado_127355" data-name="Trazado 127355" d="M440.223,108.487l1.5,2.795-2.451,3.483.065-2.558-1.161-.817Z" transform="translate(-429.99 -104.745)" fill="#1565c0"/>
        <path id="Trazado_127356" data-name="Trazado 127356" d="M377.451,117.931l-3.482-2.451,2.215-1.913L378.5,115.2Z" transform="translate(-371.474 -109.374)" fill="#1565c0"/>
      </g>
      <path id="Trazado_127357" data-name="Trazado 127357" d="M323.549,152A13.258,13.258,0,0,0,320,160.517h3.549c2.839-2.129,3.549-6.388,3.549-6.388Z" transform="translate(-277.028 -123.934)" fill="#f9c365"/>
      <path id="Trazado_127358" data-name="Trazado 127358" d="M0,0H4.139V1.42H0Z" transform="translate(45.179 33.386) rotate(-59.046)" fill="#f9a614"/>
      <circle id="Elipse_4779" data-name="Elipse 4779" cx="3.5" cy="3.5" r="3.5" transform="translate(35 16.294)" fill="#348ed8"/>
      <path id="Trazado_127359" data-name="Trazado 127359" d="M194.125,30.587a2.131,2.131,0,0,1-2.066-1.631,2.16,2.16,0,0,1-.06-.5,2.124,2.124,0,0,1,1.631-2.069l9.661-2.327a2.131,2.131,0,0,1,2.569,1.572,2.161,2.161,0,0,1,.06.5,2.123,2.123,0,0,1-1.63,2.069l-9.661,2.327A2.143,2.143,0,0,1,194.125,30.587Zm1.711-3.272-1.873.452a.708.708,0,0,0-.544.69.732.732,0,0,0,.021.169.709.709,0,0,0,.856.521l9.661-2.327a.707.707,0,0,0,.543-.689.733.733,0,0,0-.021-.169.71.71,0,0,0-.856-.522l-7.787,1.876Z" transform="translate(-160.385 -7.291)" fill="#d2e1f1"/>
      <path id="Trazado_127360" data-name="Trazado 127360" d="M232.059,28.243a3.55,3.55,0,0,1,6.873-1.747" transform="translate(-196.822 -7.269)" fill="#1565c0"/>
      <path id="Trazado_127361" data-name="Trazado 127361" d="M272,40h1.42v1.42H272Z" transform="translate(-233.287 -21.866)" fill="#2b83cc"/>
      <path id="Trazado_127362" data-name="Trazado 127362" d="M26.129,210.839V208l2.129,1.42L30.388,208v3.549l2.129,2.129H28.968l-1.42,2.839L26.4,213.649l-2.4-.68Z" transform="translate(-7.29 -174.965)" fill="#f9c365"/>
      <path id="Trazado_127363" data-name="Trazado 127363" d="M113.375,221.585a14.044,14.044,0,0,0-1.542-2.026l1.048-.958a15.456,15.456,0,0,1,1.7,2.232Z" transform="translate(-87.33 -184.625)" fill="#96b268"/>
      <path id="Trazado_127364" data-name="Trazado 127364" d="M26.316,163.258a16.5,16.5,0,0,0-4.061-1.682l.309-1.386a17.6,17.6,0,0,1,4.457,1.835Z" transform="translate(-5.7 -131.397)" fill="#96b268"/>
      <path id="Trazado_127365" data-name="Trazado 127365" d="M366.213,18.375l-1.332-.492A5.475,5.475,0,0,0,365.158,16h1.42A6.9,6.9,0,0,1,366.213,18.375Z" transform="translate(-317.927)" fill="#de5540"/>
      <path id="Trazado_127366" data-name="Trazado 127366" d="M396.944,203.153l-1.019-.989a10.741,10.741,0,0,0,2.365-3.823l1.375.354A12.006,12.006,0,0,1,396.944,203.153Z" transform="translate(-346.217 -166.163)" fill="#96b268"/>
      <path id="Trazado_127367" data-name="Trazado 127367" d="M452.451,200.324l-.981-1.026a4.96,4.96,0,0,1,3.775-1.256l-.182,1.408A3.572,3.572,0,0,0,452.451,200.324Z" transform="translate(-396.834 -165.86)" fill="#de5540"/>
      <path id="Trazado_127368" data-name="Trazado 127368" d="M452.259,265.42h-1.42V264h-1.42v1.42H448v1.42h1.42v1.42h1.42v-1.42h1.42Z" transform="translate(-393.672 -225.997)" fill="#f9c365"/>
      <path id="Trazado_127369" data-name="Trazado 127369" d="M36.259,393.42h-1.42V392H33.42v1.42H32v1.42h1.42v1.42h1.42v-1.42h1.42Z" transform="translate(-14.58 -342.64)" fill="#f9c365"/>
      <path id="Trazado_127370" data-name="Trazado 127370" d="M432,344h1.42v1.42H432Z" transform="translate(-379.091 -298.899)" fill="#de5540"/>
      <path id="Trazado_127371" data-name="Trazado 127371" d="M456,376h1.42v1.42H456Z" transform="translate(-400.962 -328.06)" fill="#96b268"/>
      <path id="Trazado_127372" data-name="Trazado 127372" d="M16,352h1.42v1.42H16Z" transform="translate(0 -306.189)" fill="#de5540"/>
      <path id="Trazado_127373" data-name="Trazado 127373" d="M296,272h1.42v1.42H296Z" transform="translate(-255.158 -233.287)" fill="#de5540"/>
      <path id="Trazado_127374" data-name="Trazado 127374" d="M264,320h1.42v1.42H264Z" transform="translate(-225.997 -277.028)" fill="#96b268"/>
      <path id="Trazado_127375" data-name="Trazado 127375" d="M112,16h1.42v1.42H112Z" transform="translate(-87.483)" fill="#de5540"/>
      <path id="Trazado_127376" data-name="Trazado 127376" d="M336,128h1.42v1.42H336Z" transform="translate(-291.609 -102.063)" fill="#96b268"/>
    </g>
  </g>
</svg>
