<svg xmlns="http://www.w3.org/2000/svg" width="85" height="89" viewBox="0 0 85 89">
  <g id="seo_1_" data-name="seo (1)" transform="translate(-11.372)">
    <circle id="Elipse_4705" data-name="Elipse 4705" cx="42.5" cy="42.5" r="42.5" transform="translate(11.372 3)" fill="#ff9518"/>
    <path id="Trazado_121300" data-name="Trazado 121300" d="M142.763,45.473a9.722,9.722,0,0,1,12.113-15.065V.869A.872.872,0,0,0,154.008,0H101.854a.872.872,0,0,0-.869.869V79.391a42.586,42.586,0,0,0,53.892,0v-32.6A9.725,9.725,0,0,1,142.763,45.473Z" transform="translate(-74.4)" fill="#d9eafc"/>
    <path id="Trazado_121301" data-name="Trazado 121301" d="M104.434.869A.872.872,0,0,1,105.3,0h-3.449a.872.872,0,0,0-.869.869V79.391a42.7,42.7,0,0,0,3.449,2.543Z" transform="translate(-74.4)" fill="#c3ddf4"/>
    <path id="Trazado_121302" data-name="Trazado 121302" d="M182.926,38.131a.872.872,0,0,1-.869.869H144.851a.872.872,0,0,1-.869-.869V34.905a.872.872,0,0,1,.869-.869h37.205a.872.872,0,0,1,.869.869v3.225Z" transform="translate(-109.923 -28.12)" fill="#fff"/>
    <path id="Trazado_121303" data-name="Trazado 121303" d="M147.431,38.131V34.905a.872.872,0,0,1,.869-.869h-3.449a.872.872,0,0,0-.869.869v3.225a.872.872,0,0,0,.869.869H148.3A.872.872,0,0,1,147.431,38.131Z" transform="translate(-109.923 -28.12)" fill="#eef6ff"/>
    <g id="Grupo_71744" data-name="Grupo 71744" transform="translate(44.898 16.863)">
      <path id="Trazado_121304" data-name="Trazado 121304" d="M233.08,99.615H207.644a1.3,1.3,0,1,1,0-2.607H233.08a1.3,1.3,0,1,1,0,2.607Z" transform="translate(-206.34 -97.008)" fill="#b7092b"/>
      <path id="Trazado_121305" data-name="Trazado 121305" d="M233.08,123.613H207.644a1.3,1.3,0,0,1,0-2.607H233.08a1.3,1.3,0,0,1,0,2.607Z" transform="translate(-206.34 -116.834)" fill="#b7092b"/>
    </g>
    <circle id="Elipse_4706" data-name="Elipse 4706" cx="3.911" cy="3.911" r="3.911" transform="translate(34.641 16.342)" fill="#fff"/>
    <g id="Grupo_71745" data-name="Grupo 71745" transform="translate(44.898 29.117)">
      <path id="Trazado_121306" data-name="Trazado 121306" d="M229.8,170.11a9.677,9.677,0,0,1,3.972-2.4,1.3,1.3,0,0,0-.7-.2H207.644a1.3,1.3,0,0,0,0,2.607H229.8Z" transform="translate(-206.34 -167.504)" fill="#0f9390"/>
      <path id="Trazado_121307" data-name="Trazado 121307" d="M228.534,191.5h-20.89a1.3,1.3,0,0,0,0,2.607h19.7A9.659,9.659,0,0,1,228.534,191.5Z" transform="translate(-206.34 -187.33)" fill="#0f9390"/>
    </g>
    <circle id="Elipse_4707" data-name="Elipse 4707" cx="3.911" cy="3.911" r="3.911" transform="translate(34.641 28.595)" fill="#2bb381"/>
    <path id="Trazado_121308" data-name="Trazado 121308" d="M145.042,167.433a5.215,5.215,0,1,1,5.215-5.215A5.221,5.221,0,0,1,145.042,167.433Zm0-7.822a2.607,2.607,0,1,0,2.608,2.607A2.61,2.61,0,0,0,145.042,159.61Z" transform="translate(-106.49 -129.712)" fill="#0f9390"/>
    <g id="Grupo_71746" data-name="Grupo 71746" transform="translate(44.898 41.371)">
      <path id="Trazado_121309" data-name="Trazado 121309" d="M227.359,238H207.644a1.3,1.3,0,1,0,0,2.607H228.58A9.653,9.653,0,0,1,227.359,238Z" transform="translate(-206.34 -238)" fill="#1e99d6"/>
      <path id="Trazado_121310" data-name="Trazado 121310" d="M229.878,262H207.644a1.3,1.3,0,1,0,0,2.607H233.08a1.3,1.3,0,0,0,.767-.251A9.678,9.678,0,0,1,229.878,262Z" transform="translate(-206.34 -257.826)" fill="#1e99d6"/>
    </g>
    <circle id="Elipse_4708" data-name="Elipse 4708" cx="3.911" cy="3.911" r="3.911" transform="translate(34.641 40.85)" fill="#69cdff"/>
    <path id="Trazado_121311" data-name="Trazado 121311" d="M145.042,237.929a5.215,5.215,0,1,1,5.215-5.215A5.221,5.221,0,0,1,145.042,237.929Zm0-7.822a2.607,2.607,0,1,0,2.608,2.607A2.61,2.61,0,0,0,145.042,230.106Z" transform="translate(-106.49 -187.953)" fill="#1e99d6"/>
    <g id="Grupo_71747" data-name="Grupo 71747" transform="translate(44.898 53.625)">
      <path id="Trazado_121312" data-name="Trazado 121312" d="M233.08,311.1H207.644a1.3,1.3,0,1,1,0-2.607H233.08a1.3,1.3,0,0,1,0,2.607Z" transform="translate(-206.34 -308.496)" fill="#db722c"/>
      <path id="Trazado_121313" data-name="Trazado 121313" d="M233.08,335.1H207.644a1.3,1.3,0,0,1,0-2.607H233.08a1.3,1.3,0,1,1,0,2.607Z" transform="translate(-206.34 -328.322)" fill="#db722c"/>
    </g>
    <circle id="Elipse_4709" data-name="Elipse 4709" cx="3.911" cy="3.911" r="3.911" transform="translate(34.641 53.104)" fill="#ffaf10"/>
    <path id="Trazado_121314" data-name="Trazado 121314" d="M145.042,308.425a5.215,5.215,0,1,1,5.215-5.215A5.221,5.221,0,0,1,145.042,308.425Zm0-7.822a2.607,2.607,0,1,0,2.608,2.607A2.61,2.61,0,0,0,145.042,300.6Z" transform="translate(-106.49 -246.195)" fill="#db722c"/>
    <path id="Trazado_121315" data-name="Trazado 121315" d="M341.546,168.965a9.723,9.723,0,1,1-13.75,0A9.723,9.723,0,0,1,341.546,168.965Z" transform="translate(-259.433 -137.242)" fill="#fff"/>
    <path id="Trazado_121316" data-name="Trazado 121316" d="M345.42,184.72l-8.259-8.259a11.021,11.021,0,1,0-1.843,1.844l8.259,8.258a1.3,1.3,0,1,0,1.844-1.844ZM322.546,175.6a8.419,8.419,0,1,1,5.953,2.466A8.43,8.43,0,0,1,322.546,175.6Z" transform="translate(-253.261 -131.045)" fill="#1a2b63"/>
    <path id="Trazado_121317" data-name="Trazado 121317" d="M354.084,185.888a6.623,6.623,0,1,1-9.366,0A6.623,6.623,0,0,1,354.084,185.888Z" transform="translate(-274.164 -151.973)" fill="#69cdff"/>
    <path id="Trazado_121318" data-name="Trazado 121318" d="M348.168,195.262a6.621,6.621,0,0,1,2.959-11.076,6.622,6.622,0,1,0,0,12.786A6.588,6.588,0,0,1,348.168,195.262Z" transform="translate(-274.164 -151.981)" fill="#3eb7ff"/>
    <path id="Trazado_121319" data-name="Trazado 121319" d="M150.2,88.955a1.3,1.3,0,1,0-1.916-1.769l-.249.27a5.206,5.206,0,1,0,1.7,2Zm-3.966.452-1.275,1.382-1.307-1.106a1.291,1.291,0,0,0-.116-.087,2.589,2.589,0,0,1,2.7-.189Zm1.413,2.315a2.606,2.606,0,0,1-5.186.369l1.766,1.494a1.3,1.3,0,0,0,1.8-.111l1.619-1.754S147.648,91.721,147.648,91.722Z" transform="translate(-106.49 -71.47)" fill="#b7092b"/>
    <g id="Grupo_71748" data-name="Grupo 71748" transform="translate(34.134 65.098)">
      <path id="Trazado_121320" data-name="Trazado 121320" d="M182.427,377.1h-36.71a1.3,1.3,0,1,1,0-2.607h36.71a1.3,1.3,0,0,1,0,2.607Z" transform="translate(-144.414 -374.496)" fill="#445ea0"/>
      <path id="Trazado_121321" data-name="Trazado 121321" d="M182.427,401.1h-36.71a1.3,1.3,0,0,1,0-2.607h36.71a1.3,1.3,0,0,1,0,2.607Z" transform="translate(-144.414 -394.322)" fill="#445ea0"/>
      <path id="Trazado_121322" data-name="Trazado 121322" d="M182.427,426.1h-36.71a1.3,1.3,0,1,1,0-2.607h36.71a1.3,1.3,0,1,1,0,2.607Z" transform="translate(-144.414 -414.978)" fill="#445ea0"/>
      <path id="Trazado_121323" data-name="Trazado 121323" d="M182.427,450.1h-36.71a1.3,1.3,0,1,1,0-2.607h36.71a1.3,1.3,0,1,1,0,2.607Z" transform="translate(-144.414 -434.805)" fill="#445ea0"/>
    </g>
  </g>
</svg>
