<svg xmlns="http://www.w3.org/2000/svg" width="814" height="327.292" viewBox="0 0 814 327.292">
  <g id="Grupo_72277" data-name="Grupo 72277" transform="translate(-393 -2444.826)">
    <g id="Trazado_128798" data-name="Trazado 128798" transform="translate(393 2444.826)" fill="#fff">
      <path d="M 812.7666015625 326.1743774414062 L 0.5000007748603821 326.1743774414062 L 0.5000007748603821 0.4999887347221375 L 812.7666015625 0.4999887347221375 L 812.7666015625 326.1743774414062 Z" stroke="none"/>
      <path d="M 1 1 L 1 325.6743774414062 L 812.2666015625 325.6743774414062 L 812.2666015625 1 L 1 1 M 0 0 L 813.2666015625 0 L 813.2666015625 326.6743774414062 L 0 326.6743774414062 L 0 0 Z" stroke="none" fill="#6595bf"/>
    </g>
    <path id="Trazado_128799" data-name="Trazado 128799" d="M0,0H584.767V5H0Z" transform="translate(620 2444.826)" fill="#26aab7"/>
    <path id="Trazado_128800" data-name="Trazado 128800" d="M0,0H584.767V61H0Z" transform="translate(620 2449.826)" fill="#b2ebf2"/>
    <path id="Trazado_128829" data-name="Trazado 128829" d="M0,0H194.828V260.674H0Z" transform="translate(424.173 2510.826)" fill="#b2ebf2"/>
    <path id="Trazado_128801" data-name="Trazado 128801" d="M9.026-5.1H4.052V0H.967V-12.8H9.527v2.382H4.052v2.944H9.026ZM13.8,0H10.828V-9.51H13.8ZM10.652-11.962A1.322,1.322,0,0,1,11.109-13a1.724,1.724,0,0,1,1.187-.4,1.724,1.724,0,0,1,1.187.4,1.322,1.322,0,0,1,.457,1.037,1.322,1.322,0,0,1-.457,1.037,1.724,1.724,0,0,1-1.187.4,1.724,1.724,0,0,1-1.187-.4A1.322,1.322,0,0,1,10.652-11.962Zm7.69,2.452.1,1.116a3.225,3.225,0,0,1,2.716-1.292,2.713,2.713,0,0,1,2.219.888,4.226,4.226,0,0,1,.76,2.672V0H21.164V-6a1.6,1.6,0,0,0-.29-1.059A1.342,1.342,0,0,0,19.819-7.4a1.413,1.413,0,0,0-1.292.686V0H15.565V-9.51ZM31.131,0a3.344,3.344,0,0,1-.281-.853A2.754,2.754,0,0,1,28.564.176a3.374,3.374,0,0,1-2.285-.813,2.588,2.588,0,0,1-.94-2.043,2.66,2.66,0,0,1,1.143-2.338A5.821,5.821,0,0,1,29.8-5.81h.914v-.5q0-1.316-1.134-1.316a.927.927,0,0,0-1.055,1.042H25.567a2.655,2.655,0,0,1,1.173-2.239,4.931,4.931,0,0,1,2.993-.86,4.323,4.323,0,0,1,2.874.888,3.086,3.086,0,0,1,1.081,2.435v4.21a4.311,4.311,0,0,0,.4,2V0ZM29.276-1.934a1.652,1.652,0,0,0,.918-.237,1.487,1.487,0,0,0,.523-.536V-4.228h-.861q-1.547,0-1.547,1.389a.848.848,0,0,0,.272.655A.986.986,0,0,0,29.276-1.934ZM38.048-9.51l.1,1.116A3.225,3.225,0,0,1,40.86-9.686,2.713,2.713,0,0,1,43.08-8.8a4.226,4.226,0,0,1,.76,2.672V0H40.869V-6a1.6,1.6,0,0,0-.29-1.059A1.342,1.342,0,0,0,39.524-7.4a1.413,1.413,0,0,0-1.292.686V0H35.271V-9.51ZM49.5-2.109a1.317,1.317,0,0,0,.967-.338,1.241,1.241,0,0,0,.334-.945h2.777A3.288,3.288,0,0,1,52.458-.826a4.168,4.168,0,0,1-2.887,1,4.22,4.22,0,0,1-3.27-1.3,5.125,5.125,0,0,1-1.2-3.6v-.123A5.792,5.792,0,0,1,45.637-7.4a3.872,3.872,0,0,1,1.534-1.7,4.573,4.573,0,0,1,2.373-.593,4.116,4.116,0,0,1,2.944,1.028,3.647,3.647,0,0,1,1.09,2.786H50.8A1.626,1.626,0,0,0,50.44-7a1.244,1.244,0,0,0-.967-.4q-1.151,0-1.345,1.468a10.357,10.357,0,0,0-.062,1.283,4.068,4.068,0,0,0,.343,1.986A1.187,1.187,0,0,0,49.5-2.109ZM57.955,0H54.984V-9.51h2.971ZM54.809-11.962A1.322,1.322,0,0,1,55.266-13a1.724,1.724,0,0,1,1.187-.4,1.724,1.724,0,0,1,1.187.4,1.322,1.322,0,0,1,.457,1.037,1.322,1.322,0,0,1-.457,1.037,1.724,1.724,0,0,1-1.187.4,1.724,1.724,0,0,1-1.187-.4A1.322,1.322,0,0,1,54.809-11.962ZM64.38.176a4.889,4.889,0,0,1-3.542-1.305,4.507,4.507,0,0,1-1.354-3.4v-.246a5.84,5.84,0,0,1,.541-2.575A3.955,3.955,0,0,1,61.6-9.075a4.763,4.763,0,0,1,2.461-.611,4.117,4.117,0,0,1,3.164,1.244,4.887,4.887,0,0,1,1.16,3.467v1.151H62.5a2.135,2.135,0,0,0,.694,1.257,2.066,2.066,0,0,0,1.389.457,2.662,2.662,0,0,0,2.2-.984l1.354,1.6A3.784,3.784,0,0,1,66.564-.277,5.3,5.3,0,0,1,64.38.176ZM64.046-7.4q-1.3,0-1.547,1.723h2.988v-.229a1.467,1.467,0,0,0-.36-1.1A1.434,1.434,0,0,0,64.046-7.4Zm11.285.571-.976-.07a1.752,1.752,0,0,0-1.793.879V0H69.6V-9.51h2.777l.1,1.222a2.294,2.294,0,0,1,2.083-1.4,2.888,2.888,0,0,1,.826.105Zm.378,1.986a5.613,5.613,0,0,1,.554-2.536,3.96,3.96,0,0,1,1.591-1.709,4.791,4.791,0,0,1,2.435-.6,4.373,4.373,0,0,1,3.366,1.323,5.076,5.076,0,0,1,1.23,3.6v.105A4.925,4.925,0,0,1,83.65-1.129,4.384,4.384,0,0,1,80.306.176a4.434,4.434,0,0,1-3.261-1.217,4.761,4.761,0,0,1-1.327-3.3Zm2.962.185a3.538,3.538,0,0,0,.413,1.934,1.376,1.376,0,0,0,1.222.615q1.582,0,1.617-2.435v-.3q0-2.558-1.635-2.558Q78.8-7.4,78.68-5.194Z" transform="translate(754 2487.826)" fill="#12263f"/>
    <path id="Trazado_128830" data-name="Trazado 128830" d="M3.574-4.465H-3.574L-5.18,0H-7.5L-.984-17.062H.984L7.512,0H5.2ZM-2.895-6.3h5.8L0-14.285Z" transform="translate(669 2547.652)" fill="#12263f"/>
    <path id="Trazado_128802" data-name="Trazado 128802" d="M1.131,0h-2.25V-17.062h2.25Z" transform="translate(793 2547.652)" fill="#12263f"/>
    <path id="Trazado_128803" data-name="Trazado 128803" d="M6.721-5.414a6.277,6.277,0,0,1-2,4.178A6.548,6.548,0,0,1,.252.234,6.012,6.012,0,0,1-4.594-1.934a8.722,8.722,0,0,1-1.822-5.8V-9.375a9.722,9.722,0,0,1,.85-4.184A6.346,6.346,0,0,1-3.158-16.33,6.705,6.705,0,0,1,.451-17.3a6.165,6.165,0,0,1,4.359,1.518,6.353,6.353,0,0,1,1.91,4.2H4.459A4.9,4.9,0,0,0,3.188-14.54a3.847,3.847,0,0,0-2.736-.917,4.026,4.026,0,0,0-3.381,1.6A7.323,7.323,0,0,0-4.154-9.323v1.654a7.527,7.527,0,0,0,1.16,4.422A3.749,3.749,0,0,0,.252-1.605a4.33,4.33,0,0,0,2.877-.85,4.715,4.715,0,0,0,1.33-2.959Z" transform="translate(1053.001 2547.652)" fill="#12263f"/>
    <path id="Trazado_128804" data-name="Trazado 128804" d="M.85-6.9H-3.158V0H-5.42V-17.062H.229A6.686,6.686,0,0,1,4.664-15.75a4.722,4.722,0,0,1,1.553,3.82,4.593,4.593,0,0,1-.861,2.777,5.142,5.142,0,0,1-2.4,1.77L6.967-.141V0H4.553Zm-4.008-1.84H.3a3.9,3.9,0,0,0,2.666-.869,2.938,2.938,0,0,0,.99-2.325,3.094,3.094,0,0,0-.943-2.43,4,4,0,0,0-2.725-.857H-3.158Z" transform="translate(929 2547.652)" fill="#12263f"/>
    <path id="Trazado_128805" data-name="Trazado 128805" d="M.85-6.9H-3.158V0H-5.42V-17.062H.229A6.686,6.686,0,0,1,4.664-15.75a4.722,4.722,0,0,1,1.553,3.82,4.593,4.593,0,0,1-.861,2.777,5.142,5.142,0,0,1-2.4,1.77L6.967-.141V0H4.553Zm-4.008-1.84H.3a3.9,3.9,0,0,0,2.666-.869,2.938,2.938,0,0,0,.99-2.325,3.094,3.094,0,0,0-.943-2.43,4,4,0,0,0-2.725-.857H-3.158Z" transform="translate(1151.827 2547.652)" fill="#12263f"/>
    <path id="Trazado_128831" data-name="Trazado 128831" d="M3.574-4.465H-3.574L-5.18,0H-7.5L-.984-17.062H.984L7.512,0H5.2ZM-2.895-6.3h5.8L0-14.285Z" transform="translate(669 2645.326)" fill="#12263f"/>
    <path id="Trazado_128806" data-name="Trazado 128806" d="M1.131,0h-2.25V-17.062h2.25Z" transform="translate(793 2645.326)" fill="#12263f"/>
    <path id="Trazado_128807" data-name="Trazado 128807" d="M6.721-5.414a6.277,6.277,0,0,1-2,4.178A6.548,6.548,0,0,1,.252.234,6.012,6.012,0,0,1-4.594-1.934a8.722,8.722,0,0,1-1.822-5.8V-9.375a9.722,9.722,0,0,1,.85-4.184A6.346,6.346,0,0,1-3.158-16.33,6.705,6.705,0,0,1,.451-17.3a6.165,6.165,0,0,1,4.359,1.518,6.353,6.353,0,0,1,1.91,4.2H4.459A4.9,4.9,0,0,0,3.188-14.54a3.847,3.847,0,0,0-2.736-.917,4.026,4.026,0,0,0-3.381,1.6A7.323,7.323,0,0,0-4.154-9.323v1.654a7.527,7.527,0,0,0,1.16,4.422A3.749,3.749,0,0,0,.252-1.605a4.33,4.33,0,0,0,2.877-.85,4.715,4.715,0,0,0,1.33-2.959Z" transform="translate(1048.827 2645.326)" fill="#12263f"/>
    <path id="Trazado_128808" data-name="Trazado 128808" d="M1.131,0h-2.25V-17.062h2.25Z" transform="translate(929 2645.326)" fill="#12263f"/>
    <path id="Trazado_128809" data-name="Trazado 128809" d="M.85-6.9H-3.158V0H-5.42V-17.062H.229A6.686,6.686,0,0,1,4.664-15.75a4.722,4.722,0,0,1,1.553,3.82,4.593,4.593,0,0,1-.861,2.777,5.142,5.142,0,0,1-2.4,1.77L6.967-.141V0H4.553Zm-4.008-1.84H.3a3.9,3.9,0,0,0,2.666-.869,2.938,2.938,0,0,0,.99-2.325,3.094,3.094,0,0,0-.943-2.43,4,4,0,0,0-2.725-.857H-3.158Z" transform="translate(1151.827 2645.326)" fill="#12263f"/>
    <path id="Trazado_128832" data-name="Trazado 128832" d="M3.574-4.465H-3.574L-5.18,0H-7.5L-.984-17.062H.984L7.512,0H5.2ZM-2.895-6.3h5.8L0-14.285Z" transform="translate(669 2698.674)" fill="#12263f"/>
    <path id="Trazado_128810" data-name="Trazado 128810" d="M1.131,0h-2.25V-17.062h2.25Z" transform="translate(793 2698.674)" fill="#12263f"/>
    <path id="Trazado_128811" data-name="Trazado 128811" d="M6.721-5.414a6.277,6.277,0,0,1-2,4.178A6.548,6.548,0,0,1,.252.234,6.012,6.012,0,0,1-4.594-1.934a8.722,8.722,0,0,1-1.822-5.8V-9.375a9.722,9.722,0,0,1,.85-4.184A6.346,6.346,0,0,1-3.158-16.33,6.705,6.705,0,0,1,.451-17.3a6.165,6.165,0,0,1,4.359,1.518,6.353,6.353,0,0,1,1.91,4.2H4.459A4.9,4.9,0,0,0,3.188-14.54a3.847,3.847,0,0,0-2.736-.917,4.026,4.026,0,0,0-3.381,1.6A7.323,7.323,0,0,0-4.154-9.323v1.654a7.527,7.527,0,0,0,1.16,4.422A3.749,3.749,0,0,0,.252-1.605a4.33,4.33,0,0,0,2.877-.85,4.715,4.715,0,0,0,1.33-2.959Z" transform="translate(1048.827 2698.674)" fill="#12263f"/>
    <path id="Trazado_128812" data-name="Trazado 128812" d="M.85-6.9H-3.158V0H-5.42V-17.062H.229A6.686,6.686,0,0,1,4.664-15.75a4.722,4.722,0,0,1,1.553,3.82,4.593,4.593,0,0,1-.861,2.777,5.142,5.142,0,0,1-2.4,1.77L6.967-.141V0H4.553Zm-4.008-1.84H.3a3.9,3.9,0,0,0,2.666-.869,2.938,2.938,0,0,0,.99-2.325,3.094,3.094,0,0,0-.943-2.43,4,4,0,0,0-2.725-.857H-3.158Z" transform="translate(929 2698.674)" fill="#12263f"/>
    <path id="Trazado_128813" data-name="Trazado 128813" d="M.85-6.9H-3.158V0H-5.42V-17.062H.229A6.686,6.686,0,0,1,4.664-15.75a4.722,4.722,0,0,1,1.553,3.82,4.593,4.593,0,0,1-.861,2.777,5.142,5.142,0,0,1-2.4,1.77L6.967-.141V0H4.553Zm-4.008-1.84H.3a3.9,3.9,0,0,0,2.666-.869,2.938,2.938,0,0,0,.99-2.325,3.094,3.094,0,0,0-.943-2.43,4,4,0,0,0-2.725-.857H-3.158Z" transform="translate(1151.827 2698.674)" fill="#12263f"/>
    <path id="Trazado_128833" data-name="Trazado 128833" d="M3.574-4.465H-3.574L-5.18,0H-7.5L-.984-17.062H.984L7.512,0H5.2ZM-2.895-6.3h5.8L0-14.285Z" transform="translate(669 2752.979)" fill="#12263f"/>
    <path id="Trazado_128834" data-name="Trazado 128834" d="M6.721-5.414a6.277,6.277,0,0,1-2,4.178A6.548,6.548,0,0,1,.252.234,6.012,6.012,0,0,1-4.594-1.934a8.722,8.722,0,0,1-1.822-5.8V-9.375a9.722,9.722,0,0,1,.85-4.184A6.346,6.346,0,0,1-3.158-16.33,6.705,6.705,0,0,1,.451-17.3a6.165,6.165,0,0,1,4.359,1.518,6.353,6.353,0,0,1,1.91,4.2H4.459A4.9,4.9,0,0,0,3.188-14.54a3.847,3.847,0,0,0-2.736-.917,4.026,4.026,0,0,0-3.381,1.6A7.323,7.323,0,0,0-4.154-9.323v1.654a7.527,7.527,0,0,0,1.16,4.422A3.749,3.749,0,0,0,.252-1.605a4.33,4.33,0,0,0,2.877-.85,4.715,4.715,0,0,0,1.33-2.959Z" transform="translate(793 2752.979)" fill="#12263f"/>
    <path id="Trazado_128835" data-name="Trazado 128835" d="M1.131,0h-2.25V-17.062h2.25Z" transform="translate(1048.827 2752.979)" fill="#12263f"/>
    <path id="Trazado_128836" data-name="Trazado 128836" d="M.85-6.9H-3.158V0H-5.42V-17.062H.229A6.686,6.686,0,0,1,4.664-15.75a4.722,4.722,0,0,1,1.553,3.82,4.593,4.593,0,0,1-.861,2.777,5.142,5.142,0,0,1-2.4,1.77L6.967-.141V0H4.553Zm-4.008-1.84H.3a3.9,3.9,0,0,0,2.666-.869,2.938,2.938,0,0,0,.99-2.325,3.094,3.094,0,0,0-.943-2.43,4,4,0,0,0-2.725-.857H-3.158Z" transform="translate(929 2752.979)" fill="#12263f"/>
    <path id="Trazado_128837" data-name="Trazado 128837" d="M.85-6.9H-3.158V0H-5.42V-17.062H.229A6.686,6.686,0,0,1,4.664-15.75a4.722,4.722,0,0,1,1.553,3.82,4.593,4.593,0,0,1-.861,2.777,5.142,5.142,0,0,1-2.4,1.77L6.967-.141V0H4.553Zm-4.008-1.84H.3a3.9,3.9,0,0,0,2.666-.869,2.938,2.938,0,0,0,.99-2.325,3.094,3.094,0,0,0-.943-2.43,4,4,0,0,0-2.725-.857H-3.158Z" transform="translate(1151.827 2752.979)" fill="#12263f"/>
    <path id="Trazado_128838" data-name="Trazado 128838" d="M6.721-5.414a6.277,6.277,0,0,1-2,4.178A6.548,6.548,0,0,1,.252.234,6.012,6.012,0,0,1-4.594-1.934a8.722,8.722,0,0,1-1.822-5.8V-9.375a9.722,9.722,0,0,1,.85-4.184A6.346,6.346,0,0,1-3.158-16.33,6.705,6.705,0,0,1,.451-17.3a6.165,6.165,0,0,1,4.359,1.518,6.353,6.353,0,0,1,1.91,4.2H4.459A4.9,4.9,0,0,0,3.188-14.54a3.847,3.847,0,0,0-2.736-.917,4.026,4.026,0,0,0-3.381,1.6A7.323,7.323,0,0,0-4.154-9.323v1.654a7.527,7.527,0,0,0,1.16,4.422A3.749,3.749,0,0,0,.252-1.605a4.33,4.33,0,0,0,2.877-.85,4.715,4.715,0,0,0,1.33-2.959Z" transform="translate(669 2596.652)" fill="#12263f"/>
    <path id="Trazado_128814" data-name="Trazado 128814" d="M6.721-5.414a6.277,6.277,0,0,1-2,4.178A6.548,6.548,0,0,1,.252.234,6.012,6.012,0,0,1-4.594-1.934a8.722,8.722,0,0,1-1.822-5.8V-9.375a9.722,9.722,0,0,1,.85-4.184A6.346,6.346,0,0,1-3.158-16.33,6.705,6.705,0,0,1,.451-17.3a6.165,6.165,0,0,1,4.359,1.518,6.353,6.353,0,0,1,1.91,4.2H4.459A4.9,4.9,0,0,0,3.188-14.54a3.847,3.847,0,0,0-2.736-.917,4.026,4.026,0,0,0-3.381,1.6A7.323,7.323,0,0,0-4.154-9.323v1.654a7.527,7.527,0,0,0,1.16,4.422A3.749,3.749,0,0,0,.252-1.605a4.33,4.33,0,0,0,2.877-.85,4.715,4.715,0,0,0,1.33-2.959Z" transform="translate(793 2596.652)" fill="#12263f"/>
    <path id="Trazado_128815" data-name="Trazado 128815" d="M1.131,0h-2.25V-17.062h2.25Z" transform="translate(1048.827 2596.652)" fill="#12263f"/>
    <path id="Trazado_128816" data-name="Trazado 128816" d="M.85-6.9H-3.158V0H-5.42V-17.062H.229A6.686,6.686,0,0,1,4.664-15.75a4.722,4.722,0,0,1,1.553,3.82,4.593,4.593,0,0,1-.861,2.777,5.142,5.142,0,0,1-2.4,1.77L6.967-.141V0H4.553Zm-4.008-1.84H.3a3.9,3.9,0,0,0,2.666-.869,2.938,2.938,0,0,0,.99-2.325,3.094,3.094,0,0,0-.943-2.43,4,4,0,0,0-2.725-.857H-3.158Z" transform="translate(929 2596.652)" fill="#12263f"/>
    <path id="Trazado_128817" data-name="Trazado 128817" d="M.85-6.9H-3.158V0H-5.42V-17.062H.229A6.686,6.686,0,0,1,4.664-15.75a4.722,4.722,0,0,1,1.553,3.82,4.593,4.593,0,0,1-.861,2.777,5.142,5.142,0,0,1-2.4,1.77L6.967-.141V0H4.553Zm-4.008-1.84H.3a3.9,3.9,0,0,0,2.666-.869,2.938,2.938,0,0,0,.99-2.325,3.094,3.094,0,0,0-.943-2.43,4,4,0,0,0-2.725-.857H-3.158Z" transform="translate(1151.827 2596.652)" fill="#12263f"/>
    <path id="Trazado_128818" data-name="Trazado 128818" d="M.967,0V-12.8H5.089a6.064,6.064,0,0,1,3.05.769,5.406,5.406,0,0,1,2.114,2.171,6.554,6.554,0,0,1,.769,3.142v.589a6.592,6.592,0,0,1-.743,3.151A5.429,5.429,0,0,1,8.187-.8a5.93,5.93,0,0,1-3.01.8ZM4.052-10.415v8.042H5.124a2.4,2.4,0,0,0,2.039-.945,4.63,4.63,0,0,0,.712-2.808V-6.68a4.592,4.592,0,0,0-.712-2.795,2.442,2.442,0,0,0-2.074-.94ZM15.592,0H12.621V-9.51h2.971ZM12.445-11.962A1.322,1.322,0,0,1,12.9-13a1.724,1.724,0,0,1,1.187-.4,1.724,1.724,0,0,1,1.187.4,1.322,1.322,0,0,1,.457,1.037,1.322,1.322,0,0,1-.457,1.037,1.724,1.724,0,0,1-1.187.4,1.724,1.724,0,0,1-1.187-.4A1.322,1.322,0,0,1,12.445-11.962Zm9.949,9.29a.684.684,0,0,0-.4-.606,6.016,6.016,0,0,0-1.5-.475A6.853,6.853,0,0,1,18.668-4.4a3.062,3.062,0,0,1-1.1-.971,2.319,2.319,0,0,1-.378-1.31,2.628,2.628,0,0,1,1.081-2.158,4.453,4.453,0,0,1,2.83-.848,4.934,4.934,0,0,1,3.023.853,2.666,2.666,0,0,1,1.143,2.241H22.3q0-1.143-1.2-1.143a1.194,1.194,0,0,0-.782.259A.8.8,0,0,0,20-6.829a.737.737,0,0,0,.387.642,3.654,3.654,0,0,0,1.235.4,10.671,10.671,0,0,1,1.49.378A2.706,2.706,0,0,1,25.251-2.76,2.491,2.491,0,0,1,24.1-.642,5.068,5.068,0,0,1,21.1.176a5.172,5.172,0,0,1-2.18-.439,3.645,3.645,0,0,1-1.494-1.2,2.707,2.707,0,0,1-.536-1.591h2.769a1.145,1.145,0,0,0,.439.962,1.808,1.808,0,0,0,1.081.3,1.422,1.422,0,0,0,.91-.246A.787.787,0,0,0,22.395-2.672ZM31.236.176a4.889,4.889,0,0,1-3.542-1.305,4.507,4.507,0,0,1-1.354-3.4v-.246a5.84,5.84,0,0,1,.541-2.575,3.955,3.955,0,0,1,1.578-1.727,4.763,4.763,0,0,1,2.461-.611,4.117,4.117,0,0,1,3.164,1.244,4.887,4.887,0,0,1,1.16,3.467v1.151H29.355a2.135,2.135,0,0,0,.694,1.257,2.066,2.066,0,0,0,1.389.457,2.662,2.662,0,0,0,2.2-.984l1.354,1.6A3.784,3.784,0,0,1,33.42-.277,5.3,5.3,0,0,1,31.236.176ZM30.9-7.4q-1.3,0-1.547,1.723h2.988v-.229a1.467,1.467,0,0,0-.36-1.1A1.434,1.434,0,0,0,30.9-7.4ZM39.155-9.51l.1,1.116a3.225,3.225,0,0,1,2.716-1.292,2.713,2.713,0,0,1,2.219.888,4.226,4.226,0,0,1,.76,2.672V0H41.977V-6a1.6,1.6,0,0,0-.29-1.059A1.342,1.342,0,0,0,40.632-7.4a1.413,1.413,0,0,0-1.292.686V0H36.378V-9.51Zm4.913-3.92a2.562,2.562,0,0,1-.584,1.7,1.813,1.813,0,0,1-1.446.7,2.852,2.852,0,0,1-1.292-.369,2.7,2.7,0,0,0-1.151-.369.66.66,0,0,0-.479.193.8.8,0,0,0-.2.6l-1.644-.088a2.576,2.576,0,0,1,.584-1.687,1.793,1.793,0,0,1,1.437-.712,2.967,2.967,0,0,1,1.151.325,7.07,7.07,0,0,0,.9.369,1.74,1.74,0,0,0,.4.044.671.671,0,0,0,.483-.2.807.807,0,0,0,.2-.6ZM51.943,0a3.344,3.344,0,0,1-.281-.853A2.754,2.754,0,0,1,49.377.176a3.374,3.374,0,0,1-2.285-.813,2.588,2.588,0,0,1-.94-2.043,2.66,2.66,0,0,1,1.143-2.338,5.821,5.821,0,0,1,3.322-.791h.914v-.5q0-1.316-1.134-1.316a.927.927,0,0,0-1.055,1.042H46.38a2.655,2.655,0,0,1,1.173-2.239,4.931,4.931,0,0,1,2.993-.86A4.323,4.323,0,0,1,53.42-8.8,3.086,3.086,0,0,1,54.5-6.363v4.21a4.311,4.311,0,0,0,.4,2V0ZM50.089-1.934a1.652,1.652,0,0,0,.918-.237,1.487,1.487,0,0,0,.523-.536V-4.228h-.861q-1.547,0-1.547,1.389a.848.848,0,0,0,.272.655A.986.986,0,0,0,50.089-1.934Zm5.678-2.892a5.809,5.809,0,0,1,.976-3.56,3.211,3.211,0,0,1,2.725-1.3,2.731,2.731,0,0,1,2.145,1V-13.5h2.971V0H61.919L61.77-1.02a2.8,2.8,0,0,1-2.32,1.2,3.205,3.205,0,0,1-2.689-1.3A5.993,5.993,0,0,1,55.767-4.825Zm2.962.185q0,2.531,1.477,2.531a1.458,1.458,0,0,0,1.406-.826V-6.557A1.419,1.419,0,0,0,60.223-7.4q-1.371,0-1.485,2.215Zm7.163-.2a5.613,5.613,0,0,1,.554-2.536,3.96,3.96,0,0,1,1.591-1.709,4.791,4.791,0,0,1,2.435-.6,4.373,4.373,0,0,1,3.366,1.323,5.076,5.076,0,0,1,1.23,3.6v.105a4.925,4.925,0,0,1-1.235,3.529A4.384,4.384,0,0,1,70.488.176a4.434,4.434,0,0,1-3.261-1.217,4.761,4.761,0,0,1-1.327-3.3Zm2.962.185a3.538,3.538,0,0,0,.413,1.934,1.376,1.376,0,0,0,1.222.615q1.582,0,1.617-2.435v-.3q0-2.558-1.635-2.558-1.485,0-1.608,2.206ZM82.125-6.829l-.976-.07a1.752,1.752,0,0,0-1.793.879V0H76.395V-9.51h2.777l.1,1.222a2.294,2.294,0,0,1,2.083-1.4,2.888,2.888,0,0,1,.826.105Z" transform="translate(888 2486.826)" fill="#12263f"/>
    <path id="Trazado_128819" data-name="Trazado 128819" d="M8.235-2.391H4.008L3.27,0h-3.3L4.667-12.8h2.9L12.3,0H8.982ZM4.746-4.772H7.5L6.117-9.211ZM18.659-1.028a3.054,3.054,0,0,1-2.54,1.2,3,3,0,0,1-2.369-.91,3.826,3.826,0,0,1-.8-2.615V-9.51h2.962v6.179a1.065,1.065,0,0,0,1.187,1.222,1.548,1.548,0,0,0,1.45-.729V-9.51h2.979V0H18.747Zm4.113-3.8a5.809,5.809,0,0,1,.976-3.56,3.211,3.211,0,0,1,2.725-1.3,2.731,2.731,0,0,1,2.145,1V-13.5h2.971V0H28.925l-.149-1.02a2.8,2.8,0,0,1-2.32,1.2,3.205,3.205,0,0,1-2.689-1.3A5.993,5.993,0,0,1,22.772-4.825Zm2.962.185q0,2.531,1.477,2.531a1.458,1.458,0,0,0,1.406-.826V-6.557A1.419,1.419,0,0,0,27.229-7.4q-1.371,0-1.485,2.215ZM36.4,0H33.425V-9.51H36.4ZM33.249-11.962A1.322,1.322,0,0,1,33.706-13a1.724,1.724,0,0,1,1.187-.4,1.724,1.724,0,0,1,1.187.4,1.322,1.322,0,0,1,.457,1.037,1.322,1.322,0,0,1-.457,1.037,1.724,1.724,0,0,1-1.187.4,1.724,1.724,0,0,1-1.187-.4A1.322,1.322,0,0,1,33.249-11.962Zm8.42.088V-9.51h1.564v2.057H41.669V-3.1a1.111,1.111,0,0,0,.193.747,1.037,1.037,0,0,0,.765.211,4.345,4.345,0,0,0,.738-.053V-.079A5.466,5.466,0,0,1,41.7.176a3.1,3.1,0,0,1-2.259-.721,2.954,2.954,0,0,1-.729-2.188v-4.72H37.494V-9.51h1.213v-2.364Zm2.092,7.031a5.613,5.613,0,0,1,.554-2.536,3.96,3.96,0,0,1,1.591-1.709,4.791,4.791,0,0,1,2.435-.6,4.373,4.373,0,0,1,3.366,1.323,5.076,5.076,0,0,1,1.23,3.6v.105A4.925,4.925,0,0,1,51.7-1.129,4.384,4.384,0,0,1,48.357.176,4.434,4.434,0,0,1,45.1-1.042a4.761,4.761,0,0,1-1.327-3.3Zm2.962.185a3.538,3.538,0,0,0,.413,1.934,1.376,1.376,0,0,0,1.222.615q1.582,0,1.617-2.435v-.3q0-2.558-1.635-2.558-1.485,0-1.608,2.206ZM59.994-6.829l-.976-.07a1.752,1.752,0,0,0-1.793.879V0H54.264V-9.51h2.777l.1,1.222a2.294,2.294,0,0,1,2.083-1.4,2.888,2.888,0,0,1,.826.105Z" transform="translate(1023.001 2487.826)" fill="#12263f"/>
    <path id="Trazado_128820" data-name="Trazado 128820" d="M8.9-5.432H4.052v3.059h5.73V0H.967V-12.8H9.8v2.382H4.052v2.7H8.9Zm1.626.58A5.709,5.709,0,0,1,11.514-8.4a3.233,3.233,0,0,1,2.716-1.283,2.761,2.761,0,0,1,2.338,1.2l.211-1.02h2.566V3.656H16.374V-.791a2.757,2.757,0,0,1-2.162.967,3.2,3.2,0,0,1-2.685-1.305A6.027,6.027,0,0,1,10.529-4.852Zm2.962.185q0,2.558,1.477,2.558a1.43,1.43,0,0,0,1.406-.773V-6.645A1.4,1.4,0,0,0,14.985-7.4q-1.38,0-1.485,2.206ZM26.684-1.028a3.054,3.054,0,0,1-2.54,1.2,3,3,0,0,1-2.369-.91,3.826,3.826,0,0,1-.8-2.615V-9.51h2.962v6.179a1.065,1.065,0,0,0,1.187,1.222,1.548,1.548,0,0,0,1.45-.729V-9.51h2.979V0H26.771ZM34.295,0H31.324V-9.51h2.971ZM31.148-11.962A1.322,1.322,0,0,1,31.605-13a1.724,1.724,0,0,1,1.187-.4,1.724,1.724,0,0,1,1.187.4,1.322,1.322,0,0,1,.457,1.037,1.322,1.322,0,0,1-.457,1.037,1.724,1.724,0,0,1-1.187.4,1.724,1.724,0,0,1-1.187-.4A1.322,1.322,0,0,1,31.148-11.962Zm13.8,7.277a5.735,5.735,0,0,1-1,3.538A3.2,3.2,0,0,1,41.256.176,2.742,2.742,0,0,1,39.1-.782V3.656H36.141V-9.51h2.769L39-8.631a2.742,2.742,0,0,1,2.241-1.055,3.224,3.224,0,0,1,2.733,1.3,5.805,5.805,0,0,1,.976,3.564Zm-2.962-.185q0-2.531-1.477-2.531a1.394,1.394,0,0,0-1.406.756V-2.9a1.439,1.439,0,0,0,1.424.791q1.415,0,1.459-2.443Zm3.894.026a5.613,5.613,0,0,1,.554-2.536,3.96,3.96,0,0,1,1.591-1.709,4.791,4.791,0,0,1,2.435-.6,4.373,4.373,0,0,1,3.366,1.323,5.076,5.076,0,0,1,1.23,3.6v.105A4.925,4.925,0,0,1,53.82-1.129,4.384,4.384,0,0,1,50.476.176a4.434,4.434,0,0,1-3.261-1.217,4.761,4.761,0,0,1-1.327-3.3Zm2.962.185a3.538,3.538,0,0,0,.413,1.934,1.376,1.376,0,0,0,1.222.615q1.582,0,1.617-2.435v-.3q0-2.558-1.635-2.558-1.485,0-1.608,2.206Z" transform="translate(1132.001 2487.826)" fill="#12263f"/>
    <path id="Trazado_128839" data-name="Trazado 128839" d="M0,0V260.347" transform="translate(731.826 2511.152)" fill="none" stroke="#6595bf" stroke-width="1"/>
    <path id="Trazado_128840" data-name="Trazado 128840" d="M0,0V260.347" transform="translate(619.001 2511.152)" fill="none" stroke="#e1e1e1" stroke-width="1"/>
    <path id="Trazado_128847" data-name="Trazado 128847" d="M0,0V260.347" transform="translate(435.825 2511.152)" fill="none" stroke="#e1e1e1" stroke-width="1"/>
    <path id="Trazado_128821" data-name="Trazado 128821" d="M813.5,0H0" transform="translate(393.5 2511.152)" fill="none" stroke="#6595bf" stroke-width="1"/>
    <path id="Trazado_128822" data-name="Trazado 128822" d="M813.267,0H0" transform="translate(393.5 2562.826)" fill="none" stroke="#6595bf" stroke-width="1"/>
    <path id="Trazado_128823" data-name="Trazado 128823" d="M813.267,0H0" transform="translate(393.5 2665.826)" fill="none" stroke="#6595bf" stroke-width="1"/>
    <path id="Trazado_128824" data-name="Trazado 128824" d="M813.267,0H0" transform="translate(393.5 2611.5)" fill="none" stroke="#6595bf" stroke-width="1"/>
    <path id="Trazado_128825" data-name="Trazado 128825" d="M813,0H0" transform="translate(393.5 2719.152)" fill="none" stroke="#6595bf" stroke-width="1"/>
    <path id="Trazado_128826" data-name="Trazado 128826" d="M0,0V260.347" transform="translate(858.826 2511.152)" fill="none" stroke="#6595bf" stroke-width="1"/>
    <path id="Trazado_128827" data-name="Trazado 128827" d="M0,0V260.966" transform="translate(994.827 2511.152)" fill="none" stroke="#6595bf" stroke-width="1"/>
    <path id="Trazado_128828" data-name="Trazado 128828" d="M0,0V260.966" transform="translate(1102.828 2511.152)" fill="none" stroke="#6595bf" stroke-width="1"/>
    <path id="Trazado_128841" data-name="Trazado 128841" d="M13.84,19V6.2h4.122a6.064,6.064,0,0,1,3.05.769,5.406,5.406,0,0,1,2.114,2.171,6.554,6.554,0,0,1,.769,3.142v.589a6.592,6.592,0,0,1-.743,3.151A5.429,5.429,0,0,1,21.06,18.2a5.93,5.93,0,0,1-3.01.8ZM16.925,8.585v8.042H18a2.4,2.4,0,0,0,2.039-.945,4.63,4.63,0,0,0,.712-2.808V12.32a4.592,4.592,0,0,0-.712-2.795,2.442,2.442,0,0,0-2.074-.94ZM31,17.972a3.054,3.054,0,0,1-2.54,1.2,3,3,0,0,1-2.369-.91,3.826,3.826,0,0,1-.8-2.615V9.49h2.962v6.179a1.065,1.065,0,0,0,1.187,1.222,1.548,1.548,0,0,0,1.45-.729V9.49H33.87V19H31.093Zm9.088,1.2a4.889,4.889,0,0,1-3.542-1.305,4.507,4.507,0,0,1-1.354-3.4v-.246a5.84,5.84,0,0,1,.541-2.575,3.955,3.955,0,0,1,1.578-1.727,4.763,4.763,0,0,1,2.461-.611,4.117,4.117,0,0,1,3.164,1.244,4.887,4.887,0,0,1,1.16,3.467v1.151H38.212a2.135,2.135,0,0,0,.694,1.257,2.066,2.066,0,0,0,1.389.457,2.662,2.662,0,0,0,2.2-.984l1.354,1.6a3.784,3.784,0,0,1-1.569,1.217A5.3,5.3,0,0,1,40.093,19.176ZM39.759,11.6q-1.3,0-1.547,1.723H41.2v-.229a1.467,1.467,0,0,0-.36-1.1A1.434,1.434,0,0,0,39.759,11.6ZM48.012,9.49l.1,1.116a3.225,3.225,0,0,1,2.716-1.292,2.713,2.713,0,0,1,2.219.888,4.226,4.226,0,0,1,.76,2.672V19H50.833V13a1.6,1.6,0,0,0-.29-1.059,1.342,1.342,0,0,0-1.055-.338,1.413,1.413,0,0,0-1.292.686V19H45.234V9.49Zm4.913-3.92a2.562,2.562,0,0,1-.584,1.7,1.813,1.813,0,0,1-1.446.7A2.852,2.852,0,0,1,49.6,7.6a2.7,2.7,0,0,0-1.151-.369.66.66,0,0,0-.479.193.8.8,0,0,0-.2.6l-1.644-.088a2.576,2.576,0,0,1,.584-1.687,1.793,1.793,0,0,1,1.437-.712A2.967,2.967,0,0,1,49.3,5.86a7.07,7.07,0,0,0,.9.369,1.74,1.74,0,0,0,.4.044.671.671,0,0,0,.483-.2.807.807,0,0,0,.2-.6Zm2.145,8.587a5.613,5.613,0,0,1,.554-2.536,3.96,3.96,0,0,1,1.591-1.709,4.791,4.791,0,0,1,2.435-.6,4.373,4.373,0,0,1,3.366,1.323,5.076,5.076,0,0,1,1.23,3.6v.105a4.925,4.925,0,0,1-1.235,3.529,4.384,4.384,0,0,1-3.344,1.305,4.434,4.434,0,0,1-3.261-1.217,4.761,4.761,0,0,1-1.327-3.3Zm2.962.185a3.538,3.538,0,0,0,.413,1.934,1.376,1.376,0,0,0,1.222.615q1.582,0,1.617-2.435v-.3q0-2.558-1.635-2.558-1.485,0-1.608,2.206Zm11.628-.167a5.809,5.809,0,0,1,.976-3.56,3.211,3.211,0,0,1,2.725-1.3,2.731,2.731,0,0,1,2.145,1V5.5h2.971V19H75.812l-.149-1.02a2.8,2.8,0,0,1-2.32,1.2,3.205,3.205,0,0,1-2.689-1.3A5.993,5.993,0,0,1,69.659,14.175Zm2.962.185q0,2.531,1.477,2.531a1.458,1.458,0,0,0,1.406-.826V12.443a1.419,1.419,0,0,0-1.389-.844q-1.371,0-1.485,2.215Zm12.138,4.816a4.889,4.889,0,0,1-3.542-1.305,4.507,4.507,0,0,1-1.354-3.4v-.246a5.84,5.84,0,0,1,.541-2.575,3.955,3.955,0,0,1,1.578-1.727,4.763,4.763,0,0,1,2.461-.611,4.117,4.117,0,0,1,3.164,1.244,4.887,4.887,0,0,1,1.16,3.467v1.151H82.878a2.135,2.135,0,0,0,.694,1.257,2.066,2.066,0,0,0,1.389.457,2.662,2.662,0,0,0,2.2-.984l1.354,1.6a3.784,3.784,0,0,1-1.569,1.217A5.3,5.3,0,0,1,84.759,19.176ZM84.425,11.6q-1.3,0-1.547,1.723h2.988v-.229a1.467,1.467,0,0,0-.36-1.1A1.434,1.434,0,0,0,84.425,11.6ZM24.461,35.315a5.735,5.735,0,0,1-1,3.538,3.2,3.2,0,0,1-2.694,1.323,2.742,2.742,0,0,1-2.153-.958v4.438H15.655V30.49h2.769l.088.879a2.742,2.742,0,0,1,2.241-1.055,3.224,3.224,0,0,1,2.733,1.3,5.805,5.805,0,0,1,.976,3.564ZM21.5,35.131q0-2.531-1.477-2.531a1.394,1.394,0,0,0-1.406.756V37.1a1.439,1.439,0,0,0,1.424.791q1.415,0,1.459-2.443Zm10.02-1.96-.976-.07a1.752,1.752,0,0,0-1.793.879V40H25.789V30.49h2.777l.1,1.222a2.294,2.294,0,0,1,2.083-1.4,2.888,2.888,0,0,1,.826.105Zm.378,1.986a5.613,5.613,0,0,1,.554-2.536,3.96,3.96,0,0,1,1.591-1.709,4.791,4.791,0,0,1,2.435-.6,4.373,4.373,0,0,1,3.366,1.323,5.076,5.076,0,0,1,1.23,3.6v.105a4.925,4.925,0,0,1-1.235,3.529,4.384,4.384,0,0,1-3.344,1.305,4.434,4.434,0,0,1-3.261-1.217,4.761,4.761,0,0,1-1.327-3.3Zm2.962.185a3.538,3.538,0,0,0,.413,1.934,1.376,1.376,0,0,0,1.222.615q1.582,0,1.617-2.435v-.3q0-2.558-1.635-2.558-1.485,0-1.608,2.206ZM42,35.175a5.809,5.809,0,0,1,.976-3.56,3.211,3.211,0,0,1,2.725-1.3,2.731,2.731,0,0,1,2.145,1V26.5H50.82V40H48.157l-.149-1.02a2.8,2.8,0,0,1-2.32,1.2A3.205,3.205,0,0,1,43,38.875,5.993,5.993,0,0,1,42,35.175Zm2.962.185q0,2.531,1.477,2.531a1.458,1.458,0,0,0,1.406-.826V33.443A1.419,1.419,0,0,0,46.46,32.6q-1.371,0-1.485,2.215Zm13.2,3.612a3.054,3.054,0,0,1-2.54,1.2,3,3,0,0,1-2.369-.91,3.826,3.826,0,0,1-.8-2.615V30.49h2.962v6.179A1.065,1.065,0,0,0,56.6,37.891a1.548,1.548,0,0,0,1.45-.729V30.49h2.979V40H58.255Zm8.508-1.081a1.317,1.317,0,0,0,.967-.338,1.241,1.241,0,0,0,.334-.945h2.777a3.288,3.288,0,0,1-1.121,2.566,4.168,4.168,0,0,1-2.887,1,4.22,4.22,0,0,1-3.27-1.3,5.125,5.125,0,0,1-1.2-3.6v-.123a5.792,5.792,0,0,1,.532-2.544,3.872,3.872,0,0,1,1.534-1.7,4.573,4.573,0,0,1,2.373-.593,4.116,4.116,0,0,1,2.944,1.028,3.647,3.647,0,0,1,1.09,2.786H67.976A1.626,1.626,0,0,0,67.616,33a1.244,1.244,0,0,0-.967-.4q-1.151,0-1.345,1.468a10.357,10.357,0,0,0-.062,1.283,4.068,4.068,0,0,0,.343,1.986A1.187,1.187,0,0,0,66.675,37.891Zm8.78-9.765V30.49H77.02v2.057H75.456V36.9a1.111,1.111,0,0,0,.193.747,1.037,1.037,0,0,0,.765.211,4.345,4.345,0,0,0,.738-.053v2.118a5.466,5.466,0,0,1-1.67.255,3.1,3.1,0,0,1-2.259-.721,2.954,2.954,0,0,1-.729-2.188v-4.72H71.281V30.49h1.213V28.126Zm2.092,7.031a5.613,5.613,0,0,1,.554-2.536,3.96,3.96,0,0,1,1.591-1.709,4.791,4.791,0,0,1,2.435-.6,4.373,4.373,0,0,1,3.366,1.323,5.076,5.076,0,0,1,1.23,3.6v.105a4.925,4.925,0,0,1-1.235,3.529,4.384,4.384,0,0,1-3.344,1.305,4.434,4.434,0,0,1-3.261-1.217,4.761,4.761,0,0,1-1.327-3.3Zm2.962.185a3.538,3.538,0,0,0,.413,1.934,1.376,1.376,0,0,0,1.222.615q1.582,0,1.617-2.435v-.3q0-2.558-1.635-2.558-1.485,0-1.608,2.206Z" transform="translate(620 2457.326)" fill="#12263f"/>
    <path id="Trazado_128842" data-name="Trazado 128842" d="M4.254,19H1.178V6.2H4.254ZM8.982,9.49l.1,1.116a3.225,3.225,0,0,1,2.716-1.292,2.713,2.713,0,0,1,2.219.888,4.226,4.226,0,0,1,.76,2.672V19H11.8V13a1.6,1.6,0,0,0-.29-1.059,1.342,1.342,0,0,0-1.055-.338,1.413,1.413,0,0,0-1.292.686V19H6.205V9.49Zm11.224,5.985,1.5-5.985h3.12L21.727,19H18.7L15.6,9.49h3.129Zm10.107,3.7a4.889,4.889,0,0,1-3.542-1.305,4.507,4.507,0,0,1-1.354-3.4v-.246a5.84,5.84,0,0,1,.541-2.575,3.955,3.955,0,0,1,1.578-1.727A4.763,4.763,0,0,1,30,9.314a4.117,4.117,0,0,1,3.164,1.244,4.887,4.887,0,0,1,1.16,3.467v1.151H28.433a2.135,2.135,0,0,0,.694,1.257,2.066,2.066,0,0,0,1.389.457,2.662,2.662,0,0,0,2.2-.984l1.354,1.6A3.784,3.784,0,0,1,32.5,18.723,5.3,5.3,0,0,1,30.313,19.176ZM29.979,11.6q-1.3,0-1.547,1.723h2.988v-.229a1.467,1.467,0,0,0-.36-1.1A1.434,1.434,0,0,0,29.979,11.6Zm10.512,4.729a.684.684,0,0,0-.4-.606,6.016,6.016,0,0,0-1.5-.475,6.853,6.853,0,0,1-1.828-.646,3.062,3.062,0,0,1-1.1-.971,2.319,2.319,0,0,1-.378-1.31,2.628,2.628,0,0,1,1.081-2.158,4.453,4.453,0,0,1,2.83-.848,4.934,4.934,0,0,1,3.023.853,2.666,2.666,0,0,1,1.143,2.241H40.395q0-1.143-1.2-1.143a1.194,1.194,0,0,0-.782.259.8.8,0,0,0-.316.646.737.737,0,0,0,.387.642,3.654,3.654,0,0,0,1.235.4,10.671,10.671,0,0,1,1.49.378,2.706,2.706,0,0,1,2.145,2.646,2.491,2.491,0,0,1-1.156,2.118,5.068,5.068,0,0,1-2.993.817,5.172,5.172,0,0,1-2.18-.439,3.645,3.645,0,0,1-1.494-1.2,2.707,2.707,0,0,1-.536-1.591h2.769a1.145,1.145,0,0,0,.439.962,1.808,1.808,0,0,0,1.081.3,1.422,1.422,0,0,0,.91-.246A.787.787,0,0,0,40.491,16.328Zm7.69-9.2V9.49h1.564v2.057H48.182V15.9a1.111,1.111,0,0,0,.193.747,1.037,1.037,0,0,0,.765.211,4.345,4.345,0,0,0,.738-.053v2.118a5.466,5.466,0,0,1-1.67.255,3.1,3.1,0,0,1-2.259-.721,2.954,2.954,0,0,1-.729-2.188v-4.72H44.007V9.49H45.22V7.126ZM54.035,19H51.064V9.49h2.971ZM50.889,7.038A1.322,1.322,0,0,1,51.346,6a1.943,1.943,0,0,1,2.373,0,1.322,1.322,0,0,1,.457,1.037,1.322,1.322,0,0,1-.457,1.037,1.943,1.943,0,0,1-2.373,0A1.322,1.322,0,0,1,50.889,7.038Zm4.623,7.137a6.421,6.421,0,0,1,.475-2.549,3.821,3.821,0,0,1,1.362-1.709,3.591,3.591,0,0,1,2.065-.6,2.855,2.855,0,0,1,2.32,1l.105-.826h2.689V18.64a4.009,4.009,0,0,1-.584,2.184,3.75,3.75,0,0,1-1.692,1.424,6.219,6.219,0,0,1-2.566.5,5.365,5.365,0,0,1-2.026-.4,3.657,3.657,0,0,1-1.5-1.028L57.4,19.58a2.716,2.716,0,0,0,2.18.976,1.764,1.764,0,0,0,1.969-2.021v-.3a2.781,2.781,0,0,1-2.153.94,3.437,3.437,0,0,1-2.812-1.332,5.517,5.517,0,0,1-1.072-3.564Zm2.971.185a3.383,3.383,0,0,0,.439,1.85,1.387,1.387,0,0,0,1.23.681,1.573,1.573,0,0,0,1.4-.642v-4a1.534,1.534,0,0,0-1.38-.65,1.4,1.4,0,0,0-1.239.708A3.858,3.858,0,0,0,58.482,14.359ZM71.569,19a3.344,3.344,0,0,1-.281-.853A2.754,2.754,0,0,1,69,19.176a3.374,3.374,0,0,1-2.285-.813,2.588,2.588,0,0,1-.94-2.043,2.66,2.66,0,0,1,1.143-2.338,5.821,5.821,0,0,1,3.322-.791h.914v-.5q0-1.316-1.134-1.316a.927.927,0,0,0-1.055,1.042H66.006a2.655,2.655,0,0,1,1.173-2.239,4.931,4.931,0,0,1,2.993-.86,4.323,4.323,0,0,1,2.874.888,3.086,3.086,0,0,1,1.081,2.435v4.21a4.311,4.311,0,0,0,.4,2V19Zm-1.854-1.934a1.652,1.652,0,0,0,.918-.237,1.487,1.487,0,0,0,.523-.536V14.772h-.861q-1.547,0-1.547,1.389a.848.848,0,0,0,.272.655A.986.986,0,0,0,69.715,17.066Zm10.072-.176a1.317,1.317,0,0,0,.967-.338,1.241,1.241,0,0,0,.334-.945h2.777a3.288,3.288,0,0,1-1.121,2.566,4.168,4.168,0,0,1-2.887,1,4.22,4.22,0,0,1-3.27-1.3,5.125,5.125,0,0,1-1.2-3.6v-.123a5.792,5.792,0,0,1,.532-2.544,3.872,3.872,0,0,1,1.534-1.7,4.573,4.573,0,0,1,2.373-.593,4.116,4.116,0,0,1,2.944,1.028,3.647,3.647,0,0,1,1.09,2.786H81.088A1.626,1.626,0,0,0,80.728,12a1.244,1.244,0,0,0-.967-.4q-1.151,0-1.345,1.468a10.357,10.357,0,0,0-.062,1.283,4.068,4.068,0,0,0,.343,1.986A1.187,1.187,0,0,0,79.787,16.891ZM88.242,19H85.271V9.49h2.971ZM85.1,7.038A1.322,1.322,0,0,1,85.553,6a1.943,1.943,0,0,1,2.373,0,1.322,1.322,0,0,1,.457,1.037,1.322,1.322,0,0,1-.457,1.037,1.943,1.943,0,0,1-2.373,0A1.322,1.322,0,0,1,85.1,7.038Zm4.6,7.119a5.613,5.613,0,0,1,.554-2.536,3.96,3.96,0,0,1,1.591-1.709,4.791,4.791,0,0,1,2.435-.6,4.373,4.373,0,0,1,3.366,1.323,5.076,5.076,0,0,1,1.23,3.6v.105a4.925,4.925,0,0,1-1.235,3.529,4.384,4.384,0,0,1-3.344,1.305,4.434,4.434,0,0,1-3.261-1.217,4.761,4.761,0,0,1-1.327-3.3Zm2.962.185a3.538,3.538,0,0,0,.413,1.934,1.376,1.376,0,0,0,1.222.615q1.582,0,1.617-2.435v-.3q0-2.558-1.635-2.558-1.485,0-1.608,2.206ZM94.676,5.5H97.8L95.361,8.26l-2.417,0Zm8.218,3.99.1,1.116a3.225,3.225,0,0,1,2.716-1.292,2.713,2.713,0,0,1,2.219.888,4.226,4.226,0,0,1,.76,2.672V19h-2.971V13a1.6,1.6,0,0,0-.29-1.059,1.342,1.342,0,0,0-1.055-.338,1.413,1.413,0,0,0-1.292.686V19h-2.962V9.49Zm15.715,5.361L120.19,9.49h3.173l-3.876,11.1-.167.4a2.944,2.944,0,0,1-2.918,1.846,4.642,4.642,0,0,1-1.222-.175v-2.11h.387a2.026,2.026,0,0,0,.954-.18,1.094,1.094,0,0,0,.488-.647l.237-.633-3.3-9.605h3.164Zm9.633-.677a5.809,5.809,0,0,1,.976-3.56,3.211,3.211,0,0,1,2.725-1.3,2.731,2.731,0,0,1,2.145,1V5.5h2.971V19h-2.663l-.149-1.02a2.8,2.8,0,0,1-2.32,1.2,3.205,3.205,0,0,1-2.689-1.3A5.993,5.993,0,0,1,128.241,14.175Zm2.962.185q0,2.531,1.477,2.531a1.458,1.458,0,0,0,1.406-.826V12.443A1.419,1.419,0,0,0,132.7,11.6q-1.371,0-1.485,2.215ZM141.864,19h-2.971V9.49h2.971ZM138.718,7.038A1.322,1.322,0,0,1,139.175,6a1.943,1.943,0,0,1,2.373,0A1.322,1.322,0,0,1,142,7.038a1.322,1.322,0,0,1-.457,1.037,1.943,1.943,0,0,1-2.373,0A1.322,1.322,0,0,1,138.718,7.038Zm9.949,9.29a.684.684,0,0,0-.4-.606,6.016,6.016,0,0,0-1.5-.475,6.853,6.853,0,0,1-1.828-.646,3.062,3.062,0,0,1-1.1-.971,2.319,2.319,0,0,1-.378-1.31,2.628,2.628,0,0,1,1.081-2.158,4.453,4.453,0,0,1,2.83-.848,4.934,4.934,0,0,1,3.023.853,2.666,2.666,0,0,1,1.143,2.241H148.57q0-1.143-1.2-1.143a1.194,1.194,0,0,0-.782.259.8.8,0,0,0-.316.646.737.737,0,0,0,.387.642,3.654,3.654,0,0,0,1.235.4,10.671,10.671,0,0,1,1.49.378,2.706,2.706,0,0,1,2.145,2.646,2.491,2.491,0,0,1-1.156,2.118,5.068,5.068,0,0,1-2.993.817,5.172,5.172,0,0,1-2.18-.439,3.645,3.645,0,0,1-1.494-1.2,2.707,2.707,0,0,1-.536-1.591h2.769a1.145,1.145,0,0,0,.439.962,1.808,1.808,0,0,0,1.081.3,1.422,1.422,0,0,0,.91-.246A.787.787,0,0,0,148.667,16.328Zm8.842,2.848a4.889,4.889,0,0,1-3.542-1.305,4.507,4.507,0,0,1-1.354-3.4v-.246a5.84,5.84,0,0,1,.541-2.575,3.955,3.955,0,0,1,1.578-1.727,4.763,4.763,0,0,1,2.461-.611,4.117,4.117,0,0,1,3.164,1.244,4.887,4.887,0,0,1,1.16,3.467v1.151h-5.889a2.135,2.135,0,0,0,.694,1.257,2.066,2.066,0,0,0,1.389.457,2.662,2.662,0,0,0,2.2-.984l1.354,1.6a3.784,3.784,0,0,1-1.569,1.217A5.3,5.3,0,0,1,157.509,19.176Zm-.334-7.576q-1.3,0-1.547,1.723h2.988v-.229a1.467,1.467,0,0,0-.36-1.1A1.434,1.434,0,0,0,157.175,11.6Zm8.253-2.109.1,1.116a3.225,3.225,0,0,1,2.716-1.292,2.713,2.713,0,0,1,2.219.888,4.226,4.226,0,0,1,.76,2.672V19h-2.971V13a1.6,1.6,0,0,0-.29-1.059A1.342,1.342,0,0,0,166.9,11.6a1.413,1.413,0,0,0-1.292.686V19H162.65V9.49Zm4.913-3.92a2.562,2.562,0,0,1-.584,1.7,1.813,1.813,0,0,1-1.446.7,2.852,2.852,0,0,1-1.292-.369,2.7,2.7,0,0,0-1.151-.369.66.66,0,0,0-.479.193.8.8,0,0,0-.2.6l-1.644-.088a2.576,2.576,0,0,1,.584-1.687,1.793,1.793,0,0,1,1.437-.712,2.967,2.967,0,0,1,1.151.325,7.07,7.07,0,0,0,.9.369,1.74,1.74,0,0,0,.4.044.671.671,0,0,0,.483-.2.807.807,0,0,0,.2-.6Zm2.145,8.587a5.613,5.613,0,0,1,.554-2.536,3.96,3.96,0,0,1,1.591-1.709,4.791,4.791,0,0,1,2.435-.6,4.373,4.373,0,0,1,3.366,1.323,5.076,5.076,0,0,1,1.23,3.6v.105a4.925,4.925,0,0,1-1.235,3.529,4.384,4.384,0,0,1-3.344,1.305,4.434,4.434,0,0,1-3.261-1.217,4.761,4.761,0,0,1-1.327-3.3Zm2.962.185a3.538,3.538,0,0,0,.413,1.934,1.376,1.376,0,0,0,1.222.615q1.582,0,1.617-2.435v-.3q0-2.558-1.635-2.558-1.485,0-1.608,2.206Z" transform="translate(428.174 2528.652)" fill="#12263f"/>
    <path id="Trazado_128843" data-name="Trazado 128843" d="M4.052,14.658V19H.967V6.2H6.073a5.948,5.948,0,0,1,2.6.541,4.074,4.074,0,0,1,1.749,1.538,4.2,4.2,0,0,1,.62,2.263A3.7,3.7,0,0,1,9.7,13.538a5.561,5.561,0,0,1-3.678,1.121Zm0-2.382H6.073a1.906,1.906,0,0,0,1.367-.448,1.665,1.665,0,0,0,.47-1.266A2.059,2.059,0,0,0,7.427,9.13a1.712,1.712,0,0,0-1.318-.545H4.052ZM18.3,12.171l-.976-.07a1.752,1.752,0,0,0-1.793.879V19H12.568V9.49h2.777l.1,1.222a2.294,2.294,0,0,1,2.083-1.4,2.888,2.888,0,0,1,.826.105Zm6.732,5.8a3.054,3.054,0,0,1-2.54,1.2,3,3,0,0,1-2.369-.91,3.826,3.826,0,0,1-.8-2.615V9.49H22.28v6.179a1.065,1.065,0,0,0,1.187,1.222,1.548,1.548,0,0,0,1.45-.729V9.49H27.9V19H25.119Zm9.088,1.2a4.889,4.889,0,0,1-3.542-1.305,4.507,4.507,0,0,1-1.354-3.4v-.246a5.84,5.84,0,0,1,.541-2.575,3.955,3.955,0,0,1,1.578-1.727A4.763,4.763,0,0,1,33.8,9.314a4.117,4.117,0,0,1,3.164,1.244,4.887,4.887,0,0,1,1.16,3.467v1.151H32.238a2.135,2.135,0,0,0,.694,1.257,2.066,2.066,0,0,0,1.389.457,2.662,2.662,0,0,0,2.2-.984l1.354,1.6A3.784,3.784,0,0,1,36.3,18.723,5.3,5.3,0,0,1,34.119,19.176ZM33.785,11.6q-1.3,0-1.547,1.723h2.988v-.229a1.467,1.467,0,0,0-.36-1.1A1.434,1.434,0,0,0,33.785,11.6Zm14.361,2.725a5.8,5.8,0,0,1-.967,3.595,3.238,3.238,0,0,1-2.725,1.257,2.81,2.81,0,0,1-2.338-1.151L41.994,19H39.34V5.5H42.3v4.755a2.711,2.711,0,0,1,2.136-.94,3.239,3.239,0,0,1,2.742,1.274,5.826,5.826,0,0,1,.967,3.586Zm-2.971-.189a3.866,3.866,0,0,0-.365-1.952A1.229,1.229,0,0,0,43.69,11.6a1.418,1.418,0,0,0-1.389.763v3.773a1.426,1.426,0,0,0,1.406.755,1.258,1.258,0,0,0,1.327-1.018A7.309,7.309,0,0,0,45.176,14.135ZM54.809,19a3.344,3.344,0,0,1-.281-.853,2.754,2.754,0,0,1-2.285,1.028,3.374,3.374,0,0,1-2.285-.813,2.588,2.588,0,0,1-.94-2.043,2.66,2.66,0,0,1,1.143-2.338,5.821,5.821,0,0,1,3.322-.791H54.4v-.5q0-1.316-1.134-1.316a.927.927,0,0,0-1.055,1.042H49.245a2.655,2.655,0,0,1,1.173-2.239,4.931,4.931,0,0,1,2.993-.86,4.323,4.323,0,0,1,2.874.888,3.086,3.086,0,0,1,1.081,2.435v4.21a4.311,4.311,0,0,0,.4,2V19Zm-1.854-1.934a1.652,1.652,0,0,0,.918-.237,1.487,1.487,0,0,0,.523-.536V14.772h-.861q-1.547,0-1.547,1.389a.848.848,0,0,0,.272.655A.986.986,0,0,0,52.954,17.066Zm10.16-2.892a5.809,5.809,0,0,1,.976-3.56,3.211,3.211,0,0,1,2.725-1.3,2.731,2.731,0,0,1,2.145,1V5.5H71.93V19H69.267l-.149-1.02a2.8,2.8,0,0,1-2.32,1.2,3.205,3.205,0,0,1-2.689-1.3A5.993,5.993,0,0,1,63.114,14.175Zm2.962.185q0,2.531,1.477,2.531a1.458,1.458,0,0,0,1.406-.826V12.443A1.419,1.419,0,0,0,67.57,11.6q-1.371,0-1.485,2.215Zm12.138,4.816a4.889,4.889,0,0,1-3.542-1.305,4.507,4.507,0,0,1-1.354-3.4v-.246a5.84,5.84,0,0,1,.541-2.575,3.955,3.955,0,0,1,1.578-1.727A4.763,4.763,0,0,1,77.9,9.314a4.117,4.117,0,0,1,3.164,1.244,4.887,4.887,0,0,1,1.16,3.467v1.151H76.333a2.135,2.135,0,0,0,.694,1.257,2.066,2.066,0,0,0,1.389.457,2.662,2.662,0,0,0,2.2-.984l1.354,1.6A3.784,3.784,0,0,1,80.4,18.723,5.3,5.3,0,0,1,78.214,19.176ZM77.88,11.6q-1.3,0-1.547,1.723h2.988v-.229a1.467,1.467,0,0,0-.36-1.1A1.434,1.434,0,0,0,77.88,11.6Zm18.844,2.716a5.735,5.735,0,0,1-1,3.538,3.2,3.2,0,0,1-2.694,1.323,2.742,2.742,0,0,1-2.153-.958v4.438H87.917V9.49h2.769l.088.879a2.742,2.742,0,0,1,2.241-1.055,3.224,3.224,0,0,1,2.733,1.3,5.805,5.805,0,0,1,.976,3.564Zm-2.962-.185q0-2.531-1.477-2.531a1.394,1.394,0,0,0-1.406.756V16.1a1.439,1.439,0,0,0,1.424.791q1.415,0,1.459-2.443Zm10.02-1.96-.976-.07a1.752,1.752,0,0,0-1.793.879V19H98.051V9.49h2.777l.1,1.222a2.294,2.294,0,0,1,2.083-1.4,2.888,2.888,0,0,1,.826.105Zm.378,1.986a5.613,5.613,0,0,1,.554-2.536A3.96,3.96,0,0,1,106.3,9.912a4.791,4.791,0,0,1,2.435-.6,4.373,4.373,0,0,1,3.366,1.323,5.076,5.076,0,0,1,1.23,3.6v.105a4.925,4.925,0,0,1-1.235,3.529,4.384,4.384,0,0,1-3.344,1.305,4.434,4.434,0,0,1-3.261-1.217,4.761,4.761,0,0,1-1.327-3.3Zm2.962.185a3.538,3.538,0,0,0,.413,1.934,1.376,1.376,0,0,0,1.222.615q1.582,0,1.617-2.435v-.3q0-2.558-1.635-2.558-1.485,0-1.608,2.206Zm7.146-.167a5.809,5.809,0,0,1,.976-3.56,3.211,3.211,0,0,1,2.725-1.3,2.731,2.731,0,0,1,2.145,1V5.5h2.971V19h-2.663l-.149-1.02a2.8,2.8,0,0,1-2.32,1.2,3.205,3.205,0,0,1-2.689-1.3A5.993,5.993,0,0,1,114.267,14.175Zm2.962.185q0,2.531,1.477,2.531a1.458,1.458,0,0,0,1.406-.826V12.443a1.419,1.419,0,0,0-1.389-.844q-1.371,0-1.485,2.215Zm13.2,3.612a3.054,3.054,0,0,1-2.54,1.2,3,3,0,0,1-2.369-.91,3.826,3.826,0,0,1-.8-2.615V9.49h2.962v6.179a1.065,1.065,0,0,0,1.187,1.222,1.548,1.548,0,0,0,1.45-.729V9.49h2.979V19h-2.777Zm8.508-1.081a1.317,1.317,0,0,0,.967-.338,1.241,1.241,0,0,0,.334-.945h2.777a3.288,3.288,0,0,1-1.121,2.566,4.168,4.168,0,0,1-2.887,1,4.22,4.22,0,0,1-3.27-1.3,5.125,5.125,0,0,1-1.2-3.6v-.123a5.792,5.792,0,0,1,.532-2.544,3.872,3.872,0,0,1,1.534-1.7,4.573,4.573,0,0,1,2.373-.593,4.116,4.116,0,0,1,2.944,1.028,3.647,3.647,0,0,1,1.09,2.786h-2.777a1.626,1.626,0,0,0-.36-1.134,1.244,1.244,0,0,0-.967-.4q-1.151,0-1.345,1.468a10.357,10.357,0,0,0-.062,1.283,4.068,4.068,0,0,0,.343,1.986A1.187,1.187,0,0,0,138.938,16.891Zm8.78-9.765V9.49h1.564v2.057h-1.564V15.9a1.111,1.111,0,0,0,.193.747,1.037,1.037,0,0,0,.765.211,4.345,4.345,0,0,0,.738-.053v2.118a5.466,5.466,0,0,1-1.67.255,3.1,3.1,0,0,1-2.259-.721,2.954,2.954,0,0,1-.729-2.188v-4.72h-1.213V9.49h1.213V7.126Zm2.092,7.031a5.613,5.613,0,0,1,.554-2.536,3.96,3.96,0,0,1,1.591-1.709,4.791,4.791,0,0,1,2.435-.6,4.373,4.373,0,0,1,3.366,1.323,5.076,5.076,0,0,1,1.23,3.6v.105a4.925,4.925,0,0,1-1.235,3.529,4.384,4.384,0,0,1-3.344,1.305,4.434,4.434,0,0,1-3.261-1.217,4.761,4.761,0,0,1-1.327-3.3Zm2.962.185a3.538,3.538,0,0,0,.413,1.934,1.376,1.376,0,0,0,1.222.615q1.582,0,1.617-2.435v-.3q0-2.558-1.635-2.558-1.485,0-1.608,2.206Z" transform="translate(423.999 2627.5)" fill="#12263f"/>
    <path id="Trazado_128844" data-name="Trazado 128844" d="M5.722,14.474H4.052V19H.967V6.2H6a5.621,5.621,0,0,1,3.56,1.01,3.421,3.421,0,0,1,1.283,2.853,4.155,4.155,0,0,1-.541,2.213A3.837,3.837,0,0,1,8.613,13.7l2.672,5.167V19H7.98ZM4.052,12.1H6a1.751,1.751,0,0,0,1.323-.463,1.788,1.788,0,0,0,.444-1.291,1.809,1.809,0,0,0-.448-1.3A1.735,1.735,0,0,0,6,8.576H4.052Zm13.122,7.075a4.889,4.889,0,0,1-3.542-1.305,4.507,4.507,0,0,1-1.354-3.4v-.246a5.84,5.84,0,0,1,.541-2.575A3.955,3.955,0,0,1,14.4,9.925a4.763,4.763,0,0,1,2.461-.611,4.117,4.117,0,0,1,3.164,1.244,4.887,4.887,0,0,1,1.16,3.467v1.151H15.293a2.135,2.135,0,0,0,.694,1.257,2.066,2.066,0,0,0,1.389.457,2.662,2.662,0,0,0,2.2-.984l1.354,1.6a3.784,3.784,0,0,1-1.569,1.217A5.3,5.3,0,0,1,17.174,19.176ZM16.84,11.6q-1.3,0-1.547,1.723h2.988v-.229a1.467,1.467,0,0,0-.36-1.1A1.434,1.434,0,0,0,16.84,11.6Zm9.554,5.291a1.317,1.317,0,0,0,.967-.338,1.241,1.241,0,0,0,.334-.945h2.777a3.288,3.288,0,0,1-1.121,2.566,4.168,4.168,0,0,1-2.887,1,4.22,4.22,0,0,1-3.27-1.3,5.125,5.125,0,0,1-1.2-3.6v-.123a5.792,5.792,0,0,1,.532-2.544,3.872,3.872,0,0,1,1.534-1.7,4.573,4.573,0,0,1,2.373-.593,4.116,4.116,0,0,1,2.944,1.028,3.647,3.647,0,0,1,1.09,2.786H27.694A1.626,1.626,0,0,0,27.334,12a1.244,1.244,0,0,0-.967-.4q-1.151,0-1.345,1.468a10.357,10.357,0,0,0-.062,1.283,4.068,4.068,0,0,0,.343,1.986A1.187,1.187,0,0,0,26.394,16.891Zm4.957-2.733a5.613,5.613,0,0,1,.554-2.536A3.96,3.96,0,0,1,33.5,9.912a4.791,4.791,0,0,1,2.435-.6A4.373,4.373,0,0,1,39.3,10.637a5.076,5.076,0,0,1,1.23,3.6v.105a4.925,4.925,0,0,1-1.235,3.529,4.384,4.384,0,0,1-3.344,1.305,4.434,4.434,0,0,1-3.261-1.217,4.761,4.761,0,0,1-1.327-3.3Zm2.962.185a3.538,3.538,0,0,0,.413,1.934,1.376,1.376,0,0,0,1.222.615q1.582,0,1.617-2.435v-.3q0-2.558-1.635-2.558-1.485,0-1.608,2.206ZM44.631,9.49l.1,1.116a3.27,3.27,0,0,1,2.716-1.292,2.407,2.407,0,0,1,2.435,1.433,3.165,3.165,0,0,1,2.795-1.433q2.892,0,2.971,3.5V19H52.673V13a1.813,1.813,0,0,0-.246-1.063,1.048,1.048,0,0,0-.9-.334,1.4,1.4,0,0,0-1.31.782l.009.123V19H47.259V13.015a1.906,1.906,0,0,0-.237-1.081,1.045,1.045,0,0,0-.905-.334,1.42,1.42,0,0,0-1.3.782V19H41.854V9.49Zm17.306,9.686a4.889,4.889,0,0,1-3.542-1.305,4.507,4.507,0,0,1-1.354-3.4v-.246a5.84,5.84,0,0,1,.541-2.575,3.955,3.955,0,0,1,1.578-1.727,4.763,4.763,0,0,1,2.461-.611,4.117,4.117,0,0,1,3.164,1.244,4.887,4.887,0,0,1,1.16,3.467v1.151H60.056a2.135,2.135,0,0,0,.694,1.257,2.066,2.066,0,0,0,1.389.457,2.662,2.662,0,0,0,2.2-.984l1.354,1.6a3.784,3.784,0,0,1-1.569,1.217A5.3,5.3,0,0,1,61.937,19.176ZM61.6,11.6q-1.3,0-1.547,1.723h2.988v-.229a1.467,1.467,0,0,0-.36-1.1A1.434,1.434,0,0,0,61.6,11.6ZM69.855,9.49l.1,1.116a3.225,3.225,0,0,1,2.716-1.292,2.713,2.713,0,0,1,2.219.888,4.226,4.226,0,0,1,.76,2.672V19H72.677V13a1.6,1.6,0,0,0-.29-1.059,1.342,1.342,0,0,0-1.055-.338,1.413,1.413,0,0,0-1.292.686V19H67.078V9.49Zm7.058,4.685a5.809,5.809,0,0,1,.976-3.56,3.211,3.211,0,0,1,2.725-1.3,2.731,2.731,0,0,1,2.145,1V5.5h2.971V19H83.065l-.149-1.02a2.8,2.8,0,0,1-2.32,1.2,3.205,3.205,0,0,1-2.689-1.3A5.993,5.993,0,0,1,76.913,14.175Zm2.962.185q0,2.531,1.477,2.531a1.458,1.458,0,0,0,1.406-.826V12.443a1.419,1.419,0,0,0-1.389-.844q-1.371,0-1.485,2.215ZM92.769,19a3.344,3.344,0,0,1-.281-.853A2.754,2.754,0,0,1,90.2,19.176a3.374,3.374,0,0,1-2.285-.813,2.588,2.588,0,0,1-.94-2.043,2.66,2.66,0,0,1,1.143-2.338,5.821,5.821,0,0,1,3.322-.791h.914v-.5q0-1.316-1.134-1.316a.927.927,0,0,0-1.055,1.042H87.205a2.655,2.655,0,0,1,1.173-2.239,4.931,4.931,0,0,1,2.993-.86,4.323,4.323,0,0,1,2.874.888,3.086,3.086,0,0,1,1.081,2.435v4.21a4.311,4.311,0,0,0,.4,2V19Zm-1.854-1.934a1.652,1.652,0,0,0,.918-.237,1.487,1.487,0,0,0,.523-.536V14.772h-.861q-1.547,0-1.547,1.389a.848.848,0,0,0,.272.655A.986.986,0,0,0,90.914,17.066Zm10.072-.176a1.317,1.317,0,0,0,.967-.338,1.241,1.241,0,0,0,.334-.945h2.777a3.288,3.288,0,0,1-1.121,2.566,4.168,4.168,0,0,1-2.887,1,4.22,4.22,0,0,1-3.27-1.3,5.125,5.125,0,0,1-1.2-3.6v-.123a5.792,5.792,0,0,1,.532-2.544,3.872,3.872,0,0,1,1.534-1.7,4.573,4.573,0,0,1,2.373-.593,4.116,4.116,0,0,1,2.944,1.028,3.647,3.647,0,0,1,1.09,2.786h-2.777a1.626,1.626,0,0,0-.36-1.134,1.244,1.244,0,0,0-.967-.4q-1.151,0-1.345,1.468a10.357,10.357,0,0,0-.062,1.283,4.068,4.068,0,0,0,.343,1.986A1.187,1.187,0,0,0,100.986,16.891ZM109.441,19h-2.971V9.49h2.971ZM106.295,7.038A1.322,1.322,0,0,1,106.752,6a1.943,1.943,0,0,1,2.373,0,1.322,1.322,0,0,1,.457,1.037,1.322,1.322,0,0,1-.457,1.037,1.943,1.943,0,0,1-2.373,0A1.322,1.322,0,0,1,106.295,7.038Zm4.6,7.119a5.613,5.613,0,0,1,.554-2.536,3.96,3.96,0,0,1,1.591-1.709,4.791,4.791,0,0,1,2.435-.6,4.373,4.373,0,0,1,3.366,1.323,5.076,5.076,0,0,1,1.23,3.6v.105a4.925,4.925,0,0,1-1.235,3.529,4.384,4.384,0,0,1-3.344,1.305,4.434,4.434,0,0,1-3.261-1.217,4.761,4.761,0,0,1-1.327-3.3Zm2.962.185a3.538,3.538,0,0,0,.413,1.934,1.376,1.376,0,0,0,1.222.615q1.582,0,1.617-2.435v-.3q0-2.558-1.635-2.558-1.485,0-1.608,2.206ZM124.093,9.49l.1,1.116a3.225,3.225,0,0,1,2.716-1.292,2.713,2.713,0,0,1,2.219.888,4.226,4.226,0,0,1,.76,2.672V19h-2.971V13a1.6,1.6,0,0,0-.29-1.059,1.342,1.342,0,0,0-1.055-.338,1.413,1.413,0,0,0-1.292.686V19h-2.962V9.49Zm12.032,9.686a4.889,4.889,0,0,1-3.542-1.305,4.507,4.507,0,0,1-1.354-3.4v-.246a5.84,5.84,0,0,1,.541-2.575,3.955,3.955,0,0,1,1.578-1.727,4.763,4.763,0,0,1,2.461-.611,4.117,4.117,0,0,1,3.164,1.244,4.887,4.887,0,0,1,1.16,3.467v1.151h-5.889a2.135,2.135,0,0,0,.694,1.257,2.066,2.066,0,0,0,1.389.457,2.662,2.662,0,0,0,2.2-.984l1.354,1.6a3.784,3.784,0,0,1-1.569,1.217A5.3,5.3,0,0,1,136.125,19.176Zm-.334-7.576q-1.3,0-1.547,1.723h2.988v-.229a1.467,1.467,0,0,0-.36-1.1A1.434,1.434,0,0,0,135.791,11.6ZM146.3,16.328a.684.684,0,0,0-.4-.606,6.016,6.016,0,0,0-1.5-.475,6.853,6.853,0,0,1-1.828-.646,3.062,3.062,0,0,1-1.1-.971,2.319,2.319,0,0,1-.378-1.31,2.628,2.628,0,0,1,1.081-2.158,4.453,4.453,0,0,1,2.83-.848,4.934,4.934,0,0,1,3.023.853,2.666,2.666,0,0,1,1.143,2.241h-2.971q0-1.143-1.2-1.143a1.194,1.194,0,0,0-.782.259.8.8,0,0,0-.316.646.737.737,0,0,0,.387.642,3.654,3.654,0,0,0,1.235.4,10.671,10.671,0,0,1,1.49.378,2.706,2.706,0,0,1,2.145,2.646A2.491,2.491,0,0,1,148,18.358a5.068,5.068,0,0,1-2.993.817,5.172,5.172,0,0,1-2.18-.439,3.645,3.645,0,0,1-1.494-1.2,2.707,2.707,0,0,1-.536-1.591h2.769a1.145,1.145,0,0,0,.439.962,1.808,1.808,0,0,0,1.081.3,1.422,1.422,0,0,0,.91-.246A.787.787,0,0,0,146.3,16.328Z" transform="translate(423.999 2680.826)" fill="#12263f"/>
    <path id="Trazado_128845" data-name="Trazado 128845" d="M4.052,14.658V19H.967V6.2H6.073a5.948,5.948,0,0,1,2.6.541,4.074,4.074,0,0,1,1.749,1.538,4.2,4.2,0,0,1,.62,2.263A3.7,3.7,0,0,1,9.7,13.538a5.561,5.561,0,0,1-3.678,1.121Zm0-2.382H6.073a1.906,1.906,0,0,0,1.367-.448,1.665,1.665,0,0,0,.47-1.266A2.059,2.059,0,0,0,7.427,9.13a1.712,1.712,0,0,0-1.318-.545H4.052ZM18.3,12.171l-.976-.07a1.752,1.752,0,0,0-1.793.879V19H12.568V9.49h2.777l.1,1.222a2.294,2.294,0,0,1,2.083-1.4,2.888,2.888,0,0,1,.826.105Zm.378,1.986a5.613,5.613,0,0,1,.554-2.536,3.96,3.96,0,0,1,1.591-1.709,4.791,4.791,0,0,1,2.435-.6,4.373,4.373,0,0,1,3.366,1.323,5.076,5.076,0,0,1,1.23,3.6v.105a4.925,4.925,0,0,1-1.235,3.529,4.384,4.384,0,0,1-3.344,1.305,4.434,4.434,0,0,1-3.261-1.217,4.761,4.761,0,0,1-1.327-3.3Zm2.962.185a3.538,3.538,0,0,0,.413,1.934,1.376,1.376,0,0,0,1.222.615q1.582,0,1.617-2.435v-.3q0-2.558-1.635-2.558-1.485,0-1.608,2.206Zm11.54,2.549a1.317,1.317,0,0,0,.967-.338,1.241,1.241,0,0,0,.334-.945h2.777a3.288,3.288,0,0,1-1.121,2.566,4.168,4.168,0,0,1-2.887,1,4.22,4.22,0,0,1-3.27-1.3,5.125,5.125,0,0,1-1.2-3.6v-.123a5.792,5.792,0,0,1,.532-2.544,3.872,3.872,0,0,1,1.534-1.7,4.573,4.573,0,0,1,2.373-.593,4.116,4.116,0,0,1,2.944,1.028,3.647,3.647,0,0,1,1.09,2.786H34.479A1.626,1.626,0,0,0,34.119,12a1.244,1.244,0,0,0-.967-.4q-1.151,0-1.345,1.468a10.357,10.357,0,0,0-.062,1.283,4.068,4.068,0,0,0,.343,1.986A1.187,1.187,0,0,0,33.179,16.891Zm9.932,2.285a4.889,4.889,0,0,1-3.542-1.305,4.507,4.507,0,0,1-1.354-3.4v-.246a5.84,5.84,0,0,1,.541-2.575,3.955,3.955,0,0,1,1.578-1.727,4.763,4.763,0,0,1,2.461-.611,4.117,4.117,0,0,1,3.164,1.244,4.887,4.887,0,0,1,1.16,3.467v1.151H41.229a2.135,2.135,0,0,0,.694,1.257,2.066,2.066,0,0,0,1.389.457,2.662,2.662,0,0,0,2.2-.984l1.354,1.6a3.784,3.784,0,0,1-1.569,1.217A5.3,5.3,0,0,1,43.11,19.176ZM42.776,11.6q-1.3,0-1.547,1.723h2.988v-.229a1.467,1.467,0,0,0-.36-1.1A1.434,1.434,0,0,0,42.776,11.6Zm10.512,4.729a.684.684,0,0,0-.4-.606,6.016,6.016,0,0,0-1.5-.475,6.853,6.853,0,0,1-1.828-.646,3.062,3.062,0,0,1-1.1-.971,2.319,2.319,0,0,1-.378-1.31,2.628,2.628,0,0,1,1.081-2.158A4.453,4.453,0,0,1,52,9.314a4.934,4.934,0,0,1,3.023.853,2.666,2.666,0,0,1,1.143,2.241H53.191q0-1.143-1.2-1.143a1.194,1.194,0,0,0-.782.259.8.8,0,0,0-.316.646.737.737,0,0,0,.387.642,3.654,3.654,0,0,0,1.235.4,10.671,10.671,0,0,1,1.49.378,2.706,2.706,0,0,1,2.145,2.646,2.491,2.491,0,0,1-1.156,2.118A5.068,5.068,0,0,1,52,19.176a5.172,5.172,0,0,1-2.18-.439,3.645,3.645,0,0,1-1.494-1.2,2.707,2.707,0,0,1-.536-1.591h2.769a1.145,1.145,0,0,0,.439.962,1.808,1.808,0,0,0,1.081.3,1.422,1.422,0,0,0,.91-.246A.787.787,0,0,0,53.288,16.328Zm3.867-2.171a5.613,5.613,0,0,1,.554-2.536A3.96,3.96,0,0,1,59.3,9.912a4.791,4.791,0,0,1,2.435-.6A4.373,4.373,0,0,1,65.1,10.637a5.076,5.076,0,0,1,1.23,3.6v.105A4.925,4.925,0,0,1,65.1,17.871a4.384,4.384,0,0,1-3.344,1.305,4.434,4.434,0,0,1-3.261-1.217,4.761,4.761,0,0,1-1.327-3.3Zm2.962.185a3.538,3.538,0,0,0,.413,1.934,1.376,1.376,0,0,0,1.222.615q1.582,0,1.617-2.435v-.3q0-2.558-1.635-2.558-1.485,0-1.608,2.206Zm11.628-.167a5.809,5.809,0,0,1,.976-3.56,3.211,3.211,0,0,1,2.725-1.3,2.731,2.731,0,0,1,2.145,1V5.5h2.971V19H77.9l-.149-1.02a2.8,2.8,0,0,1-2.32,1.2,3.205,3.205,0,0,1-2.689-1.3A5.993,5.993,0,0,1,71.745,14.175Zm2.962.185q0,2.531,1.477,2.531a1.458,1.458,0,0,0,1.406-.826V12.443A1.419,1.419,0,0,0,76.2,11.6q-1.371,0-1.485,2.215Zm12.138,4.816A4.889,4.889,0,0,1,83.3,17.871a4.507,4.507,0,0,1-1.354-3.4v-.246a5.84,5.84,0,0,1,.541-2.575,3.955,3.955,0,0,1,1.578-1.727,4.763,4.763,0,0,1,2.461-.611,4.117,4.117,0,0,1,3.164,1.244,4.887,4.887,0,0,1,1.16,3.467v1.151H84.964a2.135,2.135,0,0,0,.694,1.257,2.066,2.066,0,0,0,1.389.457,2.662,2.662,0,0,0,2.2-.984l1.354,1.6a3.784,3.784,0,0,1-1.569,1.217A5.3,5.3,0,0,1,86.845,19.176ZM86.511,11.6q-1.3,0-1.547,1.723h2.988v-.229a1.467,1.467,0,0,0-.36-1.1A1.434,1.434,0,0,0,86.511,11.6Zm14.616,7.576a4.889,4.889,0,0,1-3.542-1.305,4.507,4.507,0,0,1-1.354-3.4v-.246a5.84,5.84,0,0,1,.541-2.575A3.955,3.955,0,0,1,98.35,9.925a4.763,4.763,0,0,1,2.461-.611,4.117,4.117,0,0,1,3.164,1.244,4.887,4.887,0,0,1,1.16,3.467v1.151H99.246a2.135,2.135,0,0,0,.694,1.257,2.066,2.066,0,0,0,1.389.457,2.662,2.662,0,0,0,2.2-.984l1.354,1.6a3.784,3.784,0,0,1-1.569,1.217A5.3,5.3,0,0,1,101.127,19.176Zm-.334-7.576q-1.3,0-1.547,1.723h2.988v-.229a1.467,1.467,0,0,0-.36-1.1A1.434,1.434,0,0,0,100.793,11.6Zm8.253-2.109.1,1.116a3.225,3.225,0,0,1,2.716-1.292,2.713,2.713,0,0,1,2.219.888,4.226,4.226,0,0,1,.76,2.672V19h-2.971V13a1.6,1.6,0,0,0-.29-1.059,1.342,1.342,0,0,0-1.055-.338,1.413,1.413,0,0,0-1.292.686V19h-2.962V9.49Zm10.881-2.364V9.49h1.564v2.057h-1.564V15.9a1.111,1.111,0,0,0,.193.747,1.037,1.037,0,0,0,.765.211,4.345,4.345,0,0,0,.738-.053v2.118a5.466,5.466,0,0,1-1.67.255,3.1,3.1,0,0,1-2.259-.721,2.954,2.954,0,0,1-.729-2.188v-4.72h-1.213V9.49h1.213V7.126Zm8.481,5.045-.976-.07a1.752,1.752,0,0,0-1.793.879V19h-2.962V9.49h2.777l.1,1.222a2.294,2.294,0,0,1,2.083-1.4,2.888,2.888,0,0,1,.826.105Zm5.669,7a4.889,4.889,0,0,1-3.542-1.305,4.507,4.507,0,0,1-1.354-3.4v-.246a5.84,5.84,0,0,1,.541-2.575A3.955,3.955,0,0,1,131.3,9.925a4.763,4.763,0,0,1,2.461-.611,4.117,4.117,0,0,1,3.164,1.244,4.887,4.887,0,0,1,1.16,3.467v1.151H132.2a2.135,2.135,0,0,0,.694,1.257,2.066,2.066,0,0,0,1.389.457,2.662,2.662,0,0,0,2.2-.984l1.354,1.6a3.784,3.784,0,0,1-1.569,1.217A5.3,5.3,0,0,1,134.077,19.176Zm-.334-7.576q-1.3,0-1.547,1.723h2.988v-.229a1.467,1.467,0,0,0-.36-1.1A1.434,1.434,0,0,0,133.743,11.6Zm5.186,2.575a6.421,6.421,0,0,1,.475-2.549,3.821,3.821,0,0,1,1.362-1.709,3.591,3.591,0,0,1,2.065-.6,2.855,2.855,0,0,1,2.32,1l.105-.826h2.689V18.64a4.009,4.009,0,0,1-.584,2.184,3.75,3.75,0,0,1-1.692,1.424,6.219,6.219,0,0,1-2.566.5,5.365,5.365,0,0,1-2.026-.4,3.657,3.657,0,0,1-1.5-1.028l1.239-1.74a2.716,2.716,0,0,0,2.18.976,1.764,1.764,0,0,0,1.969-2.021v-.3a2.781,2.781,0,0,1-2.153.94A3.437,3.437,0,0,1,140,17.844a5.517,5.517,0,0,1-1.072-3.564Zm2.971.185a3.383,3.383,0,0,0,.439,1.85,1.387,1.387,0,0,0,1.23.681,1.573,1.573,0,0,0,1.4-.642v-4a1.534,1.534,0,0,0-1.38-.65,1.4,1.4,0,0,0-1.239.708A3.858,3.858,0,0,0,141.9,14.359ZM154.986,19a3.344,3.344,0,0,1-.281-.853,2.754,2.754,0,0,1-2.285,1.028,3.374,3.374,0,0,1-2.285-.813,2.588,2.588,0,0,1-.94-2.043,2.66,2.66,0,0,1,1.143-2.338,5.821,5.821,0,0,1,3.322-.791h.914v-.5q0-1.316-1.134-1.316a.927.927,0,0,0-1.055,1.042h-2.962a2.655,2.655,0,0,1,1.173-2.239,4.931,4.931,0,0,1,2.993-.86,4.323,4.323,0,0,1,2.874.888,3.086,3.086,0,0,1,1.081,2.435v4.21a4.311,4.311,0,0,0,.4,2V19Zm-1.854-1.934a1.652,1.652,0,0,0,.918-.237,1.487,1.487,0,0,0,.523-.536V14.772h-.861q-1.547,0-1.547,1.389a.848.848,0,0,0,.272.655A.986.986,0,0,0,153.132,17.066Z" transform="translate(423.999 2737.479)" fill="#12263f"/>
    <path id="Trazado_128846" data-name="Trazado 128846" d="M.967,19V6.2H5.089a6.064,6.064,0,0,1,3.05.769,5.406,5.406,0,0,1,2.114,2.171,6.554,6.554,0,0,1,.769,3.142v.589a6.592,6.592,0,0,1-.743,3.151A5.429,5.429,0,0,1,8.187,18.2a5.93,5.93,0,0,1-3.01.8ZM4.052,8.585v8.042H5.124a2.4,2.4,0,0,0,2.039-.945,4.63,4.63,0,0,0,.712-2.808V12.32a4.592,4.592,0,0,0-.712-2.795,2.442,2.442,0,0,0-2.074-.94ZM17.068,19.176a4.889,4.889,0,0,1-3.542-1.305,4.507,4.507,0,0,1-1.354-3.4v-.246a5.84,5.84,0,0,1,.541-2.575,3.955,3.955,0,0,1,1.578-1.727,4.763,4.763,0,0,1,2.461-.611,4.117,4.117,0,0,1,3.164,1.244,4.887,4.887,0,0,1,1.16,3.467v1.151H15.188a2.135,2.135,0,0,0,.694,1.257,2.066,2.066,0,0,0,1.389.457,2.662,2.662,0,0,0,2.2-.984l1.354,1.6a3.784,3.784,0,0,1-1.569,1.217A5.3,5.3,0,0,1,17.068,19.176ZM16.734,11.6q-1.3,0-1.547,1.723h2.988v-.229a1.467,1.467,0,0,0-.36-1.1A1.434,1.434,0,0,0,16.734,11.6ZM22.957,19V11.547h-1.38V9.49h1.38V9.174a3.631,3.631,0,0,1,1.248-2.909,4.987,4.987,0,0,1,3.243-.949,11.509,11.509,0,0,1,3.094.51l-.4,2.338-.492-.132a7.832,7.832,0,0,0-2.021-.255q-1.7,0-1.7,1.547V9.49h1.863v2.057H25.928V19ZM31.9,19H28.925V9.49H31.9Zm4.526-9.51.1,1.116a3.225,3.225,0,0,1,2.716-1.292,2.713,2.713,0,0,1,2.219.888,4.226,4.226,0,0,1,.76,2.672V19H39.252V13a1.6,1.6,0,0,0-.29-1.059,1.342,1.342,0,0,0-1.055-.338,1.413,1.413,0,0,0-1.292.686V19H33.653V9.49ZM46.986,19H44.016V9.49h2.971ZM43.84,7.038A1.322,1.322,0,0,1,44.3,6,1.943,1.943,0,0,1,46.67,6a1.322,1.322,0,0,1,.457,1.037,1.322,1.322,0,0,1-.457,1.037,1.943,1.943,0,0,1-2.373,0A1.322,1.322,0,0,1,43.84,7.038Zm8.991,9.853a1.317,1.317,0,0,0,.967-.338,1.241,1.241,0,0,0,.334-.945h2.777a3.288,3.288,0,0,1-1.121,2.566,4.168,4.168,0,0,1-2.887,1,4.22,4.22,0,0,1-3.27-1.3,5.125,5.125,0,0,1-1.2-3.6v-.123a5.792,5.792,0,0,1,.532-2.544,3.872,3.872,0,0,1,1.534-1.7,4.573,4.573,0,0,1,2.373-.593,4.116,4.116,0,0,1,2.944,1.028,3.647,3.647,0,0,1,1.09,2.786H54.132A1.626,1.626,0,0,0,53.771,12a1.244,1.244,0,0,0-.967-.4q-1.151,0-1.345,1.468a10.357,10.357,0,0,0-.062,1.283,4.068,4.068,0,0,0,.343,1.986A1.187,1.187,0,0,0,52.831,16.891ZM61.286,19H58.315V9.49h2.971ZM58.14,7.038A1.322,1.322,0,0,1,58.6,6,1.943,1.943,0,0,1,60.97,6a1.322,1.322,0,0,1,.457,1.037,1.322,1.322,0,0,1-.457,1.037,1.943,1.943,0,0,1-2.373,0A1.322,1.322,0,0,1,58.14,7.038Zm4.6,7.119a5.613,5.613,0,0,1,.554-2.536,3.96,3.96,0,0,1,1.591-1.709,4.791,4.791,0,0,1,2.435-.6,4.373,4.373,0,0,1,3.366,1.323,5.076,5.076,0,0,1,1.23,3.6v.105a4.925,4.925,0,0,1-1.235,3.529,4.384,4.384,0,0,1-3.344,1.305,4.434,4.434,0,0,1-3.261-1.217,4.761,4.761,0,0,1-1.327-3.3Zm2.962.185a3.538,3.538,0,0,0,.413,1.934,1.376,1.376,0,0,0,1.222.615q1.582,0,1.617-2.435v-.3q0-2.558-1.635-2.558-1.485,0-1.608,2.206ZM67.72,5.5h3.129L68.405,8.26l-2.417,0Zm8.218,3.99.1,1.116A3.225,3.225,0,0,1,78.75,9.314a2.713,2.713,0,0,1,2.219.888,4.226,4.226,0,0,1,.76,2.672V19H78.759V13a1.6,1.6,0,0,0-.29-1.059,1.342,1.342,0,0,0-1.055-.338,1.413,1.413,0,0,0-1.292.686V19H73.16V9.49Z" transform="translate(423.999 2578.826)" fill="#12263f"/>
    <path id="Trazado_128848" data-name="Trazado 128848" d="M7.573,11.452a6.2,6.2,0,0,1-.813,3.538,2.891,2.891,0,0,1-2.542,1.157,2.912,2.912,0,0,1-2.527-1.132,5.882,5.882,0,0,1-.85-3.38V9.826a6.059,6.059,0,0,1,.813-3.494A2.914,2.914,0,0,1,4.2,5.189a2.94,2.94,0,0,1,2.534,1.1,5.847,5.847,0,0,1,.835,3.4ZM6.218,9.6A4.965,4.965,0,0,0,5.735,7.09,1.664,1.664,0,0,0,4.2,6.3a1.642,1.642,0,0,0-1.516.784A4.848,4.848,0,0,0,2.2,9.5v2.168a5.045,5.045,0,0,0,.5,2.552,1.661,1.661,0,0,0,1.52.824,1.638,1.638,0,0,0,1.49-.776,4.862,4.862,0,0,0,.509-2.446ZM16.3,16H9.309v-.974L13,10.924a8.77,8.77,0,0,0,1.132-1.512,2.524,2.524,0,0,0,.311-1.2,1.913,1.913,0,0,0-.505-1.37A1.767,1.767,0,0,0,12.59,6.3a2.093,2.093,0,0,0-1.571.575,2.2,2.2,0,0,0-.56,1.6H9.1a3.145,3.145,0,0,1,.948-2.38,3.516,3.516,0,0,1,2.538-.908,3.379,3.379,0,0,1,2.351.78,2.661,2.661,0,0,1,.864,2.076q0,1.575-2.007,3.75l-2.856,3.1H16.3Z" transform="translate(398.825 2578.826)" fill="#12263f"/>
    <path id="Trazado_128849" data-name="Trazado 128849" d="M7.573,11.452a6.2,6.2,0,0,1-.813,3.538,2.891,2.891,0,0,1-2.542,1.157,2.912,2.912,0,0,1-2.527-1.132,5.882,5.882,0,0,1-.85-3.38V9.826a6.059,6.059,0,0,1,.813-3.494A2.914,2.914,0,0,1,4.2,5.189a2.94,2.94,0,0,1,2.534,1.1,5.847,5.847,0,0,1,.835,3.4ZM6.218,9.6A4.965,4.965,0,0,0,5.735,7.09,1.664,1.664,0,0,0,4.2,6.3a1.642,1.642,0,0,0-1.516.784A4.848,4.848,0,0,0,2.2,9.5v2.168a5.045,5.045,0,0,0,.5,2.552,1.661,1.661,0,0,0,1.52.824,1.638,1.638,0,0,0,1.49-.776,4.862,4.862,0,0,0,.509-2.446Zm8.811,2.82h1.479v1.106H15.029V16H13.667V13.524H8.811v-.8l4.775-7.39h1.443Zm-4.68,0h3.318V7.189l-.161.293Z" transform="translate(398.825 2683.174)" fill="#12263f"/>
    <path id="Trazado_128850" data-name="Trazado 128850" d="M7.573,11.452a6.2,6.2,0,0,1-.813,3.538,2.891,2.891,0,0,1-2.542,1.157,2.912,2.912,0,0,1-2.527-1.132,5.882,5.882,0,0,1-.85-3.38V9.826a6.059,6.059,0,0,1,.813-3.494A2.914,2.914,0,0,1,4.2,5.189a2.94,2.94,0,0,1,2.534,1.1,5.847,5.847,0,0,1,.835,3.4ZM6.218,9.6A4.965,4.965,0,0,0,5.735,7.09,1.664,1.664,0,0,0,4.2,6.3a1.642,1.642,0,0,0-1.516.784A4.848,4.848,0,0,0,2.2,9.5v2.168a5.045,5.045,0,0,0,.5,2.552,1.661,1.661,0,0,0,1.52.824,1.638,1.638,0,0,0,1.49-.776,4.862,4.862,0,0,0,.509-2.446Zm3.713,1.055.542-5.317h5.464V6.588H11.624L11.3,9.5a3.441,3.441,0,0,1,1.78-.461A2.942,2.942,0,0,1,15.4,10a3.775,3.775,0,0,1,.857,2.6,3.643,3.643,0,0,1-.89,2.6,3.243,3.243,0,0,1-2.487.948,3.371,3.371,0,0,1-2.307-.784,3.128,3.128,0,0,1-1.018-2.168h1.282a2.152,2.152,0,0,0,.652,1.381,2.027,2.027,0,0,0,1.392.465,1.828,1.828,0,0,0,1.483-.645,2.694,2.694,0,0,0,.538-1.78,2.473,2.473,0,0,0-.582-1.718,1.981,1.981,0,0,0-1.549-.648,2.234,2.234,0,0,0-1.392.388l-.359.293Z" transform="translate(398.825 2738.479)" fill="#12263f"/>
    <path id="Trazado_128851" data-name="Trazado 128851" d="M7.573,11.452a6.2,6.2,0,0,1-.813,3.538,2.891,2.891,0,0,1-2.542,1.157,2.912,2.912,0,0,1-2.527-1.132,5.882,5.882,0,0,1-.85-3.38V9.826a6.059,6.059,0,0,1,.813-3.494A2.914,2.914,0,0,1,4.2,5.189a2.94,2.94,0,0,1,2.534,1.1,5.847,5.847,0,0,1,.835,3.4ZM6.218,9.6A4.965,4.965,0,0,0,5.735,7.09,1.664,1.664,0,0,0,4.2,6.3a1.642,1.642,0,0,0-1.516.784A4.848,4.848,0,0,0,2.2,9.5v2.168a5.045,5.045,0,0,0,.5,2.552,1.661,1.661,0,0,0,1.52.824,1.638,1.638,0,0,0,1.49-.776,4.862,4.862,0,0,0,.509-2.446ZM13.762,16H12.4V6.969l-2.732,1V6.742L13.55,5.285h.212Z" transform="translate(398.825 2528.5)" fill="#12263f"/>
    <path id="Trazado_128852" data-name="Trazado 128852" d="M7.573,11.452a6.2,6.2,0,0,1-.813,3.538,2.891,2.891,0,0,1-2.542,1.157,2.912,2.912,0,0,1-2.527-1.132,5.882,5.882,0,0,1-.85-3.38V9.826a6.059,6.059,0,0,1,.813-3.494A2.914,2.914,0,0,1,4.2,5.189a2.94,2.94,0,0,1,2.534,1.1,5.847,5.847,0,0,1,.835,3.4ZM6.218,9.6A4.965,4.965,0,0,0,5.735,7.09,1.664,1.664,0,0,0,4.2,6.3a1.642,1.642,0,0,0-1.516.784A4.848,4.848,0,0,0,2.2,9.5v2.168a5.045,5.045,0,0,0,.5,2.552,1.661,1.661,0,0,0,1.52.824,1.638,1.638,0,0,0,1.49-.776,4.862,4.862,0,0,0,.509-2.446Zm5.061.41H12.3A2.238,2.238,0,0,0,13.806,9.5a1.688,1.688,0,0,0,.549-1.326A1.654,1.654,0,0,0,12.488,6.3a1.943,1.943,0,0,0-1.4.5,1.756,1.756,0,0,0-.524,1.329H9.207a2.72,2.72,0,0,1,.927-2.106,3.375,3.375,0,0,1,2.355-.839,3.335,3.335,0,0,1,2.366.8,2.884,2.884,0,0,1,.857,2.219,2.341,2.341,0,0,1-.45,1.348,2.72,2.72,0,0,1-1.227.974,2.621,2.621,0,0,1,1.359.923,2.563,2.563,0,0,1,.48,1.575,2.909,2.909,0,0,1-.937,2.278,3.511,3.511,0,0,1-2.439.842,3.6,3.6,0,0,1-2.443-.813,2.7,2.7,0,0,1-.941-2.146h1.362a1.743,1.743,0,0,0,.549,1.348,2.089,2.089,0,0,0,1.472.505,2.05,2.05,0,0,0,1.5-.513,1.976,1.976,0,0,0,.52-1.472,1.793,1.793,0,0,0-.571-1.428,2.489,2.489,0,0,0-1.648-.513H11.279Z" transform="translate(398.825 2627.5)" fill="#12263f"/>
  </g>
</svg>
