<svg xmlns="http://www.w3.org/2000/svg" width="469" height="373.5" viewBox="0 0 469 373.5">
  <g id="Grupo_72178" data-name="Grupo 72178" transform="translate(-915 -5957)">
    <rect id="Rectángulo_32108" data-name="Rectángulo 32108" width="469" height="373.5" rx="20" transform="translate(915 5957)" fill="#f3f9ff" opacity="0.5"/>
    <g id="Grupo_72177" data-name="Grupo 72177" transform="translate(3013.729 12713.311)">
      <path id="Trazado_127419" data-name="Trazado 127419" d="M1035.146,103.118c-15.282,6.959-45,34.411-109.619,34.766-64.62-.355-93.819-27.807-109.156-34.766s-44.645-7.641-44.126,22.322,41.425,95.511,153.228,93.055c112.567,2.347,152.954-63.065,153.473-93.055S1050.428,96.078,1035.146,103.118Z" transform="translate(-2790.93 -6666.184)" fill="#416317"/>
      <path id="Trazado_127420" data-name="Trazado 127420" d="M1097.289,118.862c-9.115-14.081-25.624-19.1-25.624-19.1h0c7.8,3.056,14.682,10.37,14.436,24.56-.519,30.018-40.933,95.511-153.528,93.055-111.885,2.347-152.818-63.065-153.255-93.055-.191-10.042,3-16.646,7.914-20.712h0s-13.645,10.042-18.611,24.369c-3.63,10.506,12.744,108.692,169.874,106.427C1105.5,231.838,1101.737,125.712,1097.289,118.862Z" transform="translate(-2797.923 -6665.063)" fill="#6ea22f"/>
      <path id="Trazado_127421" data-name="Trazado 127421" d="M908.034,55H781.14s32.528,68.85,41.07,210.616c0,0,19.1,26.852,85.824,26.852,68.823,0,87-26.88,87-26.88C1003.6,123.741,1037.274,55,1037.274,55Z" transform="translate(-2775.539 -6742.449)" fill="#6ea22f"/>
      <path id="Trazado_127422" data-name="Trazado 127422" d="M781.14,68.851S801.989,48,909.207,47.02s128.067,21.831,128.067,21.831-6.631,26.88-122.309,30.018C795.112,101.87,781.14,68.851,781.14,68.851Z" transform="translate(-2775.539 -6756.299)" fill="#9bd156"/>
      <path id="Trazado_127423" data-name="Trazado 127423" d="M865.965,79.629S843.1,164.416,846.59,286.015c0,0,22.159-5.021,35.912-20.494,0,0,3.357-110.493,42.271-210.561C924.745,55.069,920.079,70.378,865.965,79.629Z" transform="translate(-2663.01 -6742.518)" fill="#56851f"/>
      <path id="Trazado_127424" data-name="Trazado 127424" d="M781.14,55s37.086,87.052,41.07,210.561c0,0,13.644,16.537,43.662,22.513,0,0,14.354-122.091-23.878-206.768C842.049,81.307,797.95,76.831,781.14,55Z" transform="translate(-2775.539 -6742.449)" fill="#8ac445"/>
      <path id="Trazado_127425" data-name="Trazado 127425" d="M793.08,108.35s27.535,27.1,95.511,27.971,94.038-27.1,94.038-27.1l-6.113,63.665s-9.879,26.934-85.987,27.289-93.3-27.016-93.3-27.016Z" transform="translate(-2754.896 -6650.212)" fill="#2c2c2c"/>
      <path id="Trazado_127426" data-name="Trazado 127426" d="M793.08,108.35l4.148,64.811a41.18,41.18,0,0,0,16.865,12.962l-3.711-66.448S796.273,111.652,793.08,108.35Z" transform="translate(-2754.896 -6650.212)" fill="#525252"/>
      <path id="Trazado_127427" data-name="Trazado 127427" d="M860.368,119.432l-5.458,66.64s11.789-6.331,14.763-13.644l6.085-63.747S872.348,112.91,860.368,119.432Z" transform="translate(-2647.998 -6649.642)"/>
      <path id="Trazado_127428" data-name="Trazado 127428" d="M915.372,50.012c-9.115-6.413-114.013,4.175-127.958,16.946S842.4,86.388,875.5,87.807,935.293,64.229,915.372,50.012Z" transform="translate(-2767.868 -6754.407)" fill="#aee06e"/>
    </g>
  </g>
</svg>
