<svg xmlns="http://www.w3.org/2000/svg" width="469" height="373.5" viewBox="0 0 469 373.5">
  <g id="Grupo_72280" data-name="Grupo 72280" transform="translate(-915 -7118.759)">
    <rect id="Rectángulo_32118" data-name="Rectángulo 32118" width="469" height="373.5" rx="20" transform="translate(915 7118.759)" fill="#f3f9ff" opacity="0.5"/>
    <g id="Grupo_72179" data-name="Grupo 72179" transform="translate(4709.214 13861.352)">
      <path id="Trazado_127429" data-name="Trazado 127429" d="M565.419,124.895c-4.5-10.948-13.62-8.277-21.9-4.066S508.673,131.6,499.293,131.6c.639,8.974-1.016,7.551-.319,15.8l-200.38,7.522c-1.1-7.986-2.033-16.03-2.9-24.1-15.682-2.7-28.053-13.475-42.748-17.424-5.808-1.51-16.757-3.485-22.1.378-6.186,4.5-7.144,16.524-7.812,23.465-4.327,43.561,32.177,71,68.71,83.231a170.9,170.9,0,0,0,77.451,4.937c10.571-2.033,21.722-8.567,31.712-12.778,11.094-4.676,22.652-9.409,33.861-13.214,21.781-7.376,45.449-5.518,68.333-5.518,18.237,0,37.056,1.423,49.921-13.155C563.967,168.659,571.895,140.751,565.419,124.895Z" transform="translate(-3954.894 -6633.226)" fill="#323144"/>
      <path id="Trazado_127430" data-name="Trazado 127430" d="M261.79,194.328c1.6-1.365,10.193,0,12.429,0a614.093,614.093,0,0,0,116.86-11.268c27.24-5.111,65.893-11.616,85.931-33.455,6.157-6.737,7-10.338,10.455-18.818L338.428,128.87Z" transform="translate(-3880.425 -6600.203)" fill="#292937"/>
      <path id="Trazado_127431" data-name="Trazado 127431" d="M565.324,124.819c-4.5-10.948-13.62-8.277-21.9-4.066s-34.849,10.774-44.229,10.774c.639,8.974,1.336,17.657,2,25.9l-202.617-2.585c-1.1-7.986,0-15.595-.726-23.668-15.682-2.7-30.173-13.91-44.868-17.744-5.808-1.51-16.756-3.485-22.1.378-6.186,4.5-7.144,16.524-7.812,23.465-4.327,43.561,32.177,71,68.71,83.231a170.9,170.9,0,0,0,77.452,4.937c10.571-2.033,21.722-8.567,31.712-12.778,11.094-4.676,22.652-9.409,33.861-13.214,21.78-7.376,45.449-5.518,68.333-5.518,18.237,0,37.056,1.423,49.921-13.155C563.872,168.583,571.8,140.675,565.324,124.819Z" transform="translate(-3954.799 -6633.15)" fill="#3d3d55"/>
      <path id="Trazado_127432" data-name="Trazado 127432" d="M380.466,167.086c-25.411,4.966-53.638,8.945-78.962,1.307a67.169,67.169,0,0,1-19.661-9.583,63.424,63.424,0,0,1-17.918-21.577c-5.2-9.554-12.749-21.81-24.975-22.652-13.765-.9-13.446,17.424-11.239,26.427a59.242,59.242,0,0,0,7.638,19.08c12.081,17.163,31.48,26.572,52.273,28.373s43.416,3.165,63.483-1.133c15.333-3.282,29.563-10.077,44.2-15.421a159.346,159.346,0,0,1,45.42-8.712c-8.306,0-16.437-1.655-24.772-1.22a163.563,163.563,0,0,0-24.394,2.9C387.784,165.634,384.1,166.389,380.466,167.086Z" transform="translate(-3947.496 -6627.471)" fill="#3f3f6d"/>
      <path id="Trazado_127433" data-name="Trazado 127433" d="M565.246,121.2c-4.5-10.948-13.62-8.277-21.9-4.066-7.26,3.688-33.106,9.932-41.5,10.629,3.862,3.979,25.788,4.7,31.451,5.808a36.736,36.736,0,0,1,11.21,2.468,13.1,13.1,0,0,1,7.957,11.3c.2,10.745-9.641,16.466-18.76,19.515a191.668,191.668,0,0,1-40.657,7.376c-14.52,1.568-28.837.784-43.271.7-17.047,0-32.961,4.3-49.369,8.335-28.808,7.086-56.542,18.935-86.715,18.354-20.532-.407-44.2-2-61.276-14.84a84.74,84.74,0,0,1-29.651-42.98c1.742,37.753,35.342,62,68.972,73.24a170.9,170.9,0,0,0,77.452,4.937c10.571-2.033,21.722-8.567,31.712-12.778,11.094-4.676,22.652-9.409,33.861-13.214,21.78-7.376,45.449-5.518,68.333-5.518,18.237,0,37.056,1.423,49.921-13.155C563.794,164.962,571.722,137.054,565.246,121.2Z" transform="translate(-3954.721 -6629.529)" fill="#3b3a51"/>
      <path id="Trazado_127434" data-name="Trazado 127434" d="M489.969,118.32a77.567,77.567,0,0,1-14.52,35.662c-11.936,16.321-27.473,19.312-46.93,19.37-34.471,0-68.362,2.41-100.829,15.333-21.142,8.451-43.038,19.835-64.47,26.137a145.639,145.639,0,0,0,28.866-2.352c10.571-2.033,21.722-8.567,31.712-12.778,11.094-4.676,22.652-9.409,33.861-13.214,21.78-7.376,45.449-5.518,68.333-5.518,18.237,0,37.056,1.423,49.921-13.155C485.439,157.234,492.7,134.467,489.969,118.32Z" transform="translate(-3877.702 -6620.291)" fill="#323244"/>
      <path id="Trazado_127435" data-name="Trazado 127435" d="M462.161,267.309c1.946-2.9.987-6.941.378-11.239-.987-7.057-.784-14.23-1.423-21.316-1.336-15.159-2.091-30.435-2.556-45.652-.929-30.7-1.655-61.276-.145-91.972a398.859,398.859,0,0,1,4.414-44.781H249.322c-1.423,15.1-2.12,30.231-2.9,45.361-1.452,35.43-1.859,70.975.2,106.376q.958,16.524,2.643,32.99.784,8.1,1.713,16.263c.61,5.256-.668,12.4,2.381,17.047,2.614,3.979,8.219,5.343,12.4,7.028a118.282,118.282,0,0,0,47.975,8.16c18.092-.7,34.007-5.808,51.315-10.193,16.408-4.269,32.438-3.107,49.195-2.9,10.077,0,20.328.871,30.231,0A45.214,45.214,0,0,0,458.27,270.3a8.248,8.248,0,0,0,3.891-2.991Z" transform="translate(-3912.011 -6745.902)" fill="#38374c"/>
      <path id="Trazado_127436" data-name="Trazado 127436" d="M251.1,181.744c.465,4.85,1.1,9.612,2,14.346,1.394,7.521,4.937,16.96,8.712,18.731,15.159,6.854.958-60.288-.929-71.324-2.527-14.869-4.85-29.912-6.766-45.158A343.79,343.79,0,0,1,250.346,64.1v48.091C250.433,135.25,248.835,159.092,251.1,181.744Z" transform="translate(-3903.103 -6723.529)" fill="#3f3f6d"/>
      <path id="Trazado_127437" data-name="Trazado 127437" d="M461.891,256.07c-.987-7.057-.784-14.23-1.423-21.316-1.336-15.159-2.091-30.435-2.556-45.652-.929-30.7-1.655-61.276-.145-91.972a398.952,398.952,0,0,1,4.414-44.781H288.722a142.824,142.824,0,0,0,33.513,11.094c17.424,4.182,36.388,9.758,54.6,8.712,16.989-.958,45.8-7.347,52.68,14.346,7.667,24.162,4.269,53.232,4.066,78.119-.145,23.233,6.1,54.161-7.405,74.983-4.908,7.609-14.172,9.177-22.536,8.974-16.437-.407-34.529-2.323-50.734.842-25.323,4.966-51.547,17.86-77.161,7-9.874-4.182-18.615-9.758-23.233-19.748-5.4-11.616-3.688-27.153-5.808-39.582-.581-3.427-.929-6.883-1.22-10.368q.29,8.712.784,17.424.958,16.524,2.643,32.99.784,8.1,1.713,16.263c.61,5.256-.668,12.4,2.381,17.047,2.614,3.979,8.218,5.343,12.4,7.028a118.283,118.283,0,0,0,47.975,8.16c18.092-.7,34.007-5.808,51.315-10.193,16.408-4.269,32.438-3.107,49.195-2.9,10.077,0,20.328.871,30.231,0a45.214,45.214,0,0,0,13.794-2.178,8.248,8.248,0,0,0,3.746-2.9C463.575,264.376,462.617,260.426,461.891,256.07Z" transform="translate(-3911.48 -6745.902)" fill="#333346"/>
      <path id="Trazado_127438" data-name="Trazado 127438" d="M459.924,60.9c0,7.2-47.743,13.039-106.666,13.039S246.62,68.13,246.62,60.9,294.363,47.86,353.257,47.86,459.924,53.7,459.924,60.9Z" transform="translate(-3909.309 -6754.451)" fill="#3d3d55"/>
      <path id="Trazado_127439" data-name="Trazado 127439" d="M435.515,49.51a2.149,2.149,0,0,1,.465,1.22c0,7.2-47.743,13.039-106.666,13.039a603.842,603.842,0,0,1-82.533-4.792c5.024,6.65,50.647,11.82,106.173,11.82,58.923,0,106.666-5.808,106.666-13.039C459.619,54.621,450.7,51.746,435.515,49.51Z" transform="translate(-3909.005 -6751.31)" fill="#3f3f63"/>
    </g>
  </g>
</svg>
