<svg xmlns="http://www.w3.org/2000/svg" width="334.94" height="313.603" viewBox="0 0 334.94 313.603"><g transform="translate(-13.36 -35.815)"><g transform="translate(13.36 156.047)"><path d="M167.47,0c92.491,0,167.47,43.288,167.47,96.686s-74.979,96.686-167.47,96.686S0,150.084,0,96.686,74.979,0,167.47,0Z" fill="#d9e2f4"/></g><g transform="translate(66.02 255.481)"><ellipse cx="41.412" cy="23.904" rx="41.412" ry="23.904" transform="translate(0 5.935)" fill="#aeb6cd"/><ellipse cx="41.412" cy="23.904" rx="41.412" ry="23.904" transform="translate(146.725 5.935)" fill="#aeb6cd"/><ellipse cx="41.412" cy="23.904" rx="41.412" ry="23.904" transform="translate(73.688)" fill="#aeb6cd"/></g><g transform="translate(27.349 157.854)"><path d="M63.844,268.521l6.75-3.9s1.65-14.456.552-25.646c-1.544-15.724-11.7-34.641-23.819-30.2s5.56,20.462,9.491,33.8S63.844,268.521,63.844,268.521Z" transform="translate(-36.038 -208.121)" fill="#26aab7"/><path d="M63.844,268.521l6.75-3.9s1.65-14.456.552-25.646c-1.544-15.724-11.7-34.641-23.819-30.2s5.56,20.462,9.491,33.8S63.844,268.521,63.844,268.521Z" transform="translate(-36.038 -208.121)" opacity="0.15"/><path d="M70.431,268.928h0a.4.4,0,0,1-.39-.425c1.183-34.939-16.212-52.518-16.389-52.688a.411.411,0,0,1,.574-.581c.177.177,17.827,18,16.63,53.3a.411.411,0,0,1-.425.4Z" transform="translate(-39.077 -210.17)" fill="#fff"/><path d="M56.674,279.395l4.8-2.776a52.989,52.989,0,0,0-4.044-21.956c-4.25-10.482-14.732-19.18-20.016-17.353s-5.149,5.574-2.571,9.5S53.083,260.094,56.674,279.395Z" transform="translate(-33.111 -216.565)" fill="#26aab7"/><path d="M61.167,279.553h0a.411.411,0,0,1-.411-.411c.1-22.091-20.646-37.021-20.858-37.17a.412.412,0,1,1,.475-.673c.212.156,21.3,15.334,21.2,37.843a.4.4,0,0,1-.4.411Z" transform="translate(-35.04 -217.778)" fill="#fff"/><g transform="translate(270.345 0.962)"><path d="M422.827,262.671l-5.666-3.286s-3.386-14.073-2.033-26.73c1.9-17.8,13.613-24.5,18.068-22.962s5.744,6.714-1.629,17.317C427.19,233.263,421.85,246.289,422.827,262.671Z" transform="translate(-414.809 -209.479)" fill="#26aab7"/><g transform="translate(0)" opacity="0.15"><path d="M422.827,262.671l-5.666-3.286s-3.386-14.073-2.033-26.73c1.9-17.8,13.613-24.5,18.068-22.962s5.744,6.714-1.629,17.317C427.19,233.263,421.85,246.289,422.827,262.671Z" transform="translate(-414.809 -209.479)"/></g><path d="M422.266,256.828h.057a.4.4,0,0,0,.312-.46c-3.116-16.411,2.606-34.868,9.689-42.546a.4.4,0,0,0-.56-.56c-7.231,7.791-13.075,26.567-9.916,43.2A.4.4,0,0,0,422.266,256.828Z" transform="translate(-416.607 -210.549)" fill="#fff"/><path d="M439.026,277.194c.9.46,3.286-1.587,3.952-2.082a8.443,8.443,0,0,0,2.614-3.322,7.847,7.847,0,0,0,.46-4.731,19.188,19.188,0,0,0-.708-2.465c-.269-.793-.545-1.587-.814-2.387a6.112,6.112,0,0,1-.482-2.422c.127-1.664,1.537-2.9,2.833-3.966,1.417-1.183,2.89-2.72,2.776-4.717a7.083,7.083,0,0,0-1.962-4.087c-1.02-1.154-2.2-2.167-3.131-3.4a4.859,4.859,0,0,1-1.155-3.046,5.128,5.128,0,0,1,.574-1.969,27.9,27.9,0,0,0,1.927-3.988,3.9,3.9,0,0,0-.885-4.094,4.711,4.711,0,0,0-3.471-.708,7.84,7.84,0,0,0-3.138,1.282c-3.074,1.919-4.689,5.758-7.982,7.281a33.632,33.632,0,0,1-4.016,1.2,5.014,5.014,0,0,0-3.237,2.465c-1.1,2.521,1.332,5.439.595,8.1-.645,2.351-2.833,3.35-4.009,5.5a4.958,4.958,0,0,0-.439,3.06,14.511,14.511,0,0,0,1.537,5.05,45.868,45.868,0,0,0,3.038,4.675S438.905,277.123,439.026,277.194Z" transform="translate(-416.106 -215.398)" fill="#26aab7"/><path d="M434.611,273.981h0a.4.4,0,0,0,.361-.425c-1.417-15.617,5.064-33.289,10.171-38.551a.4.4,0,1,0-.567-.552c-5.213,5.4-11.849,23.337-10.39,39.174a.389.389,0,0,0,.425.354Z" transform="translate(-420.402 -216.724)" fill="#fff"/><path d="M436.893,261.824a.361.361,0,0,0,.12,0,53.282,53.282,0,0,1,11.261-2.408.4.4,0,0,0-.071-.786,54.237,54.237,0,0,0-11.467,2.451.4.4,0,0,0,.156.765Z" transform="translate(-421.134 -223.818)" fill="#fff"/></g></g><g transform="translate(143.979 143.844)"><path d="M257.473,359.46c-9.88-5.666-25.9-5.666-35.782,0-4.958,2.833-7.4,6.587-7.4,10.327v2.493c.071,3.683,2.536,7.345,7.394,10.149,9.88,5.709,25.9,5.709,35.782,0,4.88-2.833,7.345-6.5,7.4-10.2v-2.5C264.846,366.011,262.381,362.3,257.473,359.46Z" transform="translate(-202.596 -237.021)" fill="#37474f"/><path d="M221.69,380.107c-9.873-5.7-9.873-14.952,0-20.653s25.9-5.666,35.782,0,9.873,14.952,0,20.653S231.57,385.816,221.69,380.107Z" transform="translate(-202.595 -237.016)" fill="#aa6002"/><path d="M251.7,335.3h0v-92h-5.836v92h0a1.36,1.36,0,0,0,.836,1.339,4.576,4.576,0,0,0,4.136,0A1.353,1.353,0,0,0,251.7,335.3Z" transform="translate(-211.805 -204.374)" fill="#603600"/><path d="M260.918,199.195c-14.442-8.336-37.857-8.336-52.3,0-7.224,4.172-10.829,9.632-10.829,15.1v2.691c0,5.461,3.605,10.929,10.829,15.093,14.442,8.343,37.857,8.343,52.3,0,7.224-4.165,10.829-9.632,10.829-15.093V214.3C271.747,208.827,268.142,203.366,260.918,199.195Z" transform="translate(-197.783 -189.683)" fill="#455a64"/><path d="M260.918,194.595c-14.442-8.336-37.857-8.336-52.3,0-7.224,4.172-10.829,9.632-10.829,15.1v2.684c0,5.468,3.605,10.929,10.829,15.1,14.442,8.336,37.857,8.336,52.3,0,7.224-4.172,10.829-9.632,10.829-15.1v-2.684C271.747,204.227,268.142,198.766,260.918,194.595Z" transform="translate(-197.783 -188.341)" fill="#fb8c00"/><path d="M260.918,194.595c-14.442-8.336-37.857-8.336-52.3,0-7.224,4.172-10.829,9.632-10.829,15.1v2.684c0,5.468,3.605,10.929,10.829,15.1,14.442,8.336,37.857,8.336,52.3,0,7.224-4.172,10.829-9.632,10.829-15.1v-2.684C271.747,204.227,268.142,198.766,260.918,194.595Z" transform="translate(-197.797 -188.341)" opacity="0.24"/><ellipse cx="36.986" cy="21.354" rx="36.986" ry="21.354" fill="#fb8c00" opacity="0.5"/></g><g transform="translate(189.959 86.233)"><g transform="translate(37.673 36.445)"><path d="M355.158,372.324h0V281.29h-2.989v91.034h0a.708.708,0,0,0,.432.708,2.323,2.323,0,0,0,2.125,0A.708.708,0,0,0,355.158,372.324Z" transform="translate(-326.473 -194.291)" fill="#37474f"/><path d="M385.155,359.439h0V272.18h-3v87.259h0a.708.708,0,0,0,.425.708,2.387,2.387,0,0,0,2.125,0A.708.708,0,0,0,385.155,359.439Z" transform="translate(-335.222 -191.634)" fill="#37474f"/><path d="M322,359.439h0V272.18h3v87.259h0a.708.708,0,0,1-.425.708,2.387,2.387,0,0,1-2.125,0A.708.708,0,0,1,322,359.439Z" transform="translate(-317.672 -191.634)" fill="#37474f"/><path d="M362.823,241.4c-10.737-6.2-28.139-6.2-38.877,0-5.369,3.1-8.046,7.161-8.046,11.219v4.958c0,4.065,2.677,8.124,8.046,11.226,10.737,6.2,28.139,6.2,38.877,0,5.369-3.1,8.046-7.161,8.046-11.226v-4.958C370.869,248.556,368.191,244.491,362.823,241.4Z" transform="translate(-315.893 -181.297)" fill="#fb8c00"/><path d="M362.823,237.976c-10.737-6.2-28.139-6.2-38.877,0-5.369,3.1-8.046,7.161-8.046,11.219v4.958c0,4.065,2.677,8.124,8.046,11.226,10.737,6.2,28.139,6.2,38.877,0,5.369-3.1,8.046-7.161,8.046-11.226v-4.958C370.869,245.136,368.191,241.071,362.823,237.976Z" transform="translate(-315.893 -180.299)" fill="#fb8c00"/><path d="M362.823,237.976c-10.737-6.2-28.139-6.2-38.877,0-5.369,3.1-8.046,7.161-8.046,11.219v4.958c0,4.065,2.677,8.124,8.046,11.226,10.737,6.2,28.139,6.2,38.877,0,5.369-3.1,8.046-7.161,8.046-11.226v-4.958C370.869,245.136,368.191,241.071,362.823,237.976Z" transform="translate(-315.893 -180.299)" opacity="0.4"/><ellipse cx="27.488" cy="15.872" rx="27.488" ry="15.872" transform="translate(-0.287 53.023)" fill="#fb8c00" opacity="0.5"/><path d="M343.569,370.04c-6.608,0-13.209-1.452-18.238-4.356h0c-5.007-2.89-7.791-6.771-7.791-10.936s2.762-8.053,7.791-10.943c10.057-5.808,26.418-5.808,36.483,0,5,2.89,7.791,6.778,7.791,10.943s-2.762,8.046-7.791,10.936S350.177,370.04,343.569,370.04Zm-17.53-5.581c9.668,5.581,25.4,5.581,35.066,0,4.547-2.628,7.083-6.077,7.083-9.71s-2.507-7.083-7.083-9.717c-9.668-5.581-25.4-5.581-35.066,0-4.554,2.628-7.083,6.077-7.083,9.717S321.464,361.831,326.039,364.459Z" transform="translate(-316.371 -211.258)" fill="#37474f"/><path d="M357.464,213.449c-.538,0-1.126-.255-1.176-.807-2.274-25.448,3.584-48.474,5.85-53.58a1.19,1.19,0,0,1,1.516-.5,1.062,1.062,0,0,1,.538,1.417c-2.543,5.716-7.791,28.982-5.666,52.631,0,.46-.382.8-.963.857Z" transform="translate(-327.525 -158.457)" fill="#455a64"/><path d="M391.8,184.188,363.162,167.65l-1.169.708a135.994,135.994,0,0,0-3.286,17.544.708.708,0,0,0,.347.708L385.182,201.7l1.169-.708C387.874,194.564,391.8,184.188,391.8,184.188Z" transform="translate(-328.379 -161.139)" fill="#fb8c00"/><path d="M391.8,184.188,363.162,167.65l-1.169.708a135.994,135.994,0,0,0-3.286,17.544.708.708,0,0,0,.347.708L385.182,201.7l1.169-.708C387.874,194.564,391.8,184.188,391.8,184.188Z" transform="translate(-330.014 -161.139)" opacity="0.4"/><path d="M363.38,168.33l1.169-.68,28.621,16.524-1.162.68Z" transform="translate(-329.744 -161.139)" fill="#1565c0" opacity="0.5"/><path d="M390.222,234.371c-.588,0-1.062-.212-1.062-.609,0-22.36,8.882-44.083,11.6-50.2a1.062,1.062,0,1,1,1.941.864c-2.677,6.027-11.439,27.4-11.418,49.338C391.285,233.975,390.81,234.371,390.222,234.371Z" transform="translate(-337.265 -165.596)" fill="#455a64"/></g><path d="M381.062,150.084c-.56-.51-1.232-.892-1.785-1.417a4.724,4.724,0,0,1-1.417-2.833c-.142-1.2.17-2.4.092-3.6a5.553,5.553,0,0,0-2.2-3.98c-1.381-1.041-3.116-1.119-4.575-1.983a5.085,5.085,0,0,1-2.082-2.238,7.543,7.543,0,0,1-.34-3.825,31.873,31.873,0,0,0-.12-8.216,18.011,18.011,0,0,0-4.009-8.5,17,17,0,0,0-14.165-6.2l-1.466.106a16.722,16.722,0,0,0-6.835,1.983l-.765.439a.973.973,0,0,1-.142.092c-.269.163-.531.34-.793.524s-.517.382-.772.588h0c-2.9,2.33-4.073,5.489-4.958,9.207-1.65,5.978-2.507,14.7.4,22.339a28.862,28.862,0,0,0,8.853,11.6c9.066,7.451,25.193,11.332,34.769,5.347C382.124,157.407,384.461,153.172,381.062,150.084Z" transform="translate(-283.271 -107.078)" fill="#455a64"/><path d="M343.881,108.23c-7.89.46-14.923,2.635-16.843,8.173s2.876,12.749,5.751,12.749C336.876,129.145,343.881,108.23,343.881,108.23Z" transform="translate(-281.34 -107.359)" fill="#455a64"/><path d="M339.46,372.643l-.871-.142c0-2.748.212-5.255-.439-6.559l1.31-3.343Z" transform="translate(-284.711 -181.567)" fill="#263238"/><path d="M342.358,359.21c-.234,1.877-1.339,3.782-1.494,7.486a31.568,31.568,0,0,0,0,4.738l-.914.22V361.611Z" transform="translate(-285.236 -180.578)" fill="#263238"/><path d="M312.85,372.954a2.507,2.507,0,0,0,.574,1.381c.467.368,1.948,1.615,6.785,1.417s6.544-1.346,8.23-2.833,2.2-5.418,2.479-7.281a13.957,13.957,0,0,1,3.541-7.253,3.265,3.265,0,0,0,.184-1.877,6.086,6.086,0,0,0-5.808,4.087c-1.82,4.391-3.279,9.491-7.21,10.624A61.62,61.62,0,0,1,312.85,372.954Z" transform="translate(-277.33 -179.788)" fill="#37474f"/><path d="M315.386,361.21c-1.5,1.247-2.628,1.792-2.529,2.975s1.346,1.742,2.344,2.068a16.45,16.45,0,0,0,7.43.142c2.38-.375,5.057-1.417,6.119-3.683a9.505,9.505,0,0,0,.609-2.068,29.874,29.874,0,0,1,1.955-6.856,15.361,15.361,0,0,1,1.381-2.642,6.85,6.85,0,0,0,1.558-2.975c.113-.935-.581-2.274-1.494-3.718h0A8.868,8.868,0,0,1,331.393,339l.708-8.5-10.787,2.344,1.417,9.547c.368,2.5-.581,5.135-1.169,7.529a34.2,34.2,0,0,1-2.9,7.678,7.485,7.485,0,0,1-1.147,1.728A20.109,20.109,0,0,1,315.386,361.21Z" transform="translate(-277.33 -172.202)" fill="#ffa8a7"/><path d="M333.893,351.624c-.588-.935-1.3-1.65-1.792-2.614a8,8,0,0,0-1.162,1.976h0c-1.268,2.394-1.579,6.183-2.833,9.916a7.179,7.179,0,0,1-4.476,5.007,8.124,8.124,0,0,1-3.988.368h0c-2.5-.4-1.877-2.189-1.877-2.189a31.843,31.843,0,0,1-4.837,3.839,2.028,2.028,0,0,0-.255,2.833c.708.616,3.038,2.125,9.052,1.381,5.34-.666,6.636-3.1,7.161-4.193a26.452,26.452,0,0,0,1.211-4.958,15.583,15.583,0,0,1,1.976-5.262,6.264,6.264,0,0,1,.361-.552h0c.368-.524.8-1.1,1.289-1.664.383-.446.708-.652.8-1.077A3.747,3.747,0,0,0,333.893,351.624Z" transform="translate(-277.146 -177.602)" fill="#1565c0"/><path d="M333.893,351.624c-.588-.935-1.3-1.65-1.792-2.614a8,8,0,0,0-1.162,1.976h0c-1.268,2.394-1.579,6.183-2.833,9.916a7.179,7.179,0,0,1-4.476,5.007,8.124,8.124,0,0,1-3.988.368h0c-2.5-.4-1.877-2.189-1.877-2.189a31.843,31.843,0,0,1-4.837,3.839,2.028,2.028,0,0,0-.255,2.833c.708.616,3.038,2.125,9.052,1.381,5.34-.666,6.636-3.1,7.161-4.193a26.452,26.452,0,0,0,1.211-4.958,15.583,15.583,0,0,1,1.976-5.262,6.264,6.264,0,0,1,.361-.552h0c.368-.524.8-1.1,1.289-1.664.383-.446.708-.652.8-1.077A3.747,3.747,0,0,0,333.893,351.624Z" transform="translate(-277.146 -177.602)" opacity="0.4"/><path d="M316.6,356.1l-.878-.12c-.078-2.741.057-5.255-.63-6.537l1.211-3.378Z" transform="translate(-277.983 -176.742)" fill="#263238"/><path d="M319.137,342.57c-.177,1.877-1.232,3.818-1.275,7.529A31.687,31.687,0,0,0,318,354.83l-.9.248-.3-10.036Z" transform="translate(-278.482 -175.723)" fill="#263238"/><path d="M290.21,356.986a2.5,2.5,0,0,0,.616,1.367c.475.354,1.99,1.5,6.814,1.176s6.516-1.473,8.152-3,2.04-5.475,2.266-7.345a13.742,13.742,0,0,1,3.322-7.352,3.194,3.194,0,0,0,.127-1.877,6.048,6.048,0,0,0-5.666,4.25c-1.672,4.441-3,9.583-6.9,10.844A61.2,61.2,0,0,1,290.21,356.986Z" transform="translate(-270.725 -174.961)" fill="#37474f"/><path d="M292.611,345.132c-1.466,1.289-2.578,1.863-2.436,3.038s1.417,1.707,2.394,2A16.252,16.252,0,0,0,300,350.1c2.366-.439,5.022-1.587,6.013-3.86a9.163,9.163,0,0,0,.545-2.089,29.974,29.974,0,0,1,1.764-6.906,15.136,15.136,0,0,1,1.3-2.684,6.73,6.73,0,0,0,1.473-3.017c.092-.942-.645-2.259-1.594-3.669v-.035a8.8,8.8,0,0,1-1.523-5.4l.439-8.549L297.7,316.546l1.686,9.5c.446,2.493-.432,5.156-.949,7.564a33.934,33.934,0,0,1-2.684,7.791,7.367,7.367,0,0,1-1.091,1.757,20.3,20.3,0,0,1-2.054,1.976Z" transform="translate(-270.711 -167.356)" fill="#ffa8a7"/><path d="M310.672,335.017a30.107,30.107,0,0,1-1.863-2.557,7.791,7.791,0,0,0-1.1,2h0c-1.2,2.422-1.417,6.226-2.536,10.008-.85,2.833-2.309,4.349-4.32,5.135a8.11,8.11,0,0,1-3.98.482h0c-2.514-.326-1.948-2.125-1.948-2.125a31.022,31.022,0,0,1-4.717,3.98,2.011,2.011,0,0,0-.177,2.833c.708.595,3.1,2.04,9.087,1.119,5.319-.815,6.544-3.286,7.04-4.4a26.478,26.478,0,0,0,1.062-5.007,15.512,15.512,0,0,1,1.82-5.312c.12-.205.234-.4.347-.567h0c.354-.531.772-1.119,1.247-1.7.368-.453.659-.666.765-1.1a3.768,3.768,0,0,0-.722-2.8Z" transform="translate(-270.527 -172.774)" fill="#1565c0"/><path d="M310.672,335.017a30.107,30.107,0,0,1-1.863-2.557,7.791,7.791,0,0,0-1.1,2h0c-1.2,2.422-1.417,6.226-2.536,10.008-.85,2.833-2.309,4.349-4.32,5.135a8.11,8.11,0,0,1-3.98.482h0c-2.514-.326-1.948-2.125-1.948-2.125a31.022,31.022,0,0,1-4.717,3.98,2.011,2.011,0,0,0-.177,2.833c.708.595,3.1,2.04,9.087,1.119,5.319-.815,6.544-3.286,7.04-4.4a26.478,26.478,0,0,0,1.062-5.007,15.512,15.512,0,0,1,1.82-5.312c.12-.205.234-.4.347-.567h0c.354-.531.772-1.119,1.247-1.7.368-.453.659-.666.765-1.1a3.768,3.768,0,0,0-.722-2.8Z" transform="translate(-270.527 -172.774)" opacity="0.4"/><path d="M356.156,228.658a35.655,35.655,0,0,0-3.315-8.6c-10.263,4.88-20.575,4.738-30.916,1.417.368,1.126-2.451,3.761-9.916,8.924-5.411,3.733-13.854,9.073-17.99,12.359-2.125,1.664-4.285,3.81-3.343,9.831,1.275,8.152,7.083,36.71,7.083,36.71,7.026,2.5,10.624-1.65,10.624-1.65s1.1-10.879,2-19.64-1.6-13.62-1.6-13.62,20.405-7.3,28.373-8.945C350.5,242.682,357.912,241,356.156,228.658Z" transform="translate(-270.795 -139.983)" fill="#37474f"/><path d="M328.739,232.84s3.116,6.948,7.231,8.655l-14.434,14.831-5.156,1.806,4.767-2.925,11.07-13.627S328.7,237.628,328.739,232.84Z" transform="translate(-278.36 -143.712)" fill="#263238"/><path d="M314.438,283.227a77.016,77.016,0,0,0,2.089,8.28c.255-2.472.517-5.057.765-7.479a33.814,33.814,0,0,0-.042-7.593L315.9,274.94C314.339,276.994,313.447,278.219,314.438,283.227Z" transform="translate(-277.671 -155.994)" fill="#263238"/><path d="M363.544,228.828h0a1.235,1.235,0,0,0,0-.17,35.653,35.653,0,0,0-3.315-8.6c-10.263,4.88-20.575,4.738-30.916,1.417a22.9,22.9,0,0,0,.708,6.183c1.466,7.671,5.716,10.107,5.716,10.107h0c-6.183,6.07-14.583,14.647-18.415,19.357-1.055,1.31-2.075,4.009-1.459,7.791,1.339,8.145,6.523,37.977,6.523,37.977,7.047,1.891,10.114-.843,10.114-.843s1.636-11.686,2.529-20.448a33.664,33.664,0,0,0-2.529-16.064s12.246-6.438,19.633-11.162C363.714,246.988,366.079,238.865,363.544,228.828Z" transform="translate(-278.154 -139.983)" fill="#37474f"/><path d="M321.139,162.286c-5.864-.184-8.4,1.955-12.09,9.207-2.876,5.666-5.73,11.658-8.1,15.787-5.716-.432-16.5-1.919-20.49-3.456a3.322,3.322,0,0,1-1.735-1.537,13.641,13.641,0,0,0-3.442-4.129c-1.154-1.027-1.417-2.366-1.99-2.337s-1.247.935-.942,2.238a18.371,18.371,0,0,0,1.551,2.883c-.935.191-4.179-1.247-6.211-3.485-2.7-2.975-5.291-1.53-4.958,3.435.106,1.778,2.642,6.289,9.448,9.533a53.959,53.959,0,0,0,7.975,2.755c7.083,2.075,14.1,4.405,19.215,4.922,3.966.4,6.148.708,9.023-2.479,8.35-9.392,11.566-17.962,15.2-24.081Z" transform="translate(-262.699 -123.125)" fill="#ffa8a7"/><path d="M333.716,162.178c-3.435-.22-5.872.22-7.9,1.721s-2.833,2.939-4.88,6.559-8.414,16.566-8.414,16.566l-7.685-.708a12.352,12.352,0,0,1,0,5.3,9.916,9.916,0,0,1-2.033,4.724,81.143,81.143,0,0,0,8.195,1.912c4.646.708,6.282,1.02,9.066-2.281s13.046-16.233,13.046-16.233Z" transform="translate(-274.398 -123.082)" fill="#37474f"/><path d="M363.709,200.737a6.311,6.311,0,0,1-1.1-3.952c.4-1.834,1.417-7.26,1.417-7.26h0l-1.912-8.074a30.925,30.925,0,0,1-.892-3.973c-.97-3.492-1.834-9.7.383-13.1l-4.158-.921a45.982,45.982,0,0,0-11.991-1.2l-3.725-.05s-8.6,9.682-10.4,14.024c-1.034,2.5-2.373,7.019,2.344,12.345.127,3.024-.39,7.982-.489,10.39s-.319,5.354-.623,7.578c1.417,3.116,6.523,8.265,17.608,7.911,11.488-.368,17-6.105,17-6.105a29.329,29.329,0,0,0-3.456-7.607Z" transform="translate(-282.428 -123.104)" fill="#1565c0"/><path d="M348.33,197.191s2.946,3.393,8.938,2.125,7-5.836,7-5.836.588,5.836-6.573,7.3S348.33,197.191,348.33,197.191Z" transform="translate(-287.68 -132.229)" opacity="0.1"/><path d="M383.119,199.259c-1.091-5.007-3.35-13.613-5.624-22.537-2.458-9.647-4.731-9.732-10.624-10.822-4.434,5.432,0,18.125,0,18.125l5.064,17.53c-3.2,5.666-5.843,11.594-9.555,16.064-.637.772-1.785.708-2.783.85a20.02,20.02,0,0,0-6,1.714c-1.82.673-3,.489-3.038.97a2.2,2.2,0,0,0,2.125,2.125,11.205,11.205,0,0,0,3.138-.142,22.666,22.666,0,0,1-5.34,3.364c-4.582,2.125-6.077,5.992.262,7.175,3.825.708,8.088-.177,13.974-5.787a62.277,62.277,0,0,0,6.927-7.763C376.851,212.879,383.8,203.417,383.119,199.259Z" transform="translate(-287.148 -124.183)" fill="#ffa8a7"/><path d="M373.461,165.27c3.2.609,5.8,1.14,7.118,2.125s2.125,1.714,3.258,4.958,6.077,23.182,6.445,24.917a8.006,8.006,0,0,1-.758,6.644,111.468,111.468,0,0,1-6.58,10.121,14.024,14.024,0,0,0-8.117-4.922l3.456-7.685-6.374-20.979S368.85,170.667,373.461,165.27Z" transform="translate(-294.269 -123.999)" fill="#37474f"/><path d="M375.682,107l-1.162,4.455a2.238,2.238,0,0,0,2.833-1.565A2.422,2.422,0,0,0,375.682,107Z" transform="translate(-295.321 -107)" fill="#455a64"/><path d="M379.664,112.72l-4.6.17a2.231,2.231,0,0,0,2.309,2.259,2.415,2.415,0,0,0,2.295-2.429Z" transform="translate(-295.478 -108.669)" fill="#455a64"/><path d="M340.249,118.38c-1.9,1.126-4.25,5.9-4.016,15.908.2,8.5,2.946,10.582,4.327,11.184s4.044.234,6.629-.191v5.085s-2.373,2.075-2.125,4.413,5.17,2.883,8.5.6a12.743,12.743,0,0,0,4.3-4.335V138.516s1.416,1.5,3.924-.212a4.632,4.632,0,0,0,1.19-6.736,3.418,3.418,0,0,0-5.192.616s-3.888.177-9.385-2.833S341.021,121.071,340.249,118.38Z" transform="translate(-284.147 -110.32)" fill="#ffa8a7"/><path d="M351,137.4a1.062,1.062,0,1,0,1.119-1.055A1.084,1.084,0,0,0,351,137.4Z" transform="translate(-288.459 -115.559)" fill="#263238"/><path d="M348.737,147.39l-3.067.977a1.579,1.579,0,0,0,2,1.1,1.679,1.679,0,0,0,1.069-2.075Z" transform="translate(-286.904 -118.783)" fill="#f28f8f"/><path d="M337.92,131.844l2.543-.666a1.261,1.261,0,0,0-1.558-.956A1.417,1.417,0,0,0,337.92,131.844Z" transform="translate(-284.636 -113.762)" fill="#263238"/><path d="M352.18,131.377l2.359,1.154a1.254,1.254,0,0,0-.552-1.742A1.417,1.417,0,0,0,352.18,131.377Z" transform="translate(-288.804 -113.904)" fill="#263238"/><path d="M338.3,136.305a1.069,1.069,0,1,0,1.126-1.055,1.091,1.091,0,0,0-1.126,1.055Z" transform="translate(-284.754 -115.241)" fill="#263238"/><path d="M345.206,135.88l-.17,6.424-3.386-1.048Z" transform="translate(-285.732 -115.425)" fill="#f28f8f"/><path d="M351.7,154.633c2.734-.361,8.343-1.976,9.207-4.193a5.8,5.8,0,0,1-1.969,2.833c-1.679,1.417-7.253,3.053-7.253,3.053Z" transform="translate(-288.661 -119.673)" fill="#f28f8f"/></g><g transform="translate(69.127 82.919)"><g transform="translate(0 39.758)"><path d="M144.069,372.324h0V281.29h3v91.034h0a.708.708,0,0,1-.425.708,2.344,2.344,0,0,1-2.125,0,.708.708,0,0,1-.446-.708Z" transform="translate(-107.258 -194.29)" fill="#37474f"/><path d="M114.069,359.439h0V272.18h2.989v87.259h0a.708.708,0,0,1-.425.708,2.373,2.373,0,0,1-2.125,0,.708.708,0,0,1-.439-.708Z" transform="translate(-98.506 -191.632)" fill="#37474f"/><path d="M177.2,359.439h0V272.18h-2.989v87.259h0a.708.708,0,0,0,.425.708,2.373,2.373,0,0,0,2.125,0A.708.708,0,0,0,177.2,359.439Z" transform="translate(-116.051 -191.632)" fill="#37474f"/><path d="M115.006,241.4c10.73-6.2,28.139-6.2,38.877,0,5.362,3.1,8.046,7.161,8.039,11.219v4.958c0,4.065-2.677,8.124-8.046,11.226-10.73,6.2-28.139,6.2-38.87,0-5.369-3.1-8.046-7.161-8.046-11.226v-4.958C106.988,248.556,109.637,244.491,115.006,241.4Z" transform="translate(-96.433 -181.295)" fill="#fb8c00"/><path d="M115.006,237.976c10.73-6.2,28.139-6.2,38.877,0,5.362,3.1,8.046,7.161,8.039,11.219v4.958c0,4.065-2.677,8.124-8.046,11.226-10.73,6.2-28.139,6.2-38.87,0-5.369-3.1-8.046-7.161-8.046-11.226v-4.958C106.988,245.136,109.637,241.071,115.006,237.976Z" transform="translate(-96.433 -180.298)" fill="#fb8c00"/><path d="M115.006,237.976c10.73-6.2,28.139-6.2,38.877,0,5.362,3.1,8.046,7.161,8.039,11.219v4.958c0,4.065-2.677,8.124-8.046,11.226-10.73,6.2-28.139,6.2-38.87,0-5.369-3.1-8.046-7.161-8.046-11.226v-4.958C106.988,245.136,109.637,241.071,115.006,237.976Z" transform="translate(-96.131 -180.298)" opacity="0.4"/><ellipse cx="27.488" cy="15.872" rx="27.488" ry="15.872" transform="translate(10.52 53.025)" fill="#fb8c00" opacity="0.5"/><path d="M135.456,370.04c-6.608,0-13.216-1.452-18.245-4.356s-7.791-6.771-7.791-10.936,2.755-8.053,7.791-10.943c10.057-5.808,26.425-5.808,36.483,0,5.007,2.89,7.791,6.778,7.791,10.943s-2.755,8.046-7.791,10.936h0C148.665,368.588,142.057,370.04,135.456,370.04Zm0-29.195a36.049,36.049,0,0,0-17.537,4.186c-4.547,2.628-7.083,6.077-7.083,9.717s2.507,7.083,7.083,9.71c9.668,5.581,25.4,5.581,35.066,0h0c4.547-2.628,7.083-6.077,7.083-9.71s-2.507-7.083-7.083-9.717C148.155,342.241,141.8,340.845,135.456,340.845Z" transform="translate(-97.15 -211.257)" fill="#37474f"/><path d="M139.491,213.448c.545,0,1.126-.255,1.176-.807,2.274-25.448-3.577-48.474-5.85-53.58a1.176,1.176,0,0,0-1.509-.5,1.062,1.062,0,0,0-.538,1.417c2.536,5.716,7.791,28.982,5.666,52.631,0,.46.375.8.963.857Z" transform="translate(-103.934 -158.455)" fill="#455a64"/><path d="M95,184.194l28.628-16.524,1.169.708a137.182,137.182,0,0,1,3.286,17.544.708.708,0,0,1-.347.708l-26.128,15.086-1.169-.708A169.541,169.541,0,0,0,95,184.194Z" transform="translate(-92.944 -161.143)" fill="#fb8c00"/><path d="M95,184.194l28.628-16.524,1.169.708a137.182,137.182,0,0,1,3.286,17.544.708.708,0,0,1-.347.708l-26.128,15.086-1.169-.708A169.541,169.541,0,0,0,95,184.194Z" transform="translate(-91.281 -161.143)" opacity="0.4"/><path d="M124.817,168.33l-1.169-.68L95.02,184.174l1.169.68Z" transform="translate(-92.949 -161.137)" fill="#1565c0" opacity="0.5"/><path d="M104.635,234.394c.588,0,1.062-.212,1.062-.609,0-22.36-8.875-44.083-11.594-50.2a1.062,1.062,0,0,0-1.948.836c2.684,6.027,11.439,27.4,11.417,49.338C103.573,234,104.069,234.394,104.635,234.394Z" transform="translate(-92.097 -165.618)" fill="#455a64"/></g><g transform="translate(7.937)"><path d="M137.486,105.38l-.092.057c-4.136,2.656-8.846,3.478-12.551,6.941a15.1,15.1,0,0,0-4.958,12.253c.425,9.739,8.287,14.739,10.943,17.6.127.135,1.027.042,1.2.05l2.691.127c.652,0,1.473.375,2.125.184.822-.262,1.417-1.346,1.919-1.99,3.952-5.262,10.475-7.748,14.718-12.749a15.171,15.171,0,0,0,3.463-5.772c.567-2.189.078-4.809-1.742-6.155a4.88,4.88,0,0,0-5.043-7.649,4.269,4.269,0,0,0-1.842-5.092,7,7,0,0,0-5.709-.46A21.432,21.432,0,0,0,137.486,105.38Z" transform="translate(-108.13 -102.321)" fill="#263238"/><path d="M129.945,158.965c-1.714,2.975-5.758,3.867-9.023,1.983s-4.512-5.829-2.791-8.811,5.758-3.86,9.023-1.976A6.534,6.534,0,0,1,129.945,158.965Z" transform="translate(-107.403 -115.988)" fill="#263238"/><path d="M167.141,300.221c-3-.708-5.857,1.417-6.19,2.167-.453,1.013-.567,3.159.39,5.914a18.344,18.344,0,0,1,.453,8.414c-.482,2.38-2.274,8.251-.17,11.524s7.2,6.481,9.562,2.564c.765-1.282,0-6.1-.184-9.569-.382-6.92-.524-13.769-.524-13.769Z" transform="translate(-120.022 -160.013)" fill="#263238"/><path d="M167.468,307.8a65.98,65.98,0,0,1-.3,10.057c-.446,3.641.064,6.126,1.147,7.89,1.2,1.941,4.561,3.322,4.554-.482,0-2.649-.524-15.547-.524-15.547Z" transform="translate(-121.886 -162.266)" fill="#b16668"/><path d="M162.662,301.309c-.382,2.231.39,7.727,2.9,13.053,2.451,5.22,5.985,12.041,6.445,15.639.255-1.6-.106-4.611-.326-7.288v-.843a3.237,3.237,0,0,0-.035-.588h0c-.12-2.167-.212-4.32-.29-6.261-.064-1.551-.106-2.968-.142-4.143a15.136,15.136,0,0,0-.05-1.565v-1.8l-3.336-7.246c-.2-.05-.39-.078-.581-.106A6.7,6.7,0,0,0,162.662,301.309Z" transform="translate(-120.593 -160.024)" opacity="0.15"/><path d="M180.8,237.352c-8.365-6.445-18.507-12.522-18.507-12.522l-11.4,11.934,9.767,9.916,15.015,10.142a20.491,20.491,0,0,0-4.214,6.013c-.567,1.218-1.473,3.676-2.444,6.459l5.022,17.275s10.5-14.874,16.432-24.995c4.71-8.039,3.648-11.686,2.89-12.855C191.342,245.625,189.926,244.378,180.8,237.352Z" transform="translate(-117.189 -138.061)" fill="#37474f"/><path d="M174.8,260c-.779-1.1-1.6-2.125-2.422-3.159-3.109-3.8-11.2-13.11-11.2-13.11l-1.417.871,6.495,9.632Z" transform="translate(-119.774 -143.574)" fill="#263238"/><path d="M185.409,296.329c0-6.19-.106-14.824-.333-17.884a17.161,17.161,0,0,0-2.011-6.615,22.386,22.386,0,0,0-2.684,4.08l3.846,22.133Z" transform="translate(-125.789 -151.772)" fill="#263238"/><path d="M175.208,349c-.708-.12-.914,1.133-1.53,2.691a8.209,8.209,0,0,0-.744,4.781c.4,2.089,3.541,2.833,4.845,5.7s3.038,7.918,8.5,10.135,10.171,1.084,11.538-.425.708-3.286-2.592-6.013c-3.485-2.9-4.469-3.74-4.469-3.74Z" transform="translate(-123.592 -174.282)" fill="#263238"/><path d="M184.563,336.69a88.162,88.162,0,0,0,1.813,10.3,40.878,40.878,0,0,0,5.525,11.183c.524.786,1.749,2.281,2.174,2.911a1.119,1.119,0,0,1-.333,1.693c-1.417,1.034-6.743.645-9.427-1.962s-4.781-7.7-6.325-9.71a27.443,27.443,0,0,1-1.615-2.337,3.7,3.7,0,0,1-.609-2.486,10.688,10.688,0,0,0,.212-3.442,38.85,38.85,0,0,0-.829-4.582Z" transform="translate(-124.263 -170.694)" fill="#b16668"/><path d="M119.015,223.28c-1.863,5.609-3.109,7.508-1.934,13.627s7.224,11.793,14.7,17.537c6.176,4.753,15.306,11.637,17.19,12.749s1.941,2.38,1.169,6.155-.255,10.178,2.975,18.521c3.421,8.818,5.17,14.739,5.17,14.739a10.681,10.681,0,0,0,9.647-1.565s-2.7-38.331-3.754-43.53-17.707-23.7-17.707-23.7,3.633-7.911,5.85-13.457Z" transform="translate(-107.189 -137.608)" fill="#37474f"/><path d="M164.879,236.65s-1.686,4.313-5.149,5.886l1.36,1.537a10.036,10.036,0,0,0,3.789-7.423Z" transform="translate(-119.765 -141.509)" fill="#263238"/><path d="M154.241,162.286c5.872-.184,8.407,1.955,12.09,9.207,2.883,5.666,5.737,11.658,8.1,15.787,5.723-.432,16.5-1.919,20.5-3.456a3.279,3.279,0,0,0,1.728-1.537,13.662,13.662,0,0,1,3.449-4.129c1.147-1.027,1.417-2.366,1.983-2.337s1.254.935.949,2.238a19.66,19.66,0,0,1-1.551,2.883c.935.191,4.179-1.247,6.2-3.485,2.706-2.975,5.3-1.53,4.993,3.435-.106,1.778-2.642,6.289-9.455,9.533a53.4,53.4,0,0,1-7.975,2.755c-7.083,2.075-14.095,4.405-19.215,4.922-3.959.4-6.141.708-9.016-2.479-8.379-9.356-11.6-17.926-15.235-24.046Z" transform="translate(-117.448 -119.811)" fill="#b16668"/><path d="M155.25,162.256a9.8,9.8,0,0,1,6.686,1.339,15.411,15.411,0,0,1,4.25,4.958c.29,2.344-1.126,8.308-6.495,11.7Z" transform="translate(-118.458 -119.782)" fill="#455a64"/><path d="M121.576,200.763a6.262,6.262,0,0,0,1.091-3.952c-.39-1.834-1.417-7.26-1.417-7.26h0l-1.3-5.553s3.633-5.666,4.122-8.669.446-5.135-.914-10.518l6.233-1.119a40.117,40.117,0,0,1,10.426-1.3l4.6-.106s8.5,8.96,9.8,12.9a13.7,13.7,0,0,1-2.019,12.834c-.12,3.024-.2,8.577-.1,10.985s.326,5.354.63,7.578c-1.417,3.116-6.523,8.265-17.615,7.911-11.481-.368-17-6.105-17-6.105a29.039,29.039,0,0,1,3.456-7.628Z" transform="translate(-107.626 -119.816)" fill="#1565c0"/><path d="M158.955,217.538a4.363,4.363,0,0,1-1.672-.432,4.208,4.208,0,0,1-1.707-2.7c-.368-1.232-.871-3.888-.156-5.142.914-1.594,2.953-1.417,4.306-1.3l.467.035-.149,2.125-.5-.035c-.758-.071-2.033-.177-2.266.227-.368.807.361,4.377,1.013,4.887a3.322,3.322,0,0,0,1.976.092l.545,2.075a6.24,6.24,0,0,1-1.856.163Z" transform="translate(-118.402 -133.12)" fill="#e6e6e6"/><path d="M161.76,203.94c.2-.652.9-1.247,2.125-1.672a13.939,13.939,0,0,1,9.732.708c1.126.581,1.742,1.268,1.856,1.941h.035c.156,4.384-.97,9.37-2.713,12.041a.394.394,0,0,0-.035.057v.035h0a3.251,3.251,0,0,1-1.353,1.112,8.173,8.173,0,0,1-7.387-.517,3.379,3.379,0,0,1-1.183-1.282h0v-.106c-1.353-2.9-1.778-7.989-1.02-12.3Z" transform="translate(-120.265 -131.315)" fill="#f5f5f5"/><path d="M163.967,202.269c-2.769.977-2.9,2.876-.3,4.25a14.038,14.038,0,0,0,9.739.708c2.769-.985,2.9-2.876.29-4.25a13.939,13.939,0,0,0-9.732-.708Z" transform="translate(-120.368 -131.315)" fill="#fafafa"/><path d="M165.4,203.492c-2.217.609-2.309,1.849-.191,2.762a13.826,13.826,0,0,0,7.855.545c2.224-.616,2.309-1.849.191-2.762a13.761,13.761,0,0,0-7.855-.545Z" transform="translate(-120.916 -131.738)" fill="#e6e6e6"/><path d="M165.536,205.865a4.25,4.25,0,0,0-1.126.475,4.207,4.207,0,0,0,1.048.623,13.825,13.825,0,0,0,7.855.545,4.036,4.036,0,0,0,1.126-.475,4.129,4.129,0,0,0-1.048-.616A13.825,13.825,0,0,0,165.536,205.865Z" transform="translate(-121.13 -132.432)" fill="#37474f"/><path d="M110.171,212.086c10,1.169,34.415-.595,34.415-.595,3.584-.227,8.868-.708,11.332-3.272a13.83,13.83,0,0,0,2.9-6.254c.609-3.173-3.69.482-7.246.623a16.878,16.878,0,0,1-7.083-1.622,27.627,27.627,0,0,1-.184-3.131c-1.615,0-2.89,4.823-4.207,5.716-1.6,1.077-25.5-3.5-25.5-3.5l3.4-13.847a46.038,46.038,0,0,1,1.926-7.026c1.459-4.165,1.2-7.3-1.1-13.33,0,0-6.707.5-8.662,4.568s-3.067,9.916-4.632,17.707-2.564,17.933-2.125,19.732C104,210.655,106.3,211.632,110.171,212.086Z" transform="translate(-103.303 -120.854)" fill="#b16668"/><path d="M120.767,165.85c-3.541,0-8.011,1.275-9.08,4.405a59.755,59.755,0,0,0-1.757,6.466c2.89.609,7.38,3.2,10.015,9.484,0,0,.751-2.082,2.125-6.2C124.4,172.536,121.963,167.55,120.767,165.85Z" transform="translate(-105.237 -120.854)" fill="#455a64"/><path d="M145.564,197.191s-2.939,3.393-8.931,2.125-7-5.836-7-5.836-.595,5.836,6.573,7.3C143.262,202.241,145.564,197.191,145.564,197.191Z" transform="translate(-110.982 -128.915)" opacity="0.1"/><path d="M148.811,118.38c1.9,1.126,4.25,5.9,4.009,15.908-.191,8.5-2.939,10.582-4.32,11.184s-4.044.234-6.636-.191v5.085s3.577,4.158,3.357,6.495-5.17,2.883-8.5.6a21.7,21.7,0,0,1-5.489-5.751v-13.2s-1.417,1.5-3.924-.212a4.618,4.618,0,0,1-1.2-6.736,3.418,3.418,0,0,1,5.192.616s3.478-.3,8.974-3.322A17.707,17.707,0,0,0,148.811,118.38Z" transform="translate(-109.674 -107.006)" fill="#b16668"/><path d="M133.83,140.342h0V135.88h2.833v1.615a2.833,2.833,0,0,1-2.833,2.847Z" transform="translate(-112.209 -112.111)" fill="#263238"/><path d="M148.629,137.4a1.069,1.069,0,1,1-1.119-1.055A1.091,1.091,0,0,1,148.629,137.4Z" transform="translate(-115.902 -112.245)" fill="#263238"/><path d="M150.439,147.75l3.258,1.034a1.679,1.679,0,0,1-2.125,1.169A1.785,1.785,0,0,1,150.439,147.75Z" transform="translate(-117.032 -115.574)" fill="#9a4a4d"/><path d="M161.985,132.347l-2.125-1.5a1.254,1.254,0,0,1,1.792-.361,1.374,1.374,0,0,1,.333,1.863Z" transform="translate(-119.803 -110.469)" fill="#263238"/><path d="M161.245,136.3a1.077,1.077,0,0,1-1.006,1.162,1.112,1.112,0,1,1,1.006-1.162Z" transform="translate(-119.558 -111.926)" fill="#263238"/><path d="M153.8,135.88l.17,6.424,3.378-1.048Z" transform="translate(-118.035 -112.111)" fill="#9a4a4d"/><path d="M144.957,154.633c-2.727-.361-8.343-1.976-9.207-4.193a5.737,5.737,0,0,0,1.969,2.833c1.679,1.417,7.246,3.053,7.246,3.053Z" transform="translate(-112.769 -116.359)" fill="#9a4a4d"/></g></g><g transform="translate(90.533 35.815)"><path d="M143.3,94.976l-3.924-2.266a.375.375,0,0,1-.184-.163l-.708-1.261,2.33-1.346-.071.205Z" transform="translate(-127.034 -51.605)" fill="#1565c0"/><path d="M143.3,94.976l-3.924-2.266a.375.375,0,0,1-.184-.163l-.708-1.261,2.33-1.346-.071.205Z" transform="translate(-127.034 -51.605)" opacity="0.2"/><path d="M141.25,88.708l2.72,4.71a.4.4,0,0,0,.708-.071l2.833-8.287Z" transform="translate(-127.842 -50.181)" fill="#26aab7"/><path d="M159.807,40.451a4.186,4.186,0,0,0-1.9-3.286l-1.544-.892a4.172,4.172,0,0,0-3.8,0l-28.331,16.29a4.186,4.186,0,0,0-1.9,3.286V73.739a4.2,4.2,0,0,0,1.884,3.286l1.544.892a4.25,4.25,0,0,0,3.8,0l28.522-16.4a2.941,2.941,0,0,0,1.721-3.159Z" transform="translate(-122.326 -35.815)" fill="#26aab7"/><path d="M122.32,81.215a4.2,4.2,0,0,0,1.9,3.286l1.544.892a4.25,4.25,0,0,0,3.471.156c-.892.34-1.572-.17-1.572-1.254V66.391a3.853,3.853,0,0,1,.56-1.87l-5.34-3.081a3.832,3.832,0,0,0-.56,1.87Z" transform="translate(-122.32 -43.291)" opacity="0.2"/><path d="M159.977,39.915c-.22-.807-.956-1.062-1.834-.56l-28.331,16.29a3.8,3.8,0,0,0-1.339,1.417l-5.333-3.081a3.846,3.846,0,0,1,1.332-1.417L152.8,36.275a4.25,4.25,0,0,1,3.8,0l1.544.892A4.172,4.172,0,0,1,159.977,39.915Z" transform="translate(-122.559 -35.818)" fill="#fff" opacity="0.4"/><path d="M136.587,72.719l11.594-6.629c.63-.368,1.147-.2,1.147.375a2.309,2.309,0,0,1-1.147,1.7l-11.594,6.629c-.63.368-1.147.2-1.147-.375a2.309,2.309,0,0,1,1.147-1.7Z" transform="translate(-126.148 -44.59)" fill="#fff"/><path d="M136.587,78.174,156.157,66.92c.63-.368,1.147-.2,1.147.375a2.309,2.309,0,0,1-1.147,1.7L136.587,80.249c-.63.368-1.147.2-1.147-.375A2.3,2.3,0,0,1,136.587,78.174Z" transform="translate(-126.148 -44.832)" fill="#fff"/><path d="M136.587,63.075,156.157,51.8c.63-.368,1.147-.2,1.147.368a2.323,2.323,0,0,1-1.147,1.707L136.587,65.15c-.63.368-1.147.205-1.147-.368A2.323,2.323,0,0,1,136.587,63.075Z" transform="translate(-126.148 -40.421)" fill="#fff"/><g transform="translate(145.124 0)"><path d="M357.18,94.976l3.924-2.266a.376.376,0,0,0,.184-.163L362,91.286l-2.33-1.346.071.205Z" transform="translate(-335.96 -51.605)" fill="#1565c0"/><path d="M357.18,94.976l3.924-2.266a.376.376,0,0,0,.184-.163L362,91.286l-2.33-1.346.071.205Z" transform="translate(-335.96 -51.605)" fill="#263238"/><path d="M358.634,88.708l-2.713,4.71a.411.411,0,0,1-.708-.071L352.38,85.06Z" transform="translate(-334.287 -50.181)" fill="#26aab7"/><path d="M327.22,40.451a4.186,4.186,0,0,1,1.9-3.286l1.544-.892a4.172,4.172,0,0,1,3.8,0l28.331,16.29a4.186,4.186,0,0,1,1.9,3.286V73.739a4.2,4.2,0,0,1-1.884,3.286l-1.544.892a4.25,4.25,0,0,1-3.8,0l-28.522-16.4a2.941,2.941,0,0,1-1.721-3.159Z" transform="translate(-327.22 -35.815)" fill="#26aab7"/><path d="M377.293,81.215a4.2,4.2,0,0,1-1.9,3.286l-1.544.892a4.25,4.25,0,0,1-3.471.156c.892.34,1.572-.17,1.572-1.254V66.391a3.853,3.853,0,0,0-.56-1.87l5.34-3.081a3.832,3.832,0,0,1,.56,1.87Z" transform="translate(-340.384 -43.291)" fill="#263238" opacity="0.69"/><path d="M327.31,39.915c.22-.807.956-1.062,1.834-.56l28.331,16.29a3.8,3.8,0,0,1,1.339,1.417l5.34-3.081a3.861,3.861,0,0,0-1.339-1.417l-28.331-16.29a4.25,4.25,0,0,0-3.8,0l-1.544.892a4.172,4.172,0,0,0-1.827,2.748Z" transform="translate(-327.246 -35.818)" fill="#007e8a"/><path d="M347.295,65.469,335.707,58.84c-.63-.368-1.147-.2-1.147.368a2.323,2.323,0,0,0,1.147,1.707l11.587,6.629c.637.368,1.154.2,1.154-.375A2.288,2.288,0,0,0,347.295,65.469Z" transform="translate(-329.361 -42.475)" fill="#dee4f0"/><path d="M355.407,77.364,335.837,66.081c-.63-.361-1.147-.2-1.147.375a2.323,2.323,0,0,0,1.147,1.707l19.569,11.261c.63.368,1.147.2,1.147-.375a2.309,2.309,0,0,0-1.147-1.686Z" transform="translate(-329.399 -44.589)" fill="#f3f9ff"/><path d="M355.407,62.275,335.837,51c-.63-.368-1.147-.2-1.147.375a2.309,2.309,0,0,0,1.147,1.7l19.569,11.283c.63.368,1.147.2,1.147-.375A2.309,2.309,0,0,0,355.407,62.275Z" transform="translate(-329.399 -40.188)" fill="#f3f9ff"/></g></g></g></svg>