<svg xmlns="http://www.w3.org/2000/svg" width="326.846" height="315.262" viewBox="0 0 326.846 315.262">
  <g id="Conference_speaker-amico" data-name="Conference speaker-amico" transform="translate(-21.44 -49.06)">
    <g id="freepik--Floor--inject-87" transform="translate(21.44 171.77)">
      <ellipse id="Elipse_4771" data-name="Elipse 4771" cx="163.423" cy="96.276" rx="163.423" ry="96.276" transform="translate(0 0)" fill="#727997" opacity="0.1"/>
    </g>
    <g id="freepik--Shadows--inject-87" transform="translate(56.147 238.037)" opacity="0.35">
      <ellipse id="Elipse_4772" data-name="Elipse 4772" cx="20.607" cy="12.141" rx="20.607" ry="12.141" transform="translate(108.803 95.976)" fill="#727997"/>
      <ellipse id="Elipse_4773" data-name="Elipse 4773" cx="20.607" cy="12.141" rx="20.607" ry="12.141" transform="translate(0 25.118)" fill="#727997"/>
      <ellipse id="Elipse_4774" data-name="Elipse 4774" cx="15.072" cy="8.88" rx="15.072" ry="8.88" transform="translate(195.706 70.707)" fill="#727997"/>
      <ellipse id="Elipse_4775" data-name="Elipse 4775" cx="15.072" cy="8.88" rx="15.072" ry="8.88" transform="translate(42.779)" fill="#727997"/>
      <path id="Trazado_125924" data-name="Trazado 125924" d="M286.2,364.363l-56.028-32.347a11.676,11.676,0,0,0-11.683,0l-54.484,31.525a2.717,2.717,0,0,0,0,4.7l56.028,32.347a11.676,11.676,0,0,0,11.683,0L286.2,369.06a2.71,2.71,0,0,0,0-4.7Z" transform="translate(-96.39 -318.23)" fill="#727997"/>
    </g>
    <g id="freepik--Flags--inject-87" transform="translate(111.324 49.06)">
      <path id="Trazado_125934" data-name="Trazado 125934" d="M149.831,51.119a3.718,3.718,0,0,1-1.823-.443,1.48,1.48,0,0,1-.858-1.258.358.358,0,0,1,.358-.358.365.365,0,0,1,.357.358.837.837,0,0,0,.5.644,3.31,3.31,0,0,0,2.924,0,.837.837,0,0,0,.5-.644.358.358,0,1,1,.715,0,1.494,1.494,0,0,1-.858,1.258,3.711,3.711,0,0,1-1.816.443Z" transform="translate(-147.15 -49.06)" fill="#26aab7"/>
      <path id="Trazado_125935" data-name="Trazado 125935" d="M149.824,117.179a3.711,3.711,0,0,1-1.816-.443,1.48,1.48,0,0,1-.858-1.258.358.358,0,0,1,.715,0c0,.222.179.45.5.636a3.289,3.289,0,0,0,2.924,0c.322-.186.5-.415.5-.636a.358.358,0,0,1,.715,0,1.494,1.494,0,0,1-.858,1.258A3.718,3.718,0,0,1,149.824,117.179Z" transform="translate(-147.15 -67.886)" fill="#26aab7"/>
      <ellipse id="Elipse_4776" data-name="Elipse 4776" cx="1.995" cy="1.151" rx="1.995" ry="1.151" transform="translate(153.606 51.574)" fill="#455a64"/>
      <path id="Trazado_125944" data-name="Trazado 125944" d="M363.741,150.179a3.739,3.739,0,0,1-1.823-.443,1.494,1.494,0,0,1-.858-1.258.357.357,0,1,1,.715,0,.837.837,0,0,0,.5.636,3.289,3.289,0,0,0,2.924,0,.815.815,0,0,0,.5-.636.357.357,0,1,1,.715,0,1.48,1.48,0,0,1-.858,1.258,3.711,3.711,0,0,1-1.816.443Z" transform="translate(-208.112 -77.291)" fill="#26aab7"/>
      <path id="Trazado_125945" data-name="Trazado 125945" d="M363.741,216.182a3.661,3.661,0,0,1-1.823-.443,1.487,1.487,0,0,1-.858-1.251.357.357,0,1,1,.715,0c0,.222.186.45.5.636a3.289,3.289,0,0,0,2.924,0c.322-.186.5-.415.5-.636a.358.358,0,1,1,.715,0,1.473,1.473,0,0,1-.858,1.251,3.633,3.633,0,0,1-1.816.443Z" transform="translate(-208.112 -96.103)" fill="#26aab7"/>
    </g>
    <g id="freepik--Character--inject-87" transform="translate(122.378 50.447)">
      <path id="Trazado_125946" data-name="Trazado 125946" d="M181.586,83.571h0a5.72,5.72,0,0,1-2.1-4.068c-.157-2.317-.357-5.527-.357-6.263,0-1.173,0-3.8-1.673-3.053s-2.224,4.676-2.074,6.936c0,0-8.444-9.023-9.445-9.917s-2.481-1.08-2.9,0,.758,3.046,4.776,8.158a2.526,2.526,0,0,0-2.574,2.5A2.4,2.4,0,0,0,163.89,81.2s-2.474,1.158-.543,3.925,12.413,7.243,12.413,7.243Z" transform="translate(-162.61 -55.407)" fill="#ffa8a7"/>
      <path id="Trazado_125947" data-name="Trazado 125947" d="M186.616,89.43s-6.249,7.465-7.686,10.84l19.977,14.257a14.164,14.164,0,0,0,10.618,2.438l23.8-4.026,8.08-16.181h-2.767a22.358,22.358,0,0,0-4.3.416l-27.165,5.362Z" transform="translate(-167.261 -61.952)" fill="#37474f"/>
      <path id="Trazado_125948" data-name="Trazado 125948" d="M254.209,344.68h3.117s1.552.894,1.43,3.575.329,6.549.386,8.237-2.245,3.239-5.72,2.939-6.65-.586-9.066.715-8.323,4.783-13.743,1.208-3.06-6.163-2.4-6.128,10.06-2.5,12.792-4.54,7.1-5.8,7.1-5.8Z" transform="translate(-180.998 -134.696)" fill="#263238"/>
      <path id="Trazado_125949" data-name="Trazado 125949" d="M256.45,336.09v8.451s1.08,1.687,4.676,1.237,4.519-2.1,4.519-2.1V336.09Z" transform="translate(-189.353 -132.247)" fill="#ffa8a7"/>
      <path id="Trazado_125950" data-name="Trazado 125950" d="M300.793,361.577s4.083-.45,4.426,2.059,1.022,8.151-.114,9.567-4.29,4.2-5.127,5.634-5.005,8.487-12.284,9.109-8.859-5.4-6.435-7.429,8.809-6.349,10.239-10.361a44.843,44.843,0,0,1,3.518-7.379Z" transform="translate(-196.122 -139.502)" fill="#263238"/>
      <path id="Trazado_125951" data-name="Trazado 125951" d="M300.42,355.28l.493,7.722s3.246,3.861,8.58-.644a1.616,1.616,0,0,0,.579-1.344L309.629,354Z" transform="translate(-201.884 -137.352)" fill="#ffa8a7"/>
      <path id="Trazado_125952" data-name="Trazado 125952" d="M250.768,191.25,249.71,249.7l2.052,49.193s6.8,3.439,15.852,0l3.039-48.378,3.832-55.542Z" transform="translate(-187.432 -90.97)" fill="#37474f"/>
      <path id="Trazado_125953" data-name="Trazado 125953" d="M277.15,233.53l1.3,29.037,2-29.037Z" transform="translate(-195.252 -103.019)" fill="#263238"/>
      <path id="Trazado_125954" data-name="Trazado 125954" d="M276.724,230.2l1.194-17.318-13.128-.265C264.247,211.915,265.627,221.754,276.724,230.2Z" transform="translate(-191.702 -97.049)" fill="#263238"/>
      <path id="Trazado_125955" data-name="Trazado 125955" d="M257.53,200.8s3.075,14.186,15.852,19.792l3.075,43.358a14.2,14.2,0,0,0,.229,1.745l9.538,48.685s5.1,4.583,14.172,0l-.343-40.992a45.088,45.088,0,0,0-2.6-14.715h0l-.98-57.873Z" transform="translate(-189.661 -93.691)" fill="#37474f"/>
      <path id="Trazado_125956" data-name="Trazado 125956" d="M261.76,171.006s3.575,10.911,22,7.071v-61.2h-22Z" transform="translate(-190.866 -69.775)" fill="#f0f0f0"/>
      <path id="Trazado_125957" data-name="Trazado 125957" d="M262.408,58.2s-7.379,2.967-3.439,14.415Z" transform="translate(-189.741 -53.052)" fill="#263238"/>
      <path id="Trazado_125958" data-name="Trazado 125958" d="M270.53,116.05l1.008,5.22,2.431.844,5.942-4.455Z" transform="translate(-193.366 -69.539)" fill="#744304"/>
      <path id="Trazado_125959" data-name="Trazado 125959" d="M288.042,89.43v11.848s-7.343,10.139-13.292,10.139V96.273Z" transform="translate(-194.568 -61.952)" fill="#ffa8a7"/>
      <path id="Trazado_125960" data-name="Trazado 125960" d="M274.75,100.783c4.462-1.43,9.073-4.4,10.518-8.266a12.863,12.863,0,0,0,.422-1.387l-10.94,5.627Z" transform="translate(-194.568 -62.437)" fill="#f28f8f"/>
      <path id="Trazado_125961" data-name="Trazado 125961" d="M270.877,114.381l.036-14.222s-2.309-.593-3.318.143-6.435,15.9-6.435,15.9,5.456-3.468,6.435-3.711,3.318,2.553,3.318,2.553Z" transform="translate(-190.695 -64.946)" fill="#e0e0e0"/>
      <path id="Trazado_125962" data-name="Trazado 125962" d="M264.858,100.378s-5.72,10.933-5.72,19.927v60.311s-7.15.114-10.968-5.155V120.656c0-5.005,2.7-17.3,12.949-20.936Z" transform="translate(-186.993 -64.885)" fill="#455a64"/>
      <path id="Trazado_125963" data-name="Trazado 125963" d="M264.146,99.93l-6.936,8.022a1.58,1.58,0,0,0-.279,1.63l1.916,4.869-3.268,5.456a2.531,2.531,0,0,0-.2,2.145l5.8,15.623v-17.31c0-8.995,5.72-19.927,5.72-19.927Z" transform="translate(-189.005 -64.945)" fill="#37474f"/>
      <path id="Trazado_125964" data-name="Trazado 125964" d="M271.5,58.68c-3.89,0-11.269,1.609-11.9,10.539s-.243,20.02,7.229,20.657c5.191.436,14.643-3.353,16.839-9.209S285.617,58.68,271.5,58.68Z" transform="translate(-190.191 -53.189)" fill="#ffa8a7"/>
      <path id="Trazado_125965" data-name="Trazado 125965" d="M282.6,74.066s-2.145-1.366-1.48-5.97-1.43-6.364-3.232-6.306-12.563,2.467-16.567-2S258.766,51,263.706,51c3.01,0,5.9,2.224,10.446,2.309s11.669-.622,12.155,6.771c0,0,4.34-1.187,2.96,7.1s-3.268,13.9-5.763,15.666V76.5Z" transform="translate(-190.081 -51)" fill="#263238"/>
      <path id="Trazado_125966" data-name="Trazado 125966" d="M292,81.57s.944-4.24,4.118-4.24,3.11,3.268,2.71,5.448-1.988,4.29-4.1,4.29A2.9,2.9,0,0,1,292,85.124Z" transform="translate(-199.484 -58.504)" fill="#ffa8a7"/>
      <path id="Trazado_125967" data-name="Trazado 125967" d="M296.644,63.038l3.232-2.009s-1.616-1.359-2.56-.372A2.91,2.91,0,0,0,296.644,63.038Z" transform="translate(-200.797 -53.65)" fill="#263238"/>
      <path id="Trazado_125968" data-name="Trazado 125968" d="M269.231,80.13v6.421l-3.761-1.158Z" transform="translate(-191.924 -59.302)" fill="#f28f8f"/>
      <path id="Trazado_125969" data-name="Trazado 125969" d="M277.367,81.158a1.308,1.308,0,1,1-1.308-1.308,1.309,1.309,0,0,1,1.308,1.308Z" transform="translate(-194.568 -59.222)" fill="#263238"/>
      <path id="Trazado_125970" data-name="Trazado 125970" d="M265.327,79.878a1.308,1.308,0,1,1-1.308-1.308A1.308,1.308,0,0,1,265.327,79.878Z" transform="translate(-191.137 -58.857)" fill="#263238"/>
      <path id="Trazado_125971" data-name="Trazado 125971" d="M262.29,75.745l2.553-1.516s-.98-1.022-1.959-.408A1.771,1.771,0,0,0,262.29,75.745Z" transform="translate(-190.996 -57.448)" fill="#263238"/>
      <path id="Trazado_125972" data-name="Trazado 125972" d="M277.53,75.842l2.31,1.873s.615-1.273-.293-1.981A1.784,1.784,0,0,0,277.53,75.842Z" transform="translate(-195.361 -57.967)" fill="#263238"/>
      <path id="Trazado_125973" data-name="Trazado 125973" d="M268.25,92.374a5.613,5.613,0,0,0,3.525-.944s.243,1.852-1.316,2.209A2.006,2.006,0,0,1,268.25,92.374Z" transform="translate(-192.716 -62.522)" fill="#f28f8f"/>
      <path id="Trazado_125974" data-name="Trazado 125974" d="M274.75,114.928s9.209-4.59,13.292-10.139V101.85h.079a4.369,4.369,0,0,1,2.7,2.36l1.888,4.111-8.316,13.821s-4.476-7.865-6.056-7.772a10.368,10.368,0,0,0-3.575,1.2Z" transform="translate(-194.568 -65.492)" fill="#e0e0e0"/>
      <path id="Trazado_125975" data-name="Trazado 125975" d="M294.276,108.43l-10.811,18.5a2.3,2.3,0,0,0-.315,1.165v57.322s11.919,5.255,21.55-2.66V124.389l1.43-7.8S298.122,110.2,294.276,108.43Z" transform="translate(-196.962 -67.367)" fill="#455a64"/>
      <path id="Trazado_125976" data-name="Trazado 125976" d="M296.871,109.015l-3.1-2.145.036.072a2.145,2.145,0,0,1-.1,1.995l-10.246,17.546a2.3,2.3,0,0,0-.315,1.165v17.832l7.865-12.591a2.145,2.145,0,0,0,.086-2.145l-2.545-4.876,6.664-3.854a2.145,2.145,0,0,0,1.058-1.659l.965-10.582A.844.844,0,0,0,296.871,109.015Z" transform="translate(-196.962 -66.922)" fill="#37474f"/>
      <path id="Trazado_125977" data-name="Trazado 125977" d="M268.38,128.35s-2.524,26.455-2.431,36.887l4.133,8.087,5.177-5.72-3.067-37.9Z" transform="translate(-192.059 -73.044)" fill="#e47f00"/>
      <path id="Trazado_125978" data-name="Trazado 125978" d="M269.64,119.674s4.762.715,6.578,1.78c1.487.844-1.337,4.161-2.424,5.348a1.38,1.38,0,0,1-1.03.458c-1.08,0-3.3-.172-4.44-1.48C267.66,125.023,267.8,119.338,269.64,119.674Z" transform="translate(-192.633 -70.567)" fill="#b66600"/>
      <path id="Trazado_125979" data-name="Trazado 125979" d="M224.938,217.409,173.75,187.858l29.48-17.468,51.188,29.551Z" transform="translate(-165.785 -85.025)" fill="#669bd6"/>
      <path id="Trazado_125981" data-name="Trazado 125981" d="M236.688,217.409,214.98,170.39l51.188,29.551Z" transform="translate(-177.535 -85.025)" opacity="0.3"/>
      <path id="Trazado_125982" data-name="Trazado 125982" d="M235.236,118.256c-1.63-1.573-2.145-3.7-.107-5.806s5.005-2.531,6.621-.958,1.323,4.547-.715,6.65S236.874,119.829,235.236,118.256Z" transform="translate(-182.897 -67.969)" fill="#f1ad57"/>
      <path id="Trazado_125984" data-name="Trazado 125984" d="M235.455,117.736c.422-.408,2.145.086,1.645,1.666,0,0-2.5,3.239-3.818,5.212-.3.45-2.617-.4-1.809-1.845A25.1,25.1,0,0,1,235.455,117.736Z" transform="translate(-182.186 -69.98)" fill="#fb8c00"/>
      <path id="Trazado_125985" data-name="Trazado 125985" d="M223,153.573h0a.558.558,0,0,1-.551-.572c.265-17.546,6.614-26.892,6.886-27.278a.56.56,0,1,1,.922.636c-.064.093-6.435,9.481-6.685,26.663a.55.55,0,0,1-.572.551Z" transform="translate(-179.663 -72.226)" fill="#26aab7"/>
      <g id="Grupo_72133" data-name="Grupo 72133" transform="translate(42.786 53.255)" opacity="0.5">
        <path id="Trazado_125986" data-name="Trazado 125986" d="M223,153.573h0a.558.558,0,0,1-.551-.572c.265-17.546,6.614-26.892,6.886-27.278a.56.56,0,1,1,.922.636c-.064.093-6.435,9.481-6.685,26.663a.55.55,0,0,1-.572.551Z" transform="translate(-222.45 -125.481)"/>
      </g>
      <path id="Trazado_125987" data-name="Trazado 125987" d="M177.74,177.248,207.1,160.2v-2.8a5.5,5.5,0,0,0-7.214-5.22l-12.663,4.169s-7.029,1.609-7.029-6.635l-2.445,1.351Z" transform="translate(-166.922 -79.134)" fill="#26aab7"/>
      <path id="Trazado_125988" data-name="Trazado 125988" d="M177.74,177.248,207.1,160.2v-2.8a5.5,5.5,0,0,0-7.214-5.22l-12.663,4.169s-7.029,1.609-7.029-6.635l-2.445,1.351Z" transform="translate(-166.922 -79.134)" opacity="0.3"/>
      <path id="Trazado_125989" data-name="Trazado 125989" d="M188.962,156.914l12.67-4.176a5.463,5.463,0,0,1,4.061.257,5.463,5.463,0,0,0-5.277-1.037l-12.663,4.176a6.907,6.907,0,0,1-3.9-.386A6.189,6.189,0,0,0,188.962,156.914Z" transform="translate(-168.663 -79.693)" fill="#26aab7"/>
      <g id="Grupo_72134" data-name="Grupo 72134" transform="translate(15.187 71.988)" opacity="0.5">
        <path id="Trazado_125990" data-name="Trazado 125990" d="M188.962,156.914l12.67-4.176a5.463,5.463,0,0,1,4.061.257,5.463,5.463,0,0,0-5.277-1.037l-12.663,4.176a6.907,6.907,0,0,1-3.9-.386A6.189,6.189,0,0,0,188.962,156.914Z" transform="translate(-183.85 -151.681)"/>
      </g>
      <path id="Trazado_125991" data-name="Trazado 125991" d="M208.241,164.38l41.106,23.931-26.284,15.38L181.75,180.446Z" transform="translate(-168.064 -83.312)" fill="#5690d1"/>
      <path id="Trazado_125993" data-name="Trazado 125993" d="M225.555,213.473,183.72,189.32v4.655l41.835,24.153Z" transform="translate(-168.626 -90.42)" fill="#1565c0"/>
      <path id="Trazado_125994" data-name="Trazado 125994" d="M225.555,213.473,183.72,189.32v4.655l41.835,24.153Z" transform="translate(-168.626 -90.42)" opacity="0.3"/>
      <path id="Trazado_125995" data-name="Trazado 125995" d="M242.23,217.414,266.5,203.15V207.8L242.23,222.069Z" transform="translate(-185.301 -94.361)" fill="#26aab7"/>
      <path id="Trazado_125996" data-name="Trazado 125996" d="M242.23,217.414,266.5,203.15V207.8L242.23,222.069Z" transform="translate(-185.301 -94.361)" opacity="0.5"/>
      <path id="Trazado_125997" data-name="Trazado 125997" d="M180.957,144.71l-7.207,4.369v25.2l51.309,29.737V177.844l-7.172-11.261Z" transform="translate(-165.785 -77.706)" fill="#1565c0"/>
      <path id="Trazado_125998" data-name="Trazado 125998" d="M183.83,144.171l2.445-1.351,36.937,21.872-2.452,1.351Z" transform="translate(-168.657 -77.168)" fill="#1565c0"/>
      <path id="Trazado_125999" data-name="Trazado 125999" d="M183.83,144.171l2.445-1.351,36.937,21.872-2.452,1.351Z" transform="translate(-168.736 -77.168)" opacity="0.1"/>
      <path id="Trazado_126000" data-name="Trazado 126000" d="M235.48,174.761l2.452-1.351,7.164,11.261-2.445,1.351Z" transform="translate(-183.377 -85.885)" fill="#26aab7"/>
      <path id="Trazado_126001" data-name="Trazado 126001" d="M235.48,174.761l2.452-1.351,7.164,11.261-2.445,1.351Z" transform="translate(-183.377 -85.885)" opacity="0.3"/>
      <path id="Trazado_126002" data-name="Trazado 126002" d="M245.51,216.681l29.358-17.046v-2.789a5.5,5.5,0,0,0-7.214-5.227l-12.67,4.176s-7.029,1.616-7.029-6.635l-2.445,1.351Z" transform="translate(-186.235 -90.374)" fill="#1565c0"/>
      <path id="Trazado_126003" data-name="Trazado 126003" d="M245.51,216.681l29.358-17.046v-2.789a5.5,5.5,0,0,0-7.214-5.227l-12.67,4.176s-7.029,1.616-7.029-6.635l-2.445,1.351Z" transform="translate(-186.236 -90.374)" opacity="0.3"/>
      <path id="Trazado_126004" data-name="Trazado 126004" d="M256.722,196.354l12.67-4.176a5.463,5.463,0,0,1,4.061.257,5.463,5.463,0,0,0-5.277-1.037l-12.663,4.176a6.836,6.836,0,0,1-3.9-.386A6.281,6.281,0,0,0,256.722,196.354Z" transform="translate(-187.974 -90.933)" fill="#26aab7"/>
      <g id="Grupo_72135" data-name="Grupo 72135" transform="translate(63.636 100.188)" opacity="0.5">
        <path id="Trazado_126005" data-name="Trazado 126005" d="M256.722,196.354l12.67-4.176a5.463,5.463,0,0,1,4.061.257,5.463,5.463,0,0,0-5.277-1.037l-12.663,4.176a6.836,6.836,0,0,1-3.9-.386A6.281,6.281,0,0,0,256.722,196.354Z" transform="translate(-251.61 -191.121)"/>
      </g>
      <path id="Trazado_126006" data-name="Trazado 126006" d="M173.75,194.82V329.156l51.188,29.551V224.371Z" transform="translate(-165.785 -91.987)" fill="#1565c0"/>
      <path id="Trazado_126008" data-name="Trazado 126008" d="M217.026,245.643l-6.464-11.2.021-.014L193.2,224.4l.021.036-6.464,3.732v93.416l6.464,11.2,17.339,10.01,6.464-3.732Z" transform="translate(-170.891 -100.417)" fill="#12263f" opacity="0.28"/>
      <path id="Trazado_126009" data-name="Trazado 126009" d="M274.82,211.72v33.756h0A29.315,29.315,0,0,0,260.6,270.594v83.921L245.34,363.5V229.188Z" transform="translate(-186.187 -96.803)" fill="#1565c0"/>
      <path id="Trazado_126010" data-name="Trazado 126010" d="M274.82,211.72v33.756h0A29.315,29.315,0,0,0,260.6,270.594v83.921L245.34,363.5V229.188Z" transform="translate(-186.187 -96.803)" opacity="0.3"/>
      <path id="Trazado_126011" data-name="Trazado 126011" d="M283.139,197.42s-5.427,3.246-7.479,4.433-3,1.952-2.588,3.146,3.775.651,6.235-.1c0,0-4.333,3.361-7.543,5.405s-3.16,3.225-1.909,4.455,6.435,3.3,10.053,2.088,7.236-4.476,10.983-11.2C290.889,205.643,290.11,197.6,283.139,197.42Z" transform="translate(-192.947 -92.728)" fill="#ffa8a7"/>
      <path id="Trazado_126012" data-name="Trazado 126012" d="M307.387,119.84s-10.868,7.808-4.969,22.959l5.892,15.144-20.7,17.339s7.15,2.86,8.673,9.045L318.227,168.3a12.112,12.112,0,0,0,4.362-13.585C318.742,143.049,311.663,123.079,307.387,119.84Z" transform="translate(-198.233 -70.619)" fill="#37474f"/>
    </g>
    <g id="freepik--Plants--inject-87" transform="translate(50.377 207.764)">
      <path id="Trazado_126013" data-name="Trazado 126013" d="M96.2,315.408s-10.411-10.167-4.483-27.17c3.318-9.545,14.3-16.56,20.592-17.217a29.236,29.236,0,0,0-4.9,8.258l-7.865,5.248,7.257-2.274-1.544,6.213s-6.75,4.076-7.751,4.969l7.272-1.9S104.2,309.087,96.2,315.408Z" transform="translate(-69.883 -271.02)" fill="#26aab7"/>
      <path id="Trazado_126014" data-name="Trazado 126014" d="M96.2,315.408s-10.411-10.167-4.483-27.17c3.318-9.545,14.3-16.56,20.592-17.217a29.236,29.236,0,0,0-4.9,8.258l-7.865,5.248,7.257-2.274-1.544,6.213s-6.75,4.076-7.751,4.969l7.272-1.9S104.2,309.087,96.2,315.408Z" transform="translate(-69.883 -271.02)" opacity="0.4"/>
      <path id="Trazado_126015" data-name="Trazado 126015" d="M97.731,319.674S92.34,298.4,100.319,285.99C100.319,286,90.967,296.937,97.731,319.674Z" transform="translate(-71.419 -275.286)" fill="#fff"/>
      <path id="Trazado_126016" data-name="Trazado 126016" d="M105.172,337.064,92.43,336.9H92.3l-12.741.164s-.143,15.695,4.69,22.08h0c1.337,1.695,4.469,2.86,8.115,2.86s6.785-1.194,8.115-2.9C105.315,352.745,105.172,337.064,105.172,337.064Z" transform="translate(-66.94 -289.795)" fill="#37474f"/>
      <ellipse id="Elipse_4777" data-name="Elipse 4777" cx="12.806" cy="6.871" rx="12.806" ry="6.871" transform="translate(12.62 40.398)" fill="#455a64"/>
      <path id="Trazado_126017" data-name="Trazado 126017" d="M93.5,333.346c4.4,0,8.137,1.43,9.452,3.368a2.746,2.746,0,0,0,.508-1.544c0-2.717-4.462-4.919-9.96-4.919s-9.96,2.2-9.96,4.919a2.8,2.8,0,0,0,.508,1.544C85.363,334.755,89.1,333.346,93.5,333.346Z" transform="translate(-68.074 -287.9)" fill="#263238"/>
      <path id="Trazado_126018" data-name="Trazado 126018" d="M93.7,334.58c-4.4,0-8.137,1.43-9.452,3.368,1.316,1.938,5.048,3.368,9.452,3.368s8.137-1.43,9.452-3.368C101.839,335.989,98.107,334.58,93.7,334.58Z" transform="translate(-68.277 -289.134)" fill="#e0e0e0"/>
      <path id="Trazado_126019" data-name="Trazado 126019" d="M87.493,327.348s-4.934-.193-9.166-6.75c-1.745-2.7-2.588-4.118-2.588-4.118l6.878-.515-7.708-1.923-3.639-5.57L77.7,308a31.687,31.687,0,0,0-8.165-1.695s-5.9-10.418-7.629-11.9a33.456,33.456,0,0,1,23.3,11.576C94.865,317.445,88.93,327.641,87.493,327.348Z" transform="translate(-61.91 -277.683)" fill="#26aab7"/>
      <path id="Trazado_126020" data-name="Trazado 126020" d="M91.07,328.613s3.089-18.59-16.61-29.773C74.46,298.84,94.9,308.657,91.07,328.613Z" transform="translate(-65.487 -278.948)" fill="#fff"/>
      <path id="Trazado_126021" data-name="Trazado 126021" d="M96.841,329.588s4.469.293,8.909-5.227c1.823-2.274,2.717-3.475,2.717-3.475l-6.149-1.108,7.15-1.015,3.8-4.676-5.72-1.03a28.732,28.732,0,0,1,7.522-.758s6.306-8.845,8-10.01a30.345,30.345,0,0,0-22.115,8.251C91.114,319.95,95.518,329.717,96.841,329.588Z" transform="translate(-71.258 -279.924)" fill="#26aab7"/>
      <path id="Trazado_126022" data-name="Trazado 126022" d="M96.841,329.588s4.469.293,8.909-5.227c1.823-2.274,2.717-3.475,2.717-3.475l-6.149-1.108,7.15-1.015,3.8-4.676-5.72-1.03a28.732,28.732,0,0,1,7.522-.758s6.306-8.845,8-10.01a30.345,30.345,0,0,0-22.115,8.251C91.114,319.95,95.518,329.717,96.841,329.588Z" transform="translate(-71.258 -279.924)" opacity="0.2"/>
      <path id="Trazado_126023" data-name="Trazado 126023" d="M97.653,330.4s-1.037-17.067,17.789-25.3C115.443,305.1,96.073,312.036,97.653,330.4Z" transform="translate(-72.07 -280.732)" fill="#fff"/>
      <path id="Trazado_126024" data-name="Trazado 126024" d="M249.7,419s-10.411-10.167-4.49-27.17c3.325-9.553,14.3-16.56,20.592-17.217a29.421,29.421,0,0,0-4.9,8.258l-7.865,5.248,7.229-2.3-1.544,6.235s-6.75,4.083-7.744,5.005l7.272-1.9S257.7,412.677,249.7,419Z" transform="translate(-113.631 -300.542)" fill="#26aab7"/>
      <path id="Trazado_126025" data-name="Trazado 126025" d="M249.7,419s-10.411-10.167-4.49-27.17c3.325-9.553,14.3-16.56,20.592-17.217a29.421,29.421,0,0,0-4.9,8.258l-7.865,5.248,7.229-2.3-1.544,6.235s-6.75,4.083-7.744,5.005l7.272-1.9S257.7,412.677,249.7,419Z" transform="translate(-113.631 -300.542)" opacity="0.4"/>
      <path id="Trazado_126026" data-name="Trazado 126026" d="M251.241,423.261s-5.391-21.279,2.581-33.691C253.822,389.57,244.477,400.524,251.241,423.261Z" transform="translate(-115.167 -304.805)" fill="#fff"/>
      <path id="Trazado_126027" data-name="Trazado 126027" d="M258.674,440.654l-12.734-.164H245.8l-12.734.164s-.143,15.695,4.69,22.08h0c1.337,1.695,4.462,2.86,8.108,2.86s6.793-1.194,8.123-2.9C258.817,456.335,258.674,440.654,258.674,440.654Z" transform="translate(-110.689 -319.317)" fill="#37474f"/>
      <ellipse id="Elipse_4778" data-name="Elipse 4778" cx="12.806" cy="6.871" rx="12.806" ry="6.871" transform="translate(122.374 114.466)" fill="#455a64"/>
      <path id="Trazado_126028" data-name="Trazado 126028" d="M247.01,436.936c4.412,0,8.137,1.43,9.452,3.368a2.753,2.753,0,0,0,.515-1.544c0-2.717-4.462-4.919-9.967-4.919s-10.01,2.2-10.01,4.919a2.753,2.753,0,0,0,.515,1.544C238.859,438.345,242.584,436.936,247.01,436.936Z" transform="translate(-111.809 -317.422)" fill="#263238"/>
      <path id="Trazado_126029" data-name="Trazado 126029" d="M247.235,438.17c-4.4,0-8.13,1.43-9.445,3.368,1.316,1.959,5.041,3.368,9.445,3.368s8.137-1.43,9.452-3.368C255.351,439.579,251.625,438.17,247.235,438.17Z" transform="translate(-112.034 -318.656)" fill="#e0e0e0"/>
      <path id="Trazado_126030" data-name="Trazado 126030" d="M240.982,430.938s-4.934-.193-9.166-6.75c-1.745-2.7-2.588-4.118-2.588-4.118l6.878-.515-7.7-1.923-3.639-5.57,6.392-.479a31.727,31.727,0,0,0-8.165-1.687s-5.9-10.418-7.622-11.9A33.455,33.455,0,0,1,238.7,409.566C248.368,421.035,242.426,431.231,240.982,430.938Z" transform="translate(-105.644 -307.205)" fill="#26aab7"/>
      <path id="Trazado_126031" data-name="Trazado 126031" d="M240.982,430.938s-4.934-.193-9.166-6.75c-1.745-2.7-2.588-4.118-2.588-4.118l6.878-.515-7.7-1.923-3.639-5.57,6.392-.479a31.727,31.727,0,0,0-8.165-1.687s-5.9-10.418-7.622-11.9A33.455,33.455,0,0,1,238.7,409.566C248.368,421.035,242.426,431.231,240.982,430.938Z" transform="translate(-105.644 -307.205)" fill="#fff" opacity="0.3"/>
      <path id="Trazado_126032" data-name="Trazado 126032" d="M244.57,432.2s3.089-18.59-16.61-29.773C227.989,402.43,248.4,412.247,244.57,432.2Z" transform="translate(-109.232 -308.47)" fill="#fff"/>
      <path id="Trazado_126033" data-name="Trazado 126033" d="M250.342,433.178s4.476.286,8.909-5.227c1.83-2.274,2.724-3.475,2.724-3.475l-6.156-1.108,7.15-1.015,3.811-4.676-5.72-1.037a28.886,28.886,0,0,1,7.529-.751s6.3-8.852,8-10.01a30.331,30.331,0,0,0-22.115,8.251C244.615,423.547,249.019,433.307,250.342,433.178Z" transform="translate(-115.005 -309.446)" fill="#26aab7"/>
      <path id="Trazado_126034" data-name="Trazado 126034" d="M250.342,433.178s4.476.286,8.909-5.227c1.83-2.274,2.724-3.475,2.724-3.475l-6.156-1.108,7.15-1.015,3.811-4.676-5.72-1.037a28.886,28.886,0,0,1,7.529-.751s6.3-8.852,8-10.01a30.331,30.331,0,0,0-22.115,8.251C244.615,423.547,249.019,433.307,250.342,433.178Z" transform="translate(-115.005 -309.446)" opacity="0.2"/>
      <path id="Trazado_126035" data-name="Trazado 126035" d="M251.154,433.987s-1.03-17.067,17.789-25.3C268.944,408.69,249.588,415.618,251.154,433.987Z" transform="translate(-115.817 -310.254)" fill="#fff"/>
    </g>
  </g>
</svg>
