<svg xmlns="http://www.w3.org/2000/svg" width="324.205" height="319.905" viewBox="0 0 324.205 319.905">
  <g id="Calling-amico" transform="translate(-29.626 -43.281)">
    <g id="freepik--Floor--inject-43" transform="translate(29.626 179.149)">
      <path id="Trazado_125770" data-name="Trazado 125770" d="M305.982,254.949c63.511,35.933,63.842,94.155.736,130.118s-165.728,35.926-229.238,0-63.849-94.155-.736-130.118S242.486,219.015,305.982,254.949Z" transform="translate(-29.626 -227.987)" fill="#727997" opacity="0.17"/>
    </g>
    <g id="freepik--Clouds--inject-43" transform="translate(55.014 43.281)">
      <path id="Trazado_125771" data-name="Trazado 125771" d="M114.521,49.969A19.3,19.3,0,0,0,106.687,60.1a6.194,6.194,0,0,0-2.56.883l-.552.338a14.984,14.984,0,0,0-5.885,9.452,8.709,8.709,0,0,0,0,2.942.515.515,0,0,1-.235.478L93.9,76.23a6.186,6.186,0,0,0-2.8,4.84c0,1.78,1.265,2.5,2.817,1.6l34.661-20.015a6.135,6.135,0,0,0,2.8-4.84c0-1.78-1.265-2.494-2.81-1.6L122.885,59.5c-.177.1-.294,0-.228-.25a14.212,14.212,0,0,0,.633-5.112c-.375-4.693-3.847-6.62-8.091-4.509A5.83,5.83,0,0,0,114.521,49.969Z" transform="translate(-71.269 -44.733)" fill="#d2e1f1"/>
      <path id="Trazado_125772" data-name="Trazado 125772" d="M80.3,44.1a13.3,13.3,0,0,0-5.407,7,4.274,4.274,0,0,0-1.765.6,4.183,4.183,0,0,0-.383.243,10.3,10.3,0,0,0-4.068,6.525,6.017,6.017,0,0,0,0,2.023.353.353,0,0,1-.162.331l-2.45,1.412a4.266,4.266,0,0,0-1.927,3.34c0,1.228.875,1.721,1.942,1.1L90,52.865a4.266,4.266,0,0,0,1.927-3.34c0-1.228-.875-1.721-1.942-1.1L86.1,50.68c-.125.074-.206,0-.162-.169a9.776,9.776,0,0,0,.434-3.531c-.257-3.237-2.655-4.568-5.605-3.112Z" transform="translate(-64.14 -43.281)" fill="#d2e1f1"/>
    </g>
    <g id="freepik--Shadows--inject-43" transform="translate(85.911 235.407)" opacity="0.23">
      <path id="Trazado_125773" data-name="Trazado 125773" d="M106.972,357.881l10.2,6.105a5,5,0,0,0,5.149,0l82.952-49.674a1.773,1.773,0,0,0,0-3.023l-10.232-6.105a5,5,0,0,0-5.149,0l-82.923,49.7a1.773,1.773,0,0,0,0,3Z" transform="translate(-106.143 -304.468)" fill="#727997"/>
      <path id="Trazado_125774" data-name="Trazado 125774" d="M342.951,354.092c17.139,9.9,17.235,25.944.206,35.838s-44.731,9.9-61.87,0-17.235-25.937-.206-35.838S325.812,344.2,342.951,354.092Z" transform="translate(-149.038 -315.627)" fill="#727997"/>
    </g>
    <g id="freepik--Plants--inject-43" transform="translate(62.813 222.453)">
      <path id="Trazado_125775" data-name="Trazado 125775" d="M91.673,299.085c-1.89-1.81-4.06-3.788-4.193-6.407a5.752,5.752,0,0,1,3.766-5.362,8.717,8.717,0,0,1,6.789.515,18.588,18.588,0,0,1,5.436,4.347,43.547,43.547,0,0,1,10.254,38.045,3.166,3.166,0,0,1-1.28,2.28c-1.265.669-2.707-.508-3.575-1.648a26.363,26.363,0,0,1-4.2-8.312c-.736-2.538-.412-5.333-1.368-7.724C100.963,308.956,96.175,303.388,91.673,299.085Z" transform="translate(-78.11 -286.858)" fill="#26aab7"/>
      <path id="Trazado_125776" data-name="Trazado 125776" d="M91.673,299.085c-1.89-1.81-4.06-3.788-4.193-6.407a5.752,5.752,0,0,1,3.766-5.362,8.717,8.717,0,0,1,6.789.515,18.588,18.588,0,0,1,5.436,4.347,43.547,43.547,0,0,1,10.254,38.045,3.166,3.166,0,0,1-1.28,2.28c-1.265.669-2.707-.508-3.575-1.648a26.363,26.363,0,0,1-4.2-8.312c-.736-2.538-.412-5.333-1.368-7.724C100.963,308.956,96.175,303.388,91.673,299.085Z" transform="translate(-78.11 -286.858)" fill="#26aab7"/>
      <path id="Trazado_125777" data-name="Trazado 125777" d="M113.009,330.017h0a.5.5,0,0,1-.5-.508,49.483,49.483,0,0,0-18.522-38.184.515.515,0,0,1-.088-.736.522.522,0,0,1,.736-.081,50.483,50.483,0,0,1,18.9,38.986.508.508,0,0,1-.53.522Z" transform="translate(-79.777 -287.792)" fill="#fff"/>
      <path id="Trazado_125778" data-name="Trazado 125778" d="M101.773,356.975c-3.185,1.022-7.179.353-9.026-2.442-2.207-3.281-.817-8.342-3.722-11.034-1.626-1.471-4.016-1.633-6.172-2.074s-4.546-1.64-4.87-3.818c-.427-2.884,3.119-5.282,2.626-8.158s-4.414-3.722-5.568-6.355c-1.052-2.4.809-5.3,3.281-6.2s5.215-.28,7.672.633,4.848,2.118,7.451,2.442,5.841-.2,7.827,1.662c2.663,2.486,1.14,7.231,3.192,10.232,1.383,2.016,3.98,2.714,5.966,4.127a9.563,9.563,0,0,1,3.943,7.834c-.066,3.3-1.8,5.693-4.3,7.591C107.423,353.473,105.091,355.915,101.773,356.975Z" transform="translate(-74.742 -294.683)" fill="#26aab7"/>
      <path id="Trazado_125779" data-name="Trazado 125779" d="M101.773,356.975c-3.185,1.022-7.179.353-9.026-2.442-2.207-3.281-.817-8.342-3.722-11.034-1.626-1.471-4.016-1.633-6.172-2.074s-4.546-1.64-4.87-3.818c-.427-2.884,3.119-5.282,2.626-8.158s-4.414-3.722-5.568-6.355c-1.052-2.4.809-5.3,3.281-6.2s5.215-.28,7.672.633,4.848,2.118,7.451,2.442,5.841-.2,7.827,1.662c2.663,2.486,1.14,7.231,3.192,10.232,1.383,2.016,3.98,2.714,5.966,4.127a9.563,9.563,0,0,1,3.943,7.834c-.066,3.3-1.8,5.693-4.3,7.591C107.423,353.473,105.091,355.915,101.773,356.975Z" transform="translate(-74.742 -294.683)" opacity="0.3"/>
      <path id="Trazado_125780" data-name="Trazado 125780" d="M102.165,335.69l-.037-.052c-.478-.691-.971-1.376-1.471-2.03A36.647,36.647,0,0,0,82.34,321.427a.508.508,0,1,0-.28.971A35.617,35.617,0,0,1,99.87,334.241c.14.177.265.375.4.552-5.708-2.1-11.534-.9-14.638,1.6a.526.526,0,1,0,.662.816c3.075-2.479,9.423-3.582,15.175-.794a35.6,35.6,0,0,1,6.061,17.794.5.5,0,0,0,.5.471h0a.5.5,0,0,0,.478-.53,36.632,36.632,0,0,0-6.348-18.456Z" transform="translate(-76.568 -295.989)" fill="#fff"/>
      <path id="Trazado_125781" data-name="Trazado 125781" d="M368,321.836c1.537-1.471,3.3-3.075,3.4-5.193a4.649,4.649,0,0,0-3.053-4.347,7.032,7.032,0,0,0-5.51.419,14.866,14.866,0,0,0-4.413,3.523,35.308,35.308,0,0,0-8.327,30.895,2.611,2.611,0,0,0,1.044,1.854c1.03.544,2.207-.412,2.9-1.339a21.243,21.243,0,0,0,3.406-6.753c.618-2.052.338-4.325,1.111-6.26C360.463,329.854,364.347,325.33,368,321.836Z" transform="translate(-147.351 -293.485)" fill="#26aab7"/>
      <path id="Trazado_125782" data-name="Trazado 125782" d="M352.857,346.954h0a.412.412,0,0,0,.412-.412A40.133,40.133,0,0,1,368.3,315.559a.412.412,0,0,0-.508-.64,40.972,40.972,0,0,0-15.337,31.63.412.412,0,0,0,.4.4Z" transform="translate(-148.174 -294.262)" fill="#fff"/>
      <path id="Trazado_125783" data-name="Trazado 125783" d="M356.188,368.819c2.589.831,5.833.287,7.356-1.979,1.758-2.663.662-6.767,3.016-8.923,1.324-1.2,3.259-1.324,5.009-1.685s3.678-1.324,3.95-3.089c.346-2.347-2.53-4.288-2.126-6.62s3.575-3.016,4.517-5.149c.853-1.949-.662-4.311-2.663-5.031s-4.23-.228-6.223.508a27.568,27.568,0,0,1-6.047,1.979c-2.111.257-4.737-.162-6.348,1.353-2.163,2.016-.927,5.885-2.6,8.3-1.118,1.633-3.222,2.207-4.833,3.34a7.533,7.533,0,0,0,.287,12.52C351.612,365.98,353.532,367.966,356.188,368.819Z" transform="translate(-146.466 -299.849)" fill="#26aab7"/>
      <path id="Trazado_125784" data-name="Trazado 125784" d="M356.188,368.819c2.589.831,5.833.287,7.356-1.979,1.758-2.663.662-6.767,3.016-8.923,1.324-1.2,3.259-1.324,5.009-1.685s3.678-1.324,3.95-3.089c.346-2.347-2.53-4.288-2.126-6.62s3.575-3.016,4.517-5.149c.853-1.949-.662-4.311-2.663-5.031s-4.23-.228-6.223.508a27.568,27.568,0,0,1-6.047,1.979c-2.111.257-4.737-.162-6.348,1.353-2.163,2.016-.927,5.885-2.6,8.3-1.118,1.633-3.222,2.207-4.833,3.34a7.533,7.533,0,0,0,.287,12.52C351.612,365.98,353.532,367.966,356.188,368.819Z" transform="translate(-146.466 -299.849)" opacity="0.3"/>
      <path id="Trazado_125785" data-name="Trazado 125785" d="M359.589,351.55v-.044c.39-.559.787-1.111,1.214-1.64a29.652,29.652,0,0,1,14.888-9.872.409.409,0,1,1,.221.787,28.827,28.827,0,0,0-14.44,9.592c-.118.147-.221.3-.331.449,4.627-1.707,9.349-.736,11.872,1.295a.412.412,0,0,1-.257.736.39.39,0,0,1-.257-.1c-2.494-2.008-7.643-2.9-12.314-.64a28.93,28.93,0,0,0-4.951,14.454.412.412,0,0,1-.412.383h0a.4.4,0,0,1-.383-.434,29.659,29.659,0,0,1,5.149-14.969Z" transform="translate(-148.697 -300.903)" fill="#fff"/>
    </g>
    <g id="freepik--Character--inject-43" transform="translate(201.93 84.605)">
      <path id="Trazado_125786" data-name="Trazado 125786" d="M280.781,109.132a.378.378,0,0,1,.611.353v4.127a1.339,1.339,0,0,1-.611,1.052.376.376,0,0,1-.611-.346v-4.127A1.354,1.354,0,0,1,280.781,109.132Z" transform="translate(-268.177 -101.996)" fill="#26aab7"/>
      <path id="Trazado_125787" data-name="Trazado 125787" d="M270.11,119.794a.419.419,0,0,1,.471,0l2.317,1.824c.221.177.184.64-.074,1.037a1.155,1.155,0,0,1-.39.39.412.412,0,0,1-.471,0l-2.317-1.824c-.221-.177-.191-.64.074-1.037a1.185,1.185,0,0,1,.39-.39Z" transform="translate(-265.355 -104.817)" fill="#26aab7"/>
      <path id="Trazado_125788" data-name="Trazado 125788" d="M266.4,127.043a.537.537,0,0,1,.272-.044l3.119.272c.294,0,.4.4.228.831a1.375,1.375,0,0,1-.53.655.515.515,0,0,1-.309.081l-3.119-.265c-.287,0-.39-.4-.221-.831a1.317,1.317,0,0,1,.559-.7Z" transform="translate(-264.366 -106.741)" fill="#26aab7"/>
      <path id="Trazado_125789" data-name="Trazado 125789" d="M269.569,140.969c.213-.125.419-.118.53.044a1.023,1.023,0,0,1-.221,1.089l-3.1,3.862a1.1,1.1,0,0,1-.3.265c-.213.125-.419.118-.537-.044a1.037,1.037,0,0,1,.221-1.089l3.1-3.862a1.118,1.118,0,0,1,.309-.265Z" transform="translate(-264.395 -110.412)" fill="#26aab7"/>
      <path id="Trazado_125790" data-name="Trazado 125790" d="M268,137.321c.294-.162.552-.074.6.235a1.3,1.3,0,0,1-.493,1.1l-3.538,2.758-.1.074c-.294.169-.552.081-.6-.235a1.28,1.28,0,0,1,.493-1.1l3.531-2.758Z" transform="translate(-263.865 -109.45)" fill="#26aab7"/>
      <path id="Trazado_125791" data-name="Trazado 125791" d="M290.7,107.43a.471.471,0,0,1,.4-.066c.258.1.294.522.081.949l-2.3,4.494a1.266,1.266,0,0,1-.471.522.5.5,0,0,1-.4.066c-.257-.1-.294-.53-.074-.956l2.3-4.487a1.221,1.221,0,0,1,.471-.522Z" transform="translate(-270.192 -101.545)" fill="#26aab7"/>
      <path id="Trazado_125792" data-name="Trazado 125792" d="M286.074,106.972a.618.618,0,0,1,.213-.074c.316-.051.478.257.368.691l-1.221,4.583a1.339,1.339,0,0,1-.574.794.6.6,0,0,1-.206.081c-.316.051-.486-.257-.368-.691l1.214-4.583A1.376,1.376,0,0,1,286.074,106.972Z" transform="translate(-269.255 -101.425)" fill="#26aab7"/>
      <g id="Grupo_72132" data-name="Grupo 72132" transform="translate(0 5.468)" opacity="0.2">
        <path id="Trazado_125793" data-name="Trazado 125793" d="M280.781,109.132a.378.378,0,0,1,.611.353v4.127a1.339,1.339,0,0,1-.611,1.052.376.376,0,0,1-.611-.346v-4.127A1.354,1.354,0,0,1,280.781,109.132Z" transform="translate(-268.177 -107.464)"/>
        <path id="Trazado_125794" data-name="Trazado 125794" d="M270.11,119.794a.419.419,0,0,1,.471,0l2.317,1.824c.221.177.184.64-.074,1.037a1.155,1.155,0,0,1-.39.39.412.412,0,0,1-.471,0l-2.317-1.824c-.221-.177-.191-.64.074-1.037a1.185,1.185,0,0,1,.39-.39Z" transform="translate(-265.355 -110.285)"/>
        <path id="Trazado_125795" data-name="Trazado 125795" d="M266.4,127.043a.537.537,0,0,1,.272-.044l3.119.272c.294,0,.4.4.228.831a1.375,1.375,0,0,1-.53.655.515.515,0,0,1-.309.081l-3.119-.265c-.287,0-.39-.4-.221-.831a1.317,1.317,0,0,1,.559-.7Z" transform="translate(-264.366 -112.208)"/>
        <path id="Trazado_125796" data-name="Trazado 125796" d="M269.569,140.969c.213-.125.419-.118.53.044a1.023,1.023,0,0,1-.221,1.089l-3.1,3.862a1.1,1.1,0,0,1-.3.265c-.213.125-.419.118-.537-.044a1.037,1.037,0,0,1,.221-1.089l3.1-3.862a1.118,1.118,0,0,1,.309-.265Z" transform="translate(-264.395 -115.88)"/>
        <path id="Trazado_125797" data-name="Trazado 125797" d="M268,137.321c.294-.162.552-.074.6.235a1.3,1.3,0,0,1-.493,1.1l-3.538,2.758-.1.074c-.294.169-.552.081-.6-.235a1.28,1.28,0,0,1,.493-1.1l3.531-2.758Z" transform="translate(-263.865 -114.917)"/>
        <path id="Trazado_125798" data-name="Trazado 125798" d="M290.7,107.43a.471.471,0,0,1,.4-.066c.258.1.294.522.081.949l-2.3,4.494a1.266,1.266,0,0,1-.471.522.5.5,0,0,1-.4.066c-.257-.1-.294-.53-.074-.956l2.3-4.487a1.221,1.221,0,0,1,.471-.522Z" transform="translate(-270.192 -107.012)"/>
        <path id="Trazado_125799" data-name="Trazado 125799" d="M286.074,106.972a.618.618,0,0,1,.213-.074c.316-.051.478.257.368.691l-1.221,4.583a1.339,1.339,0,0,1-.574.794.6.6,0,0,1-.206.081c-.316.051-.486-.257-.368-.691l1.214-4.583A1.376,1.376,0,0,1,286.074,106.972Z" transform="translate(-269.255 -106.892)"/>
      </g>
      <path id="Trazado_125800" data-name="Trazado 125800" d="M283.491,383.488a9.217,9.217,0,0,0,7.01,2.641,20.825,20.825,0,0,0,7.407-1.92c2.376-1,5.348-3.8,7.915-3.744a60.613,60.613,0,0,0,7.5-.522,41,41,0,0,0-1.067-10.409l-11.968-.324c-3.229,4.539-9.511,8.312-14.263,9.724a4.252,4.252,0,0,0-2.942,3.222.3.3,0,0,0,0,.081A5.371,5.371,0,0,0,283.491,383.488Z" transform="translate(-268.945 -170.785)" fill="#455a64"/>
      <path id="Trazado_125801" data-name="Trazado 125801" d="M305.794,384.322c-2.567-.052-5.539,2.744-7.915,3.744a20.825,20.825,0,0,1-7.407,1.92,9.217,9.217,0,0,1-7.01-2.641,5.371,5.371,0,0,1-.412-1.251.3.3,0,0,1,0-.081,3.943,3.943,0,0,0,0,1.633,5.371,5.371,0,0,0,.412,1.251,9.187,9.187,0,0,0,7.01,2.641,20.817,20.817,0,0,0,7.407-1.913c2.376-1,5.348-3.8,7.915-3.744a54.777,54.777,0,0,0,7.356-.441c.059-.544.1-1.1.118-1.64A60.62,60.62,0,0,1,305.794,384.322Z" transform="translate(-268.915 -174.643)" fill="#37474f"/>
      <path id="Trazado_125802" data-name="Trazado 125802" d="M350.785,387.3a18.04,18.04,0,0,1-.36,3.722,8.658,8.658,0,0,1-3.318,5.421,10.49,10.49,0,0,1-5.274,1.471,11.453,11.453,0,0,1-4.818-.515,5.48,5.48,0,0,1-2.825-2.361s0,.044,0,.066a5.149,5.149,0,0,0,3.251,3.465,11.365,11.365,0,0,0,4.825.508,10.4,10.4,0,0,0,5.267-1.434,8.614,8.614,0,0,0,3.318-5.429,17.97,17.97,0,0,0,.36-3.715,6.348,6.348,0,0,1,1.949-4.546,10.737,10.737,0,0,0,.846-.9,2.207,2.207,0,0,0,.522-1.626,5.148,5.148,0,0,0-.074-.677c-.434.53-1.471,1.78-1.736,2.03a6.37,6.37,0,0,0-1.935,4.517Z" transform="translate(-282.46 -173.836)" fill="#37474f"/>
      <path id="Trazado_125803" data-name="Trazado 125803" d="M341.6,372a13.977,13.977,0,0,1-.964,7.569,29.247,29.247,0,0,1-3.891,6.561,19.672,19.672,0,0,0-2.045,3.045,5.627,5.627,0,0,0-.574,3.516,5.48,5.48,0,0,0,2.825,2.361,11.454,11.454,0,0,0,4.818.515,10.49,10.49,0,0,0,5.274-1.471,8.658,8.658,0,0,0,3.317-5.421,18.036,18.036,0,0,0,.36-3.722,6.37,6.37,0,0,1,1.942-4.546c.265-.25,1.3-1.471,1.736-2.03a13.9,13.9,0,0,0-1.787-5.259Z" transform="translate(-282.424 -171.523)" fill="#455a64"/>
      <path id="Trazado_125804" data-name="Trazado 125804" d="M300.66,223l.9,63.3,2.942,44.312c7.356,4.781,12.726.875,12.726.875,2.8-20.994,3.178-33.9,1.655-42.664l1.4-34.161,4.163,35.492,7.062,43.481c7.569,5.031,12.917,0,12.917,0,0-16.095,1.4-34.087-2.942-45.695a273.188,273.188,0,0,0-2.038-64.283Z" transform="translate(-273.594 -132.125)" fill="#37474f"/>
      <path id="Trazado_125805" data-name="Trazado 125805" d="M321.823,247.052l1.545,13.049-.655,16-2.839-26.3c-6.62-2.641-7.444-6.355-7.444-6.355a19.861,19.861,0,0,0,9.393,3.612Z" transform="translate(-276.707 -137.53)" fill="#263238"/>
      <path id="Trazado_125806" data-name="Trazado 125806" d="M301.546,123.182l-1.685-.883h-.1a.949.949,0,0,0-.875.044l-15.072,8.7a1.942,1.942,0,0,0-.971,1.685v7.3a.942.942,0,0,0,.4.78h0a.876.876,0,0,0,.184.1l1.633.868-.081-1.331,14.366-8.29a1.949,1.949,0,0,0,.978-1.684v-6.355Z" transform="translate(-268.883 -105.476)" fill="#455a64"/>
      <path id="Trazado_125807" data-name="Trazado 125807" d="M301.673,133.308l-15.072,8.7a.978.978,0,0,1-1.471-.839v-7.3a1.964,1.964,0,0,1,.971-1.684l15.116-8.7a.971.971,0,0,1,1.471.846v7.3A1.935,1.935,0,0,1,301.673,133.308Z" transform="translate(-269.488 -105.774)" fill="#455a64"/>
      <path id="Trazado_125808" data-name="Trazado 125808" d="M286.46,134.221a.978.978,0,0,1,.486-.839l15.08-8.7v7.3a.978.978,0,0,1-.486.846l-15.072,8.695Z" transform="translate(-269.84 -106.128)" fill="#1565c0"/>
      <path id="Trazado_125809" data-name="Trazado 125809" d="M295.058,147.352a2.611,2.611,0,0,1,.978-1.17,6.8,6.8,0,0,0,2.773-3.42,18.882,18.882,0,0,0,.691-4.642,7.231,7.231,0,0,1,1.589-4.333c-2.678-1.081-3.766,1.353-4.737,5.252l-8.967,5.149.125.294a2.207,2.207,0,0,1,0,1.824l-2.611,5.3a9.121,9.121,0,0,0,8.827.993,44.933,44.933,0,0,1,1.331-5.252Z" transform="translate(-269.427 -108.468)" fill="#ffa8a7"/>
      <path id="Trazado_125810" data-name="Trazado 125810" d="M292.109,164.112c.471-1.905,1.037-4.414,1.4-6.62a11.571,11.571,0,0,1-10.07-1.192,51.626,51.626,0,0,0-2.854,5.576,13.049,13.049,0,0,0,11.519,2.236Z" transform="translate(-268.288 -114.489)" fill="#e0e0e0"/>
      <path id="Trazado_125811" data-name="Trazado 125811" d="M289.562,166.5s.368-1.309.831-3.178a13.049,13.049,0,0,1-11.519-2.258,59.266,59.266,0,0,0-4.642,18.5,15.8,15.8,0,0,0,.272,5.583,6.576,6.576,0,0,0,3.362,4.3c2.376,1.089,5.223.147,7.356-1.331,4.053-2.781,6.62-7.216,9.011-11.5l6.525-23.3C296.9,153.747,293.733,155.917,289.562,166.5Z" transform="translate(-266.572 -113.701)" fill="#f0f0f0"/>
      <path id="Trazado_125812" data-name="Trazado 125812" d="M293.711,171.24c-1.53,5.414-3.921,14.057-3.921,14.057C295.233,179.765,293.711,171.24,293.711,171.24Z" transform="translate(-270.72 -118.439)" opacity="0.1"/>
      <path id="Trazado_125813" data-name="Trazado 125813" d="M305.665,158a16.4,16.4,0,0,0-4.877,5.2c-2.133,3.678-2.758,7.959-3.34,12.152q-.618,4.414-1.228,8.827a65,65,0,0,0,3.884-6.319Z" transform="translate(-272.42 -114.938)" opacity="0.1"/>
      <path id="Trazado_125814" data-name="Trazado 125814" d="M314.564,152.35l-6.959.736c-5.7,5.024-8.643,15.565-7.415,27.217a152.514,152.514,0,0,1,.272,24.024c15.447,11.284,36.36,3.089,38.81.64l-1.979-14.307a10,10,0,0,1,.78-4.7c1.471-3.391,4.06-10.055,4.414-15.219a27.011,27.011,0,0,0-2.788-13.307l-10.114-4.414Z" transform="translate(-273.397 -113.444)" fill="#f0f0f0"/>
      <path id="Trazado_125815" data-name="Trazado 125815" d="M351.333,193.214a60.362,60.362,0,0,0,4.193-13.314c-1.434.868-2.942,1.721-3.546,3.148a25.282,25.282,0,0,0-1.434,14.579,9.953,9.953,0,0,1,.787-4.414Z" transform="translate(-286.657 -120.729)" opacity="0.1"/>
      <path id="Trazado_125816" data-name="Trazado 125816" d="M315.15,166.14a75.365,75.365,0,0,0-5.73,27.217l2.861,6.157,4.494-5.885a231.66,231.66,0,0,1,.537-27.062Z" transform="translate(-275.911 -117.091)" fill="#1565c0"/>
      <path id="Trazado_125817" data-name="Trazado 125817" d="M316.85,159.26a20.9,20.9,0,0,0,.25,5.061,4.016,4.016,0,0,0,2.163.4,17.588,17.588,0,0,0,3.472-4.2l-3.472-1.258Z" transform="translate(-277.861 -115.271)" fill="#1565c0"/>
      <path id="Trazado_125818" data-name="Trazado 125818" d="M320.15,156.473c2.994,1.1,5.657,6.436,5.657,6.436,7.871-6.679,9.1-10.85,9.1-10.85a7.814,7.814,0,0,0-4.23-3.34Z" transform="translate(-278.748 -112.485)" fill="#e0e0e0"/>
      <path id="Trazado_125819" data-name="Trazado 125819" d="M318.593,156.88c-2.288.066-4.311,3.251-4.311,3.251-.368-5.576,4.311-9.872,4.311-9.872Z" transform="translate(-277.191 -112.892)" fill="#e0e0e0"/>
      <path id="Trazado_125820" data-name="Trazado 125820" d="M330.86,140.23l-10.71,3.825v3.965a17.537,17.537,0,0,0,6.789-2.464,10.423,10.423,0,0,0,3.921-5.326Z" transform="translate(-278.748 -110.24)" fill="#f28f8f"/>
      <path id="Trazado_125821" data-name="Trazado 125821" d="M330.86,140.151a10.423,10.423,0,0,1-3.921,5.326,17.537,17.537,0,0,1-6.79,2.464v6.208s11.321-5.083,11.321-7.474V139.93Z" transform="translate(-278.748 -110.16)" fill="#ffa8a7"/>
      <path id="Trazado_125822" data-name="Trazado 125822" d="M304.509,113.745a6.466,6.466,0,0,1-5.885-3.31.89.89,0,0,1,.964-1.28,7.017,7.017,0,0,0,2.479,0,11.769,11.769,0,0,1-2.31-8.753,1.111,1.111,0,0,1,1.582-.831,21.751,21.751,0,0,0,11,2.207c2.023-.14,4.016-.574,6.039-.736a11.2,11.2,0,0,1,5.936.9,5.642,5.642,0,0,1,3.237,4.781,2.788,2.788,0,0,1,2.008-1.162,3.1,3.1,0,0,1,2.339.691c-1.17.647-2.31,1.295-3.479,1.935,1.2-.427,2.707.508,3.3,1.633a8.047,8.047,0,0,1,.64,3.722,28.973,28.973,0,0,1-.228,5.053,9.7,9.7,0,0,1-1.913,4.634,7.356,7.356,0,0,1-3.487,2.361,9.5,9.5,0,0,1-5.649-.184,22.42,22.42,0,0,1-5.149-2.56,80.481,80.481,0,0,1-11.424-9.107Z" transform="translate(-273.03 -99.459)" fill="#263238"/>
      <path id="Trazado_125823" data-name="Trazado 125823" d="M306.117,114.229a38.861,38.861,0,0,0,2.207,20.78,7.408,7.408,0,0,0,2.817,3.913c1.42.817,3.34.669,5.039.412a25.51,25.51,0,0,0,7.959-2.207,10.85,10.85,0,0,0,5.51-5.936,4.767,4.767,0,0,0,4.825-1.89,9.025,9.025,0,0,0,1.567-5.274c0-1.192-.221-2.6-1.295-3.119a2.924,2.924,0,0,0-3.053.736,9.136,9.136,0,0,0-2.942,4.458c-.787-2.9-2.015-5.7-2.8-8.606a4.875,4.875,0,0,0-1.692-3.031c-1.214-.78-2.8-.331-4.208,0A27.761,27.761,0,0,1,306.117,114.229Z" transform="translate(-274.895 -103.313)" fill="#ffa8a7"/>
      <path id="Trazado_125824" data-name="Trazado 125824" d="M316.6,126.28,313.2,132l4.053.758Z" transform="translate(-276.91 -106.551)" fill="#f28f8f"/>
      <path id="Trazado_125825" data-name="Trazado 125825" d="M322.892,137.77l-3.082,1.471a2.023,2.023,0,0,0,2.339.669,1.832,1.832,0,0,0,.743-2.141Z" transform="translate(-278.658 -109.589)" fill="#f28f8f"/>
      <path id="Trazado_125826" data-name="Trazado 125826" d="M322.892,137.77l-3.082,1.471a2.023,2.023,0,0,0,2.339.669,1.832,1.832,0,0,0,.743-2.141Z" transform="translate(-278.658 -109.589)" opacity="0.3"/>
      <path id="Trazado_125827" data-name="Trazado 125827" d="M321.55,140.221a1.883,1.883,0,0,0,1.074-.1,1.648,1.648,0,0,0,.816-1.626,1.942,1.942,0,0,0-1.206.419A1.964,1.964,0,0,0,321.55,140.221Z" transform="translate(-279.118 -109.782)" fill="#f28f8f"/>
      <path id="Trazado_125828" data-name="Trazado 125828" d="M324.965,126.215a1.169,1.169,0,1,1-1.28-1.037A1.165,1.165,0,0,1,324.965,126.215Z" transform="translate(-279.407 -106.258)" fill="#263238"/>
      <path id="Trazado_125829" data-name="Trazado 125829" d="M311.706,127.042a1.162,1.162,0,1,1-1.28-1.045A1.162,1.162,0,0,1,311.706,127.042Z" transform="translate(-275.902 -106.475)" fill="#263238"/>
      <path id="Trazado_125830" data-name="Trazado 125830" d="M309.457,121.232l-2.383,2.03a1.655,1.655,0,0,1,.316-1.861A1.957,1.957,0,0,1,309.457,121.232Z" transform="translate(-275.249 -105.158)" fill="#263238"/>
      <path id="Trazado_125831" data-name="Trazado 125831" d="M323.83,119.605c.912.508,1.824,1.015,2.744,1.515a1.662,1.662,0,0,0-.684-1.765A1.986,1.986,0,0,0,323.83,119.605Z" transform="translate(-279.721 -104.673)" fill="#263238"/>
      <path id="Trazado_125832" data-name="Trazado 125832" d="M386.12,188.6l3.678-1.824a6.562,6.562,0,0,0,2.758-2.575l1.155-1.979a8.092,8.092,0,0,1,3.384-3.148,27.548,27.548,0,0,0,5.885-3.9h0a3.067,3.067,0,0,1-.471,3.84,22.07,22.07,0,0,1-2.413,1.92l1.773.449a6.3,6.3,0,0,0,3.862-.235l5.061-1.964a.883.883,0,0,1,1.184.971,20.037,20.037,0,0,1-2.508,6.348,7.562,7.562,0,0,1-5.149,3.612c-2.582.485-5.083.868-6.5,1.067a7.871,7.871,0,0,0-2.339.736l-5.429,2.7Z" transform="translate(-296.191 -119.481)" fill="#ffa8a7"/>
      <path id="Trazado_125833" data-name="Trazado 125833" d="M373.749,190.071a9.2,9.2,0,0,1-.647-4.811l-6.959,3.3A145.144,145.144,0,0,1,363.2,173.2c-.824-6.981-.64-11.674-9.621-13.976l-.949,18.39s1.1,22.435,7.54,24.922c5.326,2.052,9.085-3.016,17.213-8.268A9.187,9.187,0,0,1,373.749,190.071Z" transform="translate(-287.336 -115.261)" fill="#f0f0f0"/>
      <path id="Trazado_125834" data-name="Trazado 125834" d="M364.677,202.928a8.642,8.642,0,0,1,4.656-4.6s-.206-.817-.508-2.141C367.428,196.881,363.986,198.993,364.677,202.928Z" transform="translate(-290.497 -125.036)" opacity="0.1"/>
      <path id="Trazado_125835" data-name="Trazado 125835" d="M386.652,190.6l-6.223,2.942a9.048,9.048,0,0,0,4.311,9,57.025,57.025,0,0,1,5.679-3.229S387.108,196.669,386.652,190.6Z" transform="translate(-294.664 -123.558)" fill="#e0e0e0"/>
    </g>
    <g id="freepik--speech-bubble--inject-43" transform="translate(272.413 58.489)">
      <path id="Trazado_125836" data-name="Trazado 125836" d="M406.67,67.254a.934.934,0,0,0-.478-.817h0l-4.252-2.361H401.9a.919.919,0,0,0-.912,0l-29.07,16.786a2.861,2.861,0,0,0-1.42,2.464V94.133l-10.063,10.409c-.9.934-.993,2.339-.294,2.56l4.009,2.207a.625.625,0,0,0,.552.177l5.841-.736v7.93a.919.919,0,0,0,.463.809h0l4.222,2.347h.1a.934.934,0,0,0,.868-.037l29.07-16.786a2.825,2.825,0,0,0,1.42-2.464ZM375.511,83.768l-.1.11Zm-.272.353-.074.1Zm-.4.949a.731.731,0,0,0,0,.125.734.734,0,0,1,0-.125Zm.89-1.471a1.1,1.1,0,0,1,.1-.088,1.1,1.1,0,0,0-.1.051Z" transform="translate(-359.684 -63.955)" fill="#fb8c00"/>
      <path id="Trazado_125837" data-name="Trazado 125837" d="M404.035,82.4a1.1,1.1,0,0,0-.338.265.934.934,0,0,0-.169.3,15.024,15.024,0,0,0-.809,1.971c-.243.6-.471,1.192-.677,1.795a1.471,1.471,0,0,0-.125.338,2.206,2.206,0,0,0-.162.449c-.132.338-.265.669-.39,1.008-.051.1-.1.184-.14.28a5.643,5.643,0,0,0-.324.868.8.8,0,0,0,.088.787,2.516,2.516,0,0,0,1.133.618l.11.037.353.1.611.3.118.074c.037.051.081.1.118.14a.735.735,0,0,1,.1.177.662.662,0,0,1,0,.3c-.037.147-.074.3-.1.449s-.184.5-.272.736l-.132.324-.456,1.074c-.154.346-.265.633-.375.919a5.345,5.345,0,0,0-.28.633l-.154.316c-.125.265-.257.53-.383.8l-.11.235-.412.736-.154.294-.478.839-.125.213-.471.9-.147.221-1.1,1.6-.441.6-.125.169-1.346,1.707-.515.485a1.338,1.338,0,0,1-.346.294.522.522,0,0,1-.552,0l-.331-.169c0-.051-.044-.059-.081-.066a10.09,10.09,0,0,0-1.471-1.074.61.61,0,0,0-.655,0,1.1,1.1,0,0,0-.169.125,2.825,2.825,0,0,0-.566.64.294.294,0,0,0-.125.154c-.4.566-.853,1.074-1.273,1.618s-.772.9-1.147,1.376c-.213.243-.419.493-.618.736s-.449.552-.662.853a2.046,2.046,0,0,0-.228.316,1.1,1.1,0,0,0-.265.9,3.671,3.671,0,0,0,.052.588,2.56,2.56,0,0,0,.154.736,1.6,1.6,0,0,0,.132.449,1.2,1.2,0,0,0,.074.132.236.236,0,0,0,0,.1.668.668,0,0,0,.081.118.4.4,0,0,0,.213.243.67.67,0,0,0,.265.213l.184.074h.125l.154.059h.074a.6.6,0,0,0,.257,0,.125.125,0,0,0,.125,0,.684.684,0,0,0,.324,0,.824.824,0,0,0,.353,0,1.17,1.17,0,0,0,.353,0h.213a2.354,2.354,0,0,0,.493-.1h.081l.177-.044a.3.3,0,0,0,.125-.051l.184-.066a3.48,3.48,0,0,0,.537-.206l.147-.074.118-.066a2.888,2.888,0,0,0,.3-.191,3.858,3.858,0,0,0,.346-.228,4.714,4.714,0,0,0,.382-.287q.162-.11.331-.243l.132-.118.066-.059.184-.154a7.217,7.217,0,0,0,.544-.522,3.237,3.237,0,0,0,.4-.382.368.368,0,0,0,.11-.125,7.129,7.129,0,0,0,.736-.736,6.626,6.626,0,0,0,.559-.552,3.781,3.781,0,0,0,.412-.427l.228-.235a.618.618,0,0,0,.169-.191.191.191,0,0,0,.081-.088l.125-.118a2.941,2.941,0,0,0,.191-.235,5.082,5.082,0,0,0,.375-.419l.118-.147.118-.147a8.977,8.977,0,0,0,.655-.809,1.685,1.685,0,0,0,.28-.36,4.144,4.144,0,0,0,.375-.493,7.186,7.186,0,0,0,.522-.736c.1-.132.147-.2.2-.257l.132-.191c.1-.132.177-.265.265-.4l.169-.228a2.67,2.67,0,0,0,.147-.243,2.524,2.524,0,0,0,.287-.441,5.38,5.38,0,0,0,.383-.588,1.474,1.474,0,0,0,.118-.177.549.549,0,0,0,.051-.088l.052-.1.125-.177c.118-.184.228-.368.331-.566l.147-.243.463-.8a.919.919,0,0,0,.155-.257c.118-.191.228-.383.338-.588,0-.066.066-.132.1-.2a1.47,1.47,0,0,0,.154-.287l.4-.736c.066-.14.14-.272.206-.412a3.554,3.554,0,0,0,.287-.581c.316-.581.6-1.17.853-1.773l.118-.272a4.6,4.6,0,0,0,.28-.655,21.731,21.731,0,0,0,.8-2.067l.066-.177a11.033,11.033,0,0,0,.39-1.214c.162-.5.294-.993.419-1.471.044-.162.088-.324.125-.493a.235.235,0,0,0,.044-.162,1.051,1.051,0,0,0,0-.118l.059-.221a14.473,14.473,0,0,0,.427-1.824v-.1a.331.331,0,0,0,0-.162v-.265a1.553,1.553,0,0,1,0-.184,4.2,4.2,0,0,0,.066-.787v-.324a.464.464,0,0,0,0-.228v-.125a2.133,2.133,0,0,0-.118-.677,3.54,3.54,0,0,0-.309-.942,3.634,3.634,0,0,0-.794-1.295.853.853,0,0,0-.375-.309s-.037-.059-.081-.051a.655.655,0,0,0-.427-.132,3.273,3.273,0,0,0-1.353.235l-.154.066a1.662,1.662,0,0,0-.382.147l-.074.044C404.241,82.282,404.131,82.326,404.035,82.4Z" transform="translate(-367.024 -68.641)" fill="#fff"/>
      <path id="Trazado_125838" data-name="Trazado 125838" d="M378.787,135.016a.927.927,0,0,0,.449.8l-4.222-2.347h0a.92.92,0,0,1-.463-.809v-7.93l4.244-.522Z" transform="translate(-363.615 -79.887)" opacity="0.1"/>
      <path id="Trazado_125839" data-name="Trazado 125839" d="M375.9,80.863l29.078-16.786a.92.92,0,0,1,.912,0h.037l4.252,2.361h0a.956.956,0,0,0-.942,0L380.159,83.224a2.847,2.847,0,0,0-1.206,1.361L374.73,82.15A2.825,2.825,0,0,1,375.9,80.863Z" transform="translate(-363.663 -63.955)" fill="#fff" opacity="0.2"/>
      <path id="Trazado_125840" data-name="Trazado 125840" d="M374.43,100.7V89.892a2.816,2.816,0,0,1,.25-1.162l4.193,2.405a2.943,2.943,0,0,0-.213,1.1v10.806Z" transform="translate(-363.583 -70.506)" fill="#fff" opacity="0.1"/>
      <path id="Trazado_125841" data-name="Trazado 125841" d="M360.479,115.394,370.542,105l4.259,2.369h0l-10.063,10.4c-.78.809-.956,1.964-.544,2.413l-4.009-2.207C359.486,117.733,359.581,116.328,360.479,115.394Z" transform="translate(-359.695 -74.808)" fill="#fff" opacity="0.05"/>
    </g>
    <g id="freepik--Device--inject-43" transform="translate(90.705 49.355)">
      <path id="Trazado_125842" data-name="Trazado 125842" d="M202.581,57.626h0c-.559-2.118-4.524-6.157-8.467-6.076a3.2,3.2,0,0,0-1.111.243L116.378,99.171a7.724,7.724,0,0,0-2.942,3.428,8.511,8.511,0,0,0-.736,3.5V286.275c0,4.59,4.87,8.967,9.445,6.863h0a2.588,2.588,0,0,0,.294-.132l76.633-47.467a8.091,8.091,0,0,0,3.678-6.922V58.5a2.06,2.06,0,0,0-.169-.875Z" transform="translate(-112.671 -51.541)" fill="#37474f"/>
      <path id="Trazado_125843" data-name="Trazado 125843" d="M127.2,134.452a4.053,4.053,0,0,1,1.854-3.465l71.153-44a1.839,1.839,0,0,1,2.736,1.729V234.007a4.046,4.046,0,0,1-1.854,3.457L129.935,281.54a1.839,1.839,0,0,1-2.736-1.729Z" transform="translate(-116.503 -60.848)" fill="#727997"/>
      <path id="Trazado_125844" data-name="Trazado 125844" d="M112.66,124.465V304.639c0,4.59,4.87,8.967,9.445,6.863h0a1.854,1.854,0,0,1-2.449-1.861v-180.2a8.458,8.458,0,0,1,1.243-4.413L113.425,121a8.511,8.511,0,0,0-.765,3.465Z" transform="translate(-112.66 -69.905)" fill="#263238"/>
      <path id="Trazado_125845" data-name="Trazado 125845" d="M194.387,51.54a3.2,3.2,0,0,0-1.111.243L116.642,99.169A7.724,7.724,0,0,0,113.7,102.6l7.5,4.075a7.554,7.554,0,0,1,2.464-2.523L200.3,56.762a1.758,1.758,0,0,1,2.545.861h0C202.294,55.5,198.329,51.459,194.387,51.54Z" transform="translate(-112.935 -51.538)" fill="#455a64"/>
      <path id="Trazado_125846" data-name="Trazado 125846" d="M185.769,99.027c.544-.338.986-.074.986.6a2.4,2.4,0,0,1-.978,1.846l-15.035,9.438c-.537.338-.971.051-.971-.618a2.361,2.361,0,0,1,.964-1.824Z" transform="translate(-127.761 -64.056)" fill="#263238"/>
      <path id="Trazado_125847" data-name="Trazado 125847" d="M165.486,115.148c.537-.338.971-.066.971.6a2.376,2.376,0,0,1-.971,1.839c-.537.338-.978.066-.986-.611a2.383,2.383,0,0,1,.986-1.832Z" transform="translate(-126.367 -68.319)" fill="#263238"/>
      <path id="Trazado_125848" data-name="Trazado 125848" d="M178.217,97.115c1.074-.677,1.942-.14,1.942,1.206A4.767,4.767,0,0,1,178.231,102c-1.081.669-1.971.118-1.971-1.221a4.745,4.745,0,0,1,1.957-3.663Z" transform="translate(-129.477 -63.512)" fill="#263238"/>
      <path id="Trazado_125849" data-name="Trazado 125849" d="M177.5,327.6c2.207-1.376,3.957-.28,3.965,2.457a9.706,9.706,0,0,1-3.943,7.474c-2.192,1.376-4,.25-4.009-2.486A9.688,9.688,0,0,1,177.5,327.6Z" transform="translate(-128.75 -124.375)" fill="#263238"/>
      <path id="Trazado_125850" data-name="Trazado 125850" d="M179.709,189.512a1.993,1.993,0,0,0-.508.419,1.471,1.471,0,0,0-.257.478,24.224,24.224,0,0,0-1.236,3.112c-.368.934-.736,1.876-1.022,2.817a2.207,2.207,0,0,0-.191.537,3.745,3.745,0,0,0-.25.736l-.6,1.574c-.066.154-.14.3-.206.449a8.939,8.939,0,0,0-.485,1.368,1.309,1.309,0,0,0,.125,1.236,3.957,3.957,0,0,0,1.721.978l.177.051c.177.059.353.1.53.154l.927.471.177.125a2.654,2.654,0,0,1,.184.221.772.772,0,0,1,.14.265,1.022,1.022,0,0,1,0,.478l-.155.736c-.132.4-.272.794-.412,1.184l-.2.515c-.206.552-.419,1.111-.633,1.662s-.4,1-.574,1.471a9.715,9.715,0,0,0-.427.986c-.074.169-.154.338-.228.5-.2.419-.39.839-.581,1.258l-.177.375-.618,1.221c-.074.154-.154.309-.235.463l-.736,1.324c-.059.11-.125.221-.191.331-.265.449-.53.9-.8,1.353l-.221.346c-.559.846-1.118,1.692-1.684,2.538l-.662.934-.184.257-2.052,2.685-.691.787a2.207,2.207,0,0,1-.522.463.794.794,0,0,1-.839.052l-.508-.28c0-.074-.066-.088-.118-.1a15.183,15.183,0,0,0-2.273-1.692.912.912,0,0,0-.993,0,1.779,1.779,0,0,0-.257.191,5.075,5.075,0,0,0-.868,1.008.559.559,0,0,0-.177.257c-.618.89-1.295,1.684-1.935,2.538-.6.7-1.184,1.42-1.751,2.17-.324.383-.633.772-.927,1.2a15.4,15.4,0,0,0-1.008,1.331,2.684,2.684,0,0,0-.346.508,1.773,1.773,0,0,0-.4,1.427,4.612,4.612,0,0,0,.074.919,4.133,4.133,0,0,0,.235,1.1,2.464,2.464,0,0,0,.206.736,1.8,1.8,0,0,0,.1.206.522.522,0,0,0,.037.162.862.862,0,0,0,.125.191.655.655,0,0,0,.324.382,1,1,0,0,0,.4.331,2.356,2.356,0,0,0,.287.118l.191.051a1.315,1.315,0,0,0,.235.1h.11a1.141,1.141,0,0,0,.39,0,.177.177,0,0,0,.184,0,1.007,1.007,0,0,0,.493,0,1.472,1.472,0,0,0,.537,0,1.751,1.751,0,0,0,.544-.051h.324a4.2,4.2,0,0,0,.736-.169h.11a1.758,1.758,0,0,0,.28-.066.633.633,0,0,0,.177-.081c.213-.066.25-.088.294-.1a6.1,6.1,0,0,0,.8-.324l.235-.118.169-.1a3.554,3.554,0,0,0,.456-.309l.537-.353a4.6,4.6,0,0,0,.566-.463,4.817,4.817,0,0,0,.515-.375c.066-.051.132-.118.2-.177l.1-.1.28-.243c.28-.257.559-.522.824-.816a4.782,4.782,0,0,0,.611-.611.464.464,0,0,0,.162-.191,12.632,12.632,0,0,0,1.081-1.118,11.99,11.99,0,0,0,.846-.875,5.463,5.463,0,0,0,.625-.669l.338-.375a1.147,1.147,0,0,0,.265-.294.36.36,0,0,0,.118-.14,2.438,2.438,0,0,0,.191-.2,2.855,2.855,0,0,0,.294-.36,8.419,8.419,0,0,0,.574-.662l.177-.235.184-.221c.338-.419.677-.824.986-1.287a2.735,2.735,0,0,0,.427-.559,6.04,6.04,0,0,0,.566-.78,12.5,12.5,0,0,0,.794-1.133c.154-.213.228-.309.294-.412s.147-.2.213-.3.265-.412.39-.625l.257-.36a4.218,4.218,0,0,0,.235-.39,4.414,4.414,0,0,0,.434-.691,8.578,8.578,0,0,0,.574-.934,1.362,1.362,0,0,0,.184-.272l.081-.14a1.475,1.475,0,0,0,.074-.154c.066-.088.125-.184.184-.28a8.747,8.747,0,0,0,.508-.883l.228-.383.736-1.265a1.729,1.729,0,0,0,.228-.412c.184-.294.353-.6.515-.919l.154-.316a3.047,3.047,0,0,0,.235-.449l.6-1.148c.1-.221.213-.434.316-.647a6.5,6.5,0,0,0,.441-.912c.478-.919.9-1.854,1.287-2.8l.177-.427a8.476,8.476,0,0,0,.434-1.045c.456-1.074.868-2.163,1.214-3.251a.769.769,0,0,1,.1-.272,15.89,15.89,0,0,0,.581-1.92c.257-.787.456-1.567.647-2.339.059-.265.125-.522.191-.78a.523.523,0,0,0,.066-.265.8.8,0,0,1,.051-.177l.088-.346a22.71,22.71,0,0,0,.647-2.884v-.147a.449.449,0,0,0,0-.25v-.154a.715.715,0,0,1,.037-.272v-.28a6.623,6.623,0,0,0,.1-1.236c0-.169,0-.346,0-.515a.949.949,0,0,0,0-.36,1.675,1.675,0,0,1,0-.2,3.626,3.626,0,0,0-.184-1.067,5.369,5.369,0,0,0-.471-1.471,5.825,5.825,0,0,0-1.2-2.045,1.287,1.287,0,0,0-.574-.478.1.1,0,0,0-.125-.081.978.978,0,0,0-.647-.213,4.708,4.708,0,0,0-2.052.375l-.235.1a3.074,3.074,0,0,0-.581.235l-.11.074A1.115,1.115,0,0,0,179.709,189.512Z" transform="translate(-123.731 -87.764)" fill="#fff"/>
    </g>
  </g>
</svg>
