<svg xmlns="http://www.w3.org/2000/svg" width="351.914" height="309.954" viewBox="0 0 351.914 309.954">
  <g id="News-amico" transform="translate(-13.95 -26.05)">
    <g id="freepik--Floor--inject-119" transform="translate(13.95 126.689)">
      <ellipse id="freepik--floor--inject-119-2" data-name="freepik--floor--inject-119" cx="175.249" cy="104.657" rx="175.249" ry="104.657" fill="#727997" opacity="0.2"/>
    </g>
    <g id="freepik--Shadows--inject-119" transform="translate(43.919 196.15)">
      <ellipse id="Elipse_4764" data-name="Elipse 4764" cx="23.011" cy="13.283" rx="23.011" ry="13.283" transform="translate(159.525 86.184)" fill="#b0c0d2"/>
      <path id="Trazado_125546" data-name="Trazado 125546" d="M54.844,336.8l11.927,6.88a3.57,3.57,0,0,0,3.228,0l139.088-80.319a.984.984,0,0,0,0-1.864l-11.927-6.873a3.57,3.57,0,0,0-3.228,0l-139.088,80.3a.984.984,0,0,0,0,1.878Z" transform="translate(-54.154 -254.243)" fill="#b0c0d2"/>
    </g>
    <g id="freepik--Plants--inject-119" transform="translate(18.707 217.405)">
      <path id="Trazado_125547" data-name="Trazado 125547" d="M59.1,318.152s3.623-14.342-1.662-24.875S42.795,282.193,39.2,283.02s-6.865,4.987-2.184,9.653,14.744,14.163,15.229,20.6Z" transform="translate(-23.989 -282.757)" fill="#26aab7"/>
      <path id="Trazado_125548" data-name="Trazado 125548" d="M59.1,318.152s3.623-14.342-1.662-24.875S42.795,282.193,39.2,283.02s-6.865,4.987-2.184,9.653,14.744,14.163,15.229,20.6Z" transform="translate(-23.989 -282.757)" opacity="0.15"/>
      <path id="Trazado_125549" data-name="Trazado 125549" d="M44.72,286.36c4.473,2.572,15.788,11.047,15.333,30.279" transform="translate(-26.54 -283.674)" fill="none" stroke="#fff" stroke-linecap="round" stroke-miterlimit="10" stroke-width="1"/>
      <path id="Trazado_125550" data-name="Trazado 125550" d="M54.724,319.1c.745-3.727-1.856-7.283-8.088-8.274s-5.3-.85-11.927-5.121-12.635-2.982-14.1-.373c-1.588,2.87,3.876,6.15,7.626,9.579s5.963,6.962,3.548,10.578c-2.035,3.1-2.43,6.165,2.393,9.161,4.294,2.661,10.16,1.632,10.592,6.709.239,2.907,3.66,7.134,8.461,6.112C67.344,340.252,54.724,319.1,54.724,319.1Z" transform="translate(-20.331 -287.891)" fill="#26aab7"/>
      <path id="Trazado_125551" data-name="Trazado 125551" d="M28.55,306.49c7.387,3.079,26.187,15.43,30.361,36.526" transform="translate(-22.424 -288.799)" fill="none" stroke="#fff" stroke-linecap="round" stroke-miterlimit="10" stroke-width="1"/>
      <path id="Trazado_125552" data-name="Trazado 125552" d="M42.55,335.83a30.334,30.334,0,0,1,13.91-.745" transform="translate(-25.988 -295.948)" fill="none" stroke="#fff" stroke-linecap="round" stroke-miterlimit="10" stroke-width="1"/>
    </g>
    <g id="freepik--Megaphone--inject-119" transform="translate(200.425 26.049)">
      <path id="Trazado_125553" data-name="Trazado 125553" d="M297.81,73.736,312.95,65v55.907c0,2.624,3.026,5.218,3.026,5.218l-15.14,8.736s-3.026-2.616-3.026-5.218Z" transform="translate(-272.689 -35.965)" fill="#37474f"/>
      <path id="Trazado_125554" data-name="Trazado 125554" d="M272.944,76.52l6.381,8.133v22.542l-6.9,17.957,21.975,12.672a8.147,8.147,0,0,1-3.026-5.218V87.135Z" transform="translate(-266.228 -38.898)" fill="#455a64"/>
      <path id="Trazado_125555" data-name="Trazado 125555" d="M272.39,141.76v3.5l21.975,12.687v-3.5Z" transform="translate(-266.218 -55.507)" fill="#ff8e00"/>
      <path id="Trazado_125556" data-name="Trazado 125556" d="M301.87,159.292l15.14-8.736v-3.5L301.87,155.8Z" transform="translate(-273.723 -56.856)" fill="#fb8c00"/>
      <path id="Trazado_125557" data-name="Trazado 125557" d="M301.87,159.292l15.14-8.736v-3.5L301.87,155.8Z" transform="translate(-274.068 -56.856)" opacity="0.1"/>
      <path id="Trazado_125558" data-name="Trazado 125558" d="M288.54,27.049h0c-2.572-1.543-6.157-1.349-10.115.932l-.142.089c-7.827,4.517-14.163,15.5-14.163,24.547v.164c0,4.681,1.707,7.916,4.435,9.325h0l11.457,6.709,19.12-35.564Z" transform="translate(-264.113 -26.049)" fill="#f0f0f0"/>
      <path id="Trazado_125559" data-name="Trazado 125559" d="M268.545,68.562h0L280,75.271l6.336-11.785L265.429,51.41a24.755,24.755,0,0,0-1.319,7.626V59.2C264.11,63.918,265.817,67.153,268.545,68.562Z" transform="translate(-264.11 -32.506)" fill="#e0e0e0"/>
      <path id="Trazado_125560" data-name="Trazado 125560" d="M315.476,36.33h0c-2.907-1.67-6.821-1.6-11.181.522-.455.216-.917.462-1.386.745s-1.088.656-1.625,1.029a28.005,28.005,0,0,0-2.594,2,35.951,35.951,0,0,0-4.361,4.473,42.78,42.78,0,0,0-7.976,15.236,30.189,30.189,0,0,0-1.178,8.051c0,5.524,1.893,9.452,4.972,11.36L279.2,73.438h0a14.163,14.163,0,0,1-6.455-12.2,29.758,29.758,0,0,1,1.081-7.685,42.608,42.608,0,0,1,8.1-15.624,35.447,35.447,0,0,1,4.361-4.473,26.77,26.77,0,0,1,2.594-2,15.507,15.507,0,0,1,1.625-1.029c.544-.283.932-.507,1.4-.745a14.014,14.014,0,0,1,12.4.209h0l.306.171.38.261Z" transform="translate(-266.308 -26.632)" fill="#fb8c00"/>
      <path id="Trazado_125561" data-name="Trazado 125561" d="M279.164,82.048h0a14.163,14.163,0,0,1-6.455-12.2,29.759,29.759,0,0,1,1.081-7.685l12.553,6.783a30.19,30.19,0,0,0-1.178,8.051c0,5.524,1.893,9.452,4.972,11.36Z" transform="translate(-266.298 -35.242)" opacity="0.1"/>
      <path id="Trazado_125562" data-name="Trazado 125562" d="M324.929,50.186c0,11.338-7.954,25.121-17.771,30.786-4.935,2.855-9.407,3.108-12.627,1.208l-.179-.1c-3.079-1.908-4.972-5.837-4.972-11.36,0-11.338,7.954-25.121,17.771-30.793,4.9-2.825,9.34-3.1,12.553-1.252S324.929,44.506,324.929,50.186Z" transform="translate(-270.543 -28.963)" fill="#a15a00"/>
      <path id="Trazado_125564" data-name="Trazado 125564" d="M379.814,47.658s-17.927,9.2-33.246,35.728A122.115,122.115,0,0,0,339.3,98.175c-7.685,18.867-7.052,31.867-7.052,31.867-5.345-13.09-11.986-26.641-23.071-37.018a168.654,168.654,0,0,0-13.634-11.4h0c-2.93-1.707-4.644-5.4-4.644-10.5a30.786,30.786,0,0,1,2.005-10.436,41,41,0,0,1,3.041-6.515c3.116-5.4,7.417-10.108,12.158-12.844,4.413-2.549,8.475-2.915,11.412-1.222h0a170.274,170.274,0,0,0,16.69,6.105C350.75,50.595,365.807,49.566,379.814,47.658Z" transform="translate(-270.93 -29.364)" fill="#f0f0f0"/>
      <path id="Trazado_125565" data-name="Trazado 125565" d="M339.3,105.557c-7.685,18.867-7.052,31.867-7.052,31.867-5.345-13.09-11.986-26.641-23.071-37.018a168.654,168.654,0,0,0-13.634-11.4h0c-2.93-1.707-4.644-5.4-4.644-10.5a30.786,30.786,0,0,1,2.005-10.436C306.5,74.853,328.492,87.4,339.3,105.557Z" transform="translate(-270.93 -36.747)" fill="#e0e0e0"/>
      <path id="Trazado_125566" data-name="Trazado 125566" d="M426.605,74.6c0,11.822-3.638,24.763-9.69,36.712h0c-7.767,15.3-19.485,28.967-32.6,36.526-23.369,13.507-42.31,2.572-42.31-24.4a71.794,71.794,0,0,1,2.8-19.12,100.774,100.774,0,0,1,25.628-43.436q2.482-2.437,5.1-4.584c.745-.6,1.491-1.178,2.2-1.737h0q1.58-1.2,3.183-2.274c1.118-.745,2.236-1.454,3.384-2.11C407.664,36.693,426.605,47.62,426.605,74.6Z" transform="translate(-283.939 -30.721)" fill="#fb8c00"/>
      <path id="Trazado_125567" data-name="Trazado 125567" d="M416.907,131.78c-7.767,15.3-19.485,28.967-32.6,36.526C360.941,181.8,342,170.869,342,143.9a71.794,71.794,0,0,1,2.8-19.12h0c1.58,3.489,7.26,8.468,9.8,4.979a64.752,64.752,0,0,0-2.453,16.958c0,7.752,1.729,14.007,4.994,18.1a13.7,13.7,0,0,0,11.383,5.218c4.629,0,10.011-1.7,15.564-4.9,11.181-6.44,21.416-18.017,28.691-31.129C412.815,134.046,414.246,135.276,416.907,131.78Z" transform="translate(-283.939 -51.184)" opacity="0.1"/>
      <path id="Trazado_125568" data-name="Trazado 125568" d="M427.183,78.964c0,11.927-4.182,25.344-10.92,37.48-7.275,13.112-17.532,24.688-28.691,31.129-5.553,3.2-10.935,4.9-15.564,4.9a13.933,13.933,0,0,1-11.383-5.218c-3.265-4.092-4.994-10.346-4.994-18.1a64.755,64.755,0,0,1,2.452-16.958c.6-2.192,1.3-4.391,2.095-6.582a94.2,94.2,0,0,1,4.987-11.323q.589-1.14,1.208-2.236c.678-1.245,1.386-2.482,2.124-3.727a95.075,95.075,0,0,1,8.341-11.733,1.564,1.564,0,0,0,.1-.127,84.519,84.519,0,0,1,6.314-6.776q2.363-2.236,4.823-4.227c.686-.552,1.379-1.081,2.08-1.6q1.26-.917,2.549-1.767c.835-.544,1.677-1.059,2.52-1.55,5.568-3.22,10.95-4.9,15.579-4.912C421.063,55.618,427.183,64.354,427.183,78.964Z" transform="translate(-287.409 -33.582)" fill="#fb8c00"/>
      <path id="Trazado_125569" data-name="Trazado 125569" d="M427.183,78.964c0,11.927-4.182,25.344-10.92,37.48-7.275,13.112-17.532,24.688-28.691,31.129-5.553,3.2-10.935,4.9-15.564,4.9a13.933,13.933,0,0,1-11.383-5.218c-3.265-4.092-4.994-10.346-4.994-18.1a64.755,64.755,0,0,1,2.452-16.958c.6-2.192,1.3-4.391,2.095-6.582a94.2,94.2,0,0,1,4.987-11.323q.589-1.14,1.208-2.236c.678-1.245,1.386-2.482,2.124-3.727a95.075,95.075,0,0,1,8.341-11.733,1.564,1.564,0,0,0,.1-.127,84.519,84.519,0,0,1,6.314-6.776q2.363-2.236,4.823-4.227c.686-.552,1.379-1.081,2.08-1.6q1.26-.917,2.549-1.767c.835-.544,1.677-1.059,2.52-1.55,5.568-3.22,10.95-4.9,15.579-4.912C421.063,55.618,427.183,64.354,427.183,78.964Z" transform="translate(-287.577 -33.582)" opacity="0.17"/>
      <path id="Trazado_125570" data-name="Trazado 125570" d="M392.535,92.157l-14.841,27.715c-4.167-1.565-11.226-4.07-16.973-5.538.239-.745.492-1.491.745-2.184a94.2,94.2,0,0,1,4.987-11.323q.589-1.14,1.208-2.236c.678-1.245,1.386-2.482,2.124-3.727a95.065,95.065,0,0,1,8.341-11.733,1.565,1.565,0,0,0,.1-.127c.447-.529.895-1.059,1.349-1.573a96.421,96.421,0,0,0,12.955,10.727Z" transform="translate(-288.705 -40.148)" fill="#e0e0e0"/>
      <path id="Trazado_125571" data-name="Trazado 125571" d="M383.32,123.229c-3.354,0-5.36-2.713-5.36-7.253v-.127c0-7.134,5.032-15.84,11.181-19.381l.127-.067a9.586,9.586,0,0,1,4.681-1.491c3.347,0,5.352,2.713,5.352,7.246v.142c0,7.134-5.024,15.84-11.181,19.381l-.119.067a9.691,9.691,0,0,1-4.681,1.491Z" transform="translate(-293.094 -43.58)" fill="#f5f5f5"/>
    </g>
    <g id="freepik--Device--inject-119" transform="translate(49.909 81.032)">
      <path id="Trazado_125572" data-name="Trazado 125572" d="M205.618,103.6a3.407,3.407,0,0,0-3.362.321L74.043,177.93a10.3,10.3,0,0,0-3.571,4.018l-6.053-3.5a10.3,10.3,0,0,1,3.608-4L196.2,100.429a3.4,3.4,0,0,1,3.481-.246h0Z" transform="translate(-62.758 -99.81)" fill="#455a64"/>
      <path id="Trazado_125573" data-name="Trazado 125573" d="M64.039,323.923h0c-1.133-.634-1.849-2.132-1.849-4.264V210.582a1.473,1.473,0,0,1,.052-.514,3.889,3.889,0,0,0,.067-.492,3.208,3.208,0,0,1,.067-.35,10.586,10.586,0,0,1,.306-1.23c.045-.179.1-.358.164-.537s.179-.485.268-.745a.094.094,0,0,1,.037-.075c.1-.239.194-.47.306-.693s.239-.485.365-.745l6.083,3.578c-.134.246-.261.5-.388.745a5.84,5.84,0,0,0-.268.626.515.515,0,0,0,0,.1,7.332,7.332,0,0,0-.276.745c-.082.261-.171.514-.239.745a5.5,5.5,0,0,0-.142.581,10.756,10.756,0,0,0-.306,2.5V323.148c0,2.154.745,3.667,1.878,4.294Z" transform="translate(-62.19 -126.64)" fill="#263238"/>
      <path id="Trazado_125574" data-name="Trazado 125574" d="M203.745,105.115l-128.213,74c-2.907,1.685-5.263,6.187-5.263,10.063V297.508c0,3.876,2.356,5.658,5.263,3.981l128.213-74c2.907-1.677,5.263-6.187,5.263-10.063V109.1C209.008,105.219,206.652,103.437,203.745,105.115Z" transform="translate(-64.247 -101)" fill="#37474f"/>
      <path id="Trazado_125575" data-name="Trazado 125575" d="M199.975,229.741,85.926,295.591c-1.491.865-2.736-.06-2.736-2.065V188.519a6.53,6.53,0,0,1,2.736-5.218l114.05-65.843c1.491-.872,2.728.052,2.728,2.057V224.523A6.578,6.578,0,0,1,199.975,229.741Z" transform="translate(-67.536 -104.219)" fill="#b0c0d2"/>
      <path id="Trazado_125576" data-name="Trazado 125576" d="M199.975,229.741,85.926,295.591c-1.491.865-2.736-.06-2.736-2.065V188.519a6.53,6.53,0,0,1,2.736-5.218l114.05-65.843c1.491-.872,2.728.052,2.728,2.057V224.523A6.578,6.578,0,0,1,199.975,229.741Z" transform="translate(-66.027 -104.219)" opacity="0.1"/>
      <path id="Trazado_125577" data-name="Trazado 125577" d="M77.916,290.642A4.219,4.219,0,0,1,76.157,294c-.976.567-1.767,0-1.767-1.327a4.2,4.2,0,0,1,1.767-3.369C77.126,288.741,77.916,289.345,77.916,290.642Z" transform="translate(-65.296 -147.997)" fill="#e0e0e0"/>
      <path id="Trazado_125578" data-name="Trazado 125578" d="M76.393,267.827h0a2.579,2.579,0,0,0-1.073,2.042v9.348c0,.79.485,1.148,1.073.805h0a2.549,2.549,0,0,0,1.066-2.035V268.67C77.459,267.85,76.982,267.492,76.393,267.827Z" transform="translate(-65.533 -142.551)" fill="#e0e0e0"/>
      <path id="Trazado_125579" data-name="Trazado 125579" d="M197.715,135.93,106.87,188.378V291.723l90.845-52.411Z" transform="translate(-73.565 -109.005)" fill="#fafafa"/>
      <path id="Trazado_125580" data-name="Trazado 125580" d="M196.681,135.334l-3.034-1.744L102.81,186.03l3.026,1.752Z" transform="translate(-72.531 -108.409)" fill="#fff"/>
      <path id="Trazado_125581" data-name="Trazado 125581" d="M102.81,203.94l3.026,1.752V309.037l-3.026,1.744Z" transform="translate(-72.531 -126.319)" fill="#e0e0e0"/>
      <path id="Trazado_125586" data-name="Trazado 125586" d="M210.936,150.89,186.71,164.882v16.451l24.226-13.992Z" transform="translate(-121.608 -99.07)" fill="#e0e0e0"/>
      <path id="Trazado_125587" data-name="Trazado 125587" d="M192.581,184.356,114.61,229.372v-4.256L192.581,180.1Z" transform="translate(-75.535 -120.25)" fill="#1565c0"/>
      <path id="Trazado_125588" data-name="Trazado 125588" d="M139.336,273.123,114.61,287.4V248.465l24.726-14.275Z" transform="translate(-75.535 -134.02)" fill="#455a64"/>
      <path id="Trazado_125589" data-name="Trazado 125589" d="M136.411,245.215l-16.4,9.474c-.306.171-.552,0-.552-.41h0a1.3,1.3,0,0,1,.552-1.036l16.4-9.467c.3-.179.544,0,.544.41h0a1.3,1.3,0,0,1-.544,1.029Z" transform="translate(-76.77 -136.443)" fill="#fff"/>
      <path id="Trazado_125590" data-name="Trazado 125590" d="M136.411,254.581l-16.4,9.467c-.306.171-.552,0-.552-.41h0a1.312,1.312,0,0,1,.552-1.044l16.4-9.467c.3-.171.544,0,.544.41h0a1.312,1.312,0,0,1-.544,1.044Z" transform="translate(-76.77 -138.824)" fill="#fff"/>
      <path id="Trazado_125591" data-name="Trazado 125591" d="M136.411,263.941l-16.4,9.467c-.306.179-.552,0-.552-.41h0a1.282,1.282,0,0,1,.552-1.036l16.4-9.474c.3-.171.544,0,.544.417h0a1.3,1.3,0,0,1-.544,1.036Z" transform="translate(-76.77 -141.207)" fill="#fff"/>
      <path id="Trazado_125592" data-name="Trazado 125592" d="M136.411,273.3l-16.4,9.474c-.306.171-.552,0-.552-.41h0a1.3,1.3,0,0,1,.552-1.044l16.4-9.467c.3-.179.544,0,.544.41h0A1.3,1.3,0,0,1,136.411,273.3Z" transform="translate(-76.77 -143.591)" fill="#fff"/>
      <path id="Trazado_125593" data-name="Trazado 125593" d="M136.411,282.671l-16.4,9.467c-.306.171-.552,0-.552-.41h0a1.312,1.312,0,0,1,.552-1.044l16.4-9.467c.3-.171.544,0,.544.41h0a1.312,1.312,0,0,1-.544,1.044Z" transform="translate(-76.77 -145.975)" fill="#fff"/>
      <path id="Trazado_125594" data-name="Trazado 125594" d="M136.411,249.68l-16.4,9.467c-.306.171-.552,0-.552-.41h0a1.3,1.3,0,0,1,.552-1.044l16.4-9.467c.3-.179.544,0,.544.41h0A1.319,1.319,0,0,1,136.411,249.68Z" transform="translate(-76.77 -137.576)" fill="#fff"/>
      <path id="Trazado_125595" data-name="Trazado 125595" d="M136.411,259.041l-16.4,9.467c-.306.179-.552,0-.552-.41h0a1.312,1.312,0,0,1,.552-1.044l16.4-9.467c.3-.171.544,0,.544.41h0a1.312,1.312,0,0,1-.544,1.044Z" transform="translate(-76.77 -139.96)" fill="#fff"/>
      <path id="Trazado_125596" data-name="Trazado 125596" d="M136.411,268.4l-16.4,9.474c-.306.171-.552,0-.552-.417h0a1.282,1.282,0,0,1,.552-1.036l16.4-9.474c.3-.171.544,0,.544.417h0A1.3,1.3,0,0,1,136.411,268.4Z" transform="translate(-76.77 -142.342)" fill="#fff"/>
      <path id="Trazado_125597" data-name="Trazado 125597" d="M136.411,277.77l-16.4,9.467c-.306.171-.552,0-.552-.41h0a1.3,1.3,0,0,1,.552-1.044l16.4-9.467c.3-.179.544,0,.544.41h0a1.319,1.319,0,0,1-.544,1.044Z" transform="translate(-76.77 -144.727)" fill="#fff"/>
      <path id="Trazado_125598" data-name="Trazado 125598" d="M202.894,257.891,155.12,285.479V220.531l47.774-27.581Z" transform="translate(-85.848 -123.521)" fill="#e0e0e0"/>
      <path id="Trazado_125599" data-name="Trazado 125599" d="M159.271,223.192,200.8,199.22c.581-.343,1.059-.067,1.059.6v34.088a2.341,2.341,0,0,1-1.059,1.826l-41.52,23.98c-.589.335-1.059.06-1.059-.611V225.019A2.333,2.333,0,0,1,159.271,223.192Z" transform="translate(-86.637 -125.08)" fill="#26aab7"/>
      <path id="Trazado_125600" data-name="Trazado 125600" d="M159.271,223.192,200.8,199.22c.581-.343,1.059-.067,1.059.6v34.088a2.341,2.341,0,0,1-1.059,1.826l-41.52,23.98c-.589.335-1.059.06-1.059-.611V225.019A2.333,2.333,0,0,1,159.271,223.192Z" transform="translate(-86.637 -125.08)" fill="#d2e1f1" opacity="0.8"/>
      <path id="Trazado_125601" data-name="Trazado 125601" d="M190.273,225.65l-6.94,12.277,4.875,6.321L172.1,230.383l-13.88,30.063v5.442c0,.671.47.947,1.059.611l41.52-23.98a2.341,2.341,0,0,0,1.058-1.826v-4.435Z" transform="translate(-86.637 -131.846)" fill="#1565c0"/>
      <path id="Trazado_125602" data-name="Trazado 125602" d="M206.94,210.453c1.148-.663,2.08-.127,2.08,1.2a4.607,4.607,0,0,1-2.08,3.608c-1.148.663-2.08.127-2.08-1.2A4.607,4.607,0,0,1,206.94,210.453Z" transform="translate(-98.511 -127.905)" fill="#26aab7"/>
      <path id="Trazado_125603" data-name="Trazado 125603" d="M169.65,275.726l34.96-20.186v13.984L169.65,289.71Z" transform="translate(-89.547 -139.455)" fill="#f0f0f0"/>
      <path id="Trazado_125604" data-name="Trazado 125604" d="M152.455,299.064,114.61,320.912V306.936l37.845-21.856Z" transform="translate(-75.535 -146.975)" fill="#1565c0"/>
    </g>
    <g id="freepik--Character--inject-119" transform="translate(203.627 161.374)">
      <path id="Trazado_125605" data-name="Trazado 125605" d="M291.712,207.59h.634a10.742,10.742,0,0,1,10.734,10.742V230.5H290.34a9.37,9.37,0,0,1-9.34-9.37v-2.8a10.742,10.742,0,0,1,10.712-10.742Z" transform="translate(-271.612 -207.59)" fill="#263238"/>
      <path id="Trazado_125606" data-name="Trazado 125606" d="M282.29,211.38a1.446,1.446,0,0,1,1.141,1.7l-2.84-.567a1.446,1.446,0,0,1,1.7-1.133Z" transform="translate(-271.507 -208.548)" fill="#263238"/>
      <path id="Trazado_125607" data-name="Trazado 125607" d="M284.736,210.22a1.491,1.491,0,0,1-.932,1.826l-.895-2.751a1.446,1.446,0,0,1,1.826.924Z" transform="translate(-272.098 -208.006)" fill="#263238"/>
      <path id="Trazado_125608" data-name="Trazado 125608" d="M307.917,380.489a29.9,29.9,0,0,0,4.212,3.667,1.752,1.752,0,0,1,.589.6c.2.417.507,1.439-1.379,2.095a7,7,0,0,1-5.822-.559c-1.543-.969-1.618-2.982-3.079-4.137-1.081-.85-2.438-1.066-3.31-2.184-.611-.745-.447-1.8-.134-3.086s.507-2.445.969-2.341l-.075.641c.574.924,3.563,1.193,4.89.559a53.481,53.481,0,0,0,3.138,4.741Z" transform="translate(-276.122 -250.092)" fill="#263238"/>
      <path id="Trazado_125609" data-name="Trazado 125609" d="M309.619,380.436h0c-.447-.41-.887-.835-1.3-1.3a34.993,34.993,0,0,1-2.437-3.585,4.048,4.048,0,0,1-.686-2.572l.373-3.436-4.726-.335-.552,4.637h0c-.112,1.051.745,1.983,2.3,3.31s3.489,4.42,4.883,5.218,2.393.745,2.982.35S311.118,381.964,309.619,380.436Z" transform="translate(-276.519 -248.735)" fill="#b16668"/>
      <path id="Trazado_125610" data-name="Trazado 125610" d="M284.845,382.836v-.708c.283.835,1.58,4.42,3.556,6.224,1.565,1.424,3.727,3.079,4.249,4.674s-2.982,2.236-4.473,1.953a9.02,9.02,0,0,1-5.1-2.736c-.842-1.036-1.379-2.236-1.983-3.079s-1.99-1.722-2.318-2.669a5.963,5.963,0,0,1,.291-2.609c.231-.872.477-1.841.745-1.759v.544a3.951,3.951,0,0,0,2.549.85C283.086,383.522,284.853,383.4,284.845,382.836Z" transform="translate(-271.037 -252.022)" fill="#263238"/>
      <path id="Trazado_125611" data-name="Trazado 125611" d="M290.2,388.214c-.485-.432-.977-.857-1.416-1.26a14.462,14.462,0,0,1-3.034-4.845,6.828,6.828,0,0,1-.522-2.616V376.66H280.26v4.614h0v.112h0c.239,1.036,2.52,3.779,3.817,5.576a7.178,7.178,0,0,0,4.473,2.982C290.5,390.227,291.419,389.63,290.2,388.214Z" transform="translate(-271.423 -250.631)" fill="#b16668"/>
      <path id="Trazado_125612" data-name="Trazado 125612" d="M280.82,279.037c-3.854,8.416.142,38.061.142,38.061-.119,1.364-1.677,4.055-2.236,10.063-.693,7.1,1.073,24.934,1.073,24.934a5.382,5.382,0,0,0,5.024.2s4.733-26.835,5.628-33.917c.745-6.165,2.236-20.648,2.236-20.648l3.876,20.782a29.07,29.07,0,0,0-1.491,6.008c-.4,4.152-.1,23.369-.1,23.369a6.84,6.84,0,0,0,4.95.813S305.56,322.4,306,317.4c.261-2.982-3.146-39.6-3.146-39.6Z" transform="translate(-270.992 -225.464)" fill="#37474f"/>
      <path id="Trazado_125613" data-name="Trazado 125613" d="M297.52,301.045l1.252-6.88s5.292-1.1,7.693-3.354a13.723,13.723,0,0,1-6.254,4.159l-1.409,6.016,2.236,18.8Z" transform="translate(-275.817 -228.776)" fill="#263238"/>
      <path id="Trazado_125614" data-name="Trazado 125614" d="M268.558,268.978c.127-.544,2.065-6.2,3.272-9.348l6.515,3.168-2.154,5.8-6.493,3.727C267.954,271.683,268.439,269.514,268.558,268.978Z" transform="translate(-268.405 -220.838)" fill="#b16668"/>
      <path id="Trazado_125615" data-name="Trazado 125615" d="M315.9,257.89l3.272,6-5.091,4.368-4.666-7.395Z" transform="translate(-278.844 -220.395)" fill="#b16668"/>
      <path id="Trazado_125616" data-name="Trazado 125616" d="M301.63,239.94c3.243,0,6.821,1.215,8.051,3.727s5.143,10.436,5.143,10.436a12.164,12.164,0,0,1-8.088,2.982Z" transform="translate(-276.864 -215.826)" fill="#1565c0"/>
      <path id="Trazado_125617" data-name="Trazado 125617" d="M301.63,239.94c3.243,0,6.821,1.215,8.051,3.727s5.143,10.436,5.143,10.436a12.164,12.164,0,0,1-8.088,2.982Z" transform="translate(-276.5 -215.72)" opacity="0.3"/>
      <path id="Trazado_125618" data-name="Trazado 125618" d="M289.633,240.052l-2.982.112c-2.937.708-3.727,2.728-4.987,5.337a8.438,8.438,0,0,0-.239,6.366l3.444,9.959s-1.61,3.891-3.481,7.574c8.639,4.823,19.426,2.288,22.02-1.23.112-.745-.037-4.107.171-7.939.224-4.077.783-8.692.142-11.181-1.126-4.711-3.362-9.109-7.834-9.109Z" transform="translate(-271.59 -215.826)" fill="#1565c0"/>
      <path id="Trazado_125619" data-name="Trazado 125619" d="M284.147,240.23c-4.145-.224-7.059.745-9.459,7.521-1.647,4.644-3.727,10.041-3.727,10.041a10.89,10.89,0,0,0,7.454,2.549C278.444,260.342,284.929,244.807,284.147,240.23Z" transform="translate(-269.056 -215.892)" fill="#1565c0"/>
      <path id="Trazado_125620" data-name="Trazado 125620" d="M284.147,240.23c-4.145-.224-7.059.745-9.459,7.521-1.647,4.644-3.727,10.041-3.727,10.041a10.89,10.89,0,0,0,7.454,2.549C278.444,260.342,284.929,244.807,284.147,240.23Z" transform="translate(-268.693 -215.787)" opacity="0.3"/>
      <path id="Trazado_125621" data-name="Trazado 125621" d="M300.591,213.58c1.17.693,2.609,3.63,2.467,9.787-.119,5.218-1.811,6.508-2.661,6.88s-2.482.142-4.077-.119v3.146s2.236,2.557,2.065,3.988-3.183,1.782-5.218.373a13.327,13.327,0,0,1-3.377-3.533v-7.588a2.005,2.005,0,0,1-2.84.268,3.758,3.758,0,0,1-.8-5.1c1.021-1.044,3.22-.708,3.638.745a12.628,12.628,0,0,0,5.919-1.767A9.489,9.489,0,0,0,300.591,213.58Z" transform="translate(-272.754 -209.115)" fill="#b16668"/>
      <path id="Trazado_125622" data-name="Trazado 125622" d="M301.092,224.828a.656.656,0,1,1-.686-.648A.671.671,0,0,1,301.092,224.828Z" transform="translate(-276.393 -211.813)" fill="#263238"/>
      <path id="Trazado_125623" data-name="Trazado 125623" d="M301.466,230.88l1.491.492a.79.79,0,0,1-.991.544.835.835,0,0,1-.5-1.036Z" transform="translate(-276.812 -213.519)" fill="#9a4a4d"/>
      <path id="Trazado_125624" data-name="Trazado 125624" d="M308.007,221.8l-1.327-.932a.745.745,0,0,1,1.1-.224A.85.85,0,0,1,308.007,221.8Z" transform="translate(-278.149 -210.875)" fill="#263238"/>
      <path id="Trazado_125625" data-name="Trazado 125625" d="M307.762,224.676a.656.656,0,1,1-.693-.656.678.678,0,0,1,.693.656Z" transform="translate(-278.091 -211.773)" fill="#263238"/>
      <path id="Trazado_125626" data-name="Trazado 125626" d="M303.9,223.81l.1,3.951,2.08-.641Z" transform="translate(-277.442 -211.719)" fill="#9a4a4d"/>
      <path id="Trazado_125627" data-name="Trazado 125627" d="M298.063,234.9c-1.677-.224-5.129-1.215-5.673-2.579a3.6,3.6,0,0,0,1.215,1.744c1.029.88,4.473,1.878,4.473,1.878Z" transform="translate(-274.511 -213.886)" fill="#9a4a4d"/>
      <path id="Trazado_125628" data-name="Trazado 125628" d="M323.874,253.78,301.437,261.5l-7.007,29.057,21.491-7.954Z" transform="translate(-275.031 -219.349)" fill="#f5f5f5"/>
      <path id="Trazado_125629" data-name="Trazado 125629" d="M298.572,290.085l18.516-6.455-1.379,5.352-18.479,6.746Z" transform="translate(-275.744 -226.948)" fill="#e0e0e0"/>
      <path id="Trazado_125630" data-name="Trazado 125630" d="M314.494,280.412l-.514,3.287,7.633-2.848.977-3.392Z" transform="translate(-280.008 -225.377)" fill="#e6e6e6"/>
      <path id="Trazado_125631" data-name="Trazado 125631" d="M302.42,272.637l8.356-2.877-2.244,12.56-9.333,3.131Z" transform="translate(-276.245 -223.417)" fill="#e0e0e0"/>
      <path id="Trazado_125632" data-name="Trazado 125632" d="M325.463,264.56l-2.251,8.162-8.192,3.034,1.409-7.767Z" transform="translate(-280.272 -222.093)" fill="#e6e6e6"/>
      <path id="Trazado_125633" data-name="Trazado 125633" d="M324.22,256.71l-19.329,6.6-1.081,4.458,19.284-6.947Z" transform="translate(-277.419 -220.095)" fill="#e0e0e0"/>
      <path id="Trazado_125634" data-name="Trazado 125634" d="M322,278.08a3.427,3.427,0,0,0,3.436,1.714l.276-.977Z" transform="translate(-282.049 -225.535)" opacity="0.15"/>
      <path id="Trazado_125635" data-name="Trazado 125635" d="M309.136,279.37c-.082.634-1.379,1.8-3.571,2.527a18.672,18.672,0,0,1-6.366.425l.291-1.237Z" transform="translate(-276.245 -225.864)" opacity="0.15"/>
      <path id="Trazado_125636" data-name="Trazado 125636" d="M270.14,275.089l6.821-4.6s10.242,3.772,11.755,3.891a3.973,3.973,0,0,0,3.779-2.438c.574-1.491,1.6-1.3,1.6-1.3s-.447,1.886-.6,2.49,3.489,1.1,5.509.417,4.927.306,3.123,3.049-5.322,3.056-7.76,3.064a25.235,25.235,0,0,1-3.056-.209c-.79-.1-1.573-.179-2.363-.239C283.945,278.861,272.414,275.8,270.14,275.089Z" transform="translate(-268.847 -223.603)" fill="#b16668"/>
      <path id="Trazado_125637" data-name="Trazado 125637" d="M328.053,266.222s-.671,2.43-.835,2.982-2.378,1.632-3.772,2.02-2.937.842-2.236,2.8c.611,1.811,2.915,2.236,4.092,2.169a4.323,4.323,0,0,0,3.407-2.982c.813-2.3.373-4.763.693-6.112S328.754,265.417,328.053,266.222Z" transform="translate(-281.804 -222.406)" fill="#b16668"/>
    </g>
    <g id="freepik--paper-planes--inject-119" transform="translate(278.985 101.501)">
      <path id="Trazado_125638" data-name="Trazado 125638" d="M425.12,233.943l31.531-20.193,13.887,4.465Z" transform="translate(-383.66 -149.285)" fill="#26aab7"/>
      <path id="Trazado_125639" data-name="Trazado 125639" d="M425.12,230.69l27.253-22.728-6.053-6.992Z" transform="translate(-383.66 -146.032)" fill="#26aab7"/>
      <path id="Trazado_125640" data-name="Trazado 125640" d="M452.373,210.35v5.278l-27.253,17.45Z" transform="translate(-383.66 -148.42)" fill="#26aab7"/>
      <path id="Trazado_125641" data-name="Trazado 125641" d="M452.373,210.35v5.278l-27.253,17.45Z" transform="translate(-383.66 -148.42)" opacity="0.3"/>
      <path id="Trazado_125642" data-name="Trazado 125642" d="M369.5,234.884l23.257-14.894,10.25,3.287Z" transform="translate(-369.5 -150.874)" fill="#26aab7"/>
      <path id="Trazado_125643" data-name="Trazado 125643" d="M369.5,232.483l20.1-16.765-4.465-5.158Z" transform="translate(-369.5 -148.473)" fill="#26aab7"/>
      <path id="Trazado_125644" data-name="Trazado 125644" d="M389.6,217.48v3.891l-20.1,12.873Z" transform="translate(-369.5 -150.235)" fill="#26aab7"/>
      <path id="Trazado_125645" data-name="Trazado 125645" d="M389.6,217.48v3.891l-20.1,12.873Z" transform="translate(-369.5 -150.235)" opacity="0.3"/>
      <path id="Trazado_125646" data-name="Trazado 125646" d="M454.31,187.739a.559.559,0,0,1-.38-.969,22.609,22.609,0,0,0,2.907-3.25.567.567,0,0,1,.783-.119.552.552,0,0,1,.119.783,24.368,24.368,0,0,1-3.049,3.407A.567.567,0,0,1,454.31,187.739Zm4.935-6.493a.627.627,0,0,1-.253-.06.559.559,0,0,1-.239-.745,23.147,23.147,0,0,0,1.6-4.055.552.552,0,0,1,.686-.388.567.567,0,0,1,.388.693,23.5,23.5,0,0,1-1.677,4.256.552.552,0,0,1-.5.3Zm2.37-7.8h-.067a.552.552,0,0,1-.484-.619,23.716,23.716,0,0,0,.164-2.818c0-.514,0-1.036-.045-1.543a.557.557,0,1,1,1.111-.075c.037.537.052,1.081.052,1.618a26.026,26.026,0,0,1-.171,2.981A.567.567,0,0,1,461.616,173.441Zm-.388-8.155a.559.559,0,0,1-.544-.44,27.045,27.045,0,0,0-1.26-4.2.559.559,0,1,1,1.044-.4,28.2,28.2,0,0,1,1.312,4.368.559.559,0,0,1-.432.656.328.328,0,0,1-.119.015Zm-2.855-7.655a.567.567,0,0,1-.492-.291,30.619,30.619,0,0,0-2.37-3.727.559.559,0,1,1,.895-.671,32.92,32.92,0,0,1,2.46,3.824.559.559,0,0,1-.224.745.574.574,0,0,1-.268.119Zm-4.808-6.612a.529.529,0,0,1-.4-.179,37.412,37.412,0,0,0-3.2-3.026.568.568,0,0,1,.745-.857A37.382,37.382,0,0,1,454,150.08a.559.559,0,0,1-.41.939Zm-6.2-5.315a.559.559,0,0,1-.313-.1c-1.1-.745-2.274-1.491-3.481-2.184l-.276-.157a.559.559,0,1,1,.559-.969l.276.157c1.23.7,2.43,1.491,3.556,2.236a.559.559,0,0,1-.321,1.021Zm-7.014-4.241a.515.515,0,0,1-.276-.075l-3.876-2.236a.559.559,0,1,1,.567-.962l3.869,2.236a.559.559,0,0,1-.283,1.044Zm-7.1-4.107a.552.552,0,0,1-.276-.075l-3.869-2.236a.559.559,0,0,1-.209-.745.566.566,0,0,1,.745-.209l3.869,2.236a.559.559,0,0,1-.283,1.044Zm-7.1-4.107a.559.559,0,0,1-.276-.082l-3.869-2.236a.566.566,0,0,1-.209-.745.559.559,0,0,1,.745-.2l3.869,2.236a.559.559,0,0,1,.209.745.574.574,0,0,1-.47.261Zm-7.089-4.115a.559.559,0,0,1-.283-.075l-1.349-.745a.559.559,0,1,1,.559-.969l1.349.745a.567.567,0,0,1,.209.745.559.559,0,0,1-.484.276Z" transform="translate(-381.632 -127.269)" fill="#e6e6e6"/>
      <path id="Trazado_125647" data-name="Trazado 125647" d="M402.631,196.611a.559.559,0,0,1-.358-.984l2.78-2.3a.568.568,0,0,1,.745.857l-2.78,2.3A.537.537,0,0,1,402.631,196.611Zm5.658-4.666a.552.552,0,0,1-.432-.2.566.566,0,0,1,.075-.79l3.451-2.848a.559.559,0,0,1,.708.865l-3.444,2.848a.582.582,0,0,1-.358.127Zm6.217-5.337a.581.581,0,0,1-.4-.171.559.559,0,0,1,0-.79,43.427,43.427,0,0,0,2.982-3.228.574.574,0,0,1,.79-.067.566.566,0,0,1,.067.79c-.954,1.126-1.99,2.236-3.094,3.31a.544.544,0,0,1-.343.157Zm5.322-6.217a.559.559,0,0,1-.313-.1.552.552,0,0,1-.142-.745,36.223,36.223,0,0,0,2.3-3.727.559.559,0,1,1,.984.522,37.684,37.684,0,0,1-2.37,3.869.559.559,0,0,1-.462.186Zm3.9-7.193a.641.641,0,0,1-.2,0,.559.559,0,0,1-.321-.745,29.743,29.743,0,0,0,1.3-4.189.559.559,0,1,1,1.088.246,30.361,30.361,0,0,1-1.342,4.346.559.559,0,0,1-.522.343Zm1.893-7.946h-.052a.552.552,0,0,1-.507-.6c.06-.745.089-1.431.089-2.139a17.56,17.56,0,0,0-.1-2.236.552.552,0,0,1,.507-.6.567.567,0,0,1,.6.507c.067.745.1,1.551.1,2.326a17.043,17.043,0,0,1-.1,2.236.559.559,0,0,1-.552.514Zm-.626-8.14a.567.567,0,0,1-.544-.425,24.123,24.123,0,0,0-1.416-4.13.559.559,0,1,1,1.021-.455,26.362,26.362,0,0,1,1.491,4.316.566.566,0,0,1-.41.678Zm-3.213-7.506a.567.567,0,0,1-.477-.253,27.211,27.211,0,0,0-2.631-3.5.562.562,0,0,1,.842-.745,29.366,29.366,0,0,1,2.736,3.638.552.552,0,0,1-.47.857Zm-5.322-6.2a.559.559,0,0,1-.373-.142,33.312,33.312,0,0,0-3.474-2.691.56.56,0,1,1,.634-.924,35.512,35.512,0,0,1,3.585,2.78.559.559,0,0,1,.045.79.544.544,0,0,1-.417.186Zm-6.709-4.711a.574.574,0,0,1-.291-.082l-3.831-2.3a.559.559,0,1,1,.552-.969c.313.179,2.8,1.677,3.854,2.318a.559.559,0,0,1-.283,1.036Z" transform="translate(-377.793 -129.299)" fill="#e6e6e6"/>
    </g>
  </g>
</svg>
