<svg xmlns="http://www.w3.org/2000/svg" width="336.347" height="256.904" viewBox="0 0 336.347 256.904"><g transform="translate(0)"><g transform="translate(9.253 139.33)"><path d="M231.818,327.54c11.094,6.4,29.017,6.4,40.02,0,5.511-3.208,8.253-7.4,8.227-11.6s-2.808-8.4-8.358-11.6c-11.094-6.4-29.017-6.4-40.02,0-5.511,3.2-8.253,7.4-8.227,11.6S226.268,324.332,231.818,327.54Z" transform="translate(-84.564 -274.626)" fill="#e0e0e0"/><path d="M376.554,330.92c-17.143-9.893-44.842-9.893-61.873,0-15.043,8.745-16.716,22.306-5.078,32.147-9.388-.577-19.118,1.207-26.288,5.373-12.583,7.315-12.518,19.17.144,26.485s33.137,7.315,45.721,0c10.011-5.819,12.006-14.512,6.029-21.506,14.433,2.086,30.31-.131,41.542-6.659C393.782,356.86,393.69,340.82,376.554,330.92Z" transform="translate(-69.01 -282.867)" fill="#e0e0e0"/><path d="M80.419,330.97c17.143-9.893,44.842-9.893,61.866,0,15.05,8.745,16.723,22.306,5.084,32.147,9.388-.584,19.118,1.207,26.288,5.373,12.583,7.315,12.518,19.17-.151,26.485s-33.131,7.308-45.721,0c-10.011-5.819-12.006-14.512-6.023-21.505-14.433,2.086-30.31-.131-41.548-6.666C63.191,356.91,63.277,340.9,80.419,330.97Z" transform="translate(-67.505 -282.884)" fill="#e0e0e0"/><path d="M209.45,263.661c-4.842-2.795-12.668-2.795-17.484,0s-4.789,7.335.059,10.129,12.668,2.795,17.484,0S214.3,266.443,209.45,263.661Z" transform="translate(-84.72 -261.565)" fill="#e0e0e0"/></g><g transform="translate(99.875 75.282)"><path d="M212.75,240.23l-11.73.341-11.73-.341c-.505,7.919,1.043,15.995,3.175,19.938h0a5.379,5.379,0,0,0,2.322,2.362,13.9,13.9,0,0,0,12.465,0,5.189,5.189,0,0,0,2.322-2.427C211.72,256.139,213.249,248.109,212.75,240.23Z" transform="translate(-175.539 -190.179)" fill="#fff"/><path d="M209.344,231.867c4.592,2.624,4.592,6.954.053,9.6s-11.993,2.624-16.585,0-4.592-6.954-.053-9.6S204.751,229.21,209.344,231.867Z" transform="translate(-175.596 -186.618)" fill="#ebebeb"/><path d="M208.873,233.706c3.582,2.067,3.6,5.426.039,7.492a14.254,14.254,0,0,1-12.937,0c-3.582-2.073-3.6-5.426-.039-7.492A14.254,14.254,0,0,1,208.873,233.706Z" transform="translate(-176.943 -187.402)" fill="#e0e0e0"/><g transform="translate(16.333 44.752)" opacity="0.15"><path d="M208.873,233.706c3.582,2.067,3.6,5.426.039,7.492a14.254,14.254,0,0,1-12.937,0c-3.582-2.073-3.6-5.426-.039-7.492A14.254,14.254,0,0,1,208.873,233.706Z" transform="translate(-193.276 -232.154)"/></g><path d="M224.1,163.94c-26.433,8.66-26.642,26.341-20.738,38.93,1.5,2.552,6.055,3.936,10.011-11.743l-6.941.892,8.089-4.1,2.1-6.285-6.744.505,8.575-3.6a127.066,127.066,0,0,1,5.649-14.6Z" transform="translate(-179.334 -163.94)" fill="#fafafa"/><path d="M224.1,163.94c-26.433,8.66-26.642,26.341-20.738,38.93,1.5,2.552,6.055,3.936,10.011-11.743l-6.941.892,8.089-4.1,2.1-6.285-6.744.505,8.575-3.6a127.066,127.066,0,0,1,5.649-14.6Z" transform="translate(-179.334 -163.94)" opacity="0.2"/><path d="M224.1,163.94c-26.433,8.66-26.642,26.341-20.738,38.93,1.5,2.552,6.055,3.936,10.011-11.743l-6.941.892,8.089-4.1,2.1-6.285-6.744.505,8.575-3.6a127.066,127.066,0,0,1,5.649-14.6Z" transform="translate(-179.334 -163.94)" fill="#fff" opacity="0.2"/><path d="M218.3,170.68c-13.922,10.582-15.2,22.713-11.258,35.375C205.645,194.9,204.143,183.631,218.3,170.68Z" transform="translate(-181.01 -166.258)" fill="#fff"/><path d="M168.38,191.32c26.052,3.667,29.214,20.095,25.757,32.8-.978,2.624-4.986,4.651-11.278-9.277l6.613-.321-8.22-2.46-3-5.5,6.364-.656-8.575-1.929a119.607,119.607,0,0,0-7.663-12.655Z" transform="translate(-168.38 -173.357)" fill="#fafafa"/><path d="M168.38,191.32c26.052,3.667,29.214,20.095,25.757,32.8-.978,2.624-4.986,4.651-11.278-9.277l6.613-.321-8.22-2.46-3-5.5,6.364-.656-8.575-1.929a119.607,119.607,0,0,0-7.663-12.655Z" transform="translate(-168.38 -173.357)" fill="#fff" opacity="0.2"/><path d="M168.38,191.32c26.052,3.667,29.214,20.095,25.757,32.8-.978,2.624-4.986,4.651-11.278-9.277l6.613-.321-8.22-2.46-3-5.5,6.364-.656-8.575-1.929a119.607,119.607,0,0,0-7.663-12.655Z" transform="translate(-168.38 -173.357)" opacity="0.1"/><path d="M180.11,195.71c14.735,7.532,17.924,18.619,16.362,31.064C195.914,216.159,195.442,205.413,180.11,195.71Z" transform="translate(-172.414 -174.867)" fill="#fff"/><path d="M233.976,200.71c-23.894.387-28.584,14.84-26.9,26.688.59,2.473,3.976,4.756,11.2-7.092l-5.9-1.037,7.669-1.312,3.32-4.592-5.662-1.312,7.938-.781a108.629,108.629,0,0,1,8.338-10.562Z" transform="translate(-181.583 -176.587)" fill="#fafafa"/><path d="M227.615,203.34c-14.125,5.143-18.238,14.781-18.225,26.177C211.1,220.01,212.71,210.373,227.615,203.34Z" transform="translate(-182.485 -177.491)" fill="#fff"/><path d="M233.976,200.71c-23.894.387-28.584,14.84-26.9,26.688.59,2.473,3.976,4.756,11.2-7.092l-5.9-1.037,7.669-1.312,3.32-4.592-5.662-1.312,7.938-.781a108.629,108.629,0,0,1,8.338-10.562Z" transform="translate(-181.583 -176.587)" fill="#fff" opacity="0.2"/></g><g transform="translate(227.068 0)"><path d="M367.88,101.37l-.19,67.01,3.733,2.152.19-67.009Z" transform="translate(-319.076 -67.137)" fill="#e0e0e0"/><path d="M373.57,104.65h0l-.19,67.01,3.241-1.883.177-63.263Z" transform="translate(-321.033 -68.265)" fill="#f0f0f0"/><rect height="4.304" transform="translate(48.813 34.23) rotate(-60)" fill="#e0e0e0"/><path d="M371.7,106.527l.013-3-3.733-2.152-.007,3,3.726,2.152Z" transform="translate(-319.172 -67.137)" opacity="0.2"/><path d="M373.65,107.655l2.618-1.5-2.6-1.5h0Z" transform="translate(-321.126 -68.265)" opacity="0.2"/><rect height="4.304" transform="translate(48.813 34.23) rotate(-60)" fill="#e0e0e0"/><path d="M299.484,60.883,302.725,59l-.184,67.016L299.3,127.9Z" transform="translate(-295.554 -52.564)" fill="#f0f0f0"/><path d="M299.3,163.033l3.241-1.883,93.482,53.967-3.241,1.889Z" transform="translate(-295.554 -87.698)" fill="#f5f5f5"/><path d="M293.806,52.06l100.941,58.277-.216,75.584L293.59,127.644Zm97.011,127.426.19-67.016L297.52,58.5l-.19,67,93.488,53.974" transform="translate(-293.59 -50.177)" fill="#e0e0e0"/><path d="M293.92,51.073l3.241-1.883L398.1,107.467l-3.241,1.883Z" transform="translate(-293.703 -49.19)" fill="#f5f5f5"/><path d="M447.666,139.9l3.241-1.883-.216,75.584-3.241,1.883Z" transform="translate(-346.509 -79.743)" fill="#f0f0f0"/></g><g transform="translate(3.3 12.091)"><path d="M87.53,146.549h0c.321-.151.656-.315.978-.479h0C88.186,146.234,87.838,146.391,87.53,146.549Z" transform="translate(-68.439 -94.602)" fill="none"/><path d="M87,146.967h0l.361-.177h0Z" transform="translate(-68.256 -94.85)" fill="none"/><path d="M96.6,84.96l-7.453,4.3L81.58,93.633l7.564-4.376Z" transform="translate(-66.392 -73.584)" fill="none"/><path d="M104.559,115.456l-.02-6.915-.02-6.311.02,6.311Z" transform="translate(-74.282 -79.524)" fill="none"/><path d="M89,146.008l.2-.1Z" transform="translate(-68.944 -94.547)" fill="none"/><path d="M104.693,162.891l-.02-5.78-.013-5.052.013,5.052Z" transform="translate(-74.33 -96.663)" fill="none"/><path d="M82.58,148.247c.958-.341,1.922-.741,2.893-1.187h0C84.5,147.506,83.512,147.906,82.58,148.247Z" transform="translate(-66.736 -94.943)" fill="none"/><path d="M70.75,117.47l.059,22.2.039,12.865-.039-12.865Z" transform="translate(-62.667 -84.766)" fill="none"/><path d="M93.082,157.112V152.06l-.23.131c-.144.079-.282.164-.42.249a52.691,52.691,0,0,0-10.976,9.631c-.577.656-1.155,1.273-1.712,1.922-2.946,3.366-5.826,6.935-8.785,10.274v8.174l3.562-2.06A78.7,78.7,0,0,1,93.082,157.112Z" transform="translate(-62.74 -96.663)" fill="#ebebeb"/><path d="M100.767,175.331V168.58a42.354,42.354,0,0,0-7.577,11.153Z" transform="translate(-70.385 -102.345)" fill="#ebebeb"/><path d="M87.409,176.679a42.356,42.356,0,0,1,7.577-11.153V159.74A78.535,78.535,0,0,0,76.44,183.01l10.989-6.344Z" transform="translate(-64.624 -99.304)" fill="#fafafa"/><path d="M87,147.06h0" transform="translate(-68.256 -94.943)" fill="none" stroke="gray" stroke-linecap="round" stroke-linejoin="round" stroke-width="0"/><path d="M87.53,146.8h0" transform="translate(-68.439 -94.854)" fill="none" stroke="gray" stroke-linecap="round" stroke-linejoin="round" stroke-width="0"/><path d="M77.989,138.254c.177-.052.348-.118.518-.177.958-.341,1.922-.741,2.893-1.187l.354-.171c.328-.157.656-.315.984-.485.558-.289,1.122-.584,1.686-.905-.564.321-1.128.617-1.686.905l.2-.1c.492-.256.991-.525,1.489-.807l.315-.184.262-.151a53.529,53.529,0,0,0,7.623-5.465c.112-.092.223-.184.328-.282v-8.529c-5.426,2.775-10.759,3.635-15.089,2.3a13.193,13.193,0,0,1-7.131-5.524l.059,22.2A26.152,26.152,0,0,0,77.989,138.254Z" transform="translate(-62.664 -84.772)" fill="#fafafa"/><path d="M81.423,159.5A52.2,52.2,0,0,1,92.4,149.871c.138-.085.276-.171.42-.249l.23-.131v-4.9A106.059,106.059,0,0,0,73.065,159.8c-.722.656-1.443,1.391-2.165,2.067V171.7c2.959-3.339,5.839-6.908,8.785-10.274C80.269,160.775,80.846,160.132,81.423,159.5Z" transform="translate(-62.719 -94.093)" fill="#fafafa"/><path d="M93.008,141.433V135.41c-.1.1-.216.19-.328.282a53.53,53.53,0,0,1-7.623,5.465l-.262.151-.315.184c-.5.282-1,.551-1.489.807l-.2.1-.138.072h0l.138-.072c-.328.164-.656.328-.978.479l-.361.177c-.971.446-1.935.846-2.893,1.187l.545-.2-.545.2c-.171.059-.341.125-.518.177a26.15,26.15,0,0,1-7.217,1.424l.039,12.865c.722-.656,1.443-1.378,2.165-2.067A106.061,106.061,0,0,1,93.008,141.433Z" transform="translate(-62.691 -90.936)" fill="#ebebeb"/><path d="M96.646,104.854V98.543a10.609,10.609,0,0,1-7.486-7.033L81.57,95.886A15.643,15.643,0,0,0,96.646,104.854Z" transform="translate(-66.389 -75.837)" fill="#fafafa"/><path d="M77.885,116.359c4.3,1.312,9.637.479,15.089-2.3v-6.915A15.673,15.673,0,0,1,77.885,98.18l-7.125,4.113v8.529A13.193,13.193,0,0,0,77.885,116.359Z" transform="translate(-62.671 -78.131)" fill="#ebebeb"/><path d="M93.448,81.68,68.8,95.91l.177,64.477,24.648-14.2Zm-23.2,76.555V140.22L70.2,127.355l-.059-22.2V96.625l7.125-4.113,7.571-4.376L92.2,83.858v61.6l-7.6,4.389h0l-10.989,6.344Z" transform="translate(-61.997 -72.456)" fill="#fff"/><path d="M88.79,146.19h0" transform="translate(-68.872 -94.644)" fill="none" stroke="gray" stroke-linecap="round" stroke-linejoin="round" stroke-width="0"/><path d="M88.82,146.132l.138-.072" transform="translate(-68.882 -94.599)" fill="none" stroke="gray" stroke-linecap="round" stroke-linejoin="round" stroke-width="0"/><path d="M90.716,144.68c-.564.321-1.128.617-1.686.905" transform="translate(-68.955 -94.124)" fill="none" stroke="gray" stroke-linecap="round" stroke-linejoin="round" stroke-width="0"/><line transform="translate(20.075 51.461)" fill="none" stroke="gray" stroke-linecap="round" stroke-linejoin="round" stroke-width="0"/><path d="M82.58,148.763l.545-.2" transform="translate(-66.736 -95.459)" fill="none" stroke="gray" stroke-linecap="round" stroke-linejoin="round" stroke-width="0"/><path d="M100.6,96.29V84.96l-7.486,4.3A10.647,10.647,0,0,0,100.6,96.29Z" transform="translate(-70.358 -73.584)" fill="#ebebeb"/><path d="M93.718,179.96,69.07,194.19l.007,1.712L95.2,180.819Z" transform="translate(-62.09 -106.259)" fill="#cacaca"/><path d="M106.37,81.233l.177,64.477,1.483.859-.184-66.189Z" transform="translate(-74.919 -72.009)" fill="#f0f0f0"/><path d="M96.8,69.92,62.72,89.6l.184,75.315,34.076-19.682Zm-29.9,88.135v-1.712l-.177-64.477,24.648-14.23,1.476-.853.184,66.189Z" transform="translate(-59.906 -68.411)" fill="#e0e0e0"/><path d="M95.32,69.129,92.506,67.62,58.43,87.3,61.244,88.8Z" transform="translate(-58.43 -67.62)" fill="#f5f5f5"/><path d="M58.43,97.61l.217,75.322,2.808,1.509-.21-75.322Z" transform="translate(-58.43 -77.935)" fill="#f0f0f0"/></g><g transform="translate(73.946 8.641)"><path d="M166.71,72.394h0l.236-.184h0Z" transform="translate(-149.128 -65.749)" fill="none"/><path d="M164.7,74.139l.046-.039Z" transform="translate(-148.436 -66.399)" fill="none"/><path d="M178.9,66.276l.335-.066-.321.059Z" transform="translate(-153.32 -63.685)" fill="none"/><path d="M177.75,66.552l.3-.072-.289.072Z" transform="translate(-152.925 -63.778)" fill="none"/><path d="M172.89,68.5Z" transform="translate(-151.253 -64.473)" fill="none"/><path d="M156.776,128.173a6.368,6.368,0,0,1-.656-.223,6.374,6.374,0,0,0,.656.223Z" transform="translate(-145.486 -84.92)" fill="none"/><path d="M153.41,88.036h0l.138-.236h0Z" transform="translate(-144.553 -71.111)" fill="none"/><path d="M154.65,85.982l.171-.262h0Z" transform="translate(-144.98 -70.395)" fill="none"/><path d="M162.68,75.988a1.43,1.43,0,0,1,.144-.138A1.427,1.427,0,0,0,162.68,75.988Z" transform="translate(-147.742 -67.001)" fill="none"/><path d="M161.32,77.447l.007-.007-.007.007Z" transform="translate(-147.274 -67.547)" fill="none"/><path d="M158,81.383V81.35h0Z" transform="translate(-146.132 -68.892)" fill="none"/><path d="M159.449,128.739a5.987,5.987,0,0,1-.689-.079A5.987,5.987,0,0,0,159.449,128.739Z" transform="translate(-146.394 -85.164)" fill="none"/><path d="M178.58,119.67c-.341.341-.7.656-1.05.984C177.884,120.339,178.239,120.011,178.58,119.67Z" transform="translate(-152.849 -82.072)" fill="none"/><path d="M170.928,125.61c-.328.19-.656.361-.978.525C170.271,125.971,170.6,125.8,170.928,125.61Z" transform="translate(-150.242 -84.115)" fill="none"/><path d="M172.654,124.45c-.4.262-.807.525-1.214.761C171.847,124.975,172.254,124.712,172.654,124.45Z" transform="translate(-150.755 -83.716)" fill="none"/><path d="M163.684,128.54l-.354.066Z" transform="translate(-147.965 -85.123)" fill="none"/><path d="M151.27,92.148l.046-.1h0Z" transform="translate(-143.817 -72.573)" fill="none"/><path d="M185,66.07Z" transform="translate(-155.419 -63.637)" fill="none"/><path d="M181.42,65.94h0Z" transform="translate(-154.187 -63.592)" fill="none"/><path d="M183.58,65.91Z" transform="translate(-154.93 -63.582)" fill="none"/><path d="M180.08,66.066h0l.354-.046-.315.039Z" transform="translate(-153.726 -63.62)" fill="none"/><path d="M186.6,66.42h0l.125.039h-.066Z" transform="translate(-155.969 -63.757)" fill="none"/><path d="M187.78,66.83l.118.052-.1-.046Z" transform="translate(-156.375 -63.898)" fill="none"/><path d="M168.94,70.85h0Z" transform="translate(-149.895 -65.281)" fill="none"/><path d="M146.34,118.11a2.451,2.451,0,0,0,.085.479C146.393,118.431,146.366,118.267,146.34,118.11Z" transform="translate(-142.122 -81.536)" fill="none"/><path d="M146.91,120.63c.046.144.079.282.125.42C146.969,120.912,146.969,120.774,146.91,120.63Z" transform="translate(-142.318 -82.402)" fill="none"/><path d="M146.6,119.41c.033.151.066.3.1.44C146.666,119.705,146.633,119.561,146.6,119.41Z" transform="translate(-142.211 -81.983)" fill="none"/><path d="M147.72,122.89c.053.125.1.249.157.367C147.818,123.139,147.773,123.015,147.72,122.89Z" transform="translate(-142.596 -83.18)" fill="none"/><path d="M147.29,121.79c.046.131.085.269.138.394C147.375,122.059,147.336,121.928,147.29,121.79Z" transform="translate(-142.448 -82.801)" fill="none"/><path d="M148.2,123.93c.059.112.112.23.177.341C148.312,124.16,148.259,124.042,148.2,123.93Z" transform="translate(-142.761 -83.537)" fill="none"/><path d="M148.34,99.367v0Z" transform="translate(-142.81 -75.087)" fill="none"/><path d="M170.915,69.37c-.236.131-.466.276-.7.42C170.45,69.646,170.679,69.5,170.915,69.37Z" transform="translate(-150.335 -64.772)" fill="none"/><path d="M146,115.21a3.282,3.282,0,0,0,.046.656C146.033,115.63,146,115.42,146,115.21Z" transform="translate(-142.005 -80.538)" fill="none"/><path d="M146.14,116.69a3.832,3.832,0,0,0,.066.551C146.179,117.064,146.16,116.893,146.14,116.69Z" transform="translate(-142.053 -81.047)" fill="none"/><path d="M145.94,113.27v.964A7.882,7.882,0,0,0,145.94,113.27Z" transform="translate(-141.984 -79.871)" fill="none"/><path d="M146,111.06Z" transform="translate(-142.005 -79.111)" fill="none"/><path d="M146.25,108.317v0Z" transform="translate(-142.091 -78.107)" fill="none"/><path d="M150.873,127.669l-.243-.249Z" transform="translate(-143.597 -84.738)" fill="none"/><path d="M146.81,105.032v0Z" transform="translate(-142.283 -76.999)" fill="none"/><path d="M146.49,106.543h0l.079-.453h0Z" transform="translate(-142.173 -77.401)" fill="none"/><path d="M148.73,124.9l.2.321Z" transform="translate(-142.944 -83.871)" fill="none"/><path d="M152.14,128.75l.276.21Z" transform="translate(-144.117 -85.195)" fill="none"/><path d="M150,126.64c.072.092.144.19.223.276A.842.842,0,0,1,150,126.64Z" transform="translate(-143.381 -84.47)" fill="none"/><path d="M149.32,125.81l.21.3Z" transform="translate(-143.147 -84.184)" fill="none"/><path d="M151.37,128.12l.256.23Z" transform="translate(-143.852 -84.979)" fill="none"/><path d="M188.38,70.15l.249.157Z" transform="translate(-156.581 -65.04)" fill="none"/><path d="M191.91,99.312c.164-.426.321-.853.459-1.312C192.231,98.433,192.074,98.859,191.91,99.312Z" transform="translate(-157.795 -74.619)" fill="none"/><path d="M192.67,97.152h0c.151-.44.282-.886.407-1.312h0C192.946,96.266,192.814,96.713,192.67,97.152Z" transform="translate(-158.057 -73.876)" fill="none"/><path d="M150.907,105.522c.23.039.459.066.7.085h1.253a7.313,7.313,0,0,0,1.03-.1,3.246,3.246,0,0,0,.7-.131l.223-.052a1.873,1.873,0,0,0,.486-.118l.833-.256.171-.066c.223-.079.453-.164.656-.256l.262-.112.735-.335.282-.138c.321-.164.656-.335.978-.525s.814-.5,1.214-.761l.2-.138c.387-.262.761-.538,1.135-.827l.217-.171c.381-.3.761-.6,1.128-.932l.1-.085c.354-.321.709-.656,1.05-.984l.171-.164q.4-.394.787-.807l.046-.046c.243-.262.486-.531.722-.8l.157-.184c.387-.446.761-.905,1.128-1.378l.118-.157c.3-.381.584-.768.859-1.161l.125-.171c.262-.381.525-.774.781-1.168l.177-.282c.2-.321.407-.656.6-.984l.125-.21c.216-.374.433-.761.656-1.148l.151-.282.472-.932.151-.308c.184-.387.367-.787.538-1.181l.072-.171c.151-.361.3-.715.44-1.076.046-.1.085-.217.125-.321.164-.426.315-.859.459-1.312a.66.66,0,0,0,.033-.1c.151-.44.282-.886.407-1.312a1.248,1.248,0,0,1,.072-.256c.144-.518.269-1.03.381-1.542a1.583,1.583,0,0,1,.072-.341l.1-.571a2.448,2.448,0,0,1,.072-.42c.026-.144.066-.413.092-.617s.039-.249.052-.374c.059-.44.1-.886.131-1.312v-.282q.039-.656.039-1.312c0-3.661-.984-6.508-2.624-8.378-2.493-.525-5.5.059-8.752,1.929-8.529,4.92-15.4,16.848-15.378,26.642,0,3.648.984,6.488,2.624,8.358l.23.052Z" transform="translate(-142.627 -64.428)" fill="none"/><path d="M186.86,109.484c.2-.321.407-.656.6-.984C187.267,108.835,187.07,109.156,186.86,109.484Z" transform="translate(-156.058 -78.23)" fill="none"/><path d="M182,115.9c.387-.446.761-.905,1.128-1.378C182.761,114.992,182.387,115.452,182,115.9Z" transform="translate(-154.387 -80.301)" fill="none"/><path d="M189.642,104.63c-.157.308-.308.617-.472.925C189.334,105.247,189.485,104.938,189.642,104.63Z" transform="translate(-156.853 -76.899)" fill="none"/><path d="M188,107.618h0c.217-.381.433-.768.656-1.148h0C188.413,106.857,188.2,107.244,188,107.618Z" transform="translate(-156.45 -77.532)" fill="none"/><path d="M154.976,127.39h-.046a7,7,0,0,0,.656.308h0A5.771,5.771,0,0,1,154.976,127.39Z" transform="translate(-145.076 -84.727)" fill="none"/><path d="M185.4,111.638c.269-.381.525-.774.781-1.168C185.925,110.864,185.669,111.257,185.4,111.638Z" transform="translate(-155.556 -78.908)" fill="none"/><path d="M180.67,117.694c.243-.262.479-.525.715-.794h0C181.149,117.169,180.886,117.431,180.67,117.694Z" transform="translate(-153.929 -81.119)" fill="none"/><path d="M175.67,122.2q.6-.472,1.181-.984l-.059.052C176.424,121.6,176.044,121.909,175.67,122.2Z" transform="translate(-152.21 -82.605)" fill="none"/><path d="M173.521,123.748l-.151.1a17.536,17.536,0,0,0,1.43-1.037,1.209,1.209,0,0,1-.144.112C174.282,123.21,173.908,123.486,173.521,123.748Z" transform="translate(-151.419 -83.152)" fill="none"/><path d="M154.79,127.3Z" transform="translate(-145.028 -84.697)" fill="none"/><path d="M179.39,119q.407-.394.787-.807Q179.79,118.6,179.39,119Z" transform="translate(-153.489 -81.563)" fill="none"/><path d="M168.4,126.913h0c.3-.125.6-.262.9-.413l-.164.079A7.279,7.279,0,0,1,168.4,126.913Z" transform="translate(-149.709 -84.421)" fill="none"/><path d="M166.481,127.552l-.171.066-.82.256a16.036,16.036,0,0,0,1.679-.584h0Z" transform="translate(-148.708 -84.693)" fill="none"/><path d="M161.73,128.779l.492-.039Z" transform="translate(-147.415 -85.192)" fill="none"/><path d="M160.08,128.81h.892C160.684,128.823,160.369,128.823,160.08,128.81Z" transform="translate(-146.848 -85.216)" fill="none"/><path d="M157.29,128.35c.249.066.505.125.768.171h0C157.789,128.475,157.533,128.416,157.29,128.35Z" transform="translate(-145.888 -85.058)" fill="none"/><path d="M164.39,128.406l.269-.066h-.066Z" transform="translate(-148.33 -85.054)" fill="none"/><path d="M183.91,113.671h0c.289-.381.577-.768.853-1.161h0C184.487,112.9,184.2,113.291,183.91,113.671Z" transform="translate(-155.044 -79.61)" fill="none"/><path d="M191.76,73.41c.052.085.118.164.171.249C191.878,73.574,191.812,73.5,191.76,73.41Z" transform="translate(-157.744 -66.161)" fill="none"/><path d="M191.16,72.63c.066.079.131.151.2.236C191.291,72.781,191.226,72.709,191.16,72.63Z" transform="translate(-157.537 -65.893)" fill="none"/><path d="M192.3,74.25l.157.269Z" transform="translate(-157.929 -66.45)" fill="none"/><path d="M189.85,71.26l.223.2Z" transform="translate(-157.087 -65.422)" fill="none"/><path d="M189.13,70.67c.079.059.164.118.236.184C189.294,70.788,189.209,70.729,189.13,70.67Z" transform="translate(-156.839 -65.219)" fill="none"/><path d="M190.53,71.92l.21.21Z" transform="translate(-157.321 -65.649)" fill="none"/><path d="M191.49,100.45c-.138.361-.282.715-.44,1.076C191.207,101.165,191.352,100.811,191.49,100.45Z" transform="translate(-157.499 -75.462)" fill="none"/><path d="M190.658,102.35c-.171.4-.354.794-.538,1.181C190.3,103.144,190.487,102.776,190.658,102.35Z" transform="translate(-157.18 -76.115)" fill="none"/><path d="M170.761,101.105c.243-.262.479-.525.715-.794h0l.157-.184h0c.387-.446.761-.905,1.128-1.378l.125-.157h0c.289-.381.577-.768.853-1.161h0l.125-.171h0c.269-.381.525-.774.781-1.168l.177-.282h0c.21-.321.407-.656.6-.984.039-.066.079-.138.125-.2h0c.216-.374.433-.761.656-1.142h0l.151-.289c.164-.308.315-.617.472-.925.046-.1.1-.21.151-.315.184-.387.367-.781.538-1.181,0-.059.052-.112.072-.171.157-.361.3-.715.44-1.076.046-.1.085-.216.125-.321h0c.164-.426.321-.853.459-1.312a.492.492,0,0,0,0-.1h0c.144-.44.276-.886.4-1.312h0a1.246,1.246,0,0,1,.072-.256c.144-.518.269-1.03.381-1.542h0a1.584,1.584,0,0,1,.072-.341l.118-.6a2.649,2.649,0,0,1,.066-.387V83.32a5,5,0,0,1,.092-.617c.026-.2.039-.249.052-.374.059-.44.1-.886.131-1.312v-.282q.039-.656.039-1.312V78.2a2.794,2.794,0,0,0-.039-.538c-.039-.177,0-.216-.039-.328a4.358,4.358,0,0,1-.059-.5l-.059-.341a2.111,2.111,0,0,0-.079-.453l-.079-.341c-.033-.138-.059-.282-.092-.413l-.1-.335c-.039-.131-.072-.262-.112-.387l-.118-.321c-.039-.118-.079-.243-.125-.361s-.092-.2-.131-.3-.1-.23-.151-.341-.092-.19-.144-.289-.1-.217-.164-.315l-.157-.269c-.059-.1-.118-.2-.184-.3s-.118-.164-.171-.249l-.2-.276c-.066-.085-.131-.157-.2-.236l-.2-.256-.21-.21-.223-.236-.223-.2c-.079-.072-.151-.138-.236-.2s-.157-.125-.236-.184l-.243-.184-.249-.157a7.7,7.7,0,0,0-2.467-1c1.66,1.87,2.624,4.717,2.624,8.378q0,.656-.039,1.312v.282c-.033.433-.072.879-.131,1.312a2.44,2.44,0,0,1-.053.374c-.02.125-.059.413-.092.617s-.052.282-.072.42l-.118.6a1.585,1.585,0,0,1-.072.341c-.112.512-.236,1.023-.381,1.542a.937.937,0,0,1-.072.256c-.125.44-.256.886-.407,1.312a.658.658,0,0,1-.033.1c-.144.426-.3.859-.459,1.312-.039.1-.079.216-.125.321-.138.361-.289.715-.44,1.076l-.072.171c-.171.394-.354.794-.538,1.181l-.151.308-.472.932-.151.282c-.2.387-.42.774-.656,1.148l-.125.21c-.2.335-.4.656-.6.984l-.177.282c-.256.394-.518.787-.781,1.168l-.125.171c-.276.394-.564.781-.859,1.161l-.118.157c-.367.472-.741.932-1.128,1.378l-.157.184c-.236.269-.479.538-.722.8l-.046.046q-.387.413-.787.807l-.171.164c-.341.335-.7.656-1.05.984l-.1.085c-.367.328-.748.656-1.128.932l-.217.171c-.374.289-.748.564-1.135.827l-.2.138c-.4.262-.807.525-1.214.761s-.656.361-.978.525l-.282.138-.735.335-.262.112c-.223.092-.453.177-.656.256l-.171.066-.833.256c-.164.046-.321.085-.485.118l-.223.052c-.23.052-.466.1-.7.131a10.134,10.134,0,0,1-1.03.1H153a4.112,4.112,0,0,1-.7-.085l-.21-.033-.23-.052a7.473,7.473,0,0,0,1.916,1.561h0l.079.039h.046a5.767,5.767,0,0,0,.571.282h0l.2.079a6.369,6.369,0,0,0,.656.223l.112.039c.243.066.5.125.754.171h.2a5.986,5.986,0,0,0,.689.079h1.247l.492-.039a4.157,4.157,0,0,0,.558-.066l.354-.066.341-.066.2-.052h.066l.433-.1.82-.256.171-.066.656-.256h0l.249-.1h0c.243-.1.492-.216.735-.335l.164-.079.118-.059c.321-.164.656-.335.978-.525s.814-.5,1.214-.761l.052-.039.151-.1c.387-.262.761-.538,1.135-.827a1.206,1.206,0,0,0,.144-.112l.079-.059c.374-.3.754-.6,1.122-.932l.059-.052h.039c.354-.315.709-.656,1.05-.984a2.013,2.013,0,0,0,.171-.164q.407-.394.787-.807Z" transform="translate(-144.02 -64.531)" fill="#1565c0"/><path d="M170.761,101.105c.243-.262.479-.525.715-.794h0l.157-.184h0c.387-.446.761-.905,1.128-1.378l.125-.157h0c.289-.381.577-.768.853-1.161h0l.125-.171h0c.269-.381.525-.774.781-1.168l.177-.282h0c.21-.321.407-.656.6-.984.039-.066.079-.138.125-.2h0c.216-.374.433-.761.656-1.142h0l.151-.289c.164-.308.315-.617.472-.925.046-.1.1-.21.151-.315.184-.387.367-.781.538-1.181,0-.059.052-.112.072-.171.157-.361.3-.715.44-1.076.046-.1.085-.216.125-.321h0c.164-.426.321-.853.459-1.312a.492.492,0,0,0,0-.1h0c.144-.44.276-.886.4-1.312h0a1.246,1.246,0,0,1,.072-.256c.144-.518.269-1.03.381-1.542h0a1.584,1.584,0,0,1,.072-.341l.118-.6a2.649,2.649,0,0,1,.066-.387V83.32a5,5,0,0,1,.092-.617c.026-.2.039-.249.052-.374.059-.44.1-.886.131-1.312v-.282q.039-.656.039-1.312V78.2a2.794,2.794,0,0,0-.039-.538c-.039-.177,0-.216-.039-.328a4.358,4.358,0,0,1-.059-.5l-.059-.341a2.111,2.111,0,0,0-.079-.453l-.079-.341c-.033-.138-.059-.282-.092-.413l-.1-.335c-.039-.131-.072-.262-.112-.387l-.118-.321c-.039-.118-.079-.243-.125-.361s-.092-.2-.131-.3-.1-.23-.151-.341-.092-.19-.144-.289-.1-.217-.164-.315l-.157-.269c-.059-.1-.118-.2-.184-.3s-.118-.164-.171-.249l-.2-.276c-.066-.085-.131-.157-.2-.236l-.2-.256-.21-.21-.223-.236-.223-.2c-.079-.072-.151-.138-.236-.2s-.157-.125-.236-.184l-.243-.184-.249-.157a7.7,7.7,0,0,0-2.467-1c1.66,1.87,2.624,4.717,2.624,8.378q0,.656-.039,1.312v.282c-.033.433-.072.879-.131,1.312a2.44,2.44,0,0,1-.053.374c-.02.125-.059.413-.092.617s-.052.282-.072.42l-.118.6a1.585,1.585,0,0,1-.072.341c-.112.512-.236,1.023-.381,1.542a.937.937,0,0,1-.072.256c-.125.44-.256.886-.407,1.312a.658.658,0,0,1-.033.1c-.144.426-.3.859-.459,1.312-.039.1-.079.216-.125.321-.138.361-.289.715-.44,1.076l-.072.171c-.171.394-.354.794-.538,1.181l-.151.308-.472.932-.151.282c-.2.387-.42.774-.656,1.148l-.125.21c-.2.335-.4.656-.6.984l-.177.282c-.256.394-.518.787-.781,1.168l-.125.171c-.276.394-.564.781-.859,1.161l-.118.157c-.367.472-.741.932-1.128,1.378l-.157.184c-.236.269-.479.538-.722.8l-.046.046q-.387.413-.787.807l-.171.164c-.341.335-.7.656-1.05.984l-.1.085c-.367.328-.748.656-1.128.932l-.217.171c-.374.289-.748.564-1.135.827l-.2.138c-.4.262-.807.525-1.214.761s-.656.361-.978.525l-.282.138-.735.335-.262.112c-.223.092-.453.177-.656.256l-.171.066-.833.256c-.164.046-.321.085-.485.118l-.223.052c-.23.052-.466.1-.7.131a10.134,10.134,0,0,1-1.03.1H153a4.112,4.112,0,0,1-.7-.085l-.21-.033-.23-.052a7.473,7.473,0,0,0,1.916,1.561h0l.079.039h.046a5.767,5.767,0,0,0,.571.282h0l.2.079a6.369,6.369,0,0,0,.656.223l.112.039c.243.066.5.125.754.171h.2a5.986,5.986,0,0,0,.689.079h1.247l.492-.039a4.157,4.157,0,0,0,.558-.066l.354-.066.341-.066.2-.052h.066l.433-.1.82-.256.171-.066.656-.256h0l.249-.1h0c.243-.1.492-.216.735-.335l.164-.079.118-.059c.321-.164.656-.335.978-.525s.814-.5,1.214-.761l.052-.039.151-.1c.387-.262.761-.538,1.135-.827a1.206,1.206,0,0,0,.144-.112l.079-.059c.374-.3.754-.6,1.122-.932l.059-.052h.039c.354-.315.709-.656,1.05-.984a2.013,2.013,0,0,0,.171-.164q.407-.394.787-.807Z" transform="translate(-144.02 -64.531)" opacity="0.3"/><path d="M160.1,68.641c-8.529,4.92-15.411,16.841-15.385,26.636s6.961,13.738,15.483,8.824,15.411-16.848,15.378-26.636S168.627,63.72,160.1,68.641Zm-.112,2.664-.3.171v3.083l.518-.3-.518.3V71.475Zm-.21,15.489.039.039h0a.042.042,0,0,1-.039-.039l-4.291-7.263Zm0,14.938V98.655l.3-.177-.3.177v3.077l.387-.216Zm.249-14.84h0l6.561-.512Zm6.39,9.218.709-.879h0Zm3-20.744,2.316-2.88h0Z" transform="translate(-141.565 -63.793)" fill="#1565c0"/><path d="M160.1,68.641c-8.529,4.92-15.411,16.841-15.385,26.636s6.961,13.738,15.483,8.824,15.411-16.848,15.378-26.636S168.627,63.72,160.1,68.641Zm-.112,2.664-.3.171v3.083l.518-.3-.518.3V71.475Zm-.21,15.489.039.039h0a.042.042,0,0,1-.039-.039l-4.291-7.263Zm0,14.938V98.655l.3-.177-.3.177v3.077l.387-.216Zm.249-14.84h0l6.561-.512Zm6.39,9.218.709-.879h0Zm3-20.744,2.316-2.88h0Z" transform="translate(-141.65 -63.793)" fill="#fff" opacity="0.2"/><g transform="translate(18.178 21.544)" opacity="0.4"><path d="M168.026,95.758a.531.531,0,0,1,.164-.052h.138l6.456-.505c.21,0,.308.2.216.5a.9.9,0,0,1-.374.5.453.453,0,0,1-.164.059l-6.561.512h-.033c-.21,0-.308-.2-.217-.492A.912.912,0,0,1,168.026,95.758Z" transform="translate(-167.618 -95.2)" fill="#fff"/></g><g transform="translate(13.899 14.793)" opacity="0.5"><path d="M161.5,84.969c.151-.092.3-.079.367.046l4.218,7.171h-.138a.531.531,0,0,0-.164.052.912.912,0,0,0-.374.505c-.092.289,0,.512.216.492h.039a.2.2,0,0,1-.243-.1l-4.291-7.263a.735.735,0,0,1,.184-.748A.656.656,0,0,1,161.5,84.969Z" transform="translate(-161.096 -84.909)" fill="#fff"/></g><g transform="translate(5.425 5.641)" opacity="0.3"><path d="M150.857,105.28v.945l-2.677,1.548v-.951Z" transform="translate(-148.18 -82.764)" fill="#fff"/><path d="M184.066,74.77l.413.577-2.316,2.88-.413-.584Z" transform="translate(-159.726 -72.27)" fill="#fff"/><path d="M168.377,73.35l.007,3.083-.82.472-.013-3.083Z" transform="translate(-154.842 -71.782)" fill="#fff"/><path d="M158.325,81.92l1.345,1.9-.709.886-1.351-1.9Z" transform="translate(-151.423 -74.73)" fill="#fff"/><path d="M150.927,94.48l2.329.19-.413,1.063-2.322-.2Z" transform="translate(-148.985 -79.05)" fill="#fff"/><path d="M152.9,113.5l.413.584-2.316,2.88-.413-.584Z" transform="translate(-149.005 -85.591)" fill="#fff"/><path d="M159.052,117.24l.722.059-1.338,3.444-.715-.059Z" transform="translate(-151.461 -86.878)" fill="#fff"/><path d="M168.49,114.78l.013,3.077-.827.472-.007-3.077Z" transform="translate(-154.883 -86.032)" fill="#fff"/><path d="M176.449,107.39l1.351,1.9-.709.879-1.351-1.9Z" transform="translate(-157.659 -83.49)" fill="#fff"/><path d="M182.213,97.16l2.322.2-.407,1.063-2.329-.2Z" transform="translate(-159.743 -79.971)" fill="#fff"/><path d="M186.907,84.46l.007.951L184.23,86.96v-.951Z" transform="translate(-160.579 -75.603)" fill="#fff"/><path d="M176.982,70.96l.715.066-1.332,3.438-.715-.059Z" transform="translate(-157.628 -70.96)" fill="#fff"/></g><path d="M147.944,105.916l-.249-.184-.256-.23-.236-.21-.243-.249-.223-.236c-.079-.085-.151-.184-.223-.276s-.144-.164-.21-.249l-.21-.3-.19-.276-.2-.321c-.052-.1-.118-.19-.171-.3s-.118-.23-.177-.341-.112-.2-.157-.315-.1-.243-.157-.367-.1-.216-.144-.328-.092-.262-.138-.394-.085-.223-.125-.341-.079-.276-.125-.42a3.371,3.371,0,0,1-.1-.361c-.026-.125-.072-.289-.1-.44s-.059-.249-.085-.374-.059-.321-.085-.479-.046-.249-.066-.381-.046-.367-.066-.551l-.039-.341c0-.21-.033-.42-.046-.656V95.734c0-.479,0-.964.046-1.45h0v-.1a14.114,14.114,0,0,1,.151-1.64h0v-.177c.039-.3.085-.6.131-.892h0l.079-.453h0c.046-.216.085-.44.131-.656h0v-.112a34.479,34.479,0,0,1,.984-3.641h0a38.407,38.407,0,0,1,1.922-4.7l.046-.1h0c.426-.866.879-1.719,1.358-2.552h0l.138-.23h0c.223-.367.446-.735.656-1.1l.171-.256h0q.945-1.463,2-2.834v-.033h0c.7-.892,1.424-1.752,2.178-2.559h0c.3-.308.584-.61.886-.905h0a1.431,1.431,0,0,1,.144-.138c.387-.381.781-.754,1.181-1.109h0l.046-.039c.413-.367.84-.722,1.273-1.056h0l.236-.184h0c.4-.315.814-.61,1.227-.892h.046c.262-.177.531-.354.794-.518s.459-.289.7-.42c.354-.2.709-.394,1.056-.571h0a17.286,17.286,0,0,1,3.162-1.24h0l.289-.072.459-.112h0l.321-.059.42-.079h.039l.315-.039.545-.052h.21a10.377,10.377,0,0,1,1.194,0h.164a4.674,4.674,0,0,1,.741.092h0a8.691,8.691,0,0,1,1.03.223h.1a6.4,6.4,0,0,1,.656.236h0l.1.046a7.546,7.546,0,0,1,.9.433h0l-3.864-2.362-.092-.066-.1-.052c-.2-.112-.407-.21-.617-.3l-.118-.059-.1-.033a7.213,7.213,0,0,0-.748-.262h-.033a8.527,8.527,0,0,0-.833-.2h-.23c-.249-.039-.5-.072-.754-.092h-.164a9.434,9.434,0,0,0-.964,0h-.63a4.081,4.081,0,0,0-.656.079h0c-.249.033-.5.085-.754.138l-.236.059-.479.112h-.046c-.3.079-.6.171-.9.276l-.184.066-.735.282-.1.039-.184.079c-.262.118-.525.236-.794.367l-.3.144c-.348.177-.7.367-1.056.571s-.879.531-1.312.82l-.223.151c-.413.282-.827.577-1.227.892l-.236.184q-.617.479-1.22,1l-.1.092q-.584.518-1.142,1.063l-.118.112-.066.072c-.289.282-.571.571-.853.873l-.039.046q-.4.42-.787.866a.453.453,0,0,0-.072.085l-.092.1c-.42.485-.833.984-1.227,1.5a.118.118,0,0,0-.033.046l-.092.118q-.472.617-.925,1.26l-.1.125-.039.066c-.289.413-.571.833-.84,1.253,0,.046-.059.085-.085.125l-.112.184c-.223.348-.44.7-.656,1.056l-.1.171-.039.066q-.354.61-.689,1.24a.715.715,0,0,0-.053.1c-.039.066-.072.138-.111.21-.171.328-.341.656-.505,1l-.1.21-.059.125c-.2.426-.4.853-.584,1.312v.039a.421.421,0,0,1-.053.131c-.171.387-.328.781-.485,1.174,0,.066-.052.125-.072.19l-.059.157c-.177.466-.341.925-.5,1.391h0a.369.369,0,0,0,0,.079c-.157.479-.3.958-.44,1.443l-.059.177v.1c-.151.558-.289,1.115-.413,1.666a1.246,1.246,0,0,1-.033.151l-.039.216c-.046.216-.092.433-.131.656l-.079.453q-.059.335-.1.656a2.73,2.73,0,0,1-.052.321.32.32,0,0,1,0,.079q-.092.715-.138,1.437v.3c0,.492-.046.971-.046,1.45,0,5.248,1.87,8.962,4.861,10.7l4.094,2.375-.262-.164-.262-.164Z" transform="translate(-139.921 -62.361)" fill="#1565c0"/><path d="M147.944,105.916l-.249-.184-.256-.23-.236-.21-.243-.249-.223-.236c-.079-.085-.151-.184-.223-.276s-.144-.164-.21-.249l-.21-.3-.19-.276-.2-.321c-.052-.1-.118-.19-.171-.3s-.118-.23-.177-.341-.112-.2-.157-.315-.1-.243-.157-.367-.1-.216-.144-.328-.092-.262-.138-.394-.085-.223-.125-.341-.079-.276-.125-.42a3.371,3.371,0,0,1-.1-.361c-.026-.125-.072-.289-.1-.44s-.059-.249-.085-.374-.059-.321-.085-.479-.046-.249-.066-.381-.046-.367-.066-.551l-.039-.341c0-.21-.033-.42-.046-.656V95.734c0-.479,0-.964.046-1.45h0v-.1a14.114,14.114,0,0,1,.151-1.64h0v-.177c.039-.3.085-.6.131-.892h0l.079-.453h0c.046-.216.085-.44.131-.656h0v-.112a34.479,34.479,0,0,1,.984-3.641h0a38.407,38.407,0,0,1,1.922-4.7l.046-.1h0c.426-.866.879-1.719,1.358-2.552h0l.138-.23h0c.223-.367.446-.735.656-1.1l.171-.256h0q.945-1.463,2-2.834v-.033h0c.7-.892,1.424-1.752,2.178-2.559h0c.3-.308.584-.61.886-.905h0a1.431,1.431,0,0,1,.144-.138c.387-.381.781-.754,1.181-1.109h0l.046-.039c.413-.367.84-.722,1.273-1.056h0l.236-.184h0c.4-.315.814-.61,1.227-.892h.046c.262-.177.531-.354.794-.518s.459-.289.7-.42c.354-.2.709-.394,1.056-.571h0a17.286,17.286,0,0,1,3.162-1.24h0l.289-.072.459-.112h0l.321-.059.42-.079h.039l.315-.039.545-.052h.21a10.377,10.377,0,0,1,1.194,0h.164a4.674,4.674,0,0,1,.741.092h0a8.691,8.691,0,0,1,1.03.223h.1a6.4,6.4,0,0,1,.656.236h0l.1.046a7.546,7.546,0,0,1,.9.433h0l-3.864-2.362-.092-.066-.1-.052c-.2-.112-.407-.21-.617-.3l-.118-.059-.1-.033a7.213,7.213,0,0,0-.748-.262h-.033a8.527,8.527,0,0,0-.833-.2h-.23c-.249-.039-.5-.072-.754-.092h-.164a9.434,9.434,0,0,0-.964,0h-.63a4.081,4.081,0,0,0-.656.079h0c-.249.033-.5.085-.754.138l-.236.059-.479.112h-.046c-.3.079-.6.171-.9.276l-.184.066-.735.282-.1.039-.184.079c-.262.118-.525.236-.794.367l-.3.144c-.348.177-.7.367-1.056.571s-.879.531-1.312.82l-.223.151c-.413.282-.827.577-1.227.892l-.236.184q-.617.479-1.22,1l-.1.092q-.584.518-1.142,1.063l-.118.112-.066.072c-.289.282-.571.571-.853.873l-.039.046q-.4.42-.787.866a.453.453,0,0,0-.072.085l-.092.1c-.42.485-.833.984-1.227,1.5a.118.118,0,0,0-.033.046l-.092.118q-.472.617-.925,1.26l-.1.125-.039.066c-.289.413-.571.833-.84,1.253,0,.046-.059.085-.085.125l-.112.184c-.223.348-.44.7-.656,1.056l-.1.171-.039.066q-.354.61-.689,1.24a.715.715,0,0,0-.053.1c-.039.066-.072.138-.111.21-.171.328-.341.656-.505,1l-.1.21-.059.125c-.2.426-.4.853-.584,1.312v.039a.421.421,0,0,1-.053.131c-.171.387-.328.781-.485,1.174,0,.066-.052.125-.072.19l-.059.157c-.177.466-.341.925-.5,1.391h0a.369.369,0,0,0,0,.079c-.157.479-.3.958-.44,1.443l-.059.177v.1c-.151.558-.289,1.115-.413,1.666a1.246,1.246,0,0,1-.033.151l-.039.216c-.046.216-.092.433-.131.656l-.079.453q-.059.335-.1.656a2.73,2.73,0,0,1-.052.321.32.32,0,0,1,0,.079q-.092.715-.138,1.437v.3c0,.492-.046.971-.046,1.45,0,5.248,1.87,8.962,4.861,10.7l4.094,2.375-.262-.164-.262-.164Z" transform="translate(-139.94 -62.361)" fill="#1565c0" opacity="0.2"/><path d="M147.944,105.916l-.249-.184-.256-.23-.236-.21-.243-.249-.223-.236c-.079-.085-.151-.184-.223-.276s-.144-.164-.21-.249l-.21-.3-.19-.276-.2-.321c-.052-.1-.118-.19-.171-.3s-.118-.23-.177-.341-.112-.2-.157-.315-.1-.243-.157-.367-.1-.216-.144-.328-.092-.262-.138-.394-.085-.223-.125-.341-.079-.276-.125-.42a3.371,3.371,0,0,1-.1-.361c-.026-.125-.072-.289-.1-.44s-.059-.249-.085-.374-.059-.321-.085-.479-.046-.249-.066-.381-.046-.367-.066-.551l-.039-.341c0-.21-.033-.42-.046-.656V95.734c0-.479,0-.964.046-1.45h0v-.1a14.114,14.114,0,0,1,.151-1.64h0v-.177c.039-.3.085-.6.131-.892h0l.079-.453h0c.046-.216.085-.44.131-.656h0v-.112a34.479,34.479,0,0,1,.984-3.641h0a38.407,38.407,0,0,1,1.922-4.7l.046-.1h0c.426-.866.879-1.719,1.358-2.552h0l.138-.23h0c.223-.367.446-.735.656-1.1l.171-.256h0q.945-1.463,2-2.834v-.033h0c.7-.892,1.424-1.752,2.178-2.559h0c.3-.308.584-.61.886-.905h0a1.431,1.431,0,0,1,.144-.138c.387-.381.781-.754,1.181-1.109h0l.046-.039c.413-.367.84-.722,1.273-1.056h0l.236-.184h0c.4-.315.814-.61,1.227-.892h.046c.262-.177.531-.354.794-.518s.459-.289.7-.42c.354-.2.709-.394,1.056-.571h0a17.286,17.286,0,0,1,3.162-1.24h0l.289-.072.459-.112h0l.321-.059.42-.079h.039l.315-.039.545-.052h.21a10.377,10.377,0,0,1,1.194,0h.164a4.674,4.674,0,0,1,.741.092h0a8.691,8.691,0,0,1,1.03.223h.1a6.4,6.4,0,0,1,.656.236h0l.1.046a7.546,7.546,0,0,1,.9.433h0l-3.864-2.362-.092-.066-.1-.052c-.2-.112-.407-.21-.617-.3l-.118-.059-.1-.033a7.213,7.213,0,0,0-.748-.262h-.033a8.527,8.527,0,0,0-.833-.2h-.23c-.249-.039-.5-.072-.754-.092h-.164a9.434,9.434,0,0,0-.964,0h-.63a4.081,4.081,0,0,0-.656.079h0c-.249.033-.5.085-.754.138l-.236.059-.479.112h-.046c-.3.079-.6.171-.9.276l-.184.066-.735.282-.1.039-.184.079c-.262.118-.525.236-.794.367l-.3.144c-.348.177-.7.367-1.056.571s-.879.531-1.312.82l-.223.151c-.413.282-.827.577-1.227.892l-.236.184q-.617.479-1.22,1l-.1.092q-.584.518-1.142,1.063l-.118.112-.066.072c-.289.282-.571.571-.853.873l-.039.046q-.4.42-.787.866a.453.453,0,0,0-.072.085l-.092.1c-.42.485-.833.984-1.227,1.5a.118.118,0,0,0-.033.046l-.092.118q-.472.617-.925,1.26l-.1.125-.039.066c-.289.413-.571.833-.84,1.253,0,.046-.059.085-.085.125l-.112.184c-.223.348-.44.7-.656,1.056l-.1.171-.039.066q-.354.61-.689,1.24a.715.715,0,0,0-.053.1c-.039.066-.072.138-.111.21-.171.328-.341.656-.505,1l-.1.21-.059.125c-.2.426-.4.853-.584,1.312v.039a.421.421,0,0,1-.053.131c-.171.387-.328.781-.485,1.174,0,.066-.052.125-.072.19l-.059.157c-.177.466-.341.925-.5,1.391h0a.369.369,0,0,0,0,.079c-.157.479-.3.958-.44,1.443l-.059.177v.1c-.151.558-.289,1.115-.413,1.666a1.246,1.246,0,0,1-.033.151l-.039.216c-.046.216-.092.433-.131.656l-.079.453q-.059.335-.1.656a2.73,2.73,0,0,1-.052.321.32.32,0,0,1,0,.079q-.092.715-.138,1.437v.3c0,.492-.046.971-.046,1.45,0,5.248,1.87,8.962,4.861,10.7l4.094,2.375-.262-.164-.262-.164Z" transform="translate(-139.94 -62.361)" fill="#fff" opacity="0.3"/><path d="M174.489,67a7.549,7.549,0,0,0-.9-.433l-.118-.052q-.328-.125-.656-.236l-.125-.039a8.691,8.691,0,0,0-1.03-.223h0c-.243-.039-.492-.072-.741-.092h-.19a10.375,10.375,0,0,0-1.194,0h-.21l-.545.052-.354.046-.42.079-.335.066-.459.112-.3.072a17.286,17.286,0,0,0-3.162,1.24h0c-.348.177-.7.367-1.056.571-.236.131-.466.276-.7.42s-.531.341-.794.518h-.046c-.413.282-.827.577-1.227.892l-.236.184c-.433.335-.859.689-1.273,1.056l-.046.039c-.4.354-.794.728-1.181,1.109a1.431,1.431,0,0,0-.144.138c-.3.3-.59.6-.886.905h0c-.754.807-1.483,1.666-2.178,2.559v.033q-1.056,1.371-2,2.834l-.171.262c-.23.367-.453.735-.656,1.1l-.138.236c-.479.833-.932,1.686-1.358,2.552l-.046.1a38.41,38.41,0,0,0-1.922,4.7h0a34.489,34.489,0,0,0-.984,3.641v.112c-.046.216-.085.44-.131.656l-.079.453c-.046.3-.092.59-.131.892v.177c-.066.551-.118,1.1-.151,1.64v.1c0,.485-.046.971-.046,1.45v1.273a3.283,3.283,0,0,0,.046.656l.039.341a3.835,3.835,0,0,0,.066.551c.026.177.046.256.066.381s.052.321.085.479.059.249.085.374.066.3.1.44.066.243.1.361.079.282.125.42.079.23.125.341.085.269.138.394.092.223.144.328.1.249.157.367l.157.315c.052.1.112.23.177.341s.118.2.171.3l.2.321.19.276.21.3c.066.085.138.164.21.249s.144.19.223.276l.223.236.243.249.236.21.256.23.249.184.276.21.262.164c3.051,1.968,7.354,1.758,12.124-1,9.218-5.321,16.657-18.212,16.631-28.794C179.37,72.436,177.5,68.735,174.489,67Zm-6.521,34.016a2.01,2.01,0,0,1-.171.164c-.341.341-.7.656-1.05.984h-.039q-.584.512-1.181.984l-.079.059c-.466.367-.945.715-1.43,1.037l-.052.039c-.4.262-.807.525-1.214.761s-.656.361-.978.525l-.118.059c-.3.151-.6.289-.9.413l-.249.1a16.037,16.037,0,0,1-1.68.584l-.433.1-.269.066-.341.066-.354.066c-.19,0-.374.053-.558.066l-.492.039h-1.26a5.982,5.982,0,0,1-.689-.079h-.2c-.262-.046-.518-.1-.768-.171l-.112-.039a6.369,6.369,0,0,1-.656-.223l-.2-.079a6.991,6.991,0,0,1-.656-.308l-.079-.039h0a7.472,7.472,0,0,1-1.916-1.561c-1.653-1.87-2.624-4.71-2.624-8.358,0-9.795,6.862-21.722,15.378-26.642,3.247-1.87,6.259-2.454,8.752-1.929a7.7,7.7,0,0,1,2.467,1l.249.157.243.184c.079.059.164.118.236.184s.157.131.236.2l.223.2.223.236.21.21.2.256c.066.079.131.151.2.236l.2.276c.052.085.118.164.171.249s.125.2.184.3l.157.269c.059.1.112.21.164.315s.1.19.144.289.1.223.151.341.085.2.131.3.085.243.125.361l.118.321c.039.125.072.256.112.387l.1.335c.033.131.059.276.092.413l.079.341c.033.144.053.3.079.453l.059.341a4.478,4.478,0,0,0,.059.5c.02.171.033.216.039.328a3.444,3.444,0,0,0,.039.538.9.9,0,0,1,0,.328v.9q0,.656-.039,1.312v.282a9.878,9.878,0,0,1-.131,1.312,2.446,2.446,0,0,1-.052.374c-.02.125-.059.433-.1.656s-.046.256-.066.387l-.118.6a1.584,1.584,0,0,1-.072.341c-.112.512-.236,1.023-.381,1.542a.938.938,0,0,1-.072.256c-.125.44-.256.886-.407,1.312a.492.492,0,0,1,0,.1c-.138.433-.3.859-.459,1.312-.039.1-.079.216-.125.321-.138.361-.282.715-.44,1.076,0,.059-.046.112-.072.171-.171.4-.354.794-.538,1.181-.052.1-.1.21-.151.315-.157.308-.308.617-.472.925l-.151.289c-.2.381-.42.768-.656,1.148-.046.066-.085.138-.125.2-.2.335-.4.656-.6.984l-.177.282c-.256.394-.512.787-.781,1.168l-.125.171c-.276.394-.564.781-.853,1.161l-.125.157c-.367.472-.741.932-1.128,1.378l-.157.184c-.236.269-.472.531-.715.794l-.053.052A9.637,9.637,0,0,1,167.968,101.013Z" transform="translate(-142.067 -63.58)" fill="#1565c0"/><path d="M174.489,67a7.549,7.549,0,0,0-.9-.433l-.118-.052q-.328-.125-.656-.236l-.125-.039a8.691,8.691,0,0,0-1.03-.223h0c-.243-.039-.492-.072-.741-.092h-.19a10.375,10.375,0,0,0-1.194,0h-.21l-.545.052-.354.046-.42.079-.335.066-.459.112-.3.072a17.286,17.286,0,0,0-3.162,1.24h0c-.348.177-.7.367-1.056.571-.236.131-.466.276-.7.42s-.531.341-.794.518h-.046c-.413.282-.827.577-1.227.892l-.236.184c-.433.335-.859.689-1.273,1.056l-.046.039c-.4.354-.794.728-1.181,1.109a1.431,1.431,0,0,0-.144.138c-.3.3-.59.6-.886.905h0c-.754.807-1.483,1.666-2.178,2.559v.033q-1.056,1.371-2,2.834l-.171.262c-.23.367-.453.735-.656,1.1l-.138.236c-.479.833-.932,1.686-1.358,2.552l-.046.1a38.41,38.41,0,0,0-1.922,4.7h0a34.489,34.489,0,0,0-.984,3.641v.112c-.046.216-.085.44-.131.656l-.079.453c-.046.3-.092.59-.131.892v.177c-.066.551-.118,1.1-.151,1.64v.1c0,.485-.046.971-.046,1.45v1.273a3.283,3.283,0,0,0,.046.656l.039.341a3.835,3.835,0,0,0,.066.551c.026.177.046.256.066.381s.052.321.085.479.059.249.085.374.066.3.1.44.066.243.1.361.079.282.125.42.079.23.125.341.085.269.138.394.092.223.144.328.1.249.157.367l.157.315c.052.1.112.23.177.341s.118.2.171.3l.2.321.19.276.21.3c.066.085.138.164.21.249s.144.19.223.276l.223.236.243.249.236.21.256.23.249.184.276.21.262.164c3.051,1.968,7.354,1.758,12.124-1,9.218-5.321,16.657-18.212,16.631-28.794C179.37,72.436,177.5,68.735,174.489,67Zm-6.521,34.016a2.01,2.01,0,0,1-.171.164c-.341.341-.7.656-1.05.984h-.039q-.584.512-1.181.984l-.079.059c-.466.367-.945.715-1.43,1.037l-.052.039c-.4.262-.807.525-1.214.761s-.656.361-.978.525l-.118.059c-.3.151-.6.289-.9.413l-.249.1a16.037,16.037,0,0,1-1.68.584l-.433.1-.269.066-.341.066-.354.066c-.19,0-.374.053-.558.066l-.492.039h-1.26a5.982,5.982,0,0,1-.689-.079h-.2c-.262-.046-.518-.1-.768-.171l-.112-.039a6.369,6.369,0,0,1-.656-.223l-.2-.079a6.991,6.991,0,0,1-.656-.308l-.079-.039h0a7.472,7.472,0,0,1-1.916-1.561c-1.653-1.87-2.624-4.71-2.624-8.358,0-9.795,6.862-21.722,15.378-26.642,3.247-1.87,6.259-2.454,8.752-1.929a7.7,7.7,0,0,1,2.467,1l.249.157.243.184c.079.059.164.118.236.184s.157.131.236.2l.223.2.223.236.21.21.2.256c.066.079.131.151.2.236l.2.276c.052.085.118.164.171.249s.125.2.184.3l.157.269c.059.1.112.21.164.315s.1.19.144.289.1.223.151.341.085.2.131.3.085.243.125.361l.118.321c.039.125.072.256.112.387l.1.335c.033.131.059.276.092.413l.079.341c.033.144.053.3.079.453l.059.341a4.478,4.478,0,0,0,.059.5c.02.171.033.216.039.328a3.444,3.444,0,0,0,.039.538.9.9,0,0,1,0,.328v.9q0,.656-.039,1.312v.282a9.878,9.878,0,0,1-.131,1.312,2.446,2.446,0,0,1-.052.374c-.02.125-.059.433-.1.656s-.046.256-.066.387l-.118.6a1.584,1.584,0,0,1-.072.341c-.112.512-.236,1.023-.381,1.542a.938.938,0,0,1-.072.256c-.125.44-.256.886-.407,1.312a.492.492,0,0,1,0,.1c-.138.433-.3.859-.459,1.312-.039.1-.079.216-.125.321-.138.361-.282.715-.44,1.076,0,.059-.046.112-.072.171-.171.4-.354.794-.538,1.181-.052.1-.1.21-.151.315-.157.308-.308.617-.472.925l-.151.289c-.2.381-.42.768-.656,1.148-.046.066-.085.138-.125.2-.2.335-.4.656-.6.984l-.177.282c-.256.394-.512.787-.781,1.168l-.125.171c-.276.394-.564.781-.853,1.161l-.125.157c-.367.472-.741.932-1.128,1.378l-.157.184c-.236.269-.472.531-.715.794l-.053.052A9.637,9.637,0,0,1,167.968,101.013Z" transform="translate(-142.257 -63.58)" opacity="0.1"/><path d="M174.489,67a7.549,7.549,0,0,0-.9-.433l-.118-.052q-.328-.125-.656-.236l-.125-.039a8.691,8.691,0,0,0-1.03-.223h0c-.243-.039-.492-.072-.741-.092h-.19a10.375,10.375,0,0,0-1.194,0h-.21l-.545.052-.354.046-.42.079-.335.066-.459.112-.3.072a17.286,17.286,0,0,0-3.162,1.24h0c-.348.177-.7.367-1.056.571-.236.131-.466.276-.7.42s-.531.341-.794.518h-.046c-.413.282-.827.577-1.227.892l-.236.184c-.433.335-.859.689-1.273,1.056l-.046.039c-.4.354-.794.728-1.181,1.109a1.431,1.431,0,0,0-.144.138c-.3.3-.59.6-.886.905h0c-.754.807-1.483,1.666-2.178,2.559v.033q-1.056,1.371-2,2.834l-.171.262c-.23.367-.453.735-.656,1.1l-.138.236c-.479.833-.932,1.686-1.358,2.552l-.046.1a38.41,38.41,0,0,0-1.922,4.7h0a34.489,34.489,0,0,0-.984,3.641v.112c-.046.216-.085.44-.131.656l-.079.453c-.046.3-.092.59-.131.892v.177c-.066.551-.118,1.1-.151,1.64v.1c0,.485-.046.971-.046,1.45v1.273a3.283,3.283,0,0,0,.046.656l.039.341a3.835,3.835,0,0,0,.066.551c.026.177.046.256.066.381s.052.321.085.479.059.249.085.374.066.3.1.44.066.243.1.361.079.282.125.42.079.23.125.341.085.269.138.394.092.223.144.328.1.249.157.367l.157.315c.052.1.112.23.177.341s.118.2.171.3l.2.321.19.276.21.3c.066.085.138.164.21.249s.144.19.223.276l.223.236.243.249.236.21.256.23.249.184.276.21.262.164c3.051,1.968,7.354,1.758,12.124-1,9.218-5.321,16.657-18.212,16.631-28.794C179.37,72.436,177.5,68.735,174.489,67Zm-6.521,34.016a2.01,2.01,0,0,1-.171.164c-.341.341-.7.656-1.05.984h-.039q-.584.512-1.181.984l-.079.059c-.466.367-.945.715-1.43,1.037l-.052.039c-.4.262-.807.525-1.214.761s-.656.361-.978.525l-.118.059c-.3.151-.6.289-.9.413l-.249.1a16.037,16.037,0,0,1-1.68.584l-.433.1-.269.066-.341.066-.354.066c-.19,0-.374.053-.558.066l-.492.039h-1.26a5.982,5.982,0,0,1-.689-.079h-.2c-.262-.046-.518-.1-.768-.171l-.112-.039a6.369,6.369,0,0,1-.656-.223l-.2-.079a6.991,6.991,0,0,1-.656-.308l-.079-.039h0a7.472,7.472,0,0,1-1.916-1.561c-1.653-1.87-2.624-4.71-2.624-8.358,0-9.795,6.862-21.722,15.378-26.642,3.247-1.87,6.259-2.454,8.752-1.929a7.7,7.7,0,0,1,2.467,1l.249.157.243.184c.079.059.164.118.236.184s.157.131.236.2l.223.2.223.236.21.21.2.256c.066.079.131.151.2.236l.2.276c.052.085.118.164.171.249s.125.2.184.3l.157.269c.059.1.112.21.164.315s.1.19.144.289.1.223.151.341.085.2.131.3.085.243.125.361l.118.321c.039.125.072.256.112.387l.1.335c.033.131.059.276.092.413l.079.341c.033.144.053.3.079.453l.059.341a4.478,4.478,0,0,0,.059.5c.02.171.033.216.039.328a3.444,3.444,0,0,0,.039.538.9.9,0,0,1,0,.328v.9q0,.656-.039,1.312v.282a9.878,9.878,0,0,1-.131,1.312,2.446,2.446,0,0,1-.052.374c-.02.125-.059.433-.1.656s-.046.256-.066.387l-.118.6a1.584,1.584,0,0,1-.072.341c-.112.512-.236,1.023-.381,1.542a.938.938,0,0,1-.072.256c-.125.44-.256.886-.407,1.312a.492.492,0,0,1,0,.1c-.138.433-.3.859-.459,1.312-.039.1-.079.216-.125.321-.138.361-.282.715-.44,1.076,0,.059-.046.112-.072.171-.171.4-.354.794-.538,1.181-.052.1-.1.21-.151.315-.157.308-.308.617-.472.925l-.151.289c-.2.381-.42.768-.656,1.148-.046.066-.085.138-.125.2-.2.335-.4.656-.6.984l-.177.282c-.256.394-.512.787-.781,1.168l-.125.171c-.276.394-.564.781-.853,1.161l-.125.157c-.367.472-.741.932-1.128,1.378l-.157.184c-.236.269-.472.531-.715.794l-.053.052A9.637,9.637,0,0,1,167.968,101.013Z" transform="translate(-142.163 -63.58)" fill="#fff" opacity="0.4"/></g><g transform="translate(148.45 102.041)"><path d="M263.83,286.68c.184,19.721.394,38.707.394,38.707a.715.715,0,0,0,.42.59,2.264,2.264,0,0,0,2.034,0,.715.715,0,0,0,.413-.59s.21-18.98.394-38.707C266.264,286.732,265.044,286.732,263.83,286.68Z" transform="translate(-237.345 -232.914)" fill="#fb8c00"/><path d="M227.31,307.064a.735.735,0,0,0,.426.591,2.25,2.25,0,0,0,2.027,0,.715.715,0,0,0,.42-.591s.912-13.561,2.224-29.68a22.148,22.148,0,0,1-3.438-2.624C227.914,292.014,227.31,307.064,227.31,307.064Z" transform="translate(-224.784 -228.814)" fill="#fb8c00"/><path d="M300.374,307.116a.715.715,0,0,0,.413.59,2.264,2.264,0,0,0,2.034,0,.735.735,0,0,0,.426-.59s-.6-15-1.66-32.206a21.5,21.5,0,0,1-3.438,2.624C299.462,293.588,300.374,307.116,300.374,307.116Z" transform="translate(-249.149 -228.866)" fill="#fb8c00"/><path d="M263.83,286.68c.184,19.721.394,38.707.394,38.707a.715.715,0,0,0,.42.59,2.264,2.264,0,0,0,2.034,0,.715.715,0,0,0,.413-.59s.21-18.98.394-38.707C266.264,286.732,265.044,286.732,263.83,286.68Z" transform="translate(-237.345 -232.258)" opacity="0.3"/><path d="M227.31,307.064a.735.735,0,0,0,.426.591,2.25,2.25,0,0,0,2.027,0,.715.715,0,0,0,.42-.591s.912-13.561,2.224-29.68a22.148,22.148,0,0,1-3.438-2.624C227.914,292.014,227.31,307.064,227.31,307.064Z" transform="translate(-224.784 -228.158)" opacity="0.3"/><path d="M300.374,307.116a.715.715,0,0,0,.413.59,2.264,2.264,0,0,0,2.034,0,.735.735,0,0,0,.426-.59s-.6-15-1.66-32.206a21.5,21.5,0,0,1-3.438,2.624C299.462,293.588,300.374,307.116,300.374,307.116Z" transform="translate(-249.149 -228.21)" opacity="0.3"/><path d="M280.095,256.866c0,4.2-2.716,8.391-8.227,11.593-11.022,6.41-28.945,6.41-40.02,0-5.55-3.208-8.338-7.4-8.358-11.6h0v3.188c0,2.965,1.417,5.9,4.186,8.529a22.145,22.145,0,0,0,3.438,2.624c.243.151.479.3.735.446a39.963,39.963,0,0,0,18.127,4.756c1.214.052,2.434.052,3.654,0,6.653-.236,13.187-1.824,18.258-4.77l.6-.374a21.494,21.494,0,0,0,3.438-2.624c2.808-2.624,4.205-5.629,4.186-8.627h0V256.82Z" transform="translate(-223.47 -222.644)" fill="#fb8c00"/><path d="M280.095,256.866c0,4.2-2.716,8.391-8.227,11.593-11.022,6.41-28.945,6.41-40.02,0-5.55-3.208-8.338-7.4-8.358-11.6h0v3.188c0,2.965,1.417,5.9,4.186,8.529a22.145,22.145,0,0,0,3.438,2.624c.243.151.479.3.735.446a39.963,39.963,0,0,0,18.127,4.756c1.214.052,2.434.052,3.654,0,6.653-.236,13.187-1.824,18.258-4.77l.6-.374a21.494,21.494,0,0,0,3.438-2.624c2.808-2.624,4.205-5.629,4.186-8.627h0V256.82Z" transform="translate(-223.47 -222.644)" opacity="0.4"/><path d="M231.818,259.894c11.094,6.4,29.017,6.4,40.02,0,5.511-3.2,8.253-7.394,8.227-11.592s-2.808-8.4-8.358-11.6c-11.094-6.4-29.017-6.4-40.02,0-5.511,3.2-8.253,7.4-8.227,11.6S226.268,256.686,231.818,259.894Z" transform="translate(-223.46 -214.073)" fill="#fb8c00"/><g transform="translate(3.963 45.952)" opacity="0.3"><path d="M263.83,286.68q0,1.968.039,3.936c1.187.046,2.388.052,3.575,0q0-1.968.039-3.936C266.264,286.732,265.044,286.732,263.83,286.68Z" transform="translate(-241.308 -278.866)"/><path d="M229.723,274.77c-.072,1.26-.151,2.5-.223,3.733a21.026,21.026,0,0,0,3.359,2.624c.1-1.227.2-2.48.3-3.753a22.149,22.149,0,0,1-3.438-2.6Z" transform="translate(-229.5 -274.77)"/><path d="M301.588,274.9a21.5,21.5,0,0,1-3.438,2.624q.158,1.909.308,3.759a21.033,21.033,0,0,0,3.352-2.624C301.739,277.4,301.667,276.153,301.588,274.9Z" transform="translate(-253.112 -274.815)"/></g><path d="M271.584,223.289c-.433-.433-5.432,0-5.432,0s-5-.433-5.432,0c-1.843,1.837-5.609,10.031-5.609,15.535,0,1.634,1.1,3.28,3.28,4.52,4.323,2.5,11.317,2.5,15.614,0,2.145-1.246,3.215-2.887,3.208-4.52C277.193,233.32,273.407,225.126,271.584,223.289Z" transform="translate(-234.346 -211.045)" fill="#e6e6e6"/><path d="M275.3,237.58a2.63,2.63,0,0,1,.039.453c0,1.24-.807,2.486-2.441,3.438a13.106,13.106,0,0,1-11.875,0c-1.647-.951-2.473-2.2-2.48-3.438a3.2,3.2,0,0,1,.033-.433,21.446,21.446,0,0,0-1.168,6.2c0,1.128.918,2.3,2.506,3.221a14.381,14.381,0,0,0,7.066,1.673h0a14.243,14.243,0,0,0,7.033-1.653c1.568-.912,2.467-2.08,2.46-3.215a21.415,21.415,0,0,0-1.174-6.246Z" transform="translate(-235.137 -216.026)" fill="#632828"/><path d="M261.62,239.157a13.106,13.106,0,0,0,11.875,0c1.634-.951,2.447-2.2,2.441-3.438a2.623,2.623,0,0,0-.039-.453,4.522,4.522,0,0,0-2.441-2.992,13.106,13.106,0,0,0-11.875,0,4.44,4.44,0,0,0-2.408,3.011,3.218,3.218,0,0,0-.033.433C259.147,236.959,259.973,238.205,261.62,239.157Z" transform="translate(-235.732 -213.713)" fill="#804040"/><path d="M271.584,223.289c-.433-.433-5.432,0-5.432,0s-5-.433-5.432,0c-1.843,1.837-5.609,10.031-5.609,15.535,0,1.634,1.1,3.28,3.28,4.52,4.323,2.5,11.317,2.5,15.614,0,2.145-1.246,3.215-2.887,3.208-4.52C277.193,233.32,273.407,225.126,271.584,223.289Z" transform="translate(-234.346 -211.045)" fill="#fff" opacity="0.3"/><path d="M263.591,223.086a10.6,10.6,0,0,0,9.611,0,2.946,2.946,0,0,0-.033-5.57,10.6,10.6,0,0,0-9.611,0,2.946,2.946,0,0,0,.033,5.57Z" transform="translate(-236.574 -208.729)" fill="#263238"/><path d="M271.458,219.268a2.855,2.855,0,0,0,.21-.308,13.7,13.7,0,0,0,2.69-7.459H252.55c0,1.64,4.907,7.033,7.335,8.529h0a5.761,5.761,0,0,0,.59.394,10.6,10.6,0,0,0,9.611,0,4.763,4.763,0,0,0,1.312-1.082h0Z" transform="translate(-233.465 -207.056)" fill="#e6e6e6"/><path d="M272.084,206.034a3.928,3.928,0,0,1,2.277,3.136c0,2.572-3.792,4.56-8.227,4.487a24.273,24.273,0,0,1-11.691-2.992,16.437,16.437,0,0,1-1.634-1.056.472.472,0,0,1,0-.833,23.4,23.4,0,0,1,13.817-4.048A11.153,11.153,0,0,1,272.084,206.034Z" transform="translate(-233.468 -204.727)" fill="#f0f0f0"/><path d="M271.679,207.134a3.362,3.362,0,0,1,1.968,2.67,3.054,3.054,0,0,1-1.87,2.624,10.215,10.215,0,0,1-4.979,1.187h-.217a22.306,22.306,0,0,1-10.9-2.788c-.538-.308-1.063-.656-1.568-1.01A21.883,21.883,0,0,1,267.028,206a9.415,9.415,0,0,1,4.651,1.135Z" transform="translate(-234.002 -205.164)" fill="#e0e0e0"/><path d="M246.806,252.583a15.539,15.539,0,0,0-14.105,0c-3.884,2.257-3.858,5.9.046,8.174a15.519,15.519,0,0,0,14.105,0C250.736,258.507,250.716,254.839,246.806,252.583Z" transform="translate(-225.642 -220.604)" fill="#f0f0f0"/><path d="M246.806,251.623a15.539,15.539,0,0,0-14.105,0c-3.884,2.257-3.858,5.9.046,8.168a15.519,15.519,0,0,0,14.105,0C250.736,257.534,250.716,253.912,246.806,251.623Z" transform="translate(-225.642 -220.274)" fill="#fafafa"/><path d="M245.876,256.412a7.217,7.217,0,0,0-6.521,0c-1.8,1.043-1.791,2.736,0,3.779a7.217,7.217,0,0,0,6.528,0C247.673,259.154,247.66,257.455,245.876,256.412Z" transform="translate(-228.464 -222.236)" fill="#ebebeb"/><path d="M277.895,261.5a15.539,15.539,0,0,0-14.105,0c-3.884,2.257-3.864,5.9.046,8.174a15.519,15.519,0,0,0,14.105,0C281.825,267.427,281.8,263.759,277.895,261.5Z" transform="translate(-236.334 -223.672)" fill="#f0f0f0"/><path d="M277.895,260.543a15.539,15.539,0,0,0-14.105,0c-3.884,2.257-3.864,5.9.046,8.168a15.519,15.519,0,0,0,14.105,0C281.825,266.454,281.8,262.8,277.895,260.543Z" transform="translate(-236.334 -223.342)" fill="#fafafa"/><path d="M276.925,265.331a7.217,7.217,0,0,0-6.528,0c-1.791,1.043-1.784,2.736,0,3.779a7.217,7.217,0,0,0,6.528,0C278.742,268.067,278.736,266.374,276.925,265.331Z" transform="translate(-239.142 -225.303)" fill="#ebebeb"/></g><g transform="translate(224.163 93.672)"><path d="M335.817,272.024c-5.845,4.061-12.432,6.869-17.313,12.308-9.119,10.169-9.329,26.524-2.172,38.15s20.482,18.612,34.043,20.206A54.72,54.72,0,0,0,390.7,331.456c11.159-8.981,18.265-23.008,18.258-37.336s-7.322-28.591-19.341-36.424c-10.943-7.138-26.688-9.185-37.664-1-5.557,4.133-9.257,10.228-14.794,14.368C336.683,271.394,336.263,271.709,335.817,272.024Z" transform="translate(-296.771 -212.408)" fill="#26aab7"/><path d="M335.817,272.024c-5.845,4.061-12.432,6.869-17.313,12.308-9.119,10.169-9.329,26.524-2.172,38.15s20.482,18.612,34.043,20.206A54.72,54.72,0,0,0,390.7,331.456c11.159-8.981,18.265-23.008,18.258-37.336s-7.322-28.591-19.341-36.424c-10.943-7.138-26.688-9.185-37.664-1-5.557,4.133-9.257,10.228-14.794,14.368C336.683,271.394,336.263,271.709,335.817,272.024Z" transform="translate(-296.771 -212.408)" fill="#fff" opacity="0.2"/><path d="M421.383,292.237a41.81,41.81,0,0,0-35.67-40.6,31,31,0,0,0-4.035.656,40.78,40.78,0,0,1,38.6,39.941c.262,13.338-6.259,26.9-17.445,36.359-8.772,7.387-20.417,12.288-33.216,14.053.276.039.545.079.82.1,1.148.138,2.309.236,3.464.3a65.326,65.326,0,0,0,29.641-13.613C414.98,319.811,421.652,305.9,421.383,292.237Z" transform="translate(-316.836 -212.493)" fill="#fff"/><path d="M343.006,338.811l.039-.289A15.371,15.371,0,0,1,355.511,325.7a48.654,48.654,0,0,0,15.968-6.115c3.49-2.112,6.79-4.7,10.707-5.845a17.444,17.444,0,0,1,11.534.656,13.381,13.381,0,0,0-13.436-3.412c3.116-4.776,5.865-9.92,6.941-15.522s.308-11.75-3.07-16.349a16.454,16.454,0,0,0-25.389-1.358c-3.346,3.661-5.248,8.811-7.433,13.259-1.575,3.188-3.208,6.456-5.813,8.889-3.936,3.674-9.565,5-13.639,8.529-4.592,3.982-6.6,10.353-6.62,16.447a48.162,48.162,0,0,0,1.8,12.15,46.09,46.09,0,0,0,16.69,10.2A18.022,18.022,0,0,1,343.006,338.811Z" transform="translate(-301.578 -219.638)" opacity="0.2"/><path d="M329.59,366.51a40.74,40.74,0,0,1,.715,6.672l1.581-.6a4.074,4.074,0,0,1,4.382,1l.079.079a1.588,1.588,0,0,0,2.191.1h0a1.568,1.568,0,0,0,.545-1.148l.21-6.718Z" transform="translate(-303.068 -251.792)" fill="#ffa8a7"/><path d="M331.705,398.083c-3.28,3.5-9.3,6.561-13.685,3.575l.492,1.115c4.376,2.992,10.412-.072,13.685-3.576s1.148-5.9,4.1-9.04a10.681,10.681,0,0,0,2.546-3.785c-.131-.335-.256-.774-.413-1.273a13.39,13.39,0,0,1-2.624,3.936C332.853,392.153,334.979,394.58,331.705,398.083Z" transform="translate(-299.088 -258.396)" fill="#37474f"/><path d="M336.615,377.759a6.477,6.477,0,0,1-1.03-2.388,1.371,1.371,0,0,0-.656-.971l-.039,1.122a1.588,1.588,0,0,1-2.736,1.05l-.079-.079a4.074,4.074,0,0,0-4.382-1l-1.607.61a1.233,1.233,0,0,0-.8,1.181c.105,4.592-2.04,10.694-4.291,14.046-2.316.958-4.31,4.113-3.28,6.423l.1.23c4.382,2.992,10.412-.072,13.685-3.576s1.148-5.9,4.1-9.04a13.392,13.392,0,0,0,2.624-3.936,14.267,14.267,0,0,0-1.614-3.667Z" transform="translate(-298.887 -254.716)" fill="#455a64"/><path d="M333.718,388.676a.558.558,0,0,0,.741-.249.551.551,0,0,0-.23-.741,6.383,6.383,0,0,0-6.292,0c-.1.361-.2.722-.308,1.083A6.16,6.16,0,0,1,333.718,388.676Z" transform="translate(-302.394 -259)" fill="#fff"/><path d="M334.852,384.893a.56.56,0,0,0,.512-1,6.731,6.731,0,0,0-6.561.052c-.066.374-.144.748-.223,1.128A6.27,6.27,0,0,1,334.852,384.893Z" transform="translate(-302.72 -257.697)" fill="#fff"/><path d="M332.372,392.446a.56.56,0,1,0,.512-1,6.37,6.37,0,0,0-6.154-.059c-.144.387-.289.774-.439,1.148A6.167,6.167,0,0,1,332.372,392.446Z" transform="translate(-301.933 -260.297)" fill="#fff"/><path d="M321.014,399.791c-2.316.958-4.31,4.113-3.28,6.423l.105.23c4.317,2.946,10.228,0,13.534-3.425C328.6,397.613,322.838,398.965,321.014,399.791Z" transform="translate(-298.894 -263.181)" fill="#fff"/><path d="M330.8,396.127a.558.558,0,0,0,.741-.249.564.564,0,0,0-.223-.748,6.4,6.4,0,0,0-6.173-.052c-.2.426-.394.84-.6,1.233A6.213,6.213,0,0,1,330.8,396.127Z" transform="translate(-301.331 -261.564)" fill="#fff"/><path d="M318.034,387.19A40.764,40.764,0,0,1,316,393.567l1.686.092a4.087,4.087,0,0,1,3.608,2.683l.039.1a1.594,1.594,0,0,0,1.968.978h0a1.588,1.588,0,0,0,.958-.833l2.906-6.062Z" transform="translate(-298.394 -259.115)" fill="#ffa8a7"/><path d="M304.917,420.965c-4.415,1.883-11.153,2.25-13.967-2.25v1.214c2.8,4.507,9.552,4.14,13.967,2.257s3.444-4.966,7.394-6.62a10.7,10.7,0,0,0,3.858-2.434c0-.361.079-.807.138-1.312a13.271,13.271,0,0,1-4,2.546C308.362,416.006,309.352,419.083,304.917,420.965Z" transform="translate(-289.778 -267.586)" fill="#37474f"/><path d="M316.32,402.672a6.371,6.371,0,0,1,0-2.624,1.417,1.417,0,0,0-.2-1.155l-.485,1.017a1.588,1.588,0,0,1-2.926-.144l-.039-.1a4.087,4.087,0,0,0-3.608-2.683l-1.66-.079a1.233,1.233,0,0,0-1.207.761c-1.758,4.245-6.187,8.962-9.6,11.12-2.506-.059-5.6,2.021-5.6,4.546v.256c2.8,4.5,9.552,4.133,13.967,2.25s3.444-4.96,7.394-6.62a13.27,13.27,0,0,0,4-2.546,14.139,14.139,0,0,0-.026-4Z" transform="translate(-289.792 -262.454)" fill="#455a64"/><path d="M313.649,409.291a.551.551,0,0,0,.781.072.564.564,0,0,0,.092-.774,6.4,6.4,0,0,0-5.76-2.526c-.236.289-.479.577-.722.859A6.18,6.18,0,0,1,313.649,409.291Z" transform="translate(-295.656 -265.595)" fill="#fff"/><path d="M316.2,406.239a.558.558,0,0,0,.781.066.551.551,0,0,0,.092-.768,6.712,6.712,0,0,0-6.01-2.624c-.21.315-.433.656-.656.938A6.429,6.429,0,0,1,316.2,406.239Z" transform="translate(-296.471 -264.511)" fill="#fff"/><path d="M310.9,412.2a.558.558,0,0,0,.781.066.545.545,0,0,0,.092-.768,6.39,6.39,0,0,0-5.609-2.546c-.282.3-.571.59-.859.873A6.16,6.16,0,0,1,310.9,412.2Z" transform="translate(-294.713 -266.593)" fill="#fff"/><path d="M296.553,415c-2.506-.059-5.6,2.021-5.6,4.546v.256c2.755,4.435,9.349,4.14,13.777,2.329C304.373,416.075,298.554,415,296.553,415Z" transform="translate(-289.778 -268.679)" fill="#fff"/><path d="M307.956,414.967a.56.56,0,0,0,.873-.7,6.4,6.4,0,0,0-5.629-2.546c-.348.315-.7.61-1.05.886A6.234,6.234,0,0,1,307.956,414.967Z" transform="translate(-293.63 -267.545)" fill="#fff"/><path d="M344.079,299.74,322,312.041a10.949,10.949,0,0,0-5.432,11.553l4.291,23.073-3.516,11.153c3.031,4.068,9.992,4.277,9.992,4.277,3.884-7.787,6.731-11.1,8.936-17.622s3.674-11.028,3.674-11.028l18.337-5.012a21.728,21.728,0,0,0,15.89-18.488c.315-2.769.328-4.665.328-4.665Z" transform="translate(-298.525 -229.037)" fill="#37474f"/><path d="M346.588,309.19a10.419,10.419,0,0,0,2.473,6.731L333.48,325.67a11.153,11.153,0,0,0-4.77,6.219L323.2,349.918l4.973-20.082a9.06,9.06,0,0,1,4.081-5.55l14.387-8.9A7.362,7.362,0,0,1,346.588,309.19Z" transform="translate(-300.87 -232.287)" opacity="0.2"/><path d="M318.225,251.779l-3.09,3c-3.169-4.048-7.433-6.79-11.153-12.465-1.069-1.358-.958-4.068-1.686-5.452-.571-1.082-1.568-2.709-1.968-3.621a.6.6,0,0,0-.886-.269c-1.056.768-.5,2.624.059,4.54.656,2.27-2.769-.8-3.228-1.312-2.165-2.021-4.028-6.967-5.511-6.475s-.3,2.959-.3,2.959c-1.365.289-.846,2.46-.846,2.46-.807,1.417-.577,3.608,1.076,5.642,1.2,1.476,4.441,3.5,6.128,4.5a5.38,5.38,0,0,1,1.758,1.66l10.608,15.745a6.429,6.429,0,0,0,9.185,1.561l5.76-4.31Z" transform="translate(-289.163 -204.943)" fill="#ffa8a7"/><path d="M351.207,242.157c-5.872-.262-13.843,9.27-18.337,13.777.348,5.491,6.259,9.1,6.259,9.1a127.806,127.806,0,0,0,12.078-9.447Z" transform="translate(-304.196 -209.23)" fill="#e0e0e0"/><path d="M351.207,242.157c-5.872-.262-13.843,9.27-18.337,13.777.348,5.491,6.259,9.1,6.259,9.1a127.806,127.806,0,0,0,12.078-9.447Z" transform="translate(-304.196 -209.23)" opacity="0.1"/><path d="M313.543,299.088a5.452,5.452,0,0,1-4.973,0,8.827,8.827,0,0,1-1.01-.558,1.863,1.863,0,0,0,1.01,1.312,5.491,5.491,0,0,0,4.973,0,1.8,1.8,0,0,0,1-1.312,7.907,7.907,0,0,1-.951.538Z" transform="translate(-295.491 -228.621)" fill="#263238"/><path d="M316.694,286.3h0a3.943,3.943,0,0,1-2.3,3.247,12.356,12.356,0,0,1-11.206,0,3.988,3.988,0,0,1-2.336-3.247h0a10.031,10.031,0,0,0,4.428,8.024,8.831,8.831,0,0,0,1.01.558,5.452,5.452,0,0,0,4.973,0h.046a7.9,7.9,0,0,0,.951-.538A10.025,10.025,0,0,0,316.694,286.3Z" transform="translate(-293.183 -224.414)" fill="#455a64"/><path d="M303.146,287.144a12.356,12.356,0,0,0,11.205,0,3.427,3.427,0,0,0-.039-6.488,12.342,12.342,0,0,0-11.2,0,3.913,3.913,0,0,0-2.3,3.241A3.975,3.975,0,0,0,303.146,287.144Zm.315-5.9a10.59,10.59,0,0,1,5.249-1.253,10.708,10.708,0,0,1,5.248,1.253,3.235,3.235,0,0,1,1.968,2.657,2.841,2.841,0,0,1-1.26,2.158,5.624,5.624,0,0,1-.7.479,11.645,11.645,0,0,1-10.5,0,6.52,6.52,0,0,1-.735-.5,2.867,2.867,0,0,1-1.26-2.158,3.365,3.365,0,0,1,1.981-2.624Z" transform="translate(-293.169 -222.011)" fill="#455a64"/><path d="M303.133,286.407a3.28,3.28,0,0,1,1.542-1.607,9.756,9.756,0,0,1,8.831,0,3.333,3.333,0,0,1,1.568,1.627,2.841,2.841,0,0,0,1.26-2.158,3.342,3.342,0,0,0-1.968-2.657,10.706,10.706,0,0,0-5.248-1.253,10.589,10.589,0,0,0-5.248,1.253,3.3,3.3,0,0,0-1.968,2.624A2.867,2.867,0,0,0,303.133,286.407Z" transform="translate(-293.544 -222.37)" fill="#263238"/><path d="M313.543,299.088a5.452,5.452,0,0,1-4.973,0,8.827,8.827,0,0,1-1.01-.558,1.863,1.863,0,0,0,1.01,1.312,5.491,5.491,0,0,0,4.973,0,1.8,1.8,0,0,0,1-1.312,7.907,7.907,0,0,1-.951.538Z" transform="translate(-295.491 -228.621)" fill="#fff" opacity="0.6"/><path d="M316.694,286.3h0a3.943,3.943,0,0,1-2.3,3.247,12.356,12.356,0,0,1-11.206,0,3.988,3.988,0,0,1-2.336-3.247h0a10.031,10.031,0,0,0,4.428,8.024,8.831,8.831,0,0,0,1.01.558,5.452,5.452,0,0,0,4.973,0h.046a7.9,7.9,0,0,0,.951-.538A10.025,10.025,0,0,0,316.694,286.3Z" transform="translate(-293.183 -224.414)" fill="#fff" opacity="0.7"/><path d="M303.146,287.144a12.356,12.356,0,0,0,11.205,0,3.427,3.427,0,0,0-.039-6.488,12.342,12.342,0,0,0-11.2,0,3.913,3.913,0,0,0-2.3,3.241A3.975,3.975,0,0,0,303.146,287.144Zm.315-5.9a10.59,10.59,0,0,1,5.249-1.253,10.708,10.708,0,0,1,5.248,1.253,3.235,3.235,0,0,1,1.968,2.657,2.841,2.841,0,0,1-1.26,2.158,5.624,5.624,0,0,1-.7.479,11.645,11.645,0,0,1-10.5,0,6.52,6.52,0,0,1-.735-.5,2.867,2.867,0,0,1-1.26-2.158,3.365,3.365,0,0,1,1.981-2.624Z" transform="translate(-293.169 -222.011)" fill="#fff" opacity="0.8"/><path d="M303.133,286.407a3.28,3.28,0,0,1,1.542-1.607,9.756,9.756,0,0,1,8.831,0,3.333,3.333,0,0,1,1.568,1.627,2.841,2.841,0,0,0,1.26-2.158,3.342,3.342,0,0,0-1.968-2.657,10.706,10.706,0,0,0-5.248-1.253,10.589,10.589,0,0,0-5.248,1.253,3.3,3.3,0,0,0-1.968,2.624A2.867,2.867,0,0,0,303.133,286.407Z" transform="translate(-293.544 -222.37)" fill="#fff" opacity="0.6"/><path d="M314.152,286.576a9.756,9.756,0,0,0-8.831,0,3.28,3.28,0,0,0-1.542,1.607,6.517,6.517,0,0,0,.735.5,11.645,11.645,0,0,0,10.5,0,5.627,5.627,0,0,0,.7-.479A3.333,3.333,0,0,0,314.152,286.576Z" transform="translate(-294.191 -224.146)" fill="#632828"/><path d="M387.719,286.562c-3.936,3.759-22.732,4.455-32.33-4.684.925-6.449.617-13.364,0-20.2s-4.592-18.783,3.018-20.174c10.189-1.968,16.848-1.837,23.651,2C389.359,255.616,388.329,273.736,387.719,286.562Z" transform="translate(-311.395 -208.576)" fill="#e0e0e0"/><path d="M380.617,217.856a2.768,2.768,0,0,0-1.358-1.424,2.047,2.047,0,0,0-.407-.151,2.552,2.552,0,0,0-2.27.754,4.382,4.382,0,0,0-1.1,2.2,16.489,16.489,0,0,0-.275,2.473,29.735,29.735,0,0,1-.656,4.363,5.556,5.556,0,0,1-2.828,3.687l-.092.053a17.143,17.143,0,0,1-6.561,1.752v2.5c-1.817,2.48-2.322,7.217,2.467,5.793s7.912-4.592,7.912-7.735c.033-1.312.066-3.018.1-4.54.046-2.047.085-3.759.085-3.759a2.7,2.7,0,0,0,1.752.918,2.376,2.376,0,0,0,.918-.053,3.451,3.451,0,0,0,2.047-1.745,6.429,6.429,0,0,0,.656-2.664A5.405,5.405,0,0,0,380.617,217.856Z" transform="translate(-314.823 -200.32)" fill="#ffa8a7"/><path d="M374.191,204.478a5.9,5.9,0,0,0-3.766-1.968l-19.682,1.83c-2.263,4.809-.453,7.991-.453,7.991-.308,7.335-.564,12,2.664,13.541a15.179,15.179,0,0,0,7.217,1,17.142,17.142,0,0,0,6.561-1.752l.1-.059a5.557,5.557,0,0,0,2.821-3.7,30.343,30.343,0,0,0,.656-4.343,16.494,16.494,0,0,1,.276-2.473,4.382,4.382,0,0,1,1.1-2.2,2.552,2.552,0,0,1,2.27-.754,2.049,2.049,0,0,1,.407.151C374.945,208.447,375.109,205.626,374.191,204.478Z" transform="translate(-309.952 -195.595)" fill="#37474f"/><path d="M367.662,206.243a6.836,6.836,0,0,0,.262,4.12,29.848,29.848,0,0,1,1.253,4.008,6.56,6.56,0,0,1-.545,4.041,4.75,4.75,0,0,1-3.136,2.5c-2.112.453-4.179-.781-6.3-1.194a8.824,8.824,0,0,0-5.9,1.05,1.03,1.03,0,0,1-1.548-.82c-.249-4.225-.243-10.838.38-13.948Z" transform="translate(-310.633 -196.796)" fill="#ffa8a7"/><path d="M351.475,197.592l-2.447-1.666a5.189,5.189,0,0,0,.932,4.815,7.774,7.774,0,0,0,4.317,2.539,16.4,16.4,0,0,0,5.071.23,36.987,36.987,0,0,0,7.322-1.312,5.826,5.826,0,0,0,2.88-1.509,3.8,3.8,0,0,0,.151-4.481,5.688,5.688,0,0,0-4.048-2.342,15.449,15.449,0,0,0-4.868.381,14.735,14.735,0,0,1-4.875.348,5.065,5.065,0,0,1-3.936-2.624C350.6,194.174,351.475,197.592,351.475,197.592Z" transform="translate(-309.673 -191.97)" fill="#37474f"/><path d="M360.409,217.78l-3.589,4.343,3.293,1.168Z" transform="translate(-312.433 -200.847)" fill="#f28f8f"/><path d="M364.979,229.47l-2.769.853a1.706,1.706,0,0,0,1.863.859,1.535,1.535,0,0,0,.905-1.712Z" transform="translate(-314.287 -204.868)" fill="#f28f8f"/><path d="M364.979,229.47l-2.769.853a1.706,1.706,0,0,0,1.863.859,1.535,1.535,0,0,0,.905-1.712Z" transform="translate(-314.287 -204.868)" opacity="0.3"/><path d="M363.67,231.36a1.594,1.594,0,0,0,.905.053,1.4,1.4,0,0,0,.905-1.253,1.66,1.66,0,0,0-1.076.2,1.634,1.634,0,0,0-.735,1Z" transform="translate(-314.789 -205.098)" fill="#f28f8f"/><path d="M368.7,218.686a.978.978,0,1,1-.249-.713A.984.984,0,0,1,368.7,218.686Z" transform="translate(-315.843 -200.802)" fill="#263238"/><path d="M356.129,217.526a.984.984,0,1,1-.932-1.037.984.984,0,0,1,.932,1.037Z" transform="translate(-311.519 -200.403)" fill="#263238"/><path d="M354.783,211.831l-2.263,1.391a1.391,1.391,0,0,1,.512-1.522,1.653,1.653,0,0,1,1.752.131Z" transform="translate(-310.934 -198.69)" fill="#263238"/><path d="M368.88,212.413l2.1,1.627a1.411,1.411,0,0,0-.341-1.568,1.66,1.66,0,0,0-1.758-.059Z" transform="translate(-316.581 -198.924)" fill="#263238"/><path d="M373.6,235.468a6.3,6.3,0,0,0,1.148-2.388,5.511,5.511,0,0,1-2.382,2.467l-.092.052a17.143,17.143,0,0,1-6.561,1.752v1.686a16.4,16.4,0,0,0,3.9-.82A8.791,8.791,0,0,0,373.6,235.468Z" transform="translate(-315.491 -206.11)" opacity="0.2"/><path d="M334.208,296.846c1.8,0,16.821-.335,23.723-.485a5.563,5.563,0,0,0,4.907-3.208l5.248-11.31L357.236,277l-4,9.906c-6.292-.387-14.2,2.454-18.809,2.073-2.559-.164-2.211-2.467-5.032-3.156s-3.576.112-4.953-.236-1.6,1.863.991,2.336c-2.027.131-1.686-1.384-2.847-1.555a2.08,2.08,0,0,0-2.06.984,1.817,1.817,0,0,0,.466,2.08,1.968,1.968,0,0,0-1.115,1.824,2.681,2.681,0,0,1,.807,3.523,1.784,1.784,0,0,0,1.47,1.076,2.329,2.329,0,0,0,1.588,1.922,6.293,6.293,0,0,0,2.526,0C328.861,297.489,331.623,297.167,334.208,296.846Z" transform="translate(-299.728 -221.216)" fill="#ffa8a7"/><path d="M385.434,242.42c-4.645,4.724-10.254,23.618-10.254,23.618,3.149,5.143,12.058,5.294,12.058,5.294C396.449,249.3,395.688,244.611,385.434,242.42Z" transform="translate(-318.748 -209.322)" fill="#e0e0e0"/><path d="M385.434,242.42c-4.645,4.724-10.254,23.618-10.254,23.618,3.149,5.143,12.058,5.294,12.058,5.294C396.449,249.3,395.688,244.611,385.434,242.42Z" transform="translate(-318.748 -209.322)" opacity="0.1"/><path d="M323.769,290.617a1.312,1.312,0,0,0-.879,0,4.022,4.022,0,0,1,.925-1.115,1.312,1.312,0,0,1,2.211,1.05,4.308,4.308,0,0,1-.315,1.542,1.187,1.187,0,0,1-.781-.42,3.772,3.772,0,0,0,.125-.853,1.063,1.063,0,0,0,0-.38.518.518,0,0,0-.21-.308.545.545,0,0,0-.584.052A1.753,1.753,0,0,0,323.769,290.617Z" transform="translate(-300.763 -225.392)" fill="#263238"/><path d="M323.769,290.617a1.312,1.312,0,0,0-.879,0,4.022,4.022,0,0,1,.925-1.115,1.312,1.312,0,0,1,2.211,1.05,4.308,4.308,0,0,1-.315,1.542,1.187,1.187,0,0,1-.781-.42,3.772,3.772,0,0,0,.125-.853,1.063,1.063,0,0,0,0-.38.518.518,0,0,0-.21-.308.545.545,0,0,0-.584.052A1.753,1.753,0,0,0,323.769,290.617Z" transform="translate(-300.763 -225.392)" fill="#fff" opacity="0.5"/></g><g transform="translate(0 90.812)"><path d="M126.544,272.074c5.845,4.061,12.426,6.869,17.313,12.308,9.113,10.169,9.329,26.524,2.165,38.15s-20.476,18.612-34.036,20.207a54.721,54.721,0,0,1-40.321-11.232C60.505,322.525,53.4,308.492,53.4,294.17s7.348-28.584,19.347-36.424c10.95-7.138,26.675-9.185,37.664-1,5.55,4.133,9.257,10.228,14.794,14.368Q125.868,271.6,126.544,272.074Z" transform="translate(-53.4 -209.565)" fill="#26aab7"/><path d="M126.544,272.074c5.845,4.061,12.426,6.869,17.313,12.308,9.113,10.169,9.329,26.524,2.165,38.15s-20.476,18.612-34.036,20.207a54.721,54.721,0,0,1-40.321-11.232C60.505,322.525,53.4,308.492,53.4,294.17s7.348-28.584,19.347-36.424c10.95-7.138,26.675-9.185,37.664-1,5.55,4.133,9.257,10.228,14.794,14.368Q125.868,271.6,126.544,272.074Z" transform="translate(-53.4 -209.565)" fill="#fff" opacity="0.2"/><path d="M65.046,292.287a41.8,41.8,0,0,1,35.67-40.6,29.834,29.834,0,0,1,4.028.656,40.767,40.767,0,0,0-38.6,39.96c-.262,13.338,6.259,26.9,17.445,36.359,8.765,7.387,20.41,12.288,33.21,14.053l-.814.105c-1.155.138-2.309.23-3.464.3A65.294,65.294,0,0,1,82.884,329.5C71.442,319.861,64.777,305.946,65.046,292.287Z" transform="translate(-57.403 -209.65)" fill="#fff"/><path d="M134.677,338.857l-.039-.289a15.385,15.385,0,0,0-12.465-12.819,48.777,48.777,0,0,1-15.968-6.121c-3.49-2.106-6.784-4.7-10.7-5.839a17.445,17.445,0,0,0-11.534.656,13.381,13.381,0,0,1,13.436-3.411c-3.123-4.776-5.865-9.92-6.941-15.522s-.308-11.75,3.07-16.349a16.441,16.441,0,0,1,25.389-1.358c3.346,3.661,5.248,8.811,7.427,13.259,1.581,3.188,3.215,6.456,5.813,8.89,3.936,3.674,9.572,5,13.639,8.529,4.592,3.982,6.606,10.346,6.626,16.441a48.548,48.548,0,0,1-1.791,12.183,46.141,46.141,0,0,1-16.69,10.2,18.029,18.029,0,0,0,.728-8.45Z" transform="translate(-63.914 -216.791)" opacity="0.2"/><path d="M189.682,387.24a40.858,40.858,0,0,0,2.034,6.37l-1.686.1a4.061,4.061,0,0,0-3.608,2.683l-.039.1a1.594,1.594,0,0,1-1.968.978h0a1.588,1.588,0,0,1-.958-.833l-2.906-6.062Z" transform="translate(-97.132 -256.272)" fill="#955"/><path d="M195.356,421.015c4.409,1.883,11.153,2.25,13.967-2.257v1.22c-2.8,4.507-9.559,4.14-13.967,2.25s-3.444-4.96-7.394-6.613a10.694,10.694,0,0,1-3.864-2.434,11.348,11.348,0,0,0-.138-1.312,13.448,13.448,0,0,0,4,2.546C191.911,416.049,190.947,419.126,195.356,421.015Z" transform="translate(-98.305 -264.743)" fill="#37474f"/><path d="M183.934,402.7a6.377,6.377,0,0,0,0-2.624,1.391,1.391,0,0,1,.2-1.155l.492,1.017a1.588,1.588,0,0,0,2.926-.144l.039-.105a4.061,4.061,0,0,1,3.608-2.683l1.712-.1a1.233,1.233,0,0,1,1.207.761c1.758,4.245,6.187,8.962,9.6,11.12,2.5-.059,5.6,2.021,5.6,4.546v.249c-2.8,4.507-9.559,4.14-13.967,2.257s-3.444-4.966-7.394-6.62a13.448,13.448,0,0,1-4-2.546,14.694,14.694,0,0,1-.02-3.976Z" transform="translate(-98.253 -259.597)" fill="#455a64"/><path d="M196.481,409.34a.558.558,0,0,1-.781.072.551.551,0,0,1-.092-.774,6.383,6.383,0,0,1,5.76-2.526c.236.289.479.577.722.859A6.174,6.174,0,0,0,196.481,409.34Z" transform="translate(-102.271 -262.751)" fill="#fff"/><path d="M193.807,406.332a.562.562,0,1,1-.873-.708,6.718,6.718,0,0,1,6.009-2.591c.21.315.433.656.656.938A6.255,6.255,0,0,0,193.807,406.332Z" transform="translate(-101.348 -261.691)" fill="#fff"/><path d="M199.213,412.27a.551.551,0,0,1-.781.072.564.564,0,0,1-.092-.774,6.39,6.39,0,0,1,5.642-2.578c.289.3.577.59.866.873a6.167,6.167,0,0,0-5.636,2.408Z" transform="translate(-103.212 -263.746)" fill="#fff"/><path d="M209.794,415.059c2.5-.059,5.6,2.021,5.6,4.546v.249c-2.762,4.442-9.355,4.146-13.777,2.336C201.974,416.129,207.774,415.02,209.794,415.059Z" transform="translate(-104.379 -265.84)" fill="#fff"/><path d="M202.052,415.01a.551.551,0,0,1-.781.072.558.558,0,0,1-.092-.774,6.39,6.39,0,0,1,5.622-2.539c.354.315.7.61,1.05.886A6.223,6.223,0,0,0,202.052,415.01Z" transform="translate(-104.188 -264.701)" fill="#fff"/><path d="M210.7,373.14a40.776,40.776,0,0,0,2.034,6.377l-1.706.092a4.068,4.068,0,0,0-3.615,2.683l-.033.1a1.594,1.594,0,0,1-1.968.977h0a1.581,1.581,0,0,1-.964-.833l-2.9-6.062Z" transform="translate(-104.355 -251.422)" fill="#955"/><path d="M216.4,406.915c4.409,1.883,11.153,2.25,13.967-2.25v1.214c-2.8,4.507-9.559,4.14-13.967,2.25s-3.451-4.96-7.4-6.613a10.7,10.7,0,0,1-3.858-2.434A13.011,13.011,0,0,0,205,397.77a13.494,13.494,0,0,0,4,2.546C212.945,401.949,211.98,405.033,216.4,406.915Z" transform="translate(-105.542 -259.893)" fill="#37474f"/><path d="M204.92,388.616a6.219,6.219,0,0,0,0-2.624,1.417,1.417,0,0,1,.2-1.155l.485,1.017a1.592,1.592,0,0,0,2.933-.144l.033-.1a4.068,4.068,0,0,1,3.562-2.657l1.706-.1a1.233,1.233,0,0,1,1.207.761,28.033,28.033,0,0,0,9.6,11.12c2.506-.059,5.609,2.021,5.609,4.547v.256c-2.8,4.5-9.559,4.133-13.967,2.25s-3.451-4.966-7.4-6.62a13.5,13.5,0,0,1-4-2.545A14.435,14.435,0,0,1,204.92,388.616Z" transform="translate(-105.462 -254.761)" fill="#455a64"/><path d="M217.481,395.29a.564.564,0,0,1-.787.072.558.558,0,0,1-.085-.774,6.383,6.383,0,0,1,5.76-2.526c.236.289.472.577.722.859a6.167,6.167,0,0,0-5.609,2.368Z" transform="translate(-109.494 -257.919)" fill="#fff"/><path d="M214.839,392.243a.558.558,0,1,1-.873-.7,6.725,6.725,0,0,1,6.016-2.624c.21.315.433.656.656.938A6.266,6.266,0,0,0,214.839,392.243Z" transform="translate(-108.584 -256.839)" fill="#fff"/><path d="M220.249,398.141a.558.558,0,1,1-.873-.7,6.39,6.39,0,0,1,5.609-2.546c.282.3.571.59.866.873a6.174,6.174,0,0,0-5.6,2.368Z" transform="translate(-110.444 -258.9)" fill="#fff"/><path d="M230.828,401c2.506-.059,5.609,2.021,5.609,4.547v.256c-2.762,4.435-9.355,4.14-13.777,2.329C223.008,402.042,228.827,400.947,230.828,401Z" transform="translate(-111.616 -261.003)" fill="#fff"/><path d="M223.091,400.91a.551.551,0,0,1-.781.072.545.545,0,0,1-.092-.768,6.377,6.377,0,0,1,5.622-2.545c.348.315.7.61,1.05.886A6.227,6.227,0,0,0,223.091,400.91Z" transform="translate(-111.423 -259.852)" fill="#fff"/><path d="M186.876,350.418c-3.031,4.068-9.992,4.271-9.992,4.271-3.884-7.787-6.731-11.094-8.936-17.615s-3.674-11.028-3.674-11.028l-29.588-8.089c-4.874-7.807-3.457-13.981-3.457-13.981l17.057-.236,23.821,9.355a13.777,13.777,0,0,1,8.411,9.756Z" transform="translate(-80.103 -227.552)" fill="#1565c0"/><path d="M186.876,350.418c-3.031,4.068-9.992,4.271-9.992,4.271-3.884-7.787-6.731-11.094-8.936-17.615s-3.674-11.028-3.674-11.028l-29.588-8.089c-4.874-7.807-3.457-13.981-3.457-13.981l17.057-.236,23.821,9.355a13.777,13.777,0,0,1,8.411,9.756Z" transform="translate(-80.617 -227.552)" opacity="0.3"/><path d="M169.62,321.594l-13.712-8.529a7.676,7.676,0,0,1,1.555-3.4,8.128,8.128,0,0,0-3.989,3.8l-2.224,9.152,19.977,5.458s1.47,4.5,3.674,11.028a51.136,51.136,0,0,0,4.638,9.729c-.82-4.455-1.87-10.392-2.913-16.736A15.286,15.286,0,0,0,169.62,321.594Z" transform="translate(-87.055 -229.588)" opacity="0.3"/><path d="M165.749,359.008c-3.031,4.068-9.992,4.271-9.992,4.271-3.884-7.774-6.731-11.094-8.942-17.615s-3.674-11.028-3.674-11.028l-18.37-5.012a21.774,21.774,0,0,1-15.9-18.586c-.3-2.716-.315-4.592-.315-4.592l18.5-3.385L153.3,321.292a13.777,13.777,0,0,1,5.59,8.247Z" transform="translate(-72.372 -227.318)" fill="#1565c0"/><path d="M165.749,359.008c-3.031,4.068-9.992,4.271-9.992,4.271-3.884-7.774-6.731-11.094-8.942-17.615s-3.674-11.028-3.674-11.028l-18.37-5.012a21.774,21.774,0,0,1-15.9-18.586c-.3-2.716-.315-4.592-.315-4.592l18.5-3.385L153.3,321.292a13.777,13.777,0,0,1,5.59,8.247Z" transform="translate(-72.372 -227.318)" opacity="0.3"/><path d="M164.23,262.584l7.722,6.285,5.111-8.293-6.429-7.217C165,255.846,164.23,262.584,164.23,262.584Z" transform="translate(-91.519 -210.224)" fill="#823c3c"/><path d="M144.27,233.823c6.088-.656,8.378,1.246,12.327,4.973s7.938,7.919,7.938,7.919c-6.088,2.979-6.764,10.221-6.764,10.221-3.32-2.572-6.128-4.592-6.128-4.592Z" transform="translate(-84.654 -203.461)" fill="#26aab7"/><path d="M144.27,233.823c6.088-.656,8.378,1.246,12.327,4.973s7.938,7.919,7.938,7.919c-6.088,2.979-6.764,10.221-6.764,10.221-3.32-2.572-6.128-4.592-6.128-4.592Z" transform="translate(-84.654 -203.461)" fill="#fff" opacity="0.5"/><path d="M108.885,239.022c8.667-4.061,15.161-4.533,22.247-4.842,10.6,6.83,6.633,12.511,6.456,21.65s-2.172,14.617,4.146,24.1c-13.9,11.1-31.451,7.591-35.644,4.92C103.38,259.6,104.187,240.97,108.885,239.022Z" transform="translate(-70.991 -203.627)" fill="#26aab7"/><path d="M108.885,239.022c8.667-4.061,15.161-4.533,22.247-4.842,10.6,6.83,6.633,12.511,6.456,21.65s-2.172,14.617,4.146,24.1c-13.9,11.1-31.451,7.591-35.644,4.92C103.38,259.6,104.187,240.97,108.885,239.022Z" transform="translate(-70.991 -203.627)" fill="#fff" opacity="0.7"/><path d="M158.618,244.1l7.768,18.3a5.38,5.38,0,0,0,6.889,2.919h0a5.386,5.386,0,0,0,2.277-8.4l-13.056-16.3a5.906,5.906,0,0,0-1.4-1.273l-5.248-3.392a2.762,2.762,0,0,0-1.883-.42l-3.53.485-.171,9.7,2.244.282a3.681,3.681,0,0,0,1.784-.217Z" transform="translate(-86.714 -204.085)" fill="#955"/><path d="M117.607,276l1.968,10.8,14.2,3.608a4.192,4.192,0,0,0,3-.348,13.78,13.78,0,0,1,3.175-1.312c.879-.2,1.778-.315,2.657-.512a7.873,7.873,0,0,0,1.8-.61.768.768,0,0,1,1.122.656,1.64,1.64,0,0,1-.125.617,3.044,3.044,0,0,1-1.194,1.312,7.427,7.427,0,0,1-2.585,1.082,7.217,7.217,0,0,0,4.041.44c1.312-.171,2.624-.525,3.936-.656a2.421,2.421,0,0,1,1.45.171.958.958,0,0,1,.433,1.253c-.341.538-1.22.413-1.647.879a2.422,2.422,0,0,1,.433.932,1.463,1.463,0,0,1-.2,1.023,1.037,1.037,0,0,1-.905.472,3.7,3.7,0,0,1-1.443,2.48,7.348,7.348,0,0,1-2.624,1.233c-3.936,1.063-7.722-.977-11.671-1.968-.538-.131-13.18-.892-19.642-1.273a4.855,4.855,0,0,1-4.474-3.9l-2.828-14.217Z" transform="translate(-71.656 -218.011)" fill="#955"/><path d="M116.84,294.628c.853-1.037,4.14-3.136,6.318-2.782l-.2-1.109A6.37,6.37,0,0,0,116.84,294.628Z" transform="translate(-75.22 -223.078)" fill="#823c3c"/><path d="M107.257,241.559c-10.379,3.884-8.017,13.121-4.192,27.718,6.18,1.706,13.489-3.667,13.489-3.667C114.52,254.057,113.752,241.382,107.257,241.559Z" transform="translate(-69.363 -206.165)" fill="#26aab7"/><path d="M107.257,241.559c-10.379,3.884-8.017,13.121-4.192,27.718,6.18,1.706,13.489-3.667,13.489-3.667C114.52,254.057,113.752,241.382,107.257,241.559Z" transform="translate(-69.363 -206.165)" fill="#fff" opacity="0.5"/><path d="M114.931,207.936c-1.043-3.5-.82-7.525,1.273-10.5a11.475,11.475,0,0,1,5.557-4.1,17.59,17.59,0,0,1,6.908-.892A12.583,12.583,0,0,1,134,193.726a8.575,8.575,0,0,1,3.53,11.625,14.342,14.342,0,0,1-3.49,3.982,44.665,44.665,0,0,1-8.791,5.9c-.787.4-1.588.774-2.395,1.128-.551.236-1.594.912-2.211.794s-1.266-1.312-1.64-1.752c-.538-.656-1.05-1.391-1.529-2.112a20.339,20.339,0,0,1-2.539-5.36Z" transform="translate(-74.354 -189.258)" fill="#263238"/><path d="M136.469,202.41a8.758,8.758,0,0,1-5.819,2.447,23.05,23.05,0,0,1-6-1.194,4.592,4.592,0,0,1-1.358,2.506,5.249,5.249,0,0,1-2.795,1.214,18.06,18.06,0,0,1,0,5.576,1.069,1.069,0,0,1-.748.859c-.656.19-1.1-.492-1.43-1.043a4.592,4.592,0,0,0-1.437-1.607,2.25,2.25,0,0,0-2.086-.21,2.158,2.158,0,0,0-1.1,1.312,4,4,0,0,0-.085,1.765,5.288,5.288,0,0,0,1.148,2.7,3.635,3.635,0,0,0,2.565,1.312,2.624,2.624,0,0,0,2.467-1.22l.046.184a6.236,6.236,0,0,0,.269.859,7.348,7.348,0,0,0,5.386,4.592c1.253.262,2.624.512,4.054.728.7.1,1.4.2,2.093.289a5.052,5.052,0,0,0,5.576-4.127C138.194,214.022,138.509,207.744,136.469,202.41Z" transform="translate(-74.091 -192.7)" fill="#955"/><path d="M123.58,226v9.388a10.346,10.346,0,0,0,7.551,4.186,3.681,3.681,0,0,0,2.716-.7,2.2,2.2,0,0,0-.276-3.484,1.2,1.2,0,0,1-.551-1V231.34c-1.417-.216-2.8-.466-4.054-.728A7.348,7.348,0,0,1,123.58,226Z" transform="translate(-77.538 -200.814)" fill="#955"/><path d="M129.948,232.922a19.91,19.91,0,0,0,3.169.564v-1.9c-1.417-.217-2.8-.466-4.054-.728a7.341,7.341,0,0,1-5.2-4.205,7.473,7.473,0,0,0,1.9,3.936A8.995,8.995,0,0,0,129.948,232.922Z" transform="translate(-77.634 -201.038)" fill="#823c3c"/><path d="M137.225,211.971h-1.214a8.9,8.9,0,0,0-8.391-.853v1.312l.335.177a13.3,13.3,0,0,1,.315,2.513,3.339,3.339,0,0,0,.925,2.224,3.746,3.746,0,0,0,2.5.656,4.592,4.592,0,0,0,2.073-.3,3.32,3.32,0,0,0,1.588-1.9c.3-.8.249-1.26.656-2.224a.715.715,0,0,1,.656-.446.656.656,0,0,1,.617.446c.348.964.3,1.424.584,2.224a3.281,3.281,0,0,0,1.483,1.9,4.061,4.061,0,0,0,1.968.3,3.326,3.326,0,0,0,2.336-.656,3.451,3.451,0,0,0,.866-2.224,13.844,13.844,0,0,1,.3-2.513l.315-.177v-1.312A7.873,7.873,0,0,0,137.225,211.971Zm-1.824.656-.053.459a10.852,10.852,0,0,1-.61,2.414,2.716,2.716,0,0,1-1.253,1.529,3.457,3.457,0,0,1-1.5.243h-.269a3.28,3.28,0,0,1-2.067-.5,2.624,2.624,0,0,1-.709-1.785c0-.21-.039-.433-.052-.656-.039-.61,0-1.968.046-2.919a7.873,7.873,0,0,1,2.132-.3,8.155,8.155,0,0,1,4.277,1.247C135.421,212.417,135.4,212.627,135.4,212.627Zm8.483,1.712a3.155,3.155,0,0,1-.046.656,2.736,2.736,0,0,1-.656,1.784,2.854,2.854,0,0,1-1.929.5h-.262a3.044,3.044,0,0,1-1.4-.243,2.664,2.664,0,0,1-1.168-1.529,11.382,11.382,0,0,1-.577-2.414l-.046-.459s0-.21.052-.256a7.262,7.262,0,0,1,4-1.247,6.849,6.849,0,0,1,1.968.3A28.687,28.687,0,0,1,143.884,214.339Z" transform="translate(-78.927 -195.458)" fill="#455a64"/><path d="M124.04,211.48l-6.83,2.454a2.953,2.953,0,0,1,1.312.656c.072.059,5.491-1.8,5.491-1.8Z" transform="translate(-75.347 -195.82)" fill="#455a64"/><path d="M141.32,214.64l3.444,4.173-3.162,1.122Z" transform="translate(-83.639 -196.907)" fill="#955"/><path d="M141.32,214.64l3.444,4.173-3.162,1.122Z" transform="translate(-83.639 -196.907)" fill="#823c3c"/><path d="M133.9,214.945a.951.951,0,1,0,.951-.945A.951.951,0,0,0,133.9,214.945Z" transform="translate(-81.087 -196.687)" fill="#263238"/><path d="M146,214.555a.945.945,0,1,0,.279-.67A.945.945,0,0,0,146,214.555Z" transform="translate(-85.249 -196.553)" fill="#263238"/><path d="M145.25,208.213l2.539.282a1.358,1.358,0,0,0-1.063-1.115A1.62,1.62,0,0,0,145.25,208.213Z" transform="translate(-84.991 -194.409)" fill="#263238"/><path d="M135.5,207.868l-2.46.656a1.312,1.312,0,0,1,.879-1.26,1.6,1.6,0,0,1,1.581.6Z" transform="translate(-80.791 -194.36)" fill="#263238"/><path d="M136.875,225.08l2.624.807a1.614,1.614,0,0,1-1.771.82A1.463,1.463,0,0,1,136.875,225.08Z" transform="translate(-82.101 -200.498)" fill="#955"/><path d="M136.875,225.08l2.624.807a1.614,1.614,0,0,1-1.771.82A1.463,1.463,0,0,1,136.875,225.08Z" transform="translate(-82.101 -200.498)" fill="#632828"/><path d="M138.609,226.872a1.489,1.489,0,0,1-.859.053,1.312,1.312,0,0,1-.859-1.194,1.594,1.594,0,0,1,1.023.19A1.535,1.535,0,0,1,138.609,226.872Z" transform="translate(-82.116 -200.715)" fill="#823c3c"/><path d="M140.637,251.638a5.452,5.452,0,0,0,4.973,0,8.827,8.827,0,0,0,1.01-.558,1.863,1.863,0,0,1-1.01,1.312,5.491,5.491,0,0,1-4.973,0,1.8,1.8,0,0,1-1-1.312,7.908,7.908,0,0,0,.951.538Z" transform="translate(-83.062 -209.44)" fill="#263238"/><path d="M132.89,238.85h0a4.011,4.011,0,0,0,2.3,3.28,12.356,12.356,0,0,0,11.205,0,3.968,3.968,0,0,0,2.336-3.28h0a10.031,10.031,0,0,1-4.428,8.024,8.828,8.828,0,0,1-1.01.558,5.452,5.452,0,0,1-4.973,0h-.046a7.909,7.909,0,0,1-.951-.538A10.018,10.018,0,0,1,132.89,238.85Z" transform="translate(-80.74 -205.234)" fill="#455a64"/><path d="M148.7,236.447a3.934,3.934,0,0,0-2.3-3.241,12.356,12.356,0,0,0-11.205,0,3.974,3.974,0,0,0-2.336,3.241c-.007,1.168.754,2.349,2.3,3.28a12.356,12.356,0,0,0,11.205,0C147.936,238.8,148.7,237.628,148.7,236.447Zm-.689,0a2.854,2.854,0,0,1-1.26,2.158,6.525,6.525,0,0,1-.735.5,11.645,11.645,0,0,1-10.5,0,5.633,5.633,0,0,1-.7-.479,2.841,2.841,0,0,1-1.26-2.158,3.342,3.342,0,0,1,1.968-2.657,11.645,11.645,0,0,1,10.5,0,3.271,3.271,0,0,1,2.014,2.631Z" transform="translate(-80.73 -202.83)" fill="#455a64"/><path d="M147.14,238.961a3.28,3.28,0,0,0-1.542-1.607,8.857,8.857,0,0,0-4.409-1.056,8.962,8.962,0,0,0-4.422,1.056,3.333,3.333,0,0,0-1.568,1.627,2.841,2.841,0,0,1-1.26-2.158,3.342,3.342,0,0,1,1.968-2.657,11.645,11.645,0,0,1,10.5,0,3.318,3.318,0,0,1,1.968,2.624A2.854,2.854,0,0,1,147.14,238.961Z" transform="translate(-81.101 -203.192)" fill="#263238"/><path d="M140.637,251.638a5.452,5.452,0,0,0,4.973,0,8.827,8.827,0,0,0,1.01-.558,1.863,1.863,0,0,1-1.01,1.312,5.491,5.491,0,0,1-4.973,0,1.8,1.8,0,0,1-1-1.312,7.908,7.908,0,0,0,.951.538Z" transform="translate(-83.062 -209.44)" fill="#fff" opacity="0.6"/><path d="M132.89,238.85h0a4.011,4.011,0,0,0,2.3,3.28,12.356,12.356,0,0,0,11.205,0,3.968,3.968,0,0,0,2.336-3.28h0a10.031,10.031,0,0,1-4.428,8.024,8.828,8.828,0,0,1-1.01.558,5.452,5.452,0,0,1-4.973,0h-.046a7.909,7.909,0,0,1-.951-.538A10.018,10.018,0,0,1,132.89,238.85Z" transform="translate(-80.74 -205.234)" fill="#fff" opacity="0.7"/><path d="M148.7,236.447a3.934,3.934,0,0,0-2.3-3.241,12.356,12.356,0,0,0-11.205,0,3.974,3.974,0,0,0-2.336,3.241c-.007,1.168.754,2.349,2.3,3.28a12.356,12.356,0,0,0,11.205,0C147.936,238.8,148.7,237.628,148.7,236.447Zm-.689,0a2.854,2.854,0,0,1-1.26,2.158,6.525,6.525,0,0,1-.735.5,11.645,11.645,0,0,1-10.5,0,5.633,5.633,0,0,1-.7-.479,2.841,2.841,0,0,1-1.26-2.158,3.342,3.342,0,0,1,1.968-2.657,11.645,11.645,0,0,1,10.5,0,3.271,3.271,0,0,1,2.014,2.631Z" transform="translate(-80.73 -202.83)" fill="#fff" opacity="0.8"/><path d="M147.14,238.961a3.28,3.28,0,0,0-1.542-1.607,8.857,8.857,0,0,0-4.409-1.056,8.962,8.962,0,0,0-4.422,1.056,3.333,3.333,0,0,0-1.568,1.627,2.841,2.841,0,0,1-1.26-2.158,3.342,3.342,0,0,1,1.968-2.657,11.645,11.645,0,0,1,10.5,0,3.318,3.318,0,0,1,1.968,2.624A2.854,2.854,0,0,1,147.14,238.961Z" transform="translate(-81.101 -203.192)" fill="#fff" opacity="0.6"/><path d="M137.435,239.125a8.962,8.962,0,0,1,4.422-1.056,8.857,8.857,0,0,1,4.409,1.056,3.28,3.28,0,0,1,1.542,1.607,6.516,6.516,0,0,1-.735.5,11.645,11.645,0,0,1-10.5,0,5.633,5.633,0,0,1-.7-.479A3.333,3.333,0,0,1,137.435,239.125Z" transform="translate(-81.768 -204.964)" fill="#632828"/><ellipse cx="6.305" cy="6.305" rx="6.305" ry="6.305" transform="translate(35.991)" fill="#263238"/></g></g></svg>