<svg xmlns="http://www.w3.org/2000/svg" width="302.2" height="310.482" viewBox="0 0 302.2 310.482"><g transform="translate(-20.59 -17.161)"><g transform="translate(20.59 153.168)"><path d="M151.1,0c83.45,0,151.1,39.058,151.1,87.238s-67.65,87.238-151.1,87.238S0,135.418,0,87.238,67.65,0,151.1,0Z" fill="#727997" opacity="0.16"/></g><g transform="translate(36.512 235.623)" opacity="0.35"><ellipse cx="46.857" cy="27.055" rx="46.857" ry="27.055" transform="translate(0)" fill="#727997"/></g><g transform="translate(147.706 166.254)"><g transform="translate(13.808)"><path d="M238.14,363.067l-5.4-3.115V313.214l97.142-56.084,5.394,3.115v46.738Z" transform="translate(-232.74 -246.821)" fill="#fb8c00"/><path d="M238.14,363.067l-5.4-3.115V313.214l97.142-56.084,5.394,3.115v46.738Z" transform="translate(-232.74 -246.821)" opacity="0.2"/><path d="M240.87,317.9l97.135-56.084v46.738L240.87,364.641Z" transform="translate(-235.47 -248.395)" fill="#fb8c00"/><path d="M301.607,279.965l-5.4-3.122a25.906,25.906,0,0,1-9.333-2.225,26.821,26.821,0,0,1-4.158-3.813c-8.217-9.3,0-26.67,0-26.67l-4.364-2.524c-16.859,15.192-22.618,34.369-11.824,52.371l5.4,3.115Z" transform="translate(-242.242 -241.61)" fill="#fb8c00"/><path d="M301.607,279.965l-5.4-3.122a25.906,25.906,0,0,1-9.333-2.225,26.821,26.821,0,0,1-4.158-3.813c-8.217-9.3,0-26.67,0-26.67l-4.364-2.524c-16.859,15.192-22.618,34.369-11.824,52.371l5.4,3.115Z" transform="translate(-242.242 -241.61)" opacity="0.2"/><path d="M274.507,298.372c-10.794-18-6.071-37.777,10.788-52.962,0,0-8.217,17.377,0,26.67a27.341,27.341,0,0,0,18.892,9.16Z" transform="translate(-244.821 -242.886)" fill="#fb8c00"/></g><g transform="translate(65.076 50.36)"><path d="M254.986,371.976l-2.657,1.415a.558.558,0,0,1-.9-.525L251,353.25a1.76,1.76,0,0,1,.857-1.455l5.048-2.657c.485-.259.837,0,.79.525l-1.807,20.884a2.046,2.046,0,0,1-.9,1.428Z" transform="translate(-250.671 -349.037)" fill="#fafafa"/><path d="M253.1,395.6c-1.694.9-2.657-.372-2.591-2.106a6.324,6.324,0,0,1,2.843-5c1.707-.9,2.657.372,2.6,2.106a6.31,6.31,0,0,1-2.85,5Z" transform="translate(-250.505 -362.182)" fill="#fafafa"/></g><g transform="translate(0 46.848)"><path d="M212.79,356.938a.817.817,0,0,1-.332-1.561l8.4-3.693a.815.815,0,0,1,.664,1.488l-8.4,3.693a.823.823,0,0,1-.332.073Z" transform="translate(-211.962 -325.39)" fill="#455a64"/><path d="M222.181,338.5a.8.8,0,0,1-.3-.06l-9.346-3.693a.817.817,0,1,1,.6-1.515l9.346,3.693a.817.817,0,0,1-.3,1.574Z" transform="translate(-211.953 -319.192)" fill="#455a64"/><path d="M230.915,324.078a.824.824,0,0,1-.7-.392l-4.61-7.7A.813.813,0,1,1,227,315.15l4.65,7.7a.81.81,0,0,1-.7,1.229Z" transform="translate(-216.497 -313.016)" fill="#455a64"/><path d="M395.676,318.224a.8.8,0,0,1-.724-.432.817.817,0,0,1,.339-1.1l8.43-4.424a.817.817,0,1,1,.757,1.441l-8.43,4.424A.757.757,0,0,1,395.676,318.224Z" transform="translate(-273.361 -312.137)" fill="#455a64"/><path d="M404.29,335.917a.824.824,0,0,1-.219,0l-9.658-2.717a.817.817,0,0,1,.438-1.568l9.658,2.7a.817.817,0,0,1-.219,1.6Z" transform="translate(-273.034 -318.678)" fill="#455a64"/><path d="M393.607,353.061a.8.8,0,0,1-.664-.345l-5-7.081a.817.817,0,0,1,1.329-.937l4.975,7.081a.813.813,0,0,1-.644,1.282Z" transform="translate(-271.006 -322.975)" fill="#455a64"/></g></g><g transform="translate(111.299 17.161)"><path d="M177.446,21.741c2.9-1.654,6.888-1.4,11.332,1.149,8.888,5.135,16.1,17.616,16.1,27.9,0,5.128-1.8,8.735-4.71,10.416l-5.507,3.169c-2.909,1.674-6.928,1.435-11.372-1.129-8.888-5.135-16.1-17.623-16.1-27.9,0-5.121,1.794-8.722,4.7-10.409C173.1,24.219,176.211,22.439,177.446,21.741Z" transform="translate(-160.518 -18.348)" fill="#727997"/><path d="M177.446,21.741c2.9-1.654,6.888-1.4,11.332,1.149,8.888,5.135,16.1,17.616,16.1,27.9,0,5.128-1.8,8.735-4.71,10.416l-5.507,3.169c-2.909,1.674-6.928,1.435-11.372-1.129-8.888-5.135-16.1-17.623-16.1-27.9,0-5.121,1.794-8.722,4.7-10.409C173.1,24.219,176.211,22.439,177.446,21.741Z" transform="translate(-160.518 -18.348)" opacity="0.15"/><path d="M204.9,83.621a12.123,12.123,0,0,0,4.025,3.986,11.226,11.226,0,0,0,6.045,1.521.664.664,0,0,0,.286-.066l5.474-3.155a.545.545,0,0,0,0-.95A9.745,9.745,0,0,1,215.7,77.39Z" transform="translate(-173.178 -37.382)" fill="#727997"/><path d="M204.9,83.621a12.123,12.123,0,0,0,4.025,3.986,11.226,11.226,0,0,0,6.045,1.521.664.664,0,0,0,.286-.066l5.474-3.155a.545.545,0,0,0,0-.95A9.745,9.745,0,0,1,215.7,77.39Z" transform="translate(-173.178 -37.382)" opacity="0.25"/><ellipse cx="13.146" cy="22.771" rx="13.146" ry="22.771" transform="translate(0 13.146) rotate(-30)" fill="#727997"/><path d="M209.888,78.51a9.738,9.738,0,0,0,4.975,9.964.551.551,0,0,1-.266,1.03,11.292,11.292,0,0,1-6.051-1.528c-4.278-2.71-4.816-5.919-4.816-5.919Z" transform="translate(-172.786 -37.758)" fill="#727997"/><g transform="translate(18.916 12.934)"><path d="M187.8,54.519l2.059,1.1a.432.432,0,0,0,.7-.405l.286-15.278a1.382,1.382,0,0,0-.664-1.136l-3.932-2.092c-.379-.2-.664,0-.618.405L187.036,53.4A1.561,1.561,0,0,0,187.8,54.519Z" transform="translate(-185.623 -36.632)" fill="#fafafa"/><path d="M189.742,72.941c1.329.7,2.072-.292,1.993-1.641a4.929,4.929,0,0,0-2.225-3.9c-1.329-.711-2.072.292-1.993,1.641A4.9,4.9,0,0,0,189.742,72.941Z" transform="translate(-186.257 -46.884)" fill="#fafafa"/></g></g><g transform="translate(167 36.417)"><circle cx="23.023" cy="23.023" r="23.023" transform="translate(106.089)" fill="#455a64"/><path d="M439.579,77.213,413.6,92.219A23.023,23.023,0,0,0,447.152,61.43C449.211,67.3,447.936,72.39,439.579,77.213Z" transform="translate(-298.948 -51.28)" fill="#37474f"/><path d="M420.452,100.04l-16.042-9.3c4.929,18.52,7.686,46.312,6.417,66.685l6.417,3.707C421,148.9,421.84,123.887,420.452,100.04Z" transform="translate(-295.863 -61.121)" fill="#37474f"/><path d="M446.441,104.51l-6.762,8.635-.173,25.209a32.144,32.144,0,0,1-15.776,27.454h0c3.839-14.614,4.278-39.411,3.208-61.112Z" transform="translate(-302.349 -65.744)" fill="#455a64"/><path d="M425.111,146.711l.472.272a3.009,3.009,0,0,0,2.737,0l3.673-2.119c.757-.438,1.368-.086,1.368.79v.565a3.009,3.009,0,0,1-1.368,2.365l-3.733,2.165a2.982,2.982,0,0,1-2.723,0l-.438-.266a3.082,3.082,0,0,1-1.329-2.391v-.545C423.743,146.632,424.354,146.273,425.111,146.711Z" transform="translate(-302.362 -79.229)" fill="#b2ebf2"/><path d="M424.257,159.141l.472.272a3.009,3.009,0,0,0,2.737,0l3.673-2.119c.757-.438,1.368-.086,1.368.79v.538a3.016,3.016,0,0,1-1.329,2.365l-3.733,2.165a2.983,2.983,0,0,1-2.724,0l-.445-.266a3.109,3.109,0,0,1-1.328-2.391v-.545C422.888,159.028,423.5,158.7,424.257,159.141Z" transform="translate(-302.085 -83.402)" fill="#b2ebf2"/><path d="M423.381,171.571l.472.272a3.009,3.009,0,0,0,2.737,0l3.673-2.119c.757-.438,1.368-.086,1.368.79v.531a3.009,3.009,0,0,1-1.368,2.371l-3.733,2.166a2.982,2.982,0,0,1-2.723,0l-.438-.266a3.089,3.089,0,0,1-1.329-2.391v-.545C422.013,171.485,422.624,171.133,423.381,171.571Z" transform="translate(-301.781 -87.575)" fill="#b2ebf2"/><path d="M390.19,55.717h0c3.076-1.767,7.227-1.7,11.831.551.485.232.97.492,1.468.777a17.565,17.565,0,0,1,1.727,1.089,28.876,28.876,0,0,1,2.783,2.1,37.2,37.2,0,0,1,4.65,4.736,45.362,45.362,0,0,1,8.436,16.155,31.778,31.778,0,0,1,1.249,8.529c0,5.859-1.993,10.017-5.268,12.043l11.6-6.682h0A14.992,14.992,0,0,0,435.5,82.082a31.466,31.466,0,0,0-1.143-8.144,45.17,45.17,0,0,0-8.609-16.56,37.2,37.2,0,0,0-4.65-4.736,27.822,27.822,0,0,0-2.743-2.119c-.571-.392-1.149-.757-1.727-1.089a15.64,15.64,0,0,0-1.481-.764,14.846,14.846,0,0,0-13.139.219h0l-.326.179c-.133.08-.279.159-.412.246Z" transform="translate(-291.089 -46.517)" fill="#26aab7"/><path d="M442.241,108.507h0a14.992,14.992,0,0,0,6.835-12.933,31.466,31.466,0,0,0-1.143-8.144l-13.285,7.214a31.78,31.78,0,0,1,1.249,8.529c0,5.859-1.993,10.017-5.268,12.043Z" transform="translate(-304.666 -60.009)" opacity="0.1"/><path d="M381.87,71.554c0,12.017,8.43,26.624,18.832,32.629,5.228,3.022,9.964,3.321,13.385,1.275a1.327,1.327,0,0,0,.186-.106c3.262-1.993,5.268-6.184,5.268-12.043,0-12.017-8.429-26.63-18.832-32.609-5.188-3-9.9-3.288-13.285-1.329S381.87,65.536,381.87,71.554Z" transform="translate(-288.295 -50.171)" fill="#fb8c00"/><path d="M381.87,71.554c0,12.017,8.43,26.624,18.832,32.629,5.228,3.022,9.964,3.321,13.385,1.275a1.327,1.327,0,0,0,.186-.106c3.262-1.993,5.268-6.184,5.268-12.043,0-12.017-8.429-26.63-18.832-32.609-5.188-3-9.9-3.288-13.285-1.329S381.87,65.536,381.87,71.554Z" transform="translate(-288.295 -50.171)" opacity="0.2"/><path d="M294.92,69.04s19,9.758,35.206,37.863a128.268,128.268,0,0,1,7.706,15.67c8.15,20,7.473,33.771,7.473,33.771,5.666-13.87,12.707-28.231,24.452-39.231A178.306,178.306,0,0,1,384.2,105.037h0c3.109-1.807,4.922-5.726,4.929-11.126A32.616,32.616,0,0,0,387,82.844a43.576,43.576,0,0,0-3.2-6.935c-3.321-5.719-7.865-10.708-12.887-13.611-4.65-2.7-8.981-3.089-12.1-1.329h0a177.5,177.5,0,0,1-17.683,6.47C325.729,72.156,309.766,71.073,294.92,69.04Z" transform="translate(-259.103 -50.766)" fill="#26aab7"/><path d="M294.92,69.04s19,9.758,35.206,37.863a128.268,128.268,0,0,1,7.706,15.67c8.15,20,7.473,33.771,7.473,33.771,5.666-13.87,12.707-28.231,24.452-39.231A178.306,178.306,0,0,1,384.2,105.037h0c3.109-1.807,4.922-5.726,4.929-11.126A32.616,32.616,0,0,0,387,82.844a43.576,43.576,0,0,0-3.2-6.935c-3.321-5.719-7.865-10.708-12.887-13.611-4.65-2.7-8.981-3.089-12.1-1.329h0a177.5,177.5,0,0,1-17.683,6.47C325.729,72.156,309.766,71.073,294.92,69.04Z" transform="translate(-259.103 -51.527)" fill="#fff" opacity="0.6"/><path d="M359.56,134.18c8.151,20,7.473,33.771,7.473,33.771,5.666-13.87,12.707-28.231,24.452-39.231a178.313,178.313,0,0,1,14.448-12.076h0c3.109-1.807,4.922-5.726,4.929-11.126a32.614,32.614,0,0,0-2.132-11.067C394.314,101.644,371.019,114.943,359.56,134.18Z" transform="translate(-280.805 -62.366)" opacity="0.1"/><path d="M241,98.3c0,12.528,3.853,26.245,10.276,38.906h0c8.23,16.221,20.652,30.7,34.542,38.727,24.757,14.288,44.824,2.7,44.824-25.906a76.251,76.251,0,0,0-2.963-20.26,106.827,106.827,0,0,0-27.162-46.033q-2.657-2.577-5.4-4.856c-.771-.664-1.548-1.249-2.332-1.84h0c-1.116-.844-2.239-1.654-3.374-2.411s-2.378-1.541-3.587-2.232C261.094,58.126,241,69.717,241,98.3Z" transform="translate(-241 -52.911)" fill="#26aab7"/><path d="M256.5,169.3c8.23,16.221,20.652,30.7,34.542,38.727,24.757,14.288,44.824,2.7,44.824-25.906a76.248,76.248,0,0,0-2.963-20.26h0c-1.674,3.693-7.692,8.974-10.382,5.274a68.705,68.705,0,0,1,2.6,17.975c0,8.21-1.833,14.84-5.314,19.177a14.641,14.641,0,0,1-12.063,5.567c-4.9,0-10.628-1.8-16.494-5.188-11.824-6.822-22.7-19.091-30.4-32.987C260.864,171.7,259.323,173.006,256.5,169.3Z" transform="translate(-246.204 -84.998)" opacity="0.1"/><path d="M245.65,104.384c0,12.621,4.431,26.869,11.571,39.716,7.705,13.9,18.6,26.165,30.4,32.987,5.885,3.388,11.591,5.2,16.494,5.188a14.678,14.678,0,0,0,12.063-5.567c3.461-4.338,5.314-10.967,5.314-19.177a68.705,68.705,0,0,0-2.6-17.975c-.664-2.318-1.375-4.65-2.225-6.975a98.971,98.971,0,0,0-5.314-12c-.418-.81-.844-1.608-1.282-2.4-.717-1.329-1.468-2.657-2.252-3.906a100.532,100.532,0,0,0-8.8-12.435c-.033-.04-.08-.086-.113-.133a88.786,88.786,0,0,0-6.689-7.181c-1.667-1.6-3.374-3.089-5.115-4.484-.724-.585-1.461-1.143-2.205-1.687-.89-.664-1.794-1.275-2.7-1.873s-1.78-1.123-2.657-1.641c-5.905-3.414-11.6-5.2-16.514-5.208C252.133,79.64,245.65,88.9,245.65,104.384Z" transform="translate(-242.561 -57.394)" fill="#26aab7"/><path d="M245.65,104.384c0,12.621,4.431,26.869,11.571,39.716,7.705,13.9,18.6,26.165,30.4,32.987,5.885,3.388,11.591,5.2,16.494,5.188a14.678,14.678,0,0,0,12.063-5.567c3.461-4.338,5.314-10.967,5.314-19.177a68.705,68.705,0,0,0-2.6-17.975c-.664-2.318-1.375-4.65-2.225-6.975a98.971,98.971,0,0,0-5.314-12c-.418-.81-.844-1.608-1.282-2.4-.717-1.329-1.468-2.657-2.252-3.906a100.532,100.532,0,0,0-8.8-12.435c-.033-.04-.08-.086-.113-.133a88.786,88.786,0,0,0-6.689-7.181c-1.667-1.6-3.374-3.089-5.115-4.484-.724-.585-1.461-1.143-2.205-1.687-.89-.664-1.794-1.275-2.7-1.873s-1.78-1.123-2.657-1.641c-5.905-3.414-11.6-5.2-16.514-5.208C252.133,79.64,245.65,88.9,245.65,104.384Z" transform="translate(-242.74 -57.394)" opacity="0.4"/><path d="M294.45,125.578l15.278,27.042c6.423-3.4,14.235-7.632,24.113-7.407-.252-.771-.518-1.541-.8-2.312a99.613,99.613,0,0,0-5.314-12q-.624-1.209-1.275-2.391c-.724-1.329-1.475-2.657-2.252-3.913a101.576,101.576,0,0,0-8.788-12.435c0-.04-.08-.086-.113-.133-.472-.558-.943-1.123-1.428-1.667C308.931,119.115,294.45,125.578,294.45,125.578Z" transform="translate(-258.945 -67.708)" fill="#37474f"/><path d="M306.229,160.415c3.321,0,5.314-2.657,5.314-7.207v-.139c0-7.088-5-15.743-11.14-19.264l-.12-.066a9.558,9.558,0,0,0-4.65-1.448c-3.321,0-5.314,2.7-5.314,7.207v.139c0,7.088,5,15.743,11.14,19.264l.12.073a9.618,9.618,0,0,0,4.65,1.441Z" transform="translate(-257.559 -75.07)" fill="#b2ebf2"/></g><g transform="translate(29.11 51.825)"><g transform="translate(0)"><g transform="translate(19.236 81.01)"><path d="M144.485,345.288c.213-2.8,2.159-31.087,2.159-31.087L133,324.257c1.993,16.215,2.8,20.592,2.85,23.249h0a2.272,2.272,0,0,0-.073.664c0,3.208,3.627,4.935,6.457,7.074a52.377,52.377,0,0,0,7.632,4.989c2.053,1.03,6.217,1.123,6.736-.2-3.434-2.624-7.413-5.487-10.15-8.483C145.156,350.157,144.226,348.669,144.485,345.288Z" transform="translate(-86.085 -232.562)" fill="#ffa8a7"/><path d="M163.025,384.78a2.766,2.766,0,0,1-.518,2.77,11.833,11.833,0,0,1-8.635,1.96c-4.291-.551-6.6-1.88-8.317-3.321s-4.118-3.461-6.058-3.886a11.724,11.724,0,0,1-4.331-1.774c-.578-.558-.5-3.029-.5-3.029Z" transform="translate(-86.644 -253.814)" fill="#263238"/><path d="M136.4,363.18a.664.664,0,0,0-.664.578c-.133.664-.272,2.657-.558,3.78a20.18,20.18,0,0,0-.425,6.012c.239,1.269,3.175,2.152,5.048,2.863a24.065,24.065,0,0,1,6.078,3.839,17.066,17.066,0,0,0,9.041,3.368c3.321,0,7.021-1.1,7.872-2.624,1.056-1.9.233-3-4.65-5.268-.923-.425-4.185-2.358-5.314-3.056-3-1.893-5.978-4.524-7.36-7.865a1.86,1.86,0,0,0-.7-1.023,1.541,1.541,0,0,0-.95-.086,7.932,7.932,0,0,0-2.358.711c-.664.312-1.594.664-1.574,1.515a2.7,2.7,0,0,0,.179.857c.06.173.106.405-.046.5s-.326,0-.452-.126a12.621,12.621,0,0,1-1.329-1.588,4.863,4.863,0,0,0-.777-.79,7.246,7.246,0,0,1-.837-.545C136.336,363.944,136.409,363.572,136.4,363.18Z" transform="translate(-86.651 -249.006)" fill="#37474f"/><path d="M150.207,386.345a32.117,32.117,0,0,0-2.657-1.993h0s5.766,3.5,8.091,1.913a2.069,2.069,0,0,0,.751-2.657c-.04-.392,3.667-2.106,5.121-2.278h0c.405.226.744.405.957.5,4.9,2.272,5.726,3.368,4.65,5.268-.85,1.528-3.547,2.723-7.812,2.723A17.649,17.649,0,0,1,150.207,386.345Z" transform="translate(-90.97 -255.1)" fill="#455a64"/><path d="M152.085,376.349c3.042,1.222,1.74,1.787.89,1.913s-5.978-2.876-9.107-5.347c-3.262-2.584-5.314-5.407-6.53-6.35-.452-.359-.937-.79-1.368-1.2.08-.664.146-1.282.206-1.6a.664.664,0,0,1,.664-.578c0,.392-.06.764.239,1.056a7.248,7.248,0,0,0,.837.545,4.861,4.861,0,0,1,.777.79,12.618,12.618,0,0,0,1.329,1.588C142.633,370.537,149.036,375.127,152.085,376.349Z" transform="translate(-87.083 -249.01)" fill="#263238"/><path d="M161.088,383.826a.279.279,0,0,1-.186-.066.3.3,0,0,1-.046-.425,7.267,7.267,0,0,1,5.58-2.2.306.306,0,0,1,.272.332.3.3,0,0,1-.332.266,6.716,6.716,0,0,0-5.048,1.993A.306.306,0,0,1,161.088,383.826Z" transform="translate(-95.415 -255.032)" fill="#f0f0f0"/><path d="M157.089,381.365a.279.279,0,0,1-.186-.066.306.306,0,0,1-.046-.425,7.247,7.247,0,0,1,5.58-2.2.3.3,0,0,1-.06.6,6.716,6.716,0,0,0-5.048,1.993.306.306,0,0,1-.239.1Z" transform="translate(-94.073 -254.206)" fill="#f0f0f0"/><path d="M153.088,379.035a.319.319,0,0,1-.186-.066.3.3,0,0,1-.046-.425,7.221,7.221,0,0,1,5.58-2.2.3.3,0,0,1-.06.6,6.735,6.735,0,0,0-5.055,1.993A.292.292,0,0,1,153.088,379.035Z" transform="translate(-92.729 -253.423)" fill="#f0f0f0"/><path d="M149.386,376.366a.286.286,0,0,1-.193-.066.306.306,0,0,1-.047-.425,7.307,7.307,0,0,1,5.586-2.2.3.3,0,1,1-.066.6,6.716,6.716,0,0,0-5.048,1.993.292.292,0,0,1-.232.1Z" transform="translate(-91.485 -252.527)" fill="#f0f0f0"/><path d="M145.75,373.678a.306.306,0,0,1-.186-.066.3.3,0,0,1-.046-.418,7.384,7.384,0,0,1,6.091-2.232.3.3,0,0,1-.06.6,6.87,6.87,0,0,0-5.56,1.993.306.306,0,0,1-.239.126Z" transform="translate(-90.266 -251.606)" fill="#f0f0f0"/><path d="M90.468,324.531,78.325,319.39c-2.365,8.762-3.986,20.765-6.151,29-.412,1.554-3.109,11.957-3.461,15.278-.525,5.015,5.314,6.031,6.443,3.275s4.437-14.767,4.823-16.015C81.474,345.7,90.275,324.963,90.468,324.531Z" transform="translate(-64.491 -234.305)" fill="#ffa8a7"/><path d="M74.587,392.332a13.464,13.464,0,0,1-2.836,6.125,4.3,4.3,0,0,1-5.195.8c-1.873-.857-4.085-2.657-4.172-5.208a16.176,16.176,0,0,1,1.275-6.815Z" transform="translate(-62.374 -257.081)" fill="#263238"/><path d="M70.575,361.539c-.81-.093-1.767,3.707-2.949,7.466-1.275,4.025-2.371,5.5-3.454,8.795-1.229,3.773-1.329,5.533-.438,8.124s5.294,5.812,8.263,2.883c2.438-2.365,3.089-5.374,3.634-9.266a92.21,92.21,0,0,1,2.126-9.917c.664-2.863,1.329-5.208.724-5.659-.133.412-.286.943-.425,1.329s-.478,1.86-.923,1.794A6.138,6.138,0,0,1,77.323,366a1.328,1.328,0,0,0-.04-.976,1.561,1.561,0,0,0-.817-.518c-.757-.3-1.906-.937-2.657-1.156a11.9,11.9,0,0,0-1.189-.279,6.949,6.949,0,0,0-1.488-.047.731.731,0,0,0-.5.312,1.242,1.242,0,0,0-.126.432,3.209,3.209,0,0,1-.279.737c-.053.106-.159.232-.266.179a.226.226,0,0,1-.086-.252c.086-.472.206-.8.332-1.328.053-.246.159-.585.213-.83S70.515,361.778,70.575,361.539Z" transform="translate(-62.632 -248.455)" fill="#37474f"/><path d="M64.543,384.42c-.186.545-1.329,4.145-.472,5s2.092-1.86,2.092-1.86a9.917,9.917,0,0,1,6.1,1.993c-.306.565-.1,2.657,1,2.418s2.285-4.378,2.3-4.431c-.538,3.727-1.222,6.643-3.587,8.928-2.969,2.956-7.347-.266-8.283-2.856s-.79-4.351.438-8.124C64.277,385.111,64.41,384.759,64.543,384.42Z" transform="translate(-62.612 -256.138)" fill="#455a64"/><path d="M67.431,380.165c-.279,1.395-1.568.664-1.255-1.329s1.82-6.457,2.451-9.851c1.182-3.76,2.139-7.559,2.949-7.466a1.03,1.03,0,0,0,0,.139l-.478,1.933c-.073.279-.146.525-.2.83-.558,2.843-1.541,8.27-2.278,10.821a46.424,46.424,0,0,0-1.189,4.922Z" transform="translate(-63.634 -248.448)" fill="#263238"/><path d="M76.215,383a45.8,45.8,0,0,0,1.687-4.756c.757-2.524,2.856-7.453,3.926-10.163a7.308,7.308,0,0,0,.578-1.541c.126-.379.272-.864.4-1.262v-.08c.458.332.2,1.88-.246,3.8-.312,1.1-.983,2.265-1.548,3.893-1.329,3.188-2.239,7.878-3.049,9.712S75.7,384.331,76.215,383Z" transform="translate(-66.984 -249.685)" fill="#263238"/><path d="M73.733,391.128a.233.233,0,0,1-.106-.053,9.585,9.585,0,0,0-6.031-1.794.306.306,0,0,1-.325-.279.292.292,0,0,1,.279-.319,10.1,10.1,0,0,1,6.457,1.92.306.306,0,0,1,.046.425A.3.3,0,0,1,73.733,391.128Z" transform="translate(-64.017 -257.564)" fill="#f0f0f0"/><path d="M75.237,386.663a.246.246,0,0,1-.093-.046,11.85,11.85,0,0,0-6.756-1.993.312.312,0,0,1-.319-.292.306.306,0,0,1,.292-.312,12.335,12.335,0,0,1,7.141,2.126.306.306,0,0,1-.266.531Z" transform="translate(-64.286 -256.002)" fill="#f0f0f0"/><path d="M69.541,380.3a.312.312,0,0,1-.213-.246.3.3,0,0,1,.259-.339,10.319,10.319,0,0,1,7.141,2.053.3.3,0,0,1,.047.425.306.306,0,0,1-.418.046s-3.142-2.438-6.682-1.926A.293.293,0,0,1,69.541,380.3Z" transform="translate(-64.708 -254.53)" fill="#f0f0f0"/><path d="M69.94,376.25a.292.292,0,0,1-.213-.239.3.3,0,0,1,.252-.345,10.87,10.87,0,0,1,7.745,2.059.306.306,0,0,1-.405.452,10.508,10.508,0,0,0-7.247-1.913A.305.305,0,0,1,69.94,376.25Z" transform="translate(-64.841 -253.162)" fill="#f0f0f0"/><path d="M71.17,371.731a.292.292,0,0,1-.213-.232.306.306,0,0,1,.246-.352c3.986-.664,7.646,2.033,7.779,2.152a.292.292,0,0,1,0,.425.3.3,0,0,1-.425.033s-3.614-2.657-7.307-1.993a.253.253,0,0,1-.08-.033Z" transform="translate(-65.254 -251.646)" fill="#ebebeb"/><path d="M94.684,191.3c-2.657,5.925-5.095,8.908-6.39,21.868-2.312,23.1-3.793,40.261-3.793,40.261-.531,2.4-1.993,8.064-4.324,17.716C78,280.032,75.6,297.894,75.6,297.894a19.806,19.806,0,0,0,11.645-.412c3.381-8.5,11.7-29.493,14.521-39.776,2.77-10.11,7.473-25.5,7.473-25.5l3.321,23.375s-.771,9.34-.518,14.853c.292,6.41,3.089,28.244,3.089,28.244s6.131,3.056,11-.472c0,0,2.8-36.309,2.929-44.027.266-15.132,1.388-47.01-1.069-62.879Z" transform="translate(-66.814 -191.3)" fill="#37474f"/><path d="M76.195,345.52c1.993,1.847,7.779,4.291,11.06,3.74l-1.282,3.66s-1.056.817-5.228-.239-5.135-3.009-5.135-3.009Z" transform="translate(-66.818 -243.077)" fill="#455a64"/><path d="M134.6,349.07c2.444,1.156,8.529,1.528,11.492,0l-.073,3.733S145,354.2,140.7,354.231s-5.852-1.329-5.852-1.329Z" transform="translate(-86.623 -244.269)" fill="#455a64"/><path d="M126.25,242.086l2.783-16.806s10.057-1.083,13.75-4.55c0,0-4.65,6.45-11.505,7.433l-3.016,13.95,1.262,23.176Z" transform="translate(-83.819 -201.181)" fill="#263238"/></g><path d="M147,126.777c4.563-.093,5.314.771,7.307,2.046,1.641,1.05,21.921,18.513,21.921,18.513l-5.128,7.307c-4.8-1.329-8.2-3.394-12.654-6.643s-9.3-6.6-9.3-6.6Z" transform="translate(-71.55 -88.624)" fill="#f28f8f"/><path d="M112.987,119.164a5.526,5.526,0,0,0-.664-.917c-1.84-1.993-5.022-1.754-7.446-1.189a58.923,58.923,0,0,1-6.543,1.647,8.024,8.024,0,0,1-5.859-1.714c-.571-.445-1.216-1-1.913-.81a1.787,1.787,0,0,0-1.1,1.249,5.978,5.978,0,0,0-.073,3.62,6.45,6.45,0,0,1-3.554-2.929,2.265,2.265,0,0,0-.837-1.03,1.242,1.242,0,0,0-1.375.325,2.836,2.836,0,0,0-.664,1.329,8.928,8.928,0,0,0,3.846,9.838,6.231,6.231,0,0,1-2.657-.326,1.4,1.4,0,0,0-1.329.392,1.906,1.906,0,0,0-.219,1.794,7.685,7.685,0,0,0,3.321,4.291c6.862,4.444,18.154,3.182,24.133-2.3a11.9,11.9,0,0,0,3.906-10.522,7.865,7.865,0,0,0-.976-2.743Z" transform="translate(-49.886 -85.057)" fill="#37474f"/><path d="M137.816,152.36c-.359,3.986-.193,16.925-.193,16.925-12.535,7.659-33.293,0-33.293,0,1.189-2.936,3.056-5.885,2.943-8.682l-2.657-15.278a33.034,33.034,0,0,0,4.524-18.666l8.941-.93,8.542.239,6.058.432a38.607,38.607,0,0,1,7.646,9.964C143.429,142.3,142.379,147.584,137.816,152.36Z" transform="translate(-57.224 -88.275)" fill="#1565c0"/><path d="M127.4,102.363c1.076-2.1,2.391-3.321,5.015-6.184,4.065-4.437,3.786-13.75.047-16.334A18.578,18.578,0,0,0,122.1,73.507c-3.467-.85-7.24.664-10.2,2.464a26.949,26.949,0,0,0-6.556,5.753,10.569,10.569,0,0,0-2.265,3.773,2.4,2.4,0,0,0,0,1.694,1.993,1.993,0,0,0,1.608,1,5.925,5.925,0,0,0,1.953-.239c-.438.106.87,2.239,1.169,2.4a5.753,5.753,0,0,0,2.83.5c.664,0,1.289-.133,1.933-.179.5,0,1.282-.166,1.7.146a11.4,11.4,0,0,1,1.129,1.136l1.329,1.282,5.148,4.962C123.734,99.932,125.561,100.6,127.4,102.363Z" transform="translate(-56.753 -70.66)" fill="#37474f"/><path d="M135.409,92.64c-2.4-1.707-4.245-.332-5.254,1.282a2.89,2.89,0,0,1-.83,1.05,1.063,1.063,0,0,1-.95.073c-.864-.345-1.1-1.534-1.275-2.325a10.628,10.628,0,0,1-.173-3.487,2.657,2.657,0,0,1-1.74.711,2.053,2.053,0,0,1-1.654-.81,4.258,4.258,0,0,1-.478-2.385,7.912,7.912,0,0,0-.538-3.2,4.778,4.778,0,0,0-1.993-1.435,8.591,8.591,0,0,0-4.059-1.329c-.8,0-1.614-.08-2.425-.047a7.1,7.1,0,0,0-2.431.272c-1.993,1.023-4.032,3.042-3.607,13.2.339,7.971,2.5,11.751,3.859,12.448s3.029.857,5.679.585v4.517c-.047.272,4.477,6.888,10.974,8.456,1.993-2.212,2.763-5.2.525-9.08l.146-11.472a4.025,4.025,0,0,0,5.141-.04C136.545,97.841,137.368,94.034,135.409,92.64Z" transform="translate(-58.438 -73.166)" fill="#ffa8a7"/><path d="M145.724,100.226a1.82,1.82,0,0,0-1.329-.438,1.993,1.993,0,0,0-1.9,1.528.365.365,0,0,0,.292.412c.226.053.452.053.664.1s.252.179.279.385a.751.751,0,0,1-.266.664.857.857,0,0,1-.7.186.585.585,0,0,0-.664.259,2.158,2.158,0,0,0-.173.5.976.976,0,0,0,0,.365,1.2,1.2,0,0,0,.91,1.1,1.847,1.847,0,0,0,.83.066,1.016,1.016,0,0,0,.724-.379,1.554,1.554,0,0,1-1.209,0,1.229,1.229,0,0,1-.631-.472.7.7,0,0,1,.146-.917.783.783,0,0,1,.239,0,1.256,1.256,0,0,0,.385,0,1.455,1.455,0,0,0,.7-.392,1.282,1.282,0,0,0,.146-1.488,1.189,1.189,0,0,0-.976-.511,1.574,1.574,0,0,1,1.428-.9,1.714,1.714,0,0,1,.983.246,1.568,1.568,0,0,1,.379.345,1.528,1.528,0,0,1,.226.4,1.368,1.368,0,0,0-.492-1.069Z" transform="translate(-69.843 -79.564)" fill="#f28f8f"/><path d="M102.606,78c.173-.392.365-.771.578-1.149,3.321-5.819,10.542-7.971,16.866-7.42,7.885.664,12.98,4.862,12.163,10.3l-4.045.246c-.837.053-1.681-.086-2.5.046a9.838,9.838,0,0,0-3.687,1.561,33.166,33.166,0,0,1-4.351,2.7c-.717.312-1.687.485-2.179-.126s-.133-1.515.246-2.205a10.183,10.183,0,0,1-4.7,2.239,2.238,2.238,0,0,1-2.2-.485,2.425,2.425,0,0,1,.12-2.385,7.028,7.028,0,0,1-4.5,1,2.75,2.75,0,0,1-2.225-1.249,3.009,3.009,0,0,1,.12-2.378C102.4,78.469,102.5,78.236,102.606,78Z" transform="translate(-56.444 -69.345)" fill="#37474f"/><path d="M125.16,98.6a1.216,1.216,0,0,0,1.162,1.209,1.136,1.136,0,0,0,1.2-1.116,1.209,1.209,0,0,0-1.136-1.209A1.136,1.136,0,0,0,125.16,98.6Z" transform="translate(-64.218 -78.792)" fill="#263238"/><path d="M109.25,95.243l1.993-1.993a1.329,1.329,0,0,0-1.946-.06,1.468,1.468,0,0,0-.046,2.053Z" transform="translate(-58.743 -77.218)" fill="#263238"/><path d="M111,98.835a1.216,1.216,0,0,0,1.162,1.209,1.136,1.136,0,0,0,1.2-1.116,1.209,1.209,0,0,0-1.162-1.209,1.136,1.136,0,0,0-1.2,1.116Z" transform="translate(-59.464 -78.87)" fill="#263238"/><path d="M126.55,92.9l2.292,1.588a1.329,1.329,0,0,0-.312-1.926,1.468,1.468,0,0,0-1.979.339Z" transform="translate(-64.684 -77.056)" fill="#263238"/><path d="M118.268,95.4l-.159,8-3.979-.85Z" transform="translate(-60.515 -78.092)" fill="#f28f8f"/><path d="M122.34,118.535c2.8-.418,8.728-1.913,9.751-4.105a6.556,6.556,0,0,1-2.278,3.142c-1.794,1.329-7.473,2.557-7.473,2.557Z" transform="translate(-63.271 -84.481)" fill="#f28f8f"/><path d="M125.289,110.455a1.475,1.475,0,1,1-1.475-1.475,1.475,1.475,0,0,1,1.475,1.475Z" transform="translate(-63.271 -82.652)" fill="#b16668"/><path d="M124.269,112.4a1.333,1.333,0,0,0,0,.159,1.368,1.368,0,0,0,.173,0,1.475,1.475,0,0,0,1.475-1.475,1.26,1.26,0,0,0,0-.166h-.173a1.468,1.468,0,0,0-1.475,1.481Z" transform="translate(-63.918 -83.303)" fill="#f28f8f"/><path d="M156.819,98.492c-.591-.784-1.422-1.787-1.654-2.132-.465-.664-1.441.306-1.222,1.329a15.278,15.278,0,0,0,1.621,3.428,12.716,12.716,0,0,1,.611,5.679c-.133.923-.724,1.727-1.422,1.329s-1.594-2.232-2.464-2.657-1.833-.213-2.033.286.7,1.329,1.089,2.351.664,3.839,1.329,5.095a19.316,19.316,0,0,0,2.87,3.242,11.2,11.2,0,0,0,4.079-3.773C161.3,110,160.817,102.265,156.819,98.492Z" transform="translate(-72.634 -78.341)" fill="#ffa8a7"/><path d="M162.74,108.526c.106-.352.266-.817.412-1.388a13.5,13.5,0,0,0-3.627-8.27c-.392-.525-.9-1.149-1.255-1.608a5.407,5.407,0,0,0,.757,2.318,12.542,12.542,0,0,1,1.3,2.916c.193.664.425,1.993.711,3.155a37.27,37.27,0,0,1,.458,4.358S162.3,110.047,162.74,108.526Z" transform="translate(-75.334 -78.717)" fill="#f28f8f"/><path d="M161.636,95.954c-1.368-1.707-1.707-2.112-1.993-2.066-1.036.153-.817,2.943-.073,4.2a11.226,11.226,0,0,1,1.395,3.448,17.836,17.836,0,0,1,.266,3s-.93,4.271-1.222,5.567c0,0,2.983-1.594,3.414-3.115S165.469,102.039,161.636,95.954Z" transform="translate(-75.558 -77.584)" fill="#ffa8a7"/><path d="M164.547,106.93c.545-1.76,1.329-5.022-1.993-10.329l-.585-.731a1.993,1.993,0,0,0-.252,1.468c.173,1.229,1.2,3.076,1.415,3.986a22.586,22.586,0,0,1,.485,3.1Z" transform="translate(-76.476 -78.25)" fill="#f28f8f"/><path d="M164.907,97.132c-.857-1.375-1-2.172-1.329-2.431s-1.329.85-1.149,2.079a30.237,30.237,0,0,0,1.329,4.245,13.506,13.506,0,0,1-.219,5.533s1.906.365,2.657-.943S166.787,100.766,164.907,97.132Z" transform="translate(-76.723 -77.845)" fill="#ffa8a7"/><path d="M165.725,98.044l-.372-.664h0c-.551.591-.664,1.036-.292,2.478.452,1.707,1.176,3.321,1.089,4.7a3.581,3.581,0,0,1,1.236-.731A14.155,14.155,0,0,0,165.725,98.044Z" transform="translate(-77.541 -78.757)" fill="#f28f8f"/><path d="M157.872,116.867c-1.754-2.092-.146-3.986.664-5.248,1.1-1.78,3.74-4.55,4.265-5.414a4.431,4.431,0,0,0,.83-1.853,9.969,9.969,0,0,0-.585-3.494c-.664-2.7-.226-3.2.319-3.321s1.169,1.74,1.608,2.657,1.72,3.846,1.681,4.922a34.908,34.908,0,0,1-1.076,6.55c-.518,1.847,3.235,6.57,3.235,6.57l-7.566,5.228a52.475,52.475,0,0,0-3.374-6.6Z" transform="translate(-74.936 -78.808)" fill="#ffa8a7"/><path d="M162.815,110.7a16.467,16.467,0,0,1-2.89,3.188,7.019,7.019,0,0,0-2.046,4.059,7.805,7.805,0,0,1,2.464-3.746A7.5,7.5,0,0,0,162.815,110.7Z" transform="translate(-75.203 -83.229)" fill="#f28f8f"/><path d="M161.18,129.372c1.794,4.145,5.746,15.351,7.207,18.128,2.239,4.265,7.971,7.559,10.216,6.317s3.182-6.344,1.747-10.907c-1.681-5.361-10.3-15.278-12.2-18.6Z" transform="translate(-76.311 -87.798)" fill="#ffa8a7"/><path d="M85.3,127.17c-8.237,0-10.455,3.667-12.946,9.725s-8,22.18-8,22.18a57.6,57.6,0,0,0-4.251,9.08c-1.329,3.76-5.487,18.765-7.108,19.523s-8.755.664-11.459,1.375-6.231,3.129-8.084,4.65c-.292.917.983,1.162,1.887,1.036,1.667-.239,4.258-1.6,6.085-1.667a33.141,33.141,0,0,1,7.021.5c.757.213.531.824-1.946,2.159s-2.923,2.816-2.7,3.574,1.189,0,2.923-.757,4.756-1.621,7.466-2.816,4.324-1.3,5.839-3.029,1.953-3.527,3.786-7.1,5.686-9.645,7.247-12.707c2.159-4.218,3.1-7.652,5.374-12.256,2.7-5.454,8.423-17.417,8.423-17.417S88.406,132.59,85.3,127.17Z" transform="translate(-33.416 -88.759)" fill="#ffa8a7"/><path d="M171.109,91.932a.325.325,0,0,1-.226-.093.312.312,0,0,1,0-.445l4.544-4.271a.312.312,0,0,1,.445,0,.306.306,0,0,1,0,.438l-4.544,4.278A.345.345,0,0,1,171.109,91.932Z" transform="translate(-79.537 -75.282)" fill="#e0e0e0"/><path d="M172.743,96.692a.306.306,0,0,1-.3-.226.312.312,0,0,1,.213-.385l5.978-1.727a.312.312,0,0,1,.385.213.319.319,0,0,1-.213.392l-5.978,1.72Z" transform="translate(-80.089 -77.737)" fill="#e0e0e0"/><path d="M179.8,102.454h-.06l-6.171-.771a.312.312,0,0,1-.272-.352.325.325,0,0,1,.352-.272l6.191.777a.319.319,0,0,1,.272.352A.312.312,0,0,1,179.8,102.454Z" transform="translate(-80.379 -79.992)" fill="#e0e0e0"/></g></g></g></svg>