<svg xmlns="http://www.w3.org/2000/svg" width="499.599" height="304.088" viewBox="0 0 499.599 304.088"><g transform="translate(-76.728 -27.271)"><g transform="translate(76.728 27.271)"><path d="M561.832,260.919c-4.619-.052-9.191-.229-13.609-.524l.139-2.059c4.38.293,8.92.468,13.493.518Zm13.611-.2-.08-2.063c4.419-.171,8.96-.45,13.491-.827l.173,2.057c-4.563.392-9.132.673-13.583.844Zm-40.782-1.661c-4.619-.6-9.143-1.362-13.457-2.254l.418-2.021c4.256.88,8.731,1.631,13.3,2.227Zm67.886-.6-.257-2.047c4.419-.556,8.913-1.205,13.378-1.958l.337,2.037c-4.483.763-9.012,1.426-13.451,1.984Zm26.831-4.435L628.964,252c4.366-.894,8.807-1.888,13.2-2.952l.486,2.008C638.243,252.122,633.777,253.12,629.378,254.02Zm-121.407-.55a123.2,123.2,0,0,1-12.854-4.654l.813-1.9a121.218,121.218,0,0,0,12.637,4.573Zm147.836-5.853-.556-1.988c4.308-1.205,8.673-2.5,12.971-3.862l.623,1.968c-4.318,1.366-8.7,2.673-13.029,3.882ZM482.93,242.572a73.857,73.857,0,0,1-11.014-8.17l1.384-1.53a72,72,0,0,0,10.725,7.939Zm198.811-3.153-.687-1.946c4.246-1.5,8.512-3.089,12.679-4.72l.751,1.92c-4.18,1.647-8.468,3.238-12.736,4.746Zm25.329-9.928-.82-1.894c4.151-1.8,8.295-3.675,12.32-5.588l.886,1.864C715.41,225.8,711.243,227.683,707.069,229.491Zm-244.256-5.423a50.449,50.449,0,0,1-6.152-12.34l1.956-.657a48.4,48.4,0,0,0,5.9,11.834Zm268.818-6.252-.956-1.83c4.017-2.1,8.014-4.286,11.864-6.491l1.028,1.79c-3.874,2.215-7.889,4.413-11.936,6.525Zm23.6-13.541-1.1-1.745c3.85-2.428,7.644-4.939,11.271-7.461l1.179,1.7c-3.653,2.535-7.472,5.061-11.35,7.506Zm-301.113-6.116c-.044-.88-.066-1.775-.066-2.661a59.128,59.128,0,0,1,1.077-11.061l2.027.386a57.242,57.242,0,0,0-1.038,10.675c0,.852.02,1.713.062,2.559Zm323.447-9.44-1.259-1.633c3.615-2.8,7.142-5.67,10.462-8.54l1.352,1.563C784.768,183,781.217,185.9,777.564,188.719ZM460.919,172.027l-1.92-.755a96.208,96.208,0,0,1,5.957-12.33l1.793,1.024a93.891,93.891,0,0,0-5.831,12.061Zm337.219-1.149-1.446-1.474c3.288-3.226,6.409-6.519,9.275-9.785l1.552,1.36c-2.894,3.306-6.049,6.636-9.373,9.9Zm17.934-20.536-1.667-1.219a121.048,121.048,0,0,0,7.333-11.259l1.793,1.024a123.709,123.709,0,0,1-7.451,11.454Zm-342-1.641-1.667-1.205c2.583-3.539,5.459-7.12,8.548-10.645l1.553,1.362C479.461,141.681,476.623,145.212,474.076,148.7Zm17.707-20.285-1.448-1.472c3.153-3.1,6.527-6.2,10.028-9.229l1.35,1.561C498.244,122.274,494.9,125.349,491.783,128.415ZM829.5,126.562l-1.92-.757a71.94,71.94,0,0,0,3.776-12.792l2.027.388a73.778,73.778,0,0,1-3.882,13.161ZM512.169,110.735l-1.261-1.635c3.519-2.715,7.214-5.423,10.984-8.046l1.177,1.7c-3.736,2.6-7.4,5.288-10.894,7.986ZM832.344,99.779a48.463,48.463,0,0,0-2.424-13.013l1.916-.773.02.062A50.44,50.44,0,0,1,834.4,99.678Zm-298-4.493-1.1-1.745c3.776-2.38,7.7-4.74,11.661-7.012l1.026,1.79C542,90.576,538.1,92.916,534.346,95.286ZM557.8,81.829,556.841,80c3.967-2.071,8.062-4.113,12.173-6.07l.888,1.864c-4.089,1.942-8.16,3.973-12.1,6.031ZM823.971,74.84a56.048,56.048,0,0,0-8.779-9.962l1.384-1.532a58.2,58.2,0,0,1,9.1,10.329ZM582.219,70.22l-.819-1.894c4.121-1.784,8.353-3.527,12.575-5.18l.753,1.92c-4.2,1.627-8.407,3.36-12.509,5.134Zm25.188-9.876-.689-1.946c2.155-.761,4.346-1.514,6.509-2.239,2.111-.7,4.26-1.406,6.387-2.079l.623,1.968c-2.117.671-4.254,1.366-6.353,2.069-2.155.7-4.334,1.458-6.477,2.207Zm197.053-3.388a94.324,94.324,0,0,0-11.93-6.1l.813-1.9A96.2,96.2,0,0,1,805.536,55.2ZM633.208,52.164l-.556-1.988c4.368-1.221,8.795-2.376,13.157-3.434l.486,2.008C641.957,49.8,637.552,50.949,633.208,52.164Zm146.683-5.9c-4.137-1.249-8.53-2.358-13.055-3.294l.418-2.023c4.587.95,9.038,2.073,13.236,3.34Zm-120.4-.476-.414-2.023c4.449-.912,8.948-1.747,13.372-2.484l.339,2.037C668.39,44.054,663.923,44.884,659.493,45.792Zm26.676-4.431-.259-2.047c4.533-.572,9.086-1.052,13.529-1.426l.173,2.057C695.2,40.317,690.674,40.793,686.169,41.361Zm67.368-.613c-4.332-.564-8.851-1-13.433-1.312l.139-2.059c4.62.307,9.185.753,13.561,1.324ZM713.1,39.114l-.08-2.063c3.589-.139,7.184-.2,10.685-.2h.038q1.45,0,2.888.016l-.022,2.065c-.962-.01-1.934-.026-2.9-.016C720.234,38.907,716.665,38.977,713.1,39.114Z" transform="translate(-378.267 -34.926)" fill="#f0f0f0"/><path d="M384.773,455.711h-.018q-1.949,0-3.915-.027l.025-1.869c1.307.018,2.6.011,3.908.027,3.977,0,7.974-.085,11.879-.256l.082,1.866C392.8,455.623,388.777,455.711,384.773,455.711Zm-19.82-.678c-5.224-.353-10.547-.853-15.82-1.482l.222-1.855c5.244.626,10.536,1.12,15.727,1.473Zm47.641-.764-.2-1.858c5.3-.564,10.557-1.3,15.638-2.195l.324,1.84c-5.119.9-10.421,1.646-15.763,2.213Zm-79.187-2.986c-5.175-.875-10.423-1.891-15.6-3.02l.4-1.818c5.148,1.124,10.365,2.135,15.511,3Zm110.5-2.577-.466-1.818c5.191-1.331,10.267-2.866,15.093-4.564l.622,1.762c-4.877,1.724-10,3.275-15.247,4.621Zm-141.542-4.182c-2.568-.686-5.17-1.411-7.735-2.158-2.518-.727-5.05-1.5-7.523-2.286l.564-1.78c2.46.776,4.977,1.542,7.483,2.271,2.546.744,5.141,1.466,7.694,2.148ZM473.9,438.065l-.8-1.691a130.851,130.851,0,0,0,13.807-7.526l.995,1.582a132.934,132.934,0,0,1-14,7.632Zm-201.84-3.119c-4.977-1.818-9.952-3.789-14.785-5.819l.727-1.722c4.806,2.028,9.754,3.979,14.7,5.8Zm-29.276-12.365c-4.8-2.306-9.557-4.744-14.149-7.248l.895-1.637c4.564,2.488,9.3,4.91,14.063,7.2Zm258-1.58-1.213-1.422A91.52,91.52,0,0,0,510.6,408.46l1.437,1.195A93.4,93.4,0,0,1,500.8,421ZM214.9,407.353c-4.546-2.806-9.015-5.742-13.291-8.728l1.073-1.531c4.244,2.968,8.685,5.886,13.2,8.674Zm306.131-10.938-1.636-.887a74.1,74.1,0,0,0,5.93-14.436l.069-.235,1.795.518-.071.244A75.9,75.9,0,0,1,521.027,396.415Zm-332.164-7.308c-4.2-3.348-8.277-6.823-12.1-10.327l1.262-1.378c3.8,3.475,7.837,6.921,12,10.243ZM165.422,367.6c-3.7-3.949-7.2-8.012-10.387-12.074l1.471-1.153c3.155,4.019,6.613,8.039,10.279,11.949Zm364.528-2-1.864-.127c.118-1.733.182-3.5.182-5.246a81.274,81.274,0,0,0-.68-10.376l1.855-.24a82.985,82.985,0,0,1,.693,10.616C530.134,362.017,530.072,363.825,529.95,365.6Zm-384.124-23.07a133.282,133.282,0,0,1-7.721-13.954l1.687-.8a131.366,131.366,0,0,0,7.612,13.756Zm-13.543-28.818a93.378,93.378,0,0,1-3.417-15.609l1.853-.236a91.554,91.554,0,0,0,3.349,15.294Zm378.567-7.5a155.26,155.26,0,0,0-9.11-12.843l1.469-1.155a157.5,157.5,0,0,1,9.219,13ZM130.244,282.241l-1.864-.133a75.883,75.883,0,0,1,2.8-15.769l1.795.52A73.983,73.983,0,0,0,130.244,282.241Zm361.207-.82c-3.509-3.742-7.292-7.466-11.236-11.072l1.26-1.38c3.98,3.637,7.8,7.4,11.339,11.172Zm-23.25-21.31c-4.039-3.215-8.3-6.39-12.66-9.437l1.071-1.531c4.391,3.069,8.683,6.268,12.752,9.506Zm-329.32-7.7-1.637-.886a81.068,81.068,0,0,1,8.955-13.252l1.44,1.191a79.239,79.239,0,0,0-8.759,12.947Zm303.463-10.408c-4.42-2.728-9.019-5.39-13.669-7.923l.893-1.637c4.68,2.546,9.308,5.231,13.756,7.975Zm-283.7-13.672-1.213-1.42a110.758,110.758,0,0,1,12.885-9.439l1,1.582a108.909,108.909,0,0,0-12.669,9.277Zm255.96-1.455c-4.7-2.255-9.545-4.439-14.409-6.488l.727-1.722c4.891,2.062,9.768,4.257,14.492,6.526ZM385.487,214.6c-4.91-1.8-9.937-3.517-14.96-5.1l.562-1.782c5.05,1.593,10.112,3.319,15.042,5.128ZM185.1,211.508l-.8-1.689a157.337,157.337,0,0,1,14.742-6.037l.624,1.762a155.77,155.77,0,0,0-14.569,5.972Zm170.249-6.428c-5.091-1.355-10.254-2.606-15.356-3.717l.4-1.818c5.131,1.116,10.327,2.375,15.442,3.737Zm-140.6-4.111-.466-1.818c5.015-1.289,10.248-2.42,15.558-3.359l.326,1.84C224.91,198.573,219.722,199.691,214.755,200.969Zm109.726-2.595c-5.2-.878-10.463-1.637-15.638-2.249l.215-1.857c5.206.618,10.5,1.38,15.729,2.262ZM245.8,195.438l-.2-1.86c5.175-.545,10.512-.953,15.862-1.189l.082,1.866C256.235,194.487,250.937,194.888,245.8,195.438Zm47.314-.778c-5.273-.364-10.592-.571-15.782-.64l.025-1.869c5.222.069,10.567.287,15.882.644Z" transform="translate(-118.006 -159.035)" fill="#b0c0d2"/><circle cx="9.823" cy="9.823" r="9.823" transform="translate(306.533 33.116) rotate(-45)" fill="#e5e5e5"/><circle cx="4.2" cy="4.2" r="4.2" transform="translate(425.647 79.294) rotate(-80.78)" fill="#e5e5e5"/><circle cx="7.022" cy="7.022" r="7.022" transform="translate(456.605 233.715) rotate(-76.72)" fill="#e5e5e5"/><circle cx="2.926" cy="2.926" r="2.926" transform="translate(269.196 60.705)" fill="#e5e5e5"/><circle cx="2.926" cy="2.926" r="2.926" transform="translate(23.641 125.371) rotate(-80.82)" fill="#e5e5e5"/><circle cx="2.926" cy="2.926" r="2.926" transform="matrix(0.925, -0.379, 0.379, 0.925, 82.372, 65.488)" fill="#e5e5e5"/><circle cx="2.926" cy="2.926" r="2.926" transform="translate(456.643 118.326)" fill="#e5e5e5"/><path d="M282.556,650.32a12.209,12.209,0,0,1,2.32-.755,37.446,37.446,0,0,0-13.4-14.638A12.338,12.338,0,0,1,247.5,629.29a37.878,37.878,0,0,0-21.241,9.341,12.338,12.338,0,0,1-12.039,21.49,37.457,37.457,0,0,0,1.745,19.765,12.341,12.341,0,0,1,15.6,19.038,37.8,37.8,0,0,0,22.945,5.479,12.334,12.334,0,0,1,22.406-9.862,37.759,37.759,0,0,0,11.458-20.621,12.342,12.342,0,0,1-5.824-23.607ZM255.7,676.706a10.8,10.8,0,1,1,5.723-5.976A10.81,10.81,0,0,1,255.7,676.706Z" transform="translate(-186.124 -508.377)" fill="#1565c0"/><path d="M2012.313,1011.219a24.256,24.256,0,1,1,31.378-13.858A24.256,24.256,0,0,1,2012.313,1011.219Zm14.834-38.313a16.821,16.821,0,1,0,9.615,21.758A16.821,16.821,0,0,0,2027.148,972.906Z" transform="translate(-1611.17 -776.132)" fill="#26aab7"/><path d="M1981.8,1013.523s-4.788-3.768-6.467-3.462-3.535,6.608-3.214,8.323,6.791,2.629,6.791,2.629Z" transform="translate(-1591.406 -812.657)" fill="#5ebab3"/><path d="M2216.852,1107.83s6.078.44,7.114,1.808-1.835,7.265-3.214,8.323-6.793-2.629-6.793-2.629Z" transform="translate(-1784.707 -890.805)" fill="#5ebab3"/><path d="M2046.02,1182.29s-3.768,4.788-3.46,6.469,6.608,3.533,8.323,3.214,2.629-6.791,2.629-6.791Z" transform="translate(-1647.716 -950.31)" fill="#5ebab3"/><path d="M2140.33,945.215s.438-6.078,1.8-7.114,7.264,1.836,8.323,3.214-2.627,6.791-2.627,6.791Z" transform="translate(-1725.865 -754.989)" fill="#5ebab3"/><path d="M1979.374,1113s-6.052.721-7.03,2.127,2.173,7.17,3.615,8.162,6.66-2.943,6.66-2.943Z" transform="translate(-1591.47 -894.936)" fill="#5ebab3"/><path d="M2212,1007.883s4.607-3.987,6.3-3.76,3.838,6.427,3.615,8.164-6.662,2.942-6.662,2.942Z" transform="translate(-1783.14 -807.919)" fill="#5ebab3"/><path d="M2046.831,946.354s-.721-6.051-2.127-7.03-7.17,2.173-8.162,3.615,2.943,6.66,2.943,6.66Z" transform="translate(-1642.794 -755.995)" fill="#5ebab3"/><path d="M2149.287,1179s3.987,4.607,3.76,6.3-6.427,3.838-8.165,3.615-2.942-6.662-2.942-6.662Z" transform="translate(-1727.152 -947.68)" fill="#5ebab3"/><rect width="332.887" height="207.984" rx="35" transform="translate(75.528 81.921)" fill="#003545"/><path d="M129.17,1431.57H592.048a22.041,22.041,0,0,1-22.041,22.041H151.213a22.041,22.041,0,0,1-22.041-22.041h0Z" transform="translate(-118.637 -1149.523)" fill="#054659"/><path d="M1939.744,154.766a21.089,21.089,0,1,1,18.608-11.1h0A21.109,21.109,0,0,1,1939.744,154.766Zm.068-40.3a4.821,4.821,0,1,1,0,.008Z" transform="translate(-1548.74 -95.453)" fill="#e5e5e5"/><path d="M1927.24,300.9a7.526,7.526,0,0,1-6.628-11.093l4.549-8.462,1.645.884-4.549,8.462a5.662,5.662,0,0,0,9.974,5.361l4.549-8.462,1.645.884-4.539,8.468A7.539,7.539,0,0,1,1927.24,300.9Z" transform="translate(-1549.558 -230.319)" fill="#e5e5e5"/><path d="M1974.356,216.154l-.86-.368c.514-1.205,3.927-9.06,7.478-13.846a14.37,14.37,0,0,1-1.521-.663,11.675,11.675,0,0,1-2.165-1.406c-1.9,6.214-6.507,13.858-6.775,14.29l-.8-.486c.068-.11,5.021-8.315,6.817-14.479-2.34-2.288-3.214-5.132-2.523-6.558a1.609,1.609,0,0,1,2.338-.6,2.812,2.812,0,0,1,1.536,1.834,9.853,9.853,0,0,1-.315,5.021,10.782,10.782,0,0,0,2.3,1.551,13.378,13.378,0,0,0,1.7.719c1.239-1.536,2.476-2.631,3.6-2.876a2.069,2.069,0,0,1,1.908.516,1.731,1.731,0,0,1,.121,2.31c-.751,1.093-2.522,1.866-5.278,1.129C1978.933,206.218,1975.7,213,1974.356,216.154Zm8.2-14.718c2.2.474,3.435-.211,3.875-.854a.825.825,0,0,0,.022-1.091,1.139,1.139,0,0,0-1.083-.293A6.131,6.131,0,0,0,1982.554,201.436Zm-7.206-8.709a.5.5,0,0,0-.5.321c-.4.844.118,3.091,1.96,5.1a8.136,8.136,0,0,0,.181-4,1.894,1.894,0,0,0-1.034-1.259A1.476,1.476,0,0,0,1975.348,192.727Z" transform="translate(-1589.513 -158.75)" fill="#e5e5e5"/><path d="M2085.409,74.659a.457.457,0,0,1-.219-.056.466.466,0,0,1-.2-.631l3.135-5.825a.468.468,0,1,1,.823.442l-3.135,5.825A.464.464,0,0,1,2085.409,74.659Z" transform="translate(-1681.597 -59.722)" fill="#e5e5e5"/><path d="M2154.121,171.913a.466.466,0,0,1-.134-.914l6.341-1.908a.467.467,0,1,1,.269.894l-6.341,1.908A.446.446,0,0,1,2154.121,171.913Z" transform="translate(-1736.509 -140.591)" fill="#e5e5e5"/><path d="M2149.664,284.923a.455.455,0,0,1-.219-.056l-5.825-3.135a.466.466,0,0,1,.44-.822l5.825,3.135a.466.466,0,0,1-.221.878Z" transform="translate(-1728.298 -229.923)" fill="#e5e5e5"/><path d="M2066.085,353.159a.467.467,0,0,1-.448-.333l-1.906-6.339a.467.467,0,1,1,.894-.269l1.908,6.341a.468.468,0,0,1-.313.58A.447.447,0,0,1,2066.085,353.159Z" transform="translate(-1664.634 -281.893)" fill="#e5e5e5"/><path d="M1971.917,60.419a.468.468,0,0,1-.448-.331l-1.908-6.341a.467.467,0,0,1,.894-.269l1.91,6.341a.47.47,0,0,1-.313.582A.516.516,0,0,1,1971.917,60.419Z" transform="translate(-1589.378 -47.949)" fill="#e5e5e5"/><path d="M1876.8,138.249a.457.457,0,0,1-.219-.056l-5.824-3.135a.468.468,0,0,1,.442-.823l5.825,3.135a.468.468,0,0,1-.221.88Z" transform="translate(-1510.255 -112.716)" fill="#e5e5e5"/><path d="M1857.981,254.871a.466.466,0,0,1-.135-.914l6.341-1.906a.467.467,0,0,1,.269.894l-6.341,1.906A.445.445,0,0,1,1857.981,254.871Z" transform="translate(-1499.847 -206.889)" fill="#e5e5e5"/><path d="M94.033,984.02a.547.547,0,0,1-.221-.034c-1.048-.462-6.867-11.167-9.321-15.75-8.311-15.519-7.887-16.61-7.684-17.126.675-1.721,7.295-5.383,11.059-7.351-1.557-1.864-4.69-6.172-3.842-9.8.456-1.944,1.926-3.376,4.37-4.256a5.873,5.873,0,0,1,5.14.347c3.061,1.761,4.563,6.162,5.142,8.409,3.816-2.444,9.375-5.734,11.022-5.375,2.621.572,8.767,15.535,8.666,16.55l-.074.773-.773.066c-1.775.155-6.584,1.044-7.492,3.276-.426,1.052.082,2.424,1.51,4.081a2.342,2.342,0,0,0,1.655.916c1.671.12,3.73-1.78,4.949-2.9a5.88,5.88,0,0,1,1.406-1.109,1.221,1.221,0,0,1,1.271.229c1.727,1.364,6.9,12.533,6.6,14.226-.1.55-.5.94-2.573,2.035C121.169,973.167,97.038,984.02,94.033,984.02Zm.2-1.808ZM78.6,951.712c.446,2.954,13.527,27.164,15.953,30.438,3.615-.968,28.15-11.326,31-13.483-.325-1.768-4.085-10.08-5.6-11.94-.167.149-.366.331-.542.494-1.434,1.322-3.872,3.523-6.321,3.39a4.168,4.168,0,0,1-2.96-1.563c-1.924-2.229-2.539-4.25-1.824-6.005,1.205-2.952,5.808-3.977,7.982-4.3-1.077-3.117-5.624-12.77-7.03-13.828-1.217.078-6.427,3.049-10.683,5.824l-1.181.773-.249-1.388c-.012-.066-1.205-6.538-4.555-8.47a4.009,4.009,0,0,0-3.569-.2c-1.838.661-2.88,1.607-3.185,2.922-.709,3.057,2.8,7.536,4.2,9l.868.9-1.115.574C84.921,947.354,79.393,950.614,78.6,951.712Z" transform="translate(-76.728 -748.11)" fill="#e5e5e5"/><path d="M2288.381,786.264a9.449,9.449,0,0,1,.6,1.808,29.216,29.216,0,0,0,11.294-10.566,9.618,9.618,0,0,1,4.188-18.737A29.555,29.555,0,0,0,2297,742.3a9.616,9.616,0,0,1-16.851-9.2,29.182,29.182,0,0,0-15.389,1.528,9.461,9.461,0,0,1,.954,1.645,9.619,9.619,0,0,1-15.666,10.675,29.456,29.456,0,0,0-4.073,17.93,9.614,9.614,0,0,1,7.879,17.381,29.444,29.444,0,0,0,16.168,8.753,9.618,9.618,0,0,1,18.349-4.74Zm-20.8-20.709a8.424,8.424,0,1,1,11.151,4.2A8.423,8.423,0,0,1,2267.583,765.555Z" transform="translate(-1810.186 -591.006)" fill="none" stroke="#e5e5e5" stroke-miterlimit="10" stroke-width="9.3"/><path d="M560.7,88.336a5.039,5.039,0,0,1-.6-.024,2.682,2.682,0,0,1-1.928-.8c-.255-.307-.982-1.187-.665-5.342a24.368,24.368,0,0,1-8.2-2.008c-2.264,4.3-3.6,4.172-4.119,4.123-1.7-.145-5.507-2.442-7.03-4.24a2.661,2.661,0,0,1-.8-1.934c.036-.43.131-1.522,3.31-4.258a24.2,24.2,0,0,1-4.4-7.2c-4.117,1.245-5.286.615-5.8,0-1.239-1.48-3.037-8.347-1.183-9.912.52-.43,1.629-.946,5.346-.675a23.793,23.793,0,0,1,1.934-8.048c-4.495-2.332-4.38-3.7-4.336-4.218.157-1.713,3.6-8.034,6.184-7.833.438.036,1.553.131,4.358,3.428a23.976,23.976,0,0,1,7.644-4.656c-1.336-3.491-1.163-4.706-.908-5.308.964-2.241,8.054-2.535,9.817-1.786.8.337,1.7,1.289,1.705,5.561a24,24,0,0,1,8.176,2.1c1.681-3.828,2.731-4.262,3.093-4.419,2.286-.91,7.494,3.908,8.206,5.69.325.8.283,2.1-2.725,5.132a24.173,24.173,0,0,1,4.31,7.257c3.9-1.5,4.9-1.079,5.294-.914h0c2.344.986,2.434,8.273,1.785,9.813-.339.8-1.293,1.693-5.565,1.7a24.03,24.03,0,0,1-2.163,8.315c3.637,1.627,4.037,2.611,4.194,3,.914,2.26-3.892,7.481-5.676,8.2-.737.3-2.053.327-5.035-2.627a24.038,24.038,0,0,1-6.829,4.065c1.255,4.119.615,5.29,0,5.808C566.906,87.334,563.09,88.336,560.7,88.336ZM548.448,77.691l.838.4a22.4,22.4,0,0,0,9.257,2.243l1,.02-.1,1c-.357,3.469,0,4.744.155,4.945.775.6,6.086-.4,7.271-1.406.112-.185.235-1.434-.841-4.65l-.293-.876.87-.3a22.269,22.269,0,0,0,7.713-4.593l.673-.615.631.661c2.276,2.382,3.414,2.866,3.647,2.812,1.406-.572,4.784-4.794,4.6-5.782-.108-.257-1.115-1.117-4.083-2.348l-.932-.39.46-.9a22.268,22.268,0,0,0,2.448-9.341l.036-.922.92.024c3.414.086,4.561-.39,4.722-.58.582-1.39,0-6.738-.824-7.335-.311-.114-1.685.018-4.756,1.285l-.924.382-.317-.948a22.378,22.378,0,0,0-4.844-8.186l-.6-.665.665-.637c2.95-2.828,2.91-3.736,2.91-3.752-.568-1.406-4.792-4.762-5.786-4.619-.2.088-1.109,1.052-2.428,4.29l-.382.948-.9-.456a22.241,22.241,0,0,0-9.219-2.382l-.926-.038.022-.922c.088-3.414-.392-4.561-.584-4.72-1.406-.586-6.781,0-7.349.834h0s-.293.886,1.3,4.754l.382.922-.944.321a22.217,22.217,0,0,0-8.6,5.24l-.733.717-.645-.8c-2.2-2.719-3.386-3.489-3.708-3.517-.968.112-4.017,4.587-4.166,6.14.076.317,1.259,1.406,4.107,2.792l.836.4-.4.838a21.976,21.976,0,0,0-2.175,9.106l-.018,1-1-.1c-3.362-.323-4.712-.034-4.953.167-.6.767.418,6.088,1.406,7.275.181.1,1.43.227,4.65-.846l.872-.289.309.876a22.385,22.385,0,0,0,4.979,8.112l.7.729-.783.641c-2.611,2.137-3.362,3.294-3.39,3.615.121.976,4.591,4.017,6.134,4.153.317-.074,1.364-1.205,2.687-3.9Zm10.667-2.7a17.31,17.31,0,1,1,2.567-.191h0a17.333,17.333,0,0,1-2.561.189Zm.034-32.738a15.436,15.436,0,1,0,2.25,30.7h0a15.439,15.439,0,0,0-2.249-30.705Z" transform="translate(-437.742 -27.271)" fill="#e5e5e5"/><rect width="296.414" height="161.45" transform="translate(93.765 98.804)" fill="#f5f5f5"/><rect width="296.414" height="22.031" transform="translate(93.765 98.804)" fill="#e0deda"/><circle cx="7.479" cy="7.479" r="7.479" transform="translate(106.779 115.412) rotate(-76.93)" fill="#fff"/><rect width="56.313" height="6.142" transform="translate(132.956 106.749)" fill="#fff"/><rect width="28.157" height="3.9" transform="translate(239.161 107.87)" fill="#fff"/><rect width="28.157" height="3.9" transform="translate(311.393 107.87)" fill="#fff"/><rect width="28.157" height="3.9" transform="translate(275.277 107.87)" fill="#fff"/><rect width="28.157" height="3.9" transform="translate(347.509 107.87)" fill="#fff"/><rect width="89.071" height="46.1" transform="translate(108.278 133.54)" fill="#e0deda"/><rect width="54.206" height="7.333" transform="translate(108.278 192.821)" fill="#e0deda"/><rect width="89.071" height="4.322" transform="translate(108.278 208.283)" fill="#fff"/><rect width="89.071" height="4.322" transform="translate(108.278 218.19)" fill="#fff"/><rect width="89.071" height="4.322" transform="translate(108.278 228.098)" fill="#fff"/><rect width="45.664" height="4.322" transform="translate(108.278 238.006)" fill="#fff"/><rect width="164.84" height="108.788" transform="translate(211.226 133.54)" fill="#e0deda"/><rect width="19.464" height="19.464" transform="translate(222.081 215.051)" fill="#fff"/><rect width="19.683" height="19.683" transform="translate(221.971 141.351)" fill="#fff"/><rect width="19.683" height="19.683" transform="translate(221.971 165.882)" fill="#fff"/><rect width="19.464" height="19.464" transform="translate(222.081 190.522)" fill="#fff"/><rect width="121.463" height="2.444" transform="translate(245.038 147.467)" fill="#f5f5f5"/><rect width="66.446" height="2.444" transform="translate(245.038 152.474)" fill="#f5f5f5"/><rect width="121.463" height="2.444" transform="translate(245.038 171.998)" fill="#f5f5f5"/><rect width="66.446" height="2.444" transform="translate(245.038 177.005)" fill="#f5f5f5"/><rect width="121.463" height="2.444" transform="translate(245.038 196.527)" fill="#f5f5f5"/><rect width="66.446" height="2.444" transform="translate(245.038 201.534)" fill="#f5f5f5"/><rect width="121.463" height="2.444" transform="translate(245.038 221.058)" fill="#f5f5f5"/><rect width="66.446" height="2.444" transform="translate(245.038 226.065)" fill="#f5f5f5"/><path d="M1206.178,748.125a2.836,2.836,0,0,1,.526.05,8.109,8.109,0,0,0-1.392-4.051,2.663,2.663,0,0,1-4.26-3.181,8.072,8.072,0,0,0-2.507-.384,8.177,8.177,0,0,0-2.5.4,2.665,2.665,0,0,1-4.236,3.214,8.109,8.109,0,0,0-1.358,4.061,2.806,2.806,0,0,1,.524-.054,2.665,2.665,0,0,1,.924,5.168,8.159,8.159,0,0,0,4.069,3.063,2.661,2.661,0,0,1,5.284-.022,8.14,8.14,0,0,0,4.045-3.093,2.665,2.665,0,0,1,.882-5.176Zm-7.584,2.91a2.332,2.332,0,1,1,1.648-.69A2.334,2.334,0,0,1,1198.595,751.035Z" transform="translate(-966.764 -597.299)" fill="#f5f5f5"/><path d="M1201.9,1004.3a6.628,6.628,0,1,1,8.562-3.784,6.628,6.628,0,0,1-8.562,3.784Zm4.045-10.456a4.591,4.591,0,1,0,2.625,5.939A4.591,4.591,0,0,0,1205.942,993.848Z" transform="translate(-972.519 -797.831)" fill="#f5f5f5"/><path d="M1193.607,1005s-1.307-1.028-1.765-.944-.966,1.808-.88,2.272,1.854.717,1.854.717Z" transform="translate(-967.165 -807.873)" fill="#f5f5f5"/><path d="M1257.751,1030.74s1.659.121,1.942.492-.5,1.982-.88,2.271-1.854-.719-1.854-.719Z" transform="translate(-1019.916 -829.198)" fill="#f5f5f5"/><path d="M1211.145,1051.07s-1.028,1.306-.944,1.766,1.807.964,2.272.878.717-1.852.717-1.852Z" transform="translate(-982.544 -845.445)" fill="#f5f5f5"/><path d="M1236.88,986.362s.121-1.659.49-1.942,1.982.5,2.271.88-.717,1.854-.717,1.854Z" transform="translate(-1003.869 -792.133)" fill="#f5f5f5"/><path d="M1192.961,1032.15s-1.653.2-1.918.58.6,1.958.986,2.228,1.807-.8,1.807-.8Z" transform="translate(-967.198 -830.325)" fill="#f5f5f5"/><path d="M1256.43,1003.466s1.257-1.088,1.719-1.026,1.048,1.757.986,2.227-1.818.8-1.818.8Z" transform="translate(-1019.492 -806.58)" fill="#f5f5f5"/><path d="M1211.363,986.687s-.2-1.651-.58-1.916-1.956.592-2.227.984.8,1.808.8,1.808Z" transform="translate(-981.198 -792.422)" fill="#f5f5f5"/><path d="M1239.324,1050.16s1.089,1.257,1.026,1.719-1.755,1.046-2.227.984-.8-1.808-.8-1.808Z" transform="translate(-1004.22 -844.717)" fill="#f5f5f5"/><path d="M1208.21,1118.06a5.7,5.7,0,1,0,5.708,5.7A5.7,5.7,0,0,0,1208.21,1118.06Zm0,10.056a4.344,4.344,0,1,1,.008,0Z" transform="translate(-976.402 -898.98)" fill="#f5f5f5"/><path d="M1227.9,1107.526l-.364,2.489h1.346l-.368-2.491a.311.311,0,0,0-.615,0Z" transform="translate(-996.405 -890.352)" fill="#f5f5f5"/><path d="M1227.948,1174.448l-.368-2.489h1.346l-.364,2.489a.311.311,0,0,1-.615,0Z" transform="translate(-996.437 -942.054)" fill="#f5f5f5"/><path d="M1258.9,1143.454l-2.489-.364v1.346l2.491-.368a.311.311,0,0,0,0-.614Z" transform="translate(-1019.476 -918.983)" fill="#f5f5f5"/><path d="M1192.073,1143.538l2.489-.368v1.346l-2.489-.376a.311.311,0,0,1,0-.6Z" transform="translate(-967.875 -919.047)" fill="#f5f5f5"/><path d="M1248.609,1118.255l-2.008,1.5.952.95,1.5-2.021a.311.311,0,0,0-.444-.434Z" transform="translate(-1011.637 -899.074)" fill="#f5f5f5"/><path d="M1202.682,1164.2l1.5-2.009.952.95-2.009,1.5a.315.315,0,0,1-.444-.446Z" transform="translate(-976.465 -934.247)" fill="#f5f5f5"/><path d="M1248.61,1164.563l-2.02-1.5.95-.952,1.5,2.009a.311.311,0,0,1-.434.444Z" transform="translate(-1011.629 -934.183)" fill="#f5f5f5"/><path d="M1202.635,1118.635l1.5,2.008.95-.952-2.008-1.5a.315.315,0,1,0-.446.444Z" transform="translate(-976.429 -899.011)" fill="#f5f5f5"/><rect width="0.496" height="9.578" transform="translate(231.609 219.907)" fill="#f5f5f5"/><rect width="9.578" height="0.496" transform="translate(227.07 224.449)" fill="#f5f5f5"/><rect width="9.578" height="0.496" transform="matrix(0.707, -0.708, 0.708, 0.707, 228.3, 227.934)" fill="#f5f5f5"/><rect width="0.496" height="9.578" transform="matrix(0.707, -0.708, 0.708, 0.707, 228.294, 221.507)" fill="#f5f5f5"/><path d="M1227.416,1141.791a1.173,1.173,0,1,1-1.173-1.171A1.173,1.173,0,0,1,1227.416,1141.791Z" transform="translate(-994.431 -917.009)" fill="#f5f5f5"/><path d="M1211.808,875.838a6.413,6.413,0,0,0-6.039-6.146c-.119,0-.245-.012-.37-.012s-.251,0-.369.012a6.415,6.415,0,0,0-6.039,6.146v.259q0,.241.018.482a6.359,6.359,0,0,0,1.661,3.842,5.832,5.832,0,0,0,.53.516,6.349,6.349,0,0,0,3.836,1.563c.118,0,.247.012.369.012s.251,0,.37-.012a6.35,6.35,0,0,0,3.836-1.563,5.868,5.868,0,0,0,.532-.516,6.368,6.368,0,0,0,1.659-3.842c.012-.161.02-.321.02-.482C1211.816,876.011,1211.816,875.924,1211.808,875.838Zm-4.939,1.315a1.745,1.745,0,0,1-.546.5,1.83,1.83,0,0,1-.554.217,1.909,1.909,0,0,1-.739,0,1.826,1.826,0,0,1-.554-.217,1.719,1.719,0,0,1-.545-.5,1.829,1.829,0,0,1-.345-1.056,1.787,1.787,0,0,1,.02-.259,1.718,1.718,0,0,1,.235-.665,1.671,1.671,0,0,1,.5-.542,1.779,1.779,0,0,1,2.109,0,1.648,1.648,0,0,1,.5.542,1.752,1.752,0,0,1,.237.665,2.137,2.137,0,0,1,.018.259,1.749,1.749,0,0,1-.066.482A1.711,1.711,0,0,1,1206.869,877.154Z" transform="translate(-973.589 -700.486)" fill="#f5f5f5"/><path d="M1229.8,862.22v6.142a1.906,1.906,0,0,0-.739,0V862.22Z" transform="translate(-997.619 -694.524)" fill="#f5f5f5"/><path d="M1229.429,910.506a1.719,1.719,0,0,0,.37-.036v6.363h-.739V910.47a1.713,1.713,0,0,0,.37.036Z" transform="translate(-997.619 -733.083)" fill="#f5f5f5"/><path d="M1197.2,900.6a1.669,1.669,0,0,0,.068.482H1191v-.741h6.226A1.774,1.774,0,0,0,1197.2,900.6Z" transform="translate(-967.203 -724.988)" fill="#f5f5f5"/><path d="M1245.88,900.316v.735h-6.28a1.739,1.739,0,0,0,.066-.482,2.093,2.093,0,0,0-.018-.259Z" transform="translate(-1006.042 -724.964)" fill="#f5f5f5"/><path d="M1206.393,907.376l-4.479,4.491-.524-.524,1.205-1.205,3.268-3.268A1.714,1.714,0,0,0,1206.393,907.376Z" transform="translate(-975.507 -730.207)" fill="#f5f5f5"/><path d="M1241.033,873.12l-1.094,1.095-3.284,3.278a1.652,1.652,0,0,0-.5-.542l4.36-4.36Z" transform="translate(-1003.285 -702.812)" fill="#f5f5f5"/><path d="M1206.223,876.98a1.674,1.674,0,0,0-.5.542l-3.284-3.284-1.095-1.095.524-.524Z" transform="translate(-975.467 -702.836)" fill="#f5f5f5"/><path d="M1240.529,911.375l-.522.524-1.2-1.205-3.282-3.282a1.744,1.744,0,0,0,.547-.5l3.268,3.268Z" transform="translate(-1002.782 -730.239)" fill="#f5f5f5"/><path d="M764.405,744.962l-.932-9.156s-5.455,3.069-9.287,1.115-1.579-11.649-1.579-11.649-3.615.263-3.945-.3,1.127-3.24,2.705-4.451a12.873,12.873,0,0,1,2.705-1.663s-.1-9.516,6.047-13.123c6.307-3.7,15.278-3.183,20.44,2.41,4.34,4.7,5.11,12.252,1.5,16.682s-5.638,6.612-5.712,8.114,1.579,12.025,1.579,12.025Z" transform="translate(-613.67 -567.576)" fill="#fff"/><path d="M826.86,732.749a2.394,2.394,0,0,1-.036.339,6.386,6.386,0,0,1-4.393,5.447c-.112.036-.223.072-.339.1a9.906,9.906,0,0,1-5.355-.177,13.4,13.4,0,0,1-2.8-1.149h0c-.143-.076-.281-.157-.422-.243a14.6,14.6,0,0,1-4.326-4c-.082-.113-.161-.227-.239-.339l-.054-.08c-.119-.173-.231-.347-.339-.524a16.024,16.024,0,0,1-2.131-5.332c-.022-.116-.044-.227-.062-.339a6.486,6.486,0,0,1,.289-3.9,4.792,4.792,0,0,1,1.91-1.89c.11-.062.221-.123.339-.177a10.279,10.279,0,0,1,6.2-.564l.339.066a15.68,15.68,0,0,1,6.652,3.187c.115.09.227.187.339.285a14.313,14.313,0,0,1,2.135,2.29c.175.237.342.476.5.717.076.112.147.225.217.339A9.9,9.9,0,0,1,826.86,732.749Z" transform="translate(-659.702 -580.629)" fill="#f5f5f5"/><path d="M844.454,731.2a.781.781,0,0,1-.345.55,2.2,2.2,0,0,1-1.448.159v5.64h-.169c-.526,0-1.348.145-1.43.416-.01.032-.016.115.076.253-.143-.076-.281-.157-.422-.243a.506.506,0,0,1,.02-.11c.161-.516,1.145-.627,1.585-.649v-5.728l.2.052a2.194,2.194,0,0,0,1.392-.072.444.444,0,0,0,.2-.319.985.985,0,0,0-.2-.938c-.364-.3-1.121-.112-1.378-.018l-.229.084v-4.419a1.807,1.807,0,0,1-1.368-.074,1.3,1.3,0,0,1-.685-.984,1.026,1.026,0,0,1,.313-.9,1.58,1.58,0,0,1,1.739-.2v-2.86l.339.066v3.414l-.265-.181a1.336,1.336,0,0,0-1.585.016.7.7,0,0,0-.2.6.986.986,0,0,0,.508.725,1.629,1.629,0,0,0,1.305-.024l.243-.116v4.463a1.8,1.8,0,0,1,1.48.145A1.3,1.3,0,0,1,844.454,731.2Z" transform="translate(-686.895 -581.54)" fill="#fff"/><path d="M879.605,750.8a.871.871,0,0,1-.436.775,1.606,1.606,0,0,1-1.235.112v.677c-.112.036-.223.072-.339.1v-1.316l.249.133a1.3,1.3,0,0,0,1.151,0,.528.528,0,0,0,.269-.484.615.615,0,0,0-.227-.538,1.463,1.463,0,0,0-1.217,0l-.225.074v-5.341a2.5,2.5,0,0,1-1.259.028.938.938,0,0,1-.663-.749,1.068,1.068,0,0,1,.442-1.05,1.671,1.671,0,0,1,1.48-.11V737c.114.09.227.187.339.285v6.343l-.243-.114s-.854-.4-1.376-.016a.727.727,0,0,0-.309.717.591.591,0,0,0,.426.48,2.412,2.412,0,0,0,1.275-.088l.227-.082v5.351a1.605,1.605,0,0,1,1.3.108A.954.954,0,0,1,879.605,750.8Z" transform="translate(-715.197 -594.454)" fill="#fff"/><path d="M825.882,745.524h-5.413l.05-.2a2.875,2.875,0,0,0,0-1.225.922.922,0,0,0-.562-.574.894.894,0,0,0-.832.134c-.755.506-.2,1.579-.171,1.625l.135.249H807.022c-.022-.117-.044-.227-.062-.339h11.585a1.445,1.445,0,0,1,.4-1.808,1.233,1.233,0,0,1,1.91.619,2.892,2.892,0,0,1,.04,1.205h4.778C825.741,745.305,825.811,745.418,825.882,745.524Z" transform="translate(-660.296 -599.363)" fill="#fff"/><path d="M837.771,778.493a2.394,2.394,0,0,1-.036.339H836.53l.064-.217a1.4,1.4,0,0,0-.058-1.028.6.6,0,0,0-.5-.235.5.5,0,0,0-.462.163,1.478,1.478,0,0,0-.054,1.1l.064.217h-5.314l.185-.267a.866.866,0,0,0,0-.884.733.733,0,0,0-.5-.378,1.024,1.024,0,0,0-.815.2c-.4.3-.074,1.05-.07,1.058l.1.239h-5.327a1.666,1.666,0,0,1-.215,1.217,1,1,0,0,1-.821.352h-.026a1,1,0,0,1-.844-.38,1.63,1.63,0,0,1-.181-1.189h-1.649c-.082-.112-.161-.227-.239-.339H822.2l-.064.217a1.557,1.557,0,0,0,.082,1.109.667.667,0,0,0,.574.243.659.659,0,0,0,.574-.223,1.59,1.59,0,0,0,.112-1.135l-.054-.211h5.242a1.122,1.122,0,0,1,.257-1.231,1.376,1.376,0,0,1,1.091-.269,1.089,1.089,0,0,1,.731.548,1.229,1.229,0,0,1,.112.974h4.306a1.578,1.578,0,0,1,.163-1.189.837.837,0,0,1,.747-.291.942.942,0,0,1,.763.38,1.55,1.55,0,0,1,.155,1.1Z" transform="translate(-670.613 -626.373)" fill="#fff"/><path d="M812.32,733.361a2.023,2.023,0,0,1-1.567.2v2.231c-.119-.173-.231-.347-.339-.524v-2.127l.211.056c.3.074,1.133.2,1.474-.09a.512.512,0,0,0,.151-.472.775.775,0,0,0-.341-.669c-.378-.185-1.02.121-1.235.255l-.259.161v-4.5a1.807,1.807,0,0,1-1.277-.046.99.99,0,0,1-.6-.88.9.9,0,0,1,.388-.827,1.888,1.888,0,0,1,1.5-.149v-2.157c.11-.062.221-.123.339-.177v2.828l-.237-.1a1.7,1.7,0,0,0-1.406.032.57.57,0,0,0-.241.532.647.647,0,0,0,.4.589,1.348,1.348,0,0,0,1.205-.058l.273-.2v4.535a1.6,1.6,0,0,1,1.3-.133,1.065,1.065,0,0,1,.53.938.844.844,0,0,1-.269.749Z" transform="translate(-661.551 -583.785)" fill="#fff"/><g transform="translate(254.215 116.279)" opacity="0.5"><path d="M1408.164,621.189c27.361,38.922-29.828,80.589-58.49,42.629C1322.315,624.893,1379.5,583.225,1408.164,621.189Z" transform="translate(-1342.454 -606.22)" fill="#fff"/></g><path d="M1351.684,605.43c-39.685,29.185,4.431,89.714,44.367,60.872C1435.543,636.467,1392.167,576.962,1351.684,605.43Zm41.021,56.287c-33.921,24.485-71.378-26.923-37.677-51.7C1389.429,585.836,1426.254,636.374,1392.7,661.717Z" transform="translate(-1083.181 -483.306)" fill="#5c4b43"/><rect width="8.18" height="74.881" transform="translate(307.036 181.972) rotate(-36.08)" fill="#5c4b43"/><g transform="translate(262.814 130.193)" opacity="0.8"><path d="M1399.895,675.824c10.042,3.013-.9,34.475-10.645,30.611C1379.219,703.422,1390.153,671.959,1399.895,675.824Z" transform="translate(-1385.269 -675.495)" fill="#fff"/></g></g></g></svg>