<svg xmlns="http://www.w3.org/2000/svg" width="442" height="320.284" viewBox="0 0 442 320.284"><g transform="translate(-779 -3551)"><g transform="translate(772.169 3584.296)"><g transform="translate(48.604 39.02)"><rect width="32.52" height="8.604" transform="translate(170.36 37.618)" fill="#f5f5f5"/><path d="M363.96,128.923a.991.991,0,0,1,0-.16v-2.131c0-1.489-.034-3.62-.057-6.3l.1.1-32.52.069c.069-.074-.172.16.16-.166h0v8.592l-.166-.166,23.177.074,6.84.046h2.337a.636.636,0,0,1,.172,0h-2.429l-6.805.046L331.48,129h-.16v-8.753h0c.332-.332.1-.092.172-.166l32.52.063h.1v.1c0,2.715-.04,4.869-.052,6.37,0,.716,0,1.272-.029,1.673v.424A1.242,1.242,0,0,1,363.96,128.923Z" transform="translate(-174.828 -73.639)" fill="#e0e0e0"/><rect width="68.058" height="112.653" transform="translate(2.268 4.858)" fill="#e0e0e0"/><rect width="68.058" height="112.653" transform="translate(0 4.858)" fill="#ebebeb"/><rect width="62.261" height="108.088" transform="translate(2.899 7.137)" fill="#fafafa"/><circle cx="22.787" cy="22.787" r="22.787" transform="matrix(0.206, -0.979, 0.979, 0.206, 6.977, 70.538)" fill="#e0e0e0"/><circle cx="9.343" cy="9.343" r="9.343" transform="translate(22.722 45.979) rotate(-13.28)" fill="#ebebeb"/><path d="M119.311,125.546a6.966,6.966,0,1,1-6.966-6.966A6.966,6.966,0,0,1,119.311,125.546Z" transform="translate(-78.314 -73.006)" fill="#fafafa"/><rect width="24.391" height="3.54" transform="translate(21.934 91.624)" fill="#e0e0e0"/><path d="M99.142,145.827a37.577,37.577,0,0,1-4.056,3.689,37.83,37.83,0,0,1-4.308,3.385,36.251,36.251,0,0,1,4.056-3.689A37.83,37.83,0,0,1,99.142,145.827Z" transform="translate(-72.075 -84.643)" fill="#fff"/><path d="M100.04,143.3a17.732,17.732,0,0,1-2.394,2.257,16.5,16.5,0,0,1-2.549,2.079,11.3,11.3,0,0,1,2.291-2.377A11.6,11.6,0,0,1,100.04,143.3Z" transform="translate(-73.919 -83.561)" fill="#fff"/><path d="M138.766,109.445c.063.1-1.484,1.146-3.277,2.578s-3.162,2.7-3.242,2.624a14.043,14.043,0,0,1,3-2.933A14.323,14.323,0,0,1,138.766,109.445Z" transform="translate(-89.789 -69.101)" fill="#fff"/><path d="M140.751,103.656a22.246,22.246,0,0,1-3.225,2.606,23.725,23.725,0,0,1-3.437,2.291,23.477,23.477,0,0,1,3.225-2.606A22.182,22.182,0,0,1,140.751,103.656Z" transform="translate(-90.577 -66.628)" fill="#fff"/><rect width="32.52" height="8.604" transform="translate(353.907 115.827)" fill="#ebebeb"/><path d="M684.374,265.447v-2.314c0-1.484-.034-3.62-.057-6.3l.1.1-32.52.063.166-.166h0v8.6l-.16-.16,23.177.074,6.84.046h2.5a.631.631,0,0,1-.149,0h-2.28l-6.8.046-23.291.074h-.16v-8.764h0l.166-.166,32.52.069h.1v.172c0,2.721-.04,4.875-.057,6.376v2.091A.172.172,0,0,1,684.374,265.447Z" transform="translate(-311.702 -131.955)" fill="#e0e0e0"/><path d="M607.76,124.087l6.192-10.884a29.215,29.215,0,1,1,7,7.762h0Z" transform="translate(-292.915 -51.664)" fill="#fafafa"/><path d="M607.747,124.068l13.227-3.019.132-.034-.086-.109h0l-.126.126a29.749,29.749,0,0,0,6,3.62,29.392,29.392,0,0,0,8.02,2.291,26.079,26.079,0,0,0,4.623.229c.8-.04,1.6-.063,2.423-.132l2.463-.372a29.446,29.446,0,0,0,23.183-22.988,29.857,29.857,0,0,0-.344-12.992A28.872,28.872,0,0,0,661,78.66l-1.192-1.312c-.39-.441-.859-.8-1.283-1.209a11.351,11.351,0,0,0-1.323-1.146l-1.426-1.02a12.223,12.223,0,0,0-1.449-.962l-1.484-.9-1.547-.75a13.232,13.232,0,0,0-1.57-.7,29.747,29.747,0,0,0-13.083-2.011A28.824,28.824,0,0,0,624.617,72.2,29.569,29.569,0,0,0,610.76,89.257a31.547,31.547,0,0,0-1.272,9.5,29.019,29.019,0,0,0,1.432,8.2,29.489,29.489,0,0,0,2.927,6.3v-.086c-3.907,7-5.82,10.42-6.118,10.953L614,113.236v-.086a29.59,29.59,0,0,1-2.864-6.261,28.881,28.881,0,0,1-1.38-8.14,31.347,31.347,0,0,1,1.289-9.406A29.358,29.358,0,0,1,624.789,72.5a28.561,28.561,0,0,1,11.875-3.489A29.375,29.375,0,0,1,649.593,71a14.287,14.287,0,0,1,1.547.687l1.529.745,1.466.888a13.2,13.2,0,0,1,1.432.951l1.38,1.037a16.46,16.46,0,0,1,1.312,1.146,13.835,13.835,0,0,1,1.266,1.191l1.18,1.3a28.492,28.492,0,0,1,6.181,11.818,29.392,29.392,0,0,1,.349,12.831,28.818,28.818,0,0,1-4.863,11.153,29.157,29.157,0,0,1-18.027,11.623l-2.44.378c-.808.069-1.61.092-2.4.137a25.677,25.677,0,0,1-4.583-.212,29.385,29.385,0,0,1-7.951-2.234,29.943,29.943,0,0,1-5.98-3.563l-.544-.418.418.544h0l.046-.143Z" transform="translate(-292.902 -51.645)" fill="#e0e0e0"/><circle cx="10.322" cy="10.322" r="10.322" transform="translate(333.665 38.764) rotate(-13.39)" fill="#e0e0e0"/><path d="M658,114.517v6.089a.39.39,0,0,0,.573.338l5.448-3.07a.384.384,0,0,0,0-.676l-5.442-3.025a.39.39,0,0,0-.579.344Z" transform="translate(-314.376 -71.102)" fill="#fff"/><path d="M583.546,71.2a1.137,1.137,0,0,1,0-.172v-2.32c0-1.621-.034-3.947-.057-6.874l.109.109-35.407.069.178-.178h0v9.337l-.172-.178,25.2.08,7.447.052h2.727a.865.865,0,0,1-.166,0h-2.48l-7.407.052-25.354.08h-.178V61.863h0l.183-.183,35.407.074h.109v.109c0,2.956-.046,5.3-.063,6.937v2.28C583.626,71.2,583.546,71.206,583.546,71.2Z" transform="translate(-267.383 -48.7)" fill="#ebebeb"/><path d="M602.447,54.862a.706.706,0,0,1,0-.178c0-.137,0-.3,0-.5,0-.458,0-1.088-.034-1.879,0-1.644-.04-3.958-.069-6.811l.132.126-21.275.052.178-.178h0v9.326l-.172-.172,15.22.08,4.434.046h1.192a3.362,3.362,0,0,1,.43,0,3.135,3.135,0,0,1-.39,0h-1.146l-4.394.052-15.335.08H581V45.473h0l.183-.183,21.275.052h.132v.132c-.034,2.864-.057,5.23-.074,6.874V54.2A2.1,2.1,0,0,1,602.447,54.862Z" transform="translate(-281.484 -41.698)" fill="#ebebeb"/><path d="M371.074,243.291a.571.571,0,0,1,0-.172v-.475c0-.441,0-1.06-.029-1.845,0-1.621-.034-3.941-.057-6.874l.109.109-35.407.069.178-.178h0v9.337l-.172-.178,25.2.08,7.447.052h2.727a.5.5,0,0,1-.166,0h-2.48l-7.407.052-25.354.08h-.178v-9.515h0c.361-.361.1-.1.183-.183l35.407.074h.109v.109c-.029,2.962-.046,5.3-.063,6.937v2.28C371.08,243.245,371.074,243.3,371.074,243.291Z" transform="translate(-176.609 -122.154)" fill="#ebebeb"/><path d="M390.039,226.994a.805.805,0,0,1,0-.178c0-.137,0-.3,0-.5,0-.458,0-1.088-.034-1.879,0-1.638-.04-3.958-.069-6.811l.132.126-21.275.052.178-.178h0v9.36l-.172-.172,15.22.08,4.434.046h1.191a3.364,3.364,0,0,1,.43,0,3.686,3.686,0,0,1-.39,0h-1.146l-4.394.052-15.335.08h-.172v-9.44h0c-.034.04.344-.344.183-.183l21.275.052h.132v.132c0,2.864-.052,5.23-.069,6.874v1.85A1.2,1.2,0,0,1,390.039,226.994Z" transform="translate(-190.768 -115.223)" fill="#ebebeb"/><path d="M282.323,47.767V45.453c0-1.484-.029-3.62-.052-6.3l.092.092-32.52.057c.069-.063-.149.149.149-.149h0v8.615l-.143-.143,23.183.063,6.84.04h2.5a.63.63,0,0,1-.149,0h-2.286l-6.805.04-23.28.069H249.7V39.169h0l.149-.149,32.52.057h.092v.092c0,2.721-.04,4.875-.052,6.37v2.1a.574.574,0,0,1-.086.132Z" transform="translate(-139.963 -39.02)" fill="#ebebeb"/></g><g transform="translate(255.902 106.615)"><path d="M444.048,306.271s6.192-5.213,6.719-7.768l1.306-15.226s-.521-1.684-2.417.493c-1.718,2-1.81,5.665-1.81,5.665l-1.6,3.288-1.214-3.025.166-10.311s.286-7.447-.985-6.931-2.051,2.5-2.177,5.728-.281,7.269-.281,7.269-.126,1.249-.819-1.048-.04-11.2-.223-12.459.326-4.371-1.466-4.583-1.638,3.93-1.638,3.93L436.458,284.4s-.516-5.488-.636-6.433,0-3.844-.235-5.5-.968-2.646-1.77-2.727a1.5,1.5,0,0,0-1.718,1.146l.195,11.457s.344,5.287.172,5.579-1.466-2.5-1.466-2.5l-.619-3.838s-.046-5.27-1.363-5.728-1.587.573-1.587.573l.178,9.635,1.753,11.262,2.091,8.69s5.534.355,5.677.676S444.048,306.271,444.048,306.271Z" transform="translate(-423.181 -204.153)" fill="#ffbe9d"/><path d="M441.585,316.222a15.192,15.192,0,0,0,1.615-2.057,8.053,8.053,0,0,1,4.9-3.345,4.388,4.388,0,0,1,2.864.412l.292.16.155-.327c.676-1.438,1.461-2.732,1.9-3.637s.67-1.5.573-1.529a8.515,8.515,0,0,0-.922,1.34c-.538.882-1.34,2.016-2.148,3.615l.441-.166a4.875,4.875,0,0,0-3.265-.521,6.771,6.771,0,0,0-3.254,1.547,10.729,10.729,0,0,0-1.919,2.177A7.985,7.985,0,0,0,441.585,316.222Z" transform="translate(-429.225 -220.618)" fill="#eb996e"/><path d="M445.816,332.084l6.6,34.3,6.25,22.34a22.361,22.361,0,0,1-11.336,6.043c-11.061.848-14.859-9.119-15.358-14.069-.917-9.108,1.232-50.1,1.232-50.1Z" transform="translate(-425.024 -231.169)" fill="#ffbe9d"/><path d="M589.22,289.8l-12.207-2.354L553.6,292.823,541.726,295.3l-.166,16.217,26.471,4.881,17.867-5.3,6.754-9.939Z" transform="translate(-471.934 -212.736)" fill="#ffbe9d"/><path d="M587.53,292.359l-11.525-2.71s-8.14,25.2-28.241,24.093c-16.383-.882-16.406-17.506-16.406-17.506l-11.972,2.119s-5.024,30.406.481,51.738c4.583,17.758,7.321,43.4,7.321,43.4l81.2.195Z" transform="translate(-461.567 -213.676)" fill="#fb8c00"/><path d="M485.359,311.809c6.45-8.077,11.606-7.143,11.606-7.143l3.477,38.735L472.2,379.116l-11.491-29.4S479.453,319.192,485.359,311.809Z" transform="translate(-437.398 -220.076)" fill="#fb8c00"/><path d="M633.9,293.82s18.651,1.5,25.342,32.05c3.03,13.822,6.874,30.022,7.957,40.912.8,7.894-3.494,20.255-11.365,21.269l-12.912,1.764c-6.158.092-9.509-5.574-10.8-10.935l-2.864-9.119c-1.478-10.426,6.5-10.311,10.964-10.2l-3.328-39.583Z" transform="translate(-509.318 -215.458)" fill="#fb8c00"/><path d="M517.648,342.16a2.153,2.153,0,0,0-.086.424c-.046.309-.109.722-.189,1.232-.034.269-.08.573-.126.894s-.069.682-.109,1.065c-.074.762-.172,1.633-.212,2.6a65.783,65.783,0,0,0-.046,6.8c.109,2.555.4,5.362.825,8.283s.968,5.682,1.518,8.18,1.088,4.737,1.552,6.616.865,3.385,1.146,4.428c.138.5.252.9.332,1.2a2.447,2.447,0,0,0,.138.412,2.074,2.074,0,0,0-.08-.43l-.275-1.214c-.258-1.083-.619-2.595-1.065-4.451s-.962-4.119-1.484-6.622-1.065-5.253-1.489-8.169-.722-5.728-.848-8.249a59.193,59.193,0,0,1,0-6.777c0-.962.1-1.833.166-2.595q.046-.573.086-1.065c.034-.327.069-.624.1-.894.057-.516.1-.928.132-1.237A2.292,2.292,0,0,0,517.648,342.16Z" transform="translate(-461.363 -236.107)" fill="#263238"/><path d="M663.1,419.281a3.358,3.358,0,0,0-.143-.768,12.7,12.7,0,0,0-.722-2.011,13.708,13.708,0,0,0-10.947-7.968,12.031,12.031,0,0,0-2.137-.069,3.494,3.494,0,0,0-.779.1,28.649,28.649,0,0,1,2.864.183,14.109,14.109,0,0,1,10.786,7.848A27.415,27.415,0,0,1,663.1,419.281Z" transform="translate(-517.56 -264.422)" fill="#263238"/><path d="M658.853,400.753a1.318,1.318,0,0,0-.453-.046,9.509,9.509,0,0,0-1.232.057,14.212,14.212,0,0,0-7.447,3.053,10.882,10.882,0,0,0-.911.825c-.2.212-.3.332-.292.349s.5-.4,1.335-1.008a16.445,16.445,0,0,1,7.326-3.013C658.212,400.822,658.853,400.8,658.853,400.753Z" transform="translate(-517.623 -261.115)" fill="#263238"/><path d="M632.805,317.028a4.224,4.224,0,0,0,.046-.819c0-.521.034-1.283.1-2.217a36.272,36.272,0,0,1,1.243-7.2,35.749,35.749,0,0,1,2.709-6.782c.43-.836.8-1.5,1.071-1.948a4.22,4.22,0,0,0,.384-.722,4.318,4.318,0,0,0-.487.659,22.224,22.224,0,0,0-1.146,1.908,32.263,32.263,0,0,0-3.953,14.08c-.034.939-.034,1.719,0,2.228a3.951,3.951,0,0,0,.034.813Z" transform="translate(-510.885 -216.961)" fill="#263238"/><g transform="translate(53.439 104.816)" opacity="0.3"><path d="M517.008,366.923A28.781,28.781,0,0,1,516.3,340a75.317,75.317,0,0,0,.842,26.86" transform="translate(-513.303 -340)"/></g><g transform="translate(89.715 134.225)" opacity="0.3"><path d="M586.385,397.939c3.609,1.06,8.592,1.323,12.127,0-2.75,3.907-8.06,5.322-12.671,4.05s-8.856-5.883-9.211-10.649A19.847,19.847,0,0,0,586.385,397.939Z" transform="translate(-576.63 -391.34)"/></g><path d="M570.49,380.14a1.2,1.2,0,0,0,.08.321c.074.206.155.521.309.905a18.751,18.751,0,0,0,1.558,3.145,20.06,20.06,0,0,0,19.8,9.5,18.794,18.794,0,0,0,3.437-.75c.4-.12.693-.252.894-.327a1.289,1.289,0,0,0,.3-.132c0-.029-.441.12-1.232.344a20.416,20.416,0,0,1-23.011-8.753A21.422,21.422,0,0,1,571,381.32C570.668,380.564,570.513,380.134,570.49,380.14Z" transform="translate(-484.292 -252.331)" fill="#263238"/><path d="M639.11,449.62a11.759,11.759,0,0,0,1.02.962,9.273,9.273,0,0,0,3.437,1.633,18.25,18.25,0,0,0,5.614.493c2.131-.155,4.485-.407,6.926-.768a35.084,35.084,0,0,0,6.759-1.558,8.5,8.5,0,0,0,2.48-1.656,13.131,13.131,0,0,0,1.718-1.971,18.906,18.906,0,0,0,1.908-3.311c.178-.412.315-.739.4-.962a1.3,1.3,0,0,1,.149-.332,2.292,2.292,0,0,1-.092.355c-.069.229-.189.573-.349.985a17.116,17.116,0,0,1-1.844,3.385,12.793,12.793,0,0,1-1.719,2.028,8.655,8.655,0,0,1-2.549,1.719,34.072,34.072,0,0,1-6.817,1.6c-2.457.361-4.806.6-6.954.745a18.043,18.043,0,0,1-5.688-.573,9.068,9.068,0,0,1-3.437-1.718,5.861,5.861,0,0,1-.728-.762A1.9,1.9,0,0,1,639.11,449.62Z" transform="translate(-513.604 -278.819)" fill="#263238"/><path d="M633.738,348.71c.075,0,2.045,7.619,4.388,17.053s4.182,17.1,4.107,17.128-2.051-7.613-4.394-17.053S633.658,348.733,633.738,348.71Z" transform="translate(-511.309 -238.905)" fill="#263238"/><path d="M629.475,417.295a2.34,2.34,0,0,1-.1-.63,11.181,11.181,0,0,1-.04-1.718,5.07,5.07,0,0,1,.842-2.446,7.042,7.042,0,0,1,.957-1.2,6.761,6.761,0,0,1,1.323-.991,16.613,16.613,0,0,1,5.43-1.747,15.522,15.522,0,0,1,1.718-.155,2.416,2.416,0,0,1,.636,0c0,.052-.9.08-2.326.338a18.3,18.3,0,0,0-5.316,1.8,6.392,6.392,0,0,0-1.272.934,7.193,7.193,0,0,0-.928,1.146,4.932,4.932,0,0,0-.859,2.291,14.669,14.669,0,0,0-.052,1.719A2.779,2.779,0,0,1,629.475,417.295Z" transform="translate(-509.423 -264.395)" fill="#263238"/><path d="M521.313,184.148,518.965,182c-3.133,1.266-4.583,4.663-5.1,7.813s-.453,6.507-1.879,9.372c-1.1,2.223-3.093,4.285-2.864,6.731.229,2.326,2.486,4.21,2.5,6.547,0,2.245-2,3.975-3.162,5.94-2.36,3.981-3.878,20.273-2.635,24.678,10.4-.825,28.813-1.845,39.222-4.061C542.279,222.287,530.714,198.646,521.313,184.148Z" transform="translate(-456.477 -167.692)" fill="#263238"/><g transform="translate(55.725 33.046)" opacity="0.3"><path d="M517.807,217a14.052,14.052,0,0,1,1.031-2.291c.235,7.264.665,13.175,1.415,20.336-2.039-3.695-2.652-8.2-2.864-12.6C517.234,219.98,517.2,218.726,517.807,217Z" transform="translate(-517.292 -214.71)"/></g><path d="M553.47,309.91Z" transform="translate(-477.022 -222.331)" fill="#ffbe9d"/><path d="M519.629,196.359a23.581,23.581,0,0,1,20.479-24.827,22.908,22.908,0,0,1,25.777,20.582l3.07,51.52a4.49,4.49,0,0,1-.785,2.807,21.059,21.059,0,0,1-13.4,8.558,22.035,22.035,0,0,1-13.576-2.813,4.405,4.405,0,0,1-2.228-3.775l-.24-11.548a.069.069,0,0,0-.08-.074,15.611,15.611,0,0,1-3.231-.092c-3.053-.745-10.827-3.729-13.433-15.14C521.141,217.772,520.259,207.031,519.629,196.359Z" transform="translate(-462.548 -163.148)" fill="#ffbe9d"/><path d="M545.282,231.891a13.687,13.687,0,0,0-3.34-.355c-.521,0-1.02-.086-1.146-.424a2.572,2.572,0,0,1,.246-1.541q.613-1.9,1.283-4.01c1.776-5.682,3.03-10.311,2.8-10.4s-1.862,4.485-3.637,10.168l-1.22,4.01a2.931,2.931,0,0,0-.137,2.022,1.3,1.3,0,0,0,.9.687,3.874,3.874,0,0,0,.894.057A13.1,13.1,0,0,0,545.282,231.891Z" transform="translate(-471.262 -181.855)" fill="#263238"/><path d="M525.509,220.878c.229.252,1.575-.888,3.517-.945s3.38.957,3.586.693c.1-.12-.132-.573-.762-1.043a4.651,4.651,0,0,0-5.671.2C525.594,220.3,525.4,220.769,525.509,220.878Z" transform="translate(-465.065 -183.375)" fill="#263238"/><path d="M559.851,221.478c.264.246,1.667-1.031,3.786-1.209s3.758.785,3.964.493c.1-.126-.178-.573-.9-1.043a5.242,5.242,0,0,0-3.2-.728,5.156,5.156,0,0,0-2.984,1.3C559.92,220.865,559.719,221.37,559.851,221.478Z" transform="translate(-479.731 -183.483)" fill="#263238"/><path d="M553,280.8s7.888.086,17.334-6.4c0,0-2.44,10.414-17.271,10.088Z" transform="translate(-476.821 -207.162)" fill="#eb996e"/><path d="M551.14,251.5a3.735,3.735,0,0,1,3.2-1.564,3.357,3.357,0,0,1,2.383,1.054,2.051,2.051,0,0,1,.315,2.372,2.493,2.493,0,0,1-2.618.854,7.659,7.659,0,0,1-2.7-1.346,2.2,2.2,0,0,1-.619-.573.659.659,0,0,1-.046-.745" transform="translate(-475.952 -196.711)" fill="#eb996e"/><path d="M555.255,246.059c-.332,0-.195,2.171-1.988,3.844s-4.153,1.6-4.147,1.9c0,.137.573.384,1.541.338a5.6,5.6,0,0,0,3.477-1.461,4.731,4.731,0,0,0,1.524-3.214C555.685,246.551,555.4,246.024,555.255,246.059Z" transform="translate(-475.164 -195.055)" fill="#263238"/><path d="M559.308,208.055c.241.527,2.251.12,4.657.223s4.376.573,4.657.08c.126-.241-.246-.728-1.06-1.2a7.814,7.814,0,0,0-3.517-.917,7.916,7.916,0,0,0-3.58.687C559.618,207.344,559.205,207.82,559.308,208.055Z" transform="translate(-479.509 -178.045)" fill="#263238"/><path d="M524.757,208.623c.412.458,2.045,0,4.01,0s3.615.321,4.01-.155c.172-.229-.086-.687-.8-1.146a6.3,6.3,0,0,0-3.248-.756,6.2,6.2,0,0,0-3.2.9C524.809,207.958,524.58,208.4,524.757,208.623Z" transform="translate(-464.732 -178.184)" fill="#263238"/><path d="M551.119,164.755c1.06-1.81,3.042-2.641,5.253-2.973,9.022-1.369,19.1,4.067,24.151,11.663s5.327,18.9,1.627,27.278l-5.625-3.523c-11.3-4.663-19.287-15.552-26.551-26.8C548.983,168.868,550.191,166.325,551.119,164.755Z" transform="translate(-475.37 -158.965)" fill="#263238"/><path d="M518.57,193.467l-.607-1.146c-2.24-4.3-1.272-9.194.4-13.748a20.568,20.568,0,0,1,4.829-8.277c3.775-4.3,10.311-9.223,15.81-6.765,1.146,2.194-2.629,6.215-4.583,7.882-2.864,2.435-5.327,4.079-7.195,5.826-3.786,3.5-8.306,9.767-8.65,16.228" transform="translate(-461.294 -159.522)" fill="#263238"/><path d="M531.52,226.867a1.718,1.718,0,0,0,1.621,1.759,1.638,1.638,0,0,0,1.793-1.512,1.718,1.718,0,0,0-1.621-1.759,1.638,1.638,0,0,0-1.793,1.512Z" transform="translate(-467.645 -186.208)" fill="#263238"/><path d="M564.479,226.207a1.719,1.719,0,0,0,1.621,1.764,1.644,1.644,0,0,0,1.793-1.518,1.719,1.719,0,0,0-1.621-1.759,1.638,1.638,0,0,0-1.793,1.512Z" transform="translate(-481.724 -185.926)" fill="#263238"/><path d="M596.6,223.241c.206-.115,8.541-3.437,9.074,5.356s-8.38,7.493-8.415,7.241S596.6,223.241,596.6,223.241Z" transform="translate(-495.445 -185.006)" fill="#ffbe9d"/><path d="M602.071,234.428c.034-.034.16.1.424.2a1.569,1.569,0,0,0,1.146-.046c.905-.4,1.593-1.913,1.541-3.5a5.016,5.016,0,0,0-.573-2.16,1.719,1.719,0,0,0-1.22-1.1.785.785,0,0,0-.876.47c-.1.252-.034.424-.08.441s-.195-.132-.149-.5a1.014,1.014,0,0,1,.315-.573,1.146,1.146,0,0,1,.831-.275,2.154,2.154,0,0,1,1.678,1.266,5.155,5.155,0,0,1,.676,2.412c.052,1.77-.756,3.477-2,3.918a1.633,1.633,0,0,1-1.409-.143C602.1,234.611,602.025,234.445,602.071,234.428Z" transform="translate(-497.777 -187.079)" fill="#eb996e"/><path d="M529.969,221.565a13.865,13.865,0,0,0-.281-1.971,7.985,7.985,0,0,0-14.126-2.962,7.962,7.962,0,0,0,3.494,12.23,8.02,8.02,0,0,0,4.176.418,7.917,7.917,0,0,0,3.385-1.421,8.112,8.112,0,0,0,3.025-4.342,14.163,14.163,0,0,0,.338-1.953.441.441,0,0,1,0,.132v.384a3.348,3.348,0,0,1-.057.624,5.567,5.567,0,0,1-.166.842,8.146,8.146,0,0,1-10.792,5.568,7.585,7.585,0,0,1-2.068-1.146,7.772,7.772,0,0,1-1.719-1.776,8.21,8.21,0,0,1,4.033-12.534,8.272,8.272,0,0,1,4.325-.275,8.118,8.118,0,0,1,3.437,1.61,8.02,8.02,0,0,1,2.864,4.583,5.283,5.283,0,0,1,.137.848,3.168,3.168,0,0,1,.04.624v.39a.345.345,0,0,1-.046.126Z" transform="translate(-460.011 -181.027)" fill="#fff"/><path d="M568.615,222.184a13.856,13.856,0,0,0-.281-1.965,8.059,8.059,0,0,0-2.864-4.434,7.893,7.893,0,0,0-3.334-1.529,8.02,8.02,0,0,0-4.187.286,7.447,7.447,0,0,0-2.028,1.054,7.331,7.331,0,0,0-1.719,1.661,7.905,7.905,0,0,0-.149,9.394,7.448,7.448,0,0,0,1.65,1.719,7.322,7.322,0,0,0,1.993,1.117,7.968,7.968,0,0,0,4.176.424,7.882,7.882,0,0,0,3.385-1.426,8.065,8.065,0,0,0,3.019-4.336,13.764,13.764,0,0,0,.344-1.959.472.472,0,0,1,0,.132v.39a3.936,3.936,0,0,1-.057.624,6.374,6.374,0,0,1-.166.842,8.189,8.189,0,1,1-10.546-9.887,8.272,8.272,0,0,1,4.325-.275,8.151,8.151,0,0,1,6.3,6.181,6.077,6.077,0,0,1,.138.854,4.4,4.4,0,0,1,.04.624v.39a.511.511,0,0,1-.04.12Z" transform="translate(-476.517 -181.296)" fill="#fff"/><path d="M548.319,225.879c-.04.029-.269-.344-.8-.768a3.9,3.9,0,0,0-4.886-.092c-.573.407-.79.773-.831.739a2.108,2.108,0,0,1,.7-.905,3.838,3.838,0,0,1,5.156.1A2.021,2.021,0,0,1,548.319,225.879Z" transform="translate(-472.037 -185.593)" fill="#fff"/><path d="M591.759,222.79a7.975,7.975,0,0,1-1.621.338c-1.008.155-2.412.3-3.964.441l-3.964.355a10.013,10.013,0,0,1-1.65.126,7.9,7.9,0,0,1,1.621-.332c1.014-.16,2.417-.309,3.97-.447l3.964-.355A10.886,10.886,0,0,1,591.759,222.79Z" transform="translate(-488.594 -185.116)" fill="#fff"/><path d="M518.058,231.975a10.553,10.553,0,0,1-1.718-2.767,10.214,10.214,0,0,1-.47-3.208,2.193,2.193,0,0,0-.172.974,6.255,6.255,0,0,0,1.621,4.394A2.291,2.291,0,0,0,518.058,231.975Z" transform="translate(-460.885 -186.487)" fill="#fff"/><path d="M516.881,220.619c-.04-.069-.372.1-.573.487s-.115.745-.034.739.143-.292.3-.613S516.932,220.682,516.881,220.619Z" transform="translate(-461.095 -184.182)" fill="#fff"/><path d="M554.625,227.548c.046,0-.115-.458-.241-1.2a8.354,8.354,0,0,1,0-2.9,8.467,8.467,0,0,1,1.025-2.715,11.267,11.267,0,0,0,.659-1.031,3.306,3.306,0,0,0-.836.917,7.316,7.316,0,0,0-1.146,2.778,7.2,7.2,0,0,0,.069,3A3.071,3.071,0,0,0,554.625,227.548Z" transform="translate(-477.232 -183.796)" fill="#fff"/><path d="M604.439,245.093s.12.172.3.487a3.122,3.122,0,0,1,.372,1.461,2.721,2.721,0,0,1-.808,2,2.916,2.916,0,0,1-2.48.79,2.864,2.864,0,0,1-2.045-1.61,2.7,2.7,0,0,1-.069-2.154,3.157,3.157,0,0,1,.865-1.237c.275-.235.458-.327.441-.349a1.254,1.254,0,0,0-.516.263,2.961,2.961,0,0,0-.985,1.243,2.864,2.864,0,0,0,0,2.349,3.03,3.03,0,0,0,4.972.9,2.9,2.9,0,0,0,.825-2.2,2.95,2.95,0,0,0-.487-1.512C604.622,245.208,604.45,245.081,604.439,245.093Z" transform="translate(-496.582 -194.381)" fill="#e0e0e0"/><path d="M520.693,252.4a2.458,2.458,0,0,1-1.524.1,3.054,3.054,0,0,1-1.4-.865,3.632,3.632,0,0,1-.911-1.8,3.31,3.31,0,0,1,.241-1.993,3.769,3.769,0,0,1,1.025-1.312,5.922,5.922,0,0,1,1.38-.75,1.008,1.008,0,0,0-.435.057,3.3,3.3,0,0,0-1.071.527,3.631,3.631,0,0,0-1.146,1.363,3.437,3.437,0,0,0-.286,2.165,3.787,3.787,0,0,0,1,1.936,3.093,3.093,0,0,0,1.552.876,2.062,2.062,0,0,0,1.2-.063.83.83,0,0,0,.372-.235Z" transform="translate(-461.229 -194.933)" fill="#e0e0e0"/><path d="M590.34,172.6c8.134,0,11.594,11.938,13.45,16.337s2.394,9.326,4.755,13.479c1.867,3.294,4.886,6.164,5.3,9.927.309,2.744-.853,5.471-.7,8.226.155,2.864,1.684,5.413,2.732,8.065s1.547,5.894-.149,8.186a118.526,118.526,0,0,1-18.754.435,5.161,5.161,0,0,1-3.019-.825c-1.048-.842-1.289-2.291-1.455-3.643-1.719-13.811,2.068-19.963.332-33.8" transform="translate(-492.771 -163.676)" fill="#263238"/><path d="M595.512,228.047a3.062,3.062,0,0,1,0-.5,7.309,7.309,0,0,1,.16-1.438,8.84,8.84,0,0,1,.745-2.177,8.054,8.054,0,0,1,1.833-2.429,7.412,7.412,0,0,1,3.271-1.719,6.989,6.989,0,0,1,4.2.39,7.8,7.8,0,0,1,3.534,3.047,9.159,9.159,0,0,1,0,9.669,7.8,7.8,0,0,1-3.534,3.047,6.989,6.989,0,0,1-4.2.39,7.389,7.389,0,0,1-3.271-1.718,7.916,7.916,0,0,1-1.833-2.429,8.5,8.5,0,0,1-.745-2.171,7.342,7.342,0,0,1-.16-1.438,3.146,3.146,0,0,1,0-.51,18.617,18.617,0,0,0,.269,1.925,8.852,8.852,0,0,0,.779,2.12,7.844,7.844,0,0,0,1.827,2.349,7.292,7.292,0,0,0,3.179,1.627,6.777,6.777,0,0,0,4.044-.4,7.544,7.544,0,0,0,3.4-2.95,9.107,9.107,0,0,0,.98-2.205,9,9,0,0,0,0-4.926,9.167,9.167,0,0,0-.98-2.2,7.544,7.544,0,0,0-3.4-2.95,6.731,6.731,0,0,0-4.044-.4,7.235,7.235,0,0,0-3.179,1.627,7.842,7.842,0,0,0-1.827,2.349,8.765,8.765,0,0,0-.773,2.119A18.882,18.882,0,0,0,595.512,228.047Z" transform="translate(-494.976 -183.762)" fill="#263238"/><g transform="translate(99.653 39.988)" opacity="0.3"><path d="M608.965,235.1a7.219,7.219,0,0,1-7.006,5.436,8.3,8.3,0,0,1-7.367-5.259,8.512,8.512,0,0,1,1.232-8.449,9.778,9.778,0,0,0-.115,8.117,7.977,7.977,0,0,0,6.335,4.474,7.479,7.479,0,0,0,6.874-4.313" transform="translate(-593.979 -226.83)"/></g><path d="M597.75,215.4a4.164,4.164,0,0,1,1.191-.665,10.025,10.025,0,0,1,3.2-.762,9.853,9.853,0,0,1,3.282.327,4.045,4.045,0,0,1,1.266.5,12.516,12.516,0,0,0-8.942.573Z" transform="translate(-495.937 -181.339)" fill="#263238"/><path d="M531.88,165.436a.574.574,0,0,1,.052-.172c.04-.115.1-.281.189-.493a8.553,8.553,0,0,1,1.037-1.718,11.112,11.112,0,0,1,2.291-2.205,17.24,17.24,0,0,1,3.735-2c.733-.292,1.524-.527,2.337-.791a14.734,14.734,0,0,1,2.606-.573,26.922,26.922,0,0,1,5.877-.441A29.181,29.181,0,0,1,563,160.446a26.311,26.311,0,0,1,5.654,4.119,28.018,28.018,0,0,1,4.136,5.035,29.145,29.145,0,0,1,4.067,10.2,26.756,26.756,0,0,1,.412,7.4,19.518,19.518,0,0,1-.246,2c-.04.212-.069.384-.092.516a1.017,1.017,0,0,1-.04.178.885.885,0,0,1,0-.183c0-.132.034-.3.057-.521.052-.458.16-1.146.195-2a27.828,27.828,0,0,0-.5-7.355,28.642,28.642,0,0,0-8.2-15.065,26.076,26.076,0,0,0-5.6-4.067,29.066,29.066,0,0,0-12.826-3.437,26.876,26.876,0,0,0-5.826.412c-.911.137-1.764.372-2.589.573a16.523,16.523,0,0,0-2.291.762,17.71,17.71,0,0,0-3.718,1.942,11.66,11.66,0,0,0-2.326,2.142,9.54,9.54,0,0,0-1.077,1.718l-.212.481A.827.827,0,0,1,531.88,165.436Z" transform="translate(-467.799 -157.022)" fill="#455a64"/><path d="M527.47,169.843a.575.575,0,0,1,.069-.149l.235-.453c.218-.372.573-.922,1.02-1.6a12.9,12.9,0,0,1,1.993-2.24,14.1,14.1,0,0,1,3.368-2.114,18.6,18.6,0,0,1,4.583-1.472,33,33,0,0,1,5.522-.281,39.64,39.64,0,0,1,6.055.756,26.613,26.613,0,0,1,6.255,1.965,20.909,20.909,0,0,1,5.465,3.62,22.487,22.487,0,0,1,3.844,4.755A33.945,33.945,0,0,1,569.7,182.2c.7,2.864,1.048,5.213,1.289,6.84l.258,1.873a3.088,3.088,0,0,0,.057.487.91.91,0,0,1,0,.166.573.573,0,0,1-.04-.16l-.086-.487-.309-1.862c-.275-1.615-.653-3.964-1.38-6.805a33.99,33.99,0,0,0-3.855-9.475,22.686,22.686,0,0,0-3.8-4.686,20.669,20.669,0,0,0-5.4-3.557,26.431,26.431,0,0,0-6.187-1.953,40.7,40.7,0,0,0-6.009-.768,33.029,33.029,0,0,0-5.471.252,18.3,18.3,0,0,0-4.543,1.421,14.065,14.065,0,0,0-3.345,2.045,13.494,13.494,0,0,0-2.011,2.182c-.487.659-.825,1.2-1.06,1.564l-.258.412C527.5,169.814,527.476,169.848,527.47,169.843Z" transform="translate(-465.915 -158.943)" fill="#263238"/><path d="M563.74,422.07h.034Z" transform="translate(-481.409 -270.242)" fill="#ffbe9d"/><path d="M564.1,422.24l.075.034Z" transform="translate(-481.563 -270.315)" fill="#ffbe9d"/><path d="M563.8,422.1l.172.08Z" transform="translate(-481.434 -270.255)" fill="#ffbe9d"/><path d="M563.61,422l.074.034Z" transform="translate(-481.353 -270.212)" fill="#ffbe9d"/><path d="M532.435,436.977c1.5-2.83,13.2-10.311,13.2-10.311l-3.168-.733-3.5,1.478a8.593,8.593,0,0,1-1.506,3.277c-1.283,1.839-3.437-.063-3.437-.063l1.478-7.08,6.92-4.164s6.507.991,7.561,1.5l2.773,2.538c1.22.957,4.737,4.72,5.7,4.835s31.168-6.679,31.168-6.679h0c4.142,3.277,6.3,9.8,6.977,14.493,0,0,.739,2.291-.063,3.563l-37.079,2.91-7.854,2.171a54.732,54.732,0,0,1-6.462,2.217c-2.612.573-4.371-.292-4.445-1.719s1.959-1.6,1.959-1.6a39.521,39.521,0,0,0,5.052-2.223,8.861,8.861,0,0,0,2.864-3.128l-2.8.332s-5.957,4.136-8.192,5.35-2.681-1.014-2.864-1.719,6.691-7.4,6.691-7.4-6.536,4.01-7.71,5.047-2.916,1.318-3.288.636S530.951,439.813,532.435,436.977Z" transform="translate(-467.713 -269.093)" fill="#ffbe9d"/><path d="M564.23,422.3l.063.034Z" transform="translate(-481.618 -270.34)" fill="#ffbe9d"/><path d="M564.41,422.39Z" transform="translate(-481.695 -270.379)" fill="#ffbe9d"/><path d="M564.34,422.36h.04Z" transform="translate(-481.665 -270.366)" fill="#ffbe9d"/><path d="M584.628,444.257a1.676,1.676,0,0,0,.034-.464,2.683,2.683,0,0,0-.034-.539,4.048,4.048,0,0,0-.132-.7,10.06,10.06,0,0,0-1.9-3.66,21.507,21.507,0,0,0-2.864-2.967,8.233,8.233,0,0,0-1.346-1.043,13.408,13.408,0,0,0,1.214,1.186,27.837,27.837,0,0,1,2.773,3,10.834,10.834,0,0,1,1.925,3.54C584.6,443.6,584.571,444.257,584.628,444.257Z" transform="translate(-487.667 -275.714)" fill="#eb996e"/><path d="M556.54,430.8a4.319,4.319,0,0,0,3.695-1.237c-.046-.069-.762.464-1.787.8S556.54,430.723,556.54,430.8Z" transform="translate(-478.333 -273.441)" fill="#eb996e"/><path d="M553.132,443.476a17.893,17.893,0,0,0,2.979-1.077,18.364,18.364,0,0,0,2.864-1.329,36.848,36.848,0,0,0-5.854,2.406Z" transform="translate(-476.872 -278.358)" fill="#eb996e"/><path d="M564.1,451.31a7.022,7.022,0,0,0,1.524-.538,6.9,6.9,0,0,0,1.489-.642,6.026,6.026,0,0,0-3.013,1.18Z" transform="translate(-481.563 -282.228)" fill="#eb996e"/><path d="M554.829,446.161c-.034.08.647.332,1.146,1.014a6.375,6.375,0,0,1,.665,1.381c.034,0,.069-.183,0-.481a2.509,2.509,0,0,0-1.369-1.8C555.024,446.15,554.835,446.132,554.829,446.161Z" transform="translate(-477.602 -280.528)" fill="#eb996e"/><path d="M550,438.609c-.04.069.475.349.813.939a7.663,7.663,0,0,1,.418,1.174,1.392,1.392,0,0,0-.183-1.312C550.674,438.735,550.027,438.535,550,438.609Z" transform="translate(-475.538 -277.301)" fill="#eb996e"/><path d="M551.182,423.224c.029,0,.132-.115.218-.367a2.039,2.039,0,0,0,0-1.031,1.981,1.981,0,0,0-.493-.911c-.189-.189-.344-.252-.367-.229a3.1,3.1,0,0,1,.619,2.538Z" transform="translate(-475.77 -269.649)" fill="#eb996e"/><path d="M639.767,441.994a5.314,5.314,0,0,1-.046-.853,9.207,9.207,0,0,0-.04-.991c-.04-.384-.034-.831-.092-1.318a29.445,29.445,0,0,0-1.621-7.447,26.686,26.686,0,0,0-1.753-3.8c-.344-.573-.642-1.083-.985-1.547l-.476-.676-.475-.6c-1.232-1.512-2.177-2.291-2.131-2.337a4.332,4.332,0,0,1,.664.533,7.718,7.718,0,0,1,.733.693c.269.281.573.573.9.98l.493.573c.166.212.327.447.5.682.355.458.664,1,1.014,1.547a24.875,24.875,0,0,1,1.8,3.838,27.317,27.317,0,0,1,1.552,7.527c.04.493.034.939.046,1.329s0,.727,0,1A4.173,4.173,0,0,1,639.767,441.994Z" transform="translate(-510.63 -270.391)" fill="#263238"/><path d="M420.069,376.063,430.9,429.222h94a1.867,1.867,0,0,0,1.873-1.873h0a1.873,1.873,0,0,0-1.873-1.879h-18.9l-10.036-49.441a2.051,2.051,0,0,0-1.993-1.644L422.1,373.6a2.051,2.051,0,0,0-2.034,2.463Z" transform="translate(-420.019 -249.537)" fill="#e0e0e0"/><path d="M420.063,376.039a.671.671,0,0,0-.029-.16,2.022,2.022,0,0,1,.985-2.039,2.216,2.216,0,0,1,.619-.246,3.517,3.517,0,0,1,.745-.046H424.1l4.228.034,27.164.258,18.938.195,10.609.109,5.562.057,2.864.029h.728a2.171,2.171,0,0,1,1.759,1.295,3.4,3.4,0,0,1,.2.722l.143.716.292,1.432c.195.962.4,1.93.573,2.9l1.2,5.917q1.22,5.98,2.492,12.236c1.718,8.335,3.437,17.007,5.27,25.944l-.126-.1H524.61a3.6,3.6,0,0,1,.733.046,2.011,2.011,0,0,1,.538,3.729,2.1,2.1,0,0,1-.888.241H430.832v-.08l-7.905-38.849c-.928-4.583-1.644-8.186-2.137-10.626l-.573-2.767c-.12-.624-.178-.945-.178-.945s.074.315.206.939.326,1.552.573,2.761c.5,2.435,1.243,6.015,2.188,10.615,1.885,9.205,4.583,22.5,7.957,38.826l-.1-.08H524.9a1.718,1.718,0,0,0,.768-.206,1.764,1.764,0,0,0,.894-1.272,1.718,1.718,0,0,0-.292-1.26,1.758,1.758,0,0,0-1.071-.716,3.245,3.245,0,0,0-.676-.034H505.862v-.1L500.6,399.571q-1.272-6.255-2.48-12.241l-1.2-5.917-.573-2.9-.292-1.432-.149-.716a3.125,3.125,0,0,0-.178-.682,1.971,1.971,0,0,0-.922-.968,1.994,1.994,0,0,0-.653-.189h-3.569l-5.562-.069-10.6-.206-18.932-.223-27.164-.332-4.228-.057-1.719-.029a3.744,3.744,0,0,0-.727.04,2.2,2.2,0,0,0-.607.235,2.028,2.028,0,0,0-.991,1.518A2.9,2.9,0,0,0,420.063,376.039Z" transform="translate(-420.013 -249.513)" fill="#263238"/><path d="M491.09,418.076a3.1,3.1,0,1,1-3.1-3.076,3.1,3.1,0,0,1,3.1,3.076Z" transform="translate(-447.722 -267.222)" fill="#fff"/><path d="M420.25,378.65h4.909l13.439.063,44.343.315,6.41.052h1.575a4.353,4.353,0,0,1,.808.046,2.32,2.32,0,0,1,.762.309,2.234,2.234,0,0,1,.951,1.295c.12.521.206,1.014.309,1.518q1.194,6.015,2.291,11.548c1.455,7.355,2.767,13.983,3.867,19.556s1.971,10.065,2.583,13.175c.3,1.552.527,2.761.687,3.586l.172.939c.04.206.052.315.052.315s-.029-.1-.074-.309-.115-.533-.2-.934c-.166-.825-.418-2.028-.733-3.574-.636-3.122-1.541-7.619-2.669-13.175s-2.44-12.19-3.918-19.545c-.733-3.678-1.507-7.544-2.291-11.548-.1-.493-.195-1.008-.3-1.5a1.977,1.977,0,0,0-.842-1.146,2.051,2.051,0,0,0-.676-.275,4.049,4.049,0,0,0-.756-.04h-1.575l-6.416-.052-44.337-.39-13.439-.149-3.655-.052h-.951Z" transform="translate(-420.114 -251.694)" fill="#263238"/></g><g transform="translate(257.524 87.607)"><path d="M471.3,172.035l-9.509-4.3a24.334,24.334,0,1,1,5.917-6.393h0Z" transform="translate(-422.844 -123.881)" fill="#fafafa"/><path d="M471.3,171.992c-.166-.51-1.272-3.9-3.511-10.729l-.034-.109-.086.08h0l.109.1a24.719,24.719,0,0,0,2.543-5.247,24.345,24.345,0,0,0,1.306-6.805,21.932,21.932,0,0,0-.155-3.849c-.1-.653-.178-1.323-.3-1.993s-.327-1.335-.5-2.016a24.494,24.494,0,0,0-20.817-17.454,24.809,24.809,0,0,0-10.735,1.277,23.962,23.962,0,0,0-9.475,6.1l-1,1.088c-.332.355-.6.773-.905,1.146a9.727,9.727,0,0,0-.854,1.186l-.762,1.243a10.059,10.059,0,0,0-.682,1.272l-.636,1.3-.5,1.34a11.035,11.035,0,0,0-.458,1.352,24.757,24.757,0,0,0-.67,10.993,23.95,23.95,0,0,0,3.861,9.687,24.66,24.66,0,0,0,15.18,10.179,26.059,26.059,0,0,0,7.968.327,24.2,24.2,0,0,0,6.685-1.8,24.632,24.632,0,0,0,4.978-2.91h-.069l9.538,4.233-9.48-4.365h-.074a24.363,24.363,0,0,1-4.966,2.864,23.876,23.876,0,0,1-6.639,1.764,25.926,25.926,0,0,1-7.888-.349,24.414,24.414,0,0,1-15.008-10.1,23.813,23.813,0,0,1-3.8-9.578,24.541,24.541,0,0,1,.67-10.884,10.1,10.1,0,0,1,.453-1.329l.5-1.329c.206-.424.418-.848.624-1.277a10.667,10.667,0,0,1,.676-1.26l.756-1.226a14.045,14.045,0,0,1,.842-1.146c.3-.378.573-.79.894-1.146l.985-1.077a23.7,23.7,0,0,1,9.354-6.026,24.483,24.483,0,0,1,10.6-1.266,23.824,23.824,0,0,1,9.612,3.179,24.271,24.271,0,0,1,11.01,14.052l.5,1.993c.12.664.195,1.329.3,1.976a21.549,21.549,0,0,1,.166,3.815,24,24,0,0,1-1.266,6.754,24.671,24.671,0,0,1-2.5,5.23l-.3.481.418-.384h0l-.12-.029C469.979,168.108,471.13,171.476,471.3,171.992Z" transform="translate(-422.848 -123.838)" fill="#263238"/><path d="M462.537,152.536h0c-.109-.3-2.24.481-4.9.418a9.332,9.332,0,0,1-3.277-.607,10.427,10.427,0,0,1-1.054-.51c-.075-.2-.143-.309-.2-.3-.258.046-.12,3.059.189,6.811a31.83,31.83,0,0,0,.653,4.331,2.968,2.968,0,1,0,.888,1.277c-.08-1.2-.332-3.288-.533-5.682-.092-1.146-.212-2.24-.349-3.191a7.773,7.773,0,0,0,4.319,1.071,7.917,7.917,0,0,0,4.159-1.191c.052,1.186.155,2.721.292,4.405a32.86,32.86,0,0,0,.653,4.336,3.065,3.065,0,0,0-.71-.435,2.939,2.939,0,1,0,1.6,1.718c-.08-1.209-.327-3.294-.527-5.682C463.437,155.521,462.818,152.49,462.537,152.536Zm-4.3,2.583a25.249,25.249,0,0,1-4.354-.453c-.12-.831-.252-1.541-.378-2.074a3.969,3.969,0,0,0,.5.39,6.92,6.92,0,0,0,3.592.991,8.077,8.077,0,0,0,4.846-1.295,10.026,10.026,0,0,0-.046,1.81A21.313,21.313,0,0,1,458.235,155.12Z" transform="translate(-434.087 -135.671)" fill="#263238"/></g><g transform="translate(155.077 99.67)"><path d="M244,195.7l5.66-9.979a26.734,26.734,0,1,1,6.4,7.126h0Z" transform="translate(-244 -144.928)" fill="#fafafa"/><path d="M244,195.669l12.092-2.761.12-.029-.074-.1h0l-.115.115a27.243,27.243,0,0,0,5.493,3.311,26.763,26.763,0,0,0,7.321,2.091,23.819,23.819,0,0,0,4.227.212c.728-.04,1.466-.057,2.211-.12l2.257-.338a26.719,26.719,0,0,0,20.874-32.886,26.241,26.241,0,0,0-5.728-10.981l-1.088-1.2c-.355-.4-.785-.733-1.146-1.106a8.908,8.908,0,0,0-1.209-1.054l-1.283-.957a10.882,10.882,0,0,0-1.329-.882l-1.381-.848-1.421-.687a11.283,11.283,0,0,0-1.426-.636,27.256,27.256,0,0,0-11.972-1.839,26.3,26.3,0,0,0-10.958,3.242,27.118,27.118,0,0,0-12.671,15.6,28.767,28.767,0,0,0-1.146,8.684,26.447,26.447,0,0,0,1.306,7.5,27.208,27.208,0,0,0,2.675,5.728v-.08L244,195.669l5.728-9.939v-.08a27.122,27.122,0,0,1-2.629-5.728,26.511,26.511,0,0,1-1.266-7.447,28.83,28.83,0,0,1,1.18-8.592,26.832,26.832,0,0,1,12.6-15.4,26,26,0,0,1,10.884-3.2,26.981,26.981,0,0,1,11.823,1.822,14.18,14.18,0,0,1,1.415.63l1.4.682,1.335.813a12.345,12.345,0,0,1,1.312.865l1.266.951c.43.3.79.7,1.191,1.043a9.865,9.865,0,0,1,1.146,1.094l1.077,1.186a26,26,0,0,1,5.654,10.844,26.837,26.837,0,0,1,.321,11.732A26.653,26.653,0,0,1,277.5,197.777l-2.228.344c-.745.063-1.478.086-2.194.126a24.061,24.061,0,0,1-4.193-.195,26.757,26.757,0,0,1-7.269-2.045,27.285,27.285,0,0,1-5.471-3.254l-.5-.384.384.5h0l.046-.132Z" transform="translate(-244 -144.898)" fill="#263238"/><path d="M306.17,187.822a2.606,2.606,0,1,0,.761-1.847A2.606,2.606,0,0,0,306.17,187.822Z" transform="translate(-270.557 -162.118)" fill="#263238"/><path d="M287.94,187.822a2.612,2.612,0,1,0,2.612-2.612A2.612,2.612,0,0,0,287.94,187.822Z" transform="translate(-262.77 -162.118)" fill="#263238"/><path d="M269.511,186.517a2.606,2.606,0,1,0,3.563-.957A2.606,2.606,0,0,0,269.511,186.517Z" transform="translate(-254.749 -162.119)" fill="#263238"/></g><g transform="translate(35.83 85.553)"><path d="M300.3,285.816s-6.215-7.579-6.3-10.741l1.839-18.411s.991-1.885,2.761,1.146c1.627,2.761.894,7.143.894,7.143l1.18,4.268,2.114-3.322,2.1-12.345s1.306-8.9,2.709-8.02,1.89,3.437,1.323,7.275-1.277,8.719-1.277,8.719-.132,1.512,1.209-1.071,2.532-13.313,3.03-14.773.573-5.27,2.767-5.156,1.083,5.041,1.083,5.041l-1.552,15.85s1.833-6.416,2.182-7.51.842-4.583,1.507-6.5,1.718-2.933,2.715-2.864a1.81,1.81,0,0,1,1.764,1.718l-2.778,13.6s-1.581,6.209-1.449,6.6,2.291-2.646,2.291-2.646l1.587-4.434s1.226-6.255,2.864-6.49,1.793,1.071,1.793,1.071l-2.337,11.457-4.583,13.015-4.422,9.876L314.3,293.6c-.189.269-12.1-1.936-15.856-4.13Z" transform="translate(-146.112 -171.63)" fill="#9f7362"/><path d="M312.781,298.134a8.633,8.633,0,0,0-.1-2.681,6.536,6.536,0,0,0-1.209-2.6,6.376,6.376,0,0,0-2.813-2.056,6.457,6.457,0,0,0-2.738-.412h-.092l-.04-.08a21.293,21.293,0,0,1-1.787-4.273c-.16-.544-.263-.991-.327-1.295a2.4,2.4,0,0,1-.069-.475c.04,0,.2.642.573,1.719a24.484,24.484,0,0,0,1.867,4.187l-.137-.069a6.513,6.513,0,0,1,6.989,5.31,6.089,6.089,0,0,1,.063,2,3.237,3.237,0,0,1-.109.533C312.815,298.071,312.792,298.134,312.781,298.134Z" transform="translate(-150.217 -190.312)" fill="#65463c"/><path d="M177.132,122.265a10.007,10.007,0,0,1,9.245,3.672,6.444,6.444,0,0,1,7.052,9.475,7.178,7.178,0,0,1,.487,11.279L169.45,128.554a9.99,9.99,0,0,1,7.682-6.29Z" transform="translate(-92.909 -121.069)" fill="#263238"/><path d="M178.029,150.8a24.97,24.97,0,0,0-26.007-21.693l-1.289.063c-13.885,1.507-20.364,14.137-18.474,27.977l4.319,46.268.229,2.246,32.457,4.846-.63-11.818s13.284-2.75,12.786-16.137C181.18,176.079,179.6,162.829,178.029,150.8Z" transform="translate(-76.885 -124.022)" fill="#9f7362"/><path d="M182.922,247.382a32.562,32.562,0,0,1-17.792-4.262s4.583,9.423,17.9,7.556Z" transform="translate(-91.063 -172.738)" fill="#65463c"/><path d="M200.662,185a1.913,1.913,0,0,1-1.719,2.022,1.833,1.833,0,0,1-2.056-1.627,1.919,1.919,0,0,1,1.718-2.022A1.827,1.827,0,0,1,200.662,185Z" transform="translate(-104.627 -147.208)" fill="#263238"/><path d="M202.3,177.322c-.223.258-1.718-.739-3.781-.636s-3.511,1.214-3.746.974c-.12-.109.1-.573.733-1.083a5.287,5.287,0,0,1,2.984-1.083,5.052,5.052,0,0,1,3.03.813C202.178,176.761,202.418,177.2,202.3,177.322Z" transform="translate(-103.714 -143.848)" fill="#263238"/><path d="M166.606,187.366a1.913,1.913,0,0,1-1.718,2.022,1.827,1.827,0,0,1-2.051-1.627,1.913,1.913,0,0,1,1.718-2.022,1.827,1.827,0,0,1,2.051,1.627Z" transform="translate(-90.082 -148.22)" fill="#263238"/><path d="M167.041,179.742c-.223.258-1.719-.739-3.781-.63s-3.511,1.209-3.752.968c-.115-.1.1-.573.739-1.077a5.247,5.247,0,0,1,2.984-1.088,5.053,5.053,0,0,1,3.03.813C166.915,179.186,167.15,179.622,167.041,179.742Z" transform="translate(-88.649 -144.882)" fill="#263238"/><path d="M185.645,194.324a13.911,13.911,0,0,1,3.305-.768c.527-.08,1.02-.212,1.088-.573a2.687,2.687,0,0,0-.43-1.541l-1.753-3.924c-2.44-5.585-4.233-10.191-4.01-10.311s2.383,4.359,4.823,9.944l1.69,3.947a3.029,3.029,0,0,1,.372,2.051,1.312,1.312,0,0,1-.825.808,3.552,3.552,0,0,1-.882.172A13.144,13.144,0,0,1,185.645,194.324Z" transform="translate(-99.05 -144.582)" fill="#263238"/><path d="M176.38,210.1c.332-.04.453,2.194,2.44,3.683s4.354,1.146,4.388,1.438c.034.137-.51.458-1.512.538a5.545,5.545,0,0,1-3.655-1.077,4.829,4.829,0,0,1-1.9-3.093C176.008,210.655,176.226,210.094,176.38,210.1Z" transform="translate(-95.749 -158.633)" fill="#263238"/><path d="M165.944,165.989c-.178.573-2.24.407-4.64.819s-4.319,1.146-4.663.676c-.155-.229.16-.773.917-1.352a8.157,8.157,0,0,1,7.086-1.146C165.549,165.3,166,165.714,165.944,165.989Z" transform="translate(-87.421 -139.211)" fill="#263238"/><path d="M200.872,166.9c-.344.487-1.781.069-3.489.132s-3.128.47-3.483,0c-.16-.229.046-.71.653-1.186a5.052,5.052,0,0,1,5.619-.1C200.809,166.188,201.016,166.692,200.872,166.9Z" transform="translate(-103.331 -139.342)" fill="#263238"/><path d="M173.993,143.451s-3.947-8.209-8.088-9.967c-5.007-2.125-6.874,3.351-11.577,2.291s-9.509-3.11-14.1.727c-5.018,4.2-2.44,6.874-2.463,12.809-.115,24.139-4.17,31.168-5.986,19.889-.195-1.237-3.695-2.051-4.468-7.275-1-6.777-1.673-15.025-.4-19.935,1.083-4.136,3.265-7.063,7.269-10.374,6.33-5.219,15.352-5.774,21.51-5.459S174.028,132.911,173.993,143.451Z" transform="translate(-74.441 -122.745)" fill="#263238"/><path d="M130.745,198.142a3.637,3.637,0,0,0-4.1-3.305c-2.486.361-5.19,1.913-4.772,7.063.745,9.137,9.767,6.5,9.738,6.238S131.095,201.963,130.745,198.142Z" transform="translate(-72.569 -152.1)" fill="#9f7362"/><path d="M131.737,207.1c-.046-.029-.155.12-.412.269a1.593,1.593,0,0,1-1.186.12c-1-.275-1.93-1.719-2.114-3.385a5.282,5.282,0,0,1,.264-2.291,1.85,1.85,0,0,1,1.094-1.318.8.8,0,0,1,.974.361c.143.241.1.43.155.441s.183-.166.074-.538a1.025,1.025,0,0,0-.407-.544,1.2,1.2,0,0,0-.9-.16,2.246,2.246,0,0,0-1.541,1.552,5.408,5.408,0,0,0-.344,2.589c.206,1.839,1.289,3.483,2.641,3.758a1.718,1.718,0,0,0,1.438-.361A.762.762,0,0,0,131.737,207.1Z" transform="translate(-74.929 -154.328)" fill="#65463c"/><path d="M124.021,150.829a9.4,9.4,0,0,0,4.279,1.719c1.552.074,3.271-.9,3.437-2.44.086-.693-.12-1.484.3-2.034.5-.659,1.512-.51,2.343-.464a6.3,6.3,0,0,0,6.3-4.84c.785,1.06,2.492.922,3.563.155a14.354,14.354,0,0,0,2.543-3.007,4.069,4.069,0,0,1,3.305-1.862,9.572,9.572,0,0,0,2.165.367c1.295-.178,1.85-1.718,1.982-3.025s.212-2.807,1.272-3.557,2.326-.39,3.523-.275,2.732-.241,2.979-1.421a2.372,2.372,0,0,0-.533-1.77,6.4,6.4,0,0,0-7.664-2.045,8.9,8.9,0,0,0-7.67-5.786c-3.4-.189-6.559-1.146-8.02,1.913-2.177-1.787-5.5.573-8.22,1.318a8.948,8.948,0,0,0-5.929,5.574,6.376,6.376,0,0,0-6.725,9.624,6.056,6.056,0,0,0-3.088,4.984c.069,2.045,2.154,4.01,4.1,3.345a3.538,3.538,0,1,0,6.3,3.219" transform="translate(-69.293 -120.254)" fill="#263238"/><path d="M136.351,178.437a36.057,36.057,0,0,1,.052-4.657,35.717,35.717,0,0,1,.355-4.64,36.76,36.76,0,0,1-.057,4.657A36.387,36.387,0,0,1,136.351,178.437Z" transform="translate(-78.748 -141.136)" fill="#e0e0e0"/><path d="M126.228,177a19.084,19.084,0,0,1,.143-4.079c.1-1.06.195-2.016.275-2.864a5.889,5.889,0,0,1,.16-1.186,19.287,19.287,0,0,1-.137,4.079c-.1,1.06-.195,2.016-.281,2.864A5.889,5.889,0,0,1,126.228,177Z" transform="translate(-74.421 -141.021)" fill="#e0e0e0"/><path d="M194.15,131.26a6.224,6.224,0,0,1,.888.47,9.031,9.031,0,0,1,.991.63,14.961,14.961,0,0,1,1.249.934l.693.573c.241.206.47.447.71.682a20.163,20.163,0,0,1,1.472,1.592,21.733,21.733,0,0,1,4.4,8.845,20.382,20.382,0,0,1,.4,2.165c.04.338.092.664.115.98s0,.619.04.905a13.982,13.982,0,0,1,0,1.558,8.966,8.966,0,0,1-.1,1.174,6.066,6.066,0,0,1-.16.985c-.074,0,.178-1.421.057-3.706,0-.286-.046-.573-.063-.894s-.086-.636-.132-.968a21.116,21.116,0,0,0-.407-2.1,22.341,22.341,0,0,0-4.342-8.736,20.185,20.185,0,0,0-1.432-1.6c-.241-.235-.458-.475-.693-.682l-.676-.573C195.393,131.982,194.115,131.323,194.15,131.26Z" transform="translate(-103.459 -124.955)" fill="#455a64"/><path d="M68.91,332.305l-27.02-5.831s3.706-20.33,8.318-40.94c3.672-16.435,21.842-21,21.842-21h0l21.046-9.28L95.96,244.33c11.571,5.728,22.793,11.222,29.57,13.977l6.192-6.874,2.635,8.22,2.217.235s7.2.573,8.123.642c7.367.412,15.959,6.714,20.049,16.515,2.864,6.9,13.083,31.426,15.174,37.234l8.644-27.347,20.318,7.418s-8.627,40.1-11.623,50.312c-1.633,5.568-8.117,16.177-20.622,12.837l-.172-.057a19.579,19.579,0,0,1-12.705-12.471l-6.931-16.452L154.4,374.58l-91.957-.286,6.542-38.7Z" transform="translate(-38.419 -173.255)" fill="#26aab7"/><path d="M245.214,325.57c.08,0-.682,10.139-1.718,22.633s-1.925,22.61-2.011,22.6.687-10.133,1.718-22.633S245.105,325.564,245.214,325.57Z" transform="translate(-123.677 -207.958)" fill="#263238"/><path d="M130.71,255.619l27.347,13.748,5.092-11.124s-9.165-3.941-17.477-8.375c-8.489-4.531-11.795-5.488-11.795-5.488" transform="translate(-76.36 -173.276)" fill="#e0e0e0"/><path d="M194.052,256.79l-6.192,6.84,5.585,9.962L196.687,265" transform="translate(-100.773 -178.578)" fill="#e0e0e0"/><path d="M83.768,286.27c-.052.057.854.762,2.131,2.079a25.778,25.778,0,0,1,6.685,12.436c.39,1.793.481,2.933.573,2.927a2.635,2.635,0,0,0,0-.808,16.681,16.681,0,0,0-.263-2.182,23.309,23.309,0,0,0-6.771-12.6,17.491,17.491,0,0,0-1.65-1.432,2.674,2.674,0,0,0-.7-.418Z" transform="translate(-56.307 -191.171)" fill="#263238"/><path d="M187.338,268.53c-.052.034.607,1.048,1.6,2.721a75.394,75.394,0,0,1,3.586,6.714c.1.218.2.435.3.642l.195.424.2-.418a52.643,52.643,0,0,0,2.635-6.668c.269-.871.464-1.575.573-2.068a2.756,2.756,0,0,0,.143-.773c-.057,0-.4,1.043-1.014,2.744a71.186,71.186,0,0,1-2.744,6.576h.4c-.092-.212-.195-.43-.3-.653a55.95,55.95,0,0,0-3.706-6.679c-.533-.819-.991-1.466-1.318-1.9A2.99,2.99,0,0,0,187.338,268.53Z" transform="translate(-100.548 -183.593)" fill="#263238"/><path d="M135,266.14a1.717,1.717,0,0,1,.372.155l1.06.5,3.861,1.885,12.682,6.3,6.971,3.511-.189.069,3.718-8.02c.453-.951.819-1.718,1.088-2.291l.3-.6a.814.814,0,0,1,.115-.2.894.894,0,0,1-.074.218l-.258.619c-.252.573-.573,1.34-1.014,2.291-.905,2-2.154,4.777-3.62,8.02l-.057.126-.132-.063-6.983-3.494-12.637-6.3-3.815-1.971-1.031-.573a2.227,2.227,0,0,1-.355-.183Z" transform="translate(-78.193 -182.572)" fill="#263238"/><g transform="translate(118.393 130.787)" opacity="0.3"><path d="M252.981,396.046a125.7,125.7,0,0,0,2.509-21.281c.109-2.177.51-4.365.132-6.519-1.088-6.3-5.728-16.2-11.073-19.677l-2.039,24.511c2.939,7.39,5.522,13.805,8.02,19.207A36.16,36.16,0,0,0,252.981,396.046Z" transform="translate(-242.51 -348.57)"/></g><path d="M41.965,363.4s-5.608,27.106-6.038,33.339C35,409,40.888,416.375,46.45,419.881c5.763,3.615,38.322,5.322,38.322,5.322l1.971-19.476-21.16-12.768,2.864-22.186Z" transform="translate(-35.83 -224.118)" fill="#26aab7"/><path d="M88,381.174a2.606,2.606,0,0,1,.04-.447c.046-.315.1-.739.178-1.272.172-1.146.412-2.727.7-4.674.624-3.97,1.478-9.4,2.417-15.4l3.437-21.768a2.189,2.189,0,0,1,0,.447c0,.292-.069.722-.137,1.277-.132,1.111-.355,2.71-.642,4.686-.573,3.947-1.409,9.4-2.36,15.415s-1.845,11.457-2.509,15.392c-.332,1.942-.573,3.529-.8,4.657-.1.527-.172.951-.235,1.266A2.044,2.044,0,0,1,88,381.174Z" transform="translate(-58.116 -213.101)" fill="#263238"/><path d="M51.32,437.505a2.018,2.018,0,0,1,.16.132,3.483,3.483,0,0,0,.481.355,9.962,9.962,0,0,0,2.1.979,52.748,52.748,0,0,0,8.386,1.988,249.355,249.355,0,0,0,28.945,2.813l-.155.137c.195-1.919.4-3.941.607-6,.481-4.714.945-9.268,1.369-13.473l.069.138L72.784,412.2l-5.929-3.609-1.575-.98-.4-.252c-.092-.063-.137-.092-.132-.1l.143.074.418.235,1.6.934,6,3.54,20.559,12.293.08.052v.086l-1.358,13.473c-.212,2.056-.418,4.079-.613,6v.138h-.137a239.29,239.29,0,0,1-28.968-2.921A49.989,49.989,0,0,1,54,439.069a9.313,9.313,0,0,1-2.1-1.031,2.428,2.428,0,0,1-.464-.384C51.36,437.563,51.314,437.511,51.32,437.505Z" transform="translate(-42.447 -242.854)" fill="#263238"/><path d="M269.28,389.059a6.814,6.814,0,0,1,.183-.985c.132-.63.344-1.535.613-2.652.544-2.228,1.358-5.3,2.44-8.638s2.245-6.3,3.122-8.421c.441-1.06.8-1.913,1.065-2.5a6.355,6.355,0,0,1,.435-.859,6.414,6.414,0,0,1-.326.945l-.98,2.492c-.825,2.142-1.948,5.1-3.03,8.432s-1.925,6.387-2.52,8.592c-.292,1.071-.527,1.953-.7,2.624A6.225,6.225,0,0,1,269.28,389.059Z" transform="translate(-135.553 -224.802)" fill="#263238"/><g transform="translate(15.301 160.207)" opacity="0.3"><path d="M62.656,400.508a1.323,1.323,0,0,1,.825-.47,7.383,7.383,0,0,1,4.623.882,31.506,31.506,0,0,1,11.2,8.993l-.367-.206c-4.955-2.927-9.349-5.9-14.659-7.321a3.208,3.208,0,0,1-1.335-.573A1.054,1.054,0,0,1,62.656,400.508Z" transform="translate(-62.542 -399.929)"/></g><path d="M208.885,368.56l2.475,2.5H158.338l-8.856,56.412-1.982-3.391,9.016-55.141Z" transform="translate(-83.532 -226.322)" fill="#e0e0e0"/><path d="M157.37,391.17l2.446-18.25H214.35l-9.366,56.7-54.024-.286Z" transform="translate(-85.01 -228.185)" fill="#455a64"/><path d="M166.46,369.418s.12-.057.367-.155.613-.241,1.077-.464a5.551,5.551,0,0,0,1.552-1.06,3.013,3.013,0,0,0,.922-2.291,1.827,1.827,0,0,0-.7-1.283,1.65,1.65,0,0,0-1.535-.338,1.409,1.409,0,0,0-.917,1.381,3.162,3.162,0,0,0,.607,1.833,5.774,5.774,0,0,0,3.729,2.085,5.946,5.946,0,0,0,2.372-.12,4.417,4.417,0,0,0,2.154-1.214,2.778,2.778,0,0,0,.63-1.1,2.194,2.194,0,0,0-.046-1.272,2.028,2.028,0,0,0-.739-1.054,1.415,1.415,0,0,0-1.254-.178,2.223,2.223,0,0,0-1.335,2.217,3.019,3.019,0,0,0,1.678,2.24,7.074,7.074,0,0,0,6.061.1,5.224,5.224,0,0,0,2.486-2,1.873,1.873,0,0,0,.149-1.535,1.26,1.26,0,0,0-1.146-.917,1.449,1.449,0,0,0-1.232.871,1.827,1.827,0,0,0-.08,1.592,4.917,4.917,0,0,0,2.595,2.223,9.526,9.526,0,0,0,3.437,1.02,5.087,5.087,0,0,0,3.437-.934,3.649,3.649,0,0,0,1.146-1.392,3.076,3.076,0,0,0,.206-1.787,2.922,2.922,0,0,0-.831-1.6,1.976,1.976,0,0,0-1.661-.573,2.418,2.418,0,0,0-1.558.894,1.661,1.661,0,0,0-.281,1.719,2.864,2.864,0,0,0,1.277,1.335,8.111,8.111,0,0,0,1.8.722,10.363,10.363,0,0,0,3.884.355,5.816,5.816,0,0,0,1.85-.487,3.053,3.053,0,0,0,1.375-1.214,2.291,2.291,0,0,0,.132-1.764,1.489,1.489,0,0,0-1.237-1.106,1.638,1.638,0,0,0-1.478.779,2.062,2.062,0,0,0-.344,1.684,4.01,4.01,0,0,0,2.423,2.509,7.235,7.235,0,0,0,3.517.573,6,6,0,0,0,3.236-1.226,3.437,3.437,0,0,0,1.025-1.335,2.446,2.446,0,0,0,.189-.8,1.873,1.873,0,0,0-.137-.791,2.337,2.337,0,0,0-1.083-1.146,1.426,1.426,0,0,0-1.478.029,1.547,1.547,0,0,0-.642,1.34,3.145,3.145,0,0,0,.435,1.512,4.76,4.76,0,0,0,2.406,1.942,6.3,6.3,0,0,0,3.019.384,5.648,5.648,0,0,0,2.732-1.077,3.563,3.563,0,0,0,1.489-2.291,2.056,2.056,0,0,0-1.243-2.137,1.432,1.432,0,0,0-1.214.126,2.016,2.016,0,0,0-.8.951,2.618,2.618,0,0,0,.332,2.349,4.617,4.617,0,0,0,1.718,1.587,5.413,5.413,0,0,0,4.245.361,3.663,3.663,0,0,0,2.555-2.572,1.8,1.8,0,0,0-1.719-2.142,1.375,1.375,0,0,0-1.054.728,2.137,2.137,0,0,0-.264,1.146,3.03,3.03,0,0,0,.722,1.719,10.478,10.478,0,0,0,.791.859l.281.281s-.1-.08-.3-.258a8.712,8.712,0,0,1-.813-.848,3.076,3.076,0,0,1-.768-1.718,2.245,2.245,0,0,1,.269-1.2,1.478,1.478,0,0,1,1.146-.791,1.93,1.93,0,0,1,1.879,2.291,3.809,3.809,0,0,1-2.646,2.7,5.539,5.539,0,0,1-4.388-.349,4.806,4.806,0,0,1-1.816-1.65,2.8,2.8,0,0,1-.361-2.532,2.183,2.183,0,0,1,.876-1.054,1.633,1.633,0,0,1,1.4-.149,2.291,2.291,0,0,1,1.4,2.366,3.809,3.809,0,0,1-1.57,2.486,5.98,5.98,0,0,1-2.864,1.146,6.519,6.519,0,0,1-3.145-.4,5.879,5.879,0,0,1-1.432-.8,4.136,4.136,0,0,1-1.111-1.243,3.437,3.437,0,0,1-.475-1.644,1.816,1.816,0,0,1,.756-1.558,1.718,1.718,0,0,1,1.753-.052,2.549,2.549,0,0,1,1.214,1.306,2.24,2.24,0,0,1,.166.911,3.036,3.036,0,0,1-.212.894,3.735,3.735,0,0,1-1.106,1.438,6.227,6.227,0,0,1-3.391,1.295,7.447,7.447,0,0,1-3.655-.573,5.494,5.494,0,0,1-1.6-1.043,3.368,3.368,0,0,1-1-1.661,2.4,2.4,0,0,1,.39-1.925,1.948,1.948,0,0,1,1.753-.905,1.8,1.8,0,0,1,1.484,1.306,2.578,2.578,0,0,1-.149,2,3.363,3.363,0,0,1-1.512,1.34,6.044,6.044,0,0,1-1.948.51,10.506,10.506,0,0,1-4.01-.361,8.473,8.473,0,0,1-1.879-.768,3.168,3.168,0,0,1-1.409-1.484,1.993,1.993,0,0,1,.326-2,2.744,2.744,0,0,1,1.753-1,2.291,2.291,0,0,1,1.9.63,3.179,3.179,0,0,1,.917,1.764,3.38,3.38,0,0,1-.223,1.959,3.975,3.975,0,0,1-1.243,1.507,5.373,5.373,0,0,1-3.632.985,9.819,9.819,0,0,1-3.552-1.054,8.593,8.593,0,0,1-1.575-.939,3.563,3.563,0,0,1-1.146-1.432,2.1,2.1,0,0,1,.092-1.822,1.718,1.718,0,0,1,1.484-1.02,1.541,1.541,0,0,1,1.386,1.106,2.154,2.154,0,0,1-.172,1.753,4.01,4.01,0,0,1-1.146,1.272,7.6,7.6,0,0,1-1.461.842,7.836,7.836,0,0,1-3.208.647,6.53,6.53,0,0,1-3.076-.768,3.254,3.254,0,0,1-1.793-2.44,2.452,2.452,0,0,1,1.5-2.457,1.673,1.673,0,0,1,1.455.212,2.217,2.217,0,0,1,.842,1.146,2.44,2.44,0,0,1,.046,1.4,3.042,3.042,0,0,1-.682,1.18,4.583,4.583,0,0,1-2.257,1.266,6.135,6.135,0,0,1-2.452.115,5.9,5.9,0,0,1-3.838-2.183,3.311,3.311,0,0,1-.624-1.93,1.718,1.718,0,0,1,.275-.934,1.524,1.524,0,0,1,.75-.573,1.787,1.787,0,0,1,1.661.378,1.913,1.913,0,0,1,.733,1.369,3.076,3.076,0,0,1-.974,2.372,5.4,5.4,0,0,1-1.592,1.06A11.841,11.841,0,0,1,166.46,369.418Z" transform="translate(-91.631 -224.167)" fill="#263238"/><path d="M123.215,423.758l3.116.292a32.556,32.556,0,0,1,1.106-6.261c.7-1.713,2.016-7.16,2.016-7.16s13.92-5.849,14.223-5.849,13.914,3.729,13.914,3.729-.3,3.729-4.944,3.935a31.971,31.971,0,0,1-8.266-.71l-4.354,1.615,8.673.573,15.226,9.131s-.1,2.715-6.049,1.306a23.33,23.33,0,0,1-8.976-3.935l-11.222,1.667,11.846.573L158.4,427.1s-.08,3.678-3.712,2.772-6.066-1.478-6.066-1.478l-10.58,1.255,8.965.5s6.055.166,5.728,1.776S148,434.945,148,434.945l-6.3,1.111s-.241,2.824-1.346,3.729-2.824,2.171-3.832,2.194-15.226.779-15.226.779Z" transform="translate(-72.336 -241.794)" fill="#9f7362"/><path d="M135.091,451.026a3.02,3.02,0,0,1-.538-.355,8.4,8.4,0,0,1-1.255-1.214,9.984,9.984,0,0,1-2.291-5.241,9.515,9.515,0,0,1,.143-3.179c.206-.968.544-1.77.636-2.486a3.339,3.339,0,0,0-.132-1.667,5.421,5.421,0,0,0-.275-.573,1.185,1.185,0,0,1,.384.521,3.191,3.191,0,0,1,.229,1.719c-.069.745-.39,1.581-.573,2.515a9.584,9.584,0,0,0-.115,3.082,10.374,10.374,0,0,0,2.142,5.155A19.382,19.382,0,0,0,135.091,451.026Z" transform="translate(-76.456 -255.263)" fill="#65463c"/><path d="M141.18,459.77a36.541,36.541,0,0,1,4.628-.315,36.767,36.767,0,0,1,4.646,0,35.351,35.351,0,0,1-4.634.315,35.41,35.41,0,0,1-4.64,0Z" transform="translate(-80.832 -265.118)" fill="#65463c"/><path d="M142.38,448.327a10.374,10.374,0,0,1,2.463-.109,10.565,10.565,0,0,1,2.452.183,9.791,9.791,0,0,1-2.457.115,10.129,10.129,0,0,1-2.457-.189Z" transform="translate(-81.345 -260.337)" fill="#65463c"/><path d="M141.57,420.788c0-.092,1.547.172,3.437,0s3.34-.728,3.374-.636a8.141,8.141,0,0,1-3.345.934A7.974,7.974,0,0,1,141.57,420.788Z" transform="translate(-80.999 -248.357)" fill="#65463c"/></g></g><rect width="442" height="320" transform="translate(779 3551)" fill="none"/></g></svg>