<svg xmlns="http://www.w3.org/2000/svg" width="304" height="299.722" viewBox="0 0 304 299.722">
  <g id="Ok-amico" transform="translate(-18.472 -30.19)">
    <g id="freepik--Floor--inject-66" transform="translate(18.472 154.448)">
      <path id="freepik--floor--inject-66-2" data-name="freepik--floor--inject-66" d="M62.988,369.234c-59.354-34.269-59.354-89.835,0-124.077s155.589-34.269,214.962,0,59.354,89.835,0,124.077S122.348,403.51,62.988,369.234Z" transform="translate(-18.472 -219.465)" fill="#727997" opacity="0.17"/>
    </g>
    <g id="freepik--Shadow--inject-66" transform="translate(63.854 176.507)">
      <ellipse id="freepik--shadow--inject-66-2" data-name="freepik--shadow--inject-66" cx="46.637" cy="26.923" rx="46.637" ry="26.923" transform="translate(0 75.518)" fill="#b0c0d2"/>
      <ellipse id="freepik--shadow--inject-66-3" data-name="freepik--shadow--inject-66" cx="66.529" cy="33.107" rx="66.529" ry="33.107" transform="translate(64.442 63.163) rotate(-28.34)" fill="#b0c0d2"/>
    </g>
    <g id="freepik--Plants--inject-66" transform="translate(65.595 199.646)">
      <g id="freepik--plants--inject-66-2" data-name="freepik--plants--inject-66" transform="translate(179.537)">
        <path id="Trazado_125126" data-name="Trazado 125126" d="M369.061,316.8c6.466-7.707,16.6-12.729,27.986-15.7,11.252-2.921,13.268-9.847,5.81-12.086-8.449-2.547-18.992,2.127-25.794,8.633-11.843,11.338-13.333,20-13.333,20Z" transform="translate(-363.73 -288.313)" fill="#26aab7"/>
        <path id="Trazado_125127" data-name="Trazado 125127" d="M369.061,316.8c6.466-7.707,16.6-12.729,27.986-15.7,11.252-2.921,13.268-9.847,5.81-12.086-8.449-2.547-18.992,2.127-25.794,8.633-11.843,11.338-13.333,20-13.333,20Z" transform="translate(-363.73 -288.313)" opacity="0.15"/>
        <path id="Trazado_125128" data-name="Trazado 125128" d="M366.608,318.112a.354.354,0,0,1-.144,0,.328.328,0,0,1-.151-.44c9.6-19.695,30.855-24.54,36-24.172a.328.328,0,0,1,.3.348.335.335,0,0,1-.354.3c-5.042-.381-25.912,4.418-35.359,23.811A.342.342,0,0,1,366.608,318.112Z" transform="translate(-364.605 -290.088)" fill="#fff"/>
        <path id="Trazado_125129" data-name="Trazado 125129" d="M363.73,328.073a1.792,1.792,0,0,0,2.711,1.536c6.013-3.5,14.784-5.436,28.978-1.392,7.55,2.147,11.265.709,12.854-2.363,1.773-3.414-1.969-6.716-6.237-8.272-14.528-5.311-27.638-1.687-38.306,8.909Z" transform="translate(-363.73 -297.536)" fill="#26aab7"/>
        <path id="Trazado_125130" data-name="Trazado 125130" d="M364.82,330.666a.338.338,0,0,1-.249-.571c12.546-11.213,31.978-9.027,39.331-4.655a.328.328,0,0,1,.118.446.335.335,0,0,1-.453.118c-7.221-4.287-26.26-6.421-38.556,4.6A.354.354,0,0,1,364.82,330.666Z" transform="translate(-363.986 -299.846)" fill="#fff"/>
      </g>
      <g id="freepik--plants--inject-66-3" data-name="freepik--plants--inject-66" transform="translate(0 24.858)">
        <path id="Trazado_125131" data-name="Trazado 125131" d="M131.5,358c-5.515-8.416-14.981-14.6-25.945-18.887-10.819-4.228-12.007-11.338-4.339-12.69,8.692-1.53,18.612,4.359,24.6,11.62,10.425,12.657,10.878,21.448,10.878,21.448Z" transform="translate(-92.328 -326.179)" fill="#26aab7"/>
        <path id="Trazado_125132" data-name="Trazado 125132" d="M131.5,358c-5.515-8.416-14.981-14.6-25.945-18.887-10.819-4.228-12.007-11.338-4.339-12.69,8.692-1.53,18.612,4.359,24.6,11.62,10.425,12.657,10.878,21.448,10.878,21.448Z" transform="translate(-92.328 -326.179)" opacity="0.15"/>
        <path id="Trazado_125133" data-name="Trazado 125133" d="M137.787,359.579a.373.373,0,0,0,.144,0,.335.335,0,0,0,.2-.42c-7.221-20.686-27.73-28.006-32.9-28.229a.328.328,0,0,0-.341.309.341.341,0,0,0,.315.348c5.055.21,25.209,7.438,32.306,27.809A.328.328,0,0,0,137.787,359.579Z" transform="translate(-95.28 -327.811)" fill="#fff"/>
        <path id="Trazado_125134" data-name="Trazado 125134" d="M134.662,368.767a2.731,2.731,0,0,1-4.234,1.97c-5.567-3.729-13.859-6.151-27.441-3.939-7.747,1.241-11.265-.656-12.473-3.867-1.352-3.6,2.757-6.427,7.175-7.471,15.053-3.558,27.645,1.589,36.987,13.36Z" transform="translate(-90.251 -335.856)" fill="#26aab7"/>
        <path id="Trazado_125135" data-name="Trazado 125135" d="M136.2,372.85a.315.315,0,0,0,.256-.079.335.335,0,0,0,0-.466c-11.16-12.611-30.691-12.736-38.51-9.263a.331.331,0,0,0,.269.6c7.661-3.407,26.831-3.282,37.748,9.092A.3.3,0,0,0,136.2,372.85Z" transform="translate(-92.827 -338.173)" fill="#fff"/>
      </g>
    </g>
    <g id="freepik--check-mark--inject-66" transform="translate(129.523 72.826)">
      <g id="freepik--check-mark--inject-66-2" data-name="freepik--check-mark--inject-66" transform="translate(0 0)">
        <g id="freepik--Circle--inject-66" transform="translate(0 15.645)">
          <path id="Trazado_125136" data-name="Trazado 125136" d="M314.458,136.825h0l-.105-.053h0l-25.026-14.4h0l-.151-.072h0c-11.692-5.908-27.29-4.129-44.07,6.716-33.7,21.8-59.386,71.965-57.364,112.057,1,19.977,8.712,33.678,20.351,39.7h0l.1.052h0l25.032,14.41h0l.118.066h0c11.692,5.908,27.3,4.156,44.1-6.7,33.7-21.8,59.386-71.965,57.364-112.057C333.811,156.553,326.1,142.852,314.458,136.825Z" transform="translate(-187.63 -118.966)" fill="#37474f"/>
          <path id="Trazado_125137" data-name="Trazado 125137" d="M232.371,329.027,208.231,315.07h0l-.118-.072c-11.64-6.04-19.34-19.741-20.351-39.692-.9-17.883,3.716-37.755,12.079-56.209l.164-.407L224.874,233.5c-8.377,18.454-12.979,38.326-12.079,56.209C213.746,309.266,221.145,322.8,232.371,329.027Z" transform="translate(-187.637 -153.222)" fill="#263238"/>
          <path id="Trazado_125138" data-name="Trazado 125138" d="M290.539,296.118c33.7-21.8,59.386-71.965,57.364-112.057s-30.987-54.916-64.691-33.12-59.393,71.965-57.371,112.05S256.835,317.913,290.539,296.118Z" transform="translate(-200.718 -126.496)" fill="#455a64"/>
        </g>
        <path id="freepik--shadow--inject-66-4" data-name="freepik--shadow--inject-66" d="M327.5,141.43l-42.245,87.031-9.092-9.847A14.947,14.947,0,1,0,254.2,238.9l23.958,25.949a14.87,14.87,0,0,0,10.169,4.779h.827a15.168,15.168,0,0,0,2.166-.158,14.922,14.922,0,0,0,11.279-8.259l48.449-99.787C346.08,150.339,337.808,143.472,327.5,141.43Z" transform="translate(-209.135 -111.037)" fill="#37474f"/>
        <path id="Trazado_125139" data-name="Trazado 125139" d="M364.195,96.865c-.263-.151-.538-.3-.814-.427a12.992,12.992,0,0,0-17.345,6L292.283,213.163l-3.059-3.282a12.624,12.624,0,0,0-3.046-2.436c-1.6-.919-8.416-4.865-9.519-5.5a12.979,12.979,0,0,0-16.032,20.043l23.955,25.945a12.9,12.9,0,0,0,3.092,2.462c1.562.886,8.351,4.825,9.467,5.469a12.979,12.979,0,0,0,18.178-5.56l63.595-130.99a13,13,0,0,0-5.18-16.911Z" transform="translate(-211.521 -95.135)" fill="#26aab7"/>
        <path id="Trazado_125140" data-name="Trazado 125140" d="M364.195,96.865c-.263-.151-.538-.3-.814-.427a12.992,12.992,0,0,0-17.345,6L292.283,213.163l-3.059-3.282a12.624,12.624,0,0,0-3.046-2.436c-1.6-.919-8.416-4.865-9.519-5.5a12.979,12.979,0,0,0-16.032,20.043l23.955,25.945a12.9,12.9,0,0,0,3.092,2.462c1.562.886,8.351,4.825,9.467,5.469a12.979,12.979,0,0,0,18.178-5.56l63.595-130.99a13,13,0,0,0-5.18-16.911Z" transform="translate(-211.521 -95.135)" opacity="0.15"/>
        <path id="Trazado_125141" data-name="Trazado 125141" d="M297.6,320.134c-1.1-.656-7.878-4.6-9.46-5.469a12.933,12.933,0,0,1-3.092-2.462L261.1,286.259a12.934,12.934,0,0,1-2.475-3.939l9.526,5.495a12.611,12.611,0,0,0,2.488,3.939L294.583,317.7a13.2,13.2,0,0,0,3.02,2.436Z" transform="translate(-212.015 -159.434)" opacity="0.15"/>
        <path id="Trazado_125142" data-name="Trazado 125142" d="M376.943,105.681a12.973,12.973,0,0,0-3.007,3.991l-55.29,113.889-8-8.666L364.4,104.171a12.815,12.815,0,0,1,3.013-3.991Z" transform="translate(-229.888 -96.868)" opacity="0.15"/>
        <path id="freepik--Check--inject-66" d="M378.058,104.82a13.005,13.005,0,0,0-17.345,6l-55.29,113.889-11.049-11.974a12.972,12.972,0,0,0-19.038,17.607l23.949,25.951a12.979,12.979,0,0,0,21.2-3.138l63.595-130.99A12.992,12.992,0,0,0,378.058,104.82Z" transform="translate(-216.666 -98.016)" fill="#26aab7"/>
      </g>
    </g>
    <g id="freepik--Character--inject-66" transform="translate(58.875 50.777)">
      <g id="freepik--character--inject-66-2" data-name="freepik--character--inject-66" transform="translate(0 0)">
        <path id="Trazado_125143" data-name="Trazado 125143" d="M130.706,115.861c-5.009,0-8.436,1.313-11.994,6.368-3.282,4.648-12.237,20.141-12.237,20.141S99.91,128.9,99.254,126.214s-.617-3.88,0-5.048a10.543,10.543,0,0,0,1.654-4.6c.256-3.23,1.044-5.994.322-6.086-2-.112-2.081,2.462-3.131,3.978a1.26,1.26,0,0,1-2.022-.217c-.44-.9-.2-2.377-.414-3.44a14.1,14.1,0,0,1,.282-1.759,7.72,7.72,0,0,0,2.3.066c.867,1.359,1.457,1.93,2.665,1.379.158-.249-.519-1.969-1.313-3.282a.893.893,0,0,0-.538-.407,10.2,10.2,0,0,0-4.451-.125.834.834,0,0,0-.571.315,10.885,10.885,0,0,0-1.313,2.626c-.085.282-.348.276-.414.033a54.6,54.6,0,0,1-.656-9.782c0-1.661-2.422-1.924-2.508.453a76.87,76.87,0,0,0,.164,9.565c0,.289-.289.427-.407.112a39.781,39.781,0,0,1-1.884-10.373c-.118-1.576-2.665-1.832-2.626.381a56.177,56.177,0,0,0,1.523,11.64c.079.276-.177.519-.368.2a37.794,37.794,0,0,1-2.849-7.221c-.545-1.9-3.086-1.418-2.626.952.794,4.248,2.055,9.618,3.939,13.458,2.009,4.1,3.742,6.158,4.74,9.381s5.127,21.48,9.545,28.6c3.46,5.58,7.418,5.062,11.679,2.12s19.485-24.152,19.485-24.152Z" transform="translate(-80.016 -74.206)" fill="#9e6767"/>
        <path id="Trazado_125144" data-name="Trazado 125144" d="M120.32,164.511a20.62,20.62,0,0,1,2.462,6.512,11.357,11.357,0,0,0-1.51-8.154Z" transform="translate(-93.861 -96.354)" fill="#874c4c"/>
        <path id="Trazado_125145" data-name="Trazado 125145" d="M146.625,124.931a13.5,13.5,0,0,0-9.25,1.878c-3.532,2.226-4.766,5.324-6.48,8.035s-7.635,12.316-7.635,12.316,2.173,9.119,10.812,11L147.012,140.6Z" transform="translate(-94.87 -83.276)" fill="#084a94"/>
        <path id="Trazado_125146" data-name="Trazado 125146" d="M162.318,369.229c.656-.085,1.53,2.153,1.543,2.882a9.388,9.388,0,0,1-1.687,3.768,26.483,26.483,0,0,0-3.184,5.666,19.118,19.118,0,0,1-3.493,5.994c-2.3,2.948-7.694,7.878-15.887,5.738a7.577,7.577,0,0,1-3.729-1.884,2.436,2.436,0,0,1-.571-2.508Z" transform="translate(-98.964 -167.238)" fill="#263238"/>
        <path id="Trazado_125147" data-name="Trazado 125147" d="M146.189,363.128v.072a5.14,5.14,0,0,0,.053,1.845,12.9,12.9,0,0,1-3.105,10.1,19.439,19.439,0,0,1-3.834,3.1c-4.149,2.626-4.6,4.418-4.011,7.1,1.392,3.118,10.8,5.016,16.209.374a15.933,15.933,0,0,0,5.153-7,49.549,49.549,0,0,1,2.731-5.777c1.044-1.969,3.026-4.188,3.085-6.217.033-1.116-1.07-3.191-2.14-4.9-.985-1.569-2-3.059-2.889-2.889l.249.886c-.742.768-1.812,1.057-2.455,1.969-.8,1.109-.775,2.626-1.267,3.873a.446.446,0,0,1-.243.3.328.328,0,0,1-.348-.177.952.952,0,0,1-.072-.407l-.059-1.91a1.609,1.609,0,0,0-.276-1.037c-.512-.578-1.773-.512-2.475-.538a27.049,27.049,0,0,0-2.829.171,1.359,1.359,0,0,0-.919.243A1.622,1.622,0,0,0,146.189,363.128Z" transform="translate(-98.932 -163.698)" fill="#37474f"/>
        <path id="Trazado_125148" data-name="Trazado 125148" d="M130.409,275.735c2.186,7.189,12.408,32.076,13.018,33.573l2.035,4.937a7.648,7.648,0,0,0,4.149.177c.217,2.383.578,6.119.716,8a31.649,31.649,0,0,1-.23,7.051c-.4,1.838-.867,3.768-1.215,5.613-.151.814-.3,1.635-.427,2.455a4.11,4.11,0,0,0,.2,2.58,3.2,3.2,0,0,0,.814.919,7.222,7.222,0,0,0,5.147,1.51,5.351,5.351,0,0,0,2.731-.906c1.589-1.136,2.147-3.112,2.954-4.792.88-1.818.6-2.022.656-3.972.053-1.366.433-4.832.978-8.456s2.9-16.36,4.024-29.05a104.063,104.063,0,0,0,0-16.938c8.968-24.362,12.959-38.851,14.134-46.939,1.188-8.219.617-11.16.466-15.881l-43.611,1.05C133.462,239.214,127.475,266.1,130.409,275.735ZM151.713,237.081Z" transform="translate(-97.057 -114.474)" fill="#9e6767"/>
        <path id="Trazado_125149" data-name="Trazado 125149" d="M129.379,258.792c.9-8.285,7.1-40.131,7.1-40.131h43.933s.282,6.112.2,8.922-.985,7.937-2.554,14.443-7.386,24.868-8.534,27.573-3.282,10.55-3.282,10.55c1.077,14.732-1.727,27.954-3.827,45.528,0,0-.611,2.37-6.834,1.9-6.053-.46-7.274-2.692-7.274-2.692l-.4-15.158s-3.282,1.011-5.252.551c0,0-13.005-32.109-13.635-34.039S128.479,267.076,129.379,258.792Z" transform="translate(-96.709 -115.518)" fill="#d2e1f1"/>
        <path id="Trazado_125150" data-name="Trazado 125150" d="M129.379,258.792c.9-8.285,7.1-40.131,7.1-40.131h43.933s.282,6.112.2,8.922-.985,7.937-2.554,14.443-7.386,24.868-8.534,27.573-3.282,10.55-3.282,10.55c1.077,14.732-1.727,27.954-3.827,45.528,0,0-.611,2.37-6.834,1.9-6.053-.46-7.274-2.692-7.274-2.692l-.4-15.158s-3.282,1.011-5.252.551c0,0-13.005-32.109-13.635-34.039S128.479,267.076,129.379,258.792Z" transform="translate(-96.847 -115.518)" opacity="0.45"/>
        <path id="Trazado_125151" data-name="Trazado 125151" d="M154.189,245.011c-6.224-5.606-7.609-10.071-7.609-10.071a41.622,41.622,0,0,0,10.957,8.777s-5.908,31.2-5.475,37.611,2.015,33.993,2.015,33.993c0,.263-4.188-29.168-4.313-31.512C149.482,277.606,154.189,245.011,154.189,245.011Z" transform="translate(-102.881 -121.11)" opacity="0.2"/>
        <path id="Trazado_125152" data-name="Trazado 125152" d="M163.71,405.46c.611.177.532,2,.256,2.685a8.318,8.318,0,0,1-2.816,2.921,13.786,13.786,0,0,0-4.169,4.484,21.106,21.106,0,0,1-6.532,6.381,15.756,15.756,0,0,1-11.489,1.608c-4.123-1.169-4.5-2.18-4.471-3.736Z" transform="translate(-98.727 -179.685)" fill="#263238"/>
        <path id="Trazado_125153" data-name="Trazado 125153" d="M150.66,390.863c-1.083,5.252-2.967,9.112-7.333,12.355-3.479,2.587-6,3.9-8.777,6.2-1.175.985-1.274,3.079-.374,5.337,1.878,1.5,4.543,2.37,8.121,2.363,4,0,5.541-.716,7.839-2.285a21.081,21.081,0,0,0,3.138-2.626c1.924-1.93,3.282-4.313,4.648-5.843s4.392-3.092,5.252-4.937c.473-1.011.276-3.355-.039-5.35-.289-1.832.269-5.048-.611-5.252l-.125,1.313c-.072.3-.256.446-.873.656a4.556,4.556,0,0,1-1.687.046,1.011,1.011,0,0,0-1.136.322c-.591.7-.748,1.681-1.51,2.258a.433.433,0,0,1-.171.092.184.184,0,0,1-.19-.007.269.269,0,0,1-.033-.217l.217-1.97a2.232,2.232,0,0,0,0-.591,1.313,1.313,0,0,0-.656-.867,7.056,7.056,0,0,0-1.766-.729,10.335,10.335,0,0,0-1.969-.335A6.256,6.256,0,0,0,150.66,390.863Z" transform="translate(-98.414 -174.633)" fill="#455a64"/>
        <path id="Trazado_125154" data-name="Trazado 125154" d="M180.4,126.888a26.352,26.352,0,0,1,3.282,7.6,124.5,124.5,0,0,1,2.757,25.551c0,11.6-1.562,30.4-1.562,30.4-13.465,6.749-35.182,2.757-44.74-3.827.387-2.088.716-13.064,1.471-20.305.506-12.421.926-18.927,1.011-24.454.177-11.042,5.672-16.747,9.847-16.833l10.543.164Z" transform="translate(-100.669 -83.348)" fill="#1565c0"/>
        <path id="Trazado_125155" data-name="Trazado 125155" d="M201.979,219.47c-2,1.648-5.908,4.812-6.65,6.407-.827,1.825-1.313,4.6-1.871,5.633s.282,1.562,1.438,1.188,1.845-1.352,2.738-3.742a11.338,11.338,0,0,1,3.374-4.261Z" transform="translate(-118.923 -115.796)" fill="#874c4c"/>
        <path id="Trazado_125156" data-name="Trazado 125156" d="M195.364,209.492c.479.926,1.6.932,2.626,1.011a8.337,8.337,0,0,0,3.722-.42,6.794,6.794,0,0,0,3.578-2.488c1.011-1.457,1.274-3.282,1.851-4.957,1.208-3.512,4.806-6.046,5.4-9.769a24.373,24.373,0,0,1,.656-4.3c.256-.565,6.171-10.747,8.285-15.158,2.022-4.241,3.539-6.237,1.7-11.331s-8.095-23.023-12.526-29.253c-2.508-3.532-6.493-4.543-11.325-4.957-3.676,9.572.6,19.465.6,19.465l9.755,18.763s-3.781,12.92-6.145,20.1c-.656,1.969-1.969,3.23-3.473,5.442a43.882,43.882,0,0,0-2.665,3.67,12.85,12.85,0,0,0-.985,4.037C195.9,202.31,195.108,209.052,195.364,209.492Z" transform="translate(-119.622 -84.331)" fill="#9e6767"/>
        <path id="Trazado_125157" data-name="Trazado 125157" d="M199.863,127.79c2.541.1,6.191.532,8.37,1.635s3.7,2.462,6.2,7.491,6.178,14.8,6.178,14.8S219.4,159.085,207.741,161l-7.878-14.528A29.046,29.046,0,0,1,199.863,127.79Z" transform="translate(-120.648 -84.303)" fill="#084a94"/>
        <path id="Trazado_125158" data-name="Trazado 125158" d="M151.125,81.573a14.584,14.584,0,0,1,.893,1.937,11.378,11.378,0,0,0,1.477,2.436,24.861,24.861,0,0,0,5.567,4.248A5.952,5.952,0,0,0,163,91.44a20.483,20.483,0,0,1,4.5.236l5.167.466-.289,5.429s.656-1.438,1.516-3.158c.748-1.477,3.886-8.968,3.9-9,1.556-3.709,3.4-8.659,1.543-12.559a5.154,5.154,0,0,0-2.022-2.317,4.687,4.687,0,0,0,.171-1.851,5.948,5.948,0,0,0-2.744-4.346,13.058,13.058,0,0,0-4.871-2.009,30.71,30.71,0,0,0-7.051-.781,41.608,41.608,0,0,0-6.919.794,24.513,24.513,0,0,1-3.854.4,7.425,7.425,0,0,1-1.667-.079,18.965,18.965,0,0,1-2.015-.729.466.466,0,0,0-.361,0,.433.433,0,0,0-.19.309,5.849,5.849,0,0,0,1.07,4.733,3,3,0,0,1-.853-.249,6.9,6.9,0,0,1-.886-.492,5.009,5.009,0,0,1-1.247-1.195.361.361,0,0,0-.2-.151.415.415,0,0,0-.315.2,4.6,4.6,0,0,0-.656,3.63,7.878,7.878,0,0,0,1.707,3.355,4.6,4.6,0,0,0-.236,4.405,6.138,6.138,0,0,0,1.162,1.667c.591.6,1.313,1.1,1.91,1.661a11.16,11.16,0,0,1,1.858,1.766Z" transform="translate(-102.201 -61.549)" fill="#37474f"/>
        <path id="Trazado_125159" data-name="Trazado 125159" d="M168.5,78.208a9.939,9.939,0,0,0,.374,2.9,5.666,5.666,0,0,0,1.464,2.173,16.707,16.707,0,0,1,2.035,2.055,8.666,8.666,0,0,1,1.142,3.781,2.626,2.626,0,0,0,1,2.035c1.4.873,2.245-.814,2.994-1.641.965-.893,3.834-1.969,5.16,1.064,1.372,3.151-1.162,7.326-3.466,7.97-3.972,1.109-4.838-1.6-4.838-1.6l-.762,14.18c-2.239,4.248-7.5,5.6-10.963,4.924-2.987-.584-4.628-2.678-1.818-5.711l.151-4.32a24.648,24.648,0,0,1-5.311.1c-2.882-.538-4.307-2.987-5.088-6.145-1.241-5.075-1.812-10.412-.269-21.842.7-.387,3.545,1.825,7.878,2.12a19.99,19.99,0,0,0,10.32-2.048Z" transform="translate(-103.839 -67.231)" fill="#9e6767"/>
        <path id="Trazado_125160" data-name="Trazado 125160" d="M166.969,117.9s6.5-1.09,8.8-2.219a7.438,7.438,0,0,0,3.217-2.987,10.182,10.182,0,0,1-1.891,3.584c-1.72,2.055-10.182,3.342-10.182,3.342Z" transform="translate(-109.864 -79.116)" fill="#874c4c"/>
        <path id="Trazado_125161" data-name="Trazado 125161" d="M172.15,85.39l3.026.926a1.661,1.661,0,0,0-1.09-2.029,1.549,1.549,0,0,0-1.937,1.1Z" transform="translate(-111.664 -69.338)" fill="#263238"/>
        <path id="Trazado_125162" data-name="Trazado 125162" d="M168.218,107.84l-4.458,1.51a2.317,2.317,0,0,0,2.941,1.556A2.468,2.468,0,0,0,168.218,107.84Z" transform="translate(-108.782 -77.45)" fill="#874c4c"/>
        <path id="Trazado_125163" data-name="Trazado 125163" d="M168.671,109.5a2.626,2.626,0,0,0-2.541,1.969,2.219,2.219,0,0,0,1.385,0,2.422,2.422,0,0,0,1.589-1.93A2.429,2.429,0,0,0,168.671,109.5Z" transform="translate(-109.597 -78.021)" fill="#f28f8f"/>
        <path id="Trazado_125164" data-name="Trazado 125164" d="M151.566,85.825l3.079-.4a1.5,1.5,0,0,0-1.707-1.313A1.582,1.582,0,0,0,151.566,85.825Z" transform="translate(-104.592 -69.294)" fill="#263238"/>
        <path id="Trazado_125165" data-name="Trazado 125165" d="M180.4,88.73l10.156,3.46a3.716,3.716,0,0,0-2.928,1.484l-7.189-2.731Z" transform="translate(-114.498 -70.886)" fill="#263238"/>
        <path id="Trazado_125166" data-name="Trazado 125166" d="M153.878,94.128a1.228,1.228,0,0,0,1.169,1.313,1.241,1.241,0,0,0,1.254-1.228,1.228,1.228,0,0,0-1.169-1.313A1.241,1.241,0,0,0,153.878,94.128Z" transform="translate(-105.387 -72.318)" fill="#263238"/>
        <path id="Trazado_125167" data-name="Trazado 125167" d="M171.55,94.131A1.215,1.215,0,1,0,172.8,92.91,1.241,1.241,0,0,0,171.55,94.131Z" transform="translate(-111.458 -72.322)" fill="#263238"/>
        <path id="Trazado_125168" data-name="Trazado 125168" d="M144.749,89.148a2.744,2.744,0,0,0,.657,1.431,1.313,1.313,0,0,1,.256.512,25.033,25.033,0,0,0,.906,3.867,4.254,4.254,0,0,0,4.156,2.744,5.908,5.908,0,0,0,1.418-.118h.105a4.372,4.372,0,0,0,1.155-.453l.066-.046.1-.059.125-.085.112-.092.125-.1a.61.61,0,0,0,.118-.105,2.448,2.448,0,0,0,.223-.23,5.251,5.251,0,0,0,.926-1.464c.6-1.352.446-3.243,1.431-3.466h.249c1.313,0,1.195,2.081,1.969,3.552a5.021,5.021,0,0,0,4.9,2.948h.374a2.259,2.259,0,0,0,.3,0,4.53,4.53,0,0,0,.7-.1l.217-.053a1.966,1.966,0,0,0,.21-.059l.138-.039a4.169,4.169,0,0,0,.788-.374,2.3,2.3,0,0,0,.263-.177,3.285,3.285,0,0,0,.453-.4,4.6,4.6,0,0,0,.886-1.366,23.875,23.875,0,0,0,.794-3.834,1.628,1.628,0,0,1,.223-.558,2.626,2.626,0,0,0,.656-1.379,1.208,1.208,0,0,0-.814-1.215l-.716-.092a21.7,21.7,0,0,0-7.084.085c-2.245.611-3.026,1.313-4.28,1.313s-1.93-.775-4.064-1.471a19.224,19.224,0,0,0-6.637-.335L145.5,88A1.142,1.142,0,0,0,144.749,89.148Zm14.784,1.411a1.884,1.884,0,0,1,.656-.519.658.658,0,0,1,.112-.066h.066c.1-.053.2-.105.315-.151l.3-.118a8.663,8.663,0,0,1,.958-.3l.381-.092c.328-.066.656-.118.985-.151a1.5,1.5,0,0,1,.236,0c2.16-.177,3.512.335,4,.775s.276,2.462.072,3.479v.151a1.826,1.826,0,0,1-.092.414c-.039.151-.046.164-.072.249h0c-.046.138-.092.276-.144.42h0a1.4,1.4,0,0,1-.066.144.736.736,0,0,1-.033.085l-.046.1-.059.118-.072.138c0,.046-.059.092-.092.138a1.078,1.078,0,0,1-.092.144,3.407,3.407,0,0,1-3.026,1.431,4.188,4.188,0,0,1-3.191-1.221h0a4.53,4.53,0,0,1-1.044-2.048C159.264,92.529,159.113,91.177,159.533,90.56ZM146.81,89.5a1.97,1.97,0,0,1,.525-.335h.039l.236-.092.144-.046h.348a4.188,4.188,0,0,0,.5-.085h1.142a7.726,7.726,0,0,1,1,.092c1.543.223,3.158.939,3.578,1.576a4.993,4.993,0,0,1,.125,3.079,4.675,4.675,0,0,1-.2.762.3.3,0,0,0,0,.059s0,.046,0,.072v.053l-.039.092-.079.184c0,.053-.053.112-.085.164a.384.384,0,0,1,0,.053l-.066.112-.059.092A3.407,3.407,0,0,1,150.7,96.8a3.847,3.847,0,0,1-1.615-.394,4.558,4.558,0,0,1-2.107-3.282c-.328-1.175-.63-3.191-.171-3.63Z" transform="translate(-102.251 -70.569)" fill="#263238"/>
        <path id="Trazado_125169" data-name="Trazado 125169" d="M161.177,93.419l-.23,8.443L156.24,100.5l4.392-7.149a1.221,1.221,0,0,1,.545.072Z" transform="translate(-106.199 -72.47)" fill="#874c4c"/>
      </g>
    </g>
    <g id="freepik--speech-bubble--inject-66" transform="translate(153.157 30.19)">
      <g id="freepik--speech-bubble--inject-66-2" data-name="freepik--speech-bubble--inject-66">
        <g id="freepik--speech-bubble--inject-66-3" data-name="freepik--speech-bubble--inject-66">
          <ellipse id="Elipse_4757" data-name="Elipse 4757" cx="24.323" cy="21.303" rx="24.323" ry="21.303" transform="translate(2.193)" fill="#fb8c00"/>
          <path id="Trazado_125170" data-name="Trazado 125170" d="M230.733,81.41c-.138,2.856-2.554,7.963-6.919,9.847a.3.3,0,0,0,.046.571,13.13,13.13,0,0,0,13.458-5.094Z" transform="translate(-223.63 -47.784)" fill="#fb8c00"/>
        </g>
        <path id="Trazado_125171" data-name="Trazado 125171" d="M238.859,56.436a7.8,7.8,0,0,1,.656-2.7,6.355,6.355,0,0,1,1.562-2.2,7.451,7.451,0,0,1,2.442-1.49,10.379,10.379,0,0,1,6.677,0,7.517,7.517,0,0,1,2.468,1.49,6.44,6.44,0,0,1,1.549,2.232,7.8,7.8,0,0,1,.656,2.7c.033.735.046,1.5.046,2.3s0,1.556-.046,2.252a7.8,7.8,0,0,1-.657,2.7,6.565,6.565,0,0,1-1.562,2.212,7.221,7.221,0,0,1-2.468,1.49,10.622,10.622,0,0,1-6.677,0,7.136,7.136,0,0,1-2.455-1.49,6.467,6.467,0,0,1-1.562-2.212,7.8,7.8,0,0,1-.657-2.7c-.033-.7-.053-1.451-.053-2.252S238.826,57.171,238.859,56.436Zm11.226,4.431c0-.309.033-.656.053-1.024s0-.762,0-1.155V57.545c0-.368-.039-.656-.053-.985a3.9,3.9,0,0,0-.269-1.175,2.849,2.849,0,0,0-.617-.939,2.784,2.784,0,0,0-.985-.624,4.274,4.274,0,0,0-2.764,0,2.869,2.869,0,0,0-.991.624,2.83,2.83,0,0,0-.611.939,3.9,3.9,0,0,0-.269,1.175,8.726,8.726,0,0,0-.066.985q0,.551,0,1.142v1.155a9.486,9.486,0,0,0,.066,1.024,3.433,3.433,0,0,0,.88,2.127,3.105,3.105,0,0,0,2.37.84,3.053,3.053,0,0,0,2.357-.84,3.611,3.611,0,0,0,.9-2.127Z" transform="translate(-228.834 -36.82)" fill="#fafafa"/>
        <path id="Trazado_125172" data-name="Trazado 125172" d="M283.041,66.966a.453.453,0,0,1,.072.282.538.538,0,0,1-.164.394.545.545,0,0,1-.394.171h-4.11a1.044,1.044,0,0,1-.591-.158,2.514,2.514,0,0,1-.46-.433l-4.858-6.105v5.994a.709.709,0,0,1-.656.7h-3.361a.707.707,0,0,1-.689-.7V50.574a.707.707,0,0,1,.689-.7h3.361a.709.709,0,0,1,.656.7v5.4l4.51-5.534a4.752,4.752,0,0,1,.328-.355.959.959,0,0,1,.7-.21h3.991a.545.545,0,0,1,.4.171.538.538,0,0,1,.164.394.44.44,0,0,1-.079.282l-6.3,7.766Z" transform="translate(-238.813 -36.951)" fill="#fafafa"/>
      </g>
    </g>
    <g id="freepik--Icons--inject-66" transform="translate(40.337 54.897)" opacity="0.5">
      <g id="freepik--like-icon--inject-66" transform="translate(195.755)">
        <path id="Trazado_125173" data-name="Trazado 125173" d="M356.3,88.676l-3.683,1.109L349.96,80.9l3.67-1.1Z" transform="translate(-349.96 -71.938)" fill="#727997"/>
        <path id="Trazado_125174" data-name="Trazado 125174" d="M370.39,76.678a1.707,1.707,0,0,1-1.044,1.72,2.488,2.488,0,0,1,.519.939c.21.656-.348,1.608-1.457,1.969l-8.423,2.534-2.475-8.252h0s1.425-3.644,1.5-4.195a13.738,13.738,0,0,0-.886-2.954c-.118-.381,1.247-.88,2.324-.446a1.93,1.93,0,0,1,.656.479,5.823,5.823,0,0,1,.965,1.385,4.943,4.943,0,0,1,.512,2.324l5.1-1.556a1.6,1.6,0,0,1,1.09,0,1.438,1.438,0,0,1,.407,2.429,1.359,1.359,0,0,1,1.392.939,1.5,1.5,0,0,1-.84,1.7A1.582,1.582,0,0,1,370.39,76.678Z" transform="translate(-352.553 -67.824)" fill="#727997"/>
      </g>
      <g id="freepik--like-icon--inject-66-2" data-name="freepik--like-icon--inject-66" transform="translate(250.146 90.471)">
        <path id="Trazado_125175" data-name="Trazado 125175" d="M437.53,227.059l-4.72-1.136,2.751-11.384,4.72,1.136Z" transform="translate(-432.81 -208.693)" fill="#727997"/>
        <path id="Trazado_125176" data-name="Trazado 125176" d="M458.45,222.72a2.16,2.16,0,0,1-2.232,1.215,3.216,3.216,0,0,1-.033,1.352c-.21.886-1.411,1.536-2.829,1.188l-10.806-2.626,2.547-10.576h0s3.88-3.066,4.307-3.624.794-3.282.913-3.788,1.924-.164,2.823,1a2.4,2.4,0,0,1,.446.958,7.347,7.347,0,0,1,.171,2.12,6.335,6.335,0,0,1-.919,2.869l6.526,1.576a2.016,2.016,0,0,1,1.169.729,1.884,1.884,0,0,1,.348,1.51,1.911,1.911,0,0,1-1.451,1.4,1.713,1.713,0,0,1,.919,1.91,1.9,1.9,0,0,1-2,1.313A1.97,1.97,0,0,1,458.45,222.72Z" transform="translate(-436.156 -205.634)" fill="#727997"/>
      </g>
      <g id="freepik--like-icon--inject-66-3" data-name="freepik--like-icon--inject-66" transform="translate(0 78.515)">
        <path id="Trazado_125177" data-name="Trazado 125177" d="M76.82,216.734l5.153,1.549L85.7,205.849,80.555,204.3Z" transform="translate(-60.38 -193.219)" fill="#727997"/>
        <path id="Trazado_125178" data-name="Trazado 125178" d="M52.114,199.887a2.39,2.39,0,0,0,1.464,2.409,3.571,3.571,0,0,0-.722,1.313c-.3.965.492,2.258,2.035,2.718l11.817,3.552,3.453-11.574h0s-2-5.108-2.1-5.908,1.083-3.6,1.241-4.136c.131-.433-1.746-1.228-3.282-.617a2.58,2.58,0,0,0-.958.656,8.115,8.115,0,0,0-1.352,1.969,7.018,7.018,0,0,0-.722,3.282l-7.09-2.14a2.219,2.219,0,0,0-1.53.053,2.009,2.009,0,0,0-.565,3.4,1.9,1.9,0,0,0-1.969,1.313,2.107,2.107,0,0,0,1.175,2.39,2.232,2.232,0,0,0-.893,1.32Z" transform="translate(-51.777 -187.421)" fill="#727997"/>
      </g>
    </g>
  </g>
</svg>
