<svg xmlns="http://www.w3.org/2000/svg" width="469" height="373.5" viewBox="0 0 469 373.5">
  <g id="Grupo_72281" data-name="Grupo 72281" transform="translate(-915 -7624.759)">
    <rect id="Rectángulo_32127" data-name="Rectángulo 32127" width="469" height="373.5" rx="20" transform="translate(915 7624.759)" fill="#f3f9ff" opacity="0.5"/>
    <g id="Grupo_72180" data-name="Grupo 72180" transform="translate(17.932 673.763)">
      <path id="Trazado_127440" data-name="Trazado 127440" d="M733.378,214.958c-8.157,22.9-75.876,52.639-190.517,11.934C422.738,184.219,394.386,120.381,402.543,97.459s78.42,14.006,169.771,46.449S741.561,192.035,733.378,214.958Z" transform="translate(563.823 7017.12)" fill="#24232d"/>
      <path id="Trazado_127441" data-name="Trazado 127441" d="M497.129,159.221c-19.277-10.491-42.646-18.6-54.186-36.955-4.065-6.452-6.767-13.376-12.432-19.146-4.773-4.9-17.258-8.629-22.608-4.091-9.311,7.868,7.029,22.189,13.586,28.352a177.48,177.48,0,0,0,43.8,28.667A357.15,357.15,0,0,0,498.834,170c27.959,10.281,57.255,17.31,85.922,24.5-25.651-10.307-52.455-18.517-77.5-30.109C503.791,162.788,500.434,161.057,497.129,159.221Z" transform="translate(570.083 7027.903)" fill="#2c2b37"/>
      <path id="Trazado_127442" data-name="Trazado 127442" d="M563.414,143.883c-72.073-25.6-131.138-53.95-156.683-53.53,28.352,6.373,77.922,28.588,136.383,49.387,87.259,31,160.932,46.738,153.93,66.539s-69.923,43.59-179.187,4.8c-45.243-16.077-77.03-34.62-98.563-52.455,21.612,23.054,57.858,47.97,114.667,68.192C648.6,267.52,716.32,237.778,724.477,214.881S654.764,176.327,563.414,143.883Z" transform="translate(572.724 7017.144)" fill="#1c1b24"/>
      <path id="Trazado_127443" data-name="Trazado 127443" d="M649.234,266l22.241-62.631a103.31,103.31,0,0,0-62.763-131.9l-34.673-12.3a103.258,103.258,0,0,0-131.9,62.763L419.9,184.562s21.244,32.443,105.173,62.238C603.336,274.6,649.234,266,649.234,266Z" transform="translate(594.096 6956.821)" fill="#24232d"/>
      <path id="Trazado_127444" data-name="Trazado 127444" d="M432.042,121.373a7.318,7.318,0,0,0,2.885,4.931c6.111,4.59,14.53,3.7,18.176-2.465l2.885-4.826c2.623-5.088,5.245-10.334,7.868-15.4,4.38-8.157,9.389-16.759,17.048-22.346,27.2-19.776,65.464-19.8,98.012-11.986L559.43,62.361a100.268,100.268,0,0,0-73.673,2.151c-21.533,9.153-45.479,25.7-52.717,49.255a17.728,17.728,0,0,0-1,7.606Z" transform="translate(613.688 6962.021)" fill="#2c2b37"/>
      <path id="Trazado_127445" data-name="Trazado 127445" d="M608.729,61.01l-3.96-1.39c18.176,18.359,28.326,42.935,23.972,71.1-5.245,34.1-6.426,78.945-52.167,74.827-44.98-4.039-93.764-26.752-127.833-55.734a41.544,41.544,0,0,1-13.114-19.828L419.89,174.1s21.271,32.443,105.2,62.238c78.316,27.8,124.214,19.2,124.214,19.2l22.241-62.631a103.31,103.31,0,0,0-62.815-131.9Z" transform="translate(594.08 6967.28)" fill="#1c1b24"/>
      <path id="Trazado_127446" data-name="Trazado 127446" d="M429.578,92.88,419.9,120.13s21.244,32.444,105.173,62.238c78.315,27.8,124.214,19.2,124.214,19.2l9.547-27.25s-45.9,8.6-124.214-19.2C450.822,125.323,429.578,92.88,429.578,92.88Z" transform="translate(594.096 7021.252)" fill="#fff"/>
    </g>
  </g>
</svg>
