<svg xmlns="http://www.w3.org/2000/svg" width="314.666" height="307.288" viewBox="0 0 314.666 307.288"><g transform="translate(-19.466 -19.86)"><g transform="translate(21.158 26.227)"><g transform="translate(0)"><path d="M94.235,114.984,27.47,153.528V76.117L94.235,37.58Z" transform="translate(-23.665 -31.776)" fill="#fff"/><path d="M25.56,189.579l1.3.783,68.077-39.3-1.3-.783Z" transform="translate(-23.067 -67.072)" fill="#fafafa"/><path d="M96.885,30.23,23.87,72.387v84.657l73.015-42.157Zm-2.473,83.235-68.07,39.3V73.815l68.07-39.306Z" transform="translate(-22.538 -29.475)" fill="#f0f0f0"/><path d="M125.985,115.416l-1.3-.783v-77.4l1.3-.769Z" transform="translate(-54.11 -31.426)" fill="#e0e0e0"/><path d="M96.278,29.885l-1.332-.755L21.93,71.28l1.332.762Z" transform="translate(-21.93 -29.13)" fill="#fafafa"/><path d="M21.93,90.5l1.332.762v84.657l-1.332-.762Z" transform="translate(-21.93 -48.35)" fill="#e0e0e0"/><path d="M29.05,129.834v1.538L96.035,92.643l-1.3-.783Z" transform="translate(-24.16 -48.776)" fill="#fafafa"/><path d="M73.96,66.509l1.326-.769V144.7l-1.326-.762Z" transform="translate(-38.225 -40.596)" fill="#e0e0e0"/><path d="M78.363,63.67,75.89,65.092v78.956l2.473-1.429Z" transform="translate(-38.83 -39.947)" fill="#f0f0f0"/><path d="M95.528,93v2.85l-68.1,39.464v-2.85Z" transform="translate(-23.653 -49.133)" fill="#f0f0f0"/><path d="M60.722,122.007,59.4,121.19,27.46,139.645v1.648Z" transform="translate(-23.662 -57.962)" fill="#fafafa"/></g></g><g transform="translate(103.597 19.86)"><path d="M145.02,66.737l1.106.659,22.651-13.077-1.106-.659Z" transform="translate(-142.918 -30.446)" fill="#fafafa"/><path d="M168.175,45.307,146.63,57.746V39.421L168.175,26.99Z" transform="translate(-143.423 -22.093)" fill="#fff"/><path d="M170.426,20.79,143.64,36.278v24.43l26.786-15.481Zm-2.06,23.235L145.7,57.074V37.48L168.365,24.43Z" transform="translate(-142.486 -20.151)" fill="#f0f0f0"/><path d="M179.106,45.672,178,45.013V26.7l1.106-.646Z" transform="translate(-153.247 -21.799)" fill="#e0e0e0"/><path d="M169.9,20.5l-1.12-.639L141.96,35.341l1.119.646Z" transform="translate(-141.96 -19.86)" fill="#fafafa"/><path d="M141.96,42.4l1.119.646v24.43l-1.119-.639Z" transform="translate(-141.96 -26.919)" fill="#e0e0e0"/><g transform="translate(4.045 14.052)"><path d="M167.72,48.8,147.85,60.279v-1.5l4.966-11.47,3.1,2.871-.433,2.658,6.181-12.521,6.058,6.992Z" transform="translate(-147.85 -40.32)" fill="#f0f0f0"/><path d="M158.65,42.349a3.228,3.228,0,0,0-1.47,2.541c0,.941.652,1.319,1.47.852a3.249,3.249,0,0,0,1.47-2.548C160.12,42.259,159.46,41.882,158.65,42.349Z" transform="translate(-150.772 -40.893)" fill="#f0f0f0"/></g><g transform="translate(0.165 38.029)"><g transform="translate(0 0)"><path d="M145.25,122.107l1.106.659,22.658-13.077-1.106-.659Z" transform="translate(-143.155 -85.816)" fill="#fafafa"/><path d="M168.412,100.677,146.86,113.116V94.791L168.412,82.36Z" transform="translate(-143.659 -77.463)" fill="#fff"/><path d="M170.666,76.16,143.88,91.648v24.43L170.666,100.6Zm-2.06,23.235L145.94,112.444V92.85L168.605,79.8Z" transform="translate(-142.726 -75.521)" fill="#f0f0f0"/><path d="M179.346,101.042l-1.106-.659V82.066l1.106-.646Z" transform="translate(-153.487 -77.169)" fill="#e0e0e0"/><path d="M170.14,75.869l-1.12-.639L142.2,90.718l1.12.639Z" transform="translate(-142.2 -75.23)" fill="#fafafa"/><path d="M142.2,97.78l1.12.639v24.43l-1.12-.639Z" transform="translate(-142.2 -82.292)" fill="#e0e0e0"/></g><g transform="translate(4.045 14.052)"><path d="M167.953,104.179l-19.863,11.47v-1.5l4.966-11.47,3.091,2.871-.426,2.658,6.174-12.521,6.058,6.992Z" transform="translate(-148.09 -95.69)" fill="#f0f0f0"/><path d="M158.88,97.719a3.249,3.249,0,0,0-1.47,2.548c0,.934.687,1.312,1.47.845a3.249,3.249,0,0,0,1.47-2.541C160.35,97.629,159.69,97.252,158.88,97.719Z" transform="translate(-151.009 -96.263)" fill="#f0f0f0"/></g></g><g transform="translate(89.197 9.203)"><path d="M301.312,140.646l-1.525.913L276.03,127.843l1.525-.913Z" transform="translate(-273.145 -62.596)" fill="#fafafa"/><path d="M278.25,100.682l22.232,12.83V55.943L278.25,43.12Z" transform="translate(-273.841 -36.348)" fill="#fff"/><path d="M271.84,100.573l29.533,17.04V51.59L271.84,34.55Zm2.857-61.03,23.757,13.736v59.368L274.7,98.911Z" transform="translate(-271.833 -33.664)" fill="#f0f0f0"/><path d="M276.03,101.188l1.525-.913V42.713l-1.525-.893Z" transform="translate(-273.145 -35.941)" fill="#e0e0e0"/><path d="M271.83,34.146l1.552-.886L302.9,50.3l-1.552.886Z" transform="translate(-271.83 -33.26)" fill="#fafafa"/><path d="M316.362,58.07l-1.552.886v66.03l1.552-.893Z" transform="translate(-285.291 -41.03)" fill="#e0e0e0"/><g transform="translate(6.648 12.033)"><path d="M281.51,101.3l17.768,10.254V61.041L281.51,50.78Z" transform="translate(-281.51 -50.78)" fill="#f0f0f0"/></g><g transform="translate(6.648 12.033)"><path d="M281.51,101.3l17.768,10.254V61.041L281.51,50.78Z" transform="translate(-281.51 -50.78)" fill="#f0f0f0"/></g><path d="M299.278,113.293a12.617,12.617,0,0,1-2.541.6,21.168,21.168,0,0,1-8.654-.556c-2.15-.6-4.3-1.538-6.573-1.071V120.5l2.4,1.374a11.38,11.38,0,0,1,3.3-3.434c3.434-2.122,6.93-.529,10.446-.824a10.3,10.3,0,0,0,1.614-.282Z" transform="translate(-274.862 -57.963)" fill="#fafafa"/><path d="M299.275,88.374c-3.977-.687-8.056-1.092-10.893-4.554-2.287-2.788-3.359-7.17-4.121-11.532s-1.271-8.929-2.713-12.782c0-.041-.034-.076-.048-.117V85.722c.22.419.446.838.687,1.236,2.61,4.4,6.456,7.672,10.852,6.916,2.06-.357,4.19-1.566,6.236-2.06Z" transform="translate(-274.858 -41.444)" fill="#fafafa"/><path d="M302.563,76.864c-3.049-3.084-4.684-8.839-3.935-14.753.055-.44.124-.879.2-1.312L292,56.83c0,.639.048,1.271.062,1.909a81.209,81.209,0,0,0,.556,10.989c.975,5.852,3.9,10.522,7.788,12.438a9.869,9.869,0,0,0,2.163.755Z" transform="translate(-278.147 -40.642)" fill="#fafafa"/></g></g><g transform="translate(240.513 29.063)"><g transform="translate(10.137 182.761)"><path d="M356.07,338.666l70.076,40.412V299.36Z" transform="translate(-356.07 -299.36)" fill="#e0e0e0"/></g><g transform="translate(10.137 182.761)" opacity="0.15"><path d="M356.07,338.666l70.076,40.412V299.36Z" transform="translate(-356.07 -299.36)"/></g><g transform="translate(13.455 19.437)"><g transform="translate(0 1.93)"><path d="M360.9,64.37V263.21l70.055,40.405V104.775Zm29.6,105.041-21.133-12.218V77.481L390.5,89.7Zm30.7,17.713-21.209-12.2V95.2L421.2,107.385Z" transform="translate(-360.9 -64.37)" fill="#455a64"/><path d="M416.777,225.37,414.49,226.7l23.5,13.53v-2.679Z" transform="translate(-377.684 -114.793)" fill="#263238"/><path d="M372.184,199.57,369.89,200.9l23.427,13.537,2.287-1.326Z" transform="translate(-363.716 -106.713)" fill="#263238"/><path d="M372.181,162.6V82.856l-2.3-1.326.007,82.4Z" transform="translate(-363.712 -69.744)" fill="#37474f"/><path d="M411.2,187.835l-7.2-4.183V101.29l7.2,4.183Z" transform="translate(-374.398 -75.933)" fill="#455a64"/><path d="M414.49,189.743l2.287-1.326V108.671l-2.287-1.291Z" transform="translate(-377.684 -77.84)" fill="#37474f"/><path d="M414.49,243.33l23.5,13.523v84.918l-23.5-13.53Z" transform="translate(-377.684 -120.418)" opacity="0.1"/><path d="M416.84,251.11l18.173,10.453v76.085L416.84,327.2Z" transform="translate(-378.42 -122.854)" fill="#455a64"/><path d="M447.009,263.02l-3.709,2.273v76.085l3.709,6.559Z" transform="translate(-386.707 -126.584)" fill="#37474f"/><path d="M414.49,243.33l1.614,5.343v76.085l-1.614,3.482Z" transform="translate(-377.684 -120.418)" fill="#37474f"/><path d="M414.49,365.372l1.614-3.482,18.173,10.453,3.709,6.559Z" transform="translate(-377.684 -157.549)" fill="#263238"/><path d="M369.88,217.52l23.434,13.537-.007,84.918L369.88,302.438Z" transform="translate(-363.712 -112.334)" opacity="0.1"/><path d="M372.23,225.3l18.111,10.467v76.085l-18.111-10.46Z" transform="translate(-364.448 -114.771)" fill="#455a64"/><path d="M402.309,237.23,398.6,239.5v76.085l3.7,6.559Z" transform="translate(-372.707 -118.507)" fill="#37474f"/><path d="M369.88,217.52l1.614,5.343v76.092l-1.614,3.482Z" transform="translate(-363.712 -112.334)" fill="#37474f"/><path d="M369.88,339.572l1.614-3.482,18.111,10.46,3.7,6.559Z" transform="translate(-363.712 -149.469)" fill="#263238"/><g transform="translate(50.179 123.942)"><path d="M459.271,250.48l-1.174.68-.007,19.492,1.181-.68Z" transform="translate(-441.517 -246.6)" fill="#e0e0e0"/><path d="M455.212,249.8l-6.332-3.654v19.492l6.326,3.654Z" transform="translate(-438.633 -245.243)" fill="#fafafa"/><path d="M448.871,254l2.747,1.6v3.166a.378.378,0,0,1-.563.33l-2.2-1.277Z" transform="translate(-438.623 -247.702)" opacity="0.05"/><path d="M448.88,245.84l1.174-.68,6.332,3.654-1.174.68Z" transform="translate(-438.633 -244.933)" fill="#ebebeb"/><path d="M452.706,254.4l-2.905,1.676-1.161-2.019,2.905-1.676h0a.6.6,0,0,1,.584.062,1.813,1.813,0,0,1,.817,1.422.584.584,0,0,1-.24.536Z" transform="translate(-438.558 -247.178)" fill="#e0e0e0"/><path d="M451.917,255.36l-1.051.611v-1.387l-1.126-.652,1.058-.611,1.12.652Z" transform="translate(-438.902 -247.489)" opacity="0.1"/><path d="M445.574,252.416l-.007,3.049-11.607-6.7V245.72Z" transform="translate(-433.96 -245.109)" fill="#fafafa"/><path d="M450.867,255.194l1.051-.6v3.043l-1.058.611Z" transform="translate(-439.253 -247.887)" fill="#e0e0e0"/><path d="M433.96,245.441l1.058-.611,11.607,6.7-1.051.6Z" transform="translate(-433.96 -244.83)" fill="#ebebeb"/><path d="M454.026,266.93a2.363,2.363,0,0,0-1.065-1.848c-.591-.343-1.071-.069-1.071.611a2.39,2.39,0,0,0,.646,1.5v1.992a.783.783,0,0,0,.364.618l.124.076a.221.221,0,0,0,.357-.206v-1.992C453.786,267.727,454.026,267.431,454.026,266.93Z" transform="translate(-439.575 -251.126)" fill="#455a64"/></g><path d="M373.23,83.46l21.133,12.246v79.712L373.23,163.206Z" transform="translate(-364.762 -70.349)" fill="#26aab7"/><path d="M373.23,83.46l21.133,12.246v79.712L373.23,163.206Z" transform="translate(-364.762 -70.349)" fill="#fff" opacity="0.4"/><path d="M417.82,109.26l21.209,12.2v79.719l-21.209-12.17Z" transform="translate(-378.727 -78.429)" fill="#26aab7"/><path d="M417.82,109.26l21.209,12.2v79.719l-21.209-12.17Z" transform="translate(-378.727 -78.429)" fill="#fff" opacity="0.4"/><path d="M388.683,94.035,373.23,109.489v4.059l18.022-18.022Zm-9.327-5.405-6.126,6.126v8.372L384.659,91.7Zm8.242,84.478,6.765-6.751V162.3l-9.341,9.341Zm16.264-70.33v.213l.137-.13ZM381.637,169.66l12.727-12.706V152.9l-15.3,15.3Zm27.946-63.592-5.721,5.721v4.066l8.3-8.3Zm9.615,5.495-15.3,15.3v8.372l20.6-20.6ZM373.271,133.6l21.092-21.092V101.934L373.23,123.067ZM403.9,180.436l21.209-21.209V148.685l-21.25,21.243Zm6.01,5.495,15.2-15.2v-4.059l-17.782,17.775Zm-6.051-29.052,21.209-21.223V131.6l-21.209,21.209Zm-30.625,7.96.687.4,20.446-20.467V136.4L373.23,157.566Zm46.484,26.827,5.35-5.35V177.93L414.4,188.6ZM373.23,146.515l21.133-21.147v-4.059L373.23,142.456Zm30.625-3.1v4.059l21.209-21.209v-4.073Z" transform="translate(-364.762 -71.968)" fill="#fff" opacity="0.2"/></g><path d="M466.258,319.233l-3.338,1.93V122.323l3.338-1.923Z" transform="translate(-392.851 -79.988)" fill="#263238"/><path d="M364.231,61.56l70.076,40.412-3.338,1.923L360.9,63.49Z" transform="translate(-360.9 -61.56)" fill="#37474f"/></g><path d="M359.387,262.336,356.07,264.2V61.58l3.31,1.909Z" transform="translate(-345.933 -42.129)" fill="#e0e0e0"/><path d="M351.447,256.189,341.31,250.33V36.01l90.364,52.115V302.432L421.523,296.6V93.984L351.454,53.572Z" transform="translate(-341.31 -34.121)" fill="#f5f5f5"/><path d="M342,37.2l88.991,51.326V301.248L422.21,296.2V93.589l-.343-.2L351.811,52.978l-1.03-.591V255l-8.764-5.062V37.2m-.687-1.188V250.334l10.137,5.852V53.576l70.055,40.412V296.6l10.151,5.831V88.143L341.31,36Z" transform="translate(-341.31 -34.118)" fill="#e0e0e0"/><path d="M341.31,35.149l90.364,52.115,3.255-1.889L344.565,33.26Z" transform="translate(-341.31 -33.26)" fill="#fafafa"/><path d="M472.88,325.335V111.029l3.255-1.889V323.46Z" transform="translate(-382.516 -57.025)" fill="#e0e0e0"/></g><g transform="translate(187.291 175.125)"><g transform="translate(16.833 43.452)"><path d="M293.81,337c-4.931-5.089-7.83-17.891-3.022-21.93h24.485c4.808,4.038,1.916,16.827-3.015,21.923l-.13.137-.172.172c-.137.137-.288.268-.446.4l-.117.1c-.124.1-.24.192-.371.282a6.67,6.67,0,0,1-.639.412,16.083,16.083,0,0,1-14.7,0h0a6,6,0,0,1-.646-.412l-.343-.268-.144-.117c-.158-.124-.3-.254-.433-.385l-.192-.192Z" transform="translate(-288.327 -311.032)" fill="#ebebeb"/><path d="M313.334,311.635c5.584,3.255,5.584,8.544,0,11.806s-14.65,3.262-20.234,0-5.584-8.551,0-11.806S307.743,308.373,313.334,311.635Z" transform="translate(-288.51 -309.191)" fill="#fafafa"/><path d="M312.369,314.184c4.121,2.4,4.121,6.277,0,8.674a16.244,16.244,0,0,1-14.856,0c-4.107-2.4-4.121-6.277,0-8.674A16.307,16.307,0,0,1,312.369,314.184Z" transform="translate(-290.238 -310.194)" fill="#e0e0e0"/><path d="M297.8,320.183a16.286,16.286,0,0,1,14.856,0,6.868,6.868,0,0,1,2.459,2.28,6.868,6.868,0,0,1-2.459,2.28,16.244,16.244,0,0,1-14.856,0,6.786,6.786,0,0,1-2.452-2.28A6.786,6.786,0,0,1,297.8,320.183Z" transform="translate(-290.526 -312.072)" fill="#ebebeb"/></g><path d="M300.878,264.852c-1.875,2.06-7.088,2.6-9.251-2.9-2.026-5.151-4.21-10.034-4.808-11.93a1.951,1.951,0,0,1,1.25-2.514s.151-2.83,4.945-.913a17.658,17.658,0,0,1,10.3,9.54C305.438,260.868,304.078,264.22,300.878,264.852Z" transform="translate(-270.986 -245.927)" fill="#e0e0e0"/><path d="M300.878,264.852c-1.875,2.06-7.088,2.6-9.251-2.9-2.026-5.151-4.21-10.034-4.808-11.93a1.951,1.951,0,0,1,1.25-2.514s.151-2.83,4.945-.913a17.658,17.658,0,0,1,10.3,9.54C305.438,260.868,304.078,264.22,300.878,264.852Z" transform="translate(-270.986 -245.927)" fill="#fff" opacity="0.45"/><path d="M304.889,273.289a25.006,25.006,0,0,0-.412-2.864,39.706,39.706,0,0,0-1.593-5.529,40.565,40.565,0,0,0-5.556-10.261,35.281,35.281,0,0,0-4.368-4.959c-.048-.041-.089.069-.055.1a42.424,42.424,0,0,1,10.8,20.172c.24,1.044.46,2.095.652,3.146s.309,2.15.488,3.221c0,.11.185.172.192,0A19.765,19.765,0,0,0,304.889,273.289Z" transform="translate(-272.924 -247.097)" fill="#e0e0e0"/><path d="M304.889,273.289a25.006,25.006,0,0,0-.412-2.864,39.706,39.706,0,0,0-1.593-5.529,40.565,40.565,0,0,0-5.556-10.261,35.281,35.281,0,0,0-4.368-4.959c-.048-.041-.089.069-.055.1a42.424,42.424,0,0,1,10.8,20.172c.24,1.044.46,2.095.652,3.146s.309,2.15.488,3.221c0,.11.185.172.192,0A19.765,19.765,0,0,0,304.889,273.289Z" transform="translate(-272.924 -247.097)" opacity="0.1"/><path d="M309.68,263.428c-4.313,1.332-7.514-2.06-6.4-7.3s6.648-11.133,8.736-9.56c1.312-1.3,4.19-.838,5.543,3.434S317.681,265.3,309.68,263.428Z" transform="translate(-276.107 -245.925)" fill="#e0e0e0"/><path d="M309.68,263.428c-4.313,1.332-7.514-2.06-6.4-7.3s6.648-11.133,8.736-9.56c1.312-1.3,4.19-.838,5.543,3.434S317.681,265.3,309.68,263.428Z" transform="translate(-276.107 -245.925)" fill="#fff" opacity="0.25"/><path d="M313.909,251.512a57.534,57.534,0,0,0-2.864,9.478,91.481,91.481,0,0,0-1.662,9.924,154.452,154.452,0,0,0-.865,19.444c0,1.793.034,3.585.069,5.378s0,3.716.165,5.556c.062.687,1.065.515,1.078-.13.062-3.228-.117-6.477-.151-9.7s0-6.387.062-9.581a134.118,134.118,0,0,1,1.745-19.416c.309-1.793.652-3.578,1.065-5.343s.975-3.688,1.463-5.529C314.033,251.512,313.951,251.415,313.909,251.512Z" transform="translate(-277.809 -247.662)" fill="#e0e0e0"/><path d="M313.909,251.512a57.534,57.534,0,0,0-2.864,9.478,91.481,91.481,0,0,0-1.662,9.924,154.452,154.452,0,0,0-.865,19.444c0,1.793.034,3.585.069,5.378s0,3.716.165,5.556c.062.687,1.065.515,1.078-.13.062-3.228-.117-6.477-.151-9.7s0-6.387.062-9.581a134.118,134.118,0,0,1,1.745-19.416c.309-1.793.652-3.578,1.065-5.343s.975-3.688,1.463-5.529C314.033,251.512,313.951,251.415,313.909,251.512Z" transform="translate(-277.809 -247.662)" opacity="0.1"/><path d="M296.994,285.057c-1.882,2.129-6.181,1.944-9.087-1.861s-4.636-18.1-.563-17.17c.865-1.909,12.115,2.679,13.558,12.006C301.953,284.8,296.994,285.057,296.994,285.057Z" transform="translate(-270.433 -252.087)" fill="#e0e0e0"/><path d="M296.994,285.057c-1.882,2.129-6.181,1.944-9.087-1.861s-4.636-18.1-.563-17.17c.865-1.909,12.115,2.679,13.558,12.006C301.953,284.8,296.994,285.057,296.994,285.057Z" transform="translate(-270.433 -252.087)" fill="#fff" opacity="0.25"/><path d="M302.429,293.411a19.95,19.95,0,0,0-.556-2.6,52.762,52.762,0,0,0-1.676-5.172,54.047,54.047,0,0,0-5.027-9.87,48.712,48.712,0,0,0-3.565-5.041c-.034-.041-.069.055-.048.089,1,1.463,2.019,2.912,2.926,4.444a54.993,54.993,0,0,1,2.548,4.9,68.515,68.515,0,0,1,3.716,9.979c.275.968.5,1.951.783,2.919s.687,1.985.927,3c.034.144.227.2.206,0C302.574,295.162,302.546,294.263,302.429,293.411Z" transform="translate(-272.504 -253.689)" fill="#e0e0e0"/><path d="M302.429,293.411a19.95,19.95,0,0,0-.556-2.6,52.762,52.762,0,0,0-1.676-5.172,54.047,54.047,0,0,0-5.027-9.87,48.712,48.712,0,0,0-3.565-5.041c-.034-.041-.069.055-.048.089,1,1.463,2.019,2.912,2.926,4.444a54.993,54.993,0,0,1,2.548,4.9,68.515,68.515,0,0,1,3.716,9.979c.275.968.5,1.951.783,2.919s.687,1.985.927,3c.034.144.227.2.206,0C302.574,295.162,302.546,294.263,302.429,293.411Z" transform="translate(-272.504 -253.689)" opacity="0.1"/><path d="M311.683,285.646c-2.466-.563-2.589-3.517.495-7.15s10.831-5.213,11.2-3.681c1.724,0,1.724,5.4-2.095,10.357S311.909,288.977,311.683,285.646Z" transform="translate(-278.234 -254.79)" fill="#e0e0e0"/><path d="M311.683,285.646c-2.466-.563-2.589-3.517.495-7.15s10.831-5.213,11.2-3.681c1.724,0,1.724,5.4-2.095,10.357S311.909,288.977,311.683,285.646Z" transform="translate(-278.234 -254.79)" fill="#fff" opacity="0.25"/><path d="M316.287,283.167a19.457,19.457,0,0,0-7.122,9.2c-.082.213.282.522.371.288a22.665,22.665,0,0,1,6.765-9.437S316.321,283.14,316.287,283.167Z" transform="translate(-278.016 -257.587)" fill="#e0e0e0"/><path d="M316.287,283.167a19.457,19.457,0,0,0-7.122,9.2c-.082.213.282.522.371.288a22.665,22.665,0,0,1,6.765-9.437S316.321,283.14,316.287,283.167Z" transform="translate(-278.016 -257.587)" opacity="0.1"/><path d="M315.718,315.705c-3.434,1.374-1.944,5.44,1.374,8.53a15.282,15.282,0,0,0,10.385,3.736,8.762,8.762,0,0,0,2.878-.481,26,26,0,0,0,0-5.646,10.9,10.9,0,0,0-8.043-8.654C317,311.749,315.718,313.679,315.718,315.705Z" transform="translate(-279.46 -266.835)" fill="#e0e0e0"/><path d="M315.718,315.705c-3.434,1.374-1.944,5.44,1.374,8.53a15.282,15.282,0,0,0,10.385,3.736,8.762,8.762,0,0,0,2.878-.481,26,26,0,0,0,0-5.646,10.9,10.9,0,0,0-8.043-8.654C317,311.749,315.718,313.679,315.718,315.705Z" transform="translate(-279.46 -266.835)" fill="#fff" opacity="0.45"/><path d="M323.867,322.777a27.623,27.623,0,0,0-5.22-4.808c-1.944-1.277-4.533-2.37-6.868-1.573-.9.309-2.308,1.209-2.136,2.328,0,.11.213.385.343.233a9.477,9.477,0,0,1,1.229-1.435,3.64,3.64,0,0,1,1.834-.687,8.455,8.455,0,0,1,4.808,1.085,26.739,26.739,0,0,1,6,4.938C323.861,322.853,323.888,322.8,323.867,322.777Z" transform="translate(-278.165 -267.911)" fill="#e0e0e0"/><path d="M323.867,322.777a27.623,27.623,0,0,0-5.22-4.808c-1.944-1.277-4.533-2.37-6.868-1.573-.9.309-2.308,1.209-2.136,2.328,0,.11.213.385.343.233a9.477,9.477,0,0,1,1.229-1.435,3.64,3.64,0,0,1,1.834-.687,8.455,8.455,0,0,1,4.808,1.085,26.739,26.739,0,0,1,6,4.938C323.861,322.853,323.888,322.8,323.867,322.777Z" transform="translate(-278.165 -267.911)" opacity="0.1"/><path d="M287.1,288.872c.323-1.552-1.923-5.268-8.929-5.982s-12.232,2.253-13.29,3.606-1.587,2.782-.316,3.139,5.632.776,8.5,2.1,8.7,5.22,12.679,4.059S289.074,290.418,287.1,288.872Z" transform="translate(-263.818 -257.468)" fill="#e0e0e0"/><path d="M287.1,288.872c.323-1.552-1.923-5.268-8.929-5.982s-12.232,2.253-13.29,3.606-1.587,2.782-.316,3.139,5.632.776,8.5,2.1,8.7,5.22,12.679,4.059S289.074,290.418,287.1,288.872Z" transform="translate(-263.818 -257.468)" fill="#fff" opacity="0.45"/><path d="M295.023,295.919C292.07,289.827,284.467,288,278.231,288a24.349,24.349,0,0,0-6.058.783s-.034.076,0,.076a32.088,32.088,0,0,1,10.124-.1,21.017,21.017,0,0,1,9.251,3.565,12.555,12.555,0,0,1,3.3,3.709C294.968,296.187,295.078,296.049,295.023,295.919Z" transform="translate(-266.43 -259.102)" fill="#e0e0e0"/><path d="M295.023,295.919C292.07,289.827,284.467,288,278.231,288a24.349,24.349,0,0,0-6.058.783s-.034.076,0,.076a32.088,32.088,0,0,1,10.124-.1,21.017,21.017,0,0,1,9.251,3.565,12.555,12.555,0,0,1,3.3,3.709C294.968,296.187,295.078,296.049,295.023,295.919Z" transform="translate(-266.43 -259.102)" opacity="0.1"/><path d="M320.127,274.644c-.089,2.445,3.352,3.867,6.683,1.751s6.82-4.176,9.911-4.973,4.547-3.317,3.571-4.533-2.527-4.293-10.639-3.29-10.989,4.663-12.1,7.246S318.9,275.351,320.127,274.644Z" transform="translate(-280.559 -251.399)" fill="#e0e0e0"/><path d="M320.127,274.644c-.089,2.445,3.352,3.867,6.683,1.751s6.82-4.176,9.911-4.973,4.547-3.317,3.571-4.533-2.527-4.293-10.639-3.29-10.989,4.663-12.1,7.246S318.9,275.351,320.127,274.644Z" transform="translate(-280.559 -251.399)" fill="#fff" opacity="0.45"/><path d="M334.477,268.451a8.7,8.7,0,0,0-3.482.364,17.125,17.125,0,0,0-2.981,1.065,16.574,16.574,0,0,0-5.076,3.674,13.674,13.674,0,0,0-1.14,1.374,5.818,5.818,0,0,0-.872,1.422c-.055.158.185.419.323.254.405-.46.687-1.03,1.085-1.518a15.837,15.837,0,0,1,1.3-1.49,16.422,16.422,0,0,1,3.125-2.466,19.184,19.184,0,0,1,3.434-1.683c.687-.24,1.339-.44,2.019-.611a7.082,7.082,0,0,1,2.212-.3C334.491,268.54,334.512,268.451,334.477,268.451Z" transform="translate(-281.701 -252.966)" fill="#e0e0e0"/><path d="M334.477,268.451a8.7,8.7,0,0,0-3.482.364,17.125,17.125,0,0,0-2.981,1.065,16.574,16.574,0,0,0-5.076,3.674,13.674,13.674,0,0,0-1.14,1.374,5.818,5.818,0,0,0-.872,1.422c-.055.158.185.419.323.254.405-.46.687-1.03,1.085-1.518a15.837,15.837,0,0,1,1.3-1.49,16.422,16.422,0,0,1,3.125-2.466,19.184,19.184,0,0,1,3.434-1.683c.687-.24,1.339-.44,2.019-.611a7.082,7.082,0,0,1,2.212-.3C334.491,268.54,334.512,268.451,334.477,268.451Z" transform="translate(-281.701 -252.966)" opacity="0.1"/><path d="M310.228,298.723c-1.14-1.14-4.224-.872-5.687,2.486s1.607,7.04,1.951,8.07c1.408-.81,2.507-.33,4.986-.81a6.181,6.181,0,0,0,4.76-6.181C316.038,299.2,314.74,297.17,310.228,298.723Z" transform="translate(-276.449 -262.27)" fill="#e0e0e0"/><path d="M310.228,298.723c-1.14-1.14-4.224-.872-5.687,2.486s1.607,7.04,1.951,8.07c1.408-.81,2.507-.33,4.986-.81a6.181,6.181,0,0,0,4.76-6.181C316.038,299.2,314.74,297.17,310.228,298.723Z" transform="translate(-276.449 -262.27)" fill="#fff" opacity="0.45"/><path d="M311.507,298.492A4.621,4.621,0,0,0,310,300.051a8.736,8.736,0,0,0-.975,1.882,7.981,7.981,0,0,0-.426,4.279c0,.055.055,0,.048,0a8.846,8.846,0,0,1,.687-4.231,8.51,8.51,0,0,1,1.023-1.7,7.625,7.625,0,0,1,.687-.8,4.507,4.507,0,0,0,.652-.687C311.81,298.684,311.679,298.4,311.507,298.492Z" transform="translate(-277.804 -262.383)" fill="#e0e0e0"/><path d="M311.507,298.492A4.621,4.621,0,0,0,310,300.051a8.736,8.736,0,0,0-.975,1.882,7.981,7.981,0,0,0-.426,4.279c0,.055.055,0,.048,0a8.846,8.846,0,0,1,.687-4.231,8.51,8.51,0,0,1,1.023-1.7,7.625,7.625,0,0,1,.687-.8,4.507,4.507,0,0,0,.652-.687C311.81,298.684,311.679,298.4,311.507,298.492Z" transform="translate(-277.804 -262.383)" opacity="0.1"/><path d="M295.569,306.115c-.1-2.5-2.816-4.478-6.676-5.625a10.5,10.5,0,0,0-10.838,2.878c-2.816,3.063-4.272,5.666-3.125,6.4a69.123,69.123,0,0,0,9.615,3.647c3.365,1.044,7.713,1.374,11.051-.625S298.694,307.365,295.569,306.115Z" transform="translate(-267.175 -262.863)" fill="#e0e0e0"/><path d="M295.569,306.115c-.1-2.5-2.816-4.478-6.676-5.625a10.5,10.5,0,0,0-10.838,2.878c-2.816,3.063-4.272,5.666-3.125,6.4a69.123,69.123,0,0,0,9.615,3.647c3.365,1.044,7.713,1.374,11.051-.625S298.694,307.365,295.569,306.115Z" transform="translate(-267.175 -262.863)" fill="#fff" opacity="0.25"/><path d="M297.729,307.94a10.646,10.646,0,0,0-4.19-1.12,19.479,19.479,0,0,0-4.2.055,26.043,26.043,0,0,0-4.348.92c-.742.213-1.477.46-2.2.728a14.021,14.021,0,0,0-2.019.831s-.041.1,0,.082c.687-.144,1.374-.419,2.06-.632s1.49-.446,2.246-.646a29.183,29.183,0,0,1,4.279-.81,19.231,19.231,0,0,1,4.354,0,26.1,26.1,0,0,1,3.949.968C297.963,308.407,297.88,308.029,297.729,307.94Z" transform="translate(-269.122 -264.969)" fill="#e0e0e0"/><path d="M297.729,307.94a10.646,10.646,0,0,0-4.19-1.12,19.479,19.479,0,0,0-4.2.055,26.043,26.043,0,0,0-4.348.92c-.742.213-1.477.46-2.2.728a14.021,14.021,0,0,0-2.019.831s-.041.1,0,.082c.687-.144,1.374-.419,2.06-.632s1.49-.446,2.246-.646a29.183,29.183,0,0,1,4.279-.81,19.231,19.231,0,0,1,4.354,0,26.1,26.1,0,0,1,3.949.968C297.963,308.407,297.88,308.029,297.729,307.94Z" transform="translate(-269.122 -264.969)" opacity="0.1"/><path d="M316.125,299.947c-2.747-2.191-1.834-7.445,7.816-7.727s16.538,2.239,16.229,5.343c1.552,1.552.769,5.9-7.047,7.26S314.14,305.5,316.125,299.947Z" transform="translate(-279.778 -260.417)" fill="#e0e0e0"/><path d="M316.125,299.947c-2.747-2.191-1.834-7.445,7.816-7.727s16.538,2.239,16.229,5.343c1.552,1.552.769,5.9-7.047,7.26S314.14,305.5,316.125,299.947Z" transform="translate(-279.778 -260.417)" fill="#fff" opacity="0.25"/><path d="M336.059,299.811a41.108,41.108,0,0,0-8.62-.5,32.968,32.968,0,0,0-7.96.914,11.6,11.6,0,0,0-1.944.687,8.34,8.34,0,0,0-.845.453c-.22.13-.46.247-.543.5a.261.261,0,0,0,.288.309,10.732,10.732,0,0,0,1.69-.838,12.716,12.716,0,0,1,1.669-.6,20.525,20.525,0,0,1,3.352-.687,60.811,60.811,0,0,1,8.139-.446c1.587,0,3.166.144,4.753.268C336.093,299.927,336.107,299.817,336.059,299.811Z" transform="translate(-280.206 -262.63)" fill="#e0e0e0"/><path d="M336.059,299.811a41.108,41.108,0,0,0-8.62-.5,32.968,32.968,0,0,0-7.96.914,11.6,11.6,0,0,0-1.944.687,8.34,8.34,0,0,0-.845.453c-.22.13-.46.247-.543.5a.261.261,0,0,0,.288.309,10.732,10.732,0,0,0,1.69-.838,12.716,12.716,0,0,1,1.669-.6,20.525,20.525,0,0,1,3.352-.687,60.811,60.811,0,0,1,8.139-.446c1.587,0,3.166.144,4.753.268C336.093,299.927,336.107,299.817,336.059,299.811Z" transform="translate(-280.206 -262.63)" opacity="0.1"/></g><g transform="translate(19.466 133.259)"><g transform="translate(56.142 0)"><path d="M176.563,318.167a.927.927,0,0,1-.687-.3L141.35,281.34l-34.464,36.4a.945.945,0,1,1-1.374-1.3l35.151-37.088a.955.955,0,0,1,.687-.3h0a.955.955,0,0,1,.687.3l35.206,37.26a.934.934,0,0,1,0,1.326A.955.955,0,0,1,176.563,318.167Z" transform="translate(-102.476 -214.437)" fill="#263238"/><path d="M157.381,347.86a.941.941,0,0,1-.941-.941V286.411a.941.941,0,1,1,1.882,0v60.508A.941.941,0,0,1,157.381,347.86Z" transform="translate(-118.507 -216.445)" fill="#37474f"/><path d="M203.417,321.959a.941.941,0,0,1-.872-.591L183.966,274.4a.941.941,0,1,1,1.751-.687l18.544,46.964a.948.948,0,0,1-.536,1.223A.983.983,0,0,1,203.417,321.959Z" transform="translate(-127.104 -212.569)" fill="#37474f"/><path d="M102.873,321.932a1.037,1.037,0,0,1-.343-.062.948.948,0,0,1-.529-1.223l18.544-46.964a.941.941,0,1,1,1.744.687l-18.544,46.964a.948.948,0,0,1-.872.6Z" transform="translate(-101.437 -212.542)" fill="#37474f"/><path d="M209.558,333.92l2.452,6.47a.686.686,0,0,1,0,.165.371.371,0,0,1,0,.124.755.755,0,0,1-.371.405,1.628,1.628,0,0,1-1.49,0,.632.632,0,0,1-.288-.3h0v-.089l-2.28-6.071Z" transform="translate(-134.523 -231.618)" fill="#e0e0e0"/><path d="M104.049,333.92l-2.452,6.47a.46.46,0,0,0,0,.165v.124a.817.817,0,0,0,.371.405,1.628,1.628,0,0,0,1.49,0,.687.687,0,0,0,.3-.3h0v-.089l2.273-6.071Z" transform="translate(-101.328 -231.618)" fill="#e0e0e0"/><path d="M158.4,368v5.357a.536.536,0,0,1-.316.44,1.676,1.676,0,0,1-1.532,0,.543.543,0,0,1-.323-.44V368A2.294,2.294,0,0,1,158.4,368Z" transform="translate(-118.441 -242.205)" fill="#e0e0e0"/><path d="M175.331,249.654c0-1.3-1.154-2.713-3.585-4.286-4.492-2.919-20.728-12.363-27.019-15.872a.062.062,0,0,0-.055-.048c-4.842-2.94-7.672-25.488-11.023-36.113a19.669,19.669,0,0,0-.687-1.957c0-.048-.041-.1-.055-.144s-.13-.282-.192-.433-.069-.144-.1-.213h0a10.2,10.2,0,0,0-2.239-3.228,4.471,4.471,0,0,0-1.092-.776l-1.978-1.106c-3.29-1.971-11.051,2.218-16.429,5.165-3.345,1.834-6.181,4.011-7.933,8.07h0a23.585,23.585,0,0,0-1.662,7.308c-.474,5.6,1.374,26.319,2.479,34.43h0c1.641,13.558,3.668,13.578,6.6,15.845,5.055,3.908,19.588,11.559,24.389,13.448,8.7,3.434,15.8-1.854,21.106-4.471a198.325,198.325,0,0,0,17.5-10.151c1.319-.962,2.012-1.937,2-2.967C175.324,251.749,175.331,250.087,175.331,249.654Z" transform="translate(-101.209 -184.969)" fill="#e0e0e0"/><path d="M159.007,282.185a198.3,198.3,0,0,0,17.5-10.151c3.015-2.191,2.747-4.43-1.587-7.232-6-3.894-30.474-17.782-30.474-17.782s-34.4,20.089-33.063,23.462,20.481,13.8,26.518,16.174C146.6,290.076,153.691,284.781,159.007,282.185Z" transform="translate(-104.384 -204.403)" fill="#f5f5f5"/><path d="M130.039,186.59c-3.255-1.7-10.941,2.445-16.181,5.316-3.352,1.841-6.181,4.018-7.946,8.091l-2.212-1.264c1.738-4.059,4.588-6.236,7.933-8.07,5.378-2.946,13.139-7.136,16.429-5.165Z" transform="translate(-101.989 -184.975)" fill="#f5f5f5"/><path d="M134.62,193.8c-.076-.227-1.2-4.121-3.3-5.975a5.268,5.268,0,0,0-3.558-1.374c-2.843,0-9.712,3.709-13.736,5.9l-.989.563-.371.22-.44.282-.33.213a18.277,18.277,0,0,0-2.012,1.532c-.1.089-.206.179-.3.275a14.472,14.472,0,0,0-1.147,1.188l-.192.227-.227.282-.22.288-.213.3a13.848,13.848,0,0,0-.8,1.277l-.1.172a3.628,3.628,0,0,0-.185.364c-.089.179-.179.357-.261.536a23.1,23.1,0,0,0-1.813,7.658c-.776,9.21,2.294,42.2,5.495,44.822,0,0,.687-2.747,5.879-6.985a114.938,114.938,0,0,1,16.01-10.659c10.577-5.962,13.826-5.021,13.826-5.021C140.8,226.972,137.972,204.424,134.62,193.8Z" transform="translate(-102.181 -185.433)" fill="#ebebeb"/></g><g transform="translate(0 32.977)"><path d="M94.837,366.227a.962.962,0,0,1-.687-.3L59.624,329.393l-34.457,36.4a.943.943,0,1,1-1.374-1.291l35.144-37.088a.927.927,0,0,1,.687-.3h0a.927.927,0,0,1,.687.3l35.213,37.26a.948.948,0,0,1-.687,1.587Z" transform="translate(-20.741 -262.466)" fill="#263238"/><path d="M75.661,395.9a.941.941,0,0,1-.941-.921V334.471a.941.941,0,0,1,1.882,0v60.508A.941.941,0,0,1,75.661,395.9Z" transform="translate(-36.771 -264.473)" fill="#37474f"/><path d="M121.713,370a.941.941,0,0,1-.879-.6L102.29,322.436a.937.937,0,0,1,1.745-.687l18.544,46.964a.934.934,0,0,1-.529,1.216.9.9,0,0,1-.337.069Z" transform="translate(-45.385 -260.598)" fill="#37474f"/><path d="M21.15,370.007a.851.851,0,0,1-.343-.069.941.941,0,0,1-.536-1.216l18.544-46.964a.941.941,0,0,1,1.751.687L22.022,369.409a.941.941,0,0,1-.872.6Z" transform="translate(-19.699 -260.606)" fill="#37474f"/><path d="M127.831,382l2.452,6.47a.46.46,0,0,1,0,.165v.117a.8.8,0,0,1-.371.412,1.641,1.641,0,0,1-1.5,0,.687.687,0,0,1-.288-.309h0v-.089l-2.266-6.078Z" transform="translate(-52.787 -279.653)" fill="#e0e0e0"/><path d="M22.32,382l-2.452,6.47a.687.687,0,0,0,0,.165.337.337,0,0,0,0,.117.742.742,0,0,0,.371.412,1.628,1.628,0,0,0,1.49,0,.639.639,0,0,0,.288-.309h0v-.089l2.28-6.078Z" transform="translate(-19.59 -279.653)" fill="#e0e0e0"/><path d="M76.68,416.026v5.35a.543.543,0,0,1-.323.446,1.717,1.717,0,0,1-1.532,0,.536.536,0,0,1-.316-.446v-5.35A2.294,2.294,0,0,1,76.68,416.026Z" transform="translate(-36.705 -290.224)" fill="#e0e0e0"/><path d="M93.6,297.682c0-1.3-1.154-2.713-3.592-4.286-4.492-2.919-20.728-12.363-27.019-15.872a.069.069,0,0,0-.055-.055c-4.808-2.933-7.672-25.481-11.023-36.106a20.708,20.708,0,0,0-.687-1.957l-.062-.144-.192-.433c0-.069-.062-.144-.1-.213h0a10.227,10.227,0,0,0-2.239-3.235,5.069,5.069,0,0,0-1.1-.769c-.543-.309-1.69-.941-1.971-1.113-3.29-1.964-11.058,2.225-16.429,5.172-3.345,1.834-6.181,4.011-7.933,8.07h0a23.392,23.392,0,0,0-1.662,7.308c-.481,5.6,1.374,26.319,2.479,34.43h0c1.648,13.558,3.668,13.585,6.607,15.852,5.055,3.908,19.581,11.559,24.382,13.448,8.7,3.434,15.8-1.854,21.113-4.478a197.529,197.529,0,0,0,17.493-10.144c1.326-.962,2.012-1.937,2-2.967C93.59,299.777,93.6,298.115,93.6,297.682Z" transform="translate(-19.466 -232.987)" fill="#e0e0e0"/><path d="M77.273,330.208a199.262,199.262,0,0,0,17.493-10.144c3.015-2.191,2.747-4.43-1.587-7.232-6-3.894-30.474-17.782-30.474-17.782S28.33,315.139,29.663,318.5s20.481,13.8,26.511,16.181C64.91,338.106,71.984,332.832,77.273,330.208Z" transform="translate(-22.648 -252.422)" fill="#f5f5f5"/><path d="M48.319,234.609c-3.255-1.71-10.941,2.445-16.174,5.316-3.359,1.834-6.216,4.018-7.946,8.091L22,246.731c1.738-4.059,4.588-6.236,7.933-8.07,5.371-2.946,13.139-7.136,16.429-5.172C46.629,233.682,47.776,234.3,48.319,234.609Z" transform="translate(-20.26 -232.984)" fill="#f5f5f5"/><path d="M52.887,241.826c-.069-.227-1.188-4.121-3.29-5.982a5.357,5.357,0,0,0-3.565-1.374c-2.843,0-9.712,3.709-13.736,5.9-.337.185-.687.371-.989.563-.13.069-.254.144-.378.22l-.44.282a3.271,3.271,0,0,0-.323.213,18.97,18.97,0,0,0-2.019,1.525c-.1.089-.2.179-.3.282a13.385,13.385,0,0,0-1.14,1.188l-.192.227c-.076.089-.158.185-.227.282s-.144.192-.22.288-.144.192-.213.3a14.02,14.02,0,0,0-.8,1.284,1.373,1.373,0,0,0-.1.172l-.185.357c-.089.179-.172.364-.261.543a23.015,23.015,0,0,0-1.813,7.658c-.776,9.21,2.294,42.2,5.495,44.822,0,0,.687-2.747,5.886-6.985A113.929,113.929,0,0,1,50.1,282.938c10.57-5.962,13.819-5.027,13.819-5.027C59.075,275,56.239,252.451,52.887,241.826Z" transform="translate(-20.439 -233.449)" fill="#ebebeb"/></g></g><g transform="translate(68.593 261.886)"><ellipse cx="56.518" cy="32.631" rx="56.518" ry="32.631" transform="translate(51.453 0)" fill="#e0e0e0"/><path d="M110.085,430.665,93.21,420.919c-2.953-1.7-2.953-4.464,0-6.181l51.957-30a11.814,11.814,0,0,1,10.687,0l16.875,9.76c2.953,1.7,2.953,4.464,0,6.181l-51.957,30a11.813,11.813,0,0,1-10.687-.014Z" transform="translate(-90.995 -375.761)" fill="#e0e0e0"/></g><g transform="translate(65.149 202.018)"><g transform="translate(0)"><path d="M161.373,301.473l-12.919-7.459h-.048l-.1-.055h0c-6.374-3.613-15.11-3.056-24.815,2.534-19.478,11.2-35.275,38.578-35.275,61.065,0,11.181,3.908,19.045,10.22,22.761h0l.1.055h.048l12.919,7.459,2.246-5.9a37.5,37.5,0,0,0,9.753-4.045C142.98,366.645,158.77,339.3,158.77,316.8a37.7,37.7,0,0,0-1.374-10.391Z" transform="translate(-86.682 -287.147)" fill="#1565c0"/><path d="M161.373,301.473l-12.919-7.459h-.048l-.1-.055h0c-6.374-3.613-15.11-3.056-24.815,2.534-19.478,11.2-35.275,38.578-35.275,61.065,0,11.181,3.908,19.045,10.22,22.761h0l.1.055h.048l12.919,7.459,2.246-5.9a37.5,37.5,0,0,0,9.753-4.045C142.98,366.645,158.77,339.3,158.77,316.8a37.7,37.7,0,0,0-1.374-10.391Z" transform="translate(-86.899 -287.147)" fill="#fff" opacity="0.4"/><path d="M88.529,379.6a53.465,53.465,0,0,0-.309,5.495c0,11.181,3.908,19.045,10.22,22.761h0l.1.055h.048l12.919,7.459,2.246-5.9c.728-.185,1.47-.4,2.225-.646l3.331-11.5Z" transform="translate(-86.682 -314.683)" fill="#26aab7" opacity="0.4"/><ellipse cx="49.876" cy="28.798" rx="49.876" ry="28.798" transform="translate(0 86.389) rotate(-60)" fill="#1565c0"/><path d="M129.29,390.7c-8.75,0-13.97-7.342-13.97-19.629,0-20.343,14.883-46.12,32.493-56.284,4.622-2.665,9.107-4.073,12.981-4.073,8.75,0,13.97,7.335,13.97,19.629,0,20.337-14.883,46.113-32.493,56.284C137.655,389.288,133.163,390.7,129.29,390.7Z" transform="translate(-95.169 -293.108)" fill="#1565c0"/><path d="M129.29,390.7c-8.75,0-13.97-7.342-13.97-19.629,0-20.343,14.883-46.12,32.493-56.284,4.622-2.665,9.107-4.073,12.981-4.073,8.75,0,13.97,7.335,13.97,19.629,0,20.337-14.883,46.113-32.493,56.284C137.655,389.288,133.163,390.7,129.29,390.7Z" transform="translate(-95.169 -293.108)" opacity="0.15"/><path d="M171.515,328.409c0-7.83-2.122-13.633-5.92-16.827a13.008,13.008,0,0,0-4.808-.872c-3.874,0-8.359,1.408-12.981,4.073-17.6,10.165-32.486,35.962-32.486,56.284,0,7.823,2.122,13.633,5.92,16.827a13.209,13.209,0,0,0,4.808.872h0c3.874,0,8.359-1.408,12.974-4.073C156.639,374.522,171.515,348.746,171.515,328.409Z" transform="translate(-96.041 -293.108)" fill="#fafafa"/><path d="M165.159,360.4a1.525,1.525,0,0,1-.549-.1l-14.08-5.419,14.059-26.367a1.538,1.538,0,1,1,2.713,1.442l-12.363,23.3,10.776,4.155a1.538,1.538,0,0,1-.556,2.974Z" transform="translate(-106.196 -298.405)" fill="#37474f"/><path d="M151.577,368.972a11.113,11.113,0,0,0,5.027-8.709c0-3.207-2.253-4.505-5.027-2.905a11.12,11.12,0,0,0-5.027,8.716C146.55,369.26,148.8,370.579,151.577,368.972Z" transform="translate(-104.95 -307.503)" fill="#455a64"/><path d="M153.529,407.41c-.412.24-.749,0-.749-.488V401a1.717,1.717,0,0,1,.749-1.374c.412-.234.749,0,.749.495v5.913A1.71,1.71,0,0,1,153.529,407.41Z" transform="translate(-106.901 -320.927)" fill="#1565c0"/><path d="M153.442,332.027c-.412.24-.742,0-.742-.488v-5.927a1.71,1.71,0,0,1,.742-1.374c.412-.233.749,0,.749.495v5.92a1.717,1.717,0,0,1-.749,1.374Z" transform="translate(-106.876 -297.316)" fill="#1565c0"/><path d="M117.32,387.126a1.7,1.7,0,0,1,.8-1.319l5.158-2.96c.446-.254.8-.076.8.4a1.717,1.717,0,0,1-.8,1.319l-5.124,2.96C117.67,387.785,117.313,387.607,117.32,387.126Z" transform="translate(-95.796 -315.664)" fill="#1565c0"/><path d="M182.24,349.553a1.717,1.717,0,0,1,.8-1.319l5.13-2.967c.44-.254.8-.076.79.405a1.7,1.7,0,0,1-.8,1.319l-5.124,2.96C182.6,350.206,182.24,350.027,182.24,349.553Z" transform="translate(-116.128 -303.895)" fill="#1565c0"/></g></g><g transform="translate(132.61 65.279)"><g transform="translate(0 0)"><g transform="translate(10.572 81.806)"><path d="M205.393,340.274c.687-9.313-.44-19.547.33-34.08h0c.069-3.723.206-7.713.453-11.264.845-11.923,2.685-16,2.85-18.3,0,0,.907-22.864,1.683-48.963.371-12.28,3.929-16,6.772-22.514h33.791c3.777,16.078,4.849,51.154,4.739,67.727-.062,8.448-3.468,53.654-3.537,54.691-.24,3.688.082,5.144,1.525,6.7,3.029,3.249,7.418,6.346,11.209,9.176-.549,1.449-5.11,1.374-7.37.3a57.466,57.466,0,0,1-8.434-5.371c-3.118-2.308-7.1-4.162-7.157-7.672a3.264,3.264,0,0,0-.1-.625c-.055-2.06-4.808-32.28-5.234-39.306-.343-6.037.391-16.271.391-16.271l-3.894-25.556s-2.988,19.4-5.412,29.718c-1.978,8.393-5.24,22.72-7.459,33.049h0c-2.136,11.909-5.206,23.475-5.749,29.437-.158,1.422-1.772,15.385-2.438,18.585s-7.589,3.29-8.07-2.2C203.985,353.845,205.269,342.025,205.393,340.274Z" transform="translate(-201.049 -205.116)" fill="#9e6767"/><path d="M288.215,408.424a3.009,3.009,0,0,1-.529,3.036,12.929,12.929,0,0,1-9.43,2.253c-4.7-.556-7.253-1.978-9.148-3.53s-4.547-3.743-6.676-4.183a12.955,12.955,0,0,1-4.766-1.889c-.646-.6-.577-3.31-.577-3.31Z" transform="translate(-217.601 -266.39)" fill="#263238"/><path d="M258.617,385.58s-.357,0-.467.646c-.137.749-.268,2.919-.57,4.121a22.1,22.1,0,0,0-.391,6.587c.275,1.374,3.5,2.315,5.563,3.077a26.154,26.154,0,0,1,6.7,4.121,19.286,19.286,0,0,0,9.938,3.585c4.67,0,7.679-1.284,8.6-2.967,1.133-2.06.213-3.283-5.179-5.714-1.023-.46-4.609-2.527-5.831-3.283a27.684,27.684,0,0,1-3.681-2.679,20.231,20.231,0,0,1-1.655-1.6,7.365,7.365,0,0,1-1.374-1.724c-.062-.137-.1-.3-.158-.453a7.235,7.235,0,0,1-.364-1.25c-.089-.446-.151-1.092-.584-1.374a3.558,3.558,0,0,0-1.916-.206,15.016,15.016,0,0,0-2.06.316c-.79.185-1.7.268-2.157,1.01a3.9,3.9,0,0,0-.426,1.951v.941c0,.137.062.378-.124.323s-.385-.515-.453-.687c-.151-.343-.254-.721-.419-1.065a5.851,5.851,0,0,0-.687-1.126,5.075,5.075,0,0,0-.859-.859,8.46,8.46,0,0,1-.927-.584,2.177,2.177,0,0,1-.515-1.106Z" transform="translate(-217.605 -261.624)" fill="#37474f"/><path d="M291.65,405.81c-6.758.536-8.839,4.732-9.1,7.315a15.983,15.983,0,0,0,4.808.962c4.67,0,7.871-1.284,8.791-2.967C297.213,409.148,296.458,407.575,291.65,405.81Z" transform="translate(-225.576 -267.96)" fill="#fafafa"/><path d="M280.9,404.685a.309.309,0,0,1-.213-.069.33.33,0,0,1-.048-.467,7.933,7.933,0,0,1,6.078-2.473.345.345,0,0,1-.062.687,7.349,7.349,0,0,0-5.495,2.225A.323.323,0,0,1,280.9,404.685Z" transform="translate(-224.953 -266.663)" fill="#f0f0f0"/><path d="M276.629,402.265a.323.323,0,0,1-.206-.069.337.337,0,0,1-.055-.467,7.926,7.926,0,0,1,6.085-2.473.33.33,0,1,1-.062.653,7.37,7.37,0,0,0-5.495,2.232A.316.316,0,0,1,276.629,402.265Z" transform="translate(-223.618 -265.905)" fill="#f0f0f0"/><path d="M272.676,399.485a.343.343,0,0,1-.213-.069.337.337,0,0,1-.055-.467,7.96,7.96,0,0,1,6.085-2.473.33.33,0,0,1,.3.357.323.323,0,0,1-.364.3,7.383,7.383,0,0,0-5.495,2.232A.309.309,0,0,1,272.676,399.485Z" transform="translate(-222.378 -265.035)" fill="#f0f0f0"/><path d="M268.847,396.678a.323.323,0,0,1-.206-.069.33.33,0,0,1-.062-.46,8.125,8.125,0,0,1,6.648-2.514.345.345,0,1,1-.062.687,7.525,7.525,0,0,0-6.065,2.266.316.316,0,0,1-.254.089Z" transform="translate(-221.18 -264.137)" fill="#f0f0f0"/><path d="M213.1,432.346c-.185,3.187-.687,5.3-1.813,7.17a4.7,4.7,0,0,1-5.426,1.909c-2.163-.543-4.924-2.012-5.549-4.76a17.39,17.39,0,0,1-.488-7.6Z" transform="translate(-199.596 -275.244)" fill="#263238"/><path d="M204.052,400.23c-.886.069-1.154,4.348-1.662,8.633-.549,4.595-1.923,6.5-2.418,10.261-.563,4.306.151,6.223,1.662,8.826s6.868,5.158,9.471,1.429c2.143-3.036,2.232-6.408,2.06-10.7a93.874,93.874,0,0,1,.288-10.893c.172-3.221.886-6.47.11-6.827-.062.474-.117,1.071-.179,1.538a7.61,7.61,0,0,1-.288,1.717c-.089.24-.288.495-.371.1a2.623,2.623,0,0,1,0-.8c.13-1.188-.467-1.284-.79-1.374a38.237,38.237,0,0,0-4.121-.584c-.687-.048-3.029-.151-3.338.24a2.637,2.637,0,0,0-.3,1.243c-.076.646-.227,1.119-.247.913-.041-.46.048-1.669.062-1.957s.055-.687.062-.941S204.052,400.5,204.052,400.23Z" transform="translate(-199.654 -266.212)" fill="#37474f"/><path d="M199.718,430.778a10.735,10.735,0,0,0,1.669,6.538c1.5,2.6,7.273,5.165,9.9,1.435a12.178,12.178,0,0,0,1.841-6.284C211.579,429.6,202.2,428.333,199.718,430.778Z" transform="translate(-199.626 -275.373)" fill="#fafafa"/><path d="M212.457,426.209a.321.321,0,0,1-.11,0,15.316,15.316,0,0,0-8.166-.8.33.33,0,1,1-.151-.639,15.51,15.51,0,0,1,8.606.838.33.33,0,0,1,.151.44A.323.323,0,0,1,212.457,426.209Z" transform="translate(-200.896 -273.805)" fill="#f0f0f0"/><path d="M204.534,420.651a.33.33,0,0,1-.282-.227.337.337,0,0,1,.206-.419c4-1.374,8.427.687,8.592.762a.337.337,0,0,1-.309.591c-.034,0-4.354-1.992-8.07-.728A.3.3,0,0,1,204.534,420.651Z" transform="translate(-201.049 -272.258)" fill="#f0f0f0"/><path d="M204.742,416.2a.337.337,0,0,1-.282-.213.33.33,0,0,1,.2-.426,11.653,11.653,0,0,1,8.75.742.33.33,0,0,1-.343.563c-.034,0-4.121-2.143-8.18-.687A.357.357,0,0,1,204.742,416.2Z" transform="translate(-201.113 -270.838)" fill="#f0f0f0"/><path d="M205.055,411.886a.35.35,0,0,1-.275-.213.33.33,0,0,1,.192-.426c4.121-1.538,8.64.735,8.812.831a.337.337,0,0,1,.124.453.33.33,0,0,1-.453.117c-.041,0-4.43-2.218-8.242-.783A.384.384,0,0,1,205.055,411.886Z" transform="translate(-201.213 -269.495)" fill="#ebebeb"/><path d="M214.2,205.134c-3.716,9.148-4.993,14.348-5.4,36.058s-.364,31.113-.453,33.729-1.607,7.294-2.946,20.192-.11,27.988-.11,27.988,1.277,2.342,6.181,2.747c4.547.412,6.8-1.3,6.8-1.3s6.236-25.11,7.967-32.871,7.321-37.6,7.321-37.6l2.974,20.707s-1.374,7.115,0,18.427,3.832,22.885,3.832,22.885a20.53,20.53,0,0,0,6.985,1.147,11.813,11.813,0,0,0,6.133-1.607s3.86-33.654,3.86-46.456-.158-45.11-4.2-64.08Z" transform="translate(-201.22 -205.1)" fill="#455a64"/><path d="M231.179,310.513s-1.957-2.83-6.765-3.434-7.3,2.026-7.3,2.026S226.034,308.191,231.179,310.513Zm-14.609.515c6.181,1.229,9.025.975,11.854.412C228.424,311.44,219.51,310.314,216.57,311.028Z" transform="translate(-204.912 -237.01)" fill="#9e6767"/><path d="M275.586,302.635l.041-1.374c-4.121-.549-10.735.79-12.507,1.806a60.769,60.769,0,0,1,12.466-.433Zm-9.526,2.026a66.821,66.821,0,0,0,9.382,1.078l.069-1.3s-4.725-.144-9.451.227Z" transform="translate(-219.491 -235.176)" fill="#9e6767"/><path d="M207.148,325.894a4.813,4.813,0,0,0,.687.433c-1.257-20.261,1.264-31.9,2.94-39.65.165-.749.316-1.456.46-2.129,1.271-6.065,1.841-18.235,1.82-28.2v-9.4c0-3.853.144-7.843.46-11.786,7.067-.845,8.6-7.823,10.529-16.628q.391-1.813.831-3.729l-.625-.144c-.3,1.277-.57,2.527-.838,3.736-1.93,8.826-3.352,15.234-9.842,16.092.769-8.929,2.617-17.644,7.012-23.922l-.522-.371c-6.545,9.341-7.555,23.819-7.651,36.745v9.4c0,9.931-.549,22.074-1.806,28.07l-.453,2.122C208.46,294.266,205.953,305.832,207.148,325.894Zm31.147-94.835-4.059,24.65,2.974,20.707-.391-20.117,2.747-15.282c.1,1.518.213,3.077.316,4.663.9,13.1,1.909,27.953,1.229,31.078-1.882,8.565-1.332,13.97-.33,23.784.1,1,.213,2.06.323,3.132.549,5.543,1.161,10.989,1.573,14.554l.687.151c-.412-3.558-1.037-9.107-1.6-14.767-.11-1.1-.213-2.136-.316-3.132-1-9.746-1.545-15.11.309-23.585.687-3.214-.268-17.473-1.209-31.257-.172-2.507-.337-4.924-.488-7.232l.783-4.341c3.091-.742,9.9-4.334,10.8-8.6-4.78,4.979-13.352,5.591-13.352,5.591Z" transform="translate(-201.864 -206.697)" fill="#37474f"/></g><path d="M302.05,189.435c-.515-.282-1.484.57-2.747,1.772a2.9,2.9,0,0,0-.907,2.335,3.908,3.908,0,0,0,2.253-1.3A6.937,6.937,0,0,0,302.05,189.435Z" transform="translate(-219.964 -118.371)" fill="#263238"/><path d="M307.8,202.29c-.495-.158-.687-.371,0-1.01S310.75,199,310.75,199l.57.962S308.655,202.482,307.8,202.29Z" transform="translate(-222.771 -121.383)"/><path d="M308.591,171.658c-.323-1.415-1.875-2.459-4.677-4.018h0l-.076-.041-.391-.22h0c-4.65-2.376-27.528-12.727-31.229-14.148a31.539,31.539,0,0,0-8.887-2.3l5.13,18.056s17,5.323,24.039,7.486c-1.93,2.287-3.819,4.5-5.556,5.3l6.868,5.817c1.525-2.356,10.8-7.081,12.85-10.3C308.124,174.92,308.9,173.039,308.591,171.658Z" transform="translate(-208.985 -106.328)" fill="#9e6767"/><path d="M314.121,177.52c-4.684-.5-8.565,3.516-10.392,5.611-.185.213-.57.687-.879,1.044l1.978.611c.1-.117.886-1.154,1.374-1.806A13.626,13.626,0,0,1,314.121,177.52Z" transform="translate(-221.362 -114.643)" fill="#874c4c"/><path d="M299.769,195.9c-.776-.687-2.672-2.424-3.88-1.916-1.9.8-2.788,1.559-5.639,2.891-2.06.968-4.567,2.26-5.11,2.9-1.374,1.635-.907,5.81-.357,7.555a1.6,1.6,0,0,0,2.218,1.01c.165.364.625,1.147,2.06.852.11.543.941,1.2,2.225.934.165.6,1.319.81,2.095.453,1.078-.481,2.2-2.019,2.878-2.6s1-.8,1.016-1.168c0-.495-.529-1-1.435-.913a5.591,5.591,0,0,0,2.747-1.751,11.979,11.979,0,0,0,1.374-2.486,5.838,5.838,0,0,1,1.243-1.971c1-1.126-.495-2.816-1.3-3.606Z" transform="translate(-215.533 -119.785)" fill="#9e6767"/><path d="M299.635,211.4a4.628,4.628,0,0,0-.872.591,2.6,2.6,0,0,0-.343.385c-.11.137-.185.288-.309.44l-.062.076-.082-.041a3.571,3.571,0,0,0-1.676-.227,2.376,2.376,0,0,1,1.779,0h-.144a3.324,3.324,0,0,1,.687-.817A2.747,2.747,0,0,1,299.635,211.4Z" transform="translate(-219.307 -125.267)" fill="#874c4c"/><path d="M298.26,214.916c.069-.282.165-.522.22-.776a6.442,6.442,0,0,0,.151-.79,1.167,1.167,0,0,1,.082.845,1.332,1.332,0,0,1-.453.721Z" transform="translate(-219.924 -125.877)" fill="#874c4c"/><path d="M294.25,215.537a5.865,5.865,0,0,1-.584-2.184,5.8,5.8,0,0,1,.213-2.253,14.237,14.237,0,0,0,.034,2.232,13.476,13.476,0,0,0,.337,2.2Z" transform="translate(-218.476 -125.173)" fill="#874c4c"/><path d="M290.983,213.738a10.859,10.859,0,0,1-.611-2.651,8.413,8.413,0,0,1,.117-2.747,22.057,22.057,0,0,0,.124,2.7C290.694,211.96,290.852,212.845,290.983,213.738Z" transform="translate(-217.434 -124.308)" fill="#874c4c"/><path d="M287.912,212.495a7.816,7.816,0,0,1-.467-5.495,15.463,15.463,0,0,0,0,2.747A16.223,16.223,0,0,0,287.912,212.495Z" transform="translate(-216.445 -123.889)" fill="#874c4c"/><path d="M287.758,204.1a1.477,1.477,0,0,1,.117-.687,1.567,1.567,0,0,1,.419-.549,2.747,2.747,0,0,1,1.243-.481c-.192.117-.385.22-.57.323a3.032,3.032,0,0,0-.529.343A2.06,2.06,0,0,0,287.758,204.1Z" transform="translate(-216.634 -122.442)" fill="#874c4c"/><path d="M290.857,205.307a1.373,1.373,0,0,1,.11-.687,1.5,1.5,0,0,1,.426-.549,2.6,2.6,0,0,1,1.236-.481l-.57.316a4.127,4.127,0,0,0-.529.343,2.061,2.061,0,0,0-.673,1.058Z" transform="translate(-217.604 -122.821)" fill="#874c4c"/><path d="M294.607,207.007a1.374,1.374,0,0,1,.11-.687,1.5,1.5,0,0,1,.426-.549,2.665,2.665,0,0,1,1.236-.481c-.192.117-.385.22-.57.323a3.036,3.036,0,0,0-.529.343A1.978,1.978,0,0,0,294.607,207.007Z" transform="translate(-218.778 -123.353)" fill="#874c4c"/><g transform="translate(79.188 70.614)"><path d="M306.9,189.852l-2.885-.968a2.17,2.17,0,0,0-1.923.385l-2.287,2.012a.687.687,0,0,0-.282.639,8.017,8.017,0,0,0,.172.845.687.687,0,0,0,.508.474l2.885.975a2.177,2.177,0,0,0,1.923-.385l2.28-2.019a.687.687,0,0,0,.3-.611,8.826,8.826,0,0,0-.179-.865A.687.687,0,0,0,306.9,189.852Z" transform="translate(-299.508 -188.804)" fill="#37474f"/><path d="M299.8,191.281l2.287-2.012a2.17,2.17,0,0,1,1.923-.385l2.885.968a.6.6,0,0,1,.227,1.113l-2.287,2.012a2.17,2.17,0,0,1-1.923.385l-2.885-.968a.6.6,0,0,1-.227-1.113Z" transform="translate(-299.501 -188.804)" fill="#455a64"/><path d="M304,193.255a1.723,1.723,0,0,1-.865,0l-2.885-.968c-.185-.062-.3-.158-.323-.268s.048-.233.2-.364l2.28-2.012a1.758,1.758,0,0,1,.783-.357,1.724,1.724,0,0,1,.865,0l2.885.968c.185.062.3.158.323.268s-.048.233-.2.364l-2.28,2.012A1.758,1.758,0,0,1,304,193.255Z" transform="translate(-299.634 -188.938)" fill="#263238"/><path d="M303.008,195.6h-.048l-2.06-.687a.1.1,0,0,1-.062-.124.1.1,0,0,1,.124-.069l2.06.687a.089.089,0,0,1,.062.124A.11.11,0,0,1,303.008,195.6Z" transform="translate(-299.918 -190.656)" fill="#455a64"/><path d="M307.54,194.482a3.077,3.077,0,0,1,1.779,2.445c.405,1.724-.5,3.152-1.484,3.352.35.234,1.181-.11,2.2-.879l.852-.639a2.562,2.562,0,0,0,1.03-2.191,4.027,4.027,0,0,0-.117-.769,4.677,4.677,0,0,0-2.109-3.221Z" transform="translate(-302.018 -189.987)" fill="#263238"/></g><path d="M211,203.079c1.58-7.2,3.984-17.809,4.038-19.4.234-6.442-1.429-11.243-2.026-15.247-1.3-8.729,1.964-16.058,4-17.782,0,0,2.115-.481,4.636-1.085A36.708,36.708,0,0,1,226,148.78a52.2,52.2,0,0,1,11.676-.316c.948.1,5.433.865,5.433.865,1.374.316,3.839.769,3.846.769a28.806,28.806,0,0,1,5.941,7.72c2.212,3.956,3.3,7.266,3.008,15.742-.082,2.548-.185,7.1-.082,10.735a130.072,130.072,0,0,0,1.793,18.049C248.692,207.839,226.185,210.373,211,203.079Z" transform="translate(-192.596 -105.497)" fill="#fb8c00"/><g transform="translate(18.439)"><path d="M226.7,124.458a10.872,10.872,0,0,0,1.957-.687,6.181,6.181,0,0,1,2.94-.687c1.257.13,2.287.975,3.482,1.3a5.171,5.171,0,0,0,2.06.082c.426-.062.831-.2,1.25-.3a5.811,5.811,0,0,1,2.095-.117,4.89,4.89,0,0,0,2.163,0c1.113-.385,1.751-1.58,2.823-2.06,1.2-.549,2.61-.076,3.9-.316a4.121,4.121,0,0,0,2.747-2.06,5.8,5.8,0,0,0,.618-3.434,5.083,5.083,0,0,1,0-2.424,4.636,4.636,0,0,1,1-1.319,3.236,3.236,0,0,0,1.023-3.015c-.3-.927-1.3-1.573-1.374-2.548a1.511,1.511,0,0,1,1.806-1.49,1.538,1.538,0,0,1,.886,2.177,3.784,3.784,0,0,0,1.731-2.747,3.668,3.668,0,0,0-1.25-2.493,28.219,28.219,0,0,1-2.06-1.985,3.744,3.744,0,0,1-.687-1.374,2.479,2.479,0,0,1-.076-.749,9.184,9.184,0,0,1,.275-1.332,3.894,3.894,0,0,0-2.747-4.238c-.962-.254-2.115-.185-2.747-.941-.474-.549-.488-1.374-.756-2.019-.687-1.71-3.029-2.225-4.753-1.552-.852.33-1.71.893-2.6.687a4.08,4.08,0,0,1-1.573-1.044,7.678,7.678,0,0,0-2.747-1.47,7.808,7.808,0,0,0-1.538-.3h-.783a5.917,5.917,0,0,1-.6.034,4.257,4.257,0,0,0-.508-.055,5.016,5.016,0,0,0-.646.048,6.387,6.387,0,0,0-2.4.831,6.016,6.016,0,0,0-1.58,1.332,8.928,8.928,0,0,1-1,1.147c-.982.831-2.383.817-3.661.975A8.29,8.29,0,0,0,219.3,91.9a5.309,5.309,0,0,0-2.06,3.771,4.622,4.622,0,0,1-.24,1.951,2.665,2.665,0,0,1-1.133,1,32.51,32.51,0,0,0-3.146,1.641,3.489,3.489,0,0,0-1.669,2.953,5.5,5.5,0,0,0,1.374,2.637,3.242,3.242,0,0,1,.8,2.782,10.13,10.13,0,0,1-.989,1.621,2.981,2.981,0,0,0,1.312,3.977c.886.412,2.143.522,2.4,1.463a3.935,3.935,0,0,1-.227,1.6c-.275,1.614,1.277,3.091,2.905,3.31.913.13,1.944,0,2.679.556.625.481.824,1.332,1.264,1.992a3.139,3.139,0,0,0,1.882,1.291c.371.089.762.034,1.126.13a2.671,2.671,0,0,0,1.126-.117Z" transform="translate(-211.05 -85.99)" fill="#263238"/><path d="M230.2,131.463c0-1.429-.179-8.606-.179-8.606-.062.536-2.672,1.992-4.993-.776s-2.473-5.714-1.071-7.555c1.545-2.06,5.584-2.012,5.968,1.484,2.005-.076,2.974-.941,2.177-4.245.179-1.923,2.06-2.747,2.6-5.831a5.22,5.22,0,0,1,4.808-4.423,6.415,6.415,0,0,1,5.144,1.964,3.551,3.551,0,0,1,2.418-1.854,5.179,5.179,0,0,1,5.762,4.121,41.579,41.579,0,0,1,.879,10.082c-.282,7.617-2.328,11.291-4.766,12.569-1.641.852-3.118,1.051-5.968.81l.124,2.39h0c.055,1.2-.055,2.06,1.113,2.479.776.261,2.63.618,2.63.618s2.713,4.684-4.76,5.1c-11.909.687-16.683-4.87-16.683-4.87l2.637-.81C229.984,133.5,230.19,132.9,230.2,131.463Z" transform="translate(-214.812 -90.845)" fill="#9e6767"/><path d="M252.966,129.419a1.491,1.491,0,0,0-.769-.522,3.908,3.908,0,0,0-.838-.151,3.008,3.008,0,0,0-.824.048,3.04,3.04,0,0,0-.446.124,1.374,1.374,0,0,0-.337.22c-.062.048-.151.316,0,.316a2.275,2.275,0,0,0,.433,0l.378-.034a7.877,7.877,0,0,1,.8,0,3.29,3.29,0,0,1,.769.137c.11.034.22.048.33.076a1.194,1.194,0,0,0,.185.041,1.415,1.415,0,0,0,.24,0C252.987,129.659,253.014,129.481,252.966,129.419Z" transform="translate(-223.145 -99.378)" fill="#874c4c"/><path d="M252.966,129.419a1.491,1.491,0,0,0-.769-.522,3.908,3.908,0,0,0-.838-.151,3.008,3.008,0,0,0-.824.048,3.04,3.04,0,0,0-.446.124,1.374,1.374,0,0,0-.337.22c-.062.048-.151.316,0,.316a2.275,2.275,0,0,0,.433,0l.378-.034a7.877,7.877,0,0,1,.8,0,3.29,3.29,0,0,1,.769.137c.11.034.22.048.33.076a1.194,1.194,0,0,0,.185.041,1.415,1.415,0,0,0,.24,0C252.987,129.659,253.014,129.481,252.966,129.419Z" transform="translate(-223.145 -99.378)" opacity="0.2"/><path d="M263.1,111.5l-2.995-1.2a1.552,1.552,0,0,1,2.06-.941,1.7,1.7,0,0,1,.934,2.136Z" transform="translate(-226.415 -93.275)" fill="#263238"/><path d="M248.1,110.787l-3.194-.687a1.566,1.566,0,0,0,1.188,1.937,1.71,1.71,0,0,0,2.005-1.25Z" transform="translate(-221.636 -93.541)" fill="#263238"/><path d="M259.708,116.184a1.374,1.374,0,0,0,1.236,1.47,1.3,1.3,0,0,0,1.449-1.188,1.374,1.374,0,0,0-1.236-1.47,1.3,1.3,0,0,0-1.449,1.188Z" transform="translate(-226.288 -95.072)" fill="#263238"/><path d="M245.508,116.457a1.374,1.374,0,0,0,1.236,1.47,1.3,1.3,0,0,0,1.449-1.181,1.374,1.374,0,0,0-1.236-1.47,1.3,1.3,0,0,0-1.449,1.181Z" transform="translate(-221.841 -95.159)" fill="#263238"/><path d="M258.943,120.8l-4.4,1.607-1.168-7.637C255.07,114.811,257.24,117.476,258.943,120.8Z" transform="translate(-224.307 -95.003)" fill="#874c4c"/><path d="M246.974,139.747c-5.117-.529-10.014-2.212-11.154-4.547a6.085,6.085,0,0,0,2.06,3.771c3.434,2.857,9.2,2.582,9.2,2.582Z" transform="translate(-218.808 -101.402)" fill="#874c4c"/></g><g transform="translate(0 45.151)"><path d="M204.946,239.949c-2.157.611-4.918-2.06-5.673-3s.213-3.152.687-5.021,0-5.034,2.315-4.121S209.438,234.908,204.946,239.949Z" transform="translate(-188.835 -175.505)" fill="#874c4c"/><path d="M208.6,151.73c-6,.893-8.784,2.328-12.088,8.97-3.846,7.734-10.069,18.489-11.03,21.848-.9,3.125-2.685,5.357.735,10.1,3.125,4.348,12.96,15.735,14.423,17.4,1.277,1.477.57,5.714-3.826,5.082,0,0,3.345,2.96,5.179,2.631,1.587-.282,4.08-1.669,6.367-6.477,1.442-3.036.234-5.412-1.957-8.791-2.624-4.032-8.29-15.275-8.29-15.275l10.137-17.988S213.707,157.067,208.6,151.73Z" transform="translate(-184.203 -151.73)" fill="#9e6767"/></g><path d="M306.571,408.274a3.805,3.805,0,0,0-1.223-2.528,3.908,3.908,0,0,0-2.383-1.257c-.158,0-.24.227-.247.35a.508.508,0,0,0,.192.467A9.673,9.673,0,0,1,304.8,406.6a3.664,3.664,0,0,1,.584.824,2.422,2.422,0,0,1,.11.234v.041l.055.144c.062.179.144.357.192.543a6.3,6.3,0,0,1,.089,1.023.686.686,0,0,0,.076.323c.179.261.426-.213.495-.391A2.672,2.672,0,0,0,306.571,408.274Z" transform="translate(-221.319 -185.74)" fill="#fafafa"/><path d="M307.727,402.666a7.39,7.39,0,0,0-2.431-1.875,4.121,4.121,0,0,0-3.091-.412c-.261.1-.234.687,0,.749a18.836,18.836,0,0,1,2.788.831,5.715,5.715,0,0,1,1.882,1.374,7.944,7.944,0,0,1,1.731,5.371c0,.137.144.124.192,0C309.829,406.725,309.087,404.294,307.727,402.666Z" transform="translate(-221.102 -184.41)" fill="#fafafa"/></g></g><g transform="translate(76.014 48.802)"><path d="M132.891,114.21Zm-28.022-14.073c3.75,7.61,12.569,14.059,27.995,14.073a38.74,38.74,0,0,0,16.813-3.386c2.946,3.626,8.929,4.973,13.29,3.283a.687.687,0,0,0,0-1.277c-4.4-1.841-5.673-4.966-6.016-7.17a21.779,21.779,0,0,0,3.9-5.495,25.089,25.089,0,0,0-1.614-25.412c-4.973-7.589-15.907-12.363-26.381-12.363s-21.408,4.766-26.381,12.363a25.1,25.1,0,0,0-1.607,25.385Z" transform="translate(-101.915 -62.122)" fill="#fff"/><path d="M158.8,114.96a12.485,12.485,0,0,1-9.306-3.942,39.213,39.213,0,0,1-16.717,3.317h-.048c-18.448,0-25.584-8.929-28.2-14.2h0a25.364,25.364,0,0,1,1.628-25.653C111.044,67.014,121.731,62,132.748,62s21.7,5.007,26.593,12.473A25.343,25.343,0,0,1,161,100.132a22.4,22.4,0,0,1-3.86,5.494c.378,2.191,1.71,5.117,5.845,6.868a.934.934,0,0,1,.577.886.9.9,0,0,1-.591.859A11.47,11.47,0,0,1,158.8,114.96Zm-9.169-4.574.124.158c2.816,3.434,8.647,4.9,13.008,3.2a.4.4,0,0,0,.261-.391.419.419,0,0,0-.261-.412c-4.43-1.854-5.8-5.027-6.181-7.363v-.124l.089-.089a21.621,21.621,0,0,0,3.86-5.495,24.856,24.856,0,0,0-1.587-25.117c-4.725-7.2-15.481-12.239-26.168-12.239s-21.442,5.034-26.168,12.239a24.856,24.856,0,0,0-1.6,25.151c2.562,5.2,9.574,13.915,27.768,13.929a38.627,38.627,0,0,0,16.7-3.359Z" transform="translate(-101.799 -62)" fill="#455a64"/><path d="M149.4,99.562c1.827,2.012,1.992,4.457,1.992,7.39H134.59c0-2.933.165-5.378,1.992-7.39a31.6,31.6,0,0,1,4.045-3.434,2.06,2.06,0,0,0,0-3.434,31.715,31.715,0,0,1-4.045-3.434c-1.82-2.005-1.992-4.457-1.992-7.39H151.4c0,2.933-.165,5.385-1.992,7.39a32.21,32.21,0,0,1-4.045,3.434,2.06,2.06,0,0,0,0,3.434c.405.391,1.03.783,1.8,1.374A16.785,16.785,0,0,1,149.4,99.562Z" transform="translate(-112.069 -68.223)" fill="#26aab7"/><path d="M149.4,99.562c1.827,2.012,1.992,4.457,1.992,7.39H134.59c0-2.933.165-5.378,1.992-7.39a31.6,31.6,0,0,1,4.045-3.434,2.06,2.06,0,0,0,0-3.434,31.715,31.715,0,0,1-4.045-3.434c-1.82-2.005-1.992-4.457-1.992-7.39H151.4c0,2.933-.165,5.385-1.992,7.39a32.21,32.21,0,0,1-4.045,3.434,2.06,2.06,0,0,0,0,3.434c.405.391,1.03.783,1.8,1.374A16.785,16.785,0,0,1,149.4,99.562Z" transform="translate(-112.069 -68.223)" fill="#fff" opacity="0.6"/><path d="M135.2,106.712h0a.172.172,0,0,1-.172-.172c0-2.466.179-4.808,1.916-6.758a17.445,17.445,0,0,1,2.988-2.6,9.57,9.57,0,0,0,1.051-.817,2.321,2.321,0,0,0,0-3.812,10.127,10.127,0,0,0-1.044-.817,17.589,17.589,0,0,1-2.995-2.61c-1.738-1.916-1.9-4.286-1.916-6.751a.172.172,0,0,1,.172-.172h0a.165.165,0,0,1,.165.165c0,2.4.172,4.7,1.827,6.538a17.1,17.1,0,0,0,2.94,2.548,10.158,10.158,0,0,1,1.058.859,2.658,2.658,0,0,1,0,4.293,10,10,0,0,1-1.085.852,16.889,16.889,0,0,0-2.94,2.555c-1.655,1.827-1.806,4.121-1.827,6.532A.172.172,0,0,1,135.2,106.712Z" transform="translate(-112.207 -68.326)" fill="#fff" opacity="0.5"/><path d="M149.151,107.571c1.374,1.5,1.662,3.434,1.71,5.652H136.15c.048-2.253.288-4.162,1.71-5.652a7.193,7.193,0,0,1,5.646-2.143A7.809,7.809,0,0,1,149.151,107.571Z" transform="translate(-112.557 -75.6)" fill="#fafafa"/><path d="M151.195,84.731a7.019,7.019,0,0,1-1.641,4.286,16.71,16.71,0,0,1-2.871,2.493,10.534,10.534,0,0,0-1.133.9,3.434,3.434,0,0,0-1.223,2.445c0,.824-.137,1.037-.419,1.037s-.419-.192-.419-1.037a3.434,3.434,0,0,0-1.223-2.445,10.412,10.412,0,0,0-1.126-.9,16.484,16.484,0,0,1-2.878-2.493,5.81,5.81,0,0,1-.81-1.147.179.179,0,0,1,.2-.254,14.3,14.3,0,0,0,4.052.371c2.706-.165,3.922-.618,5.618-2.06,1.016-.852,1.786-2.06,2.466-2.321a.975.975,0,0,1,1.408,1.126Z" transform="translate(-112.959 -68.728)" fill="#fafafa"/><circle cx="0.501" cy="0.501" r="0.501" transform="translate(30.447 27.864)" fill="#fafafa"/><path d="M148.039,104.63a16.786,16.786,0,0,1,2.246,2.06c1.827,2.012,1.992,4.457,1.992,7.39H137.4c2.246,0,8.53-1.051,10.776-3.249C150.552,108.49,149.385,106.505,148.039,104.63Z" transform="translate(-112.949 -75.351)" fill="#26aab7" opacity="0.3"/><path d="M153.185,81.9c0,2.933-.165,5.385-1.992,7.39a32.212,32.212,0,0,1-4.045,3.434,2.06,2.06,0,0,0,0,3.434c-2.466-1.5-2.06-3-1.607-4s3.53-2.9,3.359-5.673-4.492-4.56-8.6-4.56Z" transform="translate(-113.857 -68.232)" fill="#26aab7" opacity="0.3"/><path d="M152.247,78.62a1.49,1.49,0,0,1-1.49,1.49H133.95a1.49,1.49,0,0,1-1.49-1.49Z" transform="translate(-111.402 -67.205)" fill="#26aab7"/><path d="M145.448,78.62a1.5,1.5,0,0,1-1.5,1.49h-10a1.49,1.49,0,0,1-1.49-1.49Z" transform="translate(-111.402 -67.205)" fill="#fff" opacity="0.2"/><path d="M152.9,75.811v.577a1.271,1.271,0,0,1-1.271,1.271H132.021a1.271,1.271,0,0,1-1.271-1.271v-.577a.268.268,0,0,1,.268-.261h21.6a.261.261,0,0,1,.282.261Z" transform="translate(-110.866 -66.243)" fill="#26aab7"/><path d="M152.849,75.811v.577a1.271,1.271,0,0,1-1.271,1.271H131.991a1.271,1.271,0,0,1-1.271-1.271v-.577a.261.261,0,0,1,.261-.261h21.6a.268.268,0,0,1,.268.261Z" transform="translate(-110.857 -66.244)" opacity="0.15"/><path d="M147.247,75.811v.577a1.271,1.271,0,0,1-1.271,1.271H132.021a1.271,1.271,0,0,1-1.271-1.271v-.577a.268.268,0,0,1,.268-.261h15.968a.261.261,0,0,1,.261.261Z" transform="translate(-110.866 -66.244)" fill="#26aab7"/><path d="M135.476,77.659a1.648,1.648,0,0,1,0-2.109h4.5a1.628,1.628,0,0,1,0,2.109Z" transform="translate(-112.227 -66.244)" fill="#fff" opacity="0.2"/><path d="M136.644,80.11a1.216,1.216,0,0,1,0-1.49h2.981a1.216,1.216,0,0,1,0,1.49Z" transform="translate(-112.632 -67.205)" fill="#fff" opacity="0.2"/><path d="M132.46,120.78a1.49,1.49,0,0,1,1.49-1.49h16.806a1.49,1.49,0,0,1,1.49,1.49Z" transform="translate(-111.402 -79.942)" fill="#26aab7"/><path d="M142.36,120.78a1.49,1.49,0,0,1,1.49-1.49h10.007a1.49,1.49,0,0,1,1.49,1.49Z" transform="translate(-114.502 -79.942)" fill="#fff" opacity="0.2"/><path d="M130.75,123.308v-.577a1.271,1.271,0,0,1,1.271-1.271h19.588a1.271,1.271,0,0,1,1.271,1.271v.577a.261.261,0,0,1-.261.268h-21.6A.268.268,0,0,1,130.75,123.308Z" transform="translate(-110.866 -80.622)" fill="#26aab7"/><path d="M130.75,123.308v-.577a1.271,1.271,0,0,1,1.271-1.271h19.588a1.271,1.271,0,0,1,1.271,1.271v.577a.261.261,0,0,1-.261.268h-21.6A.268.268,0,0,1,130.75,123.308Z" transform="translate(-110.866 -80.622)" opacity="0.15"/><path d="M139,123.308v-.577a1.271,1.271,0,0,1,1.271-1.271h13.956a1.271,1.271,0,0,1,1.271,1.271v.577a.261.261,0,0,1-.261.268h-16A.261.261,0,0,1,139,123.308Z" transform="translate(-113.45 -80.622)" fill="#26aab7"/><path d="M155.844,121.46a1.642,1.642,0,0,1,0,2.115h-4.5a1.655,1.655,0,0,1,0-2.115Z" transform="translate(-117.197 -80.622)" fill="#fff" opacity="0.2"/><path d="M155.522,119.29a1.216,1.216,0,0,1,0,1.49h-2.988a1.223,1.223,0,0,1,0-1.49Z" transform="translate(-117.609 -79.942)" fill="#fff" opacity="0.2"/></g></g></svg>