<svg xmlns="http://www.w3.org/2000/svg" width="469" height="373.5" viewBox="0 0 469 373.5">
  <g id="Grupo_72181" data-name="Grupo 72181" transform="translate(-915 -7475)">
    <rect id="Rectángulo_32137" data-name="Rectángulo 32137" width="469" height="373.5" rx="20" transform="translate(915 7475)" fill="#f3f9ff" opacity="0.5"/>
    <g id="sombreros-01" transform="translate(-949.475 7413.515)">
      <g id="DESIGNED_BY_FREEPIK" data-name="DESIGNED BY FREEPIK" transform="translate(1893.475 162.485)">
        <path id="Trazado_127377" data-name="Trazado 127377" d="M1011.993,162.784c-.748,29.693-93.456,51.354-207.05,48.39S599.97,181.73,600.662,152.037v-8.088c4.681-28.7,95.977-43.183,207.05-40.274s200.956,20.525,204.253,49.387C1012.02,153.726,1012.02,162.119,1011.993,162.784Z" transform="translate(-600.659 -40.942)" fill="#c06822"/>
        <path id="Trazado_127378" data-name="Trazado 127378" d="M1011.993,159.82c-.748,29.666-93.456,51.326-207.05,48.362s-204.973-29.444-204.28-59.11,93.484-51.354,207.05-48.39S1012.768,130.127,1011.993,159.82Z" transform="translate(-600.659 -46.066)" fill="#e2a331"/>
        <path id="Trazado_127379" data-name="Trazado 127379" d="M974.867,111.36c7.4,5.789,11.384,11.911,11.08,18.171-.748,29.693-93.456,51.326-207.05,48.362-73.873-1.911-138.5-13.849-174.227-30.026C632.369,169.5,708.1,186.452,797.7,188.806c113.566,2.964,206.3-18.7,207.05-48.362C1005.17,130.057,994.146,120.085,974.867,111.36Z" transform="translate(-593.559 -26.69)" fill="#d78326"/>
        <path id="Trazado_127380" data-name="Trazado 127380" d="M943.545,188.1h0a3.493,3.493,0,0,0-.388-1.44c-.72-3.158-2.576-21.578-3.24-26.37-3.213-22.63-5.761-39.166-5.346-62.018C885.377,95.28,835.214,89.6,785.91,89.6H673.285c-13.074,0-25.206-1.856-38.086-2.77a55.4,55.4,0,0,0-19.389,3.324c6.537,30.164,5.54,55.4,5.54,86.421v.415h0c1.163,12.215,73.1,33.516,161.291,33.516S942.8,200.591,943.6,188.348h0A.221.221,0,0,0,943.545,188.1Z" transform="translate(-573.842 -70.107)" fill="#e7b23d"/>
        <path id="Trazado_127381" data-name="Trazado 127381" d="M940.192,188.058a3.494,3.494,0,0,0-.388-1.44c-.72-3.158-2.576-21.578-3.241-26.37-3.213-22.63-5.761-39.166-5.346-62.018-49.193-2.992-99.357-8.67-148.661-8.67H669.9c-13.074,0-25.206-1.856-38.086-2.77h-.969c2.382,2.133,4.57,4.432,6.9,6.842a51.908,51.908,0,0,0,24.347,13.517,440.438,440.438,0,0,0,47.808,9.888c36.009,5.706,71.8,4.93,108.026,4.93,13.351,0,26.591,0,39.914-.831,8.919-.637,17.921-1.08,26.425,2.133,12.714,4.792,15.068,24.929,7.285,35.012-13.462,17.2-48.667,16.149-67.973,16.758-33.71,1.025-67.752-.249-101.461-1.274-29.029-.859-59.5-3.961-86.172-16.426a136.78,136.78,0,0,1-18.226-9.722v29.305h0c1.163,12.215,73.1,33.516,161.291,33.516s160.156-9.916,160.959-22.159h0S940.192,188.113,940.192,188.058Z" transform="translate(-570.461 -70.176)" fill="#e2a331"/>
        <path id="Trazado_127382" data-name="Trazado 127382" d="M939.68,144.511c-.5-2.216-1.551-11.744-2.354-18.974-13.85,10.415-79.385,18.281-158.272,18.281-87.861,0-159.574-21.107-161.264-33.239v24.347h0c1.163,12.215,73.1,33.516,161.291,33.516s160.156-9.916,160.959-22.159h0a3.49,3.49,0,0,0-.36-1.773Z" transform="translate(-570.337 -28.07)" fill="#3a2200"/>
        <path id="Trazado_127383" data-name="Trazado 127383" d="M937.891,136.394a3.493,3.493,0,0,0-.388-1.44c-.5-2.216-1.551-11.744-2.354-18.974-5.4,4.072-18.78,7.756-37.754,10.747-4.044,11.855-17.783,16.149-30.663,17.617-30.469,3.462-59.331,8.31-90.022,8.5a603.117,603.117,0,0,1-108.026-8.31,222.507,222.507,0,0,1-49.664-14.32c15.539,12.271,80.327,28.669,157.884,28.669,88.415,0,160.156-9.916,160.959-22.159h0S937.891,136.45,937.891,136.394Z" transform="translate(-568.161 -18.513)" fill="#2c1800"/>
        <path id="Trazado_127384" data-name="Trazado 127384" d="M934.672,108.845c-.332,12.963-72.018,21.633-160.045,19.389s-159.159-14.708-158.826-27.7S687.818,78.9,775.846,81.146,934.893,95.855,934.672,108.845Z" transform="translate(-573.861 -80.792)" fill="#edc03e"/>
        <path id="Trazado_127385" data-name="Trazado 127385" d="M876.034,83.8c12.465,3.795,19.611,8.033,19.389,12.354-.3,12.963-65.591,21.8-145.78,19.694-60.162-1.579-111.627-8.836-133.454-17.866,9.058,11.911,76.089,22.713,157.746,24.929,88.055,2.3,159.713-6.371,160.045-19.389C934.2,96.181,911.545,89.035,876.034,83.8Z" transform="translate(-573.169 -75.468)" fill="#f3d147"/>
      </g>
    </g>
  </g>
</svg>
