<svg xmlns="http://www.w3.org/2000/svg" width="354.283" height="302.881" viewBox="0 0 354.283 302.881"><g transform="translate(-7.69 -73.48)"><g transform="translate(7.69 175.266)" opacity="0.16"><ellipse cx="177.141" cy="100.547" rx="177.141" ry="100.547" fill="#727997"/></g><g transform="translate(22.793 183.13)"><path d="M29.976,280.971,230.391,396.684a8.605,8.605,0,0,0,7.787,0l109.1-62.992c2.148-1.242,2.148-3.251,0-4.493L146.865,213.486a8.605,8.605,0,0,0-7.787,0l-109.1,62.992C27.828,277.72,27.828,279.729,29.976,280.971Z" transform="translate(-28.365 -212.555)" fill="#e0e0e0"/></g><g transform="translate(12.459 181.535)"><g transform="translate(303.531 52.569)"><path d="M436.332,335.14l-5.486-3.7s-2.411-14.362-.168-26.985c3.156-17.744,15.392-23.647,19.724-21.791s5.3,7.144-2.842,17.277C442.782,305.912,436.5,318.615,436.332,335.14Z" transform="translate(-429.723 -282.334)" fill="#26aab7"/><g opacity="0.15"><path d="M436.332,335.14l-5.486-3.7s-2.411-14.362-.168-26.985c3.156-17.744,15.392-23.647,19.724-21.791s5.3,7.144-2.842,17.277C442.782,305.912,436.5,318.615,436.332,335.14Z" transform="translate(-429.723 -282.334)"/></g><path d="M435.916,328.967h.058a.395.395,0,0,0,.343-.446c-1.98-16.707,5.077-34.831,12.747-42.041a.394.394,0,0,0,0-.562.4.4,0,0,0-.562,0c-7.809,7.342-15,25.765-12.988,42.713A.4.4,0,0,0,435.916,328.967Z" transform="translate(-431.191 -283.268)" fill="#fff"/><path d="M451.492,350.486A8.949,8.949,0,0,0,456.3,346.4a14.91,14.91,0,0,0,1.695-6.648c.11-2.148-.46-4.383-.146-6.48.248-1.666,1.746-2.805,3.112-3.791,1.512-1.081,3.1-2.528,3.127-4.536a7.071,7.071,0,0,0-1.695-4.244c-1.461-1.965-3.01-3.514-2.593-6.195a22.119,22.119,0,0,1,1.651-4.675,7.423,7.423,0,0,0,.584-2.031,4.383,4.383,0,0,0-4.6-4.778,7.992,7.992,0,0,0-3.236,1.067c-3.112,1.651-5,5.961-8.605,6.407-1.176.146-2.367.095-3.543.248a5.187,5.187,0,0,0-3.185,1.41c-2.747,2.922.438,6.8-.73,10.037-.818,2.323-3.1,3.17-4.383,5.245a4.982,4.982,0,0,0-.657,3.039,14.611,14.611,0,0,0,1.191,5.187,27.515,27.515,0,0,0,2.133,3.718c.84,1.4,1.11,2.922,2.191,4.215a40.386,40.386,0,0,0,4.6,4.259,10.323,10.323,0,0,0,5.45,2.922A6.428,6.428,0,0,0,451.492,350.486Z" transform="translate(-430.623 -287.906)" fill="#26aab7"/><g transform="translate(2.44 15.105)" opacity="0.2"><path d="M451.492,350.486A8.949,8.949,0,0,0,456.3,346.4a14.91,14.91,0,0,0,1.695-6.648c.11-2.148-.46-4.383-.146-6.48.248-1.666,1.746-2.805,3.112-3.791,1.512-1.081,3.1-2.528,3.127-4.536a7.071,7.071,0,0,0-1.695-4.244c-1.461-1.965-3.01-3.514-2.593-6.195a22.119,22.119,0,0,1,1.651-4.675,7.423,7.423,0,0,0,.584-2.031,4.383,4.383,0,0,0-4.6-4.778,7.992,7.992,0,0,0-3.236,1.067c-3.112,1.651-5,5.961-8.605,6.407-1.176.146-2.367.095-3.543.248a5.187,5.187,0,0,0-3.185,1.41c-2.747,2.922.438,6.8-.73,10.037-.818,2.323-3.1,3.17-4.383,5.245a4.982,4.982,0,0,0-.657,3.039,14.611,14.611,0,0,0,1.191,5.187,27.515,27.515,0,0,0,2.133,3.718c.84,1.4,1.11,2.922,2.191,4.215a40.386,40.386,0,0,0,4.6,4.259,10.323,10.323,0,0,0,5.45,2.922A6.428,6.428,0,0,0,451.492,350.486Z" transform="translate(-433.063 -303.011)" fill="#fff"/></g><path d="M446.757,346.4h0a.4.4,0,0,0,.394-.409c-.351-15.779,7.415-33.048,12.915-37.987a.4.4,0,0,0-.533-.592c-5.61,5.055-13.536,22.609-13.149,38.608a.409.409,0,0,0,.373.38Z" transform="translate(-434.209 -289.073)" fill="#fff"/><path d="M450.737,333.6h.117a52.907,52.907,0,0,1,11.476-1.629.4.4,0,0,0,0-.8,54.715,54.715,0,0,0-11.688,1.658.394.394,0,0,0-.278.489A.409.409,0,0,0,450.737,333.6Z" transform="translate(-435.281 -295.494)" fill="#fff"/></g><path d="M38.837,265.276l6.348-2.856s2.761-12.7,2.791-22.748c.044-14.121-7.305-31.85-18.46-28.994s3.1,18.694,5.4,30.9S38.837,265.276,38.837,265.276Z" transform="translate(-17.205 -210.371)" fill="#26aab7"/><g transform="translate(8.097)" opacity="0.15"><path d="M38.837,265.276l6.348-2.856s2.761-12.7,2.791-22.748c.044-14.121-7.305-31.85-18.46-28.994s3.1,18.694,5.4,30.9S38.837,265.276,38.837,265.276Z" transform="translate(-25.301 -210.371)"/></g><path d="M44.578,265.8h0a.373.373,0,0,1-.314-.416c4.193-30.952-9.694-48.141-9.833-48.309a.38.38,0,0,1,.051-.519.365.365,0,0,1,.511.051c.146.168,14.23,17.605,9.993,48.878A.365.365,0,0,1,44.578,265.8Z" transform="translate(-19.644 -212.017)" fill="#fff"/><path d="M31.854,273.52l4.522-2.031A47.413,47.413,0,0,0,34.754,251.6c-2.82-9.7-11.374-18.38-16.239-17.225s-5.114,4.493-3.141,8.218S30.4,255.988,31.854,273.52Z" transform="translate(-14.218 -216.811)" fill="#26aab7"/><g transform="translate(0 17.457)" opacity="0.2"><path d="M31.854,273.52l4.522-2.031A47.413,47.413,0,0,0,34.754,251.6c-2.82-9.7-11.374-18.38-16.239-17.225s-5.114,4.493-3.141,8.218S30.4,255.988,31.854,273.52Z" transform="translate(-14.218 -234.268)" fill="#fff"/></g><path d="M35.807,273.739h0a.365.365,0,0,1-.321-.4c2.067-19.629-15.034-34.772-15.2-34.918a.373.373,0,0,1-.037-.519.358.358,0,0,1,.511,0c.175.146,17.532,15.538,15.45,35.547A.358.358,0,0,1,35.807,273.739Z" transform="translate(-15.819 -217.761)" fill="#fff"/></g><g transform="translate(25.865 172.43)"><g transform="translate(0)"><path d="M335.966,327.394l-95.558,55.161a10.315,10.315,0,0,1-9.971.19L38.056,271.664C35.025,269.918,32.57,266,32.57,262.9s2.455-6.991,5.486-8.766l95.2-54.912a12.163,12.163,0,0,1,10.958,0L335.966,309.913c3.032,1.753,5.486,5.661,5.486,8.766S338.968,325.648,335.966,327.394Z" transform="translate(-32.57 -197.91)" fill="#b0c0d2"/><g opacity="0.5"><path d="M133.256,199.217l-95.2,54.964c-3.032,1.746-5.486,5.661-5.486,8.766s2.455,7,5.486,8.766l192.38,111.03a10.747,10.747,0,0,0,4.77,1.176V251.741l-90.97-52.524A12.163,12.163,0,0,0,133.256,199.217Z" transform="translate(-32.57 -197.908)"/></g><g transform="translate(199.855 53.833)" opacity="0.4"><path d="M315.172,402.412l95.558-55.161c3.032-1.746,5.486-5.661,5.486-8.766s-2.454-6.991-5.486-8.766L310,271.6V403.779a10.155,10.155,0,0,0,5.172-1.366Z" transform="translate(-310 -271.6)"/></g><path d="M239.039,372.723a10.709,10.709,0,0,1-9.679,0L38.916,262.788c-4.1-2.367-4.1-6.231,0-8.6l95.215-54.971a12.163,12.163,0,0,1,10.958,0L336.84,309.913c3.017,1.746,3.017,4.595,0,6.334Z" transform="translate(-33.452 -197.91)" fill="#d2e1f1"/><g transform="translate(2.811 0.006)" opacity="0.3"><path d="M239.039,372.723a10.709,10.709,0,0,1-9.679,0L38.916,262.788c-4.1-2.367-4.1-6.231,0-8.6l95.215-54.971a12.163,12.163,0,0,1,10.958,0L336.84,309.913c3.017,1.746,3.017,4.595,0,6.334Z" transform="translate(-35.842 -197.915)"/></g><path d="M236.219,365.407a11.513,11.513,0,0,1-10.432,0l-163.853-94.6c-2.878-1.666-2.878-4.383,0-6.019l89.575-51.713a11.608,11.608,0,0,1,10.432,0l163.853,94.579c2.864,1.658,2.864,4.383,0,6.027Z" transform="translate(-39.901 -201.661)" fill="#37474f"/><path d="M156.4,211.86a10.483,10.483,0,0,0-4.894,1.22L61.934,264.793c-2.878,1.658-2.878,4.383,0,6.019l17.759,10.227,76.7-48.988Z" transform="translate(-39.901 -201.668)" fill="#263238"/><path d="M162.329,218.431a11.557,11.557,0,0,0-10.432,0L62.33,270.144A5.3,5.3,0,0,0,61,271.232a5.434,5.434,0,0,0,1.3,1.015l163.8,94.6a11.513,11.513,0,0,0,10.432,0L326.1,315.143a5.486,5.486,0,0,0,1.352-1.081,5.421,5.421,0,0,0-1.293-1.03Z" transform="translate(-40.231 -203.103)" fill="#b0c0d2"/><path d="M106.089,246.985l15.874-9.168c.95-.548.993-1.4.11-1.914a3.653,3.653,0,0,0-3.324.058l-15.874,9.168c-.95.548-1,1.4-.11,1.914A3.652,3.652,0,0,0,106.089,246.985Z" transform="translate(-51.315 -208.047)" fill="#37474f"/><path d="M143.437,228.871a.986.986,0,0,0,0-1.863,3.572,3.572,0,0,0-3.222,0,.986.986,0,0,0,0,1.863,3.572,3.572,0,0,0,3.222,0Z" transform="translate(-61.401 -205.646)" fill="#37474f"/><path d="M152.246,223.774a.979.979,0,0,0,0-1.855,3.572,3.572,0,0,0-3.222,0,.979.979,0,0,0,0,1.856,3.528,3.528,0,0,0,3.222,0Z" transform="translate(-63.773 -204.275)" fill="#37474f"/><path d="M81.768,264.464a.979.979,0,0,0,0-1.855,3.558,3.558,0,0,0-3.214,0,.979.979,0,0,0,0,1.855,3.514,3.514,0,0,0,3.214,0Z" transform="translate(-44.782 -215.24)" fill="#37474f"/><path d="M90.568,259.374a.979.979,0,0,0,0-1.855,3.558,3.558,0,0,0-3.214,0,.979.979,0,0,0,0,1.855,3.557,3.557,0,0,0,3.214,0Z" transform="translate(-47.154 -213.869)" fill="#37474f"/><path d="M113.385,333.143a3.652,3.652,0,0,1,1.717,2.849,1.081,1.081,0,0,1-.475,1c-.2.11-.986.577-1.2.694a1.249,1.249,0,0,1-1.242-.139l-22.31-12.915a3.7,3.7,0,0,1-1.709-2.849,1.1,1.1,0,0,1,.431-.979c.212-.132,1.023-.6,1.235-.731a1.278,1.278,0,0,1,1.242.146Z" transform="translate(-47.552 -230.804)" fill="#26aab7"/><g transform="translate(40.612 89.172)" opacity="0.4"><path d="M113.385,333.143a3.652,3.652,0,0,1,1.717,2.849,1.081,1.081,0,0,1-.475,1c-.2.11-.986.577-1.2.694a1.249,1.249,0,0,1-1.242-.139l-22.31-12.915a3.7,3.7,0,0,1-1.709-2.849,1.1,1.1,0,0,1,.431-.979c.212-.132,1.023-.6,1.235-.731a1.278,1.278,0,0,1,1.242.146Z" transform="translate(-88.163 -319.976)"/></g><path d="M112.189,334.048l-22.31-12.879c-.942-.548-1.709-.153-1.709.869a3.7,3.7,0,0,0,1.709,2.849l22.31,12.893c.95.548,1.717.161,1.717-.869a3.653,3.653,0,0,0-1.717-2.864Z" transform="translate(-47.553 -231.058)" fill="#26aab7"/><g transform="translate(40.617 89.863)" opacity="0.3"><path d="M112.189,334.048l-22.31-12.879c-.942-.548-1.709-.153-1.709.869a3.7,3.7,0,0,0,1.709,2.849l22.31,12.893c.95.548,1.717.161,1.717-.869a3.653,3.653,0,0,0-1.717-2.864Z" transform="translate(-88.17 -320.922)"/></g><path d="M76.855,312.027a3.653,3.653,0,0,1,1.717,2.842,1.067,1.067,0,0,1-.475,1l-1.2.73a1.271,1.271,0,0,1-1.242-.139l-10.512-6.071a3.653,3.653,0,0,1-1.717-2.849,1.081,1.081,0,0,1,.431-.979c.212-.131,1.023-.6,1.242-.731a1.257,1.257,0,0,1,1.235.139Z" transform="translate(-40.884 -226.965)" fill="#26aab7"/><g transform="translate(22.538 78.766)" opacity="0.4"><path d="M76.855,312.027a3.653,3.653,0,0,1,1.717,2.842,1.067,1.067,0,0,1-.475,1l-1.2.73a1.271,1.271,0,0,1-1.242-.139l-10.512-6.071a3.653,3.653,0,0,1-1.717-2.849,1.081,1.081,0,0,1,.431-.979c.212-.131,1.023-.6,1.242-.731a1.257,1.257,0,0,1,1.235.139Z" transform="translate(-63.422 -305.731)"/></g><path d="M75.659,312.964l-10.512-6.056c-.95-.548-1.717-.161-1.717.869a3.652,3.652,0,0,0,1.717,2.849L75.659,316.7c.95.548,1.717.161,1.717-.869a3.653,3.653,0,0,0-1.717-2.864Z" transform="translate(-40.886 -227.215)" fill="#26aab7"/><g transform="translate(22.544 79.444)" opacity="0.3"><path d="M75.659,312.964l-10.512-6.056c-.95-.548-1.717-.161-1.717.869a3.652,3.652,0,0,0,1.717,2.849L75.659,316.7c.95.548,1.717.161,1.717-.869a3.653,3.653,0,0,0-1.717-2.864Z" transform="translate(-63.43 -306.66)"/></g></g></g><g transform="translate(207.103 144.822)"><ellipse cx="22.894" cy="13.215" rx="22.894" ry="13.215" transform="translate(14.28 107.903)" opacity="0.1"/><path d="M353.23,158.6l.76,7.159,6.728-.11-.745-8.109Z" transform="translate(-311.972 -137.524)" fill="#f28f8f"/><path d="M345.653,147.45s-1.819,2.922-1.6,3.178a5.236,5.236,0,0,0,1.614.5Z" transform="translate(-309.494 -134.805)" fill="#b16668"/><path d="M350.654,137.629c-3.382.789-4.332,2.308-4.529,7.714-.2,5.654.409,7.415,1.169,8.152.511.5,3.295.533,4.69.117,1.746-.526,5.683-2.016,7.473-4.9,2.111-3.39,2.586-7.926.2-9.73C356.309,136.438,352.035,137.3,350.654,137.629Z" transform="translate(-310.047 -132.048)" fill="#f28f8f"/><path d="M345.068,138.022a2.922,2.922,0,0,0,2.089.65c-.146,0-.095.628-.08.73a1.271,1.271,0,0,0,.409.665,1.293,1.293,0,0,0,1.527.263c-.46.38-.11,1.527.051,2s.27,1.147.891,1.4c0,0,.5-2.1,2.257-1.877s2.067,2.476.979,3.872-2.133.891-2.133.891a9.374,9.374,0,0,0,1.461,4.639,12.163,12.163,0,0,0,4.8-.226c1.088-1.22,2.294-2.717,3.879-4.865,3.1-4.193,2.674-9.051-.395-10.264a13.275,13.275,0,0,0-.095-1.921,2.813,2.813,0,0,0-.986-1.534,6.574,6.574,0,0,0-3.74-1.286c-1.549-.1-3.1.131-4.646.117a15.341,15.341,0,0,1-4.975-.855c-.687-.241-1.519-.5-2.06,0a1.578,1.578,0,0,0-.351,1.41,4.069,4.069,0,0,0,1.549,2.623,1.461,1.461,0,0,1-1.008-.263.734.734,0,0,0-1.183.869A5.041,5.041,0,0,0,345.068,138.022Z" transform="translate(-309.259 -130.14)" fill="#263238"/><path d="M367.375,138.336l2-1.242a1.178,1.178,0,1,0-2,1.242Z" transform="translate(-315.736 -131.864)" fill="#263238"/><path d="M328.955,304.51c-.146.051-.175.913,0,1.191a4.456,4.456,0,0,0,2.922,1.724,23.4,23.4,0,0,0,5.669-.066,54.02,54.02,0,0,1,5.844.519,4.666,4.666,0,0,0,3.8-.789,1.177,1.177,0,0,0,.27-.942c0-.73-.1-.9-.19-.891Z" transform="translate(-305.398 -177.131)" fill="#263238"/><path d="M346.988,301.377a2.557,2.557,0,0,0,.095.446,7.407,7.407,0,0,1,.161,2.3,2.075,2.075,0,0,1-1.359,1.03,7.049,7.049,0,0,1-3.842.08,26.973,26.973,0,0,0-4.5-.278,28.377,28.377,0,0,1-3.937.2,9.5,9.5,0,0,1-2.922-.592c-.782-.336-1.578-.73-1.768-1.563a2.63,2.63,0,0,1,1.461-2.63,5.932,5.932,0,0,1,2.922-.636c1.1,0,1.936.146,2.922.073a13.964,13.964,0,0,0,2.513-.351c.73-.234,1.834-.95,2.148-.986,0,0,4.617-.117,5.114-.073s.636,1.2.731,1.563.066.592.139.862S346.944,301.194,346.988,301.377Z" transform="translate(-305.415 -175.481)" fill="#37474f"/><path d="M340.461,300.077a3.353,3.353,0,0,0-1.2,2.075c0,.562-.964.614-.993.051a4.77,4.77,0,0,1,.869-1.987A2.432,2.432,0,0,1,340.461,300.077Z" transform="translate(-307.94 -175.927)" fill="#fafafa"/><path d="M337.536,300.3a3.514,3.514,0,0,0-1.066,1.907c0,.416-.884.38-.869-.037a2.681,2.681,0,0,1,1.067-1.9C336.944,300.085,337.441,300.136,337.536,300.3Z" transform="translate(-307.221 -175.957)" fill="#fafafa"/><path d="M358.271,284.11a5.4,5.4,0,0,0,.2,3.039,6.341,6.341,0,0,0,2.191,2.754,11.448,11.448,0,0,1,1.965,2.286,9.856,9.856,0,0,0,2.045,2.454,4,4,0,0,0,3.229.168c.84-.373,1.118-.694,1.045-2.045s-4.193-1.731-4.193-1.731Z" transform="translate(-313.302 -171.634)" fill="#263238"/><path d="M368.4,288.2c.351.124.453.789.533,2.111.058,1,.511,2.462-.855,3.119a3.368,3.368,0,0,1-3.653-.731c-.964-1.154-1.622-2.192-2.988-3.594-1.191-1.227-2.411-1.622-2.973-4.113-.365-1.592-.117-2.265.95-2.747,1.461-.665,3.85,1.359,5.019,1.658C365.423,284.223,368.046,288.08,368.4,288.2Z" transform="translate(-313.339 -171.097)" fill="#37474f"/><path d="M365.413,284.588l-.2-.058a3.835,3.835,0,0,0-3.178,2.192c-.183.438.431.767.789.424a4.084,4.084,0,0,1,3.17-2.191A1.8,1.8,0,0,0,365.413,284.588Z" transform="translate(-314.336 -171.747)" fill="#fafafa"/><path d="M366.909,285.62a3.82,3.82,0,0,0-2.922,2.148c-.19.446.431.774.789.424a3.879,3.879,0,0,1,2.637-2.053C367.23,285.956,367.07,285.781,366.909,285.62Z" transform="translate(-314.861 -172.041)" fill="#fafafa"/><path d="M371.653,255.6l-8.313,1.074s.219,5.114.731,10.709c.424,4.661.942,11.294,1.205,13.412a5.174,5.174,0,0,0,.088.665c.139,1.249,4.383,1.629,4.383.183l.08-1.687C370.185,274.922,372.07,263.132,371.653,255.6Z" transform="translate(-314.696 -163.95)" fill="#f28f8f"/><path d="M351.451,257.75l-6.911.964.57,28.256v.5c.044,1.256.731,1.673,2.462,1.739,2.1.08,2.922-.833,2.922-1.519v-.212c.73-6.575,1.855-17.423,2.009-21A27.758,27.758,0,0,0,351.451,257.75Z" transform="translate(-309.63 -164.53)" fill="#f28f8f"/><path d="M379.484,186.379c-1.461-17.4-4.683-23.727-11.944-23.172l2.308,9.811s3.426,11.608,3.653,15.582a54.283,54.283,0,0,1-.175,10.753,2.141,2.141,0,0,1-.782,1.293,12.148,12.148,0,0,0-2.272,2.7c-.614.8-1.183,1.045-1.067,1.271a1.147,1.147,0,0,0,1.52.351,7.6,7.6,0,0,0,1.534-1.088,10.621,10.621,0,0,1-1.381,3.127c-1.425,2.192-1.359,3.455,1.972,3.112,2.089-.212,3.872-1.644,4.931-6.421.307-1.373.789-3.368,1.154-5.493A42.786,42.786,0,0,0,379.484,186.379Z" transform="translate(-315.828 -139.043)" fill="#f28f8f"/><path d="M367.6,163.087c3.01-.08,5.559.438,7.992,4.3s3.923,15.45,4.04,18.226.1,4.58.1,4.58l-6.129.482a39.561,39.561,0,0,0-.694-4.8c-.4-1.461-2.111-10.227-4.04-14.464Z" transform="translate(-315.844 -139.017)" fill="#1565c0"/><g transform="translate(51.756 24.063)" opacity="0.35"><path d="M367.6,163.087c3.01-.08,5.559.438,7.992,4.3s3.923,15.45,4.04,18.226.1,4.58.1,4.58l-6.129.482a39.561,39.561,0,0,0-.694-4.8c-.4-1.461-2.111-10.227-4.04-14.464Z" transform="translate(-367.6 -163.08)"/></g><path d="M375.82,200.55a7.232,7.232,0,0,1,2.776-.774,9.5,9.5,0,0,1,3.353.292s0,1.877-.168,3.4c0,0-2.1-1.118-5.888,0Z" transform="translate(-318.06 -148.896)" fill="#455a64"/><path d="M366.548,241.425c-.2-4.829-.731-4.931-1.461-8.708.387-4.6.73-8.474.92-13.456.175-5.391.044-11.593-.343-17.576-5.888-.394-20.337-5.282-22.186,3.981-.541,7.48.212,22.288.292,32.478s.373,21.959.73,33.172c1.695.621,4.536,1.015,6.187-.095,1.162-7.648,2.192-17.532,2.637-21.755.584-5.187,0-7.269,0-9.628.285-4.069,1.753-17.854,1.753-17.854s.475,5.238.8,10.088.906,7.641,1.417,13.193c.475,5.114,1.373,13.938,1.87,19.863a6.208,6.208,0,0,0,5.566.146C364.992,259.447,366.745,246.247,366.548,241.425Z" transform="translate(-309.292 -148.98)" fill="#37474f"/><g transform="translate(45.78 63.138)" opacity="0.2"><path d="M360.158,219.616c2.44-.212,3.485-1.125,5.209-3.046a5.647,5.647,0,0,1-4.054,4.2c-.044.285-1.015,5.932-1.015,5.932l-.146,8.489-.731-8.766Z" transform="translate(-359.42 -216.57)"/></g><path d="M343.6,207.315a21.915,21.915,0,0,0,8.481.731l-.453-9.336-8.036,1.205Z" transform="translate(-309.374 -148.619)" fill="#455a64"/><path d="M365.1,166.432a4.466,4.466,0,0,0-5.04-3.28c-4.675.869-9.095,1.366-11.864,2.352-.241.088-2.009.548-2.257.665-2.082,1-2.535,2.922-2.71,9.752,0,0-.606,18.336-.511,23.654a18.268,18.268,0,0,0,2.579.825l.972-6.3,1.22,6.684a35.928,35.928,0,0,0,10.607.153c7.006-1.527,7.933-3.726,7.933-3.726s-.358-7.137-.73-13.719c0,0,1.227-7.7,1.154-9.606A20.156,20.156,0,0,0,365.1,166.432Z" transform="translate(-309.136 -139.016)" fill="#1565c0"/><g transform="translate(33.759 24.059)" opacity="0.2"><path d="M365.1,166.432a4.466,4.466,0,0,0-5.04-3.28c-4.675.869-9.095,1.366-11.864,2.352-.241.088-2.009.548-2.257.665-2.082,1-2.535,2.922-2.71,9.752,0,0-.606,18.336-.511,23.654a18.268,18.268,0,0,0,2.579.825l.972-6.3,1.22,6.684a35.928,35.928,0,0,0,10.607.153c7.006-1.527,7.933-3.726,7.933-3.726s-.358-7.137-.73-13.719c0,0,1.227-7.7,1.154-9.606A20.156,20.156,0,0,0,365.1,166.432Z" transform="translate(-342.706 -163.075)"/></g><path d="M352.773,162.572v.314a8.832,8.832,0,0,0,4.186.241c2.111-.468,2.5-1.417,2.5-1.417l-.044-.5s.438-.146.877.606a16.55,16.55,0,0,0,1.373,1.863,4.119,4.119,0,0,1-3.828,3.068c-5.545.679-7.5-1.775-7.5-1.775C351.231,163.879,352.2,162.513,352.773,162.572Z" transform="translate(-311.193 -138.509)" fill="#1565c0"/><g transform="translate(39.147 22.685)" opacity="0.35"><path d="M352.773,162.572v.314a8.832,8.832,0,0,0,4.186.241c2.111-.468,2.5-1.417,2.5-1.417l-.044-.5s.438-.146.877.606a16.55,16.55,0,0,0,1.373,1.863,4.119,4.119,0,0,1-3.828,3.068c-5.545.679-7.5-1.775-7.5-1.775C351.231,163.879,352.2,162.513,352.773,162.572Z" transform="translate(-350.34 -161.194)"/></g><path d="M304.567,180.94c1.147.511,14.691,10.519,16.8,9.358s12.47-13.945,12.47-13.945a9.081,9.081,0,0,0,.475-9.372,7.364,7.364,0,0,0-6.18,3.229c-1.929,2.674-8.868,11.893-8.868,11.893-2.44-.731-8.657-4.084-10.227-4.967a5.654,5.654,0,0,1-1.22-.731c-.767-.731-.862-2.243-.847-3.236a12.662,12.662,0,0,1,.073-1.4c.066-.57.168-1.965-.855-1.519a1.256,1.256,0,0,0-.489.409,2.294,2.294,0,0,0-.365.73c-.19.6-.131,1.256-.307,1.863a.569.569,0,0,1-.124.248.438.438,0,0,1-.329.095c-1.461-.044-2.922-2.133-3.587-3.243a3.061,3.061,0,0,0-1.132-1.293,2.024,2.024,0,0,0-2.323.9,4.726,4.726,0,0,0-.73,3.287,6.575,6.575,0,0,0,1.95,4.127,20.17,20.17,0,0,0,5.815,3.565Z" transform="translate(-296.751 -140.068)" fill="#f28f8f"/><path d="M341.056,166.748c-2.323-.2-4.091-.9-7.261,3.411s-8.306,11.688-8.306,11.688l-2.4-.833a9.009,9.009,0,0,0-2.973,5.9s2.922,2.133,4.383,2.922,3,1.461,4.266.343,12.053-13.967,12.053-13.967A9.139,9.139,0,0,0,341.056,166.748Z" transform="translate(-303.049 -139.961)" fill="#1565c0"/><g transform="translate(17.071 26.62)" opacity="0.35"><path d="M341.056,166.748c-2.323-.2-4.091-.9-7.261,3.411s-8.306,11.688-8.306,11.688l-2.4-.833a9.009,9.009,0,0,0-2.973,5.9s2.922,2.133,4.383,2.922,3,1.461,4.266.343,12.053-13.967,12.053-13.967A9.139,9.139,0,0,0,341.056,166.748Z" transform="translate(-320.12 -166.58)"/></g><path d="M321.967,185.813l-2.842-1.373a9.037,9.037,0,0,0-3.185,5.318l3.054,1.958A10.709,10.709,0,0,1,321.967,185.813Z" transform="translate(-301.923 -144.774)" fill="#455a64"/><g transform="translate(21.276 41.668)" opacity="0.1"><path d="M327.041,187.385a9.4,9.4,0,0,0-1.161,3.127,8.59,8.59,0,0,1,.584-3.331" transform="translate(-325.876 -187.18)"/></g><path d="M347.74,159.263c.446.438,2.608.519,4.084.256l-.073-.9a6.019,6.019,0,0,1-4.01.643Z" transform="translate(-310.492 -137.815)" fill="#b16668"/></g><g transform="translate(150.55 174.328)"><ellipse cx="23.939" cy="13.821" rx="23.939" ry="13.821" transform="translate(13.993 108.436)" opacity="0.1"/><path d="M281.77,205.507c3.952-.446,5.464.73,6.94,3.989,1.41,3.127,5.705,12.55,5.486,14.749s-9.2,11.549-9.2,11.549l-2.564-3.119,5.559-9.343L283.6,213.9Z" transform="translate(-236.161 -179.932)" fill="#b16668"/><path d="M270.89,200.831l.745,7.758,6.933-.431-.555-8.6Z" transform="translate(-233.229 -178.354)" fill="#b16668"/><path d="M258.724,178.091a3.447,3.447,0,0,1,0-1.1,3.3,3.3,0,0,1,4.383-2.52,3.251,3.251,0,0,1,1.841-3.55,4.113,4.113,0,0,1,3.192.124,2.513,2.513,0,0,1,1.388,1.191,3.492,3.492,0,0,1,6.37.862,2.806,2.806,0,0,1,3.017,1.278c.541,1.2-.117,2.674.131,3.923.153.8.5,1.571.65,2.389a19.507,19.507,0,0,1,.263,2.769c.146,3.828-8.766,6.319-8.569,8.941l-4.734-5.764c0-.241-.672-.84-.825-1.037-.278-.38-.533-.789-.8-1.191a7.429,7.429,0,0,0-3.265-2.608,6.013,6.013,0,0,1-2.33-1.914A4.143,4.143,0,0,1,258.724,178.091Z" transform="translate(-229.938 -170.531)" fill="#263238"/><path d="M263.35,189.65s-1.534,2.279-1.337,2.52a3.792,3.792,0,0,0,1.176.5Z" transform="translate(-230.832 -175.684)" fill="#9a4a4d"/><path d="M268.452,179.539c-1.461.731-4.069,2.192-4.734,7.561-.679,5.545.577,7.473,1.344,8.2.519.489,3.2.665,4.6.241,1.746-.533,5.537-2.374,7.305-5.238,2.089-3.368,2.52-7.86.11-9.621A9.146,9.146,0,0,0,268.452,179.539Z" transform="translate(-231.244 -172.798)" fill="#b16668"/><path d="M265.83,201.211a7.963,7.963,0,0,0,3.74.3l-.044-1a9.729,9.729,0,0,1-1.768.577A6.275,6.275,0,0,1,265.83,201.211Z" transform="translate(-231.865 -178.61)" fill="#9a4a4d"/><path d="M268.462,178.947a5.845,5.845,0,0,0-1.739,1,2.382,2.382,0,0,0-.614.789,1.768,1.768,0,0,0-.124.891,2.359,2.359,0,0,0,1.4,1.929,2.345,2.345,0,0,0-.38,1.936,4.617,4.617,0,0,0,1.366,1.965.328.328,0,0,0,.117.088.343.343,0,0,0,.248-.073c.935-.628,1.512-1.709,2.842-1.278,1.739.57,1.651,2.717.285,4.054a2.922,2.922,0,0,1-1.812.862,1.417,1.417,0,0,1-.957-.336,4.593,4.593,0,0,0,2.476,3.908,9.657,9.657,0,0,0,5.2.058c.913-1.161,2.454-2.652,3.718-3.989,4.179-4.383,4.383-10.753-1.739-12.769l-.643-.19a13.025,13.025,0,0,0-6.049-.131,13.287,13.287,0,0,0-2.885.972C268.915,178.75,268.7,178.845,268.462,178.947Z" transform="translate(-231.904 -172.374)" fill="#263238"/><path d="M268.783,192.936a1.278,1.278,0,0,1-.811-1.651,1.315,1.315,0,0,1,1.68-.774Z" transform="translate(-232.422 -175.894)" fill="#263238"/><path d="M264.193,339.51s.4,1.235.628,2.316a6.194,6.194,0,0,1,.117,2.922c-.307.621-1.461,1.067-3.295,1.052a11.277,11.277,0,0,0-4.274,1.461,11.294,11.294,0,0,1-5.369.855c-1.622-.19-3.3-1.132-3.565-1.8s-.482-1.592,3.908-3c0,0,5.3-1.731,7.152-3.769Z" transform="translate(-227.146 -216.069)" fill="#263238"/><path d="M265.292,339.64l-.84-.11-3.857.08c-1.848,2.038-7.115,3.755-7.152,3.769-.256.08-.482.153-.731.234-.767.614-.117,1.658,1.688,1.819s7.451-1.731,8.693-2.338a3.718,3.718,0,0,0,2.2-3.455Z" transform="translate(-228.245 -216.075)" fill="#b16668"/><path d="M268.317,337.41v1.658c0,.606-.73,1.5-2.549,1.461-1.3-.044-2.192-.394-2.148-1.461v-1.534Z" transform="translate(-231.269 -215.503)" fill="#b16668"/><path d="M283.489,327.691c.329.139.4.774.416,2.045,0,.964.175,2.644-.964,2.922s-2.776.088-3.47-.84a42.846,42.846,0,0,0-2.7-3.572c-1.081-1.227-2.257-2.381-2.666-4.069-.365-1.527,0-2.192,1.037-2.586s1.994-.073,3.441,1.132a6.387,6.387,0,0,0,1.286.679C280.815,323.746,283.153,327.567,283.489,327.691Z" transform="translate(-234.059 -211.197)" fill="#263238"/><path d="M285.426,327.817v1.563s-1.045,2.038-3.945,0c-.066-.153-.321-3.17-.321-3.17Z" transform="translate(-235.997 -212.485)" fill="#b16668"/><path d="M280.489,323.893a6.38,6.38,0,0,1-1.286-.679h0c-1.169-.372-3.653.058-2.52,1.761a13.236,13.236,0,0,0,3.47,3.565c1.315.643,1.775-.161,1.775-.161l-.468-3.653A2.924,2.924,0,0,0,280.489,323.893Z" transform="translate(-234.712 -211.644)" fill="#b16668"/><path d="M281.5,283.029a37,37,0,0,0-1.687-8.036s.986-6.874,1.753-13.478c1.819-15.494.606-15.75-1.585-21.134,0,0-19.863-2.557-20.7,5.705-1.03,10.293-.563,30.236-.387,33.888s.468,5.3,1.549,12.945c.826,5.844,1.607,18.533,1.607,18.533a5.011,5.011,0,0,0,5.114-.256s2.484-15.648,2.433-19.855a35.876,35.876,0,0,0-1.352-9.212s1.688-16.765,2.126-19.432c0,0,.475,5.347.65,8.993s1.161,7.159,2.031,13.953c.73,5.9,2.016,18.2,2.016,18.2a5.527,5.527,0,0,0,4.42.818S282.074,288.136,281.5,283.029Z" transform="translate(-229.926 -189.255)" fill="#1565c0"/><g transform="translate(28.539 50.754)" opacity="0.4"><path d="M281.5,283.029a37,37,0,0,0-1.687-8.036s.986-6.874,1.753-13.478c1.819-15.494.606-15.75-1.585-21.134,0,0-19.863-2.557-20.7,5.705-1.03,10.293-.563,30.236-.387,33.888s.468,5.3,1.549,12.945c.826,5.844,1.607,18.533,1.607,18.533a5.011,5.011,0,0,0,5.114-.256s2.484-15.648,2.433-19.855a35.876,35.876,0,0,0-1.352-9.212s1.688-16.765,2.126-19.432c0,0,.475,5.347.65,8.993s1.161,7.159,2.031,13.953c.73,5.9,2.016,18.2,2.016,18.2a5.527,5.527,0,0,0,4.42.818S282.074,288.136,281.5,283.029Z" transform="translate(-258.635 -240.008)"/></g><g transform="translate(40.444 63.458)" opacity="0.15"><path d="M274.7,267.335l.95-7.247a12.47,12.47,0,0,0,7.714-2.688s-1.3,2.652-6.575,3.806l-1.023,7.458-.38,8.211Q275.124,272.083,274.7,267.335Z" transform="translate(-274.7 -257.4)"/></g><path d="M280.725,208.747c-.679-2-2.053-3.178-5.114-3.207h-.541c-.212,1.118-3.777,2.133-7.013.986-.446.088-1.987.256-2.7.351l-1.541.226c-2.352.774-3.4,4.858-3.653,11.338S259,238.785,259,238.785s5.062,2.71,13.047,1.666a18.406,18.406,0,0,0,10.074-4.609,70.04,70.04,0,0,0-4.084-10.4C281.828,216.2,281.726,211.72,280.725,208.747Z" transform="translate(-230.025 -179.966)" fill="#455a64"/><path d="M271.48,244.056a28.3,28.3,0,0,0,3.959-.234,17.4,17.4,0,0,0,10.066-4.624,67.792,67.792,0,0,0-4.076-10.366,42.72,42.72,0,0,0,3.127-10.782c-.278,1.914-3.2,9.46-6.925,11.652a6.67,6.67,0,0,1,3.923,2.82C283.358,235.02,281.875,243.523,271.48,244.056Z" transform="translate(-233.388 -183.337)" fill="#37474f"/><path d="M254.7,207.39c-3.112.394-5.581,1.045-6.94,4.018-2.308,5.041-4.8,9.175-6.618,11.118-1.936,2.075-9.884,5.735-11.688,5.442s-3.58-2.352-4.5-1.819.782,2.528.672,2.98-3.36.212-4.894-.877-2.1,1.154-.117,3.485,5.72,2.513,9.767,1.695,11.688-2.922,14.815-5.508a25.124,25.124,0,0,0,6.655-8.24C257.669,213.68,254.7,207.39,254.7,207.39Z" transform="translate(-219.336 -180.464)" fill="#b16668"/></g><g transform="translate(130.916 97.199)"><ellipse cx="22.405" cy="12.93" rx="22.405" ry="12.93" transform="translate(0.863 107.919)" opacity="0.1"/><path d="M226.861,95.288c3.375-.073,4.054.665,6.377,5.318,1.87,3.748,4.127,8.174,5.574,9.84,3.178.453,9.708.942,12.2.541a1.892,1.892,0,0,0,1.162-.657,10.9,10.9,0,0,1,2.425-1.907c.731-.511.95-.993,1.147-.9a.964.964,0,0,1,.292,1.3,7.136,7.136,0,0,1-.993,1.33,17.529,17.529,0,0,0,3.368-.935c2.133-.884,3.28-.307,2.6,2.469-.387,1.578-1.746,2.761-6,3.6a25.81,25.81,0,0,1-3.93.511H236.92a4.383,4.383,0,0,1-2.571-1.461c-4.712-5.472-7.006-10.3-9.058-13.836Z" transform="translate(-201.307 -73.124)" fill="#ffbda7"/><path d="M227.44,95.273c2.6-.168,3.916.073,4.756,1.461,1.972,3.346,6.275,12.813,7.305,13.368.811.438,11.63.913,11.63.913-.533.562-.767,3.733.241,4.748,0,0-11.513.548-13.712.46-1.176-.044-2.148-.8-3.17-2.009s-6.735-8.109-6.735-8.109Z" transform="translate(-201.886 -73.108)" fill="#00397a"/><g transform="translate(8.285 22.07)"><path d="M209.586,123.895c-.847,1.176-3.653,3.309-4.982,8.423-2.192,8.525.8,27.6.8,27.6-.117,1.235-.256,3.148-.833,8.6-.687,6.436,1.5,23.464,1.5,23.464a4.624,4.624,0,0,0,4.463.248s3.141-24.655,4.01-31.054c.731-5.581,1.907-17.971,1.907-17.971l3.068,17.2s-.482,3.134-.73,5.515c-.4,3.762,3.09,22.712,3.09,22.712a5.187,5.187,0,0,0,4.157-.044s1.249-24.107,1.629-28.651c.394-4.668-.11-15.874-.928-24.545-.241-2.615-1.052-9.54-1.5-11.783Z" transform="translate(-203.8 -102.827)" fill="#37474f"/><path d="M233.2,212.285c.153.957,1.052,2.864,4.208,5.187.577.424,1.578,1.183,2.045,1.461,2.06,1.359,3.024,1.834,2.4,2.834s-2.038,1.3-3.85,1.293a8.3,8.3,0,0,1-4.8-1.936,9.555,9.555,0,0,0-3.448-2.089c-1.286-.336-2.805-1.125-2.922-1.819a7.525,7.525,0,0,1,.124-2.681,9.991,9.991,0,0,0,.307-1.987c0-.789-.11-2.535-.292-4.208s-.636-3.58,0-3.74l.117.73s.548.621,2.52.526a6.282,6.282,0,0,0,2.812-.614l.037-.6s.541-.11.511.5S233.047,211.328,233.2,212.285Z" transform="translate(-209.956 -124.653)" fill="#263238"/><path d="M211.36,217.765c-.044.957,0,1.461,0,2.922a34.139,34.139,0,0,0,.46,5.435c.307,2.192.416,3.375-.628,5.537s-3.653.833-4.551-.438a5.841,5.841,0,0,1-1.205-4.383c.08-1.972.533-2.827.6-5.23.066-2.25.234-3.163.212-3.967s-.329-3.748-.4-4.383a.845.845,0,0,1,.263-.847l.08.687s.424.767,2.469.731a4.4,4.4,0,0,0,2.718-.643l.088-.679s.358.175.278.789S211.411,216.808,211.36,217.765Z" transform="translate(-204.238 -126.758)" fill="#263238"/><path d="M221.11,147.8l.818-5.282a13.149,13.149,0,0,0,6.239-1.958,7.933,7.933,0,0,1-5.238,2.871l-.526,4.726,1.4,14.771Z" transform="translate(-208.465 -107.395)" fill="#263238"/><path d="M226.3,109.478c-.095,1.549.241,6.494.241,6.494-6.385,4.237-15.648.285-15.648.285l-1.95-8.569s-1.461-7.59,2.192-11.849l3.6-.248,5.917-.431,1.753.095a22.391,22.391,0,0,1,5.252,6.925C228.273,103.78,229.149,106.183,226.3,109.478Z" transform="translate(-205.109 -95.16)" fill="#455a64"/></g><path d="M220.912,84.936h0c-4.025,0-11.14-4.171-11.082-10.709h0c.051-5.209,3.653-9.329,8.854-9.277h1.1a10.118,10.118,0,0,1,5.808,1.731c4.719-.365,7.575,6.341,1.965,8.649C224.265,77.7,221.007,77.288,220.912,84.936Z" transform="translate(-197.14 -64.949)" fill="#263238"/><path d="M209.231,69.592a2.411,2.411,0,0,0-2.031-.446,4.873,4.873,0,0,0-2.469,1.059,8.357,8.357,0,0,0-2.871,4.916,48.467,48.467,0,0,0-.511,5.355,11.133,11.133,0,0,1-1.461,5.114c-.27.416-.6.935-.351,1.373a1.125,1.125,0,0,0,.621.431,4.683,4.683,0,0,0,4.142-.526,4.778,4.778,0,0,0,2.192-3.777,11.089,11.089,0,0,0-.11-2.725,20.913,20.913,0,0,1,0-6.509c.234-1.037.774-2.192,1.987-2.235Z" transform="translate(-194.343 -66.063)" fill="#263238"/><path d="M213.361,66.087l-.833,2.411a1.242,1.242,0,0,1-.833-1.593,1.344,1.344,0,0,1,1.666-.818Z" transform="translate(-197.626 -65.239)" fill="#263238"/><path d="M210.7,66.54l1.41,2.126a1.242,1.242,0,0,1-1.768-.307A1.344,1.344,0,0,1,210.7,66.54Z" transform="translate(-197.222 -65.377)" fill="#263238"/><path d="M226.408,71.17c1.052.628,2.33,3.295,2.148,8.846-.153,4.712-1.687,5.844-2.462,6.187s-2.243.11-3.653-.146v2.827s1.965,2.323,1.826,3.653-2.878,1.571-4.726.292a12.09,12.09,0,0,1-3.024-3.222l.073-7.305s-.8.825-2.192-.139a2.571,2.571,0,0,1-.628-3.733,1.907,1.907,0,0,1,2.922.373,14.216,14.216,0,0,0,5-1.8A9.811,9.811,0,0,0,226.408,71.17Z" transform="translate(-198.057 -66.625)" fill="#ffbda7"/><path d="M225.864,81.372a.606.606,0,0,1-.57.636.614.614,0,0,1-.051-1.227.606.606,0,0,1,.621.592Z" transform="translate(-201.135 -69.215)" fill="#263238"/><path d="M226.6,86.54l1.782.584a.92.92,0,0,1-1.169.636.986.986,0,0,1-.614-1.22Z" transform="translate(-201.649 -70.767)" fill="#f0997a"/><path d="M233.081,78.741l-1.191-.855a.731.731,0,0,1,.993-.19A.767.767,0,0,1,233.081,78.741Z" transform="translate(-203.085 -68.352)" fill="#263238"/><path d="M232.662,80.847a.606.606,0,0,1-.57.636.621.621,0,1,1,.57-.636Z" transform="translate(-202.959 -69.07)" fill="#263238"/><path d="M228.62,80.56l.066,3.565,1.877-.562Z" transform="translate(-202.204 -69.156)" fill="#f0997a"/><path d="M223.924,90.677c-1.519-.212-4.624-1.132-5.114-2.367a3.163,3.163,0,0,0,1.081,1.578,16.431,16.431,0,0,0,4,1.731Z" transform="translate(-199.561 -71.244)" fill="#f0997a"/><path d="M193.066,116.121c1.015-3.813,5.252-12.141,6.465-15.2,1.381-3.492,3.711-4.712,6.217-4.719.913,1.2,1.242,7.174-1.629,10.57-1.235,2.535-4.924,9.628-4.924,9.628a113.132,113.132,0,0,0,3.594,11.929,1.878,1.878,0,0,0,.95.92,19.116,19.116,0,0,1,3.3,2.44c.694.548,1.227.636,1.176.847a1.008,1.008,0,0,1-1.213.628,16.3,16.3,0,0,1-2.192-.913A27.377,27.377,0,0,0,207,135.3c1.461,1.746,1.461,3.236-1.5,3.258-2.192,0-3.375-1.249-5.311-5.07-.555-1.1-1.4-2.725-2.067-4.142-1.68-3.572-2.506-5.114-3.419-7.364C193.234,118.386,192.679,117.6,193.066,116.121Z" transform="translate(-192.59 -73.37)" fill="#ffbda7"/><path d="M199.37,116.4l4.946-9.365a16.9,16.9,0,0,0,2.425-10.958c-2.776-.058-4.829.175-6.45,2.513s-6.9,15.275-7.459,16.867a3.605,3.605,0,0,0,.088,3.36c1.191,2.878,5.223,10.855,5.223,10.855a4.121,4.121,0,0,1,3.894-3.024Z" transform="translate(-192.459 -73.335)" fill="#00397a"/></g><g transform="translate(68.402 125.361)"><ellipse cx="23.223" cy="13.412" rx="23.223" ry="13.412" transform="translate(6.646 108.911)" opacity="0.1"/><path d="M171.694,125.835c-.73-5.705-4.5-5.464-5.479-5.333-1.118.161-1.629.957-.92,4.01a10.605,10.605,0,0,1,.256,2.089c0,.3.146.928-.1,1.161-.38.351-.979-.687-1.154-.95a1.782,1.782,0,0,0-1.074-.913.453.453,0,0,0-.482.153.592.592,0,0,0,0,.46,16.444,16.444,0,0,0,1.541,4.018,9.534,9.534,0,0,1,.731,1.5,2.922,2.922,0,0,1-.226,2.192c-.139.336-.285.665-.424.993l-3.1,6.655s-5.844-6.874-7.393-8.584c-2.024-2.192-3.419-2.608-6.472-2.608L151.2,144.4s2.615,2.476,5.625,5.114c4.675,4.127,6.224,3.748,7.356,3.368s2.279-2.389,3.185-5.566c1.337-4.653,2.7-10.914,2.7-10.914h0c.175-.57.329-1.1.446-1.571C171.015,132.688,172,128.158,171.694,125.835Z" transform="translate(-117.799 -108.07)" fill="#ffa8a7"/><path d="M165.624,149.433c-1.14,2.038-1.673,2.659-1.724,5.844a10.526,10.526,0,0,1-.183-3.4,5.749,5.749,0,0,1,1.235-3.28Z" transform="translate(-122.182 -115.654)" fill="#f28f8f"/><path d="M146.64,134.369c1.914-.095,4.135,0,5.384.986a35.845,35.845,0,0,1,4.164,4.332c1.118,1.264,4.339,5.194,4.339,5.194a13.69,13.69,0,0,0-4.164,8.445l-9.19-9.007Z" transform="translate(-117.597 -111.812)" fill="#37474f"/><path d="M124.133,263.507l4.69-.124L129.9,253.17l-5.924-.08Z" transform="translate(-111.49 -143.813)" fill="#ffa8a7"/><path d="M148.24,256.25c.833,1.366,3.39,1.183,5.515.636V246.878l-6.275-.088Z" transform="translate(-117.823 -142.116)" fill="#ffa8a7"/><path d="M124.857,178.76c-.051,4.332-.226,29.593-.226,29.593-.124,1.249-1.351,3.448-1.5,7.941-.219,6.509.555,20.776.555,20.776a7.466,7.466,0,0,0,5.588.183s3.338-20.586,4.237-27.029c.782-5.618,3-20.315,3-20.315l2.82,19.169a32.3,32.3,0,0,0-.343,6.918c.175,2.98,2.265,17.452,2.265,17.452a10.38,10.38,0,0,0,6,0s.811-22.565.9-25.3c.1-3.119-.73-30.6-.73-30.6Z" transform="translate(-111.249 -123.454)" fill="#1565c0"/><g transform="translate(11.379 54.086)" opacity="0.4"><path d="M124.857,178.76c-.051,4.332-.226,29.593-.226,29.593-.124,1.249-1.351,3.448-1.5,7.941-.219,6.509.555,20.776.555,20.776a7.466,7.466,0,0,0,5.588.183s3.338-20.586,4.237-27.029c.782-5.618,3-20.315,3-20.315l2.82,19.169a32.3,32.3,0,0,0-.343,6.918c.175,2.98,2.265,17.452,2.265,17.452a10.38,10.38,0,0,0,6,0s.811-22.565.9-25.3c.1-3.119-.73-30.6-.73-30.6Z" transform="translate(-123.087 -177.54)"/></g><g transform="translate(25.252 62.626)" opacity="0.2"><path d="M141.45,193.065a20.009,20.009,0,0,0,6.794-3.835,13.278,13.278,0,0,1-4.9,4.383l.65,16.8Z" transform="translate(-141.45 -189.23)"/></g><path d="M134.018,275.778a2.14,2.14,0,0,1-.08,1.461,4.515,4.515,0,0,1-3.207,1.3,7.78,7.78,0,0,1-4.573-.862,3.2,3.2,0,0,1-1.68-2.528,7.353,7.353,0,0,0-.453-2.886c-.453-.818-1.183-1.607-1.337-2.016a4.149,4.149,0,0,1,0-2.148Z" transform="translate(-111.104 -147.858)" fill="#263238"/><path d="M129.09,265.179a4.047,4.047,0,0,0,.2,1.176,10.791,10.791,0,0,0,1.1,2.33,8.617,8.617,0,0,0,.731,1.1c.548.672,1.235,1.227,1.819,1.877a3.769,3.769,0,0,1,1.11,2.286c.058,1.461-1.519,1.921-2.732,2.118a8.853,8.853,0,0,1-3.937-.248,3.653,3.653,0,0,1-2.615-2.922c-.058-.4,0-.818-.073-1.22a5.625,5.625,0,0,0-1.1-2.549,7.816,7.816,0,0,1-.847-1.4,4.348,4.348,0,0,1,.2-2.8c.219-.774.46-1.644.73-1.563a.729.729,0,0,0,.285.731c.285.292.365.862.73,1.169a5.114,5.114,0,0,1-.256-1.03.57.57,0,0,1,.088-.409,1.125,1.125,0,0,1,.446-.234,9.191,9.191,0,0,1,1.768-.38,5.208,5.208,0,0,1,1.717,0,.731.731,0,0,1,.431.256.818.818,0,0,1,.146.5A7.484,7.484,0,0,1,129.09,265.179Z" transform="translate(-111.113 -146.523)" fill="#455a64"/><path d="M131.7,270.712a4.186,4.186,0,0,0-2.4-.373,4.113,4.113,0,0,0-1.892.635.424.424,0,0,1-.555-.051h0a.4.4,0,0,1,.051-.614,4.047,4.047,0,0,1,2.126-.73,4.237,4.237,0,0,1,2.1.19S131.865,270.23,131.7,270.712Z" transform="translate(-112.23 -148.242)" fill="#f5f5f5"/><path d="M133.291,272.789a5.114,5.114,0,0,0-2.666-.307,3.653,3.653,0,0,0-1.834.672.438.438,0,0,1-.555-.051h0a.409.409,0,0,1,.051-.621,4.23,4.23,0,0,1,2.192-.818c1.629-.095,2.053.248,2.053.248a1.322,1.322,0,0,1,.76.877Z" transform="translate(-112.605 -148.814)" fill="#f5f5f5"/><path d="M128.179,267.4a4.047,4.047,0,0,1,2.045.2c.285.168.468.621.285.73a3.843,3.843,0,0,0-1.812-.27,5.509,5.509,0,0,0-1.768.46l-.453.226a.387.387,0,0,1-.489-.19h0a.358.358,0,0,1,.146-.46A5.114,5.114,0,0,1,128.179,267.4Z" transform="translate(-112.022 -147.656)" fill="#f5f5f5"/><path d="M164.452,266.972a1.782,1.782,0,0,1,0,1.308c-.153.387-2.06,1.658-4.748,1.673a11.154,11.154,0,0,1-5.683-1.527,6.378,6.378,0,0,0-3.477-.621c-1.33,0-3.119-.511-3.455-1.11a2.959,2.959,0,0,1-.08-1.695Z" transform="translate(-117.672 -147.023)" fill="#263238"/><path d="M152.994,257.311l.212-.058a.833.833,0,0,1,.351-.044.68.68,0,0,1,.351.2,7.009,7.009,0,0,1,.731,1.023,7.876,7.876,0,0,0,3.207,2.14c.906.409,1.79.731,2.725,1.052a21.578,21.578,0,0,1,2.922.942,1.936,1.936,0,0,1,.226,3.185,9.5,9.5,0,0,1-6.575.95c-1.585-.329-3.433-1.863-5.486-1.87-1.3,0-3.777-.19-4.69-1.11-.336-.409,0-1.826.219-3.046s.08-3.309.672-3.3l.058.665c.058.2.526.373.679.526l.541.541a2.536,2.536,0,0,0,.789.606,2.586,2.586,0,0,0,1.688-.1l-.336-1.1a.424.424,0,0,1,0-.248.35.35,0,0,1,.146-.2,4.208,4.208,0,0,1,1.571-.752Z" transform="translate(-117.647 -144.923)" fill="#455a64"/><path d="M158.984,260.79a1.22,1.22,0,0,0-1.008-.57,3.477,3.477,0,0,0-2.192,1.03.482.482,0,0,0,.132.789h0a.482.482,0,0,0,.548-.1,3.652,3.652,0,0,1,2.52-1.147Z" transform="translate(-120.02 -145.735)" fill="#f5f5f5"/><path d="M161.439,262a1.388,1.388,0,0,0-1.176-.5,4.383,4.383,0,0,0-2.425,1.118.475.475,0,0,0,.124.767h0a.446.446,0,0,0,.526-.1A3.747,3.747,0,0,1,161.439,262Z" transform="translate(-120.576 -146.078)" fill="#f5f5f5"/><path d="M164.323,263.084a1.563,1.563,0,0,0-1.22-.446,4.149,4.149,0,0,0-2.316,1.118.482.482,0,0,0,.124.774h0a.475.475,0,0,0,.526-.1,3.521,3.521,0,0,1,2.885-1.344Z" transform="translate(-121.371 -146.385)" fill="#f5f5f5"/><path d="M134.028,134.553c-1.731.161-3.777.234-5.428.424-2.126.241-3.821,2.4-4.383,5.793-.636,3.733,1.556,14.508,1.556,14.508l-1.015,12.645c3.075,2.345,16.3,3.784,22.989-.862,0,0,.226-21.543-.226-24.837-.636-4.558-1.687-7.407-6.816-7.824Z" transform="translate(-111.523 -111.828)" fill="#455a64"/><path d="M108.963,161.623s3.7,5.464,5.844,7.9c1.5,1.688,4.792,5.172,6.925,6.246,5.289,2.666,7.261-.643,7.714-1.556.519-1.045.131-1.936-2.871-3.112a10.672,10.672,0,0,1-1.921-1c-.307-.2-1.308-.679-.8-1.11a1.088,1.088,0,0,1,.57-.2l1.417-.2a1.921,1.921,0,0,0,.884-.292.636.636,0,0,0,.212-.818.935.935,0,0,0-.73-.3c-1.644-.146-3.295-.219-4.946-.234-.336,0-.913.139-1.191-.044a2.719,2.719,0,0,1-.438-.431c-.234-.329-.453-.665-.679-1.008-.6-.906-1.183-1.826-1.768-2.747-.8-1.264-2.192-3.916-2.966-5.187l7.6-10.958s3.185-4.215,1.775-10.958c0,0-3.346,0-5.347,1.958s-10.768,16.144-11.191,17.773S106.924,158.541,108.963,161.623Z" transform="translate(-106.882 -112.154)" fill="#ffa8a7"/><path d="M117.921,154.614l4.222-6.049a10.775,10.775,0,0,0,3.141-5.289c.73-3.653.307-7.261-.263-8.087-6.187.248-5.793,1.388-9.92,7.765-1.593,2.462-2.732,4.42-4.281,6.947A9.38,9.38,0,0,0,117.921,154.614Z" transform="translate(-107.943 -112.041)" fill="#37474f"/><path d="M132.19,120.62s1.461,4.449,1.958,5.369a1.8,1.8,0,0,0,1.424,1.03v-3.2Z" transform="translate(-113.702 -108.114)" fill="#263238"/><path d="M134.119,110.758a2.506,2.506,0,0,0-2.856,1.045c-.643.957-.833,3.134,1.461,8.408l1.885-2Z" transform="translate(-113.338 -105.426)" fill="#263238"/><path d="M135.023,117.515a2.7,2.7,0,0,0-.789-1.227,1.994,1.994,0,0,0-3.039.6c-.8,1.571.65,3.506,1.724,4.1a1.593,1.593,0,0,0,2.148-.343l.161,7.225h0c.665,1.461,3.558,2.674,5.245,2.411,1.351-.2,2.571-1.308,1.322-2.82l.044-2.067a12.659,12.659,0,0,0,2.71.2,3.707,3.707,0,0,0,2.922-2.922c.782-2.564,1.1-4.631.606-9.708-.541-5.566-6.991-5.771-10.527-3.653S135.023,117.515,135.023,117.515Z" transform="translate(-113.373 -104.731)" fill="#ffa8a7"/><path d="M150.968,105.984a2.192,2.192,0,0,0-.665-2.045c-.731-.65-1.921-.482-3.061-.1a12.068,12.068,0,0,1-5.282,1.045c-1.571,0-3.653-.292-5.194.475-1.775.877-2.433,1.914-2.528,3.156-.037.394.343.731.446,1.1a2.864,2.864,0,0,1,.219,1.03c-.066.621-.183,1.235-.248,1.848a13.584,13.584,0,0,0-.1,1.8.972.972,0,0,0,.46.731,2.768,2.768,0,0,1,.8,1.1c.139.256.278.906.541,1.074.789.526.825-1.242.855-1.578a18.588,18.588,0,0,0-.073-2.345,2.812,2.812,0,0,0,2.045-1.008,2.41,2.41,0,0,0,.482-1.162,3.932,3.932,0,0,0,.044-.731,3.609,3.609,0,0,0,2.615.891,2.71,2.71,0,0,0,2.265-1.045,3.652,3.652,0,0,0,1.162,1.052,4.281,4.281,0,0,0,2.535.307,2.579,2.579,0,0,0,1.877-1.461,2.44,2.44,0,0,0-.278-2.506,2.7,2.7,0,0,0,1.088-1.629Z" transform="translate(-114.254 -103.501)" fill="#263238"/><path d="M133.552,110.58l-2.192-1.249a1.235,1.235,0,0,1,1.7-.519,1.337,1.337,0,0,1,.489,1.768Z" transform="translate(-113.479 -104.89)" fill="#263238"/><path d="M143.637,130.715a25.084,25.084,0,0,1-4.434-1.381,3.893,3.893,0,0,1-1.563-1.614,5.289,5.289,0,0,0,.869,1.885c.818,1.1,5.114,1.994,5.114,1.994Z" transform="translate(-115.171 -110.028)" fill="#f28f8f"/><path d="M144.766,120.145a.446.446,0,1,0-.007,0Z" transform="translate(-116.702 -107.741)" fill="#263238"/><path d="M143.828,117l-1.461.774a.869.869,0,0,1,.373-1.154.8.8,0,0,1,1.088.38Z" transform="translate(-116.421 -107.013)" fill="#263238"/><path d="M145.241,126l2.126.855a1.118,1.118,0,0,1-1.461.672,1.191,1.191,0,0,1-.665-1.527Z" transform="translate(-117.199 -109.564)" fill="#f28f8f"/><path d="M152.908,117.286l-1.308-1.059a.8.8,0,0,1,1.162-.153.884.884,0,0,1,.146,1.213Z" transform="translate(-118.933 -106.84)" fill="#263238"/><path d="M152.413,119.82a.7.7,0,1,1-.672-.731.731.731,0,0,1,.672.731Z" transform="translate(-118.774 -107.702)" fill="#263238"/><path d="M148.26,119.1l.132,4.325,2.272-.723Z" transform="translate(-118.033 -107.705)" fill="#f28f8f"/></g><g transform="translate(65.887 73.48)"><g transform="translate(0 19.729)"><path d="M104.791,96.073l-.993-.57a.8.8,0,0,1-.358-.628V75.663a.8.8,0,0,1,.358-.628l26.737-15.458a.789.789,0,0,1,.731,0l.986.57a.8.8,0,0,1,.365.628V79.987a.782.782,0,0,1-.365.628L105.522,96.073A.789.789,0,0,1,104.791,96.073Z" transform="translate(-103.44 -59.487)" fill="#fb8c00"/><g transform="translate(0)" opacity="0.4"><path d="M104.791,96.073l-.993-.57a.8.8,0,0,1-.358-.628V75.663a.8.8,0,0,1,.358-.628l26.737-15.458a.789.789,0,0,1,.731,0l.986.57a.8.8,0,0,1,.365.628V79.987a.782.782,0,0,1-.365.628L105.522,96.073A.789.789,0,0,1,104.791,96.073Z" transform="translate(-103.44 -59.487)" fill="#fff"/></g><path d="M106.145,76.411l26.729-15.428a.225.225,0,0,1,.365.2V80.4a.782.782,0,0,1-.365.628L106.145,96.486a.227.227,0,0,1-.365-.212V77.054A.826.826,0,0,1,106.145,76.411Z" transform="translate(-104.071 -59.878)" fill="#fb8c00"/><path d="M105.434,101.945a.8.8,0,0,1-.65-.037l-.979-.57a.8.8,0,0,1-.365-.628V81.5a.731.731,0,0,1,.1-.358l1.717.986a.782.782,0,0,0-.11.358V101.7C105.149,101.894,105.266,102,105.434,101.945Z" transform="translate(-103.44 -65.322)" fill="#fb8c00"/><g transform="translate(0 15.818)" opacity="0.15"><path d="M105.434,101.945a.8.8,0,0,1-.65-.037l-.979-.57a.8.8,0,0,1-.365-.628V81.5a.731.731,0,0,1,.1-.358l1.717.986a.782.782,0,0,0-.11.358V101.7C105.149,101.894,105.266,102,105.434,101.945Z" transform="translate(-103.44 -81.14)"/></g><path d="M110.926,82.672l19.614-11.345c.336-.2.606-.058.606.307a1.315,1.315,0,0,1-.606,1.008L110.926,83.987c-.336.2-.606.058-.606-.307A1.315,1.315,0,0,1,110.926,82.672Z" transform="translate(-105.294 -62.654)" fill="#f5f5f5"/><path d="M110.926,88.5l19.614-11.352c.336-.2.606-.058.606.307a1.3,1.3,0,0,1-.606,1.023l-19.614,11.33c-.336.2-.606.058-.606-.307A1.286,1.286,0,0,1,110.926,88.5Z" transform="translate(-105.294 -64.222)" fill="#f5f5f5"/><path d="M132.333,93.1l.4,3.368a.416.416,0,0,1-.621.409L128.9,95.036Z" transform="translate(-110.301 -68.546)" fill="#fb8c00"/><g transform="translate(19.914 18.182)"><path d="M134.016,84.416a.416.416,0,0,0-.555.2l-1.7,3.718-.365-.38a.424.424,0,0,0-.606.584l.789.818a.453.453,0,0,0,.292.132h.08a.409.409,0,0,0,.314-.241l1.958-4.273a.409.409,0,0,0-.2-.562Z" transform="translate(-130.7 -84.376)" fill="#455a64"/></g><g transform="translate(23.504 16.234)"><path d="M138.957,81.746a.424.424,0,0,0-.555.2l-1.7,3.718-.365-.38a.431.431,0,0,0-.6,0,.424.424,0,0,0,0,.592l.789.825a.438.438,0,0,0,.292.124h.08a.416.416,0,0,0,.314-.234l1.958-4.281a.409.409,0,0,0-.212-.57Z" transform="translate(-135.615 -81.709)" fill="#455a64"/></g></g><g transform="translate(192.602 31.118)"><path d="M368.861,111.663l-.994-.577a.789.789,0,0,1-.358-.628V91.245a.818.818,0,0,1,.358-.628L394.6,75.167a.789.789,0,0,1,.73,0l.986.57a.782.782,0,0,1,.365.628V95.577a.8.8,0,0,1-.365.628l-26.729,15.458a.84.84,0,0,1-.73,0Z" transform="translate(-367.206 -75.077)" fill="#fb8c00"/><g transform="translate(0.304)" opacity="0.4"><path d="M368.861,111.663l-.994-.577a.789.789,0,0,1-.358-.628V91.245a.818.818,0,0,1,.358-.628L394.6,75.167a.789.789,0,0,1,.73,0l.986.57a.782.782,0,0,1,.365.628V95.577a.8.8,0,0,1-.365.628l-26.729,15.458a.84.84,0,0,1-.73,0Z" transform="translate(-367.51 -75.077)" fill="#fff"/></g><path d="M370.215,91.991l26.729-15.458a.226.226,0,0,1,.365.212V95.957a.8.8,0,0,1-.365.628l-26.729,15.458a.228.228,0,0,1-.365-.212V92.619A.811.811,0,0,1,370.215,91.991Z" transform="translate(-367.837 -75.457)" fill="#fb8c00"/><path d="M377,118.651v3.368a.548.548,0,0,0,.993.314l4.916-7.093Z" transform="translate(-369.764 -85.901)" fill="#fb8c00"/><path d="M369.5,117.532a.8.8,0,0,1-.65-.044l-.979-.562a.8.8,0,0,1-.365-.636V97.085a.767.767,0,0,1,.1-.365l1.717.993a.73.73,0,0,0-.11.358v19.212C369.219,117.481,369.329,117.576,369.5,117.532Z" transform="translate(-367.206 -80.91)" fill="#fb8c00"/><g transform="translate(0 15.81)" opacity="0.15"><path d="M369.5,117.532a.8.8,0,0,1-.65-.044l-.979-.562a.8.8,0,0,1-.365-.636V97.085a.767.767,0,0,1,.1-.365l1.717.993a.73.73,0,0,0-.11.358v19.212C369.219,117.481,369.329,117.576,369.5,117.532Z" transform="translate(-367.51 -96.72)"/></g><path d="M375,98.261l19.622-11.352c.336-.19.606-.051.606.307a1.293,1.293,0,0,1-.606,1.008L375,99.576c-.336.19-.606.051-.606-.307A1.293,1.293,0,0,1,375,98.261Z" transform="translate(-369.06 -78.243)" fill="#f5f5f5"/><path d="M375,104.081l19.622-11.352c.336-.19.606-.051.606.307a1.293,1.293,0,0,1-.606,1.008L375,105.4c-.336.19-.606.058-.606-.307A1.3,1.3,0,0,1,375,104.081Z" transform="translate(-369.06 -79.811)" fill="#f5f5f5"/><g transform="translate(20.192 18.171)"><path d="M398.077,99.987a.424.424,0,0,0-.555.212l-1.7,3.718-.373-.38a.416.416,0,0,0-.592,0,.424.424,0,0,0,0,.592l.789.825a.409.409,0,0,0,.292.124h.08a.446.446,0,0,0,.314-.241l1.958-4.281a.416.416,0,0,0-.212-.57Z" transform="translate(-394.735 -99.951)" fill="#455a64"/></g><g transform="translate(23.808 16.229)"><path d="M403.027,97.335a.409.409,0,0,0-.555.2l-1.7,3.718-.373-.38a.416.416,0,0,0-.592,0,.424.424,0,0,0,0,.592l.789.818a.453.453,0,0,0,.292.131h.08a.424.424,0,0,0,.314-.241l1.958-4.273a.409.409,0,0,0-.212-.57Z" transform="translate(-399.685 -97.293)" fill="#455a64"/></g></g><g transform="translate(119.789 71.231)"><path d="M268.861,155.324l-.986-.57a.8.8,0,0,1-.365-.628V144.7a.789.789,0,0,1,.365-.628l18.935-10.958a.84.84,0,0,1,.73,0l.986.57a.8.8,0,0,1,.365.636v9.453a.8.8,0,0,1-.365.636L269.6,155.361a.8.8,0,0,1-.738-.037Z" transform="translate(-267.444 -130.807)" fill="#fb8c00"/><g transform="translate(1.994 0)" opacity="0.4"><path d="M268.861,155.324l-.986-.57a.8.8,0,0,1-.365-.628V144.7a.789.789,0,0,1,.365-.628l18.935-10.958a.84.84,0,0,1,.73,0l.986.57a.8.8,0,0,1,.365.636v9.453a.8.8,0,0,1-.365.636L269.6,155.361a.8.8,0,0,1-.738-.037Z" transform="translate(-267.51 -133.026)" fill="#fff"/></g><path d="M270.225,145.391l18.927-10.958a.226.226,0,0,1,.365.212V144.1a.8.8,0,0,1-.365.636l-18.927,10.958a.226.226,0,0,1-.365-.212v-9.46A.8.8,0,0,1,270.225,145.391Z" transform="translate(-268.077 -131.173)" fill="#fb8c00"/><path d="M277,157.041v3.375a.541.541,0,0,0,.994.307l4.916-7.093Z" transform="translate(-270.001 -136.359)" fill="#fb8c00"/><path d="M269.5,159.533a.818.818,0,0,1-.643,0l-.986-.57a.8.8,0,0,1-.365-.628v-9.467a.68.68,0,0,1,.11-.358l1.709.986a.731.731,0,0,0-.1.358v9.46C269.227,159.482,269.329,159.585,269.5,159.533Z" transform="translate(-267.444 -134.979)" fill="#fb8c00"/><g transform="translate(0 13.531)" opacity="0.15"><path d="M269.5,159.533a.818.818,0,0,1-.643,0l-.986-.57a.8.8,0,0,1-.365-.628v-9.467a.68.68,0,0,1,.11-.358l1.709.986a.731.731,0,0,0-.1.358v9.46C269.227,159.482,269.329,159.585,269.5,159.533Z" transform="translate(-267.51 -148.51)"/></g><path d="M276.395,150.708c.687-.394,1.235-.073,1.235.731a2.718,2.718,0,0,1-1.235,2.14c-.679.394-1.235.073-1.235-.731a2.74,2.74,0,0,1,1.235-2.14Z" transform="translate(-269.506 -135.526)" fill="#fafafa"/><path d="M282.857,147c.687-.394,1.235-.073,1.235.73a2.717,2.717,0,0,1-1.235,2.14c-.679.387-1.227.073-1.227-.731A2.732,2.732,0,0,1,282.857,147Z" transform="translate(-271.249 -134.527)" fill="#fafafa"/><path d="M289.325,143.3c.679-.394,1.235-.073,1.235.731a2.739,2.739,0,0,1-1.235,2.14c-.687.394-1.235.073-1.235-.731a2.718,2.718,0,0,1,1.235-2.14Z" transform="translate(-272.99 -133.529)" fill="#fafafa"/></g><g transform="translate(109.62)"><path d="M254.881,69.064l-1.015-.57a.8.8,0,0,1-.365-.636V48.653a.8.8,0,0,1,.365-.636l26.759-15.45a.8.8,0,0,1,.731,0l.986.57a.811.811,0,0,1,.365.628V52.978a.811.811,0,0,1-.365.628L255.611,69.064A.8.8,0,0,1,254.881,69.064Z" transform="translate(-253.5 -32.48)" fill="#fb8c00"/><g opacity="0.4"><path d="M254.881,69.064l-1.015-.57a.8.8,0,0,1-.365-.636V48.653a.8.8,0,0,1,.365-.636l26.759-15.45a.8.8,0,0,1,.731,0l.986.57a.811.811,0,0,1,.365.628V52.978a.811.811,0,0,1-.365.628L255.611,69.064A.8.8,0,0,1,254.881,69.064Z" transform="translate(-253.5 -32.48)" fill="#fff"/></g><path d="M256.255,49.4,283,33.983a.227.227,0,0,1,.365.212V53.407a.811.811,0,0,1-.365.628L256.255,69.457a.226.226,0,0,1-.365-.212V50.054A.789.789,0,0,1,256.255,49.4Z" transform="translate(-254.144 -32.872)" fill="#fb8c00"/><path d="M263,76.051v3.375a.548.548,0,0,0,1,.307l4.916-7.093Z" transform="translate(-256.06 -43.303)" fill="#fb8c00"/><path d="M255.523,74.935a.818.818,0,0,1-.643,0l-1.015-.606a.8.8,0,0,1-.365-.628V54.488a.731.731,0,0,1,.11-.358l1.717.986a.73.73,0,0,0-.1.358V74.687C255.246,74.884,255.363,74.986,255.523,74.935Z" transform="translate(-253.5 -38.314)" fill="#fb8c00"/><g transform="translate(0 15.816)" opacity="0.15"><path d="M255.523,74.935a.818.818,0,0,1-.643,0l-1.015-.606a.8.8,0,0,1-.365-.628V54.488a.731.731,0,0,1,.11-.358l1.717.986a.73.73,0,0,0-.1.358V74.687C255.246,74.884,255.363,74.986,255.523,74.935Z" transform="translate(-253.5 -54.13)"/></g><path d="M261.026,55.661l19.621-11.352c.336-.19.606-.051.606.307a1.293,1.293,0,0,1-.606,1.008L261.026,56.976c-.336.19-.606.058-.606-.307a1.3,1.3,0,0,1,.606-1.008Z" transform="translate(-255.365 -35.645)" fill="#f5f5f5"/><path d="M261.026,61.482l19.621-11.345c.336-.2.606-.058.606.307a1.286,1.286,0,0,1-.606,1L261.026,62.8c-.336.19-.606.058-.606-.307a1.3,1.3,0,0,1,.606-1.008Z" transform="translate(-255.365 -37.214)" fill="#f5f5f5"/><g transform="translate(19.921 18.176)"><path d="M284.116,57.4a.424.424,0,0,0-.555.212l-1.709,3.718-.365-.38a.416.416,0,0,0-.592,0,.424.424,0,0,0,0,.6l.774.8a.38.38,0,0,0,.285.124.35.35,0,0,0,.088,0,.416.416,0,0,0,.307-.241l1.965-4.273A.431.431,0,0,0,284.116,57.4Z" transform="translate(-280.77 -57.361)" fill="#455a64"/></g><g transform="translate(23.559 16.229)"><path d="M289.074,54.736a.416.416,0,0,0-.555.2l-1.709,3.718-.365-.38a.424.424,0,0,0-.606.584l.825.818a.416.416,0,0,0,.285.131h.088a.4.4,0,0,0,.307-.241l1.965-4.273a.424.424,0,0,0-.234-.562Z" transform="translate(-285.75 -54.696)" fill="#455a64"/></g></g></g></g></svg>