<svg xmlns="http://www.w3.org/2000/svg" width="351.47" height="300.251" viewBox="0 0 351.47 300.251"><g transform="translate(-20.465 -89.798)"><g transform="translate(20.465 186.468)"><path d="M320.058,245.873c-68.853-39.751-180.121-39.751-248.522,0s-68.041,104.2.766,143.938,180.167,39.813,248.568,0S388.911,285.64,320.058,245.873Z" transform="translate(-20.465 -216.06)" fill="#727997" opacity="0.2"/></g><g transform="translate(49.043 281.93)" opacity="0.27"><path d="M100.166,397.931l79.625-45.938a7.97,7.97,0,0,1,7.97,0l7.909,4.594a2.649,2.649,0,0,1,0,4.594L116.045,407.2a7.963,7.963,0,0,1-8.016,0l-7.894-4.632a2.649,2.649,0,0,1,.031-4.64Z" transform="translate(-67.398 -343.131)" fill="#727997"/><path d="M375.42,397.931l-79.625-45.937a7.955,7.955,0,0,0-7.963,0l-7.909,4.594a2.649,2.649,0,0,0,0,4.594L359.548,407.2a7.962,7.962,0,0,0,8.016,0l7.894-4.632a2.657,2.657,0,0,0-.038-4.64Z" transform="translate(-109.542 -343.131)" fill="#727997"/><path d="M428.443,350.274c-6.018-3.468-15.749-3.468-21.728,0s-5.941,9.111.077,12.587,15.741,3.476,21.721,0S434.461,353.75,428.443,350.274Z" transform="translate(-138.524 -342.369)" fill="#727997"/><path d="M84.878,343.444c-6.232-3.6-16.293-3.6-22.479,0s-6.125,9.425.069,13.016,16.293,3.591,22.479,0S91.1,347.065,84.878,343.444Z" transform="translate(-57.791 -340.745)" fill="#727997"/></g><g transform="translate(41.302 207.241)"><path d="M432.407,325l-14.547.429L403.313,325c-.628,9.838,1.294,19.906,3.935,24.768h0a6.63,6.63,0,0,0,2.886,2.932c4.3,2.481,11.247,2.481,15.512,0a6.447,6.447,0,0,0,2.886-3.009C431.129,344.738,433.027,334.762,432.407,325Z" transform="translate(-131.004 -262.366)" fill="#fff"/><path d="M428.125,316.413c5.712,3.292,5.742,8.636.069,11.936s-14.9,3.292-20.611,0-5.735-8.644-.061-11.936S422.414,313.113,428.125,316.413Z" transform="translate(-131.025 -259.774)" fill="#ebebeb"/><path d="M426.847,318.289c4.456,2.572,4.479,6.737.054,9.31s-11.622,2.572-16.078,0-4.479-6.737-.054-9.31S422.421,315.717,426.847,318.289Z" transform="translate(-132.005 -260.341)" fill="#e0e0e0"/><g transform="translate(275.46 56.019)" opacity="0.15"><path d="M426.847,318.289c4.456,2.572,4.479,6.737.054,9.31s-11.622,2.572-16.078,0-4.479-6.737-.054-9.31S422.421,315.717,426.847,318.289Z" transform="translate(-407.465 -316.36)"/></g><path d="M444.53,243.75c-32.838,10.719-33.136,32.715-25.733,48.365,1.868,3.162,7.518,4.862,12.434-14.593l-8.606,1.11,10.045-5.1,2.611-7.8-8.376.62,10.635-4.471a157.482,157.482,0,0,1,6.99-18.13Z" transform="translate(-133.74 -243.323)" fill="#26aab7"/><path d="M444.53,243.75c-32.838,10.719-33.136,32.715-25.733,48.365,1.868,3.162,7.518,4.862,12.434-14.593l-8.606,1.11,10.045-5.1,2.611-7.8-8.376.62,10.635-4.471a157.482,157.482,0,0,1,6.99-18.13Z" transform="translate(-133.74 -243.75)" opacity="0.2"/><path d="M436.46,250.92c-17.318,13.146-18.88,28.213-13.988,43.947C420.78,281.017,418.866,267.006,436.46,250.92Z" transform="translate(-134.957 -245.004)" fill="#fff"/><path d="M381,272.9c32.363,4.594,36.291,24.959,32,40.762-1.21,3.262-6.194,5.78-14-11.523l8.215-.4L397,298.679l-3.752-6.852,7.909-.812-10.65-2.4A148.845,148.845,0,0,0,381,272.9Z" transform="translate(-125.802 -250.155)" fill="#26aab7"/><path d="M381,272.9c32.363,4.594,36.291,24.959,32,40.762-1.21,3.262-6.194,5.78-14-11.523l8.215-.4L397,298.679l-3.752-6.852,7.909-.812-10.65-2.4A148.845,148.845,0,0,0,381,272.9Z" transform="translate(-125.802 -250.582)" fill="#fff" opacity="0.2"/><path d="M393.46,277.56c18.306,9.364,22.264,23.137,20.32,38.618C413.091,302.971,412.509,289.619,393.46,277.56Z" transform="translate(-128.722 -251.247)" fill="#fff"/><path d="M455.656,282.88c-29.683.49-35.5,18.444-33.4,33.167.727,3.063,4.938,5.9,13.911-8.82l-7.373-1.286,9.54-1.631,4.127-5.742-7.036-1.615,9.869-.965A135.228,135.228,0,0,1,455.656,282.88Z" transform="translate(-135.38 -252.494)" fill="#26aab7"/><path d="M447.27,285.69c-17.548,6.393-22.663,18.375-22.64,32.516C426.728,306.4,428.741,294.426,447.27,285.69Z" transform="translate(-136.028 -253.153)" fill="#fff"/><path d="M88.96,317.25l-15.075.436L58.8,317.25c-.651,10.183,1.34,20.557,4.081,25.625h0a6.891,6.891,0,0,0,2.986,3.063,17.76,17.76,0,0,0,16.078,0,6.676,6.676,0,0,0,3.009-3.139C87.643,337.73,89.6,327.379,88.96,317.25Z" transform="translate(-50.258 -260.55)" fill="#fff"/><path d="M84.549,308.4c5.9,3.407,5.934,8.942.069,12.35s-15.42,3.415-21.33,0-5.934-8.935-.069-12.35S78.638,304.99,84.549,308.4Z" transform="translate(-50.296 -257.875)" fill="#ebebeb"/><path d="M83.222,310.385c4.594,2.664,4.64,6.975.061,9.639s-12.028,2.664-16.637,0-4.64-6.975-.054-9.639S78.613,307.69,83.222,310.385Z" transform="translate(-51.311 -258.469)" fill="#e0e0e0"/><g transform="translate(11.86 49.905)" opacity="0.15"><path d="M83.222,310.385c4.594,2.664,4.64,6.975.061,9.639s-12.028,2.664-16.637,0-4.64-6.975-.054-9.639S78.613,307.69,83.222,310.385Z" transform="translate(-63.171 -308.375)"/></g><path d="M65.462,270.455c-2.45-3.063-5.3-5.78-7.549-8.981-1.531-2.182-2.818-4.854-2.174-7.45a6.684,6.684,0,0,1,5.283-4.647,10.129,10.129,0,0,1,7.082,1.585,21.874,21.874,0,0,1,5.359,5.1,53.18,53.18,0,0,1,11.2,37.99,8.007,8.007,0,0,1-1.393,4.372,4.4,4.4,0,0,1-4.51,1.378c-4.111-1.225-3.56-6.768-4.234-10.037a45.877,45.877,0,0,0-4.716-12.809A44.947,44.947,0,0,0,65.462,270.455Z" transform="translate(-49.529 -244.617)" fill="#26aab7"/><path d="M65.462,270.455c-2.45-3.063-5.3-5.78-7.549-8.981-1.531-2.182-2.818-4.854-2.174-7.45a6.684,6.684,0,0,1,5.283-4.647,10.129,10.129,0,0,1,7.082,1.585,21.874,21.874,0,0,1,5.359,5.1,53.18,53.18,0,0,1,11.2,37.99,8.007,8.007,0,0,1-1.393,4.372,4.4,4.4,0,0,1-4.51,1.378c-4.111-1.225-3.56-6.768-4.234-10.037a45.877,45.877,0,0,0-4.716-12.809A44.947,44.947,0,0,0,65.462,270.455Z" transform="translate(-49.71 -244.617)" fill="#fff" opacity="0.2"/><path d="M80.569,296.75a.375.375,0,0,1-.291-.337c-.283-6.6-2.427-29.094-17.939-41.872a.352.352,0,0,1-.046-.505.36.36,0,0,1,.521-.061c15.741,12.962,17.908,35.724,18.2,42.393a.36.36,0,0,1-.345.375Z" transform="translate(-51.085 -245.7)" fill="#f0f0f0"/><path d="M79.431,302.9a11,11,0,0,1-5.03,6.983,14.226,14.226,0,0,1-7.656,1.279,33.358,33.358,0,0,1-7.733-1.837c-1.248-.421-2.626-.988-2.764-2.527a2.756,2.756,0,0,1,.88-2.167,8.833,8.833,0,0,1,.766-.689.766.766,0,0,0-.421-1.432,17.691,17.691,0,0,1-2.205-.268,9.708,9.708,0,0,1-4.594-2.1,7.71,7.71,0,0,1-2.136-3.162,2.978,2.978,0,0,1,.306-3.116,3.476,3.476,0,0,1,1.715-.766c.551-.115,1.1-.222,1.654-.306a.766.766,0,0,0,.176-1.409l-2.343-.972a4.356,4.356,0,0,1-1.776-1.1,3.862,3.862,0,0,1-.444-3.223c.283-1.462.766-2.879,1.133-4.326a9.256,9.256,0,0,0,.153-4.433,37.378,37.378,0,0,1,13.108.88,9.433,9.433,0,0,1,3.575,1.531,5.24,5.24,0,0,1,1.677,4.816.345.345,0,0,0,.643.184l1.531-2.756a1.761,1.761,0,0,1,2.3-.766,10.72,10.72,0,0,1,3.422,2.687,5.9,5.9,0,0,1,1.462,4.372A38.825,38.825,0,0,1,75.74,294.7a.59.59,0,0,0,.926.628l.069-.054a2.052,2.052,0,0,1,1.409-.406c1.325.161,1.661,1.531,1.753,2.641A22.256,22.256,0,0,1,79.431,302.9Z" transform="translate(-47.681 -251.141)" fill="#26aab7"/><path d="M79.431,302.9a11,11,0,0,1-5.03,6.983,14.226,14.226,0,0,1-7.656,1.279,33.358,33.358,0,0,1-7.733-1.837c-1.248-.421-2.626-.988-2.764-2.527a2.756,2.756,0,0,1,.88-2.167,8.833,8.833,0,0,1,.766-.689.766.766,0,0,0-.421-1.432,17.691,17.691,0,0,1-2.205-.268,9.708,9.708,0,0,1-4.594-2.1,7.71,7.71,0,0,1-2.136-3.162,2.978,2.978,0,0,1,.306-3.116,3.476,3.476,0,0,1,1.715-.766c.551-.115,1.1-.222,1.654-.306a.766.766,0,0,0,.176-1.409l-2.343-.972a4.356,4.356,0,0,1-1.776-1.1,3.862,3.862,0,0,1-.444-3.223c.283-1.462.766-2.879,1.133-4.326a9.256,9.256,0,0,0,.153-4.433,37.378,37.378,0,0,1,13.108.88,9.433,9.433,0,0,1,3.575,1.531,5.24,5.24,0,0,1,1.677,4.816.345.345,0,0,0,.643.184l1.531-2.756a1.761,1.761,0,0,1,2.3-.766,10.72,10.72,0,0,1,3.422,2.687,5.9,5.9,0,0,1,1.462,4.372A38.825,38.825,0,0,1,75.74,294.7a.59.59,0,0,0,.926.628l.069-.054a2.052,2.052,0,0,1,1.409-.406c1.325.161,1.661,1.531,1.753,2.641A22.256,22.256,0,0,1,79.431,302.9Z" transform="translate(-47.681 -251.141)" opacity="0.2"/><path d="M73.92,310.158a53.5,53.5,0,0,0-3.53-10.213.329.329,0,0,0-.122-.268c-.077-.176-.161-.352-.245-.536a32.96,32.96,0,0,1,3.491-11.691.36.36,0,0,0-.13-.49.352.352,0,0,0-.49.13,33.435,33.435,0,0,0-3.445,10.872c-2.978-5.987-7.74-13.016-15.09-18.092a.36.36,0,0,0-.5.084.367.367,0,0,0,.092.505c7.572,5.268,12.357,12.579,15.267,18.651a21.981,21.981,0,0,0-12.5-1.692.36.36,0,0,0-.283.421.368.368,0,0,0,.283.283h.138c.069,0,6.891-1.256,12.855,2.06a52.83,52.83,0,0,1,3.5,10.114.36.36,0,0,0,.283.283h.138A.36.36,0,0,0,73.92,310.158Z" transform="translate(-49.114 -251.774)" fill="#f0f0f0"/></g><g transform="translate(213.55 89.799)"><path d="M286.258,95.644h0c.582-2.037,4.724-5.911,8.843-5.834a3.66,3.66,0,0,1,1.156.23l79.985,45.509a7.725,7.725,0,0,1,3.866,6.646V315.225c0,4.41-5.084,8.613-9.854,6.592h0a2.548,2.548,0,0,1-.306-.122l-80.031-45.624a7.656,7.656,0,0,1-3.828-6.646V96.478a1.844,1.844,0,0,1,.168-.835Z" transform="translate(-275.805 -89.801)" fill="#727997"/><path d="M370.106,168.081a3.828,3.828,0,0,0-1.937-3.323L293.9,122.5a1.914,1.914,0,0,0-2.863,1.661V263.7a3.828,3.828,0,0,0,1.937,3.33l74.266,42.324a1.922,1.922,0,0,0,2.863-1.669Z" transform="translate(-276.965 -97.405)" fill="#fb8c00"/><path d="M370.106,168.081a3.828,3.828,0,0,0-1.937-3.323L293.9,122.5a1.914,1.914,0,0,0-2.863,1.661V263.7a3.828,3.828,0,0,0,1.937,3.33l74.266,42.324a1.922,1.922,0,0,0,2.863-1.669Z" transform="translate(-276.965 -97.405)" fill="#455a64"/><path d="M405.864,157.2V330.23c0,4.41-5.084,8.613-9.854,6.592h0a1.906,1.906,0,0,0,2.549-1.792V162a7.656,7.656,0,0,0-1.286-4.226l7.832-3.912A7.709,7.709,0,0,1,405.864,157.2Z" transform="translate(-301.568 -104.813)" opacity="0.3"/><path d="M295.145,89.8a3.66,3.66,0,0,1,1.156.23l79.985,45.509a7.657,7.657,0,0,1,3.063,3.292l-7.817,3.951a7.656,7.656,0,0,0-2.58-2.427L288.967,94.807a1.914,1.914,0,0,0-2.657.835h0C286.884,93.6,291.026,89.723,295.145,89.8Z" transform="translate(-275.857 -89.799)" fill="#fff" opacity="0.1"/><path d="M329.484,133.617c-.567-.322-1.026-.069-1.034.574a2.3,2.3,0,0,0,1.026,1.769l15.7,9.065c.559.322,1.011.046,1.018-.6a2.228,2.228,0,0,0-1.011-1.746Z" transform="translate(-285.733 -100.036)" fill="#263238"/><path d="M355.248,148.5c-.559-.329-1.018-.069-1.018.574a2.3,2.3,0,0,0,1.011,1.769.635.635,0,0,0,1.034-.59A2.251,2.251,0,0,0,355.248,148.5Z" transform="translate(-291.776 -103.522)" fill="#263238"/><path d="M341.819,131.854c-1.125-.651-2.029-.13-2.029,1.156a4.487,4.487,0,0,0,2.014,3.53c1.125.643,2.052.115,2.06-1.171a4.494,4.494,0,0,0-2.044-3.514Z" transform="translate(-288.391 -99.59)" fill="#263238"/><path d="M341.164,344.515c-2.3-1.325-4.127-.268-4.134,2.358a9.118,9.118,0,0,0,4.111,7.174c2.3,1.325,4.18.245,4.188-2.389A9.119,9.119,0,0,0,341.164,344.515Z" transform="translate(-287.744 -149.364)" fill="#263238"/><path d="M347.892,317.456c7.863,12.3,5.176,27.723,5.176,27.723l-54.528-31.1Z" transform="translate(-278.723 -142.364)" fill="#37474f"/><path d="M306.705,240.335l-10.129-1.225L284.77,257.745l16.247,2.075Z" transform="translate(-275.496 -124.793)" fill="#ffa8a7"/><path d="M306.705,240.335l-10.129-1.225L284.77,257.745l16.247,2.075Z" transform="translate(-275.496 -124.793)" opacity="0.2"/><path d="M347.89,314.215c-1.592-3.553-5.007-8.8-6.454-13.965l-41.1.291q-1.057,5.191-1.807,10.3l.054.061,18.23,10.39C329.354,322.851,342.653,317.109,347.89,314.215Z" transform="translate(-278.721 -139.123)" fill="#ffa8a7"/><path d="M323.335,314.141a8.534,8.534,0,0,0,8.475-5.359,43.811,43.811,0,0,0,11.592-4.211,32.069,32.069,0,0,1-1.615-4.341l-41.1.291c-.176.88-.329,1.753-.5,2.634a27.088,27.088,0,0,0,14.118,5.237A11.852,11.852,0,0,0,323.335,314.141Z" transform="translate(-279.11 -139.118)" opacity="0.2"/><path d="M303.881,212.281a8.78,8.78,0,0,1,.367-3.338c.291-.949,3.43-6.355,3.108-6.745a14.087,14.087,0,0,1-.23-17.785,4.762,4.762,0,0,1,1.6-9.019c1.738-.161,3.392.643,5.053,1.148a24.845,24.845,0,0,0,8.8.72c2.948-.176,5.9-.567,8.858-.536a17.816,17.816,0,0,1,8.56,1.945,9.716,9.716,0,0,1,5.068,6.891c4.433-.49,9.188,3.484,9.647,7.924.436,4.3-2.419,8.345-2.381,12.671a14.262,14.262,0,0,0,3.062,8.07c1.692,2.366,3.828,4.448,5.62,6.745a35.173,35.173,0,0,1,7.434,22.333c-.107,4.5-1.171,9.149-3.989,12.671-5.528,6.891-18.88,7.656-26.958,6.684a43.488,43.488,0,0,1-22.525-9.762c-4.4-3.69-8.269-8.95-7.656-14.662.3-2.68,1.531-5.145,2.5-7.656s1.531-5.405.467-7.886-3.736-4.2-5.222-6.584A8.421,8.421,0,0,1,303.881,212.281Z" transform="translate(-279.968 -109.855)" fill="#263238"/><path d="M316.24,246.445a7.011,7.011,0,0,0,4.418,1.577,25.4,25.4,0,0,0,21-8.33l-4.448-.766L338.4,224.51l-16.078,4.724-.689,8.33-3.989-.329a11.385,11.385,0,0,0-2.19,3.223C314.624,242.426,314.708,244.952,316.24,246.445Z" transform="translate(-282.565 -121.371)" fill="#ffa8a7"/><path d="M339.4,225c-3.009,5.5-8.422,9.953-15.435,10.213l.482-5.826Z" transform="translate(-284.681 -121.486)" opacity="0.2"/><path d="M334.8,203.736a14.279,14.279,0,0,0-.475,3.637,4.3,4.3,0,0,0,1.011,2.534,2.7,2.7,0,0,0,2.4.934,4.777,4.777,0,0,1,9.425-1.493,6,6,0,0,1-1.409,4.869A11.278,11.278,0,0,1,341.5,217.2a4.05,4.05,0,0,1-4.647-2.3c-5.114,5.482-13.552,9.187-21.062,7.955a10.78,10.78,0,0,1-5.581-2.5c-2.68-2.45-2.618-5.8-2.7-9.134a46.878,46.878,0,0,1,1.133-12.556c1.4-5.673,4.425-11.109,9.187-14.478C319.4,196.907,330.49,202.42,334.8,203.736Z" transform="translate(-280.813 -111.921)" fill="#ffa8a7"/><path d="M321,206.16l-5.7,5.957,4.678,2.052Z" transform="translate(-282.651 -117.071)" fill="#f28f8f"/><path d="M325.574,221.16l-4.134.942a2.488,2.488,0,0,0,2.634,1.455A2.253,2.253,0,0,0,325.574,221.16Z" transform="translate(-284.09 -120.586)" fill="#f28f8f"/><path d="M325.574,221.16l-4.134.942a2.488,2.488,0,0,0,2.634,1.455A2.253,2.253,0,0,0,325.574,221.16Z" transform="translate(-284.09 -120.586)" opacity="0.3"/><path d="M323.16,223.566a2.3,2.3,0,0,0,1.317.176,2.021,2.021,0,0,0,1.447-1.723,2.358,2.358,0,0,0-1.585.168A2.389,2.389,0,0,0,323.16,223.566Z" transform="translate(-284.493 -120.772)" fill="#f28f8f"/><path d="M331.038,208.172a1.447,1.447,0,1,1-1.248-1.615,1.432,1.432,0,0,1,1.248,1.615Z" transform="translate(-285.664 -117.161)" fill="#263238"/><path d="M315.428,205.552a1.447,1.447,0,1,1-1.248-1.615,1.432,1.432,0,0,1,1.248,1.615Z" transform="translate(-282.006 -116.547)" fill="#263238"/><path d="M314.37,198.193l-3.453,1.792a2.067,2.067,0,0,1,.911-2.167A2.427,2.427,0,0,1,314.37,198.193Z" transform="translate(-281.614 -115.068)" fill="#263238"/><path d="M331.48,200.13q1.439,1.309,2.886,2.6a2.052,2.052,0,0,0-.329-2.3,2.442,2.442,0,0,0-2.557-.306Z" transform="translate(-286.444 -115.604)" fill="#263238"/><path d="M341.714,289.035c-2.128-5.16.911-12.1,5.513-18.911,1.4-2.067,1.914-10.818,2.105-17.25a8.185,8.185,0,0,0-6.814-8.322l-6.293-1.072a25.4,25.4,0,0,1-21,8.33c-2.358-.191-4.915-.827-5.62-3.828a5.466,5.466,0,0,1,0-2.488,10,10,0,0,1,2.6-4.5l-3.874-.322c-4.992,3.752-15.175,19.761-16.469,28.719-.651,4.494,2.657,7.005,4.946,8.606a51.955,51.955,0,0,1-.077,7.855,31.819,31.819,0,0,0,11.37,4.433C321.127,293.092,329.173,293.437,341.714,289.035Z" transform="translate(-277.139 -125.159)" fill="#1565c0"/><path d="M289.71,234.33l-16.262,31.9a7.3,7.3,0,0,0,3.828,10.1h0a7.3,7.3,0,0,0,9.662-4.594l10.627-34.254Z" transform="translate(-272.657 -123.673)" fill="#ffa8a7"/><path d="M291.7,232.537c-4.111-4.77-5.482-10.083-5.191-16.293a2.2,2.2,0,0,1,.643-1.447,8.154,8.154,0,0,1,2.3-1.638,2.167,2.167,0,0,1,3.063,1.4,37.2,37.2,0,0,0,1.684,5.023,22.763,22.763,0,0,1-.253-6.332,1.462,1.462,0,0,1,1.577-1.332h0a1.432,1.432,0,0,1,1.309,1.531,18.192,18.192,0,0,0,1.922,9.249c-.13-1.623,0-2.863,0-4.31a1.294,1.294,0,0,1,1.447-1.271h0a1.294,1.294,0,0,1,1.125,1.041c.322,1.753.536,3.514.9,5.26.505,2.412.988,4.984.077,7.273a6.378,6.378,0,0,1-3.882,3.66C296.7,234.949,292.9,233.93,291.7,232.537Z" transform="translate(-275.895 -118.419)" fill="#ffa8a7"/><path d="M301.309,226a5.658,5.658,0,0,0-.766,8.345,5.359,5.359,0,0,1-2.749-2.641,4.425,4.425,0,0,1,.054-3.828A4.027,4.027,0,0,1,301.309,226Z" transform="translate(-278.453 -121.721)" opacity="0.2"/><path d="M332.688,282.43a16.775,16.775,0,0,1-20.618,4.265,12.457,12.457,0,0,0,11.224,4.15C327.383,290.132,331.157,286.3,332.688,282.43Z" transform="translate(-281.894 -134.946)" opacity="0.2"/><path d="M348.993,242.059c-3.782,4.655-11.125,16.323-16.27,24.707L332,249.057a16.231,16.231,0,0,0,11.17-9.861c.858-2.3,1.171-4.862-.145-7.013a4.51,4.51,0,0,0-2.3-1.914c-2.381-.835-4.265.7-5.5,2.442a44.145,44.145,0,0,1-2.626,3.912c-1.592,1.807-3.866,2.817-5.872,4.157s-3.828,3.193-3.828,5.6l-3.5,37.363a8.751,8.751,0,0,0,5.038,8.736h0a8.751,8.751,0,0,0,10.451-2.45c5.359-6.615,14.294-17.854,18.505-24.1C359.665,256.69,363.272,244.2,348.993,242.059Z" transform="translate(-283.606 -122.666)" fill="#ffa8a7"/><path d="M334.166,277.562l-8.636,13.98c.544-14.08,8.575-15.412,8.575-15.412Z" transform="translate(-285.049 -133.47)" opacity="0.2"/><path d="M325.544,244.709c1.233-1.531,3.361-1.922,5.183-2.672a12,12,0,0,0,5.9-5.359c.574-1.087.988-2.251,1.531-3.338a6.071,6.071,0,0,1,2.45-2.664,3.53,3.53,0,0,1,1.156-.337,2.438,2.438,0,0,0-.291-.13c-2.381-.835-4.264.7-5.5,2.442a44.146,44.146,0,0,1-2.626,3.912c-1.592,1.807-3.866,2.818-5.872,4.157s-3.828,3.193-3.828,5.6l-.865,9.272a68.62,68.62,0,0,0,1.4-6.8A8.889,8.889,0,0,1,325.544,244.709Z" transform="translate(-284.404 -122.652)" fill="#fff" opacity="0.2"/></g><g transform="translate(74.56 89.799)"><path d="M120.979,410.86Z" transform="translate(-98.102 -165.047)" fill="#e6e6e6"/><path d="M184.974,95.644h0c-.582-2.037-4.724-5.911-8.843-5.834a3.66,3.66,0,0,0-1.156.23L95,135.54a7.725,7.725,0,0,0-3.828,6.646V315.218c0,4.41,5.084,8.613,9.854,6.592h0a2.541,2.541,0,0,0,.306-.123L181.322,276.1a7.656,7.656,0,0,0,3.866-6.646V96.478a1.845,1.845,0,0,0-.214-.835Z" transform="translate(-91.132 -89.801)" fill="#455a64"/><path d="M105.69,168.081a3.828,3.828,0,0,1,1.937-3.323L181.893,122.5a1.914,1.914,0,0,1,2.863,1.661V263.7a3.828,3.828,0,0,1-1.937,3.33l-74.266,42.324a1.922,1.922,0,0,1-2.863-1.669Z" transform="translate(-94.535 -97.405)" fill="#f3f9ff"/><path d="M105.69,168.081a3.828,3.828,0,0,1,1.937-3.323L181.893,122.5a1.914,1.914,0,0,1,2.863,1.661V263.7a3.828,3.828,0,0,1-1.937,3.33l-74.266,42.324a1.922,1.922,0,0,1-2.863-1.669Z" transform="translate(-94.535 -97.405)" fill="#727997" opacity="0.2"/><path d="M91.12,157.2V330.23c0,4.41,5.084,8.613,9.854,6.592h0a1.906,1.906,0,0,1-2.55-1.792V162a7.656,7.656,0,0,1,1.286-4.226l-7.832-3.912a7.71,7.71,0,0,0-.758,3.338Z" transform="translate(-91.12 -104.813)" opacity="0.3"/><path d="M176.374,89.8a3.66,3.66,0,0,0-1.156.23L95.232,135.538a7.656,7.656,0,0,0-3.062,3.292l7.817,3.951a7.656,7.656,0,0,1,2.58-2.427l79.985-45.547a1.914,1.914,0,0,1,2.657.835h0C184.635,93.6,180.493,89.723,176.374,89.8Z" transform="translate(-91.366 -89.799)" fill="#fff" opacity="0.1"/><path d="M165.086,133.617c.567-.322,1.026-.069,1.034.574a2.3,2.3,0,0,1-1.026,1.769l-15.7,9.065c-.559.322-1.011.046-1.018-.6a2.228,2.228,0,0,1,1.011-1.746Z" transform="translate(-104.54 -100.036)" fill="#263238"/><path d="M144.123,148.5c.559-.329,1.018-.069,1.018.574a2.3,2.3,0,0,1-1.011,1.769.635.635,0,0,1-1.034-.59A2.251,2.251,0,0,1,144.123,148.5Z" transform="translate(-103.3 -103.522)" fill="#263238"/><path d="M156.934,131.854c1.125-.651,2.029-.13,2.029,1.156a4.487,4.487,0,0,1-2.014,3.53c-1.125.643-2.052.115-2.06-1.171A4.494,4.494,0,0,1,156.934,131.854Z" transform="translate(-106.066 -99.59)" fill="#263238"/><path d="M156.3,344.515c2.3-1.325,4.127-.268,4.134,2.358a9.119,9.119,0,0,1-4.111,7.174c-2.3,1.325-4.18.245-4.188-2.389A9.119,9.119,0,0,1,156.3,344.515Z" transform="translate(-105.419 -149.364)" fill="#263238"/><path d="M175.515,314.84l-49,.643s-.98,11.76-1.585,32.218l50.884-28.994C175.645,316.272,175.515,314.84,175.515,314.84Z" transform="translate(-99.044 -142.543)" fill="#fb8c00"/><path d="M175.515,314.84l-49,.643s-.98,11.76-1.585,32.218l50.884-28.994C175.645,316.272,175.515,314.84,175.515,314.84Z" transform="translate(-99.044 -142.543)" opacity="0.5"/><path d="M253.583,227.253l-20.756,32.516a8.9,8.9,0,0,1-13.1,2.128l-9.188-7.45,8.774-13.337,5.612,5.023,15.535-16.652a11.414,11.414,0,0,0,3.254-5.29Z" transform="translate(-119.109 -121.296)" fill="#875554"/><path d="M186.82,218.99c7.656-.436,9.616,3.553,14.44,8.039s13.881,13.222,13.881,13.222a18.122,18.122,0,0,1-10.06,14.21l-16.79-12.388Z" transform="translate(-113.55 -120.07)" fill="#455a64"/><path d="M228.56,252.381c-1.623,3.951-.322,9.187-.322,9.187a11.89,11.89,0,0,1-1.363-10.719Z" transform="translate(-122.773 -127.545)" fill="#753f3f"/><path d="M195.8,239.27a20.534,20.534,0,0,0-8.521-13.1l1.118,17.609,7.656,5.658C196.1,246.03,196.376,242.616,195.8,239.27Z" transform="translate(-113.657 -121.761)" opacity="0.2"/><path d="M185.524,178.169a13.559,13.559,0,0,0,2.741-15.573,9.877,9.877,0,0,0,2.825-7.656,9.693,9.693,0,0,0-4.173-6.96,5.365,5.365,0,0,1-2.726,5.283,10.206,10.206,0,0,1-5.788.766c-3.124-.314-6.125-1.187-9.241-1.723a18.523,18.523,0,0,0-9.295.329c-2.955,1.041-5.566,3.522-6,6.63-2.795-.842-6.47,1.439-7.71,4.081s-.949,5.765-.077,8.552,2.3,5.359,3.338,8.085,1.692,5.735.942,8.56A30.622,30.622,0,0,0,149.348,192a3.223,3.223,0,0,0,1.179,3.2c.191-.766.536-1.531.727-2.3a7.571,7.571,0,0,0,.635,1.715,2.373,2.373,0,0,0,1.294,1.179,1.455,1.455,0,0,0,1.608-.475,6.944,6.944,0,0,0,3.951,4.885,7.212,7.212,0,0,0,6.385-.329,9.31,9.31,0,0,0,3.667-4.28,23.733,23.733,0,0,0,1.585-5.49A80.514,80.514,0,0,0,185.524,178.169Z" transform="translate(-103.824 -103.435)" fill="#263238"/><path d="M125.156,295.635s28.428,10.4,51.511-2.565c0,0-1.4-16.545-1.822-26.184s2.909-28.259,3.415-33.251-.168-13.628-6.048-14.937c-10.91-2.3-31.391,0-31.391,0l-12.25,13.529C123.4,258.656,124.283,286.409,125.156,295.635Z" transform="translate(-98.941 -119.77)" fill="#455a64"/><path d="M174.622,205.52l-.6,6.76a2.58,2.58,0,0,0,.383,1.531,3.828,3.828,0,0,1-.6,4.418,5.091,5.091,0,0,1-3.024,1.026,14.616,14.616,0,0,1-11.178-4.31,3.185,3.185,0,0,1-.88-2.3l.444-17.158Z" transform="translate(-106.963 -114.57)" fill="#875554"/><path d="M161.043,196.58l14.1,9.188-.536,5.995c-3.277-.766-6.577-1.707-9.188-3.828a12.556,12.556,0,0,1-4.372-11.354Z" transform="translate(-107.48 -114.825)" fill="#753f3f"/><path d="M187.289,172.26a60.338,60.338,0,0,1-1.531,23.466,18.475,18.475,0,0,1-1.86,4.816,7.779,7.779,0,0,1-3.828,3.376c-1.991.766-4.2.39-6.293,0-3.828-.674-7.756-1.386-11.079-3.392s-5.957-5.65-5.635-9.524a6.676,6.676,0,0,1-6.362.352A6.76,6.76,0,0,1,147.217,186c-.145-2.167,1.11-4.594,3.239-5.015a4.663,4.663,0,0,1,3.706,1.087,13.9,13.9,0,0,1,2.58,3.009,4.526,4.526,0,0,0,1.286,1.378,1.531,1.531,0,0,0,1.776,0,2.3,2.3,0,0,0,.505-1.929l-.222-4.915a1.952,1.952,0,0,1,1.087-1.822,4.816,4.816,0,0,0,2.2-2.534A9.884,9.884,0,0,0,164,172.3a1.2,1.2,0,0,1,1.654-1.026A36.577,36.577,0,0,0,187.289,172.26Z" transform="translate(-104.265 -108.873)" fill="#875554"/><path d="M185.2,188.15l4.418,7.427-5.267,1Z" transform="translate(-112.971 -112.85)" fill="#753f3f"/><path d="M177.686,202.49l4.042,1.922a2.611,2.611,0,0,1-3.062.865A2.313,2.313,0,0,1,177.686,202.49Z" transform="translate(-111.383 -116.211)" fill="#f28f8f"/><path d="M177.686,202.49l4.042,1.922a2.611,2.611,0,0,1-3.062.865A2.313,2.313,0,0,1,177.686,202.49Z" transform="translate(-111.383 -116.211)" fill="#753f3f"/><path d="M180.043,205.645a2.4,2.4,0,0,1-1.386-.13,2.128,2.128,0,0,1-1.072-2.105A2.412,2.412,0,0,1,180.043,205.645Z" transform="translate(-111.382 -116.426)" fill="#f28f8f"/><path d="M175.5,188.116a1.531,1.531,0,1,0,1.654-1.348A1.531,1.531,0,0,0,175.5,188.116Z" transform="translate(-110.893 -112.524)" fill="#263238"/><path d="M192.057,189.143a1.531,1.531,0,1,0,1.654-1.355A1.531,1.531,0,0,0,192.057,189.143Z" transform="translate(-114.775 -112.763)" fill="#263238"/><path d="M194.76,181.844l3.1,2.641a2.144,2.144,0,0,0-.413-2.427,2.565,2.565,0,0,0-2.687-.214Z" transform="translate(-115.411 -111.305)" fill="#263238"/><path d="M176.889,179.827l-3.568,1.968a2.144,2.144,0,0,1,.888-2.3,2.557,2.557,0,0,1,2.68.329Z" transform="translate(-110.371 -110.766)" fill="#263238"/><path d="M268.849,207.458l-2.044-6.209.13-3.108c-2.3.911-3.729,2.358-5.857,5.826s1.837,4.594,1.837,4.594c2.3,4.326,1.026,9.838-1.08,11.844l3.445.766c2.687-1.118,3.139-2.687,4.257-4.372a33.094,33.094,0,0,0,2.726-4.877Z" transform="translate(-130.807 -115.191)" fill="#753f3f"/><path d="M261.35,209.108q.9-2.7,1.592-5.436a2.3,2.3,0,0,0,0-1.753c-.413-.766-1.531-1.08-2.45-1.309l-3.928,7.35a19.431,19.431,0,0,0-2.733,11.546l6.454,1.447C262.369,218.947,263.647,213.434,261.35,209.108Z" transform="translate(-129.242 -115.77)" fill="#875554"/><path d="M270.449,216.584a5.7,5.7,0,0,0-.85,1.148,1.531,1.531,0,0,0-.092,1.317,1.393,1.393,0,0,0,1.24.766,2.374,2.374,0,0,0,1.531-.827,18.787,18.787,0,0,0,2.488-2.649,1.884,1.884,0,0,0,.452-1.095c0-1.011-1.416-1.432-2.442-1.064a2.381,2.381,0,0,0-.942.812Z" transform="translate(-132.904 -118.92)" fill="#875554"/><path d="M267.971,211.842a6.5,6.5,0,0,0-1.064,1.432,1.914,1.914,0,0,0-.107,1.631,1.723,1.723,0,0,0,1.531.957,3.063,3.063,0,0,0,1.952-1.026,23.734,23.734,0,0,0,3.063-3.308,2.381,2.381,0,0,0,.567-1.355c0-1.256-1.769-1.784-3.062-1.332a3,3,0,0,0-1.179,1.018Z" transform="translate(-132.263 -117.662)" fill="#875554"/><path d="M267.43,206.574a6.822,6.822,0,0,0-1.087,1.47,1.952,1.952,0,0,0-.115,1.684,1.761,1.761,0,0,0,1.585.98,3.062,3.062,0,0,0,2.006-1.057,24.145,24.145,0,0,0,3.185-3.4,2.434,2.434,0,0,0,.582-1.4c0-1.294-1.822-1.83-3.139-1.37a3.231,3.231,0,0,0-1.21,1.049Z" transform="translate(-132.128 -116.405)" fill="#875554"/><path d="M265.616,201.389a6.355,6.355,0,0,0-.766,1.531,1.945,1.945,0,0,0,.2,1.631,1.845,1.845,0,0,0,1.707.766,2.749,2.749,0,0,0,1.73-1.256,21.815,21.815,0,0,0,2.435-3.652,2.243,2.243,0,0,0,.291-1.416c-.268-1.233-2.082-1.531-3.262-.934a2.749,2.749,0,0,0-.965,1.156C266.527,199.935,266.076,200.662,265.616,201.389Z" transform="translate(-131.816 -115.102)" fill="#875554"/><path d="M177.437,295.843l-14.432-20.856-20.756-33.374-9.563-9.723-3.315,3.667c-.528,2.71-1,5.436-1.4,8.146l1.493.934c2.228,17.257,14.83,45.685,14.83,45.685,6.125,4.663,14.072,8.353,20.672,10.925a49,49,0,0,0,12.51-4.846S177.468,296.195,177.437,295.843Z" transform="translate(-99.757 -123.101)" opacity="0.2"/><path d="M158.374,265.34l7.656,17.487,24.408,20.09a6.722,6.722,0,0,0,4.525,1.531,21.967,21.967,0,0,1,5.421.314c1.393.314,2.749.766,4.134,1.095a12.642,12.642,0,0,0,2.978.367,1.2,1.2,0,0,1,1.156,1.684,2.74,2.74,0,0,1-.6.766,4.839,4.839,0,0,1-2.58,1.011,11.8,11.8,0,0,1-4.425-.23,11.407,11.407,0,0,0,5.459,3.392c2,.666,4.088,1.049,6.071,1.746a3.874,3.874,0,0,1,1.952,1.248,1.531,1.531,0,0,1-.245,2.082c-.857.521-2.014-.253-2.948.115a3.828,3.828,0,0,1,0,1.623,2.3,2.3,0,0,1-1,1.324,1.608,1.608,0,0,1-1.608.054,5.88,5.88,0,0,1-3.759,2.542,11.4,11.4,0,0,1-4.594-.061c-6.324-1.164-10.328-6.676-15.313-10.772-.712-.582-19.906-11.155-28.581-15.917a14.777,14.777,0,0,1-6.225-6.63l-9.348-19.761Z" transform="translate(-102.789 -130.941)" fill="#875554"/><path d="M141.759,219c8.208,9.708,11.285,26.368,15.527,37.095-4.739,8.981-17.954,8.077-17.954,8.077C127.235,239.021,122.121,220.026,141.759,219Z" transform="translate(-99.91 -120.08)" fill="#455a64"/></g></g></svg>