<svg xmlns="http://www.w3.org/2000/svg" width="344.599" height="309.147" viewBox="0 0 344.599 309.147"><g transform="translate(-10.35 -45.66)"><g transform="translate(10.35 172.579)" opacity="0.2"><ellipse cx="172.3" cy="91.114" rx="172.3" ry="91.114" fill="#727997"/></g><g transform="translate(34.673 243.044)" opacity="0.3"><ellipse cx="52.197" cy="30.139" rx="52.197" ry="30.139" fill="#727997"/><ellipse cx="51.607" cy="29.873" rx="51.607" ry="29.873" transform="translate(194.904 8.858)" fill="#727997"/></g><g transform="translate(20.752 191.791)"><g transform="translate(283.643 7.272)"><path d="M420.273,304.13s-2.38-11.848.439-22.554,8.822-18.751,15.911-21.677,15.1,1.877,8.815,8.994-18.607,16.285-19.412,35.567Z" transform="translate(-419.334 -259.027)" fill="#26aab7"/><path d="M420.273,304.13s-2.38-11.848.439-22.554,8.822-18.751,15.911-21.677,15.1,1.877,8.815,8.994-18.607,16.285-19.412,35.567Z" transform="translate(-419.334 -259.027)" opacity="0.15"/><path d="M422.09,301.728h-.079a.41.41,0,0,1-.381-.439c1.582-21.418,13.66-34.043,19.8-37.731a.416.416,0,1,1,.417.719c-6.032,3.595-17.845,16-19.412,37.091a.41.41,0,0,1-.345.359Z" transform="translate(-419.979 -260.285)" fill="#fff"/><path d="M427.886,325.177a17.1,17.1,0,0,0-1.531-5.651c-.856-1.912-2.43-3.595-2.926-5.658a6.9,6.9,0,0,1,1.244-5.112c1-1.4,2.452-2.531,2.991-4.163s0-3.494.086-5.256a7.52,7.52,0,0,1,7.585-7.19,21.237,21.237,0,0,1,5.292,1.179,8.628,8.628,0,0,0,5.4,0,38.108,38.108,0,0,1,5.824-1.783c3.393-.647,7.909-.324,9.749,3.056a4.386,4.386,0,0,1,.625,2.732v.122c-.518,2.624-3.516,3.724-5.284,5.306-.482.431-1.3,1.071-1.38,1.776s.661,1.5,1.064,2.056c1.028,1.438,2.365,2.746,2.8,4.508.633,2.531-1.028,5.392-2.962,6.895a13.92,13.92,0,0,1-6.471,2.473,5.366,5.366,0,0,0-3.221,1.15,3.631,3.631,0,0,0-.827,2.826c.065,1.014.352,2,.446,3.005a8.98,8.98,0,0,1-4.112,8.167,10.547,10.547,0,0,1-7.6,1.373,7.625,7.625,0,0,1-5.1-4.486A27.508,27.508,0,0,1,427.886,325.177Z" transform="translate(-420.462 -268.09)" fill="#26aab7"/><path d="M432.183,331.978h0a.374.374,0,0,1-.4-.367c-1.244-24.164,21.109-34.942,26.709-36.315a.4.4,0,0,1,.467.28.388.388,0,0,1-.28.467c-5.478,1.345-27.321,11.884-26.134,35.531A.388.388,0,0,1,432.183,331.978Z" transform="translate(-422.818 -269.218)" fill="#fff"/><path d="M456.363,318.035a.36.36,0,0,1-.223-.043,20.411,20.411,0,0,0-17.363.654.4.4,0,0,1-.345-.719,21.166,21.166,0,0,1,18.06-.647.388.388,0,0,1,.165.518.381.381,0,0,1-.295.237Z" transform="translate(-424.638 -274.917)" fill="#fff"/></g><path d="M66.442,291.495c.87-5.565.525-15.141-3.775-25.2-4.6-10.784-11.5-18.477-18.312-17.255-6.334,1.114-6.061,9.548,1.934,19.728C51.9,275.908,58.31,283.982,60.1,293.515l2.689,13.229Z" transform="translate(-29.061 -248.913)" fill="#26aab7"/><g transform="translate(10.856)" opacity="0.15"><path d="M66.442,291.495c.87-5.565.525-15.141-3.775-25.2-4.6-10.784-11.5-18.477-18.312-17.255-6.334,1.114-6.061,9.548,1.934,19.728C51.9,275.908,58.31,283.982,60.1,293.515l2.689,13.229Z" transform="translate(-39.917 -248.913)"/></g><path d="M67.419,296.914a.41.41,0,0,1-.3-.345c-1.862-16.464-9.641-34.51-18.082-42.038a.41.41,0,0,1,0-.568.388.388,0,0,1,.561,0c8.577,7.614,16.464,25.883,18.348,42.541a.4.4,0,0,1-.352.446Z" transform="translate(-31.592 -250.298)" fill="#fff"/><path d="M55.189,332.914c-.446.151-.92.23-1.438.4a28.757,28.757,0,0,1-6.96,1.4c-4.645.273-9.533-.719-13.25-3.645-.769-.6-1.546-1.488-1.294-2.423.187-.719.884-1.143,1.524-1.5l9.267-5.155L31.7,322.87a5.22,5.22,0,0,1-2.214-.144,4.623,4.623,0,0,1-2.157-2.157,17.414,17.414,0,0,1-1.848-4.4,2.592,2.592,0,0,1,.288-2.5A2.667,2.667,0,0,1,26.9,313.1,55.829,55.829,0,0,1,38.94,310.77c-3.911-1.517-8.146-1.711-12.28-2.035a2.207,2.207,0,0,1-.863-.18,2.218,2.218,0,0,1-.892-1.9c-.424-4.781.805-9.663,1.287-14.379.158-1.539.331-1.481,1.747-1.287,6.4.891,12.337,2.6,18.556,4.2a3.372,3.372,0,0,1,1.891.949,3.156,3.156,0,0,1,.374,2.423,21.705,21.705,0,0,1-2.071,6.729A17.974,17.974,0,0,0,51,299.8a2.5,2.5,0,0,1,1.064-1.287,2.157,2.157,0,0,1,1.876.439c8.29,5.234,8.376,15.508,6.722,24.107-.079.424-.165.848-.252,1.273a13.962,13.962,0,0,1-1.769,4.939,15.227,15.227,0,0,1-2.294,2.991,2.976,2.976,0,0,1-1.165.654Z" transform="translate(-24.818 -260.71)" fill="#26aab7"/><path d="M57.266,335.772a.4.4,0,0,1-.259-.338c-1.143-13.164-16.177-33.64-22.791-37.731a.4.4,0,0,1-.129-.546.41.41,0,0,1,.554-.129c6.722,4.156,22,24.962,23.165,38.335a.4.4,0,0,1-.367.431A.359.359,0,0,1,57.266,335.772Z" transform="translate(-27.406 -262.418)" fill="#fff"/></g><g transform="translate(175.427 54.876)"><g transform="translate(0)"><g transform="translate(30.438)"><path d="M290.5,117.655a44.809,44.809,0,0,0-4.522-1.941c-1-.467-2.322-.848-2.7-2.006a5.463,5.463,0,0,1-.2-1.531,4.464,4.464,0,0,0-.244-1.51,5.815,5.815,0,0,1-.467-1.093,3.6,3.6,0,0,1,.194-1.438,2.286,2.286,0,0,0-.115-1.352,2.876,2.876,0,0,1,.618-2.876,4,4,0,0,0,.546-.611c.295-.489.173-1.122.324-1.675.654-2.466,4.968-.489,6.305.295.381.223,2.286,1.273,3.135,1.783a13.861,13.861,0,0,1,1.3-4.012c1.15-2.466,3.983-2.919,3.8-1.316a23.415,23.415,0,0,0-.4,5.335,23.725,23.725,0,0,0,.6,4.314,36.914,36.914,0,0,0,2.207,7.082c1.769,4.163,10.482,16.342,10.482,16.342,4.314-2.466,17.622-10.346,22.913-13.552,5.795-3.516,12.575-2.322,12.575-2.322L336,132.229s-16.608,8.886-21.885,11.755c-4.314,2.351-7.765,3.264-10.842-2.66C298.5,132.149,292.866,119.524,290.5,117.655Z" transform="translate(-282.29 -69.426)" fill="#ffa8a7"/><path d="M293.282,106.88c1.33.618,1.6,1.582,1.309,3.595-.173,1.179-.1,3.408,1.078,4.45a3.1,3.1,0,0,1-1.589-.942c-.525-.719-.683-.791-1.064-.475a2.287,2.287,0,0,1-.956.4,1.546,1.546,0,0,1-.086,1.848c-.719.949-3.523.626-5.644-.834,0,0,3.537,1.61,4.544.546s-.769-2.782-2.157-3.365c0,0,3.451,1.3,4.141.2s-.669-2.157-2.7-2.969c0,0,2.876.906,3.509,0A2.007,2.007,0,0,0,293.282,106.88Z" transform="translate(-283.426 -72.081)" fill="#f28f8f"/><path d="M370.224,99.972h5.033a16.924,16.924,0,0,0,16.917-16.946h0A19.455,19.455,0,0,0,372.762,63.55h0A17.773,17.773,0,0,0,359.7,69.064l-.338,26.551S365.874,99.972,370.224,99.972Z" transform="translate(-303.95 -59.903)" fill="#263238"/><path d="M389.365,65.128l-.791-5.248a2.574,2.574,0,0,0-2.286,2.962,2.775,2.775,0,0,0,3.077,2.286Z" transform="translate(-311.509 -58.872)" fill="#263238"/><path d="M400.585,70.479c-2.826,2.531-5.234.554-7.75-2.286s-4.206-5.457-1.4-7.98a6.867,6.867,0,1,1,9.124,10.267Z" transform="translate(-312.555 -58.478)" fill="#263238"/><path d="M431.869,352.322c-.661,1.373-.316,3.084-.367,6.809a62.554,62.554,0,0,1-.3,7.341c-.115.87-.4,1.661-.582,2.509a3.07,3.07,0,0,1-.978,1.747,1.869,1.869,0,0,1-1.668.467,1.79,1.79,0,0,1-1.064-.906,14.083,14.083,0,0,1-.949-2.559c-.719,6.226-7.448,10.54-3.336,12.079a11.46,11.46,0,0,0,8.937-.482,7.737,7.737,0,0,0,2.876-2.437c1.582-2.768,1.438-5.4,1.438-7.779a52.861,52.861,0,0,1,1.337-10.612C437.75,355.313,432.89,351.841,431.869,352.322Z" transform="translate(-321.357 -141.046)" fill="#263238"/><path d="M362.526,351.49a.568.568,0,0,1,.424.525c.115.719.252,2.013.489,3.207a16.309,16.309,0,0,1,.4,5.162c-.259,1.28-1.984,2.516-5.22,3.429A22.16,22.16,0,0,0,351.6,367.5a16.343,16.343,0,0,1-8.93,3.336c-3.3.1-6.744-.784-7.535-3.163-.338-1.007,1.3-2.1,5.529-4.127,0,0,2.157-1.129,3.35-1.891,6.1-3.846,8.182-6.025,9.965-9.95Z" transform="translate(-297.129 -140.825)" fill="#263238"/><path d="M353.866,309.58c1.948-2.107,2.315-4.134,2.056-8.045s-3.343-37.961-4.134-46.481c-1.33-14.322.115-55.008,1.3-64.944l37.134,2.948c2.768,6.931,4.8,15.472,4.364,28.866-.338,10.216-.108,37.933-.108,37.933a34.73,34.73,0,0,1,7.966,12.115c2.926,7.111,6.3,31.634,6.3,31.634h0a22.281,22.281,0,0,0,1.114,3.113,6.054,6.054,0,0,1,1.366,3.595,60.035,60.035,0,0,1-1.342,12.613,5.874,5.874,0,0,1-3.942,4.39,3.336,3.336,0,0,1-1.5.252,1.129,1.129,0,0,1-.719-.273c-.359-.359,0-1.222.036-1.654a15.72,15.72,0,0,0,.194-2.092c.043-1.38,0-3.063-.093-4.443a45.365,45.365,0,0,0-1.474-9.152l-.719-1.769h0s-16.536-33.425-21.209-41.57c-3.731-6.4-6.2-31.21-8.843-44.777l-3.868,32.425s1.344,5.852,1.855,10.331c.719,6.018-3.559,29.593-4.824,37.976a16.839,16.839,0,0,0-.058,4.695h0c-.453,3.631-3.171,4.752-5.982,6.809-1.438,1.021-7.549,4.76-11.266,5.514-3.02.611-4.177-.561-4.594-1.438A62.713,62.713,0,0,0,353.866,309.58Z" transform="translate(-299.318 -95.471)" fill="#ffa8a7"/><path d="M385.653,175.43s3.35,4.1,8.563,14.43c3.5,6.931,3.724,32.353,3.724,32.353s-3.048,6.945-22.288,5.795l-1.438-8.628-1.229,8.426-1.438-.144c-16.536-1.783-19.656-5.536-19.656-5.536s1.193-29.535,4.8-46.3C362.308,179.8,378.93,180.743,385.653,175.43Z" transform="translate(-301.85 -91.346)" fill="#455a64"/><path d="M376.623,229.117l-3.674-14.307A29.5,29.5,0,0,1,360.31,210s1.136,5.227,10.914,6.773l4.2,14.034-.043,6.758Z" transform="translate(-304.217 -101.061)" fill="#263238"/><path d="M397.213,240.2c6.837-1.632,9.555-4.45,9.555-4.45h0l.223,3.372s-3.048,6.945-22.288,5.795l-.633-3.832A41.7,41.7,0,0,0,397.213,240.2Z" transform="translate(-310.894 -108.298)" fill="#37474f"/><path d="M351.92,238.965s.057-1.366.18-3.7a44.5,44.5,0,0,0,10.447,3.825,67.755,67.755,0,0,0,11.058,1.575l-.582,3.976-1.438-.144C355.019,242.718,351.92,238.965,351.92,238.965Z" transform="translate(-301.859 -108.163)" fill="#37474f"/><path d="M352.562,135.874c3.71-5.752,11.1-11.209,13.495-13.114l12.639.1c1.74.086,4.314.3,5.248.453a8.175,8.175,0,0,1,2.387.791c2.912,1.553,3.207,4.436,3.307,7.858a46.407,46.407,0,0,1-.906,11.59l-1.876,7.909-.288,1.208c-.05.208-.093.417-.144.633a12.941,12.941,0,0,0,1.107,8.973c3.192,6.118,6.4,10.871,7.463,16.011a13.2,13.2,0,0,1-4.249-2.926c-2.056-1.977-3.3-2.876-4.946-5.234-3.976,7.686-25.329,14.236-32.015,2.329,0,0,2.049-10.267,2.394-13.711-.525-2.984-2.078-8.153-2.114-9.289C349.794,145.623,349.866,140.015,352.562,135.874Z" transform="translate(-301.508 -76.544)" fill="#1565c0"/><path d="M364.73,157.471s4.58,4.062,10.209,2.466a9.462,9.462,0,0,0,6.744-6.377s.18,6.348-6.9,8.052A9.107,9.107,0,0,1,364.73,157.471Z" transform="translate(-305.459 -85.2)" opacity="0.1"/><path d="M355.323,92.062c.633,9.5,2.876,12.093,5.277,12.783,1.618.46,4.522.259,7.413-.216v5.709s-3.336,3.509-3.084,6.126,5.248,2.919,8.994.352a28.333,28.333,0,0,0,5.543-5.033,2.006,2.006,0,0,0,.482-1.316V97.044s1.582,1.682,4.393-.244a5.191,5.191,0,0,0,1.323-7.535,3.807,3.807,0,0,0-5.809.719c-.841,1.639-.956,3.293-1.891,2.61-2.5-1.8-.927-7.139-3.947-9.167a40.6,40.6,0,0,0-4.544-2.6c-5.385-1.862-8.836-.956-9.958-4.645C355.754,77.618,354.618,81.579,355.323,92.062Z" transform="translate(-302.76 -63.453)" fill="#ffa8a7"/><path d="M370.66,95.5A1.28,1.28,0,1,0,372,94.23,1.316,1.316,0,0,0,370.66,95.5Z" transform="translate(-307.125 -68.525)" fill="#263238"/><path d="M357.679,95.033a1.229,1.229,0,0,0,1.143,1.316,1.158,1.158,0,0,0,1.244-1.2,1.222,1.222,0,0,0-1.143-1.309,1.237,1.237,0,0,0-1.244,1.193Z" transform="translate(-303.476 -68.416)" fill="#263238"/><path d="M364.234,93.84l-.208,8.009-4.206-1.309Z" transform="translate(-304.079 -68.416)" fill="#f28f8f"/><path d="M373.06,113.9c3.056-.4,9.347-2.207,10.317-4.695a6.471,6.471,0,0,1-2.207,3.171c-1.877,1.618-8.11,3.429-8.11,3.429Z" transform="translate(-307.8 -72.736)" fill="#f28f8f"/><path d="M372.05,89.585l2.991,1.309a1.726,1.726,0,0,0-.87-2.243,1.589,1.589,0,0,0-2.121.935Z" transform="translate(-307.516 -66.922)" fill="#263238"/><path d="M373.041,104.68l-5.881,2.056a3.041,3.041,0,0,0,3.9,2.006,3.135,3.135,0,0,0,1.984-4.062Z" transform="translate(-306.142 -71.462)" fill="#b16668"/><path d="M373.3,106.84a2.653,2.653,0,0,0-2.653,2.631,3.6,3.6,0,0,0,1.388-.122,3.063,3.063,0,0,0,2.1-2.394A2.675,2.675,0,0,0,373.3,106.84Z" transform="translate(-307.123 -72.069)" fill="#f28f8f"/><path d="M360.029,67.63C353.012,68.478,349,73.792,349,82.8h6.471a6.032,6.032,0,0,0,5.967-5.227h0l.237,5.227h0a4.8,4.8,0,0,0,4.774-4.386l.079-.856h0a5.68,5.68,0,0,0,5.658,5.241h.575l.661-9.347Z" transform="translate(-301.038 -61.05)" fill="#263238"/></g><g transform="translate(0 86.84)"><path d="M341.325,247.7c0-23.934-14.516-51.765-32.425-62.1-8.211-4.76-15.9-5.27-21.612-1.848h0L273.57,191.8l3.9,8.139a48.65,48.65,0,0,0-1.021,10.224c0,23.942,14.523,51.765,32.425,62.1a34.181,34.181,0,0,0,3.739,1.869l3.7,7.822,13.639-7.873h0C336.9,270.159,341.325,260.9,341.325,247.7Z" transform="translate(-249.401 -179.903)" fill="#fb8c00"/><ellipse cx="28.227" cy="49.982" rx="28.227" ry="49.982" transform="translate(0 22.013) rotate(-22.95)" fill="#fb8c00"/><path d="M357.776,267.2c-.036.273-.065.539-.108.805-.072.561-.158,1.122-.252,1.661-.158.892-.338,1.754-.546,2.588-.122.561-.273,1.107-.439,1.639-.079.266-.165.525-.244.784s-.173.525-.259.776c-.18.51-.374,1-.568,1.488l-.3.719a12.769,12.769,0,0,1-.719,1.438l-.23.439a20.57,20.57,0,0,1-1.2,1.992l-.216.316-.165.223a18.579,18.579,0,0,1-3.595,3.8l-.309.244c-.187.144-.381.288-.575.417l-.719.467c-.208.129-.431.266-.647.381h0l-13.272,7.736c5.543-3.451,9.347-10.418,10.468-20.131a52.412,52.412,0,0,0,.324-5.96c0-10.547-2.818-21.857-7.506-32.095l13.919-8.052c4.695,10.238,7.528,21.569,7.528,32.123a51.829,51.829,0,0,1-.339,5.929v-.012A1.853,1.853,0,0,1,357.776,267.2Z" transform="translate(-266.218 -193.205)" opacity="0.1"/><path d="M357.812,281.78c-.108.942-.237,1.862-.4,2.754s-.338,1.754-.546,2.588c-.137.561-.288,1.107-.439,1.639-.079.266-.165.525-.244.784s-.173.525-.259.776c-.18.51-.374,1-.568,1.488l-.3.719a12.771,12.771,0,0,1-.719,1.438l-.23.439a20.57,20.57,0,0,1-1.2,1.992c-.122.187-.244.367-.381.539a18.578,18.578,0,0,1-3.595,3.8l-.309.244c-.187.144-.381.288-.575.417l-.719.467c-.208.129-.431.266-.647.381h0l-13.272,7.736c5.543-3.451,9.347-10.418,10.468-20.131Z" transform="translate(-266.218 -208.074)" opacity="0.1"/><path d="M333.823,215.576l-13.9,8.052c-5.953-13.02-14.94-24.323-24.991-30.132-8.131-4.709-15.566-5.033-21.267-1.718l13.66-8.024c5.709-3.429,13.4-2.919,21.612,1.841C318.926,191.383,327.87,202.62,333.823,215.576Z" transform="translate(-249.426 -179.903)" fill="#fff" opacity="0.4"/><path d="M316.97,265.859c0,6.679-1.74,12.086-4.666,15.58-4.077,4.889-10.4,6.082-17.492,1.956s-13.459-12.682-17.535-22.288a55.287,55.287,0,0,1-4.666-20.987Z" transform="translate(-249.131 -196.366)" fill="#37474f"/><path d="M314.128,288.7c-4.077,4.889-10.4,6.082-17.492,1.956S283.177,277.975,279.1,268.37c4.544-3.279,10.741-3.322,17.536.6S309.584,280.1,314.128,288.7Z" transform="translate(-250.955 -203.63)" fill="#f28f8f"/><path d="M315.9,241.589c0,3.422,1.8,7.24,4.019,8.527s4.019-.453,4.019-3.875-1.8-7.24-4.019-8.527S315.9,238.167,315.9,241.589Z" transform="translate(-261.298 -195.571)" fill="#37474f"/><path d="M280.53,221.118c0,3.422,1.8,7.24,4.019,8.52s4.019-.446,4.019-3.868-1.8-7.24-4.019-8.527S280.53,217.667,280.53,221.118Z" transform="translate(-251.357 -189.817)" fill="#37474f"/></g><path d="M333.768,180.44a16.017,16.017,0,0,0-3.926.374c-2.675.489-5.241.827-7.909-.151-1.524-.561-3.314-1.8-3.595-3.552s1.632-2.322,2.818-2.962a34.585,34.585,0,0,1,5.083-2.272,16.083,16.083,0,0,1,9.152-.467c1.56.367,3.652.87,5.191.144,1.043-.5,2.063-1.093,3.084-1.618l8.031-4.148,11.065-5.716,5.09-21.936s1.186-9.009,6.2-14.8c3.8.338,7.513,1.654,8.369,4s.259,5.586-.8,10.5-6.543,20.85-8.678,26.544c-.978,2.6-1.438,3.7-4.9,5.2q-7.664,3.343-15.371,6.614c-2.667,1.129-5.328,2.258-8,3.365a15.519,15.519,0,0,1-5.227,1.6C337.593,181.26,335.688,180.548,333.768,180.44Z" transform="translate(-261.975 -76.707)" fill="#ffa8a7"/></g></g><g transform="translate(49.105 45.66)"><g transform="translate(46.284 44.02)"><path d="M142.936,127.024s14.221,8.8,15.486,9.5,3.882,3.214,6.557-.086c2.157-2.646,16.788-25.164,16.788-25.164L174,107.54l-13.66,16.745L139.78,109.647Z" transform="translate(-131.764 -107.07)" fill="#ffa8a7"/><path d="M140.112,110.793c4.6,3.631,12.51,9.5,12.51,9.5a21.051,21.051,0,0,1-6.011,11.841l-8.024-4.954L128.63,107S133.85,105.875,140.112,110.793Z" transform="translate(-128.63 -106.887)" fill="#01499a"/></g><g transform="translate(64.15 31.068)"><path d="M153.48,158.019c0-24.15,14.681-52.2,32.792-62.665,8.311-4.8,16.083-5.306,21.864-1.855h0L222,101.623l-3.969,8.211a48.552,48.552,0,0,1,1.028,10.317c0,24.15-14.681,52.2-32.792,62.658a34.155,34.155,0,0,1-3.775,1.884l-3.746,7.909L165,184.692h0C157.952,180.68,153.48,171.341,153.48,158.019Z" transform="translate(-153.48 -89.546)" fill="#fb8c00"/><ellipse cx="50.45" cy="28.543" rx="50.45" ry="28.543" transform="matrix(0.392, -0.92, 0.92, 0.392, 0.949, 92.844)" fill="#fb8c00"/><path d="M153.854,177.687l.108.812c.079.568.165,1.129.259,1.668.158.906.338,1.776.554,2.617.122.561.273,1.114.446,1.654.079.266.165.532.244.791s.18.525.266.784c.18.51.374,1.007.568,1.5.1.23.2.467.309.719a13.406,13.406,0,0,0,.719,1.438l.23.439a22.48,22.48,0,0,0,1.215,2.006c.072.115.144.216.223.324l.158.223a18.808,18.808,0,0,0,3.595,3.832l.309.244c.194.151.388.288.582.424s.467.316.719.467.439.266.654.388h0l13.481,7.844c-5.608-3.48-9.476-10.5-10.583-20.3a53.26,53.26,0,0,1-.331-6.011c0-10.648,2.876-22.051,7.592-32.353L161.094,139c-4.752,10.331-7.614,21.749-7.614,32.411a52.532,52.532,0,0,0,.338,5.967h0A.953.953,0,0,1,153.854,177.687Z" transform="translate(-153.48 -102.96)" opacity="0.1"/><path d="M153.94,192.41c.115.949.244,1.877.4,2.768s.338,1.776.554,2.617c.137.561.288,1.114.446,1.654.079.266.165.532.244.791s.18.525.266.784c.18.51.374,1.007.568,1.5.1.23.2.467.309.719a13.4,13.4,0,0,0,.719,1.438l.23.439a22.478,22.478,0,0,0,1.215,2.006c.122.194.252.374.381.546a18.808,18.808,0,0,0,3.595,3.832l.309.244c.194.151.388.288.582.424s.467.316.719.467.439.266.654.388h0l13.488,7.844c-5.608-3.48-9.476-10.5-10.583-20.3Z" transform="translate(-153.609 -117.97)" opacity="0.1"/><path d="M164.07,125.586l14.077,8.131c6.025-13.143,15.1-24.545,25.272-30.412,8.225-4.752,15.752-5.033,21.511-1.726L211.112,93.5c-5.752-3.451-13.552-2.941-21.864,1.862C179.118,101.2,170.088,112.537,164.07,125.586Z" transform="translate(-156.456 -89.546)" fill="#fff" opacity="0.4"/><path d="M202.824,151.849c0,3.451-1.819,7.3-4.062,8.628s-4.062-.453-4.062-3.911,1.819-7.3,4.062-8.628S202.824,148.4,202.824,151.849Z" transform="translate(-165.064 -105.348)" fill="#37474f"/><path d="M238.574,131.2c0,3.451-1.819,7.3-4.062,8.628s-4.062-.46-4.062-3.911,1.819-7.3,4.062-8.628S238.574,127.742,238.574,131.2Z" transform="translate(-175.111 -99.545)" fill="#37474f"/><path d="M202.257,193.995a12.8,12.8,0,0,1-4.9-.956c-4.616-1.876-8.16-6.471-9.979-13.028a2.107,2.107,0,1,1,4.055-1.136c1.438,5.241,4.134,8.886,7.52,10.267,2.876,1.179,6.327.719,9.936-1.38,8.628-4.99,16.479-18.039,19.527-32.476a2.109,2.109,0,0,1,4.127.87c-3.336,15.781-11.791,29.621-21.569,35.229a17.608,17.608,0,0,1-8.721,2.61Z" transform="translate(-162.98 -107.066)" fill="#37474f"/><path d="M182.5,188.886a5.859,5.859,0,0,1-2.689-.561,1.632,1.632,0,0,1,1.539-2.876,5.522,5.522,0,0,0,3.782-.367,7.032,7.032,0,0,0,4.055-4.752,1.632,1.632,0,0,1,3.135.913,10.209,10.209,0,0,1-9.821,7.65Z" transform="translate(-160.654 -114.245)" fill="#37474f"/><path d="M241.151,155.093a5.8,5.8,0,0,1-2.7-.568,1.632,1.632,0,0,1,1.539-2.876,5.522,5.522,0,0,0,3.782-.367,7,7,0,0,0,4.055-4.752,1.632,1.632,0,0,1,3.135.913,10.231,10.231,0,0,1-9.814,7.657Z" transform="translate(-177.134 -104.746)" fill="#37474f"/></g><path d="M82.441,370.269c-.259,1.014-.8,3.9-6.162,3.9s-8.433-2.157-9.49-4.918-.453-4.745-.352-7.118-1.668-3.89-2.056-5.177c-.575-1.891,1-4.494,1-4.494Z" transform="translate(-64.254 -131.882)" fill="#263238"/><path d="M149.622,351.771a3.192,3.192,0,0,1-.252,2.581,11.111,11.111,0,0,1-8.426,2.6,20.577,20.577,0,0,1-9.145-3.192,11.885,11.885,0,0,0-7.024-1.747c-2.639.007-4.45-.489-4.666-1.15-.388-1.165-.417-1.912.144-1.9Z" transform="translate(-79.871 -130.898)" fill="#263238"/><path d="M68.43,342.981c-.093,2.761,8.318,5.155,8.139,1.646l2.876-10.188-9.433-1Z" transform="translate(-65.427 -126.536)" fill="#ffa8a7"/><path d="M122.351,331.4a7.1,7.1,0,0,0,8.211.575l1.567-16.68H120.69Z" transform="translate(-80.115 -121.438)" fill="#ffa8a7"/><path d="M83.381,183.7c-2.157,20.131-6.1,60.767-6.1,60.767s-3.451,5.263-4.738,14.969c-1.582,11.992-3.156,37.012-3.156,37.012a11.079,11.079,0,0,0,9.347.956s13.452-36.732,15.939-48.53c2.157-10.3,6.018-31.455,6.018-31.455l4.81,28.759a44.921,44.921,0,0,0-1.553,14.027c.23,5.543,2.833,26.523,2.833,26.523.776,2.294,7.973,2.157,10.288.654,0,0,3.681-35.229,4.17-41.089.64-7.664,1.826-62.622,1.826-62.622Z" transform="translate(-65.698 -84.446)" fill="#37474f"/><path d="M112.91,223.893l2.682-12.381a29.227,29.227,0,0,0,10.288-4.8s-1.567,3.947-8.146,6.967L115,225.274l2.358,25.437Z" transform="translate(-77.928 -90.921)" fill="#263238"/><path d="M75.5,347.9l.309-1.064c.352.352.295.654.3,1.6a22.347,22.347,0,0,0,.82,6.341c.719,2.941,1.474,4.12,3.537,7.75a30.639,30.639,0,0,1,2.027,3.221c.352.935.453,2.624-.647,3.271-3.135,1.855-7.973,1.352-11.043-.093a6.579,6.579,0,0,1-3.861-5.975c0-.719.158-1.488.187-2.236a10.6,10.6,0,0,0-1.265-4.911,14.013,14.013,0,0,1-1.136-2.746c-.41-1.74.4-3.487,1.086-5.033.582-1.344,1.265-3.142,1.726-2.933,0,.173-.18,1.179-.18,1.179a6.368,6.368,0,0,0,3.76,1.956C72.269,348.437,75.375,348.782,75.5,347.9Z" transform="translate(-64.356 -129.807)" fill="#455a64"/><path d="M130.589,333.552c.41,0,.827.324,1.553,1.38a12.711,12.711,0,0,0,3.789,3.638,54.767,54.767,0,0,0,11.352,5.457c2.387.892,2.84,2.617,2.049,4.163-1.237,1.237-5.45,4.127-12.373,2.02-4.314-1.309-5.8-3.516-8.872-3.9-2.157-.273-5.939.316-8.153-1.438-.719-1.675-.137-3.358.086-5.687s.963-6.046,1.7-5.9l.129,1.237c.59,2.689,6.78,2.955,8.534,1.193Z" transform="translate(-79.804 -126.49)" fill="#455a64"/><path d="M103.218,106a65.6,65.6,0,0,0-13.948,1.143c-2.977.633-3.918,5.629-4.112,8.958-.64,10.784,4.184,30.879,4.184,30.879l-2.25,18.693c5.033,5.392,27.594,8.2,40.478.3,0,0,.345-36.775,0-42.972-.6-10.907-5.284-16.134-9.3-16.443C118.265,106.539,109.1,106,103.218,106Z" transform="translate(-70.112 -62.618)" fill="#1565c0"/><path d="M100.963,59.91s-3.084.424-4.213,2.746c-.985,2.02-.633,6.9.719,12.222a52.107,52.107,0,0,0,3.314,9.994,4.069,4.069,0,0,0,2.351,1.884l-.151-6.312-.23-4.393s2.818-3.854,3.128-7.01c.4-4.062-.453-5.752-.453-5.752Z" transform="translate(-73.229 -49.665)" fill="#37474f"/><path d="M109.75,63.791A11.777,11.777,0,1,0,121.491,52,11.777,11.777,0,0,0,109.75,63.791Z" transform="translate(-77.04 -47.442)" fill="#37474f"/><path d="M102.2,75.409c-1.064.913-1.92-1.438-2.818-2.387s-3.8-2.157-5.234.863,1.33,7.341,3.5,8.354c3.185,1.474,4.616-1.74,4.616-1.74l.338,13.272c5.443,8.247,18.1,6.571,12.819.518V89.975a25.123,25.123,0,0,0,5.306.252c2.876-.453,4.407-2.639,5.277-5.752,1.395-5.033,1.359-12.7-.575-22.489-3.243-2.5-13.89-2.876-20.692,1.438C105.2,72.051,103.276,74.489,102.2,75.409Z" transform="translate(-72.543 -49.727)" fill="#ffa8a7"/><path d="M129.759,50.153a.539.539,0,0,0-.424-.324.654.654,0,0,0-.4.173,18.882,18.882,0,0,1-2.581,1.733,9.181,9.181,0,0,0,.043-3.516c-.122-.719-.324-2.365-1.208-2.545-.525-.1-.985.338-1.38.719-3.537,3.314-8.16,1.776-12.424,1.912-3.595.115-7.865,1.567-9.476,5.033-.719,1.589-.863,3.257.59,4.357a10.123,10.123,0,0,0,4.314,1.625c7.1,1.237,16.666,3.667,21.921-2.955a6.226,6.226,0,0,0,1.438-3.278,5.227,5.227,0,0,0-.431-2.876.1.1,0,0,0,.014-.058Z" transform="translate(-74.689 -45.66)" fill="#263238"/><path d="M119.213,99.458s-6.471-1.287-8.735-2.48A7.434,7.434,0,0,1,107.35,93.9a10.115,10.115,0,0,0,1.783,3.667c1.661,2.107,10.065,3.638,10.065,3.638Z" transform="translate(-76.366 -59.217)" fill="#f28f8f"/><path d="M120.5,78.684a1.3,1.3,0,1,1-1.3-1.344,1.316,1.316,0,0,1,1.3,1.344Z" transform="translate(-79.331 -54.563)" fill="#263238"/><path d="M118.434,72.075l-2.768,1.539a1.661,1.661,0,0,1,.64-2.207,1.553,1.553,0,0,1,2.128.669Z" transform="translate(-78.65 -52.843)" fill="#263238"/><path d="M120.479,88.91l6.614,2.452a3.458,3.458,0,0,1-4.479,2.207A3.7,3.7,0,0,1,120.479,88.91Z" transform="translate(-79.997 -57.815)" fill="#b16668"/><path d="M136.567,72.835,134,70.9a1.539,1.539,0,0,1,2.2-.345A1.675,1.675,0,0,1,136.567,72.835Z" transform="translate(-83.855 -52.567)" fill="#263238"/><path d="M135.489,78.124a1.294,1.294,0,1,1-1.3-1.344,1.316,1.316,0,0,1,1.3,1.344Z" transform="translate(-83.547 -54.406)" fill="#263238"/><path d="M127.32,76.97l.446,7.786,4.062-1.395Z" transform="translate(-81.978 -54.459)" fill="#f28f8f"/><path d="M122.659,94.313a3.379,3.379,0,0,0,1.9.129,2.991,2.991,0,0,0-4.127-2.66,3.6,3.6,0,0,0,2.229,2.531Z" transform="translate(-80.042 -58.559)" fill="#f28f8f"/><path d="M93.779,159.75c-3.178-1.071-4.429-1.7-5.946-6.507-4.041-12.79-7.693-23.338-8.469-29.751-1.5-12.4,3.487-13.531,7.247-14.883l5.177,12.575L99.408,148.6c6.126,2.754,16.155,4.788,23.33,7.017a18.65,18.65,0,0,0,4.81.467c2.5-.244,4.041-.539,5.435-.295-.137,1.028-.194,2-.266,2.912a41.345,41.345,0,0,0,7.3-.669c5.22-.971,7.089.762,2.8,6-2.423,2.969-7.19,4.112-14.12,3.379a69.473,69.473,0,0,1-10.619-2.222C109.006,162.755,98.776,161.425,93.779,159.75Z" transform="translate(-68.424 -63.351)" fill="#ffa8a7"/><path d="M87.122,107.54c-7.643.834-10.849,7.571-9.275,15.429,1.129,5.579,3.336,13.279,5.119,18.9,0,0,9.3-.093,13.768-4.364-1.682-5.522-1.956-6.679-3.444-11.913C92.744,115.125,90.573,110.028,87.122,107.54Z" transform="translate(-67.965 -63.05)" fill="#01499a"/><path d="M190.773,99.837c.848-.719,1.8-1.438,2.876-2.2a14.417,14.417,0,0,1,6.866,3.278c2.387,1.891,9.577,1.761,8.548-1.546-1.438-4.652-6.471-6.348-8.728-6.837C196.618,91.727,189.946,94.991,190.773,99.837Z" transform="translate(-99.791 -58.798)" fill="#ffa8a7"/></g></g></svg>