<svg xmlns="http://www.w3.org/2000/svg" width="352.334" height="309.743" viewBox="0 0 352.334 309.743">
  <g id="Shared_goals-amico" data-name="Shared goals-amico" transform="translate(-9.1 -36.85)">
    <g id="freepik--Background--inject-25" transform="translate(27.771 41.87)" opacity="0.72">
      <path id="Trazado_125851" data-name="Trazado 125851" d="M67.728,124.945A183.438,183.438,0,0,0,38.281,185.8c-4.438,16.841-25.075,113.7,115.785,136.093,152.382,24.223,184.132-41.358,193.409-98.961C363.792,121.675,315.177,63.1,245.675,47.6c-30.931-6.893-63.829-4.406-92.421,8.2A214.4,214.4,0,0,0,67.728,124.945Z" transform="translate(-34.64 -43.834)" fill="#455a64"/>
    </g>
    <g id="freepik--hand-2--inject-25" transform="translate(158.646 66.078)">
      <path id="Trazado_125852" data-name="Trazado 125852" d="M350.206,133.9a93.88,93.88,0,0,1,22.232,5.341c11.119,4.313,17.772,14.052,31.033,16.92,0,0,16.617,20.126,0,50.767l-23.233-3.486a27.546,27.546,0,0,0-10.235.352c-4.576,1.049-12.823,2.1-24.293.266Z" transform="translate(-249.174 -93.371)" fill="#ffa8a7"/>
      <path id="Trazado_125853" data-name="Trazado 125853" d="M239.42,248.83l17.619,10.092v69.815l-17.7-10.221Z" transform="translate(-220.566 -125.692)" fill="#fb8c00"/>
      <path id="Trazado_125854" data-name="Trazado 125854" d="M239.42,248.83l17.619,10.092v69.815l-17.7-10.221Z" transform="translate(-220.566 -125.692)" opacity="0.2"/>
      <path id="Trazado_125855" data-name="Trazado 125855" d="M236.761,242.449l6.58-21.563c4.752-6.562,7.844-14.634,7.844-21.779,0-11.766-8.4-16.532-18.759-10.652s-18.766,20.19-18.766,31.957c0,5.786,2.032,9.876,5.329,11.845h0l.3.173Z" transform="translate(-213.66 -108.005)" fill="#fb8c00"/>
      <path id="Trazado_125856" data-name="Trazado 125856" d="M239.42,92.5l17.619,10.092v69.822l-17.7-10.228Z" transform="translate(-220.566 -81.728)" fill="#fb8c00"/>
      <path id="Trazado_125857" data-name="Trazado 125857" d="M239.42,92.5l17.619,10.092v69.822l-17.7-10.228Z" transform="translate(-220.566 -81.728)" opacity="0.2"/>
      <path id="Trazado_125858" data-name="Trazado 125858" d="M342.26,99.518l-.271-.158.263.158Z" transform="translate(-248.173 -83.657)" fill="#ffa8a7"/>
      <path id="Trazado_125859" data-name="Trazado 125859" d="M313.338,92.62l-16.12-9.229h0c-14.621-8.92-35.091-7.993-57.8,4.895a.3.3,0,0,0-.08.05l17.7,10.063C278.978,85.928,298.856,84.641,313.338,92.62Z" transform="translate(-220.566 -77.514)" fill="#fb8c00"/>
      <path id="Trazado_125860" data-name="Trazado 125860" d="M340.56,98.53l1.045.6Z" transform="translate(-247.789 -83.424)" fill="#ffa8a7"/>
      <path id="Trazado_125861" data-name="Trazado 125861" d="M314.265,97.324,314,97.166l-1.045-.6c-14.482-7.978-34.36-6.692-56.292,5.75v69.815c-10.352,5.88-18.744,20.169-18.744,31.914s8.393,16.532,18.744,10.638v69.822c44.3-25.157,80.226-86.325,80.226-136.633C336.891,123.229,328.264,105.77,314.265,97.324Z" transform="translate(-220.185 -81.463)" fill="#fb8c00"/>
      <path id="Trazado_125862" data-name="Trazado 125862" d="M314.265,97.324,314,97.166l-1.045-.6c-14.482-7.978-34.36-6.692-56.292,5.75v69.815c-10.352,5.88-18.744,20.169-18.744,31.914s8.393,16.532,18.744,10.638v69.822c44.3-25.157,80.226-86.325,80.226-136.633C336.891,123.229,328.264,105.77,314.265,97.324Z" transform="translate(-220.185 -81.463)" fill="#fff" opacity="0.3"/>
      <path id="Trazado_125863" data-name="Trazado 125863" d="M325.689,134.549a36.855,36.855,0,0,0-14.621-15.677c-12.91-7.324-29.725-6.052-47.519,3.594v7.475c.541-.331,1.089-.647,1.645-.963,9.708-5.513,19.008-8.295,27.305-8.295a30.541,30.541,0,0,1,15.235,3.8c10.564,5.995,16.646,18.509,17.29,35.421q.066,1.509.066,3.062c0,38.951-27.473,86.347-61.57,106.7v7.468l1.645-.906c36.67-20.845,66.526-71.626,66.526-113.258C331.691,151.871,329.622,142.261,325.689,134.549Z" transform="translate(-227.069 -87.824)" fill="#fff"/>
      <path id="Trazado_125864" data-name="Trazado 125864" d="M316.325,179.326c0-16.208-5.731-28.392-16.142-34.3-10.008-5.678-22.963-4.78-36.633,2.509v7.482c.541-.331,1.089-.668,1.645-.978,7.311-4.14,14.248-6.232,20.47-6.232a22.531,22.531,0,0,1,11.258,2.818c8.29,4.708,12.852,14.9,12.852,28.7,0,29.326-20.579,64.956-46.2,80.5v7.482q.811-.431,1.645-.906C293.385,250.4,316.325,211.333,316.325,179.326Z" transform="translate(-227.077 -95.461)" fill="#fff"/>
      <path id="Trazado_125865" data-name="Trazado 125865" d="M300.951,195.691c0-11.551-4.13-20.255-11.638-24.51-7.1-4.032-16.193-3.493-25.763,1.438v7.468c.541-.338,1.089-.668,1.645-.978,4.862-2.76,9.5-4.162,13.576-4.162a14.515,14.515,0,0,1,7.252,1.811c5.381,3.055,8.349,9.775,8.349,18.911,0,19.7-13.685,43.608-30.821,54.311v7.461c.541-.28,1.089-.561,1.645-.877C284.912,245.394,300.951,218.073,300.951,195.691Z" transform="translate(-227.077 -103.1)" fill="#fff"/>
      <path id="Trazado_125921" data-name="Trazado 125921" d="M26.2.193C40.675.3,52.456,7.218,52.518,15.645S40.9,30.817,26.426,30.71.173,23.686.111,15.259,11.732.086,26.2.193Z" transform="translate(9.938 127.055) rotate(-60)" fill="#fff"/>
      <path id="Trazado_125922" data-name="Trazado 125922" d="M13.26.1c7.323.054,13.286,3.556,13.317,7.822s-5.88,7.68-13.2,7.626S.088,11.99.056,7.724,5.937.044,13.26.1Z" transform="translate(23.045 119.398) rotate(-60)" fill="#fb8c00"/>
      <path id="Trazado_125923" data-name="Trazado 125923" d="M13.26.1c7.323.054,13.286,3.556,13.317,7.822s-5.88,7.68-13.2,7.626S.088,11.99.056,7.724,5.937.044,13.26.1Z" transform="translate(23.045 119.398) rotate(-60)" fill="#fff" opacity="0.3"/>
      <path id="Trazado_125866" data-name="Trazado 125866" d="M362.98,157.858l-8.663-2.358a16.052,16.052,0,0,0-6.353-.417c-6.1.834-19.008,2.588-22.034,2.947-3.948.474-5.929,5.6-3.187,9.819s9.16,9.883,28.913,8.474c0,0,9.7,24.783,33.855,11.076C392.646,183.368,387.653,165.765,362.98,157.858Z" transform="translate(-242.655 -99.288)" fill="#ffa8a7"/>
      <path id="Trazado_125867" data-name="Trazado 125867" d="M381.783,161.3a1.106,1.106,0,0,1-.446-.093c-1.784-.776-3.655-1.488-5.658-2.156l-4.876-1.33a1.088,1.088,0,0,1-.8-.766,1.066,1.066,0,0,1,.3-1.057,1.11,1.11,0,0,1,1.085-.254l4.927,1.344a62.1,62.1,0,0,1,5.914,2.214,1.074,1.074,0,0,1,.626,1.209,1.092,1.092,0,0,1-1.072.854Z" transform="translate(-255.697 -99.471)" fill="#f28f8f"/>
      <path id="Trazado_125868" data-name="Trazado 125868" d="M384.041,203.363c-7.764,0-13.159-4.313-16.639-8.539a1.073,1.073,0,0,1,.168-1.517,1.109,1.109,0,0,1,1.543.165c4.094,5.031,11.273,10.178,22.261,6.419a1.106,1.106,0,0,1,1.4.661,1.078,1.078,0,0,1-.673,1.38A24.819,24.819,0,0,1,384.041,203.363Z" transform="translate(-254.943 -110.01)" fill="#f28f8f"/>
      <path id="Trazado_125869" data-name="Trazado 125869" d="M421.177,165.85c2.142,7.281,7.011,28.651-3.86,44.564a5.6,5.6,0,0,1-5.476,2.35l-3.341-.5h0a3.175,3.175,0,0,0,2.529,3.084l34.389,7.411V159.28l-31.436,1.984,2.01.863a10.106,10.106,0,0,0,1.762.582h0a4.575,4.575,0,0,1,3.421,3.141Z" transform="translate(-266.06 -100.508)" fill="#26aab7"/>
      <path id="Trazado_125870" data-name="Trazado 125870" d="M439.29,163.123c2.851,8.5,7.669,29.333-3.611,51.235a5.727,5.727,0,0,1-6.3,2.918l-2.354-.5h0a3.381,3.381,0,0,0,.755,2.523,3.5,3.5,0,0,0,2.352,1.251l38.242,3.9s5.454-8.467,5.454-35.989-7.9-32.683-7.9-32.683l-31.392,1.078a2.652,2.652,0,0,0-2.588,2.631h0l1.689-.108a5.562,5.562,0,0,1,5.651,3.752Z" transform="translate(-271.036 -99.521)" fill="#263238"/>
      <path id="Trazado_125871" data-name="Trazado 125871" d="M459.633,234.882a4.577,4.577,0,1,1-4.576-4.492,4.538,4.538,0,0,1,4.576,4.492Z" transform="translate(-277.351 -120.506)" fill="#fff"/>
      <path id="Trazado_125872" data-name="Trazado 125872" d="M380.917,157.891a1.2,1.2,0,0,1-.27,0,1.091,1.091,0,0,1-.8-1.315,5.566,5.566,0,0,0-.541-4.083,1.068,1.068,0,0,1,.424-1.467,1.107,1.107,0,0,1,1.492.417,7.7,7.7,0,0,1,.731,5.664,1.087,1.087,0,0,1-1.038.783Z" transform="translate(-258.172 -98.149)" fill="#f28f8f"/>
      <path id="Trazado_125873" data-name="Trazado 125873" d="M387.72,226.477a1.093,1.093,0,0,1-1.055-.818,1.072,1.072,0,0,1,.543-1.209,10.162,10.162,0,0,0,5.278-7.691,1.1,1.1,0,0,1,2.193.223,12.218,12.218,0,0,1-6.426,9.344A1.118,1.118,0,0,1,387.72,226.477Z" transform="translate(-260.179 -116.399)" fill="#f28f8f"/>
      <path id="Trazado_125874" data-name="Trazado 125874" d="M332.784,166.151h-.8a7.5,7.5,0,0,1-6.185-3.544.713.713,0,0,1,.315-.955.738.738,0,0,1,.979.287c.994,1.862,3.231,2.652,5,2.782a19.646,19.646,0,0,0,6.375-.992c.621-.165,1.214-.374,1.382-.719a1.64,1.64,0,0,0,0-.9,9.071,9.071,0,0,0-1.045-2.674.708.708,0,0,1-.022-.736.737.737,0,0,1,1.286.017,10.218,10.218,0,0,1,1.206,3.04,2.829,2.829,0,0,1-.066,1.761,3.271,3.271,0,0,1-2.347,1.567A23.531,23.531,0,0,1,332.784,166.151Z" transform="translate(-243.799 -100.242)" fill="#f28f8f"/>
    </g>
    <g id="freepik--hand-1--inject-25" transform="translate(9.1 82.176)">
      <path id="Trazado_125875" data-name="Trazado 125875" d="M103.012,265.59S85.386,272.634,81.965,278.1s-8.115,24.575-10.4,37.736S60.34,339.516,60.34,339.516l13.817,13.168,33.015-64.3Z" transform="translate(-22.881 -146.503)" fill="#ffa8a7"/>
      <path id="Trazado_125876" data-name="Trazado 125876" d="M132.521,246.605c0-50.314,35.924-111.483,80.234-136.633l-17.7-10.063C150.8,125.132,114.91,186.228,114.91,236.543c0,26.214,9.76,44.3,25.375,52.054h0l15.63,9h0C141.447,289.315,132.521,271.676,132.521,246.605Z" transform="translate(-37.557 -99.91)" fill="#fb8c00"/>
      <path id="Trazado_125877" data-name="Trazado 125877" d="M132.521,246.605c0-50.314,35.924-111.483,80.234-136.633l-17.7-10.063C150.8,125.132,114.91,186.228,114.91,236.543c0,26.214,9.76,44.3,25.375,52.054h0l15.63,9h0C141.447,289.315,132.521,271.676,132.521,246.605Z" transform="translate(-37.557 -99.91)" fill="#fff" opacity="0.3"/>
      <path id="Trazado_125878" data-name="Trazado 125878" d="M139,250.545c0,25.064,8.919,42.7,23.35,50.983s34.652,7.188,56.884-5.434V226.279c-10.344,5.88-18.737,1.114-18.737-10.631s8.393-26.041,18.737-31.914V113.92C174.932,139.07,139,200.231,139,250.545Z" transform="translate(-44.036 -103.85)" fill="#fb8c00"/>
      <path id="Trazado_125879" data-name="Trazado 125879" d="M223.681,140.5V133q-.819.438-1.645.906c-36.67,20.845-66.526,71.626-66.526,113.258,0,20.845,7.311,36.528,20.645,44.09a37.087,37.087,0,0,0,18.532,4.7c.768,0,1.543,0,2.325-.065,8.341-.438,17.363-3.177,26.647-8.2v-7.439c-.541.331-1.089.647-1.645.963q-1.535.87-3.07,1.653c-15.089,7.748-29.023,8.762-39.477,2.81-11.193-6.354-17.355-20.018-17.355-38.483C162.111,208.242,189.585,160.845,223.681,140.5Z" transform="translate(-48.476 -109.216)" fill="#fff"/>
      <path id="Trazado_125880" data-name="Trazado 125880" d="M227.7,270.6C215.543,277.5,204.306,278.71,196,274s-12.852-14.893-12.852-28.694c0-29.326,20.579-64.956,46.2-80.5V157.33c-.548.295-1.1.589-1.645.906-28.153,16-51.13,55.066-51.13,87.073,0,16.208,5.732,28.392,16.142,34.3a29.071,29.071,0,0,0,14.526,3.695c6.872,0,14.373-2.077,22.107-6.2v-7.483C228.79,269.941,228.256,270.286,227.7,270.6Z" transform="translate(-54.14 -116.058)" fill="#fff"/>
      <path id="Trazado_125881" data-name="Trazado 125881" d="M233.356,259.98c-8.042,4.571-15.447,5.405-20.828,2.35s-8.349-9.775-8.349-18.911c0-19.7,13.678-43.608,30.821-54.311V181.64c-.548.28-1.089.568-1.645.884-19.739,11.191-35.756,38.5-35.756,60.895,0,11.544,4.13,20.255,11.638,24.51a21,21,0,0,0,10.52,2.688A33.962,33.962,0,0,0,235,266.463V259C234.445,259.34,233.912,259.663,233.356,259.98Z" transform="translate(-59.796 -122.894)" fill="#fff"/>
      <path id="Trazado_125882" data-name="Trazado 125882" d="M139,250.545c0,25.064,8.919,42.7,23.35,50.983s34.652,7.188,56.884-5.434V226.279c-10.344,5.88-18.737,1.114-18.737-10.631s8.393-26.041,18.737-31.914V113.92C174.932,139.07,139,200.231,139,250.545Z" transform="translate(-44.036 -103.85)" fill="#fff" opacity="0.5"/>
      <path id="Trazado_125883" data-name="Trazado 125883" d="M158.738,328.975c7.99-1.919,14.46-11.716,14.46-11.716s7.011-27.853,17.728-27.45a3.834,3.834,0,0,1,2.712,1.293,3.7,3.7,0,0,1,.907,2.826c-.461,4.564-5.366,22.771-7.976,31.526C183.4,336.112,164.4,352.421,164.4,352.421S150.755,330.915,158.738,328.975Z" transform="translate(-48.67 -153.312)" fill="#ffa8a7"/>
      <path id="Trazado_125884" data-name="Trazado 125884" d="M152.584,310.39c7.91-2.235,13.971-12.284,13.971-12.284s5.848-28.1,16.58-28.126a3.84,3.84,0,0,1,2.759,1.18,3.708,3.708,0,0,1,1.027,2.781c-.27,4.586-4.386,22.965-6.675,31.82-2.734,10.782-21.04,27.831-21.04,27.831S144.681,312.632,152.584,310.39Z" transform="translate(-47.056 -147.737)" fill="#ffa8a7"/>
      <path id="Trazado_125885" data-name="Trazado 125885" d="M174.892,334.245a1.193,1.193,0,0,1-1.087-.7,1.156,1.156,0,0,1,.2-1.26c4.891-5.362,9.8-14.167,11.4-20.492,1.067-4.2,2.8-11.5,4.269-18.422a1.191,1.191,0,0,1,1.411-.906,1.172,1.172,0,0,1,.921,1.387c-1.28,6-3,13.441-4.284,18.508-1.718,6.757-6.74,15.813-11.945,21.491a1.178,1.178,0,0,1-.885.388Z" transform="translate(-53.369 -154.055)" fill="#f28f8f"/>
      <path id="Trazado_125886" data-name="Trazado 125886" d="M144.2,294.867c7.9-2.243,13.963-12.291,13.963-12.291s5.848-28.1,16.58-28.126a3.839,3.839,0,0,1,2.756,1.2,3.707,3.707,0,0,1,1.009,2.792c-.27,4.579-4.423,22.965-6.667,31.82-2.734,10.782-21.047,27.831-21.047,27.831S136.3,297.1,144.2,294.867Z" transform="translate(-44.801 -143.37)" fill="#ffa8a7"/>
      <path id="Trazado_125887" data-name="Trazado 125887" d="M108.812,288.583s5.768,6.749,13.671,4.514,13.963-12.291,13.963-12.291,5.848-28.1,16.58-28.126a3.839,3.839,0,0,1,2.762,1.182,3.708,3.708,0,0,1,1.025,2.785c-.27,4.579-4.423,22.965-6.667,31.82C147.412,299.25,129.1,316.3,129.1,316.3L103.76,301.255Z" transform="translate(-34.558 -142.872)" fill="#ffa8a7"/>
      <path id="Trazado_125888" data-name="Trazado 125888" d="M143.693,360.069s-15.667,16.668-47.519,27.853L79.25,367.077,97.168,317l28.767,3.594S152.173,334.394,143.693,360.069Z" transform="translate(-27.967 -160.96)" fill="#ffa8a7"/>
      <path id="Trazado_125889" data-name="Trazado 125889" d="M148.811,310.478a1.189,1.189,0,0,1-.8-.295,1.158,1.158,0,0,1-.1-1.653c7.252-7.993,11.7-14.642,12.867-19.242,2.471-9.754,6.382-27.314,6.638-31.626a1.193,1.193,0,0,1,2.376.137c-.285,4.809-4.518,23.411-6.7,32.036-1.594,6.275-8.166,14.462-13.4,20.234a1.193,1.193,0,0,1-.885.41Z" transform="translate(-46.353 -143.98)" fill="#f28f8f"/>
      <path id="Trazado_125890" data-name="Trazado 125890" d="M162.56,320.138a1.18,1.18,0,0,1-.819-.323,1.151,1.151,0,0,1-.051-1.653c5.249-5.484,12.428-16.906,14.256-23.993,1.506-5.944,3.9-16.323,5.381-23.842a1.193,1.193,0,0,1,1.4-.934,1.176,1.176,0,0,1,.95,1.373c-1.462,7.562-3.9,17.969-5.417,23.971-1.937,7.641-9.372,19.328-14.833,25.028A1.2,1.2,0,0,1,162.56,320.138Z" transform="translate(-50.051 -147.566)" fill="#f28f8f"/>
      <path id="Trazado_125891" data-name="Trazado 125891" d="M45.76,376.042,57.238,365.26s31.245,9.128,32.9,37.829l-10.147,7.123Z" transform="translate(-18.96 -174.532)" fill="#26aab7"/>
      <path id="Trazado_125892" data-name="Trazado 125892" d="M45.76,376.042,57.238,365.26s31.245,9.128,32.9,37.829l-10.147,7.123Z" transform="translate(-18.96 -174.532)" fill="#fff" opacity="0.3"/>
      <path id="Trazado_125893" data-name="Trazado 125893" d="M35.981,373.451c6.631,1.7,34.287,10.731,37.5,43.587a3.16,3.16,0,0,1-.907,2.523l-21.2,21.664S2.506,426.439,9.853,390.515l23.569-16.6A3.083,3.083,0,0,1,35.981,373.451Z" transform="translate(-9.1 -176.808)" fill="#263238"/>
      <path id="Trazado_125894" data-name="Trazado 125894" d="M84.483,429.821A4.182,4.182,0,1,1,80.3,425.71,4.147,4.147,0,0,1,84.483,429.821Z" transform="translate(-27.125 -191.532)" fill="#fff"/>
      <path id="Trazado_125895" data-name="Trazado 125895" d="M117.853,305.488a1.367,1.367,0,0,1-.344-.043,15.879,15.879,0,0,1-10.9-11.572,1.174,1.174,0,0,1,.91-1.4,1.194,1.194,0,0,1,1.422.895,13.642,13.642,0,0,0,9.255,9.826,1.171,1.171,0,0,1,.834,1.292,1.185,1.185,0,0,1-1.177,1Z" transform="translate(-35.317 -154.055)" fill="#f28f8f"/>
    </g>
    <g id="freepik--Sparkles--inject-25" transform="translate(54.908 36.85)">
      <ellipse id="Elipse_4768" data-name="Elipse 4768" cx="4.459" cy="4.385" rx="4.459" ry="4.385" transform="translate(56.789 48.819)" fill="#fafafa"/>
      <ellipse id="Elipse_4769" data-name="Elipse 4769" cx="4.459" cy="4.385" rx="4.459" ry="4.385" transform="translate(188.525 240.05)" fill="#fafafa"/>
      <path id="Trazado_125896" data-name="Trazado 125896" d="M78.135,245.155A3.188,3.188,0,1,1,74.955,242a3.215,3.215,0,0,1,2.257.928,3.107,3.107,0,0,1,.923,2.227Z" transform="translate(-71.76 -94.543)" fill="#fafafa"/>
      <ellipse id="Elipse_4770" data-name="Elipse 4770" cx="3.18" cy="3.127" rx="3.18" ry="3.127" transform="translate(210.274 33.064)" fill="#fafafa"/>
      <path id="Trazado_125897" data-name="Trazado 125897" d="M126.666,166.452a2.193,2.193,0,1,1-2.193-2.192A2.218,2.218,0,0,1,126.666,166.452Z" transform="translate(-85.347 -72.68)" fill="#fafafa"/>
      <path id="Trazado_125898" data-name="Trazado 125898" d="M316.146,365.492a2.193,2.193,0,1,1-2.23-2.192,2.213,2.213,0,0,1,1.588.631A2.138,2.138,0,0,1,316.146,365.492Z" transform="translate(-136.306 -128.655)" fill="#fafafa"/>
      <path id="Trazado_125899" data-name="Trazado 125899" d="M173.42,113.076a2.191,2.191,0,0,1-1.351,2.051,2.258,2.258,0,0,1-2.442-.452,2.166,2.166,0,0,1-.5-2.393,2.27,2.27,0,0,1,3.638-.743A2.138,2.138,0,0,1,173.42,113.076Z" transform="translate(-97.901 -57.68)" fill="#fafafa"/>
      <path id="Trazado_125900" data-name="Trazado 125900" d="M360.429,348.142a2.23,2.23,0,1,1-2.23-2.192,2.211,2.211,0,0,1,2.23,2.192Z" transform="translate(-148.196 -123.776)" fill="#fafafa"/>
      <path id="Trazado_125901" data-name="Trazado 125901" d="M105.17,245.546a2.191,2.191,0,0,1-1.359,2.054,2.258,2.258,0,0,1-2.447-.468,2.165,2.165,0,0,1-.476-2.406,2.232,2.232,0,0,1,2.089-1.337A2.175,2.175,0,0,1,105.17,245.546Z" transform="translate(-79.546 -94.933)" fill="#fafafa"/>
      <path id="Trazado_125902" data-name="Trazado 125902" d="M385.786,117.142a2.193,2.193,0,1,1-2.193-2.192A2.218,2.218,0,0,1,385.786,117.142Z" transform="translate(-155.035 -58.813)" fill="#fafafa"/>
      <path id="Trazado_125903" data-name="Trazado 125903" d="M88.99,205.618l5.49,2.954-5.49,2.947-3,5.405-3-5.405-5.49-2.947,5.49-2.954,3-5.4Z" transform="translate(-73.301 -82.793)" fill="#9fced3"/>
      <path id="Trazado_125904" data-name="Trazado 125904" d="M289.83,387.758l5.49,2.954-5.49,2.954-3,5.4-3-5.4-5.49-2.954,5.49-2.954,3-5.4Z" transform="translate(-127.315 -134.015)" fill="#9fced3"/>
      <path id="Trazado_125905" data-name="Trazado 125905" d="M314.59,42.248l5.49,2.954-5.49,2.954-3,5.4-3-5.4L303.09,45.2l5.49-2.954,3-5.4Z" transform="translate(-133.974 -36.85)" fill="#9fced3"/>
      <path id="Trazado_125906" data-name="Trazado 125906" d="M336.363,62.785l2.741,1.473-2.741,1.481-1.506,2.7-1.5-2.7-2.749-1.481,2.749-1.473,1.5-2.7Z" transform="translate(-141.375 -43.386)" fill="#9fced3"/>
      <path id="Trazado_125907" data-name="Trazado 125907" d="M237.834,59.661l3.706,1.991-3.706,1.991L235.8,67.288l-2.025-3.644-3.706-1.991,3.706-1.991L235.8,56.01Z" transform="translate(-114.336 -42.238)" fill="#9fced3"/>
      <path id="Trazado_125908" data-name="Trazado 125908" d="M237.853,390.873l2.741,1.474-2.741,1.481-1.506,2.7-1.5-2.7-2.749-1.481,2.749-1.474,1.5-2.7Z" transform="translate(-114.882 -135.649)" fill="#9fced3"/>
      <path id="Trazado_125909" data-name="Trazado 125909" d="M396.066,252.8l2.749,1.474-2.749,1.473-1.5,2.7-1.506-2.7-2.741-1.473,2.741-1.474,1.506-2.7Z" transform="translate(-157.434 -96.821)" fill="#9fced3"/>
    </g>
    <g id="freepik--Arrow--inject-25" transform="translate(192.713 176.351)">
      <path id="Trazado_125910" data-name="Trazado 125910" d="M390.732,280.226,347.607,255.91l-29.747,6.275,9.526,28.406,43.125,24.316-9.526-28.413Z" transform="translate(-275.751 -237.955)" fill="#1565c0"/>
      <path id="Trazado_125912" data-name="Trazado 125912" d="M337.044,294.646a.73.73,0,0,1-.695-.5l-7.559-22.534L338.8,269.5a.741.741,0,0,1,.552.1.712.712,0,0,1-.245,1.3l-8.414,1.775,7.026,21.024a.716.716,0,0,1-.468.906.879.879,0,0,1-.2.036Z" transform="translate(-278.691 -241.773)" fill="#b0c0d2"/>
      <path id="Trazado_125913" data-name="Trazado 125913" d="M350.531,268.4a.723.723,0,1,1-.154-1.438l9.438-1.969a.752.752,0,0,1,.9.55.738.738,0,0,1-.559.888l-9.5,1.955Z" transform="translate(-284.319 -240.504)" fill="#b0c0d2"/>
      <path id="Trazado_125914" data-name="Trazado 125914" d="M341.191,275.589a.723.723,0,1,1-.154-1.438l17.151-3.594a.73.73,0,0,1,.816.56.718.718,0,0,1-.509.841l-17.151,3.594a.563.563,0,0,1-.154.036Z" transform="translate(-281.807 -242.072)" fill="#b0c0d2"/>
      <path id="Trazado_125915" data-name="Trazado 125915" d="M346.39,304.881a.73.73,0,0,1-.695-.5l-2.8-8.367a.708.708,0,0,1,.037-.551.728.728,0,0,1,.423-.362.742.742,0,0,1,.562.039.722.722,0,0,1,.367.421l2.8,8.374a.716.716,0,0,1-.461.906.883.883,0,0,1-.234.036Z" transform="translate(-282.474 -248.967)" fill="#b0c0d2"/>
      <path id="Trazado_125916" data-name="Trazado 125916" d="M379.4,285.25a.729.729,0,0,1-.731-.568.719.719,0,0,1,.556-.848l7.376-1.56a.747.747,0,0,1,.885.568.735.735,0,0,1-.578.87l-7.376,1.553A.557.557,0,0,1,379.4,285.25Z" transform="translate(-292.1 -245.365)" fill="#b0c0d2"/>
      <path id="Trazado_125917" data-name="Trazado 125917" d="M358.989,309.589a.73.73,0,0,1-.695-.5L352.066,290.5a.708.708,0,0,1,.037-.551.727.727,0,0,1,.423-.362.742.742,0,0,1,.562.039.722.722,0,0,1,.367.421l6.229,18.595a.708.708,0,0,1-.04.552.728.728,0,0,1-.428.36A.831.831,0,0,1,358.989,309.589Z" transform="translate(-284.94 -247.415)" fill="#b0c0d2"/>
      <path id="Trazado_125918" data-name="Trazado 125918" d="M375.131,292.176a.723.723,0,1,1-.154-1.438l18.554-3.91a.739.739,0,0,1,.735.195.71.71,0,0,1,.16.732.728.728,0,0,1-.589.475l-18.554,3.91Z" transform="translate(-290.935 -246.642)" fill="#b0c0d2"/>
      <path id="Trazado_125919" data-name="Trazado 125919" d="M368.024,317.4a.73.73,0,0,1-.695-.5l-3.1-9.265a.717.717,0,0,1,.476-.88.734.734,0,0,1,.913.435l3.1,9.243a.716.716,0,0,1-.468.906.83.83,0,0,1-.227.057Z" transform="translate(-288.214 -252.245)" fill="#b0c0d2"/>
      <path id="Trazado_125920" data-name="Trazado 125920" d="M320.521,268.7a2.563,2.563,0,0,1-1.279-.338l-57.754-32.769a2.492,2.492,0,0,1-.885-3.407,2.582,2.582,0,0,1,3.443-.949L321.8,264.008a2.5,2.5,0,0,1,1.191,2.829,2.552,2.552,0,0,1-2.47,1.865Z" transform="translate(-260.26 -230.93)" fill="#263238"/>
    </g>
  </g>
</svg>
