<svg xmlns="http://www.w3.org/2000/svg" width="307.959" height="319.803" viewBox="0 0 307.959 319.803">
  <g id="Chat-amico" transform="translate(-68.9 -61.961)">
    <g id="freepik--Floor--inject-4" transform="translate(130.411 259.331)">
      <path id="Trazado_125648" data-name="Trazado 125648" d="M175.565,398.594c45.76,23.909,119.961,23.909,165.721,0s45.76-62.663,0-86.572-119.961-23.9-165.721,0S129.8,374.651,175.565,398.594Z" transform="translate(-141.245 -294.094)" fill="#727997" opacity="0.12"/>
    </g>
    <g id="freepik--Characters--inject-4" transform="translate(158.375 90.784)">
      <path id="Trazado_125649" data-name="Trazado 125649" d="M214.818,297.714c-.213-.289-.094-19.649-6.657-25.405s-12.354-1.19-8.553,5.705c2.551,4.549,9.6,12.6,9.608,20.312Z" transform="translate(-177.768 -121.892)" fill="#26aab7"/>
      <path id="Trazado_125650" data-name="Trazado 125650" d="M214.818,297.714c-.213-.289-.094-19.649-6.657-25.405s-12.354-1.19-8.553,5.705c2.551,4.549,9.6,12.6,9.608,20.312Z" transform="translate(-177.768 -121.892)" fill="#fff" opacity="0.6"/>
      <path id="Trazado_125651" data-name="Trazado 125651" d="M213.248,298.564a.349.349,0,0,1-.349-.315c-1.973-18.561-9.4-25.21-9.48-25.278a.35.35,0,1,1,.459-.527c.315.272,7.72,6.861,9.718,25.728a.357.357,0,0,1-.315.391Z" transform="translate(-178.502 -122.292)" fill="#fff"/>
      <path id="Trazado_125652" data-name="Trazado 125652" d="M209.917,319.672c-2.406-10.926-5.841-17.268-19.437-24.266-12.524-6.453-23.3-13.272-10.773-15.747,10.4-2.058,30.413,14.454,31.127,28.908Z" transform="translate(-174.134 -123.359)" fill="#26aab7"/>
      <path id="Trazado_125653" data-name="Trazado 125653" d="M209.5,306.363a.349.349,0,0,1-.332-.221c-4.107-10.951-17.226-21.545-28.594-23.135a.357.357,0,0,1-.3-.4.349.349,0,0,1,.4-.3c11.614,1.624,24.963,12.422,29.155,23.586a.357.357,0,0,1-.213.451Z" transform="translate(-175.054 -123.781)" fill="#fff"/>
      <path id="Trazado_125654" data-name="Trazado 125654" d="M333.729,345.264a13.036,13.036,0,0,0-.782,3.061,6.8,6.8,0,0,0-.247,3.4,6.7,6.7,0,0,0,3.8,2.967c1.956.612,4.362.1,6.691-1.292s4.09-3.086,7.414-4.03,4.974-1.7,6.547-2.976c1.845-1.479,4.3-5.561.782-6.5s-11.181,2.389-18.144,2.7Z" transform="translate(-197.864 -132.38)" fill="#263238"/>
      <path id="Trazado_125655" data-name="Trazado 125655" d="M333.93,341.12v5.221a3.341,3.341,0,0,0,2.772,2.194,3.282,3.282,0,0,0,1.7-.179,4.676,4.676,0,0,0,2.993-4.132l.2-3.1Z" transform="translate(-198.065 -132.589)" fill="#ffa8a7"/>
      <path id="Trazado_125656" data-name="Trazado 125656" d="M343.5,303.2c.043,6.487-1.82,34.528-1.82,34.528s-2.653,3.358-8.417,0l-1.964-31.3Z" transform="translate(-197.671 -126.91)" fill="#1565c0"/>
      <path id="Trazado_125657" data-name="Trazado 125657" d="M343.5,303.2c.043,6.487-1.82,34.528-1.82,34.528s-2.653,3.358-8.417,0l-1.964-31.3Z" transform="translate(-197.305 -126.91)" opacity="0.5"/>
      <path id="Trazado_125658" data-name="Trazado 125658" d="M325.85,368.4c.731-5.416,6.351-15.6,16-19.9s21.324-3.086,23.543-1.216,2.8,5.782-1.845,7.04-8.29,3.4-5.416,5.824,3.767,5.765-.935,6.674-10.254-2.44-11.563.553,1.454,5.289-3.784,6.368-11.674-2.967-15.3,3Z" transform="translate(-196.855 -133.256)" fill="#26aab7"/>
      <path id="Trazado_125659" data-name="Trazado 125659" d="M326.158,372.894a.382.382,0,0,1-.136,0,.349.349,0,0,1-.187-.459c7.159-17,27.854-24.657,35.073-24.2a.357.357,0,0,1,.332.374.349.349,0,0,1-.374.332c-5.731-.349-26.927,6.1-34.384,23.764a.349.349,0,0,1-.323.187Z" transform="translate(-196.848 -133.652)" fill="#fff"/>
      <path id="Trazado_125660" data-name="Trazado 125660" d="M356.14,364.371a.434.434,0,0,1-.145,0c-.094-.051-9.812-4.353-18.79-2.338a.34.34,0,0,1-.417-.264.349.349,0,0,1,.264-.417c9.208-2.066,19.139,2.33,19.233,2.372a.349.349,0,0,1-.145.672Z" transform="translate(-198.491 -135.536)" fill="#fff"/>
      <path id="Trazado_125661" data-name="Trazado 125661" d="M260.293,272.39,229.88,289.948l72.237,41.7,22.812-13.17,7.6-4.387Z" transform="translate(-182.483 -122.296)" fill="#fb8c00"/>
      <path id="Trazado_125662" data-name="Trazado 125662" d="M346.591,321.44v4.4l-22.812,13.17-.009-4.4Z" transform="translate(-196.543 -129.642)" fill="#fb8c00"/>
      <path id="Trazado_125663" data-name="Trazado 125663" d="M346.591,321.44v4.4l-22.812,13.17-.009-4.4Z" transform="translate(-196.645 -129.642)" opacity="0.2"/>
      <path id="Trazado_125664" data-name="Trazado 125664" d="M269.48,296.117s26.638-8.043,31.264-9.31,13.519-3.4,16.112-2.236,3.911,2.508,4.149,6.258c.051.706,0,4.132,0,4.132s-12.873,3.979-23.416,3.979S269.48,296.117,269.48,296.117Z" transform="translate(-188.413 -124.07)" fill="#26aab7"/>
      <path id="Trazado_125665" data-name="Trazado 125665" d="M269.48,296.117s26.638-8.043,31.264-9.31,13.519-3.4,16.112-2.236,3.911,2.508,4.149,6.258c.051.706,0,4.132,0,4.132s-12.873,3.979-23.416,3.979S269.48,296.117,269.48,296.117Z" transform="translate(-188.413 -124.07)" opacity="0.6"/>
      <path id="Trazado_125666" data-name="Trazado 125666" d="M294.223,244.53l-1.769,9.548-9.795,1.131,1.411-13.179Z" transform="translate(-190.387 -117.75)" fill="#ffa8a7"/>
      <path id="Trazado_125667" data-name="Trazado 125667" d="M306.78,236s1.284,3.937.893,4.183a7.014,7.014,0,0,1-2.143.119Z" transform="translate(-193.812 -116.847)" fill="#f28f8f"/>
      <path id="Trazado_125668" data-name="Trazado 125668" d="M300.846,220.6c1.7,1.777,3.29,4.744,2.551,12.269-.774,8.247-3.239,10.45-4.251,10.926-1.556.723-6.8-.536-8.553-1.8-2.143-1.581-6.19-5.527-7.244-10.382-1.241-5.714.349-12.21,4.523-13.527C293.789,216.221,299.451,219.095,300.846,220.6Z" transform="translate(-190.428 -114.073)" fill="#ffa8a7"/>
      <path id="Trazado_125669" data-name="Trazado 125669" d="M303.814,224.111c-1,1.888-2.891,6.589-8.256,7.916,0,0-.3-3.2-2.95-3.231s-3.554,3.239-2.236,5.518,2.976,1.76,2.976,1.76-.272,4.5-3.512,6.1a8.4,8.4,0,0,1-7.457-.493c-1.6-1.02-3.452-5.45-4.4-9-2.024-7.516-1.658-13.272,3.12-14.454,1-3.154,2.627-4.166,5.629-4.362,6.479-.434,10.662,4.362,16.044,4.362C305.574,218.227,304.954,221.959,303.814,224.111Z" transform="translate(-189.511 -113.528)" fill="#263238"/>
      <path id="Trazado_125670" data-name="Trazado 125670" d="M281.428,219.206l-3.248-1.394a1.762,1.762,0,0,1,3.239,1.386Z" transform="translate(-189.716 -113.963)" fill="#263238"/>
      <path id="Trazado_125671" data-name="Trazado 125671" d="M269.552,294.121c0,5.1-.485,10.441,1.649,14.191s11.8,11.47,22.685,9.633c7.108-1.2,30.09-9.956,30.09-9.956s10.2-3.75,10.271-6.419c.068-3.945-.2-9.489-9.123-9.251-8.128.213-32.25,4.166-32.25,4.166Z" transform="translate(-188.417 -125.28)" fill="#1565c0"/>
      <path id="Trazado_125672" data-name="Trazado 125672" d="M269.552,294.121c0,5.1-.485,10.441,1.649,14.191s11.8,11.47,22.685,9.633c7.108-1.2,30.09-9.956,30.09-9.956s10.2-3.75,10.271-6.419c.068-3.945-.2-9.489-9.123-9.251-8.128.213-32.25,4.166-32.25,4.166Z" transform="translate(-188.454 -125.28)" opacity="0.5"/>
      <path id="Trazado_125673" data-name="Trazado 125673" d="M271.441,254.653c.85-2.67,4.251-5.578,7.652-4.948,6.232,1.156,13.051,3.18,14.854,3.707h0s-.85,13.74,6.232,17.855l.927,17.49a15.048,15.048,0,0,1-4.43,5.195c-2.916,1.845-6.964,4.625-14.284,4.013a18,18,0,0,1-12.932-7.074s.085-16.529.366-23.926C270.081,260.724,270.837,256.49,271.441,254.653Z" transform="translate(-188.41 -118.886)" fill="#1565c0"/>
      <path id="Trazado_125674" data-name="Trazado 125674" d="M271.441,254.653c.85-2.67,4.251-5.578,7.652-4.948,6.232,1.156,13.051,3.18,14.854,3.707h0s-.85,13.74,6.232,17.855l.927,17.49a15.048,15.048,0,0,1-4.43,5.195c-2.916,1.845-6.964,4.625-14.284,4.013a18,18,0,0,1-12.932-7.074s.085-16.529.366-23.926C270.081,260.724,270.837,256.49,271.441,254.653Z" transform="translate(-188.41 -118.886)" fill="#fff" opacity="0.2"/>
      <path id="Trazado_125675" data-name="Trazado 125675" d="M304.944,277.657a23.3,23.3,0,0,1-4.974-8.247s0,6.479,5.05,9.982Z" transform="translate(-192.979 -121.85)" fill="#26aab7"/>
      <path id="Trazado_125676" data-name="Trazado 125676" d="M304.944,277.657a23.3,23.3,0,0,1-4.974-8.247s0,6.479,5.05,9.982Z" transform="translate(-192.979 -121.85)" fill="#12263f" opacity="0.4"/>
      <path id="Trazado_125677" data-name="Trazado 125677" d="M331.633,261.966l3.954-5.68s.944-1.369,1.292-1.939.587-2.474-.578-2.959c-2.109-.85-6.5-2.95-7.78-2.959-.527,0-2.729,3.69-6.5,8.664-2.262,2.976-5.382,7.108-5.382,7.474s-.808.74,2.474,2.415a52.668,52.668,0,0,0,7.287,2.925Z" transform="translate(-195.461 -118.708)" fill="#26aab7"/>
      <path id="Trazado_125678" data-name="Trazado 125678" d="M331.633,261.966l3.954-5.68s.944-1.369,1.292-1.939.587-2.474-.578-2.959c-2.109-.85-6.5-2.95-7.78-2.959-.527,0-2.729,3.69-6.5,8.664-2.262,2.976-5.382,7.108-5.382,7.474s-.808.74,2.474,2.415a52.668,52.668,0,0,0,7.287,2.925Z" transform="translate(-195.461 -118.708)" opacity="0.6"/>
      <path id="Trazado_125679" data-name="Trazado 125679" d="M334.15,256.323c-2.423,3.486-7.593,12.107-7.746,12.346s-7.652-3-9.667-3.877a.978.978,0,0,0-.1.3c0,.357-.808.74,2.474,2.415a52.664,52.664,0,0,0,7.287,2.925l5.238-7.941,3.954-5.68s.944-1.369,1.292-1.939.587-2.474-.578-2.959C336.53,252.029,336.564,252.837,334.15,256.323Z" transform="translate(-195.461 -119.229)" fill="#263238"/>
      <path id="Trazado_125680" data-name="Trazado 125680" d="M328.264,250.56l7.482,3.035L327.4,266.358l-7.457-3.2Z" transform="translate(-195.969 -119.027)" fill="#26aab7"/>
      <path id="Trazado_125681" data-name="Trazado 125681" d="M328.264,250.56l7.482,3.035L327.4,266.358l-7.457-3.2Z" transform="translate(-195.969 -119.027)" fill="#fff" opacity="0.8"/>
      <path id="Trazado_125682" data-name="Trazado 125682" d="M298.28,254.08c3.843,1.156,6.19,1.369,10.441,7.907s13.561,19.5,14.454,21.069c1.284,2.168,1.837,4.744.731,6.742-1.037,1.854-4.047,1.046-8.264-2.661-4.081-3.58-12.158-13.7-12.158-13.7a69.515,69.515,0,0,1-5.2-19.36Z" transform="translate(-192.726 -119.554)" fill="#ffa8a7"/>
      <path id="Trazado_125683" data-name="Trazado 125683" d="M326.808,291.143c1.947-.561,4.88-7.8,7.125-16s3.4-10.033,3.4-12.618-.119-5.884-.119-5.884l-3.843,5.535a10.262,10.262,0,0,0-.969-3.12c-.493-1.012-1.42-1.8-2.177-1.2-.408.323.663,1.7.434,4.821a16.047,16.047,0,0,0,.23,3.716L323.73,283.72Z" transform="translate(-196.537 -119.938)" fill="#ffa8a7"/>
      <path id="Trazado_125684" data-name="Trazado 125684" d="M298.213,254.08a29.565,29.565,0,0,1,5.561,1.769,8.825,8.825,0,0,1,4.2,3.452c2.976,4.94,7.227,11.971,7.227,11.971s.731,6.122-6.708,8.264l-3.962-4.251a22.055,22.055,0,0,1-3.937-5.867C298.919,265.711,297.006,259.862,298.213,254.08Z" transform="translate(-192.659 -119.554)" fill="#1565c0"/>
      <path id="Trazado_125685" data-name="Trazado 125685" d="M298.213,254.08a29.565,29.565,0,0,1,5.561,1.769,8.825,8.825,0,0,1,4.2,3.452c2.976,4.94,7.227,11.971,7.227,11.971s.731,6.122-6.708,8.264l-3.962-4.251a22.055,22.055,0,0,1-3.937-5.867C298.919,265.711,297.006,259.862,298.213,254.08Z" transform="translate(-192.659 -119.554)" fill="#fff" opacity="0.2"/>
      <path id="Trazado_125686" data-name="Trazado 125686" d="M295.394,149.23l-79.336-45.8c-2-1.156-3.656-.442-3.988,1.573a9.055,9.055,0,0,1,3.988-6.258l3.3-1.913a8.953,8.953,0,0,1,8.1,0l79.345,45.8a8.409,8.409,0,0,1,2.865,3.027l-11.41,6.589a8.2,8.2,0,0,0-2.865-3.018Z" transform="translate(-179.815 -95.86)" fill="#37474f"/>
      <path id="Trazado_125687" data-name="Trazado 125687" d="M325.649,346.629a8.936,8.936,0,0,1-4.056,7.015l-3.3,1.93a9.072,9.072,0,0,1-7.414.323c1.913.723,3.4-.357,3.4-2.67V165.017a8.282,8.282,0,0,0-1.19-3.988l11.41-6.589a8.324,8.324,0,0,1,1.182,4Z" transform="translate(-194.613 -104.633)" fill="#263238"/>
      <path id="Trazado_125688" data-name="Trazado 125688" d="M295.384,150.465l-79.336-45.8C213.811,103.37,212,104.416,212,107V295.194a8.962,8.962,0,0,0,4.047,7.015l79.336,45.828c2.245,1.284,4.047.238,4.047-2.347V157.48A8.936,8.936,0,0,0,295.384,150.465Zm.247,168.544c0,1.556-1.08,2.185-2.432,1.4l-74.966-43.286a5.357,5.357,0,0,1-2.44-4.251V133.664c0-1.556,1.088-2.185,2.44-1.4l2.984,1.7L293.2,175.53a5.348,5.348,0,0,1,2.432,4.251Z" transform="translate(-179.805 -97.095)" fill="#455a64"/>
      <path id="Trazado_125689" data-name="Trazado 125689" d="M263.16,140.056a3.129,3.129,0,0,1,1.428,2.466c0,.91-.638,1.284-1.428.85a3.146,3.146,0,0,1-1.42-2.466C261.74,139.979,262.378,139.6,263.16,140.056Z" transform="translate(-187.254 -102.45)" fill="#263238"/>
      <path id="Trazado_125690" data-name="Trazado 125690" d="M262.414,340.785a12.456,12.456,0,0,1,5.6,9.752c0,3.588-2.551,5.05-5.629,3.248a12.448,12.448,0,0,1-5.629-9.744C256.786,340.445,259.311,338.991,262.414,340.785Z" transform="translate(-186.508 -132.424)" fill="#263238"/>
      <path id="Trazado_125691" data-name="Trazado 125691" d="M278.748,157.061a6.309,6.309,0,0,1,2.857,4.931c0,1.82-1.284,2.551-2.857,1.649a6.309,6.309,0,0,1-2.848-4.94C275.9,156.883,277.175,156.151,278.748,157.061Z" transform="translate(-189.374 -104.967)" fill="#263238"/>
      <path id="Trazado_125692" data-name="Trazado 125692" d="M267.032,153.84c0,1.216-.9,1.7-2.024,1.029l-18.756-10.832a4.345,4.345,0,0,1-2.032-3.4c0-1.216.91-1.7,2.032-1.029l18.756,10.832A4.328,4.328,0,0,1,267.032,153.84Z" transform="translate(-184.63 -102.366)" fill="#263238"/>
      <path id="Trazado_125693" data-name="Trazado 125693" d="M227.87,142.339l-8.979-5.178c-1.343-.782-2.432-.153-2.432,1.4V277.817a5.373,5.373,0,0,0,2.432,4.251l8.979,5.187Z" transform="translate(-180.473 -101.995)" fill="#263238"/>
      <g id="Grupo_72131" data-name="Grupo 72131" transform="translate(64.854 36.883)" opacity="0.15">
        <path id="Trazado_125694" data-name="Trazado 125694" d="M297.253,185.017v124.5L222.84,266.573V139.24l71.982,41.568A5.348,5.348,0,0,1,297.253,185.017Z" transform="translate(-245.84 -139.24)" fill="#fff"/>
      </g>
      <path id="Trazado_125695" data-name="Trazado 125695" d="M223.308,140.049l71.285,41.16a4.94,4.94,0,0,1,2.194,3.8V308.7l-73.478-42.419V140.049m-.468-.85V266.565l74.413,42.954V185.01a5.348,5.348,0,0,0-2.432-4.251L222.84,139.19Z" transform="translate(-181.428 -102.349)" fill="#fff"/>
      <path id="Trazado_125696" data-name="Trazado 125696" d="M296.432,348.077V337.721L228,298.21l-10.7,6.164a4.931,4.931,0,0,0,1.7,1.82l74.983,43.286C295.336,350.262,296.432,349.633,296.432,348.077Z" transform="translate(-180.599 -126.163)" fill="#37474f"/>
      <path id="Trazado_125697" data-name="Trazado 125697" d="M306.352,349.067l-22.812,13.17V357.85l22.812-13.17Z" transform="translate(-190.518 -133.122)" fill="#fb8c00"/>
      <path id="Trazado_125698" data-name="Trazado 125698" d="M306.352,349.067l-22.812,13.17V357.85l22.812-13.17Z" transform="translate(-190.518 -132.675)" opacity="0.2"/>
      <path id="Trazado_125699" data-name="Trazado 125699" d="M198.58,311.12l72.237,41.7v4.387l-72.237-41.7Z" transform="translate(-177.795 -128.096)" fill="#fb8c00"/>
      <path id="Trazado_125700" data-name="Trazado 125700" d="M198.58,311.12l72.237,41.7v4.387l-72.237-41.7Z" transform="translate(-177.795 -127.65)" opacity="0.2"/>
      <path id="Trazado_125701" data-name="Trazado 125701" d="M225.193,293.04,198.58,308.412l72.237,41.7,22.812-13.17v-4.4Z" transform="translate(-177.795 -125.389)" fill="#26aab7"/>
      <path id="Trazado_125702" data-name="Trazado 125702" d="M225.193,293.04,198.58,308.412l72.237,41.7,22.812-13.17v-4.4Z" transform="translate(-177.795 -125.389)" fill="#fb8c00"/>
      <path id="Trazado_125703" data-name="Trazado 125703" d="M226.43,252.2c-2.262,0-3.988.136-8.162,6.19-3.537,5.1-15.109,21.1-15.8,21.86s5.221,3.452,5.221,3.452L223.318,268Z" transform="translate(-178.369 -119.273)" fill="#ffa8a7"/>
      <path id="Trazado_125704" data-name="Trazado 125704" d="M205.24,283a10.052,10.052,0,0,1,4.379-.638c1.947,0,3.163.136,3.4-.493.315-.944,1.08-2.678,1.479-2.67v4.617Z" transform="translate(-178.793 -123.316)" fill="#f28f8f"/>
      <path id="Trazado_125705" data-name="Trazado 125705" d="M196.771,364.046c-5.229,6.9-9.31,8.5-10.739,10s-.6,4.447,2.891,5.1,7.278-.145,9.531-2.4,3.809-5.187,6.1-6.8,3.477-2.075,3.826-4.013-1.4-7.7-1.4-7.7Z" transform="translate(-175.816 -135.151)" fill="#263238"/>
      <path id="Trazado_125706" data-name="Trazado 125706" d="M200.232,352.69c.485,2.508,1.029,4.7-.68,7.72a29,29,0,0,1-1.828,2.806c-3.052,4.107-5.535,7.312-5.952,7.873s2.151,2.347,5.1,1.122,5.493-5.595,7.414-8.23c.85-1.173,1.7-2.236,2.364-3.061a5.807,5.807,0,0,0,1.309-3.9l-.162-4Z" transform="translate(-176.769 -134.322)" fill="#ffa8a7"/>
      <path id="Trazado_125707" data-name="Trazado 125707" d="M211.742,375.586c-5.229,6.913-9.31,8.5-10.739,10.007s-.6,4.438,2.891,5.1,7.278-.153,9.531-2.4,3.809-5.195,6.113-6.8,3.478-2.083,3.818-4.022-1.394-7.7-1.394-7.7Z" transform="translate(-178.059 -136.879)" fill="#263238"/>
      <path id="Trazado_125708" data-name="Trazado 125708" d="M215.2,364.23c.493,2.508,1.029,4.7-.68,7.72a27.054,27.054,0,0,1-1.828,2.806c-3.052,4.107-5.535,7.312-5.952,7.873s2.151,2.355,5.1,1.131,5.493-5.595,7.414-8.23c.85-1.173,1.7-2.245,2.364-3.061a5.841,5.841,0,0,0,1.309-3.911l-.153-4Z" transform="translate(-179.011 -136.05)" fill="#ffa8a7"/>
      <path id="Trazado_125709" data-name="Trazado 125709" d="M247.228,291.286c4,8.23,2.423,16.384-8.4,21.724-6.045,2.984-17.745,8.256-17.745,8.256a41.028,41.028,0,0,1,1.76,12.558c.06,6.938-1.786,22.03-1.786,22.03s-4.523,2.1-7.763,0c0,0-1.437-9.353-2.551-18.782-1.352-11.844-2.491-18.807-1.888-21.358.536-2.253,5.246-5.552,8.843-8.077l-12.55,5.9a22.615,22.615,0,0,1,3.333,10.432c.774,8.111-.2,22.055-.2,22.055a9.667,9.667,0,0,1-7.754.323s-8.834-34.392-7.508-39.162c1.9-6.844,27.973-17.268,29.3-19.955Z" transform="translate(-176.942 -124.519)" fill="#1565c0"/>
      <path id="Trazado_125710" data-name="Trazado 125710" d="M247.228,291.286c4,8.23,2.423,16.384-8.4,21.724-6.045,2.984-17.745,8.256-17.745,8.256a41.028,41.028,0,0,1,1.76,12.558c.06,6.938-1.786,22.03-1.786,22.03s-4.523,2.1-7.763,0c0,0-1.437-9.353-2.551-18.782-1.352-11.844-2.491-18.807-1.888-21.358.536-2.253,5.246-5.552,8.843-8.077l-12.55,5.9a22.615,22.615,0,0,1,3.333,10.432c.774,8.111-.2,22.055-.2,22.055a9.667,9.667,0,0,1-7.754.323s-8.834-34.392-7.508-39.162c1.9-6.844,27.973-17.268,29.3-19.955Z" transform="translate(-176.941 -124.519)" opacity="0.2"/>
      <path id="Trazado_125711" data-name="Trazado 125711" d="M242.772,252.175c8.162.765,9.463-.544,11.9,6.071l-7.482,19.071L251.665,286c-1.054,1.573-13.519,8.273-24.47.281a196.318,196.318,0,0,1-4.591-21.256c-.85-6.028,4.489-12.677,7.134-12.941a23.172,23.172,0,0,1,2.874-.162Z" transform="translate(-181.379 -119.231)" fill="#1565c0"/>
      <path id="Trazado_125712" data-name="Trazado 125712" d="M242.772,252.175c8.162.765,9.463-.544,11.9,6.071l-7.482,19.071L251.665,286c-1.054,1.573-13.519,8.273-24.47.281a196.318,196.318,0,0,1-4.591-21.256c-.85-6.028,4.489-12.677,7.134-12.941a23.172,23.172,0,0,1,2.874-.162Z" transform="translate(-181.379 -119.231)" fill="#d2e1f1" opacity="0.6"/>
      <path id="Trazado_125713" data-name="Trazado 125713" d="M211.171,282.864c1.7.051,1.632-1.037,2.058-2.1.5-1.25.961-2.364.961-2.364l1.122,4.047,1.539,7.5s-4.515-.06-7.831,0-7.083-1.046-7.465-3.4c-.238-1.462.85-3.512,4.251-3.835a35.01,35.01,0,0,1,5.365.153Z" transform="translate(-178.236 -123.196)" fill="#ffa8a7"/>
      <path id="Trazado_125714" data-name="Trazado 125714" d="M216.423,272.326c-1.7.6-1.258,3.443-.544,6.632s1.9,8.545,2.262,9.956.85,2.287,2.959,2.287,5.544.23,7.032,0,1.7-1.547,1.394-4.549a101.06,101.06,0,0,0-1.6-10.2c-.6-2.848-.961-4.362-2.729-4.362C223.139,272.062,218.208,271.705,216.423,272.326Z" transform="translate(-180.291 -122.232)" fill="#263238"/>
      <path id="Trazado_125715" data-name="Trazado 125715" d="M216.438,282.52c.17.748,1.7,1.369,3.095,1.428a28.358,28.358,0,0,0,6.028-.408c1.42-.383,2.321,2.066.952,4.3s-4.464,2.916-8.239,2.712a7.516,7.516,0,0,1-2.143-4.132,11.9,11.9,0,0,1,.306-3.9Z" transform="translate(-180.417 -123.813)" fill="#ffa8a7"/>
      <path id="Trazado_125716" data-name="Trazado 125716" d="M250.965,280.541s-.85,1.411-3.495,1.411c2.338-1.59,4.37-4.736,6.275-8.5Z" transform="translate(-185.117 -122.455)" fill="#26aab7"/>
      <path id="Trazado_125717" data-name="Trazado 125717" d="M250.965,280.541s-.85,1.411-3.495,1.411c2.338-1.59,4.37-4.736,6.275-8.5Z" transform="translate(-185.117 -122.455)" fill="#fff" opacity="0.1"/>
      <path id="Trazado_125718" data-name="Trazado 125718" d="M255.6,253.23c4.506.85,6.385,5.1,6.521,13.434s-.935,35.948-1.029,37.173a5.322,5.322,0,0,0,2.219,4.889c3.214,2.3,7.091,4.141,8.987,5.425,2.5,1.7,0,4.472-3.069,4.659-2.874.179-7.474-2.313-8.647-3.29a8.852,8.852,0,0,1,1.335,2.551c.5,1.956,0,3.1-.9,2.7-.51-.23-1.131-1-2.891-3.154-3.052-3.75-3.707-5.433-3.741-10.092,0-3.154-.264-19.42-.519-25.609-.162-3.792-.128-12.031-.06-17.149S254.66,253.953,255.6,253.23Z" transform="translate(-186.058 -119.427)" fill="#ffa8a7"/>
      <path id="Trazado_125719" data-name="Trazado 125719" d="M222.8,231.108s-2.865-4.574-.85-8.97S232.207,212,241.6,216.084c8.928,3.886,8.137,14.157,8.171,18.807C249.833,239.3,222.8,231.108,222.8,231.108Z" transform="translate(-181.188 -113.655)" fill="#263238"/>
      <path id="Trazado_125720" data-name="Trazado 125720" d="M226.16,222.371c1.3-2.551,9.565-6.623,17.422-2.636s6.947,14.726,6.947,22.106v13.6c0,1.939-4.549,4.608-8.919,3.061l.315-19.87s1.224-12.133-2.551-15.041S226.16,222.371,226.16,222.371Z" transform="translate(-181.925 -114.161)" fill="#263238"/>
      <path id="Trazado_125721" data-name="Trazado 125721" d="M241.46,233.337c.51.306,1.241-.68,1.871-1.343a2.219,2.219,0,0,1,3.716.6c1.02,2.16-1.326,5.144-2.721,6.113a2.44,2.44,0,0,1-2.865.247l-.136,8.383a9.659,9.659,0,0,1-7.015,5.212c-4.948.672-3.937-3.4-2.313-5.416v-3.069a11.776,11.776,0,0,1-3.767.187c-.646-.17-2.194-2.032-3.188-4.115-1.114-2.347-2.976-6.5-1.318-13.536,1.777-7.55,9.888-7.78,14.735-4.736S241.46,233.337,241.46,233.337Z" transform="translate(-181.462 -114.456)" fill="#ffa8a7"/>
      <path id="Trazado_125722" data-name="Trazado 125722" d="M233.58,247.6a35.264,35.264,0,0,0,6.19-1.777,5.246,5.246,0,0,0,2.219-2.194,7.159,7.159,0,0,1-1.258,2.551c-1.173,1.5-7.151,2.6-7.151,2.6Z" transform="translate(-183.037 -117.989)" fill="#f28f8f"/>
      <path id="Trazado_125723" data-name="Trazado 125723" d="M233.64,235.281a.935.935,0,1,0,.259-.672A.927.927,0,0,0,233.64,235.281Z" transform="translate(-183.046 -116.595)" fill="#263238"/>
      <path id="Trazado_125724" data-name="Trazado 125724" d="M234.79,231.253l1.964,1.088a1.182,1.182,0,0,0-.459-1.564,1.1,1.1,0,0,0-1.5.476Z" transform="translate(-183.218 -116.045)" fill="#263238"/>
      <path id="Trazado_125725" data-name="Trazado 125725" d="M246.62,214.244l.536,3.248a1.7,1.7,0,0,0,1.386-1.947,1.615,1.615,0,0,0-1.922-1.3Z" transform="translate(-184.989 -113.584)" fill="#263238"/>
      <path id="Trazado_125726" data-name="Trazado 125726" d="M250.71,216.14l-3.01,1.309a1.7,1.7,0,0,0,2.219.85,1.6,1.6,0,0,0,.791-2.16Z" transform="translate(-185.151 -113.873)" fill="#263238"/>
      <path id="Trazado_125727" data-name="Trazado 125727" d="M234.01,242.13l-2.1.791a1.1,1.1,0,0,0,1.428.7,1.182,1.182,0,0,0,.672-1.488Z" transform="translate(-182.787 -117.765)" fill="#f28f8f"/>
      <path id="Trazado_125728" data-name="Trazado 125728" d="M223.961,231.944l1.794-1.386a1.1,1.1,0,0,0-1.564-.238A1.19,1.19,0,0,0,223.961,231.944Z" transform="translate(-181.563 -115.962)" fill="#263238"/>
      <path id="Trazado_125729" data-name="Trazado 125729" d="M224.65,234.971a.918.918,0,1,0,.918-.961.944.944,0,0,0-.918.961Z" transform="translate(-181.699 -116.549)" fill="#263238"/>
      <path id="Trazado_125730" data-name="Trazado 125730" d="M228.749,234.65l.748,5.484-3.027-.425Z" transform="translate(-181.972 -116.645)" fill="#f28f8f"/>
      <path id="Trazado_125731" data-name="Trazado 125731" d="M226.11,221.7s4.158,8.9,16.546,7.652c0,0,1.428-6.207-3.46-8.6S228.457,218.21,226.11,221.7Z" transform="translate(-181.918 -114.301)" fill="#263238"/>
      <path id="Trazado_125732" data-name="Trazado 125732" d="M241.16,229.725c1.454.187,1.879,2.406,1.522,4.251s1.394,2,2.763,0a10.994,10.994,0,0,0,1.454-5.016Z" transform="translate(-184.172 -115.792)" fill="#263238"/>
      <path id="Trazado_125733" data-name="Trazado 125733" d="M219.9,309.542s7.55-5.1,9.752-6.113c0,0-4.251-.85-6.309-3.639a10.2,10.2,0,0,0,1.786,3.639L207.35,315.443Z" transform="translate(-179.109 -126.4)" fill="#26aab7"/>
      <path id="Trazado_125734" data-name="Trazado 125734" d="M219.9,309.542s7.55-5.1,9.752-6.113c0,0-4.251-.85-6.309-3.639a10.2,10.2,0,0,0,1.786,3.639L207.35,315.443Z" transform="translate(-179.109 -126.4)" opacity="0.4"/>
    </g>
    <g id="freepik--speech-bubbles--inject-4" transform="translate(68.9 61.961)">
      <path id="Trazado_125735" data-name="Trazado 125735" d="M418.623,216.327l-52.171-30.116c-1.343-.774-2.432-.153-2.432,1.4v73.4a5.382,5.382,0,0,0,2.432,4.251l52.171,30.116c1.343.774,2.432.145,2.432-1.4V220.536A5.373,5.373,0,0,0,418.623,216.327Z" transform="translate(-113.096 -80.518)" fill="#b0c0d2"/>
      <path id="Trazado_125736" data-name="Trazado 125736" d="M348.84,257.917l16.571,9.574V254.32L349.2,256.191C347.658,256.369,347.5,257.143,348.84,257.917Z" transform="translate(-110.686 -90.767)" fill="#b0c0d2"/>
      <path id="Trazado_125737" data-name="Trazado 125737" d="M374.994,204.008l37.768,21.809a4.328,4.328,0,0,1,2.024,3.4c0,1.207-.9,1.7-2.024,1.02l-37.768-21.8a4.345,4.345,0,0,1-2.024-3.4C373,203.821,373.846,203.362,374.994,204.008Z" transform="translate(-114.436 -83.189)" fill="#f0f0f0"/>
      <path id="Trazado_125738" data-name="Trazado 125738" d="M374.974,219.488,412.741,241.3a4.345,4.345,0,0,1,2.032,3.4c0,1.207-.91,1.7-2.032,1.02l-37.768-21.8a4.37,4.37,0,0,1-2.024-3.4C372.993,219.3,373.843,218.842,374.974,219.488Z" transform="translate(-114.433 -85.507)" fill="#f0f0f0"/>
      <path id="Trazado_125739" data-name="Trazado 125739" d="M374.994,234.952l37.768,21.809a4.328,4.328,0,0,1,2.024,3.358c0,1.216-.9,1.7-2.024,1.029l-37.768-21.775a4.328,4.328,0,0,1-2.024-3.358C373,234.8,373.846,234.34,374.994,234.952Z" transform="translate(-114.436 -87.827)" fill="#f0f0f0"/>
      <path id="Trazado_125740" data-name="Trazado 125740" d="M374.994,250.478l37.768,21.8a4.345,4.345,0,0,1,2.024,3.4c0,1.216-.9,1.7-2.024,1.029L374.994,254.9a4.328,4.328,0,0,1-2.024-3.4C373,250.291,373.846,249.832,374.994,250.478Z" transform="translate(-114.436 -90.148)" fill="#f0f0f0"/>
      <path id="Trazado_125741" data-name="Trazado 125741" d="M374.994,265.95l37.768,21.809a4.328,4.328,0,0,1,2.024,3.4c0,1.207-.9,1.7-2.024,1.02l-37.768-21.8a4.345,4.345,0,0,1-2.024-3.4C373,265.78,373.846,265.321,374.994,265.95Z" transform="translate(-114.436 -92.467)" fill="#f0f0f0"/>
      <path id="Trazado_125742" data-name="Trazado 125742" d="M368.49,117.9v33.891a5.407,5.407,0,0,0,2.432,4.251l40.761,23.526c1.343.782,2.432.153,2.432-1.4V144.243a5.382,5.382,0,0,0-2.432-4.251l-40.761-23.526C369.587,115.726,368.49,116.346,368.49,117.9Z" transform="translate(-113.765 -70.076)" fill="#b0c0d2"/>
      <path id="Trazado_125743" data-name="Trazado 125743" d="M354.174,136l15.84,1.828V151l-16.529-13.3a.935.935,0,0,1,.689-1.7Z" transform="translate(-111.455 -73.045)" fill="#b0c0d2"/>
      <path id="Trazado_125744" data-name="Trazado 125744" d="M421.145,138a12.6,12.6,0,0,1,5.705,9.88c0,3.639-2.551,5.1-5.705,3.29a12.618,12.618,0,0,1-5.705-9.888C415.44,137.663,418,136.183,421.145,138Z" transform="translate(-120.796 -73.232)" fill="#26aab7"/>
      <path id="Trazado_125745" data-name="Trazado 125745" d="M421.145,138a12.6,12.6,0,0,1,5.705,9.88c0,3.639-2.551,5.1-5.705,3.29a12.618,12.618,0,0,1-5.705-9.888C415.44,137.663,418,136.183,421.145,138Z" transform="translate(-120.796 -73.232)" fill="#fff" opacity="0.7"/>
      <path id="Trazado_125746" data-name="Trazado 125746" d="M379.464,129.518l26.358,15.219a4.353,4.353,0,0,1,2.024,3.4c0,1.207-.91,1.7-2.024,1.02L379.464,133.94a4.353,4.353,0,0,1-2.024-3.4C377.44,129.331,378.35,128.872,379.464,129.518Z" transform="translate(-115.105 -72.034)" fill="#e6e6e6"/>
      <path id="Trazado_125747" data-name="Trazado 125747" d="M379.464,142.048l26.358,15.219a4.353,4.353,0,0,1,2.024,3.4c0,1.207-.91,1.7-2.024,1.02L379.464,146.47a4.353,4.353,0,0,1-2.024-3.4C377.44,141.861,378.35,141.4,379.464,142.048Z" transform="translate(-115.105 -73.91)" fill="#e6e6e6"/>
      <path id="Trazado_125748" data-name="Trazado 125748" d="M379.464,154.578,405.821,169.8a4.353,4.353,0,0,1,2.024,3.4c0,1.207-.91,1.7-2.024,1.02L379.464,159a4.353,4.353,0,0,1-2.024-3.4C377.44,154.391,378.35,153.932,379.464,154.578Z" transform="translate(-115.105 -75.787)" fill="#e6e6e6"/>
      <path id="Trazado_125749" data-name="Trazado 125749" d="M168.214,164.637l-52.163-30.116c-1.343-.774-2.432-.145-2.432,1.4V209.36a5.373,5.373,0,0,0,2.432,4.251l52.163,30.1c1.343.774,2.432.145,2.432-1.4V168.889A5.374,5.374,0,0,0,168.214,164.637Z" transform="translate(-75.597 -72.777)" fill="#b0c0d2"/>
      <path id="Trazado_125750" data-name="Trazado 125750" d="M124.584,152.368l37.768,21.8a4.345,4.345,0,0,1,2.032,3.4c0,1.216-.91,1.7-2.032,1.029L124.584,156.79a4.353,4.353,0,0,1-2.024-3.4C122.56,152.181,123.47,151.722,124.584,152.368Z" transform="translate(-76.936 -75.456)" fill="#f0f0f0"/>
      <path id="Trazado_125751" data-name="Trazado 125751" d="M124.574,167.848l37.768,21.8a4.353,4.353,0,0,1,2.024,3.4c0,1.216-.91,1.7-2.024,1.02l-37.768-21.8a4.328,4.328,0,0,1-2.024-3.4C122.55,167.661,123.451,167.2,124.574,167.848Z" transform="translate(-76.934 -77.774)" fill="#f0f0f0"/>
      <path id="Trazado_125752" data-name="Trazado 125752" d="M124.584,183.338l37.768,21.775a4.345,4.345,0,0,1,2.032,3.4c0,1.207-.91,1.7-2.032,1.02l-37.768-21.8a4.37,4.37,0,0,1-2.024-3.4C122.56,183.151,123.47,182.692,124.584,183.338Z" transform="translate(-76.936 -80.094)" fill="#f0f0f0"/>
      <path id="Trazado_125753" data-name="Trazado 125753" d="M124.584,198.828l37.768,21.809A4.336,4.336,0,0,1,164.384,224c0,1.216-.91,1.7-2.032,1.029l-37.768-21.843a4.353,4.353,0,0,1-2.024-3.358C122.56,198.641,123.47,198.182,124.584,198.828Z" transform="translate(-76.936 -82.413)" fill="#f0f0f0"/>
      <path id="Trazado_125754" data-name="Trazado 125754" d="M124.584,214.328l37.768,21.783a4.345,4.345,0,0,1,2.032,3.4c0,1.207-.91,1.7-2.032,1.02l-37.768-21.8a4.353,4.353,0,0,1-2.024-3.4C122.56,214.141,123.47,213.682,124.584,214.328Z" transform="translate(-76.936 -84.735)" fill="#f0f0f0"/>
      <path id="Trazado_125755" data-name="Trazado 125755" d="M176.22,249.41l14.837,8.562a.927.927,0,0,0,1.19-1.369L176.22,236.24Z" transform="translate(-84.972 -88.06)" fill="#b0c0d2"/>
      <path id="Trazado_125756" data-name="Trazado 125756" d="M68.9,249.574v33.891a5.382,5.382,0,0,0,2.432,4.251l40.761,23.526c1.343.774,2.432.153,2.432-1.4V275.914a5.382,5.382,0,0,0-2.432-4.251L71.332,248.171C69.988,247.389,68.9,248.018,68.9,249.574Z" transform="translate(-68.9 -89.796)" fill="#b0c0d2"/>
      <path id="Trazado_125757" data-name="Trazado 125757" d="M134.4,307.405,118.09,290.46v13.213l15.3,5.314a.944.944,0,0,0,1-1.581Z" transform="translate(-76.266 -96.18)" fill="#b0c0d2"/>
      <path id="Trazado_125758" data-name="Trazado 125758" d="M121.555,269.673a12.6,12.6,0,0,1,5.705,9.88c0,3.631-2.551,5.1-5.705,3.29a12.618,12.618,0,0,1-5.705-9.88C115.85,269.324,118.409,267.853,121.555,269.673Z" transform="translate(-75.931 -92.95)" fill="#26aab7"/>
      <path id="Trazado_125759" data-name="Trazado 125759" d="M121.555,269.673a12.6,12.6,0,0,1,5.705,9.88c0,3.631-2.551,5.1-5.705,3.29a12.618,12.618,0,0,1-5.705-9.88C115.85,269.324,118.409,267.853,121.555,269.673Z" transform="translate(-75.931 -92.95)" fill="#fff" opacity="0.7"/>
      <path id="Trazado_125760" data-name="Trazado 125760" d="M79.872,261.188l26.358,15.219a4.353,4.353,0,0,1,2.024,3.4c0,1.207-.91,1.7-2.032,1.02L79.864,265.609a4.328,4.328,0,0,1-2.024-3.4C77.849,260.984,78.75,260.542,79.872,261.188Z" transform="translate(-70.239 -91.751)" fill="#e6e6e6"/>
      <path id="Trazado_125761" data-name="Trazado 125761" d="M79.872,273.718l26.358,15.219a4.353,4.353,0,0,1,2.024,3.4c0,1.207-.91,1.7-2.032,1.02L79.864,278.139a4.328,4.328,0,0,1-2.024-3.4C77.849,273.531,78.75,273.063,79.872,273.718Z" transform="translate(-70.239 -93.628)" fill="#e6e6e6"/>
      <path id="Trazado_125762" data-name="Trazado 125762" d="M79.872,286.248l26.358,15.219a4.353,4.353,0,0,1,2.024,3.4c0,1.207-.91,1.7-2.032,1.02L79.864,290.67a4.328,4.328,0,0,1-2.024-3.4C77.849,286.061,78.75,285.6,79.872,286.248Z" transform="translate(-70.239 -95.505)" fill="#e6e6e6"/>
      <path id="Trazado_125763" data-name="Trazado 125763" d="M104.67,63.695V97.585a5.374,5.374,0,0,0,2.432,4.251l40.761,23.535c1.343.774,2.432.145,2.432-1.411V90.052a5.373,5.373,0,0,0-2.432-4.251L107.1,62.292C105.8,61.518,104.67,62.147,104.67,63.695Z" transform="translate(-74.257 -61.961)" fill="#b0c0d2"/>
      <path id="Trazado_125764" data-name="Trazado 125764" d="M170.128,121.534,153.82,104.58v13.17l15.3,5.314a.935.935,0,0,0,1-1.53Z" transform="translate(-81.617 -68.343)" fill="#b0c0d2"/>
      <path id="Trazado_125765" data-name="Trazado 125765" d="M157.319,83.793a12.6,12.6,0,0,1,5.671,9.88c0,3.639-2.551,5.1-5.705,3.29a12.618,12.618,0,0,1-5.705-9.88C151.614,83.453,154.173,81.973,157.319,83.793Z" transform="translate(-81.282 -65.114)" fill="#26aab7"/>
      <path id="Trazado_125766" data-name="Trazado 125766" d="M157.319,83.793a12.6,12.6,0,0,1,5.671,9.88c0,3.639-2.551,5.1-5.705,3.29a12.618,12.618,0,0,1-5.705-9.88C151.614,83.453,154.173,81.973,157.319,83.793Z" transform="translate(-81.282 -65.114)" fill="#fff" opacity="0.7"/>
      <path id="Trazado_125767" data-name="Trazado 125767" d="M115.644,75.308,142,90.528a4.353,4.353,0,0,1,2.024,3.4c0,1.207-.91,1.7-2.024,1.02L115.644,79.73a4.328,4.328,0,0,1-2.024-3.4C113.62,75.121,114.521,74.662,115.644,75.308Z" transform="translate(-75.597 -63.916)" fill="#e6e6e6"/>
      <path id="Trazado_125768" data-name="Trazado 125768" d="M115.644,87.838,142,103.058a4.353,4.353,0,0,1,2.024,3.4c0,1.207-.91,1.7-2.024,1.02L115.644,92.26a4.328,4.328,0,0,1-2.024-3.4C113.62,87.651,114.521,87.192,115.644,87.838Z" transform="translate(-75.597 -65.792)" fill="#e6e6e6"/>
      <path id="Trazado_125769" data-name="Trazado 125769" d="M115.644,100.368,142,115.588a4.353,4.353,0,0,1,2.024,3.4c0,1.207-.91,1.7-2.024,1.02L115.644,104.79a4.328,4.328,0,0,1-2.024-3.4C113.62,100.181,114.521,99.722,115.644,100.368Z" transform="translate(-75.597 -67.669)" fill="#e6e6e6"/>
    </g>
  </g>
</svg>
