<svg xmlns="http://www.w3.org/2000/svg" width="351.675" height="251.826" viewBox="0 0 351.675 251.826"><g transform="translate(12.392 162.648)"><path d="M347.384,361.333l41.507-23.97c2.609-1.505,2.609-3.947,0-5.452l-26-15.012a10.962,10.962,0,0,0-9.544-.178L309.812,339.76c-2.665,1.41-2.7,3.774-.095,5.279l28.218,16.294A10.451,10.451,0,0,0,347.384,361.333Z" transform="translate(-68.75 -315.715)" fill="#e6e6e6"/><path d="M91.76,361.333l-41.513-23.97c-2.609-1.505-2.609-3.947,0-5.452l26-15.012a10.962,10.962,0,0,1,9.543-.178l43.537,23.039c2.659,1.41,2.7,3.774.095,5.279l-28.218,16.294A10.451,10.451,0,0,1,91.76,361.333Z" transform="translate(-38.726 -315.715)" fill="#e6e6e6"/><ellipse cx="59.792" cy="34.523" rx="59.792" ry="34.523" transform="translate(106.063 20.132)" fill="#e6e6e6"/><path d="M372.318,416.824l-16.506-9.51c-.8-.468-.8-1.221,0-1.672l46.307-26.757a3.233,3.233,0,0,1,2.915,0l16.5,9.51c.808.468.808,1.221,0,1.672l-46.3,26.757a3.233,3.233,0,0,1-2.915,0Z" transform="translate(-89.737 -343.517)" fill="#e6e6e6"/><path d="M80.956,416.824l16.506-9.51c.8-.468.8-1.221,0-1.672L51.155,378.884a3.222,3.222,0,0,0-2.91,0l-16.506,9.521c-.808.468-.808,1.221,0,1.672l46.3,26.757A3.233,3.233,0,0,0,80.956,416.824Z" transform="translate(-31.133 -343.517)" fill="#e6e6e6"/></g><g transform="translate(0 138.452)"><g transform="translate(0 3.047)"><path d="M45.415,312.267s.959-10.034-1.605-18.083-7.464-13.936-12.983-15.9-11.461,2.018-6.366,7.2,14.639,15.14,16,29.768Z" transform="translate(-14.93 -277.776)" fill="#26aab7"/><path d="M45.415,312.267s.959-10.034-1.605-18.083-7.464-13.936-12.983-15.9-11.461,2.018-6.366,7.2,14.639,15.14,16,29.768Z" transform="translate(-14.93 -277.776)" fill="#fff" opacity="0.65"/><path d="M46.136,311.928H46.2a.329.329,0,0,0,.273-.351c-.719-16.852-10.112-26.757-14.951-29.344a.318.318,0,0,0-.424.134.312.312,0,0,0,.128.418c4.744,2.514,13.735,12.392,14.627,28.848a.3.3,0,0,0,.279.3Z" transform="translate(-18.712 -279.733)" fill="#fff"/><path d="M8.907,306.525a3.932,3.932,0,0,0,1.756,2.3,4.515,4.515,0,0,1,1.9,2.23c.5,1.94-1.739,3.841-1.154,5.753a3.11,3.11,0,0,0,1.706,1.75c.624.307,1.3.491,1.951.736a7.7,7.7,0,0,0,.976.19,4.5,4.5,0,0,1,2.676,1.065c1.115,1.115,1.059,2.9,1.505,4.415a6.664,6.664,0,0,0,3.01,4.32,8.294,8.294,0,0,0,4.984.8l6.227-3.629c2.079-.63,2.168-2.592,2.23-4.738a8.406,8.406,0,0,0-2.2-5.574,11.806,11.806,0,0,0-2.982-2.23,4.687,4.687,0,0,1-1.633-1.115,3.6,3.6,0,0,1-.463-1.672,10.641,10.641,0,0,0-.307-2.012,7.415,7.415,0,0,0-.981-1.873,3.685,3.685,0,0,0-1.773-1.421,12.977,12.977,0,0,0-3.345-.836c-1.461-.156-3.049.251-4.46-.217a35.623,35.623,0,0,0-4.108-1.511,5.173,5.173,0,0,0-4.46.936,2.787,2.787,0,0,0-1.054,2.336Z" transform="translate(-8.903 -288.98)" fill="#26aab7"/><path d="M8.907,306.525a3.932,3.932,0,0,0,1.756,2.3,4.515,4.515,0,0,1,1.9,2.23c.5,1.94-1.739,3.841-1.154,5.753a3.11,3.11,0,0,0,1.706,1.75c.624.307,1.3.491,1.951.736a7.7,7.7,0,0,0,.976.19,4.5,4.5,0,0,1,2.676,1.065c1.115,1.115,1.059,2.9,1.505,4.415a6.664,6.664,0,0,0,3.01,4.32,8.294,8.294,0,0,0,4.984.8l6.227-3.629c2.079-.63,2.168-2.592,2.23-4.738a8.406,8.406,0,0,0-2.2-5.574,11.806,11.806,0,0,0-2.982-2.23,4.687,4.687,0,0,1-1.633-1.115,3.6,3.6,0,0,1-.463-1.672,10.641,10.641,0,0,0-.307-2.012,7.415,7.415,0,0,0-.981-1.873,3.685,3.685,0,0,0-1.773-1.421,12.977,12.977,0,0,0-3.345-.836c-1.461-.156-3.049.251-4.46-.217a35.623,35.623,0,0,0-4.108-1.511,5.173,5.173,0,0,0-4.46.936,2.787,2.787,0,0,0-1.054,2.336Z" transform="translate(-8.903 -288.98)" fill="#fff" opacity="0.25"/><path d="M30.364,317.938a1.323,1.323,0,0,0-.117-.167,24.067,24.067,0,0,0-13.089-9.3.225.225,0,0,0-.089.44A23.514,23.514,0,0,1,29.5,317.464a12.264,12.264,0,0,0-9.766.346.217.217,0,0,0-.078.3.206.206,0,0,0,.173.111.178.178,0,0,0,.128-.028,11.89,11.89,0,0,1,10-.061,18.674,18.674,0,0,1,3.111,10.748.217.217,0,0,0,.2.223h0a.229.229,0,0,0,.229-.223,19.087,19.087,0,0,0-3.133-10.943Z" transform="translate(-12.438 -291.356)" fill="#fff"/></g><g transform="translate(324.999)"><path d="M439.851,311.715a54.711,54.711,0,0,1,6.338-28.34c4.281-7.8,10.8-11.026,14.583-11.065,4.237-.045,8.094,3.763,3.78,8.78-4.1,4.766-11.149,6.243-16.645,19.126a51.343,51.343,0,0,0-3.629,12.264,1.378,1.378,0,0,1-2.129.769Z" transform="translate(-439.764 -272.309)" fill="#26aab7"/><path d="M439.851,311.715a54.711,54.711,0,0,1,6.338-28.34c4.281-7.8,10.8-11.026,14.583-11.065,4.237-.045,8.094,3.763,3.78,8.78-4.1,4.766-11.149,6.243-16.645,19.126a51.343,51.343,0,0,0-3.629,12.264,1.378,1.378,0,0,1-2.129.769Z" transform="translate(-439.764 -272.309)" fill="#fff" opacity="0.5"/><path d="M444.982,311.158a.245.245,0,0,0,.268-.229c0-16.322,10.48-29.082,17.922-32.928a.212.212,0,0,0,.089-.312.29.29,0,0,0-.362-.084c-7.548,3.9-18.178,16.824-18.178,33.324a.245.245,0,0,0,.262.229Z" transform="translate(-441.957 -274.639)" fill="#fff"/><path d="M444.267,327.717a1.422,1.422,0,0,0,2.063-.518c1.332-3.138,4.064-6.249,8.824-9.354,5.535-3.612,12.933-6.689,12.325-10.4s-6.21-3.428-10.318-1.8a23.009,23.009,0,0,0-13.473,21.685Z" transform="translate(-441.499 -286.555)" fill="#26aab7"/><path d="M444.267,327.717a1.422,1.422,0,0,0,2.063-.518c1.332-3.138,4.064-6.249,8.824-9.354,5.535-3.612,12.933-6.689,12.325-10.4s-6.21-3.428-10.318-1.8a23.009,23.009,0,0,0-13.473,21.685Z" transform="translate(-441.499 -286.555)" fill="#fff" opacity="0.25"/><path d="M445.1,329.255a.251.251,0,0,0,.262-.189c.892-9.895,11.773-19.945,18.808-21.311a.223.223,0,0,0,.2-.273.279.279,0,0,0-.323-.167c-6.912.847-18.825,11.706-19.2,21.668a.245.245,0,0,0,.212.268Z" transform="translate(-442.01 -287.797)" fill="#fff"/></g></g><g transform="translate(235.526 26.434)"><g transform="translate(0 0)"><g transform="translate(18.981 42.348)"><path d="M313.31,321.863l4.777-51.67,4.432-.223-6.974,51.887h0a.6.6,0,0,1-.3.4,1.745,1.745,0,0,1-1.583.084.557.557,0,0,1-.346-.474Z" transform="translate(-313.31 -201.604)" fill="#263238"/><path d="M321.349,270.193l4.432-.223-1.3,8.579a17.629,17.629,0,0,1-2.626-1.2,2.7,2.7,0,0,1-1.171-1Z" transform="translate(-316.572 -201.604)" fill="#263238"/><path d="M427.54,258.46H432l7.1,49.15h0a.557.557,0,0,1-.318.491,1.762,1.762,0,0,1-1.583,0,.608.608,0,0,1-.318-.385h0Z" transform="translate(-363.863 -196.51)" fill="#37474f"/><path d="M431.977,258.46l1.723,11.935a18.513,18.513,0,0,1-3.5,2.146L427.54,258.46Z" transform="translate(-363.863 -196.51)" fill="#263238"/><path d="M366.51,348.476l3.523-52.433,4.432-.223-5.725,52.651h0a.608.608,0,0,1-.3.4,1.75,1.75,0,0,1-1.578.084.557.557,0,0,1-.351-.474Z" transform="translate(-336.854 -213.044)" fill="#37474f"/><path d="M372,302.677l.446-6.634,4.432-.223-.781,7.152A8.27,8.27,0,0,1,372,302.677Z" transform="translate(-339.283 -213.044)" fill="#263238"/><path d="M384.09,233.2h4.46l7.1,50.114h0a.558.558,0,0,1-.323.485,1.712,1.712,0,0,1-1.578,0,.6.6,0,0,1-.318-.379h0Z" transform="translate(-344.634 -185.331)" fill="#263238"/><g transform="translate(2.86)"><path d="M392.038,165.223a25.23,25.23,0,0,1,1.773,7.8c.507,5.976-1.516,25.314-2.732,33.965h0c-1.756,14.449-3.9,14.494-7.046,16.9-5.385,4.159-20.871,12.314-25.988,14.326-9.27,3.651-16.852-1.973-22.5-4.766a131.276,131.276,0,0,1-14.962-8.869c-1.41-1.031-2.141-2.068-2.13-3.161v-2.67c0-1.394,1.232-2.888,3.83-4.571,4.788-3.1,22.092-13.2,28.8-16.913a.067.067,0,0,1,.056-.056c5.162-3.133,8.267-24.427,11.84-35.755.078-.245.151-.479.234-.7s.123-.357.184-.53q.309-.853.7-1.672" transform="translate(-318.444 -152.294)" fill="#26aab7"/><path d="M318.44,213.771c0-1.394,1.232-2.888,3.83-4.571,4.788-3.1,22.092-13.2,28.8-16.913a.067.067,0,0,1,.056-.056c5.162-3.133,8.267-24.427,11.84-35.755a20.457,20.457,0,0,1,.747-2.085l.067-.151c.067-.15.134-.307.206-.463l.1-.229h0a10.848,10.848,0,0,1,2.386-3.445,5.152,5.152,0,0,1,1.165-.825c.557-.323,1.8-1,2.107-1.182,3.506-2.1,8.1.418,13.83,3.557,3.562,1.957,6.606,4.276,8.456,8.6h0a25.231,25.231,0,0,1,1.773,7.8c.507,5.976-1.516,25.314-2.731,33.965h0c-1.756,14.449-3.9,14.494-7.046,16.9-5.385,4.159-20.871,12.314-25.988,14.326-9.27,3.651-16.852-1.973-22.5-4.766a131.266,131.266,0,0,1-14.956-8.869c-1.41-1.031-2.141-2.068-2.129-3.161C318.451,216.006,318.44,214.228,318.44,213.771Z" transform="translate(-318.44 -147.328)" fill="#26aab7"/><path d="M318.44,213.771c0-1.394,1.232-2.888,3.83-4.571,4.788-3.1,22.092-13.2,28.8-16.913a.067.067,0,0,1,.056-.056c5.162-3.133,8.267-24.427,11.84-35.755a20.457,20.457,0,0,1,.747-2.085l.067-.151c.067-.15.134-.307.206-.463l.1-.229h0a10.848,10.848,0,0,1,2.386-3.445,5.152,5.152,0,0,1,1.165-.825c.557-.323,1.8-1,2.107-1.182,3.506-2.1,8.1.418,13.83,3.557,3.562,1.957,6.606,4.276,8.456,8.6h0a25.231,25.231,0,0,1,1.773,7.8c.507,5.976-1.516,25.314-2.731,33.965h0c-1.756,14.449-3.9,14.494-7.046,16.9-5.385,4.159-20.871,12.314-25.988,14.326-9.27,3.651-16.852-1.973-22.5-4.766a131.266,131.266,0,0,1-14.956-8.869c-1.41-1.031-2.141-2.068-2.129-3.161C318.451,216.006,318.44,214.228,318.44,213.771Z" transform="translate(-318.44 -147.328)" fill="#fff" opacity="0.25"/><path d="M335.548,259.852a130.822,130.822,0,0,1-14.973-8.869c-3.211-2.33-2.915-4.722,1.672-7.709,6.4-4.147,32.488-18.953,32.488-18.953s32.979,19.466,31.557,23.056-21.83,14.711-28.263,17.242C348.771,268.269,341.195,262.644,335.548,259.852Z" transform="translate(-318.44 -181.401)" fill="#26aab7"/><path d="M335.548,259.852a130.822,130.822,0,0,1-14.973-8.869c-3.211-2.33-2.915-4.722,1.672-7.709,6.4-4.147,32.488-18.953,32.488-18.953s32.979,19.466,31.557,23.056-21.83,14.711-28.263,17.242C348.771,268.269,341.195,262.644,335.548,259.852Z" transform="translate(-318.44 -181.401)" fill="#fff" opacity="0.6"/><path d="M406.7,149.28c3.473-1.817,7.983.658,13.563,3.713,3.579,1.962,6.622,4.281,8.473,8.629l2.358-1.366c-1.851-4.326-4.894-6.645-8.457-8.6-5.73-3.138-10.324-5.652-13.83-3.557C408.5,148.26,407.28,148.957,406.7,149.28Z" transform="translate(-357.5 -147.328)" fill="#26aab7"/><path d="M406.7,149.28c3.473-1.817,7.983.658,13.563,3.713,3.579,1.962,6.622,4.281,8.473,8.629l2.358-1.366c-1.851-4.326-4.894-6.645-8.457-8.6-5.73-3.138-10.324-5.652-13.83-3.557C408.5,148.26,407.28,148.957,406.7,149.28Z" transform="translate(-357.5 -147.328)" fill="#fff" opacity="0.5"/><path d="M377.07,193.3s3.345,1.115,15.363,7c4.922,2.414,8.161,4.855,12.771,7.754,6.79,4.27,6.271,7.442,6.271,7.442,3.345-2.787,6.734-35.219,5.909-45.036a24.688,24.688,0,0,0-1.934-8.167c-.089-.19-.184-.379-.279-.557s-.128-.262-.2-.39a1.993,1.993,0,0,0-.1-.178,14.5,14.5,0,0,0-.853-1.366c-.073-.112-.151-.217-.223-.318l-.24-.312c-.072-.1-.156-.2-.24-.3l-.206-.24a14.566,14.566,0,0,0-1.221-1.265,3.984,3.984,0,0,0-.318-.3,20.365,20.365,0,0,0-2.152-1.628c-.112-.084-.229-.156-.346-.229l-.468-.3c-.134-.078-.262-.162-.4-.234-.351-.206-.7-.407-1.059-.6-4.264-2.336-7.9-4.337-10.937-4.337a5.642,5.642,0,0,0-3.791,1.444c-2.23,1.973-3.434,6.132-3.512,6.372C385.337,168.871,382.232,190.166,377.07,193.3Z" transform="translate(-344.387 -148.396)" fill="#26aab7"/><path d="M377.07,193.3s3.345,1.115,15.363,7c4.922,2.414,8.161,4.855,12.771,7.754,6.79,4.27,6.271,7.442,6.271,7.442,3.345-2.787,6.734-35.219,5.909-45.036a24.688,24.688,0,0,0-1.934-8.167c-.089-.19-.184-.379-.279-.557s-.128-.262-.2-.39a1.993,1.993,0,0,0-.1-.178,14.5,14.5,0,0,0-.853-1.366c-.073-.112-.151-.217-.223-.318l-.24-.312c-.072-.1-.156-.2-.24-.3l-.206-.24a14.566,14.566,0,0,0-1.221-1.265,3.984,3.984,0,0,0-.318-.3,20.365,20.365,0,0,0-2.152-1.628c-.112-.084-.229-.156-.346-.229l-.468-.3c-.134-.078-.262-.162-.4-.234-.351-.206-.7-.407-1.059-.6-4.264-2.336-7.9-4.337-10.937-4.337a5.642,5.642,0,0,0-3.791,1.444c-2.23,1.973-3.434,6.132-3.512,6.372C385.337,168.871,382.232,190.166,377.07,193.3Z" transform="translate(-344.387 -148.396)" fill="#fff" opacity="0.4"/></g></g><g transform="translate(7.505 77.969)"><path d="M348.536,311.19c3.172-.435,5.9,2.1,6.165,2.91.351,1.115.24,3.317-1.042,6.065a19.02,19.02,0,0,0-1.377,8.635c.24,2.509,1.455,8.763-1.065,11.918s-8.139,5.909-10.151,1.611c-.658-1.41.641-6.3,1.221-9.861,1.143-7.1,2.007-14.159,2.007-14.159Z" transform="translate(-314.037 -255.446)" fill="#263238"/><path d="M350.464,321.39a69.353,69.353,0,0,0-.8,10.419c.078,3.807-.719,6.316-2.029,8.016-1.444,1.884-5.073,2.943-4.655-.981.29-2.737,2.23-16,2.23-16Z" transform="translate(-314.951 -259.982)" fill="#ffa8a7"/><path d="M353.647,312.85c.15,2.347-1.115,8.579-4.248,13.8-3.1,5.128-7.637,11.149-8.5,14.811-.089-1.672.608-4.749,1.115-7.486l.033-.178.084-.474a1.482,1.482,0,0,1,.039-.217c.039-.2.072-.4.1-.6v-.039c.357-2.23.691-4.46.975-6.433.229-1.594.435-3.055.6-4.264.078-.6.15-1.115.212-1.611.033-.229.061-.446.084-.635.1-.775.156-1.215.156-1.215l4.225-7.119a6.114,6.114,0,0,1,.619-.045A6.963,6.963,0,0,1,353.647,312.85Z" transform="translate(-314.042 -255.45)" opacity="0.15"/><path d="M324,227.268c10.09-7.531,21.523-16.038,21.523-16.038l32.388,1.951L346,237.051l-13.747,9.3s-2.626-.206-1.015,3.9c.507,1.3,1.282,3.9,2.1,6.851l-6.377,17.582s-4.036-5.864-8.434-17.231c-4.46-11.506-4.738-15.3-4.281-17.582C314.852,236.878,315.755,233.4,324,227.268Z" transform="translate(-302.177 -211.23)" fill="#455a64"/><path d="M332.17,240.63a82.81,82.81,0,0,0-7.436,6.422,30.284,30.284,0,0,0-3.222,3.618,5.78,5.78,0,0,0-1.026,1.984,16.212,16.212,0,0,0-.306,2.369,21.3,21.3,0,0,0,.368,4.777c.273,1.594.663,3.177,1.081,4.755.864,3.166,1.672,6.355,2.469,9.543-1.2-3.066-2.274-6.176-3.272-9.309a42.3,42.3,0,0,1-1.276-4.805,19.614,19.614,0,0,1-.407-5.017,17.18,17.18,0,0,1,.351-2.514,6.623,6.623,0,0,1,1.254-2.347,27.254,27.254,0,0,1,3.462-3.612,54.4,54.4,0,0,1,7.96-5.864Z" transform="translate(-304.405 -224.241)" fill="#37474f"/><path d="M356.376,239.538c-.407.273-2.2,1.527-2.67,1.862-6.349,4.493-17.075,13.195-18.273,17.008a109.656,109.656,0,0,0-5.123,18.156s.2-5.915.424-11.706c.307-8.1,1.773-10.38,4.4-13.379,2.536-2.882,16.043-11.149,16.985-11.678-2.33-1.845-3.478-5.652-3.473-7.57C348.65,232.236,352.073,238.05,356.376,239.538Z" transform="translate(-309.357 -220.524)" fill="#37474f"/><path d="M320.939,362.909c.825-.056.881,1.355,1.383,3.144a9.162,9.162,0,0,1,.268,5.368c-.674,2.269-4.253,2.726-6.009,5.742s-4.27,8.406-10.592,10.212-11.366.028-12.7-1.8-.385-3.713,3.562-6.344c4.186-2.787,5.368-3.618,5.368-3.618Z" transform="translate(-292.723 -278.355)" fill="#263238"/><path d="M317.123,343.8a96.932,96.932,0,0,1-3.2,11.149,45.18,45.18,0,0,1-7.4,11.706c-.663.808-2.191,2.319-2.737,2.971a1.243,1.243,0,0,0,.173,1.906c1.433,1.3,7.369,1.488,10.642-1.081s6.143-7.916,8.094-9.967c.725-.769,1.41-1.555,2.057-2.391a4.148,4.148,0,0,0,.959-2.676,11.855,11.855,0,0,1,.162-3.83,42.9,42.9,0,0,1,1.449-4.967Z" transform="translate(-297.458 -269.9)" fill="#ffa8a7"/><path d="M382.227,214.66c3.545,10.82,2.787,16.623.819,21.267-1.633,3.869-4.688,7.888-13.5,12.136-8.362,4.025-16.166,8.289-18.245,9.265s-2.748,3.272-3.713,7.375a70.306,70.306,0,0,1-6.3,18.457c-4.46,8.73-5.692,11.311-5.692,11.311s-6.071,1.89-10.447-2.2c0,0,3.986-33.447,4.973-38.848a12.452,12.452,0,0,1,4.532-8.245c6.756-6.071,19.232-13.379,19.232-13.379s-.931-11.032,1.226-17.114Z" transform="translate(-307.074 -212.748)" fill="#455a64"/><path d="M331.51,302.751q.652-7.3,1.617-14.56c.647-4.844,1.343-9.672,2.308-14.494.123-.6.268-1.2.413-1.806l.268-.914.329-.892a14.391,14.391,0,0,1,1.9-3.272,26.987,26.987,0,0,1,5.407-5.084c1.968-1.472,4.042-2.787,6.1-4.086s4.125-2.614,6.216-3.9c-1.962,1.461-3.958,2.865-5.937,4.3s-3.986,2.787-5.881,4.315a27.869,27.869,0,0,0-5.112,5.017,13.969,13.969,0,0,0-1.728,3.066l-.3.825-.245.847c-.134.585-.273,1.171-.39,1.767-.5,2.369-.909,4.772-1.316,7.174l-1.2,7.219Q332.775,295.532,331.51,302.751Z" transform="translate(-309.888 -230.043)" fill="#37474f"/></g><path d="M279.929,120.918a3.44,3.44,0,0,1,2.007.156,21.989,21.989,0,0,1,2.871,1.611c1.472.8,3.835,2.107,5.535,2.035.346,0,1.059-.156.591-.557a14.258,14.258,0,0,1-1.789-1.739,2.988,2.988,0,0,1-.7-2.313.992.992,0,0,1,.346-.647c.284-.212.485-.078.708.089a7.423,7.423,0,0,0,.758.463c.557.3,1.07.6,1.6.914,3.088,1.812,6.182,3.9,8.01,7.1.262.463,1.862,4.08,2.893,6.132.836,1.862,7.2,13.529,7.2,13.529l11.333-11.049c2.536-2.536,5.073-4.889,7.325-5.753,1.611-.619,3.841-1.449,3.841-1.449l-4.136,19.416s-11.974,9-13.685,10.24c-2.536,1.84-7.6,4.811-10.118,1.706-3.412-4.214-5.073-10.3-6.689-14.934s-2.442-7.453-3.345-9.053-2.414-1.711-3.467-2.04a16.25,16.25,0,0,1-4.159-1.817,14.923,14.923,0,0,1-3.2-2.358,4.711,4.711,0,0,1-1.238-1.483,13.277,13.277,0,0,0-.3-1.578,15.006,15.006,0,0,1-.959-1.622,5.919,5.919,0,0,1-.1-1.477,2.48,2.48,0,0,0-1.059-1.745,2.3,2.3,0,0,1-.691-.814C279.115,121.3,279.483,121.041,279.929,120.918Z" transform="translate(-279.259 -92.601)" fill="#ffa8a7"/><path d="M318.445,151.287l-1.578-2.637a8.044,8.044,0,0,1-3.216,3.774c-2.553,1.7-4.281,1.081-4.281,1.081l.931,3.172s1.929.719,4.978-1.293S318.445,151.287,318.445,151.287Z" transform="translate(-292.585 -105.566)" fill="#a55c00"/><path d="M348.471,134.94a17.1,17.1,0,0,0-10.4,4.46c-2.653,2.23-14.271,13.117-14.271,13.117l-5.485-8.44s-.318,2.33-3.506,4.181c-3.345,1.951-4.582,1.288-4.582,1.288s2.5,10.034,5.246,14.967,4.32,6.544,8.808,4.521S344.106,155.6,344.106,155.6Z" transform="translate(-292.965 -99.498)" fill="#263238"/><path d="M302.589,131.63a11.013,11.013,0,0,0,3.8,4.777,4.556,4.556,0,0,1-2.826-1.444,4.275,4.275,0,0,1-.97-3.334Z" transform="translate(-289.567 -98.033)" fill="#f28f8f"/><path d="M334.58,165.559a16.687,16.687,0,0,1,2.118,9.789,11.457,11.457,0,0,0-.875-10.948Z" transform="translate(-303.742 -112.536)"/><g transform="translate(43.175)"><path d="M402.22,72.553a10.24,10.24,0,0,1,8.886-.34c3.863,1.879,4.638,4,5.117,8.479.719,6.734,1.249,8.757,2.1,10.268a5.675,5.675,0,0,0,3.428,2.726,3.936,3.936,0,0,1-3.819.284c.78,3.222,1.817,5.914,1.115,9.371a13.523,13.523,0,0,1-3.345,6.689c-1.466,1.461-3.623,1.962-5.418,2.815,1.143-2.676,1.723-5.19.775-8.128-1.042-3.239-3.345-5.954-4.4-9.22-1.5-4.521-3.194-9.192-3.729-13.936A85.814,85.814,0,0,1,402.22,72.553Z" transform="translate(-376.852 -71.361)" fill="#263238"/><path d="M400.673,72.482c.407-.7,3.027-1.115,5.1.24s3.774,3.718,2.352,5.692C406.782,80.286,397.924,75.23,400.673,72.482Z" transform="translate(-375.934 -71.568)" fill="#26aab7"/><path d="M389.706,136.232c3.9,1.533,4.309,1.672,4.309,1.672.814,2.129,4.426,7.983,3.473,13.7s-3.9,17.838-3.261,20.219,3.936,9.019,5.112,16.166a49.546,49.546,0,0,1-4.46,2.341s-1.321-8.278-3.512-11.216a104.771,104.771,0,0,1,0,10.675,33.831,33.831,0,0,1-20.1.485c-11.422-3.283-12.264-9.114-12.264-9.114s1.984-7.375,1.984-11.149-.686-9.828-.686-9.828-4.906-4.816-3.255-10.19c1.566-5.1,10.162-13.624,11.98-15.374a26.128,26.128,0,0,0,5.045-.4Z" transform="translate(-356.711 -99.18)" fill="#37474f"/><path d="M393.209,136.211c-.557,2.787-1.672,3.473-4.833,6.94s-13.05,12.916-13.936,17.019c-.6-3.517-1.4-8.228-.474-12.347s3.183-9.582,6.728-12.364l12.225-.518Z" transform="translate(-364.161 -99.498)" fill="#a55c00"/><g transform="translate(4.327 0.593)"><g transform="translate(2.651)"><path d="M369.753,87.445c-2.954-10.892,7.085-16.461,17.075-14.7,3.289.557,7.537,2.458,7.988,7.146,4.348,1.366,6.439,7.18,3.752,13.379-1.945,4.51-5.836,6.751-7.6,9.521Z" transform="translate(-369.229 -72.424)" fill="#263238"/><path d="M395.3,95.534c-2.787-1.221-4.2,1.706-4.2,1.706-1.817,1.115-2.865-2.514-3.261-3.607-.7-1.918-1.355-4.649-3.478-5.441a5.756,5.756,0,0,0-4.805.858,3.64,3.64,0,0,1-2.888.385c-.864-.234-1.115-1.589-1.923-2.007-2.269-1.221-4.03,2.514-4.343,4.3a36.659,36.659,0,0,0-.524,7.247c.167,8.116,2.888,11.416,4.264,12.158s3.077.942,5.786.719l-.039,2.4a22.561,22.561,0,0,0-1.945,8.362,32.664,32.664,0,0,0,13.323-8.239V103.495c.513,1.059,2.921,1.566,4.409-.34C397.59,100.663,397.975,96.7,395.3,95.534Z" transform="translate(-369.511 -78.958)" fill="#ffa8a7"/><path d="M386.751,117.84l-3.791,1.171a1.946,1.946,0,0,0,2.442,1.377A2.079,2.079,0,0,0,386.751,117.84Z" transform="translate(-375.305 -92.523)" fill="#b16668"/><path d="M387.566,119.4a2.18,2.18,0,0,0-2.2,1.672,1.845,1.845,0,0,0,1.115,0,2.046,2.046,0,0,0,1.394-1.639A1.788,1.788,0,0,0,387.566,119.4Z" transform="translate(-376.372 -93.212)" fill="#f28f8f"/><path d="M387.9,128.366c2.631-.4,7.431-1.672,8.228-3.846a4.154,4.154,0,0,1-1.912,3.306c-1.7,1.293-6.338,2.1-6.338,2.1Z" transform="translate(-377.483 -95.479)" fill="#f28f8f"/></g><path d="M372.61,95.337l2.7.808a1.355,1.355,0,0,0-.892-1.75,1.488,1.488,0,0,0-1.812.942Z" transform="translate(-368.074 -82.122)" fill="#263238"/><path d="M392.464,97.313,390,95.953a1.355,1.355,0,0,1,1.873-.6A1.483,1.483,0,0,1,392.464,97.313Z" transform="translate(-375.77 -82.499)" fill="#263238"/><path d="M373.48,103.993a1.143,1.143,0,1,0,1.232-1.115,1.165,1.165,0,0,0-1.232,1.115Z" transform="translate(-368.459 -85.901)" fill="#263238"/><path d="M389,105.114A1.148,1.148,0,1,0,390.237,104,1.182,1.182,0,0,0,389,105.114Z" transform="translate(-375.327 -86.397)" fill="#263238"/><path d="M364.477,99.2a2.475,2.475,0,0,0,.557,1.21,1.071,1.071,0,0,1,.217.429,22.432,22.432,0,0,0,.8,3.222,3.841,3.841,0,0,0,3.462,2.447,4.638,4.638,0,0,0,1.165-.033h.089a3.172,3.172,0,0,0,.942-.323l.056-.033.084-.045.1-.067a.941.941,0,0,0,.089-.067.741.741,0,0,0,.106-.078l.095-.078c.061-.056.123-.117.178-.178a3.946,3.946,0,0,0,.747-1.171c.474-1.081.323-2.648,1.115-2.787h.206c1.115.078,1.009,1.767,1.672,3.01a4.493,4.493,0,0,0,4.075,2.648h.557a4.582,4.582,0,0,0,.557-.05l.178-.033.173-.039h.112a2.855,2.855,0,0,0,.647-.273,1.678,1.678,0,0,0,.212-.134,2.887,2.887,0,0,0,.374-.307,3.568,3.568,0,0,0,.708-1.115,18.8,18.8,0,0,0,.608-3.122,1.114,1.114,0,0,1,.178-.446,2.007,2.007,0,0,0,.518-1.115,1.076,1.076,0,0,0-.68-1.037l-.591-.106a18.377,18.377,0,0,0-5.842-.251c-1.845.407-2.475.964-3.512.9s-1.6-.725-3.345-1.394a15.079,15.079,0,0,0-5.474-.557l-.557.028C364.767,98.256,364.432,98.7,364.477,99.2Zm12.2,1.817a1.5,1.5,0,0,1,.524-.4l.095-.045h.05l.257-.106.24-.089a6.314,6.314,0,0,1,.792-.2l.312-.061c.268-.039.557-.067.808-.084h.2a4.927,4.927,0,0,1,3.311.819c.413.39.262,2.035.1,2.86a.2.2,0,0,1,0,.061.273.273,0,0,1,0,.067,3.327,3.327,0,0,1-.072.334l-.05.206c-.033.112-.067.229-.112.346h0l-.05.117a1.155,1.155,0,0,1-.067.145.792.792,0,0,1-.045.1l-.061.106a1.2,1.2,0,0,1-.067.111l-.078.117a2.592,2.592,0,0,1-2.475,1.037,3.7,3.7,0,0,1-2.648-1.115h0a4.042,4.042,0,0,1-.892-1.739A3.752,3.752,0,0,1,376.679,101.021Zm-10.5-1.438a1.321,1.321,0,0,1,.429-.251h.033a1.615,1.615,0,0,1,.2-.061l.117-.033h.284a3.024,3.024,0,0,1,.407-.045h.953a7.052,7.052,0,0,1,.825.123,5.481,5.481,0,0,1,2.966,1.449,5.244,5.244,0,0,1-.011,3.161.174.174,0,0,1,0,.045.42.42,0,0,0,0,.061v.045a.106.106,0,0,1-.028.072l-.067.151-.067.128v.045l-.05.084-.05.078h0a2.61,2.61,0,0,1-2.631,1.065,3.289,3.289,0,0,1-1.338-.4,4.1,4.1,0,0,1-1.778-2.787C366.077,101.595,365.8,99.923,366.177,99.583Z" transform="translate(-364.473 -83.831)" fill="#37474f"/><path d="M400.322,101.05l5.413.925a4.659,4.659,0,0,0-1.054,1.193l-4.382-.747Z" transform="translate(-380.328 -85.093)" fill="#37474f"/><path d="M379.6,104.531l-.7,6.606L375,109.77l4.225-5.39A.858.858,0,0,1,379.6,104.531Z" transform="translate(-369.132 -86.566)" fill="#f28f8f"/><path d="M410.22,113.181a1.026,1.026,0,1,0,.3-.729A1.031,1.031,0,0,0,410.22,113.181Z" transform="translate(-384.718 -90.005)" fill="#fafafa"/></g><path d="M392.656,132.7v1.249a103.265,103.265,0,0,1-7.247,9.008c-4.794,5.29-8.891,9.315-10.363,12.983A38.954,38.954,0,0,0,373,164.162a20.575,20.575,0,0,1,7.119-10.525c3.473-2.787,9.086-4.917,10.146-6.689,1-1.672-1.009-3.991-1.009-3.991a23.484,23.484,0,0,0,5.508-2.6c2.09-1.516,2.141-4.794,2.141-4.794Z" transform="translate(-363.92 -98.507)" fill="#263238"/><path d="M380.271,134.587a22.46,22.46,0,0,0-5.892,10.9c-.886,4.71-1.277,15.424-1.277,15.424s-1.249-7.247-1.929-10.3-1.031-5.441,2.319-8.6c-.825-1.433-.97-1.968.78-4.058a15.608,15.608,0,0,1,3.261-3.032l2.737-1.756Z" transform="translate(-362.913 -98.711)" fill="#263238"/></g><path d="M358.409,178.857c-1.867-.19-3.668-1.912-6.071-2.826s-4.46-.942-6.132-1.611c-.68.385-.329,1.823.479,2.442,1.26.964,3.177,1.566,2.72,2.079-.674.758-3.267.234-4.053.072-2.425-.5-5.017-1.957-7.526-1.421a1.115,1.115,0,0,0-.691.379.864.864,0,0,0,.2,1.031,4.9,4.9,0,0,0,.931.636,1.288,1.288,0,0,1,.641.886c.028.346-.178.68-.134,1.02a1.254,1.254,0,0,0,.29.591,4.126,4.126,0,0,0,.9.831,6.442,6.442,0,0,1,.831.557,8.59,8.59,0,0,1,1.466,1.449c1.327,2.157,4.17,2.787,6.478,3.205,4.933.858,7.2-.178,10.106-.123s15.3-.323,21.657-.78c6.661-.474,7.47-1.711,9.348-8.072a182.322,182.322,0,0,0,4.989-22.694c1.054-7.988-2.6-12.314-8.434-14.6-1.383,1.221-4.426,6.974-5.764,17.559l-2.849,15.954S360.282,179.053,358.409,178.857Z" transform="translate(-304.832 -102.583)" fill="#ffa8a7"/><path d="M381.353,206.77l-3.083.669a25.868,25.868,0,0,1,.557,4.8,16.723,16.723,0,0,1-.446,4.532l3.757.111S384.251,211.029,381.353,206.77Z" transform="translate(-323.077 -131.287)" fill="#a55c00"/><path d="M405.087,140.81c3.59,1.265,6.227,2.631,8.055,5.513s2.185,6.45,1.41,12.431-4.46,20.447-5.48,23.758-1.672,4.058-5.184,4.671-21.623.78-21.623.78a14.435,14.435,0,0,0,.413-5.407,16.222,16.222,0,0,0-.948-4.961l15.608-2.843s2.481-14.917,3.345-19.6A50.13,50.13,0,0,1,405.087,140.81Z" transform="translate(-324.608 -102.096)" fill="#263238"/><path d="M409.78,200.727c2.157-.234,5.781,1.215,6.845,3.211-.446-2.1-2.676-4.409-6.623-4.4Z" transform="translate(-337.022 -128.087)"/></g></g><g transform="translate(17.841 23.174)"><g transform="translate(0 0)"><g transform="translate(5.301 44.442)"><path d="M184.636,321.139l-4.816-52.077-4.46-.223,7.029,52.294h0a.608.608,0,0,0,.3.4,1.756,1.756,0,0,0,1.589.078.557.557,0,0,0,.351-.474Z" transform="translate(-105.711 -199.939)" fill="#263238"/><path d="M179.8,269.063l-4.46-.223,1.316,8.646a17.337,17.337,0,0,0,2.642-1.215,2.72,2.72,0,0,0,1.182-1.009Z" transform="translate(-105.702 -199.939)" fill="#263238"/><path d="M67.628,257.24h-4.46L56,306.775h0a.558.558,0,0,0,.323.491,1.75,1.75,0,0,0,1.594,0,.608.608,0,0,0,.318-.385h0Z" transform="translate(-52.888 -194.805)" fill="#37474f"/><path d="M67.459,257.24,65.72,269.27a18.674,18.674,0,0,0,3.529,2.157L71.93,257.24Z" transform="translate(-57.189 -194.805)" fill="#263238"/><path d="M132.011,347.959l-3.551-52.84L124,294.89l5.77,53.063h0a.607.607,0,0,0,.3.4,1.756,1.756,0,0,0,1.589.078A.557.557,0,0,0,132.011,347.959Z" transform="translate(-82.982 -211.467)" fill="#37474f"/><path d="M128.911,301.8l-.452-6.689L124,294.88l.78,7.213A8.52,8.52,0,0,0,128.911,301.8Z" transform="translate(-82.982 -211.463)" fill="#263238"/><path d="M111.427,231.78h-4.46l-7.158,50.5h0a.558.558,0,0,0,.329.491,1.751,1.751,0,0,0,1.594,0,.591.591,0,0,0,.318-.385h0Z" transform="translate(-72.276 -183.538)" fill="#263238"/><path d="M52.286,163.269a25.224,25.224,0,0,0-1.789,7.854c-.507,6.015,1.527,25.509,2.754,34.227h0c1.767,14.56,3.941,14.588,7.1,17.024,5.43,4.2,21.038,12.414,26.2,14.443,9.343,3.679,16.98-1.99,22.677-4.805a131.616,131.616,0,0,0,15.085-8.919c1.421-1.037,2.157-2.079,2.146-3.183v-2.687c0-1.4-1.243-2.915-3.858-4.61-4.827-3.133-22.27-13.3-29.026-17.047a.067.067,0,0,0-.056-.056c-5.2-3.155-8.328-24.617-11.929-36.033-.078-.245-.156-.479-.234-.708s-.128-.362-.19-.53c-.229-.624-.457-1.193-.708-1.711" transform="translate(-50.417 -150.235)" fill="#26aab7"/><path d="M126.475,212.2c0-1.4-1.243-2.915-3.858-4.61-4.827-3.133-22.27-13.3-29.026-17.047a.067.067,0,0,0-.056-.056c-5.2-3.155-8.328-24.617-11.929-36.033a21.6,21.6,0,0,0-.736-2.107c0-.05-.045-.1-.061-.151-.067-.151-.134-.307-.206-.463s-.067-.162-.106-.234h0a10.925,10.925,0,0,0-2.4-3.473,5.2,5.2,0,0,0-1.176-.825c-.557-.329-1.812-1.015-2.118-1.193-3.534-2.113-8.167.424-13.936,3.584-3.59,1.968-6.656,4.309-8.518,8.668h0a25.225,25.225,0,0,0-1.789,7.854c-.507,6.015,1.527,25.509,2.754,34.227h0c1.767,14.56,3.941,14.588,7.1,17.024,5.43,4.2,21.038,12.414,26.2,14.443,9.343,3.679,16.98-1.99,22.677-4.805a131.617,131.617,0,0,0,15.085-8.919c1.421-1.037,2.157-2.079,2.146-3.183C126.464,214.457,126.475,212.662,126.475,212.2Z" transform="translate(-50.444 -145.238)" fill="#26aab7"/><path d="M126.475,212.2c0-1.4-1.243-2.915-3.858-4.61-4.827-3.133-22.27-13.3-29.026-17.047a.067.067,0,0,0-.056-.056c-5.2-3.155-8.328-24.617-11.929-36.033a21.6,21.6,0,0,0-.736-2.107c0-.05-.045-.1-.061-.151-.067-.151-.134-.307-.206-.463s-.067-.162-.106-.234h0a10.925,10.925,0,0,0-2.4-3.473,5.2,5.2,0,0,0-1.176-.825c-.557-.329-1.812-1.015-2.118-1.193-3.534-2.113-8.167.424-13.936,3.584-3.59,1.968-6.656,4.309-8.518,8.668h0a25.225,25.225,0,0,0-1.789,7.854c-.507,6.015,1.527,25.509,2.754,34.227h0c1.767,14.56,3.941,14.588,7.1,17.024,5.43,4.2,21.038,12.414,26.2,14.443,9.343,3.679,16.98-1.99,22.677-4.805a131.617,131.617,0,0,0,15.085-8.919c1.421-1.037,2.157-2.079,2.146-3.183C126.464,214.457,126.475,212.662,126.475,212.2Z" transform="translate(-50.444 -145.238)" fill="#fff" opacity="0.25"/><path d="M115.231,258.627a132.11,132.11,0,0,0,15.118-8.958c3.239-2.352,2.938-4.755-1.706-7.771-6.444-4.181-32.733-19.1-32.733-19.1s-33.263,19.622-31.836,23.257,22,14.828,28.48,17.375C101.92,267.111,109.54,261.442,115.231,258.627Z" transform="translate(-56.442 -179.563)" fill="#26aab7"/><path d="M115.231,258.627a132.11,132.11,0,0,0,15.118-8.958c3.239-2.352,2.938-4.755-1.706-7.771-6.444-4.181-32.733-19.1-32.733-19.1s-33.263,19.622-31.836,23.257,22,14.828,28.48,17.375C101.92,267.111,109.54,261.442,115.231,258.627Z" transform="translate(-56.442 -179.563)" fill="#fff" opacity="0.6"/><path d="M78.348,147.217c-3.5-1.84-8.044.658-13.669,3.74-3.6,1.973-6.689,4.315-8.535,8.691l-2.375-1.371c1.862-4.359,4.928-6.689,8.518-8.668,5.775-3.161,10.408-5.7,13.936-3.584C76.536,146.225,77.762,146.888,78.348,147.217Z" transform="translate(-51.901 -145.242)" fill="#26aab7"/><path d="M78.348,147.217c-3.5-1.84-8.044.658-13.669,3.74-3.6,1.973-6.689,4.315-8.535,8.691l-2.375-1.371c1.862-4.359,4.928-6.689,8.518-8.668,5.775-3.161,10.408-5.7,13.936-3.584C76.536,146.225,77.762,146.888,78.348,147.217Z" transform="translate(-51.901 -145.242)" fill="#fff" opacity="0.5"/><path d="M83.44,155.527c-.078-.245-1.282-4.432-3.54-6.422a5.708,5.708,0,0,0-3.824-1.455c-3.055,0-6.723,2.018-11.021,4.37-.357.2-.714.4-1.065.608-.134.078-.268.156-.4.24l-.479.3-.346.229a20.726,20.726,0,0,0-2.168,1.672,4.062,4.062,0,0,0-.323.3,14.725,14.725,0,0,0-1.226,1.271c-.072.084-.145.162-.206.245l-.245.3c-.084.1-.156.206-.24.312s-.151.212-.223.323a14.662,14.662,0,0,0-.864,1.371l-.1.184c-.072.128-.134.256-.2.39s-.19.385-.279.557a24.756,24.756,0,0,0-1.945,8.233c-.836,9.889,2.553,42.566,5.948,45.387,0,0-.518-3.2,6.321-7.5,4.649-2.921,7.91-5.379,12.871-7.8,12.091-5.937,15.48-7.052,15.48-7.052C90.168,188.4,87.041,166.943,83.44,155.527Z" transform="translate(-52.277 -146.305)" fill="#26aab7"/><path d="M83.44,155.527c-.078-.245-1.282-4.432-3.54-6.422a5.708,5.708,0,0,0-3.824-1.455c-3.055,0-6.723,2.018-11.021,4.37-.357.2-.714.4-1.065.608-.134.078-.268.156-.4.24l-.479.3-.346.229a20.726,20.726,0,0,0-2.168,1.672,4.062,4.062,0,0,0-.323.3,14.725,14.725,0,0,0-1.226,1.271c-.072.084-.145.162-.206.245l-.245.3c-.084.1-.156.206-.24.312s-.151.212-.223.323a14.662,14.662,0,0,0-.864,1.371l-.1.184c-.072.128-.134.256-.2.39s-.19.385-.279.557a24.756,24.756,0,0,0-1.945,8.233c-.836,9.889,2.553,42.566,5.948,45.387,0,0-.518-3.2,6.321-7.5,4.649-2.921,7.91-5.379,12.871-7.8,12.091-5.937,15.48-7.052,15.48-7.052C90.168,188.4,87.041,166.943,83.44,155.527Z" transform="translate(-52.277 -146.305)" fill="#fff" opacity="0.4"/></g><g transform="translate(14.339 84.122)"><path d="M141.73,345.894l4.114.808.3-2.932-3.233.641Z" transform="translate(-99.866 -272.779)"/><path d="M140.62,333s-1.472,2.09-1.923,2.754,1.148,4.593,1.672,5.39l1.182-1.483a14.4,14.4,0,0,1,.072,3.623c-.039,1.321-.463,3.612.307,5.825,1.115,3.278,4.125,6.433,7.687,8.813s6.2,2.787,7.726,2.626a2.848,2.848,0,0,0,2.737-1.962C160.393,357.5,140.62,333,140.62,333Z" transform="translate(-98.489 -268.013)" fill="#263238"/><path d="M156.535,325.522l.825-1.238c.68.4-.362,2.274-.373,4.46a38.81,38.81,0,0,0,1.087,9.727c1.617,5.647,3.607,9.794,4.32,12.331.959,3.389-4.911,4.22-10.653.217-2.849-1.99-7.18-6.689-7.576-9.359s.373-5.931,0-7.932-2.141-4.833-1.929-6.823c.117-1.115,1.55-2.938,2.821-4.459,1.176-1.4,2.676-3.735,3.423-3l-.424.825c-.061.892.072,2.514,2.23,4.381C151.306,325.594,154.784,327.885,156.535,325.522Z" transform="translate(-100.082 -261.951)" fill="#37474f"/><path d="M159.991,331.14c1.193.6,2.648.981,3.757.251h.039a3.4,3.4,0,0,0-.725,2.9c.3,1.9,1.6,14.822,1.6,14.822s-1.789-11.1-2.146-13.2c-.53-3.111-.948-3.7-2.536-4.749Z" transform="translate(-107.943 -267.19)" opacity="0.15"/><path d="M159.461,336.461a.429.429,0,1,1-.084-.587.429.429,0,0,1,.084.587Z" transform="translate(-107.379 -269.245)" opacity="0.15"/><path d="M160.456,341.822a.428.428,0,1,1-.045-.6A.435.435,0,0,1,160.456,341.822Z" transform="translate(-107.817 -271.607)" opacity="0.15"/><path d="M161.456,347.247a.429.429,0,0,1-.6.078.438.438,0,1,1,.557-.674A.424.424,0,0,1,161.456,347.247Z" transform="translate(-108.259 -274.01)" opacity="0.15"/><path d="M162.451,352.679a.429.429,0,1,1-.072-.6.429.429,0,0,1,.072.6Z" transform="translate(-108.697 -276.415)" opacity="0.15"/><path d="M163.449,358.1a.429.429,0,1,1-.073-.6.424.424,0,0,1,.073.6Z" transform="translate(-109.137 -278.816)" opacity="0.15"/><path d="M159.213,336.375a.162.162,0,0,1-.067-.1.173.173,0,0,1,.128-.206,7.011,7.011,0,0,1,5.117.914h0a.172.172,0,0,1-.2.279,6.8,6.8,0,0,0-4.844-.858.173.173,0,0,1-.134-.028Z" transform="translate(-107.572 -269.309)" fill="#263238"/><path d="M160.224,341.795a.2.2,0,0,1-.067-.106.167.167,0,0,1,.128-.2,7.027,7.027,0,0,1,5.117.909h0a.178.178,0,0,1,.039.24.173.173,0,0,1-.24.039,6.81,6.81,0,0,0-4.844-.853A.173.173,0,0,1,160.224,341.795Z" transform="translate(-108.019 -271.707)" fill="#263238"/><path d="M161.214,347.234a.171.171,0,0,1,.067-.307,7.188,7.188,0,0,1,5.117.909h0a.162.162,0,0,1,.039.234.173.173,0,0,1-.24.045,6.827,6.827,0,0,0-4.844-.858.173.173,0,0,1-.139-.022Z" transform="translate(-108.458 -274.119)" fill="#263238"/><path d="M162.214,352.654a.189.189,0,0,1-.067-.1.178.178,0,0,1,.134-.206,7.17,7.17,0,0,1,5.117.914h0a.173.173,0,1,1-.2.279,6.81,6.81,0,0,0-4.844-.853.178.178,0,0,1-.139-.034Z" transform="translate(-108.901 -276.518)" fill="#263238"/><path d="M163.223,358.075a.156.156,0,0,1-.067-.1.167.167,0,0,1,.128-.206,7.028,7.028,0,0,1,5.117.909h0a.173.173,0,0,1,.039.24.178.178,0,0,1-.24.045,6.782,6.782,0,0,0-4.839-.858.167.167,0,0,1-.139-.028Z" transform="translate(-109.346 -278.912)" fill="#263238"/><path d="M177.46,396.115l3.958-1.806L179.9,391.65l-2.341,2.5Z" transform="translate(-115.678 -293.969)"/><path d="M169,387s0,2.653.033,3.49,3.752,3.183,4.66,3.551l.1-1.968a15.131,15.131,0,0,1,2.23,3.016c.764,1.115,1.784,3.345,3.768,4.733,2.943,2.085,7.369,2.943,11.818,2.787s6.912-1.4,8.105-2.453a2.9,2.9,0,0,0,1.115-3.3C200.423,395.752,169,387,169,387Z" transform="translate(-111.934 -291.911)" fill="#263238"/><path d="M179.947,368.177l-.05-1.539c.814-.084,1.065,2.135,2.391,4a39.578,39.578,0,0,0,6.784,7.553c4.772,3.8,8.964,6.1,11.093,7.8,2.854,2.285-1.594,6.533-8.863,6.617-3.607.045-10.112-1.327-12.052-3.345s-3.261-5.24-4.805-6.689-4.727-2.787-5.747-4.6c-.557-1-.468-3.417-.312-5.474.139-1.89,0-4.766,1.076-4.6l.139.959c.485.786,1.578,2.074,4.51,2.364C175.572,371.393,179.9,371.232,179.947,368.177Z" transform="translate(-111.61 -282.899)" fill="#37474f"/><path d="M182.917,373.1c1.371-.212,2.832-.769,3.345-2.057V371a3.512,3.512,0,0,0,1.115,2.882c1.4,1.427,10.3,11.55,10.3,11.55s-8.189-8.3-9.761-9.85c-2.325-2.308-3.027-2.548-5.017-2.481Z" transform="translate(-118.086 -284.83)" fill="#263238"/><path d="M185.812,379.252a.44.44,0,0,1-.463.424.452.452,0,0,1-.429-.463.44.44,0,0,1,.463-.424A.451.451,0,0,1,185.812,379.252Z" transform="translate(-118.98 -288.277)" opacity="0.15"/><path d="M189.936,383.232a.446.446,0,0,1-.886-.039.435.435,0,0,1,.457-.424A.452.452,0,0,1,189.936,383.232Z" transform="translate(-120.808 -290.039)" opacity="0.15"/><path d="M194.056,387.2a.443.443,0,0,1-.886-.033.446.446,0,0,1,.457-.429A.452.452,0,0,1,194.056,387.2Z" transform="translate(-122.631 -291.796)" opacity="0.15"/><path d="M198.172,391.182a.446.446,0,1,1-.424-.463.44.44,0,0,1,.424.463Z" transform="translate(-124.45 -293.557)" opacity="0.15"/><path d="M202.292,395.153a.452.452,0,0,1-.463.429.446.446,0,1,1,.463-.429Z" transform="translate(-126.273 -295.315)" opacity="0.15"/><path d="M185.575,377.83a.178.178,0,0,1-.134-.3,7.325,7.325,0,0,1,4.872-2.319h0a.178.178,0,0,1,0,.357,6.917,6.917,0,0,0-4.6,2.2A.2.2,0,0,1,185.575,377.83Z" transform="translate(-119.189 -286.693)" fill="#263238"/><path d="M189.706,381.79a.17.17,0,0,1-.117-.3,7.294,7.294,0,0,1,4.872-2.324h0a.178.178,0,0,1,0,.357,7.068,7.068,0,0,0-4.6,2.2A.179.179,0,0,1,189.706,381.79Z" transform="translate(-121.023 -288.446)" fill="#263238"/><path d="M193.866,385.78a.17.17,0,0,1-.117-.3,7.294,7.294,0,0,1,4.872-2.325h0a.178.178,0,1,1,0,.357,7.068,7.068,0,0,0-4.6,2.2A.178.178,0,0,1,193.866,385.78Z" transform="translate(-122.864 -290.212)" fill="#263238"/><path d="M197.946,389.76a.183.183,0,0,1-.117-.05.178.178,0,0,1,0-.251,7.3,7.3,0,0,1,4.872-2.319h0a.178.178,0,0,1,0,.357,6.91,6.91,0,0,0-4.6,2.23.178.178,0,0,1-.15.033Z" transform="translate(-124.67 -291.973)" fill="#263238"/><path d="M202.066,393.73a.17.17,0,0,1-.117-.3,7.294,7.294,0,0,1,4.872-2.325h0a.184.184,0,0,1,.173.178.178.178,0,0,1-.178.178,7.086,7.086,0,0,0-4.6,2.2.178.178,0,0,1-.145.061Z" transform="translate(-126.493 -293.73)" fill="#263238"/><path d="M131.026,278.62c1.349-4.632,3.395-11.706,4.7-16.45,2.079-7.559,3.506-15.419,2.787-19.092-.931-4.956-5.77-10.034-12.771-14.767-7.62-5.156-17.654-11.89-17.654-11.89l-41.323.557c.117,6.661-.937,11.874,1.444,18.206,2.1,5.574,5.619,8.78,16.4,15.151,7.654,4.515,16.612,9.61,18.546,10.881,2.453,1.605,4.766,2.893,5.513,7.08.714,3.991,1.494,10.915,5.452,19.511,4.526,9.856,8.568,18.624,8.568,18.624s8.813,1.973,14.388-4.515C137.075,301.915,134.187,290.621,131.026,278.62Z" transform="translate(-66.63 -216.42)" fill="#455a64"/><path d="M158.338,283.048c-2.977-11.255-6-22.393-6.923-24.806-1.979-5.123-22.131-20.542-22.755-21.038,0,0,4.053-2.191,6.444-8.334-.184,5.017-2.419,7.247-3.144,8.507,3.049,2.52,9.945,7.866,13.039,10.591,3.9,3.406,7.977,7.453,9.276,12.732C155.239,264.619,157.324,276.922,158.338,283.048Z" transform="translate(-94.082 -221.93)" fill="#37474f"/></g><path d="M174.89,145.839c5.758-4.961,7.414-6.338,7.977-8.038s.513-3.194.786-5.909.635-5.257.808-6.689c.178-1.511,1.115-1.973,2.23-.557.948,1.243.669,3.233.792,4.6.139,1.617,1,1.46,1.912.368s5.184-6.55,6.728-8.133,2.737-1.349,3.239-.635c.29.407-.507,1.36-2.375,3.852s-2.888,3.7-2.709,3.83,1.249-1.148,3.473-3.4c2.046-2.079,2.637-2.7,3.724-3.216,1.288-.613,1.99.686,1.338,1.527s-1.115,1.466-3.98,4.627c-1.99,2.2-2.118,2.5-1.957,2.665s1.115-.652,3.267-2.514c2.313-1.979,3.5-2.614,4.309-2.012a.82.82,0,0,1,.139.942,10.1,10.1,0,0,1-2.313,2.469c-1.449,1.238-1.912,1.711-2.642,2.347s-.831.909-.658,1.087,1.505-.619,4.214-2.726c.964-.747,2.23.557.435,2.2-.959.886-5.078,5.073-7.4,7.2-2.6,2.391-4.538,3.127-6.617,5.251-1.84,1.94-9.086,9.716-9.086,9.716Z" transform="translate(-100.202 -89.756)" fill="#b16668"/><path d="M199.177,141.7a9.366,9.366,0,0,1-.557,8.724C201.173,149.064,201.909,144.376,199.177,141.7Z" transform="translate(-110.703 -99.23)" fill="#9a4a4d"/><path d="M123.72,153.12l-2.57-22.71c5.574.78,7.944,2.191,11.991,7.8,2.23,3.122,7.342,9.923,12.1,16.093l11.394-9.8s5.641,4.1,7.08,8.691c0,0-13.267,13.936-16.25,16.439-2.72,2.274-4.794,3.662-9.3-.6A205.667,205.667,0,0,1,123.72,153.12Z" transform="translate(-76.419 -94.234)" fill="#f0f0f0"/><path d="M185.547,167.884a27.873,27.873,0,0,0-2.168-2.347,8.8,8.8,0,0,0-2.787-1.962c-.234-.089-.362.162-.167.312a25.882,25.882,0,0,1,4.554,4.348,18.477,18.477,0,0,1,1.639,2.336c.084.145.162.29.24.44l.468-.485A15.981,15.981,0,0,0,185.547,167.884Z" transform="translate(-102.609 -108.903)" fill="#e0e0e0"/><path d="M160.514,172.321c-2.414,2-4.66,5.574-4.827,8.256a10.915,10.915,0,0,1,3.93-9.426Z" transform="translate(-91.696 -112.263)" fill="#e0e0e0"/><g transform="translate(9.546 35.206)"><path d="M60.1,136.017s-3.573,5.892-1.338,15.5c1.75,7.542,3.244,10.4,3.562,18.279.413,10.224.262,19.4.262,19.4,13.735,4.6,37.689-3.283,41.664-11.617,0,0-1.427-6.8-4.008-34.824a19.1,19.1,0,0,0-7.029-13.122l-7.068-.847-9.895-.123-5.647,2.174Z" transform="translate(-58.031 -128.67)" fill="#fafafa"/></g><g transform="translate(18.138)"><path d="M102.678,70.885c-2.113-3.557-5.652-5.658-11.784-5.34-7.436.385-11.3,4.008-11.829,7.046h0a5.279,5.279,0,0,0-2.787,2.659c-.708,1.343-1.21,3.807.7,10.842a28.43,28.43,0,0,0,3.345,7.765,3.456,3.456,0,0,0,2.018,1.617L82.2,90.067l-.2-2.157s2.692-.212,2.754-7.631c0-1,.106-1.823.067-2.5l18.591,1.243S104.8,74.442,102.678,70.885Z" transform="translate(-74.418 -65.513)" fill="#263238"/><path d="M76.324,96.677c2.118,1.115,4.081-.847,4.081-.847l.407,11.149s.217,2.152,3.64,4.041c4.861,2.687,7.932,3.055,10.034,5.92,1.572-4.805,2.358-7.219-.747-10.865v-3a17.2,17.2,0,0,0,4.549-.452c2.954-.853,4.058-2.419,4.616-5.29.786-4.047.518-9.276-.964-16.043a5.68,5.68,0,0,0-2.051-3.345c-3.278-2.475-8.15-.095-12.3,1.516-1.717.663-5.117.8-6.216.284,1.444,1.6,1.778,5.574.948,9.582-.29,1.382-.769,1.672-1.07,1.672-1.2-.033-1.672-1.516-2.414-2.313A3.12,3.12,0,0,0,73.971,89.8a5.134,5.134,0,0,0,2.352,6.879Z" transform="translate(-73.444 -70.54)" fill="#b16668"/><path d="M100.338,118.758c-4.041-.229-6.907-.931-8.462-2.129a14.3,14.3,0,0,1-3.456-4.309s.6,3.818,2.832,5.574,4.861,2.743,9.092,2.743Z" transform="translate(-80.072 -86.228)" fill="#9a4a4d"/><path d="M103.013,89.741l-2.96.4a1.572,1.572,0,0,1,1.321-1.717,1.455,1.455,0,0,1,1.639,1.321Z" transform="translate(-85.216 -75.645)" fill="#263238"/><path d="M101.669,95.864a1.215,1.215,0,1,0,1.171-1.254A1.215,1.215,0,0,0,101.669,95.864Z" transform="translate(-85.935 -78.39)" fill="#263238"/><path d="M118,88.01l2.787,1.048a1.566,1.566,0,0,0-.9-1.968,1.455,1.455,0,0,0-1.884.92Z" transform="translate(-93.163 -75.023)" fill="#263238"/><path d="M120.4,94.459a1.215,1.215,0,1,1-1.176-1.26A1.215,1.215,0,0,1,120.4,94.459Z" transform="translate(-93.15 -77.766)" fill="#263238"/><path d="M110.39,91.42l.992,7.743,4.092-1.505A18.072,18.072,0,0,0,110.39,91.42Z" transform="translate(-89.795 -76.978)" fill="#9a4a4d"/><path d="M106.7,109l4.12.747a2.057,2.057,0,0,1-2.386,1.756A2.2,2.2,0,0,1,106.7,109Z" transform="translate(-88.148 -84.759)" fill="#9a4a4d"/><path d="M107.247,110.188a2.169,2.169,0,0,0-.507,0,2.163,2.163,0,0,0,1.723,1.828,1.924,1.924,0,0,0,.669,0A1.912,1.912,0,0,0,107.247,110.188Z" transform="translate(-88.179 -85.278)" fill="#f28f8f"/></g><g transform="translate(22.127 32.83)"><path d="M113.352,141.572s1.589-3.6,1.5-4.967l-2.369-2.135-.312,5.731Z" transform="translate(-94.571 -128.86)" fill="#1565c0"/><path d="M113.352,141.572s1.589-3.6,1.5-4.967l-2.369-2.135-.312,5.731Z" transform="translate(-94.571 -128.86)" opacity="0.2"/><path d="M103.181,143.548,99.24,141.24l-3.01,2.325,6,2.57Z" transform="translate(-87.517 -131.856)" fill="#1565c0"/><path d="M103.181,143.548,99.24,141.24l-3.01,2.325,6,2.57Z" transform="translate(-87.517 -131.856)" opacity="0.2"/><path d="M110.119,177.351c-.518-12.175-.056-21.467-.479-24.411l2.057-.34c1.672,3.451,6.974,13.685,7.431,22.092.3,2.921-1.115,9.672-3.072,9.878S110.2,179.157,110.119,177.351Z" transform="translate(-93.452 -136.884)" fill="#1565c0"/><path d="M110.119,177.351c-.518-12.175-.056-21.467-.479-24.411l2.057-.34c1.672,3.451,6.974,13.685,7.431,22.092.3,2.921-1.115,9.672-3.072,9.878S110.2,179.157,110.119,177.351Z" transform="translate(-94.121 -136.884)" fill="#fff" opacity="0.1"/><path d="M111.909,153.065c-.089-.178-.151-.3-.212-.435h0l-2.057.34h0c.039.251.061.5.095.892A3.607,3.607,0,0,0,111.909,153.065Z" transform="translate(-93.452 -136.897)" opacity="0.2"/><path d="M107.747,144.707a8.727,8.727,0,0,1,1.945-.217,4.777,4.777,0,0,1,1.238,1.516,7.157,7.157,0,0,1-.557,3.021,2.481,2.481,0,0,1-2.057.34,4.309,4.309,0,0,1-1.617-1.884A3.9,3.9,0,0,1,107.747,144.707Z" transform="translate(-92.149 -133.295)" fill="#1565c0"/><path d="M107.747,144.707a8.727,8.727,0,0,1,1.945-.217,4.777,4.777,0,0,1,1.238,1.516,7.157,7.157,0,0,1-.557,3.021,2.481,2.481,0,0,1-2.057.34,4.309,4.309,0,0,1-1.617-1.884A3.9,3.9,0,0,1,107.747,144.707Z" transform="translate(-92.149 -133.295)" fill="#fff" opacity="0.1"/><path d="M96.236,135.808c-.067,0-.145.167-.212.178-1.483-.686-1.728-.937-2.107-.8-.708.251-2.23,3.345-2.592,4.37s-.29.981-1.672.178a23.724,23.724,0,0,1-6.372-5.441,16.367,16.367,0,0,1-2.681-5.335,18.507,18.507,0,0,0,1.555-2.313c.769-1.594.808-2.319,1.672-2.23l.039,1.076c.234,1.338,2.38,2.536,4.359,4.047s5.123,2.876,5.881,3.529a14.1,14.1,0,0,1,2.129,2.743Z" transform="translate(-80.6 -124.407)" fill="#e6e6e6"/><path d="M116.057,137.3c-.178.557-2.185-3.629-3.038-3.484-.407.056-1.265,1.277-1.962,2.553H110.5a13.15,13.15,0,0,0,.686-3.345c.089-1.477-1.355-5.184-1.355-5.184v-1.672c.229,0,.741,0,1.031-.033.229.206.68,1.115,1.115,1.639,1.009,1.254,3.345,3.083,3.7,4.7A14.315,14.315,0,0,1,116.057,137.3Z" transform="translate(-93.536 -125.169)" fill="#e6e6e6"/></g><path d="M55,139.67c-5.307,1.828-9.538,4.159-10.814,9.315s-2.419,17.537-3.1,25c-.557,6.394.19,12.058,2.1,14.494l12.264-7.52,3.278-20.363S60.469,145.244,55,139.67Z" transform="translate(-40.907 -98.332)" fill="#f0f0f0"/><path d="M57.816,195.539c-.875,1.711-2.057,2.508-4.644,4.237-2.414,1.611-5.246,3.216-6.383,6.271.056-2.676,1.288-4.181,4.248-6.489s7.369-5.179,7.369-5.179Z" transform="translate(-43.511 -122.544)" fill="#e0e0e0"/><path d="M56.631,196.46c-.875,1.711-2.057,2.508-4.644,4.237-2.414,1.611-5.246,3.216-6.383,6.271-1,2.692-2.18,4.989-1,6.656.814,1.148,4.565,1.377,7.971.63s5.3-3.205,8.4-6.193c2.653-2.559,3.657-3.607,3.657-3.607Z" transform="translate(-42.325 -123.464)" fill="#f0f0f0"/><path d="M63.535,196.082c-1.455-.953-1.929-2.135-3.9-2.787s-3.116-.373-5.218-.953-3.752-.753-5.089,0-.942,1.539.279,2,3.255.959,4.738,1.633,2.849.942,3.189,2.575a74.892,74.892,0,0,1,1,7.877c.212,2.787.134,5.128.4,5.379s1.466.145,1.873-1.533.184-7.425.184-7.425,1.327,3.746,2.1,6.355,1.277,4.627,1.472,5.179,1.984-.279,1.867-2.341a64.679,64.679,0,0,0-1.739-7.927s2.129,2.375,3.5,3.9,3.111,3.674,3.646,4.175,1.505-.786.892-2.319a32.451,32.451,0,0,0-3.473-5.017s3,2.068,3.49,2.23,1.756-.312.942-1.979c-.557-1.115-1.455-1.706-3.9-3.562a14.83,14.83,0,0,1-3.462-3.713C65.219,196.634,64.594,196.779,63.535,196.082Z" transform="translate(-44.263 -121.42)" fill="#b16668"/><path d="M67,201.856c2.152.468,3.9-.819,4.069-1.366C71.22,201.889,68.672,203.233,67,201.856Z" transform="translate(-52.455 -125.248)" fill="#9a4a4d"/><path d="M88.507,214.153a.92.92,0,0,1-1.26.167c-.557-.312-2.1-1.433-2.787-1.951S81.4,210,81.4,210l2.414,2.9s3,2.068,3.49,2.23a.981.981,0,0,0,1.2-.981Z" transform="translate(-58.827 -129.457)" fill="#9a4a4d"/></g></g><g transform="translate(120.733 104.348)"><g transform="translate(0 8.964)"><path d="M251.524,306.094,259,370.953h0a.87.87,0,0,0,.491.675,2.631,2.631,0,0,0,2.38,0,.869.869,0,0,0,.491-.674h0l-6.054-64.859a1.182,1.182,0,0,0-.7-.97,3.718,3.718,0,0,0-3.345,0A1.182,1.182,0,0,0,251.524,306.094Zm-83,64.859h0a.842.842,0,0,0,.491.675,2.62,2.62,0,0,0,2.375,0,.842.842,0,0,0,.491-.675h0l7.5-64.859a1.171,1.171,0,0,0-.7-.97,3.718,3.718,0,0,0-3.345,0,1.165,1.165,0,0,0-.691.97Zm44.345-54.864.764,70.238h0a.948.948,0,0,0,.557.736,2.9,2.9,0,0,0,2.609,0,.931.931,0,0,0,.557-.736h0l.764-70.238a1.3,1.3,0,0,0-.764-1.07,4.1,4.1,0,0,0-3.69,0,1.3,1.3,0,0,0-.8,1.07Z" transform="translate(-157.137 -261.516)" fill="#fb8c00"/><g transform="translate(11.383 43.212)" opacity="0.3"><path d="M251.524,306.094,259,370.953h0a.87.87,0,0,0,.491.675,2.631,2.631,0,0,0,2.38,0,.869.869,0,0,0,.491-.674h0l-6.054-64.859a1.182,1.182,0,0,0-.7-.97,3.718,3.718,0,0,0-3.345,0A1.182,1.182,0,0,0,251.524,306.094Zm-83,64.859h0a.842.842,0,0,0,.491.675,2.62,2.62,0,0,0,2.375,0,.842.842,0,0,0,.491-.675h0l7.5-64.859a1.171,1.171,0,0,0-.7-.97,3.718,3.718,0,0,0-3.345,0,1.165,1.165,0,0,0-.691.97Zm44.345-54.864.764,70.238h0a.948.948,0,0,0,.557.736,2.9,2.9,0,0,0,2.609,0,.931.931,0,0,0,.557-.736h0l.764-70.238a1.3,1.3,0,0,0-.764-1.07,4.1,4.1,0,0,0-3.69,0,1.3,1.3,0,0,0-.8,1.07Z" transform="translate(-168.52 -304.727)"/></g><g transform="translate(15.826 43.212)" opacity="0.15"><path d="M248.276,342.759l-.206-18.847a1.3,1.3,0,0,1,.764-1.07,4.1,4.1,0,0,1,3.69,0,1.3,1.3,0,0,1,.764,1.07l-.206,18.842C251.487,342.8,249.871,342.8,248.276,342.759Z" transform="translate(-208.168 -312.55)"/><path d="M178.134,306.094a1.165,1.165,0,0,1,.691-.97,3.718,3.718,0,0,1,3.345,0,1.17,1.17,0,0,1,.7.97l-2.286,19.968c-.351-.2-.708-.379-1.054-.557-1.054-.608-2.085-1.282-3.038-1.923Z" transform="translate(-176.49 -304.727)"/><path d="M318.1,305.125a3.718,3.718,0,0,1,3.345,0,1.182,1.182,0,0,1,.7.97l1.639,17.5c-.964.652-2,1.327-3.066,1.945-.334.19-.68.374-1.02.557l-2.308-20.007A1.182,1.182,0,0,1,318.1,305.125Z" transform="translate(-238.846 -304.727)"/></g><path d="M247.8,244.2c-21.852-12.615-57.283-12.615-79.157,0-10.926,6.3-16.378,14.572-16.378,22.855v1.605c0,8.267,5.452,16.534,16.378,22.855,21.852,12.621,57.283,12.621,79.157,0,10.926-6.31,16.378-14.577,16.372-22.855v-1.605C264.162,258.77,258.721,250.492,247.8,244.2Z" transform="translate(-149.941 -230.541)" fill="#fb8c00"/><path d="M247.8,244.2c-21.852-12.615-57.283-12.615-79.157,0-10.926,6.3-16.378,14.572-16.378,22.855v1.605c0,8.267,5.452,16.534,16.378,22.855,21.852,12.621,57.283,12.621,79.157,0,10.926-6.31,16.378-14.577,16.372-22.855v-1.605C264.162,258.77,258.721,250.492,247.8,244.2Z" transform="translate(-149.941 -230.541)" opacity="0.2"/><path d="M247.875,236.675c-21.852-12.621-57.278-12.621-79.157,0-10.926,6.3-16.378,14.572-16.378,22.855v2.759c0,8.267,5.452,16.534,16.378,22.855,21.852,12.621,57.278,12.621,79.157,0,10.926-6.3,16.383-15.72,16.378-23.97V259.57C264.259,251.247,258.8,242.98,247.875,236.675Z" transform="translate(-149.976 -227.21)" fill="#26aab7"/><path d="M247.875,236.675c-21.852-12.621-57.278-12.621-79.157,0-10.926,6.3-16.378,14.572-16.378,22.855v2.759c0,8.267,5.452,16.534,16.378,22.855,21.852,12.621,57.278,12.621,79.157,0,10.926-6.3,16.383-15.72,16.378-23.97V259.57C264.259,251.247,258.8,242.98,247.875,236.675Z" transform="translate(-149.959 -227.21)" fill="#fff" opacity="0.4"/><path d="M247.875,236.675c-21.852-12.621-57.278-12.621-79.157,0-10.926,6.3-16.378,14.572-16.378,22.855v2.759c0,8.267,5.452,16.534,16.378,22.855,21.852,12.621,57.278,12.621,79.157,0,10.926-6.3,16.383-15.72,16.378-23.97V259.57C264.259,251.247,258.8,242.98,247.875,236.675Z" transform="translate(-152.34 -227.21)" opacity="0.1"/><ellipse cx="55.956" cy="32.304" rx="55.956" ry="32.304" transform="translate(2.38)" fill="#fb8c00"/><ellipse cx="55.956" cy="32.304" rx="55.956" ry="32.304" transform="translate(2.38)" fill="#fff" opacity="0.85"/></g><g transform="translate(38.486)"><g transform="translate(4.248 14.759)"><path d="M224.76,255.861l23.97-13.847a1.383,1.383,0,0,1,1.377,0l41.608,24.026a.307.307,0,0,1,0,.53l-24.21,13.981Z" transform="translate(-224.76 -239.475)" fill="#26aab7" opacity="0.2"/><path d="M228,261.73v.557a2.23,2.23,0,0,0,1.115,1.923l38.759,22.37a2.173,2.173,0,0,0,1.115.3,2.231,2.231,0,0,0,1.115-.3l21.122-12.158a2.23,2.23,0,0,0,1.115-1.918v-.747h0a.273.273,0,0,1-.139.24L269,285.377Z" transform="translate(-226.194 -248.282)" fill="#37474f"/><path d="M228,251.048l22.984-13.267a1.332,1.332,0,0,1,1.321,0L292.168,260.8a.3.3,0,0,1,0,.507l-23.2,13.379Z" transform="translate(-226.194 -237.606)" fill="#455a64"/><path d="M273.026,278.373l12.4-7.146L249.179,250.3l-12.459,7.113Z" transform="translate(-230.053 -243.224)" fill="#37474f"/><path d="M236.72,257.413l.474.273,11.985-6.84L284.945,271.5l.474-.273L249.179,250.3Z" transform="translate(-230.053 -243.224)" fill="#263238"/><path d="M299.021,259.936l-.229.128-6.076,3.506-10.8-6.238-.223-.123,6.3-3.64Z" transform="translate(-249.955 -244.671)" fill="#263238"/><path d="M298.969,260.268l-6.076,3.506-10.8-6.238,6.082-3.506Z" transform="translate(-250.132 -244.874)" fill="#37474f"/><path d="M268.956,285.365v1.472a2.174,2.174,0,0,1-1.115-.3l-38.726-22.37A2.23,2.23,0,0,1,228,262.247v-.557Z" transform="translate(-226.194 -248.264)" fill="#263238"/></g><path d="M263.525,263.65a2.631,2.631,0,0,1-2.263-.178l-38.586-22.3a2.654,2.654,0,0,1-1.277-1.834l-4.22-25.163a2.2,2.2,0,0,1-.039-.429,2.637,2.637,0,0,1,.775-1.868l40.1,23.157a1.94,1.94,0,0,1,.942,1.36Z" transform="translate(-217.14 -211.462)" fill="#37474f"/><path d="M264.765,262.989l-.262.15a3.111,3.111,0,0,1-.362.178l-4.565-27.265a1.94,1.94,0,0,0-.942-1.36l-40.1-23.156a2.861,2.861,0,0,1,.557-.407l40.181,23.2a1.968,1.968,0,0,1,.942,1.355Z" transform="translate(-217.755 -211.13)" fill="#455a64"/><path d="M291.49,254.037l.624-.357a1.985,1.985,0,0,1,.368.836l4.571,27.315-.262.151a3.135,3.135,0,0,1-.362.178L291.863,254.9A1.906,1.906,0,0,0,291.49,254.037Z" transform="translate(-250.044 -229.961)" fill="#263238"/><path d="M255.966,258.557a8.7,8.7,0,0,0-3.9-5.017c-1.873-1.115-3.15-.557-2.865,1.115a8.6,8.6,0,0,0,3.9,5.017C254.979,260.758,256.245,260.257,255.966,258.557Z" transform="translate(-231.31 -229.642)" fill="#b2ebf2"/></g><g transform="translate(16.951 20.374)"><path d="M195.843,296.84c3.9,2.152,3.9,5.63,0,7.776a16.349,16.349,0,0,1-14.148,0c-3.908-2.146-3.9-5.625,0-7.776A16.33,16.33,0,0,1,195.843,296.84Z" transform="translate(-178.623 -268.723)" fill="#26aab7" opacity="0.4"/><path d="M183.507,269.714a20.722,20.722,0,0,1,12.453.061c3.373,1.293,3.345,3.345,0,4.632a20.518,20.518,0,0,1-12.453-.061C180.018,273.053,180,270.974,183.507,269.714Z" transform="translate(-179.56 -257.021)" fill="#263238"/><path d="M180.58,262.55l17.933.479L196.98,286.81h0c-.106.758-.847,1.494-2.23,2.046a16.005,16.005,0,0,1-10.759-.279c-1.4-.619-2.129-1.394-2.2-2.157h0Z" transform="translate(-179.426 -254.26)" fill="#fafafa"/><path d="M198.509,263.029l-.385,4.253a8.056,8.056,0,0,1-1.522.758,21.932,21.932,0,0,1-14.287-.368c-.173-.072-.312-.151-.468-.229a9.64,9.64,0,0,1-1.115-.658l-.162-4.237Z" transform="translate(-179.421 -254.26)" fill="#ebebeb"/><path d="M178.51,259.983l.084-3.205,2.09.05c.284-.139.591-.268.931-.4a21.957,21.957,0,0,1,14.287.368,8.918,8.918,0,0,1,.864.44l2.035.056-.084,3.205h0c0,1.042-1.026,2.063-2.988,2.787a21.914,21.914,0,0,1-14.282-.362C179.457,262.1,178.482,261.025,178.51,259.983Z" transform="translate(-178.509 -251.102)" fill="#37474f"/><path d="M181.744,252.01a21.956,21.956,0,0,1,14.287.362c3.835,1.689,3.774,4.281-.151,5.775a21.912,21.912,0,0,1-14.282-.368C177.63,256.079,177.691,253.5,181.744,252.01Z" transform="translate(-178.577 -249.144)" fill="#455a64"/><path d="M181.938,254.471h0l.714-2.631,5.128.134a21.137,21.137,0,0,1,5.106.134l4.978.128.557,2.659h0c.3.97-.5,1.957-2.391,2.642a18.813,18.813,0,0,1-11.779-.3C182.361,256.45,181.6,255.424,181.938,254.471Z" transform="translate(-179.992 -249.521)" fill="#37474f"/><path d="M185.537,248.371a18.189,18.189,0,0,1,10.814.273c2.9,1.171,2.865,2.954-.1,3.975a18.207,18.207,0,0,1-10.82-.279C182.415,251.164,182.471,249.385,185.537,248.371Z" transform="translate(-180.586 -247.679)" fill="#455a64"/><path d="M185.1,251.15a.9.9,0,0,0,.323.385,4.967,4.967,0,0,0,1.232.658,15.976,15.976,0,0,0,5.067.892,15.24,15.24,0,0,0,5.017-.63,4.188,4.188,0,0,0,1.221-.6c.256-.19.323-.335.329-.374s-.251-.557-1.494-1.042a15.19,15.19,0,0,0-4.984-.886,15.859,15.859,0,0,0-5.112.63C185.434,250.6,185.106,251.055,185.1,251.15Z" transform="translate(-181.426 -248.501)" fill="#263238"/><path d="M185.68,252.135a4.966,4.966,0,0,0,1.232.658,15.975,15.975,0,0,0,5.067.892,15.239,15.239,0,0,0,5.017-.63,4.185,4.185,0,0,0,1.221-.6,4.308,4.308,0,0,0-1.187-.658,15.135,15.135,0,0,0-4.984-.886,15.691,15.691,0,0,0-5.106.63A4.639,4.639,0,0,0,185.68,252.135Z" transform="translate(-181.683 -249.102)" fill="#37474f"/><g transform="translate(5.747 2.89)" opacity="0.5"><path d="M190.113,253.152a1.516,1.516,0,0,0-1.193-.256c-.229.117-.056.424.379.686a1.539,1.539,0,0,0,1.2.262C190.72,253.72,190.548,253.414,190.113,253.152Z" transform="translate(-188.819 -252.864)"/></g><path d="M197.951,282.362c0,.792-.8,1.578-2.4,2.168a19.381,19.381,0,0,1-11.706-.056c-1.639-.608-2.458-1.4-2.458-2.191l-.474-7.7c0,.836.87,1.672,2.614,2.33a20.73,20.73,0,0,0,12.453.061c1.672-.635,2.548-1.466,2.548-2.3Z" transform="translate(-179.572 -259.584)" fill="#455a64"/><path d="M201.022,286.861a11.706,11.706,0,0,0,.708-1.3,3.9,3.9,0,0,1,2.035-1.762.257.257,0,0,1,.318.111,2.737,2.737,0,0,1-.758,3.044,2.787,2.787,0,0,1-3.049.741c-.05,0-.067-.123,0-.145A2.614,2.614,0,0,0,201.022,286.861Z" transform="translate(-188.122 -263.655)" fill="#263238"/><path d="M202.48,282.847a4.243,4.243,0,0,0-1.282.775,3.8,3.8,0,0,0-.931,1.249,3.712,3.712,0,0,1-1.176,1.527.24.24,0,0,1-.346-.056,2.634,2.634,0,0,1,.636-3.239,2.787,2.787,0,0,1,3.133-.7.245.245,0,0,1-.033.446Z" transform="translate(-187.322 -262.951)" fill="#263238"/></g></g><g transform="translate(17.207 163.342)"><g transform="translate(270.29)"><path d="M400.954,338.973H398.93v-9.265a7.459,7.459,0,0,1,3.423-5.926l10.831-6.243a2.72,2.72,0,0,1,4.365,2.575l-.184,9.4-2.024-.039.19-9.415c0-.5-.106-.881-.307-1a1.176,1.176,0,0,0-1.026.212l-10.831,6.255a5.418,5.418,0,0,0-2.408,4.175Z" transform="translate(-384.191 -316.959)" fill="#37474f"/><path d="M425.5,362.815l-2.168-39.907a3.5,3.5,0,0,0-1.572-2.559l-1.243-.719a1.07,1.07,0,0,0-1.115-.084h0l-41.7,24.082,5.742,44.211,41.691-24.054h0a.992.992,0,0,0,.368-.97Z" transform="translate(-374.796 -318.051)" fill="#37474f"/><path d="M373.889,403.172l6.294,3.635c.814.474,1.438.089,1.382-.853L379.4,366.047a3.528,3.528,0,0,0-1.578-2.559l-1.243-.719a.96.96,0,0,0-1.566.853l-2.525,36.992a3.06,3.06,0,0,0,1.4,2.559Z" transform="translate(-372.49 -337.142)" fill="#263238"/><path d="M412.991,404.615a.557.557,0,0,1-.557-.557l-1.115-18.7a.58.58,0,1,1,1.159-.045l1.115,18.7a.557.557,0,0,1-.557.6Z" transform="translate(-389.673 -346.963)" fill="#26aab7"/><path d="M441.672,388.164a.557.557,0,0,1-.557-.557L440,368.91a.558.558,0,0,1,1.115-.067l1.115,18.7a.558.558,0,0,1-.557.6Z" transform="translate(-402.366 -339.688)" fill="#26aab7"/><path d="M387.18,365.365a3.027,3.027,0,0,1-4.526-2.453l-.858-15.976a3.529,3.529,0,0,0-1.583-2.548l-1.237-.719a1.115,1.115,0,0,0-1.015-.139l41.574-24h0a1.015,1.015,0,0,1,1.115.078l1.254.719a3.535,3.535,0,0,1,1.572,2.559l.825,15.8a8.362,8.362,0,0,1-4.158,7.687Z" transform="translate(-374.911 -318.037)" fill="#455a64"/><path d="M420.68,380.72l6.043-3.49.262,3.345-6.059,3.5Z" transform="translate(-393.817 -343.632)" fill="#26aab7"/></g><g transform="translate(0 4.938)"><path d="M90.721,351.411V384.73c0,1.617-1.115,2.548-2.536,3.373l-3.506,2.024a3.344,3.344,0,0,1-2.737.557,7.385,7.385,0,0,1-1.867-.764A.184.184,0,0,1,80,389.88l-.19-.106L44,369.077a8.451,8.451,0,0,1-4.231-7.325V331.416a2.4,2.4,0,0,1,1.087-1.884l5.981-3.451a2.363,2.363,0,0,1,2.168,0l40.627,23.452a2.229,2.229,0,0,1,.769.808,2.274,2.274,0,0,1,.318,1.07Z" transform="translate(-39.77 -325.818)" fill="#37474f"/><path d="M122.717,370.88V404.2c0,1.617-1.115,2.548-2.536,3.373l-3.506,2.024a3.344,3.344,0,0,1-2.737.557,7.385,7.385,0,0,1-1.867-.764h0c1.394.658,2.492-.072,2.492-1.722V376.237a3.344,3.344,0,0,0-.479-1.622l8.317-4.805A2.274,2.274,0,0,1,122.717,370.88Z" transform="translate(-71.767 -345.287)" fill="#263238"/><path d="M82.571,361.182a3.651,3.651,0,0,0-1.672-2.848l-38.369-22.17c-1.516-.875-2.759-.156-2.759,1.594v28.4A8.468,8.468,0,0,0,44,373.485l35.816,20.681c1.516.875,2.787.162,2.787-1.594Z" transform="translate(-39.77 -330.231)" fill="#455a64"/><path d="M48.5,328.29l40.694,23.73a3.824,3.824,0,0,1,1.89,3.289V389.6l-.624.357V355.309a3.194,3.194,0,0,0-1.578-2.754L47.86,328.647Z" transform="translate(-43.35 -326.912)" fill="#26aab7"/><path d="M124.031,373.36a3.84,3.84,0,0,1,.507,1.9v34.288l-.624.357V375.255a3.171,3.171,0,0,0-.423-1.583Z" transform="translate(-76.821 -346.858)" opacity="0.2"/><path d="M90.02,353.726a3.184,3.184,0,0,0-1.154-1.171L47.86,328.647l.619-.357,40.694,23.73a3.852,3.852,0,0,1,1.382,1.394" transform="translate(-43.35 -326.912)" opacity="0.2"/><path d="M73.308,335.2v5.162L71.29,341.53v-6.845c0-.357.245-.5.557-.323Z" transform="translate(-53.719 -329.566)" fill="#26aab7"/><path d="M73.308,335.2v5.162L71.29,341.53v-6.845c0-.357.245-.5.557-.323Z" transform="translate(-53.719 -329.566)" opacity="0.4"/><path d="M86.469,337.608v8.362l-1.923,1.115-1.3-.747v-6.857a1.221,1.221,0,0,0-.557-.953l-9.822-5.686-2.04-1.182c-.307-.173-.557-.033-.557.323v6.851L69,338.082v-8.323a.69.69,0,0,1,0-.106,1.237,1.237,0,0,1,.557-.847l.819-.479a1.255,1.255,0,0,1,1.115,0l14.46,8.362a1.226,1.226,0,0,1,.518.92Z" transform="translate(-52.704 -326.87)" fill="#26aab7"/><path d="M84.546,339.652v8.362l-1.3-.747V340.41a1.221,1.221,0,0,0-.557-.953l-9.822-5.686-2.04-1.182c-.307-.173-.557-.033-.557.323v6.851L69,339.011v-8.323a.69.69,0,0,1,0-.106c.05-.273.273-.368.557-.212l14.494,8.362A1.243,1.243,0,0,1,84.546,339.652Z" transform="translate(-52.704 -327.799)" opacity="0.2"/></g></g><g transform="translate(117.202 0)"><g transform="translate(64.868)"><path d="M303.518,65.782l-.24-8.919S318.77,54.444,315.62,38.83c-1.795-8.919-11.394-15.954-34.935-14.756-26.757,1.36-24.873,18.892-21.339,24.472,5.7,9.014,20.129,10.681,37.182,9.477Z" transform="translate(-257.339 -23.941)" fill="#1565c0"/><path d="M311.568,43.346H284.593a.513.513,0,0,1,0-1.026h26.969a.513.513,0,1,1,0,1.026Z" transform="translate(-269.173 -32.075)" fill="#fff"/><path d="M312.2,54.825H278.807a.557.557,0,1,1,0-1.115H312.2a.557.557,0,0,1,0,1.115Z" transform="translate(-266.593 -37.115)" fill="#fff"/><path d="M311.568,66.336H284.593a.513.513,0,0,1,0-1.026h26.969a.513.513,0,1,1,0,1.026Z" transform="translate(-269.173 -42.249)" fill="#fff"/></g><g transform="translate(0 8.457)"><path d="M149.411,78.009l8-7.52a75.917,75.917,0,0,0,17.966.786c16.038-.948,25.085-7.927,22.688-17.437-2.821-11.221-13.44-15.385-32.555-14.644-10.753.424-18.334,3.858-21.908,8.624-4.37,5.831-4,14.912,6.439,20.358Z" transform="translate(-140.972 -39.111)" fill="#455a64"/><path d="M195.11,56.016h-25.3a.513.513,0,1,1,0-1.026h25.3a.513.513,0,1,1,0,1.026Z" transform="translate(-153.509 -46.138)" fill="#fff"/><path d="M195.736,67.5H164.017a.557.557,0,0,1,0-1.115h31.719a.557.557,0,1,1,0,1.115Z" transform="translate(-150.924 -51.183)" fill="#fff"/><path d="M195.11,79.006h-25.3a.513.513,0,0,1,0-1.026h25.3a.513.513,0,1,1,0,1.026Z" transform="translate(-153.509 -56.313)" fill="#fff"/></g></g></svg>