<?xml version="1.0" encoding="utf-8"?>
<!-- Generator: Adobe Illustrator 25.2.3, SVG Export Plug-In . SVG Version: 6.00 Build 0)  -->
<!DOCTYPE svg PUBLIC "-//W3C//DTD SVG 1.1//EN" "http://www.w3.org/Graphics/SVG/1.1/DTD/svg11.dtd" [
	<!ENTITY ns_extend "http://ns.adobe.com/Extensibility/1.0/">
	<!ENTITY ns_ai "http://ns.adobe.com/AdobeIllustrator/10.0/">
	<!ENTITY ns_graphs "http://ns.adobe.com/Graphs/1.0/">
	<!ENTITY ns_vars "http://ns.adobe.com/Variables/1.0/">
	<!ENTITY ns_imrep "http://ns.adobe.com/ImageReplacement/1.0/">
	<!ENTITY ns_sfw "http://ns.adobe.com/SaveForWeb/1.0/">
	<!ENTITY ns_custom "http://ns.adobe.com/GenericCustomNamespace/1.0/">
	<!ENTITY ns_adobe_xpath "http://ns.adobe.com/XPath/1.0/">
]>
<svg version="1.1" id="Capa_1" xmlns:x="&ns_extend;" xmlns:i="&ns_ai;" xmlns:graph="&ns_graphs;"
	 xmlns="http://www.w3.org/2000/svg" xmlns:xlink="http://www.w3.org/1999/xlink" x="0px" y="0px" viewBox="0 0 814 327.3"
	 style="enable-background:new 0 0 814 327.3;" xml:space="preserve">
<style type="text/css">
	.st0{fill:#FFFFFF;}
	.st1{fill:#6595BF;}
	.st2{fill:#26AAB7;}
	.st3{fill:#B2EBF2;}
	.st4{fill:#12263F;}
	.st5{fill:none;stroke:#6595BF;}
	.st6{fill:none;stroke:#E1E1E1;}
</style>
<metadata>
	<sfw  xmlns="&ns_sfw;">
		<slices></slices>
		<sliceSourceBounds  bottomLeftOrigin="true" height="327.3" width="814" x="0" y="0"></sliceSourceBounds>
	</sfw>
</metadata>
<g id="Grupo_72277" transform="translate(-393 -2444.826)">
	<g id="Trazado_128798" transform="translate(393 2444.826)">
		<path class="st0" d="M812.8,326.2H0.5V0.5h812.3V326.2z"/>
		<path class="st1" d="M1,1v324.7h811.3V1H1 M0,0h813.3v326.7H0V0z"/>
	</g>
	<path id="Trazado_128799" class="st2" d="M620,2444.8h584.8v5H620V2444.8z"/>
	<path id="Trazado_128800" class="st3" d="M620,2449.8h584.8v61H620V2449.8z"/>
	<path id="Trazado_128829" class="st3" d="M424.2,2510.8H619v260.7H424.2V2510.8z"/>
	<path id="Trazado_128801" class="st4" d="M763,2482.7h-5v5.1H755V2475h8.6v2.4h-5.5v2.9h5V2482.7z M767.8,2487.8h-3v-9.5h3V2487.8z
		 M764.7,2475.9c0-0.4,0.2-0.8,0.5-1c0.3-0.3,0.8-0.4,1.2-0.4c0.4,0,0.9,0.1,1.2,0.4c0.3,0.3,0.5,0.6,0.5,1c0,0.4-0.2,0.8-0.5,1
		c-0.3,0.3-0.8,0.4-1.2,0.4c-0.4,0-0.9-0.1-1.2-0.4C764.8,2476.6,764.6,2476.3,764.7,2475.9z M772.3,2478.3l0.1,1.1
		c0.6-0.9,1.7-1.3,2.7-1.3c0.8-0.1,1.7,0.3,2.2,0.9c0.5,0.8,0.8,1.7,0.8,2.7v6.1h-3v-6c0-0.4-0.1-0.8-0.3-1.1
		c-0.3-0.3-0.7-0.4-1.1-0.3c-0.5,0-1,0.2-1.3,0.7v6.7h-3v-9.5H772.3z M785.1,2487.8c-0.1-0.3-0.2-0.6-0.3-0.9
		c-0.6,0.7-1.4,1.1-2.3,1c-0.8,0-1.7-0.3-2.3-0.8c-0.6-0.5-1-1.3-0.9-2c-0.1-0.9,0.4-1.8,1.1-2.3c1-0.6,2.2-0.9,3.3-0.8h0.9v-0.5
		c0-0.9-0.4-1.3-1.1-1.3c-0.5-0.1-1,0.3-1.1,0.8c0,0.1,0,0.2,0,0.3h-3c0-0.9,0.4-1.7,1.2-2.2c0.9-0.6,1.9-0.9,3-0.9
		c1-0.1,2.1,0.3,2.9,0.9c0.7,0.6,1.1,1.5,1.1,2.4v4.2c0,0.7,0.1,1.4,0.4,2v0.1H785.1z M783.3,2485.9c0.3,0,0.6-0.1,0.9-0.2
		c0.2-0.1,0.4-0.3,0.5-0.5v-1.5h-0.9c-1,0-1.5,0.5-1.5,1.4c0,0.2,0.1,0.5,0.3,0.7C782.8,2485.8,783,2485.9,783.3,2485.9z
		 M792,2478.3l0.1,1.1c0.6-0.9,1.7-1.3,2.7-1.3c0.8-0.1,1.7,0.3,2.2,0.9c0.5,0.8,0.8,1.7,0.8,2.7v6.1h-3v-6c0-0.4-0.1-0.8-0.3-1.1
		c-0.3-0.3-0.7-0.4-1.1-0.3c-0.5,0-1,0.2-1.3,0.7v6.7h-3v-9.5H792z M803.5,2485.7c0.4,0,0.7-0.1,1-0.3c0.2-0.3,0.4-0.6,0.3-0.9h2.8
		c0,1-0.4,1.9-1.1,2.6c-0.8,0.7-1.8,1-2.9,1c-1.2,0.1-2.4-0.4-3.3-1.3c-0.8-1-1.3-2.3-1.2-3.6v-0.1c0-0.9,0.2-1.8,0.5-2.6
		c0.3-0.7,0.9-1.3,1.5-1.7c0.7-0.4,1.5-0.6,2.4-0.6c1.1-0.1,2.1,0.3,2.9,1c0.7,0.7,1.1,1.7,1.1,2.8h-2.8c0-0.4-0.1-0.8-0.4-1.1
		c-0.2-0.3-0.6-0.4-1-0.4c-0.8,0-1.2,0.5-1.3,1.5c0,0.4-0.1,0.9-0.1,1.3c-0.1,0.7,0.1,1.4,0.3,2
		C802.6,2485.5,803.1,2485.7,803.5,2485.7z M812,2487.8h-3v-9.5h3V2487.8z M808.8,2475.9c0-0.4,0.2-0.8,0.5-1
		c0.3-0.3,0.8-0.4,1.2-0.4c0.4,0,0.9,0.1,1.2,0.4c0.3,0.3,0.5,0.6,0.5,1c0,0.4-0.2,0.8-0.5,1c-0.3,0.3-0.8,0.4-1.2,0.4
		c-0.4,0-0.9-0.1-1.2-0.4C809,2476.6,808.8,2476.3,808.8,2475.9z M818.4,2488c-1.3,0.1-2.6-0.4-3.5-1.3c-0.9-0.9-1.4-2.1-1.4-3.4
		v-0.2c0-0.9,0.2-1.8,0.5-2.6c0.3-0.7,0.9-1.3,1.6-1.7c0.8-0.4,1.6-0.6,2.5-0.6c1.2-0.1,2.3,0.4,3.2,1.2c0.8,1,1.2,2.2,1.2,3.5v1.2
		h-5.9c0.1,0.5,0.3,0.9,0.7,1.3c0.4,0.3,0.9,0.5,1.4,0.5c0.8,0,1.7-0.3,2.2-1l1.4,1.6c-0.4,0.5-0.9,1-1.6,1.2
		C819.9,2487.9,819.1,2488,818.4,2488z M818,2480.4c-0.9,0-1.4,0.6-1.5,1.7h3v-0.2c0-0.4-0.1-0.8-0.4-1.1
		C818.8,2480.5,818.4,2480.4,818,2480.4z M829.3,2481l-1-0.1c-0.7-0.1-1.4,0.2-1.8,0.9v6h-3v-9.5h2.8l0.1,1.2
		c0.4-0.8,1.2-1.4,2.1-1.4c0.3,0,0.6,0,0.8,0.1L829.3,2481z M829.7,2483c0-0.9,0.2-1.7,0.6-2.5c0.3-0.7,0.9-1.3,1.6-1.7
		c0.7-0.4,1.6-0.6,2.4-0.6c1.3-0.1,2.5,0.4,3.4,1.3c0.9,1,1.3,2.3,1.2,3.6v0.1c0.1,1.3-0.4,2.6-1.2,3.5c-0.9,0.9-2.1,1.4-3.3,1.3
		c-1.2,0.1-2.4-0.4-3.3-1.2c-0.9-0.9-1.3-2.1-1.3-3.3L829.7,2483z M832.7,2483.2c0,0.7,0.1,1.3,0.4,1.9c0.3,0.4,0.7,0.6,1.2,0.6
		c1.1,0,1.6-0.8,1.6-2.4v-0.3c0-1.7-0.5-2.6-1.6-2.6c-1,0-1.5,0.7-1.6,2.2L832.7,2483.2z"/>
	<path id="Trazado_128830" class="st4" d="M672.6,2543.2h-7.1l-1.6,4.5h-2.3l6.5-17.1h2l6.5,17.1h-2.3L672.6,2543.2z M666.1,2541.4
		h5.8l-2.9-8L666.1,2541.4z"/>
	<path id="Trazado_128830_1_" class="st4" d="M797.7,2592.2h-7.1l-1.6,4.5h-2.3l6.5-17.1h2l6.5,17.1h-2.3L797.7,2592.2z
		 M791.2,2590.3h5.8l-2.9-8L791.2,2590.3z"/>
	<path id="Trazado_128802" class="st4" d="M794.1,2547.7h-2.2v-17.1h2.2V2547.7z"/>
	<path id="Trazado_128803" class="st4" d="M1059.7,2542.2c-0.1,1.6-0.8,3.1-2,4.2c-1.3,1-2.8,1.6-4.5,1.5c-1.9,0.1-3.7-0.7-4.8-2.2
		c-1.3-1.7-1.9-3.7-1.8-5.8v-1.6c0-1.4,0.3-2.9,0.8-4.2c0.5-1.1,1.3-2.1,2.4-2.8c1.1-0.7,2.3-1,3.6-1c1.6-0.1,3.2,0.5,4.4,1.5
		c1.1,1.1,1.8,2.6,1.9,4.2h-2.3c-0.1-1.1-0.5-2.1-1.3-3c-0.8-0.6-1.7-1-2.7-0.9c-1.3-0.1-2.6,0.5-3.4,1.6c-0.9,1.3-1.3,2.9-1.2,4.5
		v1.7c-0.1,1.6,0.3,3.1,1.2,4.4c0.7,1.1,2,1.7,3.2,1.6c1,0.1,2-0.2,2.9-0.8c0.8-0.8,1.3-1.8,1.3-3H1059.7z"/>
	<path id="Trazado_128804" class="st4" d="M929.8,2540.8h-4v6.9h-2.3v-17.1h5.6c1.6-0.1,3.2,0.4,4.4,1.3c1.1,1,1.6,2.4,1.6,3.8
		c0,1-0.3,2-0.9,2.8c-0.6,0.8-1.4,1.4-2.4,1.8l4,7.2v0.1h-2.4L929.8,2540.8z M925.8,2538.9h3.5c1,0.1,1.9-0.3,2.7-0.9
		c0.7-0.6,1-1.4,1-2.3c0.1-0.9-0.3-1.8-0.9-2.4c-0.8-0.6-1.7-0.9-2.7-0.9h-3.4V2538.9z"/>
	<path id="Trazado_128805" class="st4" d="M1152.7,2540.8h-4v6.9h-2.3v-17.1h5.6c1.6-0.1,3.2,0.4,4.4,1.3c1.1,1,1.6,2.4,1.6,3.8
		c0,1-0.3,2-0.9,2.8c-0.6,0.8-1.4,1.4-2.4,1.8l4,7.2v0.1h-2.4L1152.7,2540.8z M1148.7,2538.9h3.5c1,0.1,1.9-0.3,2.7-0.9
		c0.7-0.6,1-1.4,1-2.3c0.1-0.9-0.3-1.8-0.9-2.4c-0.8-0.6-1.7-0.9-2.7-0.9h-3.4V2538.9z"/>
	<path id="Trazado_128831" class="st4" d="M672.6,2640.9h-7.1l-1.6,4.5h-2.3l6.5-17.1h2l6.5,17.1h-2.3L672.6,2640.9z M666.1,2639
		h5.8l-2.9-8L666.1,2639z"/>
	<path id="Trazado_128806" class="st4" d="M794.1,2645.3h-2.2v-17.1h2.2V2645.3z"/>
	<path id="Trazado_128807" class="st4" d="M1055.5,2639.9c-0.1,1.6-0.8,3.1-2,4.2c-1.3,1-2.8,1.6-4.5,1.5c-1.9,0.1-3.7-0.7-4.8-2.2
		c-1.3-1.7-1.9-3.7-1.8-5.8v-1.6c0-1.4,0.3-2.9,0.8-4.2c0.5-1.1,1.3-2.1,2.4-2.8c1.1-0.7,2.3-1,3.6-1c1.6-0.1,3.2,0.5,4.4,1.5
		c1.1,1.1,1.8,2.6,1.9,4.2h-2.3c-0.1-1.1-0.5-2.1-1.3-3c-0.8-0.6-1.7-1-2.7-0.9c-1.3-0.1-2.6,0.5-3.4,1.6c-0.9,1.3-1.3,2.9-1.2,4.5
		v1.7c-0.1,1.6,0.3,3.1,1.2,4.4c0.7,1.1,2,1.7,3.2,1.6c1,0.1,2-0.2,2.9-0.8c0.8-0.8,1.3-1.8,1.3-3H1055.5z"/>
	<path id="Trazado_128808" class="st4" d="M930.1,2645.3h-2.2v-17.1h2.2V2645.3z"/>
	<path id="Trazado_128809" class="st4" d="M1152.7,2638.4h-4v6.9h-2.3v-17.1h5.6c1.6-0.1,3.2,0.4,4.4,1.3c1.1,1,1.6,2.4,1.6,3.8
		c0,1-0.3,2-0.9,2.8c-0.6,0.8-1.4,1.4-2.4,1.8l4,7.2v0.1h-2.4L1152.7,2638.4z M1148.7,2636.6h3.5c1,0.1,1.9-0.3,2.7-0.9
		c0.7-0.6,1-1.4,1-2.3c0.1-0.9-0.3-1.8-0.9-2.4c-0.8-0.6-1.7-0.9-2.7-0.9h-3.4V2636.6z"/>
	<path id="Trazado_128832" class="st4" d="M672.6,2694.2h-7.1l-1.6,4.5h-2.3l6.5-17.1h2l6.5,17.1h-2.3L672.6,2694.2z M666.1,2692.4
		h5.8l-2.9-8L666.1,2692.4z"/>
	<path id="Trazado_128810" class="st4" d="M794.1,2698.7h-2.2v-17.1h2.2V2698.7z"/>
	<path id="Trazado_128811" class="st4" d="M1055.5,2693.3c-0.1,1.6-0.8,3.1-2,4.2c-1.3,1-2.8,1.6-4.5,1.5c-1.9,0.1-3.7-0.7-4.8-2.2
		c-1.3-1.7-1.9-3.7-1.8-5.8v-1.6c0-1.4,0.3-2.9,0.8-4.2c0.5-1.1,1.3-2.1,2.4-2.8c1.1-0.7,2.3-1,3.6-1c1.6-0.1,3.2,0.5,4.4,1.5
		c1.1,1.1,1.8,2.6,1.9,4.2h-2.3c-0.1-1.1-0.5-2.1-1.3-3c-0.8-0.6-1.7-1-2.7-0.9c-1.3-0.1-2.6,0.5-3.4,1.6c-0.9,1.3-1.3,2.9-1.2,4.5
		v1.7c-0.1,1.6,0.3,3.1,1.2,4.4c0.7,1.1,2,1.7,3.2,1.6c1,0.1,2-0.2,2.9-0.8c0.8-0.8,1.3-1.8,1.3-3H1055.5z"/>
	<path id="Trazado_128812" class="st4" d="M929.8,2691.8h-4v6.9h-2.3v-17.1h5.6c1.6-0.1,3.2,0.4,4.4,1.3c1.1,1,1.6,2.4,1.6,3.8
		c0,1-0.3,2-0.9,2.8c-0.6,0.8-1.4,1.4-2.4,1.8l4,7.2v0.1h-2.4L929.8,2691.8z M925.8,2689.9h3.5c1,0.1,1.9-0.3,2.7-0.9
		c0.7-0.6,1-1.4,1-2.3c0.1-0.9-0.3-1.8-0.9-2.4c-0.8-0.6-1.7-0.9-2.7-0.9h-3.4V2689.9z"/>
	<path id="Trazado_128813" class="st4" d="M1152.7,2691.8h-4v6.9h-2.3v-17.1h5.6c1.6-0.1,3.2,0.4,4.4,1.3c1.1,1,1.6,2.4,1.6,3.8
		c0,1-0.3,2-0.9,2.8c-0.6,0.8-1.4,1.4-2.4,1.8l4,7.2v0.1h-2.4L1152.7,2691.8z M1148.7,2689.9h3.5c1,0.1,1.9-0.3,2.7-0.9
		c0.7-0.6,1-1.4,1-2.3c0.1-0.9-0.3-1.8-0.9-2.4c-0.8-0.6-1.7-0.9-2.7-0.9h-3.4V2689.9z"/>
	<path id="Trazado_128833" class="st4" d="M672.6,2748.5h-7.1l-1.6,4.5h-2.3l6.5-17.1h2l6.5,17.1h-2.3L672.6,2748.5z M666.1,2746.7
		h5.8l-2.9-8L666.1,2746.7z"/>
	<path id="Trazado_128834" class="st4" d="M799.7,2747.6c-0.1,1.6-0.8,3.1-2,4.2c-1.3,1-2.8,1.6-4.5,1.5c-1.9,0.1-3.7-0.7-4.8-2.2
		c-1.3-1.7-1.9-3.7-1.8-5.8v-1.6c0-1.4,0.3-2.9,0.9-4.2c0.5-1.1,1.3-2.1,2.4-2.8c1.1-0.7,2.3-1,3.6-1c1.6-0.1,3.2,0.5,4.4,1.5
		c1.1,1.1,1.8,2.6,1.9,4.2h-2.3c-0.1-1.1-0.5-2.1-1.3-3c-0.8-0.6-1.7-1-2.7-0.9c-1.3-0.1-2.6,0.5-3.4,1.6c-0.9,1.3-1.3,2.9-1.2,4.5
		v1.7c-0.1,1.6,0.3,3.1,1.2,4.4c0.7,1.1,2,1.7,3.2,1.6c1,0.1,2-0.2,2.9-0.8c0.8-0.8,1.3-1.8,1.3-3H799.7z"/>
	<path id="Trazado_128835" class="st4" d="M1050,2753h-2.2v-17.1h2.2V2753z"/>
	<path id="Trazado_128836" class="st4" d="M929.8,2746.1h-4v6.9h-2.3v-17.1h5.6c1.6-0.1,3.2,0.4,4.4,1.3c1.1,1,1.6,2.4,1.6,3.8
		c0,1-0.3,2-0.9,2.8c-0.6,0.8-1.4,1.4-2.4,1.8l4,7.2v0.1h-2.4L929.8,2746.1z M925.8,2744.2h3.5c1,0.1,1.9-0.3,2.7-0.9
		c0.7-0.6,1-1.4,1-2.3c0.1-0.9-0.3-1.8-0.9-2.4c-0.8-0.6-1.7-0.9-2.7-0.9h-3.4V2744.2z"/>
	<path id="Trazado_128837" class="st4" d="M1152.7,2746.1h-4v6.9h-2.3v-17.1h5.6c1.6-0.1,3.2,0.4,4.4,1.3c1.1,1,1.6,2.4,1.6,3.8
		c0,1-0.3,2-0.9,2.8c-0.6,0.8-1.4,1.4-2.4,1.8l4,7.2v0.1h-2.4L1152.7,2746.1z M1148.7,2744.2h3.5c1,0.1,1.9-0.3,2.7-0.9
		c0.7-0.6,1-1.4,1-2.3c0.1-0.9-0.3-1.8-0.9-2.4c-0.8-0.6-1.7-0.9-2.7-0.9h-3.4V2744.2z"/>
	<path id="Trazado_128838" class="st4" d="M675.7,2591.2c-0.1,1.6-0.8,3.1-2,4.2c-1.3,1-2.8,1.6-4.5,1.5c-1.9,0.1-3.7-0.7-4.8-2.2
		c-1.3-1.7-1.9-3.7-1.8-5.8v-1.6c0-1.4,0.3-2.9,0.9-4.2c0.5-1.1,1.3-2.1,2.4-2.8c1.1-0.7,2.3-1,3.6-1c1.6-0.1,3.2,0.5,4.4,1.5
		c1.1,1.1,1.8,2.6,1.9,4.2h-2.3c-0.1-1.1-0.5-2.1-1.3-3c-0.8-0.6-1.7-1-2.7-0.9c-1.3-0.1-2.6,0.5-3.4,1.6c-0.9,1.3-1.3,2.9-1.2,4.5
		v1.7c-0.1,1.6,0.3,3.1,1.2,4.4c0.7,1.1,2,1.7,3.2,1.6c1,0.1,2-0.2,2.9-0.8c0.8-0.8,1.3-1.8,1.3-3H675.7z"/>
	<path id="Trazado_128815" class="st4" d="M1050,2596.7h-2.2v-17.1h2.2V2596.7z"/>
	<path id="Trazado_128816" class="st4" d="M929.8,2589.8h-4v6.9h-2.3v-17.1h5.6c1.6-0.1,3.2,0.4,4.4,1.3c1.1,1,1.6,2.4,1.6,3.8
		c0,1-0.3,2-0.9,2.8c-0.6,0.8-1.4,1.4-2.4,1.8l4,7.2v0.1h-2.4L929.8,2589.8z M925.8,2587.9h3.5c1,0.1,1.9-0.3,2.7-0.9
		c0.7-0.6,1-1.4,1-2.3c0.1-0.9-0.3-1.8-0.9-2.4c-0.8-0.6-1.7-0.9-2.7-0.9h-3.4V2587.9z"/>
	<path id="Trazado_128817" class="st4" d="M1152.7,2589.8h-4v6.9h-2.3v-17.1h5.6c1.6-0.1,3.2,0.4,4.4,1.3c1.1,1,1.6,2.4,1.6,3.8
		c0,1-0.3,2-0.9,2.8c-0.6,0.8-1.4,1.4-2.4,1.8l4,7.2v0.1h-2.4L1152.7,2589.8z M1148.7,2587.9h3.5c1,0.1,1.9-0.3,2.7-0.9
		c0.7-0.6,1-1.4,1-2.3c0.1-0.9-0.3-1.8-0.9-2.4c-0.8-0.6-1.7-0.9-2.7-0.9h-3.4V2587.9z"/>
	<path id="Trazado_128818" class="st4" d="M889,2486.8V2474h4.1c1.1,0,2.1,0.2,3,0.8c0.9,0.5,1.6,1.3,2.1,2.2c0.5,1,0.8,2,0.8,3.1
		v0.6c0,1.1-0.2,2.2-0.7,3.2c-0.5,0.9-1.2,1.7-2.1,2.2c-0.9,0.5-2,0.8-3,0.8H889z M892.1,2476.4v8h1.1c0.8,0,1.6-0.3,2-0.9
		c0.5-0.8,0.8-1.8,0.7-2.8v-0.6c0.1-1-0.2-2-0.7-2.8c-0.5-0.6-1.3-1-2.1-0.9H892.1z M903.6,2486.8h-3v-9.5h3V2486.8z M900.4,2474.9
		c0-0.4,0.2-0.8,0.5-1c0.3-0.3,0.8-0.4,1.2-0.4c0.4,0,0.9,0.1,1.2,0.4c0.3,0.3,0.5,0.6,0.5,1c0,0.4-0.2,0.8-0.5,1
		c-0.3,0.3-0.8,0.4-1.2,0.4c-0.4,0-0.9-0.1-1.2-0.4C900.6,2475.6,900.4,2475.3,900.4,2474.9z M910.4,2484.2c0-0.3-0.2-0.5-0.4-0.6
		c-0.5-0.2-1-0.4-1.5-0.5c-0.6-0.1-1.3-0.3-1.8-0.6c-0.4-0.2-0.8-0.6-1.1-1c-0.3-0.4-0.4-0.8-0.4-1.3c0-0.9,0.4-1.7,1.1-2.2
		c0.8-0.6,1.8-0.9,2.8-0.8c1.1-0.1,2.1,0.2,3,0.9c0.7,0.5,1.2,1.3,1.1,2.2h-3c0-0.8-0.4-1.1-1.2-1.1c-0.3,0-0.6,0.1-0.8,0.3
		c-0.2,0.2-0.3,0.4-0.3,0.6c0,0.3,0.2,0.5,0.4,0.6c0.4,0.2,0.8,0.3,1.2,0.4c0.5,0.1,1,0.2,1.5,0.4c1.2,0.3,2.1,1.4,2.1,2.6
		c0,0.9-0.4,1.7-1.2,2.1c-0.9,0.6-1.9,0.9-3,0.8c-0.7,0-1.5-0.1-2.2-0.4c-0.6-0.3-1.1-0.7-1.5-1.2c-0.3-0.5-0.5-1-0.5-1.6h2.8
		c0,0.4,0.1,0.7,0.4,1c0.3,0.2,0.7,0.3,1.1,0.3c0.3,0,0.6-0.1,0.9-0.2C910.3,2484.6,910.4,2484.4,910.4,2484.2L910.4,2484.2z
		 M919.2,2487c-1.3,0.1-2.6-0.4-3.5-1.3c-0.9-0.9-1.4-2.1-1.4-3.4v-0.2c0-0.9,0.2-1.8,0.5-2.6c0.3-0.7,0.9-1.3,1.6-1.7
		c0.8-0.4,1.6-0.6,2.5-0.6c1.2-0.1,2.3,0.4,3.2,1.2c0.8,1,1.2,2.2,1.2,3.5v1.2h-5.9c0.1,0.5,0.3,0.9,0.7,1.3
		c0.4,0.3,0.9,0.5,1.4,0.5c0.8,0,1.7-0.3,2.2-1l1.4,1.6c-0.4,0.5-0.9,1-1.6,1.2C920.7,2486.9,920,2487,919.2,2487z M918.9,2479.4
		c-0.9,0-1.4,0.6-1.5,1.7h3v-0.2c0-0.4-0.1-0.8-0.4-1.1C919.7,2479.5,919.3,2479.4,918.9,2479.4z M927.2,2477.3l0.1,1.1
		c0.6-0.9,1.7-1.3,2.7-1.3c0.8-0.1,1.7,0.3,2.2,0.9c0.5,0.8,0.8,1.7,0.8,2.7v6.1h-3v-6c0-0.4-0.1-0.8-0.3-1.1
		c-0.3-0.3-0.7-0.4-1.1-0.3c-0.5,0-1,0.2-1.3,0.7v6.7h-3v-9.5H927.2z M932.1,2473.4c0,0.6-0.2,1.2-0.6,1.7c-0.3,0.4-0.9,0.7-1.4,0.7
		c-0.5,0-0.9-0.1-1.3-0.4c-0.4-0.2-0.7-0.3-1.2-0.4c-0.2,0-0.4,0.1-0.5,0.2c-0.1,0.2-0.2,0.4-0.2,0.6l-1.6-0.1
		c0-0.6,0.2-1.2,0.6-1.7c0.3-0.5,0.9-0.7,1.4-0.7c0.4,0,0.8,0.1,1.2,0.3c0.3,0.1,0.6,0.3,0.9,0.4c0.1,0,0.3,0,0.4,0
		c0.2,0,0.4-0.1,0.5-0.2c0.1-0.2,0.2-0.4,0.2-0.6L932.1,2473.4z M939.9,2486.8c-0.1-0.3-0.2-0.6-0.3-0.9c-0.6,0.7-1.4,1.1-2.3,1
		c-0.8,0-1.7-0.3-2.3-0.8c-0.6-0.5-1-1.3-0.9-2c-0.1-0.9,0.4-1.8,1.1-2.3c1-0.6,2.2-0.9,3.3-0.8h0.9v-0.5c0-0.9-0.4-1.3-1.1-1.3
		c-0.5-0.1-1,0.3-1.1,0.8c0,0.1,0,0.2,0,0.3h-3c0-0.9,0.4-1.7,1.2-2.2c0.9-0.6,1.9-0.9,3-0.9c1-0.1,2.1,0.3,2.9,0.9
		c0.7,0.6,1.1,1.5,1.1,2.4v4.2c0,0.7,0.1,1.4,0.4,2v0.2H939.9z M938.1,2484.9c0.3,0,0.6-0.1,0.9-0.2c0.2-0.1,0.4-0.3,0.5-0.5v-1.5
		h-0.9c-1,0-1.5,0.5-1.5,1.4c0,0.2,0.1,0.5,0.3,0.7C937.6,2484.8,937.8,2484.9,938.1,2484.9z M943.8,2482c-0.1-1.3,0.3-2.5,1-3.6
		c0.6-0.9,1.7-1.3,2.7-1.3c0.8,0,1.6,0.4,2.1,1v-4.8h3v13.5h-2.7l-0.1-1c-0.5,0.8-1.4,1.2-2.3,1.2c-1.1,0-2.1-0.4-2.7-1.3
		C944,2484.6,943.7,2483.3,943.8,2482L943.8,2482z M946.7,2482.2c0,1.7,0.5,2.5,1.5,2.5c0.6,0,1.1-0.3,1.4-0.8v-3.6
		c-0.2-0.5-0.8-0.9-1.4-0.8c-0.9,0-1.4,0.7-1.5,2.2L946.7,2482.2z M953.9,2482c0-0.9,0.2-1.7,0.6-2.5c0.3-0.7,0.9-1.3,1.6-1.7
		c0.7-0.4,1.6-0.6,2.4-0.6c1.3-0.1,2.5,0.4,3.4,1.3c0.9,1,1.3,2.3,1.2,3.6v0.1c0.1,1.3-0.4,2.6-1.2,3.5c-0.9,0.9-2.1,1.4-3.3,1.3
		c-1.2,0.1-2.4-0.4-3.3-1.2c-0.9-0.9-1.3-2.1-1.3-3.3L953.9,2482z M956.9,2482.2c0,0.7,0.1,1.3,0.4,1.9c0.3,0.4,0.7,0.6,1.2,0.6
		c1.1,0,1.6-0.8,1.6-2.4v-0.3c0-1.7-0.5-2.6-1.6-2.6c-1,0-1.5,0.7-1.6,2.2L956.9,2482.2z M970.1,2480l-1-0.1
		c-0.7-0.1-1.4,0.2-1.8,0.9v6h-3v-9.5h2.8l0.1,1.2c0.4-0.8,1.2-1.4,2.1-1.4c0.3,0,0.6,0,0.8,0.1L970.1,2480z"/>
	<path id="Trazado_128819" class="st4" d="M1031.2,2485.4h-4.2l-0.7,2.4h-3.3l4.7-12.8h2.9l4.7,12.8h-3.3L1031.2,2485.4z
		 M1027.7,2483.1h2.8l-1.4-4.4L1027.7,2483.1z M1041.7,2486.8c-0.6,0.8-1.5,1.2-2.5,1.2c-0.9,0.1-1.8-0.3-2.4-0.9
		c-0.6-0.7-0.9-1.7-0.8-2.6v-6.2h3v6.2c-0.1,0.6,0.3,1.1,0.9,1.2c0.1,0,0.2,0,0.3,0c0.6,0.1,1.1-0.2,1.4-0.7v-6.7h3v9.5h-2.8
		L1041.7,2486.8z M1045.8,2483c-0.1-1.3,0.3-2.5,1-3.6c0.6-0.9,1.7-1.3,2.7-1.3c0.8,0,1.6,0.4,2.1,1v-4.8h3v13.5h-2.7l-0.1-1
		c-0.5,0.8-1.4,1.2-2.3,1.2c-1.1,0-2.1-0.4-2.7-1.3C1046,2485.6,1045.7,2484.3,1045.8,2483L1045.8,2483z M1048.7,2483.2
		c0,1.7,0.5,2.5,1.5,2.5c0.6,0,1.1-0.3,1.4-0.8v-3.6c-0.2-0.5-0.8-0.9-1.4-0.8c-0.9,0-1.4,0.7-1.5,2.2L1048.7,2483.2z
		 M1059.4,2487.8h-3v-9.5h3V2487.8z M1056.2,2475.9c0-0.4,0.2-0.8,0.5-1c0.3-0.3,0.8-0.4,1.2-0.4c0.4,0,0.9,0.1,1.2,0.4
		c0.3,0.3,0.5,0.6,0.5,1c0,0.4-0.2,0.8-0.5,1c-0.3,0.3-0.8,0.4-1.2,0.4c-0.4,0-0.9-0.1-1.2-0.4
		C1056.4,2476.6,1056.2,2476.3,1056.2,2475.9z M1064.7,2476v2.4h1.6v2.1h-1.6v4.4c0,0.3,0,0.5,0.2,0.7c0.2,0.2,0.5,0.2,0.8,0.2
		c0.2,0,0.5,0,0.7-0.1v2.1c-0.5,0.2-1.1,0.3-1.7,0.3c-0.8,0.1-1.6-0.2-2.3-0.7c-0.5-0.6-0.8-1.4-0.7-2.2v-4.7h-1.2v-2.1h1.2v-2.4
		H1064.7z M1066.8,2483c0-0.9,0.2-1.7,0.6-2.5c0.3-0.7,0.9-1.3,1.6-1.7c0.7-0.4,1.6-0.6,2.4-0.6c1.3-0.1,2.5,0.4,3.4,1.3
		c0.9,1,1.3,2.3,1.2,3.6v0.1c0.1,1.3-0.4,2.6-1.2,3.5c-0.9,0.9-2.1,1.4-3.3,1.3c-1.2,0.1-2.4-0.4-3.3-1.2c-0.9-0.9-1.3-2.1-1.3-3.3
		L1066.8,2483z M1069.7,2483.2c0,0.7,0.1,1.3,0.4,1.9c0.3,0.4,0.7,0.6,1.2,0.6c1.1,0,1.6-0.8,1.6-2.4v-0.3c0-1.7-0.5-2.6-1.6-2.6
		c-1,0-1.5,0.7-1.6,2.2L1069.7,2483.2z M1083,2481l-1-0.1c-0.7-0.1-1.4,0.2-1.8,0.9v6h-3v-9.5h2.8l0.1,1.2c0.4-0.8,1.2-1.4,2.1-1.4
		c0.3,0,0.6,0,0.8,0.1L1083,2481z"/>
	<path id="Trazado_128820" class="st4" d="M1140.9,2482.4h-4.8v3.1h5.7v2.4h-8.8V2475h8.8v2.4h-5.7v2.7h4.8V2482.4z M1142.5,2483
		c-0.1-1.3,0.3-2.5,1-3.5c0.6-0.8,1.7-1.3,2.7-1.3c0.9,0,1.8,0.4,2.3,1.2l0.2-1h2.6v13.2h-3v-4.4c-0.5,0.6-1.3,1-2.2,1
		c-1.1,0-2.1-0.5-2.7-1.3C1142.8,2485.6,1142.4,2484.3,1142.5,2483L1142.5,2483z M1145.5,2483.2c0,1.7,0.5,2.6,1.5,2.6
		c0.6,0.1,1.1-0.3,1.4-0.8v-3.8c-0.3-0.5-0.8-0.8-1.4-0.8c-0.9,0-1.4,0.7-1.5,2.2L1145.5,2483.2z M1158.7,2486.8
		c-0.6,0.8-1.5,1.2-2.5,1.2c-0.9,0.1-1.8-0.3-2.4-0.9c-0.6-0.7-0.9-1.7-0.8-2.6v-6.2h3v6.2c-0.1,0.6,0.3,1.1,0.9,1.2
		c0.1,0,0.2,0,0.3,0c0.6,0.1,1.1-0.2,1.4-0.7v-6.7h3v9.5h-2.8L1158.7,2486.8z M1166.3,2487.8h-3v-9.5h3V2487.8z M1163.1,2475.9
		c0-0.4,0.2-0.8,0.5-1c0.3-0.3,0.8-0.4,1.2-0.4c0.4,0,0.9,0.1,1.2,0.4c0.3,0.3,0.5,0.6,0.5,1c0,0.4-0.2,0.8-0.5,1
		c-0.3,0.3-0.8,0.4-1.2,0.4c-0.4,0-0.9-0.1-1.2-0.4C1163.3,2476.6,1163.1,2476.3,1163.1,2475.9z M1176.9,2483.1
		c0.1,1.3-0.3,2.5-1,3.5c-0.6,0.9-1.6,1.4-2.7,1.3c-0.8,0-1.6-0.3-2.2-1v4.4h-3v-13.2h2.8l0.1,0.9c0.5-0.7,1.4-1.1,2.2-1.1
		c1.1,0,2.1,0.4,2.7,1.3c0.7,1.1,1,2.3,1,3.6L1176.9,2483.1z M1174,2483c0-1.7-0.5-2.5-1.5-2.5c-0.6-0.1-1.1,0.2-1.4,0.8v3.7
		c0.3,0.5,0.8,0.8,1.4,0.8c0.9,0,1.4-0.8,1.5-2.4V2483z M1177.9,2483c0-0.9,0.2-1.7,0.6-2.5c0.3-0.7,0.9-1.3,1.6-1.7
		c0.7-0.4,1.6-0.6,2.4-0.6c1.3-0.1,2.5,0.4,3.4,1.3c0.9,1,1.3,2.3,1.2,3.6v0.1c0.1,1.3-0.4,2.6-1.2,3.5c-0.9,0.9-2.1,1.4-3.3,1.3
		c-1.2,0.1-2.4-0.4-3.3-1.2c-0.9-0.9-1.3-2.1-1.3-3.3L1177.9,2483z M1180.8,2483.2c0,0.7,0.1,1.3,0.4,1.9c0.3,0.4,0.7,0.6,1.2,0.6
		c1.1,0,1.6-0.8,1.6-2.4v-0.3c0-1.7-0.5-2.6-1.6-2.6c-1,0-1.5,0.7-1.6,2.2L1180.8,2483.2z"/>
	<path id="Trazado_128839" class="st5" d="M731.8,2511.2v260.3"/>
	<path id="Trazado_128840" class="st6" d="M619,2511.2v260.3"/>
	<path id="Trazado_128847" class="st6" d="M435.8,2511.2v260.3"/>
	<path id="Trazado_128821" class="st5" d="M1207,2511.2H393.5"/>
	<path id="Trazado_128822" class="st5" d="M1206.8,2562.8H393.5"/>
	<path id="Trazado_128823" class="st5" d="M1206.8,2665.8H393.5"/>
	<path id="Trazado_128824" class="st5" d="M1206.8,2611.5H393.5"/>
	<path id="Trazado_128825" class="st5" d="M1206.5,2719.2h-813"/>
	<path id="Trazado_128826" class="st5" d="M858.8,2511.2v260.3"/>
	<path id="Trazado_128827" class="st5" d="M994.8,2511.2v261"/>
	<path id="Trazado_128828" class="st5" d="M1102.8,2511.2v261"/>
	<path id="Trazado_128841" class="st4" d="M633.8,2476.3v-12.8h4.1c1.1,0,2.1,0.2,3.1,0.8c0.9,0.5,1.6,1.3,2.1,2.2
		c0.5,1,0.8,2,0.8,3.1v0.6c0,1.1-0.2,2.2-0.7,3.2c-0.5,0.9-1.2,1.7-2.1,2.2c-0.9,0.5-2,0.8-3,0.8H633.8z M636.9,2465.9v8h1.1
		c0.8,0,1.6-0.3,2-0.9c0.5-0.8,0.8-1.8,0.7-2.8v-0.6c0.1-1-0.2-2-0.7-2.8c-0.5-0.6-1.3-1-2.1-0.9H636.9z M651,2475.3
		c-0.6,0.8-1.5,1.2-2.5,1.2c-0.9,0.1-1.8-0.3-2.4-0.9c-0.6-0.7-0.9-1.7-0.8-2.6v-6.2h3v6.2c-0.1,0.6,0.3,1.1,0.9,1.2
		c0.1,0,0.2,0,0.3,0c0.6,0.1,1.1-0.2,1.5-0.7v-6.7h3v9.5h-2.8L651,2475.3z M660.1,2476.5c-1.3,0.1-2.6-0.4-3.5-1.3
		c-0.9-0.9-1.4-2.1-1.4-3.4v-0.2c0-0.9,0.2-1.8,0.5-2.6c0.3-0.7,0.9-1.3,1.6-1.7c0.8-0.4,1.6-0.6,2.5-0.6c1.2-0.1,2.3,0.4,3.2,1.2
		c0.8,1,1.2,2.2,1.2,3.5v1.2h-5.9c0.1,0.5,0.3,0.9,0.7,1.3c0.4,0.3,0.9,0.5,1.4,0.5c0.8,0,1.7-0.3,2.2-1l1.4,1.6
		c-0.4,0.5-0.9,1-1.6,1.2C661.6,2476.3,660.8,2476.5,660.1,2476.5L660.1,2476.5z M659.8,2468.9c-0.9,0-1.4,0.6-1.5,1.7h3v-0.2
		c0-0.4-0.1-0.8-0.4-1.1C660.6,2469,660.2,2468.9,659.8,2468.9z M668,2466.8l0.1,1.1c0.6-0.9,1.7-1.3,2.7-1.3
		c0.8-0.1,1.7,0.3,2.2,0.9c0.5,0.8,0.8,1.7,0.8,2.7v6.1h-3v-6c0-0.4-0.1-0.8-0.3-1.1c-0.3-0.3-0.7-0.4-1.1-0.3c-0.5,0-1,0.2-1.3,0.7
		v6.7h-3v-9.5H668z M672.9,2462.9c0,0.6-0.2,1.2-0.6,1.7c-0.3,0.4-0.9,0.7-1.4,0.7c-0.5,0-0.9-0.1-1.3-0.4c-0.4-0.2-0.7-0.3-1.2-0.4
		c-0.2,0-0.4,0.1-0.5,0.2c-0.1,0.2-0.2,0.4-0.2,0.6l-1.6-0.1c0-0.6,0.2-1.2,0.6-1.7c0.3-0.5,0.9-0.7,1.4-0.7c0.4,0,0.8,0.1,1.2,0.3
		c0.3,0.1,0.6,0.3,0.9,0.4c0.1,0,0.3,0,0.4,0c0.2,0,0.4-0.1,0.5-0.2c0.1-0.2,0.2-0.4,0.2-0.6L672.9,2462.9z M675.1,2471.5
		c0-0.9,0.2-1.7,0.6-2.5c0.3-0.7,0.9-1.3,1.6-1.7c0.7-0.4,1.6-0.6,2.4-0.6c1.3-0.1,2.5,0.4,3.4,1.3c0.9,1,1.3,2.3,1.2,3.6v0.1
		c0.1,1.3-0.4,2.6-1.2,3.5c-0.9,0.9-2.1,1.4-3.3,1.3c-1.2,0.1-2.4-0.4-3.3-1.2c-0.9-0.9-1.3-2.1-1.3-3.3L675.1,2471.5z M678,2471.7
		c0,0.7,0.1,1.3,0.4,1.9c0.3,0.4,0.7,0.6,1.2,0.6c1.1,0,1.6-0.8,1.6-2.4v-0.3c0-1.7-0.5-2.6-1.6-2.6c-1,0-1.5,0.7-1.6,2.2
		L678,2471.7z M689.7,2471.5c-0.1-1.3,0.3-2.5,1-3.6c0.6-0.9,1.7-1.3,2.7-1.3c0.8,0,1.6,0.4,2.1,1v-4.8h3v13.5h-2.7l-0.1-1
		c-0.5,0.8-1.4,1.2-2.3,1.2c-1.1,0-2.1-0.4-2.7-1.3C689.9,2474.1,689.6,2472.8,689.7,2471.5L689.7,2471.5z M692.6,2471.7
		c0,1.7,0.5,2.5,1.5,2.5c0.6,0,1.1-0.3,1.4-0.8v-3.6c-0.2-0.5-0.8-0.9-1.4-0.8c-0.9,0-1.4,0.7-1.5,2.2L692.6,2471.7z M704.8,2476.5
		c-1.3,0.1-2.6-0.4-3.5-1.3c-0.9-0.9-1.4-2.1-1.4-3.4v-0.2c0-0.9,0.2-1.8,0.5-2.6c0.3-0.7,0.9-1.3,1.6-1.7c0.8-0.4,1.6-0.6,2.5-0.6
		c1.2-0.1,2.3,0.4,3.2,1.2c0.8,1,1.2,2.2,1.2,3.5v1.2h-5.9c0.1,0.5,0.3,0.9,0.7,1.3c0.4,0.3,0.9,0.5,1.4,0.5c0.8,0,1.7-0.3,2.2-1
		l1.4,1.6c-0.4,0.5-0.9,1-1.6,1.2C706.3,2476.4,705.5,2476.5,704.8,2476.5L704.8,2476.5z M704.4,2468.9c-0.9,0-1.4,0.6-1.5,1.7h3
		v-0.2c0-0.4-0.1-0.8-0.4-1.1C705.2,2469,704.8,2468.9,704.4,2468.9z M644.5,2492.6c0.1,1.3-0.3,2.5-1,3.5c-0.6,0.9-1.6,1.4-2.7,1.3
		c-0.8,0-1.6-0.3-2.2-1v4.4h-3v-13.2h2.8l0.1,0.9c0.5-0.7,1.4-1.1,2.2-1.1c1.1,0,2.1,0.4,2.7,1.3c0.7,1.1,1,2.3,1,3.6L644.5,2492.6z
		 M641.5,2492.5c0-1.7-0.5-2.5-1.5-2.5c-0.6-0.1-1.1,0.2-1.4,0.8v3.7c0.3,0.5,0.8,0.8,1.4,0.8c0.9,0,1.4-0.8,1.5-2.4V2492.5z
		 M651.5,2490.5l-1-0.1c-0.7-0.1-1.4,0.2-1.8,0.9v6h-3v-9.5h2.8l0.1,1.2c0.4-0.8,1.2-1.4,2.1-1.4c0.3,0,0.6,0,0.8,0.1L651.5,2490.5z
		 M651.9,2492.5c0-0.9,0.2-1.7,0.6-2.5c0.3-0.7,0.9-1.3,1.6-1.7c0.7-0.4,1.6-0.6,2.4-0.6c1.3-0.1,2.5,0.4,3.4,1.3
		c0.9,1,1.3,2.3,1.2,3.6v0.1c0.1,1.3-0.4,2.6-1.2,3.5c-0.9,0.9-2.1,1.4-3.3,1.3c-1.2,0.1-2.4-0.4-3.3-1.2c-0.9-0.9-1.3-2.1-1.3-3.3
		L651.9,2492.5z M654.9,2492.7c0,0.7,0.1,1.3,0.4,1.9c0.3,0.4,0.7,0.6,1.2,0.6c1.1,0,1.6-0.8,1.6-2.4v-0.3c0-1.7-0.5-2.6-1.6-2.6
		c-1,0-1.5,0.7-1.6,2.2L654.9,2492.7z M662,2492.5c-0.1-1.3,0.3-2.5,1-3.6c0.6-0.9,1.7-1.3,2.7-1.3c0.8,0,1.6,0.4,2.1,1v-4.8h3v13.5
		h-2.7l-0.1-1c-0.5,0.8-1.4,1.2-2.3,1.2c-1.1,0-2.1-0.5-2.7-1.3C662.3,2495.1,661.9,2493.8,662,2492.5z M665,2492.7
		c0,1.7,0.5,2.5,1.5,2.5c0.6,0,1.1-0.3,1.4-0.8v-3.6c-0.2-0.5-0.8-0.9-1.4-0.8c-0.9,0-1.4,0.7-1.5,2.2L665,2492.7z M678.2,2496.3
		c-0.6,0.8-1.5,1.2-2.5,1.2c-0.9,0.1-1.8-0.3-2.4-0.9c-0.6-0.7-0.9-1.7-0.8-2.6v-6.2h3v6.2c-0.1,0.6,0.3,1.1,0.9,1.2
		c0.1,0,0.2,0,0.3,0c0.6,0.1,1.1-0.2,1.5-0.7v-6.7h3v9.5h-2.8L678.2,2496.3z M686.7,2495.2c0.4,0,0.7-0.1,1-0.3
		c0.2-0.3,0.4-0.6,0.3-0.9h2.8c0,1-0.4,1.9-1.1,2.6c-0.8,0.7-1.8,1-2.9,1c-1.2,0.1-2.4-0.4-3.3-1.3c-0.8-1-1.3-2.3-1.2-3.6v-0.1
		c0-0.9,0.2-1.7,0.5-2.5c0.3-0.7,0.9-1.3,1.5-1.7c0.7-0.4,1.5-0.6,2.4-0.6c1.1-0.1,2.1,0.3,2.9,1c0.7,0.7,1.1,1.7,1.1,2.8H688
		c0-0.4-0.1-0.8-0.4-1.1c-0.2-0.3-0.6-0.4-1-0.4c-0.8,0-1.2,0.5-1.3,1.5c0,0.4-0.1,0.9-0.1,1.3c-0.1,0.7,0.1,1.4,0.3,2
		C685.8,2495,686.2,2495.2,686.7,2495.2L686.7,2495.2z M695.5,2485.5v2.4h1.6v2.1h-1.6v4.4c0,0.3,0,0.5,0.2,0.7
		c0.2,0.2,0.5,0.2,0.8,0.2c0.2,0,0.5,0,0.7-0.1v2.1c-0.5,0.2-1.1,0.3-1.7,0.3c-0.8,0.1-1.6-0.2-2.3-0.7c-0.5-0.6-0.8-1.4-0.7-2.2
		v-4.7h-1.2v-2.1h1.2v-2.4H695.5z M697.5,2492.5c0-0.9,0.2-1.7,0.6-2.5c0.3-0.7,0.9-1.3,1.6-1.7c0.7-0.4,1.6-0.6,2.4-0.6
		c1.3-0.1,2.5,0.4,3.4,1.3c0.9,1,1.3,2.3,1.2,3.6v0.1c0.1,1.3-0.4,2.6-1.2,3.5c-0.9,0.9-2.1,1.4-3.3,1.3c-1.2,0.1-2.4-0.4-3.3-1.2
		c-0.9-0.9-1.3-2.1-1.3-3.3L697.5,2492.5z M700.5,2492.7c0,0.7,0.1,1.3,0.4,1.9c0.3,0.4,0.7,0.6,1.2,0.6c1.1,0,1.6-0.8,1.6-2.4v-0.3
		c0-1.7-0.5-2.6-1.6-2.6c-1,0-1.5,0.7-1.6,2.2L700.5,2492.7z"/>
	<path id="Trazado_128842" class="st4" d="M432.4,2547.7h-3.1v-12.8h3.1V2547.7z M437.2,2538.1l0.1,1.1c0.6-0.9,1.7-1.3,2.7-1.3
		c0.8-0.1,1.7,0.3,2.2,0.9c0.5,0.8,0.8,1.7,0.8,2.7v6.1h-3v-6c0-0.4-0.1-0.8-0.3-1.1c-0.3-0.3-0.7-0.4-1.1-0.3c-0.5,0-1,0.2-1.3,0.7
		v6.7h-3v-9.5H437.2z M448.4,2544.1l1.5-6h3.1l-3.1,9.5h-3l-3.1-9.5h3.1L448.4,2544.1z M458.5,2547.8c-1.3,0.1-2.6-0.4-3.5-1.3
		c-0.9-0.9-1.4-2.1-1.4-3.4v-0.2c0-0.9,0.2-1.8,0.5-2.6c0.3-0.7,0.9-1.3,1.6-1.7c0.8-0.4,1.6-0.6,2.5-0.6c1.2-0.1,2.3,0.4,3.2,1.2
		c0.8,1,1.2,2.2,1.2,3.5v1.2h-5.9c0.1,0.5,0.3,0.9,0.7,1.3c0.4,0.3,0.9,0.5,1.4,0.5c0.8,0,1.7-0.3,2.2-1l1.4,1.6
		c-0.4,0.5-0.9,1-1.6,1.2C460,2547.7,459.2,2547.8,458.5,2547.8L458.5,2547.8z M458.2,2540.3c-0.9,0-1.4,0.6-1.5,1.7h3v-0.2
		c0-0.4-0.1-0.8-0.4-1.1C458.9,2540.4,458.6,2540.2,458.2,2540.3z M468.7,2545c0-0.3-0.2-0.5-0.4-0.6c-0.5-0.2-1-0.4-1.5-0.5
		c-0.6-0.1-1.3-0.3-1.8-0.6c-0.4-0.2-0.8-0.6-1.1-1c-0.3-0.4-0.4-0.8-0.4-1.3c0-0.9,0.4-1.7,1.1-2.2c0.8-0.6,1.8-0.9,2.8-0.8
		c1.1-0.1,2.1,0.2,3,0.9c0.7,0.5,1.2,1.4,1.1,2.2h-3c0-0.8-0.4-1.1-1.2-1.1c-0.3,0-0.6,0.1-0.8,0.3c-0.2,0.2-0.3,0.4-0.3,0.6
		c0,0.3,0.2,0.5,0.4,0.6c0.4,0.2,0.8,0.3,1.2,0.4c0.5,0.1,1,0.2,1.5,0.4c1.3,0.3,2.1,1.4,2.1,2.6c0,0.9-0.4,1.7-1.2,2.1
		c-0.9,0.6-1.9,0.9-3,0.8c-0.7,0-1.5-0.1-2.2-0.4c-0.6-0.3-1.1-0.7-1.5-1.2c-0.3-0.5-0.5-1-0.5-1.6h2.8c0,0.4,0.1,0.7,0.4,1
		c0.3,0.2,0.7,0.3,1.1,0.3c0.3,0,0.6-0.1,0.9-0.2C468.6,2545.5,468.7,2545.2,468.7,2545L468.7,2545z M476.4,2535.8v2.4h1.6v2.1h-1.6
		v4.4c0,0.3,0,0.5,0.2,0.7c0.2,0.2,0.5,0.2,0.8,0.2c0.2,0,0.5,0,0.7-0.1v2.1c-0.5,0.2-1.1,0.3-1.7,0.3c-0.8,0.1-1.6-0.2-2.3-0.7
		c-0.5-0.6-0.8-1.4-0.7-2.2v-4.7h-1.2v-2.1h1.2v-2.4L476.4,2535.8z M482.2,2547.7h-3v-9.5h3V2547.7z M479.1,2535.7
		c0-0.4,0.2-0.8,0.5-1c0.7-0.5,1.7-0.5,2.4,0c0.3,0.3,0.5,0.6,0.5,1c0,0.4-0.2,0.8-0.5,1c-0.7,0.5-1.7,0.5-2.4,0
		C479.2,2536.5,479.1,2536.1,479.1,2535.7z M483.7,2542.8c0-0.9,0.1-1.7,0.5-2.5c0.3-0.7,0.8-1.3,1.4-1.7c0.6-0.4,1.3-0.6,2.1-0.6
		c0.9,0,1.7,0.3,2.3,1l0.1-0.8h2.7v9.1c0,0.8-0.2,1.5-0.6,2.2c-0.4,0.6-1,1.1-1.7,1.4c-0.8,0.3-1.7,0.5-2.6,0.5
		c-0.7,0-1.4-0.1-2-0.4c-0.6-0.2-1.1-0.6-1.5-1l1.2-1.7c0.5,0.6,1.3,1,2.2,1c1,0.1,1.9-0.6,2-1.5c0-0.2,0-0.3,0-0.5v-0.3
		c-0.5,0.6-1.3,1-2.2,0.9c-1.1,0-2.1-0.5-2.8-1.3c-0.8-1-1.1-2.3-1.1-3.6V2542.8z M486.7,2543c0,0.6,0.1,1.3,0.4,1.8
		c0.3,0.4,0.7,0.7,1.2,0.7c0.5,0,1.1-0.2,1.4-0.6v-4c-0.3-0.4-0.8-0.7-1.4-0.6c-0.5,0-1,0.3-1.2,0.7
		C486.8,2541.6,486.6,2542.3,486.7,2543L486.7,2543z M499.7,2547.7c-0.1-0.3-0.2-0.6-0.3-0.9c-0.6,0.7-1.4,1.1-2.3,1
		c-0.8,0-1.7-0.3-2.3-0.8c-0.6-0.5-1-1.3-0.9-2c-0.1-0.9,0.4-1.8,1.1-2.3c1-0.6,2.2-0.9,3.3-0.8h0.9v-0.5c0-0.9-0.4-1.3-1.1-1.3
		c-0.5-0.1-1,0.3-1.1,0.8c0,0.1,0,0.2,0,0.3h-3c0-0.9,0.4-1.7,1.2-2.2c0.9-0.6,1.9-0.9,3-0.9c1-0.1,2.1,0.3,2.9,0.9
		c0.7,0.6,1.1,1.5,1.1,2.4v4.2c0,0.7,0.1,1.4,0.4,2v0.1H499.7z M497.9,2545.7c0.3,0,0.6-0.1,0.9-0.2c0.2-0.1,0.4-0.3,0.5-0.5v-1.5
		h-0.9c-1,0-1.5,0.5-1.5,1.4c0,0.2,0.1,0.5,0.3,0.7C497.4,2545.6,497.6,2545.7,497.9,2545.7z M508,2545.5c0.4,0,0.7-0.1,1-0.3
		c0.2-0.3,0.4-0.6,0.3-0.9h2.8c0,1-0.4,1.9-1.1,2.6c-0.8,0.7-1.8,1-2.9,1c-1.2,0.1-2.4-0.4-3.3-1.3c-0.8-1-1.3-2.3-1.2-3.6v-0.1
		c0-0.9,0.2-1.7,0.5-2.5c0.3-0.7,0.9-1.3,1.5-1.7c0.7-0.4,1.5-0.6,2.4-0.6c1.1-0.1,2.1,0.3,2.9,1c0.7,0.7,1.1,1.7,1.1,2.8h-2.8
		c0-0.4-0.1-0.8-0.4-1.1c-0.2-0.3-0.6-0.4-1-0.4c-0.8,0-1.2,0.5-1.3,1.5c0,0.4-0.1,0.9-0.1,1.3c-0.1,0.7,0.1,1.4,0.3,2
		C507.1,2545.4,507.5,2545.6,508,2545.5L508,2545.5z M516.4,2547.7h-3v-9.5h3V2547.7z M513.3,2535.7c0-0.4,0.2-0.8,0.5-1
		c0.7-0.5,1.7-0.5,2.4,0c0.3,0.3,0.5,0.6,0.5,1c0,0.4-0.2,0.8-0.5,1c-0.7,0.5-1.7,0.5-2.4,0C513.4,2536.5,513.3,2536.1,513.3,2535.7
		z M517.9,2542.8c0-0.9,0.2-1.7,0.6-2.5c0.3-0.7,0.9-1.3,1.6-1.7c0.7-0.4,1.6-0.6,2.4-0.6c1.3-0.1,2.5,0.4,3.4,1.3
		c0.9,1,1.3,2.3,1.2,3.6v0.1c0.1,1.3-0.4,2.6-1.2,3.5c-0.9,0.9-2.1,1.4-3.3,1.3c-1.2,0.1-2.4-0.4-3.3-1.2c-0.9-0.9-1.3-2.1-1.3-3.3
		L517.9,2542.8z M520.8,2543c0,0.7,0.1,1.3,0.4,1.9c0.3,0.4,0.7,0.6,1.2,0.6c1.1,0,1.6-0.8,1.6-2.4v-0.3c0-1.7-0.5-2.6-1.6-2.6
		c-1,0-1.5,0.7-1.6,2.2L520.8,2543z M522.9,2534.2h3.1l-2.4,2.8h-2.4L522.9,2534.2z M531.1,2538.1l0.1,1.1c0.6-0.9,1.7-1.3,2.7-1.3
		c0.8-0.1,1.7,0.3,2.2,0.9c0.5,0.8,0.8,1.7,0.8,2.7v6.1h-3v-6c0-0.4-0.1-0.8-0.3-1.1c-0.3-0.3-0.7-0.4-1.1-0.3c-0.5,0-1,0.2-1.3,0.7
		v6.7h-3v-9.5H531.1z M546.8,2543.5l1.6-5.4h3.2l-3.9,11.1l-0.2,0.4c-0.5,1.2-1.6,1.9-2.9,1.8c-0.4,0-0.8-0.1-1.2-0.2v-2.1h0.4
		c0.3,0,0.7,0,1-0.2c0.2-0.1,0.4-0.4,0.5-0.6l0.2-0.6l-3.3-9.6h3.2L546.8,2543.5z M556.4,2542.8c-0.1-1.3,0.3-2.5,1-3.6
		c0.6-0.9,1.7-1.3,2.7-1.3c0.8,0,1.6,0.4,2.1,1v-4.8h3v13.5h-2.7l-0.1-1c-0.5,0.8-1.4,1.2-2.3,1.2c-1.1,0-2.1-0.5-2.7-1.3
		C556.7,2545.4,556.3,2544.1,556.4,2542.8L556.4,2542.8z M559.4,2543c0,1.7,0.5,2.5,1.5,2.5c0.6,0,1.1-0.3,1.4-0.8v-3.6
		c-0.2-0.5-0.8-0.9-1.4-0.8c-0.9,0-1.4,0.7-1.5,2.2L559.4,2543z M570,2547.7h-3v-9.5h3V2547.7z M566.9,2535.7c0-0.4,0.2-0.8,0.5-1
		c0.7-0.5,1.7-0.5,2.4,0c0.3,0.3,0.5,0.6,0.5,1c0,0.4-0.2,0.8-0.5,1c-0.7,0.5-1.7,0.5-2.4,0C567,2536.5,566.9,2536.1,566.9,2535.7z
		 M576.8,2545c0-0.3-0.2-0.5-0.4-0.6c-0.5-0.2-1-0.4-1.5-0.5c-0.6-0.1-1.3-0.3-1.8-0.6c-0.4-0.2-0.8-0.6-1.1-1
		c-0.3-0.4-0.4-0.8-0.4-1.3c0-0.9,0.4-1.7,1.1-2.2c0.8-0.6,1.8-0.9,2.8-0.8c1.1-0.1,2.1,0.2,3,0.9c0.7,0.5,1.2,1.4,1.1,2.2h-3
		c0-0.8-0.4-1.1-1.2-1.1c-0.3,0-0.6,0.1-0.8,0.3c-0.2,0.2-0.3,0.4-0.3,0.6c0,0.3,0.2,0.5,0.4,0.6c0.4,0.2,0.8,0.3,1.2,0.4
		c0.5,0.1,1,0.2,1.5,0.4c1.3,0.3,2.1,1.4,2.1,2.6c0,0.9-0.4,1.7-1.2,2.1c-0.9,0.6-1.9,0.9-3,0.8c-0.7,0-1.5-0.1-2.2-0.4
		c-0.6-0.3-1.1-0.7-1.5-1.2c-0.3-0.5-0.5-1-0.5-1.6h2.8c0,0.4,0.1,0.7,0.4,1c0.3,0.2,0.7,0.3,1.1,0.3c0.3,0,0.6-0.1,0.9-0.2
		C576.7,2545.5,576.8,2545.2,576.8,2545z M585.7,2547.8c-1.3,0.1-2.6-0.4-3.5-1.3c-0.9-0.9-1.4-2.1-1.4-3.4v-0.2
		c0-0.9,0.2-1.8,0.5-2.6c0.3-0.7,0.9-1.3,1.6-1.7c0.8-0.4,1.6-0.6,2.5-0.6c1.2-0.1,2.3,0.4,3.2,1.2c0.8,1,1.2,2.2,1.2,3.5v1.2h-5.9
		c0.1,0.5,0.3,0.9,0.7,1.3c0.4,0.3,0.9,0.5,1.4,0.5c0.8,0,1.7-0.3,2.2-1l1.4,1.6c-0.4,0.5-0.9,1-1.6,1.2
		C587.2,2547.7,586.4,2547.8,585.7,2547.8z M585.3,2540.3c-0.9,0-1.4,0.6-1.5,1.7h3v-0.2c0-0.4-0.1-0.8-0.4-1.1
		C586.1,2540.4,585.7,2540.2,585.3,2540.3z M593.6,2538.1l0.1,1.1c0.6-0.9,1.7-1.3,2.7-1.3c0.8-0.1,1.7,0.3,2.2,0.9
		c0.5,0.8,0.8,1.7,0.8,2.7v6.1h-3v-6c0-0.4-0.1-0.8-0.3-1.1c-0.3-0.3-0.7-0.4-1.1-0.3c-0.5,0-1,0.2-1.3,0.7v6.7h-3v-9.5
		L593.6,2538.1z M598.5,2534.2c0,0.6-0.2,1.2-0.6,1.7c-0.3,0.4-0.9,0.7-1.4,0.7c-0.5,0-0.9-0.1-1.3-0.4c-0.4-0.2-0.7-0.3-1.2-0.4
		c-0.2,0-0.4,0.1-0.5,0.2c-0.1,0.2-0.2,0.4-0.2,0.6l-1.6-0.1c0-0.6,0.2-1.2,0.6-1.7c0.3-0.5,0.9-0.7,1.4-0.7c0.4,0,0.8,0.1,1.2,0.3
		c0.3,0.1,0.6,0.3,0.9,0.4c0.1,0,0.3,0,0.4,0c0.2,0,0.4-0.1,0.5-0.2c0.1-0.2,0.2-0.4,0.2-0.6L598.5,2534.2z M600.7,2542.8
		c0-0.9,0.2-1.7,0.6-2.5c0.3-0.7,0.9-1.3,1.6-1.7c0.7-0.4,1.6-0.6,2.4-0.6c1.3-0.1,2.5,0.4,3.4,1.3c0.9,1,1.3,2.3,1.2,3.6v0.1
		c0.1,1.3-0.4,2.6-1.2,3.5c-0.9,0.9-2.1,1.4-3.3,1.3c-1.2,0.1-2.4-0.4-3.3-1.2c-0.9-0.9-1.3-2.1-1.3-3.3L600.7,2542.8z M603.6,2543
		c0,0.7,0.1,1.3,0.4,1.9c0.3,0.4,0.7,0.6,1.2,0.6c1.1,0,1.6-0.8,1.6-2.4v-0.3c0-1.7-0.5-2.6-1.6-2.6c-1,0-1.5,0.7-1.6,2.2
		L603.6,2543z"/>
	<path id="Trazado_128843" class="st4" d="M428.1,2642.2v4.3H425v-12.8h5.1c0.9,0,1.8,0.2,2.6,0.5c0.7,0.3,1.3,0.9,1.7,1.5
		c0.4,0.7,0.6,1.5,0.6,2.3c0,1.2-0.5,2.3-1.3,3c-1.1,0.8-2.4,1.2-3.7,1.1L428.1,2642.2z M428.1,2639.8h2c0.5,0,1-0.1,1.4-0.4
		c0.3-0.3,0.5-0.8,0.5-1.3c0-0.5-0.1-1-0.5-1.4c-0.3-0.4-0.8-0.6-1.3-0.5h-2.1V2639.8z M442.3,2639.7l-1-0.1
		c-0.7-0.1-1.4,0.2-1.8,0.9v6h-3v-9.5h2.8l0.1,1.2c0.4-0.8,1.2-1.4,2.1-1.4c0.3,0,0.6,0,0.8,0.1L442.3,2639.7z M449,2645.5
		c-0.6,0.8-1.5,1.2-2.5,1.2c-0.9,0.1-1.8-0.3-2.4-0.9c-0.6-0.7-0.9-1.7-0.8-2.6v-6.2h3v6.2c-0.1,0.6,0.3,1.1,0.9,1.2
		c0.1,0,0.2,0,0.3,0c0.6,0.1,1.1-0.2,1.4-0.7v-6.7h3v9.5h-2.8L449,2645.5z M458.1,2646.7c-1.3,0.1-2.6-0.4-3.5-1.3
		c-0.9-0.9-1.4-2.1-1.4-3.4v-0.2c0-0.9,0.2-1.8,0.5-2.6c0.3-0.7,0.9-1.3,1.6-1.7c0.7-0.4,1.6-0.6,2.5-0.6c1.2-0.1,2.3,0.4,3.2,1.2
		c0.8,1,1.2,2.2,1.2,3.5v1.2h-5.9c0.1,0.5,0.3,0.9,0.7,1.3c0.4,0.3,0.9,0.5,1.4,0.5c0.8,0,1.7-0.3,2.2-1l1.4,1.6
		c-0.4,0.5-1,1-1.6,1.2C459.6,2646.5,458.9,2646.7,458.1,2646.7L458.1,2646.7z M457.8,2639.1c-0.9,0-1.4,0.6-1.5,1.7h3v-0.2
		c0-0.4-0.1-0.8-0.4-1.1C458.6,2639.2,458.2,2639.1,457.8,2639.1z M472.1,2641.8c0.1,1.3-0.3,2.5-1,3.6c-0.6,0.8-1.7,1.3-2.7,1.3
		c-0.9,0-1.8-0.4-2.3-1.2l-0.1,1h-2.7V2633h3v4.8c0.5-0.6,1.3-1,2.1-0.9c1.1-0.1,2.1,0.4,2.7,1.3c0.7,1.1,1,2.3,1,3.6L472.1,2641.8z
		 M469.2,2641.6c0.1-0.7-0.1-1.3-0.4-2c-0.2-0.4-0.7-0.6-1.1-0.6c-0.6-0.1-1.1,0.2-1.4,0.8v3.8c0.3,0.5,0.8,0.8,1.4,0.8
		c0.6,0,1.2-0.4,1.3-1C469.1,2642.8,469.2,2642.2,469.2,2641.6L469.2,2641.6z M478.8,2646.5c-0.1-0.3-0.2-0.6-0.3-0.9
		c-0.6,0.7-1.4,1.1-2.3,1c-0.8,0-1.7-0.3-2.3-0.8c-0.6-0.5-1-1.3-0.9-2c-0.1-0.9,0.4-1.8,1.1-2.3c1-0.6,2.2-0.9,3.3-0.8h0.9v-0.5
		c0-0.9-0.4-1.3-1.1-1.3c-0.5-0.1-1,0.3-1.1,0.8c0,0.1,0,0.2,0,0.3h-3c0-0.9,0.4-1.7,1.2-2.2c0.9-0.6,1.9-0.9,3-0.9
		c1-0.1,2.1,0.3,2.9,0.9c0.7,0.6,1.1,1.5,1.1,2.4v4.2c0,0.7,0.1,1.4,0.4,2v0.1H478.8z M477,2644.6c0.3,0,0.6-0.1,0.9-0.2
		c0.2-0.1,0.4-0.3,0.5-0.5v-1.5h-0.9c-1,0-1.5,0.5-1.5,1.4c0,0.2,0.1,0.5,0.3,0.7C476.4,2644.5,476.7,2644.6,477,2644.6L477,2644.6z
		 M487.1,2641.7c-0.1-1.3,0.3-2.5,1-3.6c0.6-0.9,1.7-1.3,2.7-1.3c0.8,0,1.6,0.4,2.1,1v-4.8h3v13.5h-2.7l-0.1-1
		c-0.5,0.8-1.4,1.2-2.3,1.2c-1.1,0-2.1-0.4-2.7-1.3C487.4,2644.3,487,2643,487.1,2641.7L487.1,2641.7z M490.1,2641.9
		c0,1.7,0.5,2.5,1.5,2.5c0.6,0,1.1-0.3,1.4-0.8v-3.6c-0.2-0.5-0.8-0.9-1.4-0.8c-0.9,0-1.4,0.7-1.5,2.2L490.1,2641.9z M502.2,2646.7
		c-1.3,0.1-2.6-0.4-3.5-1.3c-0.9-0.9-1.4-2.1-1.4-3.4v-0.2c0-0.9,0.2-1.8,0.5-2.6c0.3-0.7,0.9-1.3,1.6-1.7c0.8-0.4,1.6-0.6,2.5-0.6
		c1.2-0.1,2.3,0.4,3.2,1.2c0.8,1,1.2,2.2,1.2,3.5v1.2h-5.9c0.1,0.5,0.3,0.9,0.7,1.3c0.4,0.3,0.9,0.5,1.4,0.5c0.8,0,1.7-0.3,2.2-1
		l1.4,1.6c-0.4,0.5-0.9,1-1.6,1.2C503.7,2646.5,503,2646.7,502.2,2646.7L502.2,2646.7z M501.9,2639.1c-0.9,0-1.4,0.6-1.5,1.7h3v-0.2
		c0-0.4-0.1-0.8-0.4-1.1C502.7,2639.2,502.3,2639.1,501.9,2639.1z M520.7,2641.8c0.1,1.3-0.3,2.5-1,3.5c-0.6,0.9-1.6,1.4-2.7,1.3
		c-0.8,0-1.6-0.3-2.2-1v4.4h-3V2637h2.8l0.1,0.9c0.5-0.7,1.4-1.1,2.2-1.1c1.1,0,2.1,0.4,2.7,1.3c0.7,1.1,1,2.3,1,3.6L520.7,2641.8z
		 M517.8,2641.6c0-1.7-0.5-2.5-1.5-2.5c-0.6-0.1-1.1,0.2-1.4,0.8v3.7c0.3,0.5,0.8,0.8,1.4,0.8c0.9,0,1.4-0.8,1.5-2.4V2641.6z
		 M527.8,2639.7l-1-0.1c-0.7-0.1-1.4,0.2-1.8,0.9v6h-3v-9.5h2.8l0.1,1.2c0.4-0.8,1.2-1.4,2.1-1.4c0.3,0,0.6,0,0.8,0.1L527.8,2639.7z
		 M528.2,2641.7c0-0.9,0.2-1.7,0.6-2.5c0.3-0.7,0.9-1.3,1.6-1.7c0.7-0.4,1.6-0.6,2.4-0.6c1.3-0.1,2.5,0.4,3.4,1.3
		c0.9,1,1.3,2.3,1.2,3.6v0.1c0.1,1.3-0.4,2.6-1.2,3.5c-0.9,0.9-2.1,1.4-3.3,1.3c-1.2,0.1-2.4-0.4-3.3-1.2c-0.9-0.9-1.3-2.1-1.3-3.3
		L528.2,2641.7z M531.1,2641.8c0,0.7,0.1,1.3,0.4,1.9c0.3,0.4,0.7,0.6,1.2,0.6c1.1,0,1.6-0.8,1.6-2.4v-0.3c0-1.7-0.5-2.6-1.6-2.6
		c-1,0-1.5,0.7-1.6,2.2L531.1,2641.8z M538.3,2641.7c-0.1-1.3,0.3-2.5,1-3.6c0.6-0.9,1.7-1.3,2.7-1.3c0.8,0,1.6,0.4,2.1,1v-4.8h3
		v13.5h-2.7l-0.1-1c-0.5,0.8-1.4,1.2-2.3,1.2c-1.1,0-2.1-0.4-2.7-1.3C538.5,2644.3,538.2,2643,538.3,2641.7L538.3,2641.7z
		 M541.2,2641.9c0,1.7,0.5,2.5,1.5,2.5c0.6,0,1.1-0.3,1.4-0.8v-3.6c-0.2-0.5-0.8-0.9-1.4-0.8c-0.9,0-1.4,0.7-1.5,2.2L541.2,2641.9z
		 M554.4,2645.5c-0.6,0.8-1.5,1.2-2.5,1.2c-0.9,0.1-1.8-0.3-2.4-0.9c-0.6-0.7-0.9-1.7-0.8-2.6v-6.2h3v6.2c-0.1,0.6,0.3,1.1,0.9,1.2
		c0.1,0,0.2,0,0.3,0c0.6,0.1,1.1-0.2,1.5-0.7v-6.7h3v9.5h-2.8L554.4,2645.5z M562.9,2644.4c0.4,0,0.7-0.1,1-0.3
		c0.2-0.3,0.4-0.6,0.3-0.9h2.8c0,1-0.4,1.9-1.1,2.6c-0.8,0.7-1.8,1-2.9,1c-1.2,0.1-2.4-0.4-3.3-1.3c-0.8-1-1.3-2.3-1.2-3.6v-0.1
		c0-0.9,0.2-1.7,0.5-2.5c0.3-0.7,0.9-1.3,1.5-1.7c0.7-0.4,1.5-0.6,2.4-0.6c1.1-0.1,2.1,0.3,2.9,1c0.7,0.7,1.1,1.7,1.1,2.8h-2.8
		c0-0.4-0.1-0.8-0.4-1.1c-0.2-0.3-0.6-0.4-1-0.4c-0.8,0-1.2,0.5-1.3,1.5c0,0.4-0.1,0.9-0.1,1.3c-0.1,0.7,0.1,1.4,0.3,2
		C562.1,2644.2,562.5,2644.4,562.9,2644.4L562.9,2644.4z M571.7,2634.6v2.4h1.6v2.1h-1.6v4.4c0,0.3,0,0.5,0.2,0.7
		c0.2,0.2,0.5,0.2,0.8,0.2c0.2,0,0.5,0,0.7-0.1v2.1c-0.5,0.2-1.1,0.3-1.7,0.3c-0.8,0.1-1.6-0.2-2.3-0.7c-0.5-0.6-0.8-1.4-0.7-2.2
		v-4.7h-1.2v-2.1h1.2v-2.4H571.7z M573.8,2641.7c0-0.9,0.2-1.7,0.6-2.5c0.3-0.7,0.9-1.3,1.6-1.7c0.7-0.4,1.6-0.6,2.4-0.6
		c1.3-0.1,2.5,0.4,3.4,1.3c0.9,1,1.3,2.3,1.2,3.6v0.1c0.1,1.3-0.4,2.6-1.2,3.5c-0.9,0.9-2.1,1.4-3.3,1.3c-1.2,0.1-2.4-0.4-3.3-1.2
		c-0.9-0.9-1.3-2.1-1.3-3.3L573.8,2641.7z M576.8,2641.8c0,0.7,0.1,1.3,0.4,1.9c0.3,0.4,0.7,0.6,1.2,0.6c1.1,0,1.6-0.8,1.6-2.4v-0.3
		c0-1.7-0.5-2.6-1.6-2.6c-1,0-1.5,0.7-1.6,2.2L576.8,2641.8z"/>
	<path id="Trazado_128844" class="st4" d="M429.7,2695.3h-1.7v4.5H425V2687h5c1.3-0.1,2.5,0.3,3.6,1c0.9,0.7,1.3,1.8,1.3,2.9
		c0,0.8-0.2,1.5-0.5,2.2c-0.4,0.6-1,1.1-1.7,1.4l2.7,5.2v0.1H432L429.7,2695.3z M428.1,2692.9h1.9c0.5,0,1-0.1,1.3-0.5
		c0.3-0.4,0.5-0.8,0.4-1.3c0-0.5-0.1-0.9-0.4-1.3c-0.4-0.3-0.8-0.5-1.3-0.5h-1.9V2692.9z M441.2,2700c-1.3,0.1-2.6-0.4-3.5-1.3
		c-0.9-0.9-1.4-2.1-1.4-3.4v-0.2c0-0.9,0.2-1.8,0.5-2.6c0.3-0.7,0.9-1.3,1.6-1.7c0.8-0.4,1.6-0.6,2.5-0.6c1.2-0.1,2.3,0.4,3.2,1.2
		c0.8,1,1.2,2.2,1.2,3.5v1.2h-5.9c0.1,0.5,0.3,0.9,0.7,1.3c0.4,0.3,0.9,0.5,1.4,0.5c0.8,0,1.7-0.3,2.2-1l1.4,1.6
		c-0.4,0.5-0.9,1-1.6,1.2C442.7,2699.9,441.9,2700,441.2,2700L441.2,2700z M440.8,2692.4c-0.9,0-1.4,0.6-1.5,1.7h3v-0.2
		c0-0.4-0.1-0.8-0.4-1.1C441.6,2692.5,441.2,2692.4,440.8,2692.4z M450.4,2697.7c0.4,0,0.7-0.1,1-0.3c0.2-0.3,0.4-0.6,0.3-0.9h2.8
		c0,1-0.4,1.9-1.1,2.6c-0.8,0.7-1.8,1-2.9,1c-1.2,0.1-2.4-0.4-3.3-1.3c-0.8-1-1.3-2.3-1.2-3.6v-0.1c0-0.9,0.2-1.7,0.5-2.5
		c0.3-0.7,0.9-1.3,1.5-1.7c0.7-0.4,1.5-0.6,2.4-0.6c1.1-0.1,2.1,0.3,2.9,1c0.7,0.7,1.1,1.7,1.1,2.8h-2.8c0-0.4-0.1-0.8-0.4-1.1
		c-0.2-0.3-0.6-0.4-1-0.4c-0.8,0-1.2,0.5-1.3,1.5c0,0.4-0.1,0.9-0.1,1.3c-0.1,0.7,0.1,1.4,0.3,2
		C449.5,2697.5,450,2697.7,450.4,2697.7z M455.4,2695c0-0.9,0.2-1.7,0.6-2.5c0.3-0.7,0.9-1.3,1.6-1.7c0.7-0.4,1.6-0.6,2.4-0.6
		c1.3-0.1,2.5,0.4,3.4,1.3c0.9,1,1.3,2.3,1.2,3.6v0.1c0.1,1.3-0.4,2.6-1.2,3.5c-0.9,0.9-2.1,1.4-3.3,1.3c-1.2,0.1-2.4-0.4-3.3-1.2
		c-0.9-0.9-1.3-2.1-1.3-3.3L455.4,2695z M458.3,2695.2c0,0.7,0.1,1.3,0.4,1.9c0.3,0.4,0.7,0.6,1.2,0.6c1.1,0,1.6-0.8,1.6-2.4v-0.3
		c0-1.7-0.5-2.6-1.6-2.6c-1,0-1.5,0.7-1.6,2.2L458.3,2695.2z M468.6,2690.3l0.1,1.1c0.6-0.8,1.7-1.3,2.7-1.3c1-0.1,2,0.5,2.4,1.4
		c0.6-0.9,1.7-1.5,2.8-1.4c1.9,0,2.9,1.2,3,3.5v6.2h-3v-6c0-0.4-0.1-0.7-0.2-1.1c-0.2-0.3-0.6-0.4-0.9-0.3c-0.6,0-1.1,0.3-1.3,0.8
		l0,0.1v6.5h-3v-6c0-0.4-0.1-0.8-0.2-1.1c-0.2-0.3-0.6-0.4-0.9-0.3c-0.5,0-1.1,0.3-1.3,0.8v6.6h-3v-9.5H468.6z M485.9,2700
		c-1.3,0.1-2.6-0.4-3.5-1.3c-0.9-0.9-1.4-2.1-1.4-3.4v-0.2c0-0.9,0.2-1.8,0.5-2.6c0.3-0.7,0.9-1.3,1.6-1.7c0.8-0.4,1.6-0.6,2.5-0.6
		c1.2-0.1,2.3,0.4,3.2,1.2c0.8,1,1.2,2.2,1.2,3.5v1.2h-5.9c0.1,0.5,0.3,0.9,0.7,1.3c0.4,0.3,0.9,0.5,1.4,0.5c0.8,0,1.7-0.3,2.2-1
		l1.4,1.6c-0.4,0.5-0.9,1-1.6,1.2C487.4,2699.9,486.7,2700,485.9,2700z M485.6,2692.4c-0.9,0-1.4,0.6-1.5,1.7h3v-0.2
		c0-0.4-0.1-0.8-0.4-1.1C486.4,2692.5,486,2692.4,485.6,2692.4z M493.9,2690.3l0.1,1.1c0.6-0.9,1.7-1.3,2.7-1.3
		c0.8-0.1,1.7,0.3,2.2,0.9c0.5,0.8,0.8,1.7,0.8,2.7v6.1h-3v-6c0-0.4-0.1-0.8-0.3-1.1c-0.3-0.3-0.7-0.4-1.1-0.3c-0.5,0-1,0.2-1.3,0.7
		v6.7h-3v-9.5H493.9z M500.9,2695c-0.1-1.3,0.3-2.5,1-3.6c0.6-0.9,1.7-1.3,2.7-1.3c0.8,0,1.6,0.4,2.1,1v-4.8h3v13.5h-2.7l-0.1-1
		c-0.5,0.8-1.4,1.2-2.3,1.2c-1.1,0-2.1-0.4-2.7-1.3C501.2,2697.6,500.8,2696.3,500.9,2695z M503.9,2695.2c0,1.7,0.5,2.5,1.5,2.5
		c0.6,0,1.1-0.3,1.4-0.8v-3.6c-0.2-0.5-0.8-0.9-1.4-0.8c-0.9,0-1.4,0.7-1.5,2.2L503.9,2695.2z M516.8,2699.8
		c-0.1-0.3-0.2-0.6-0.3-0.9c-0.6,0.7-1.4,1.1-2.3,1c-0.8,0-1.7-0.3-2.3-0.8c-0.6-0.5-1-1.3-0.9-2c-0.1-0.9,0.4-1.8,1.1-2.3
		c1-0.6,2.2-0.9,3.3-0.8h0.9v-0.5c0-0.9-0.4-1.3-1.1-1.3c-0.5-0.1-1,0.3-1.1,0.8c0,0.1,0,0.2,0,0.3h-3c0-0.9,0.4-1.7,1.2-2.2
		c0.9-0.6,1.9-0.9,3-0.9c1-0.1,2.1,0.3,2.9,0.9c0.7,0.6,1.1,1.5,1.1,2.4v4.2c0,0.7,0.1,1.4,0.4,2v0.1H516.8z M514.9,2697.9
		c0.3,0,0.6-0.1,0.9-0.2c0.2-0.1,0.4-0.3,0.5-0.5v-1.5h-0.9c-1,0-1.5,0.5-1.5,1.4c0,0.2,0.1,0.5,0.3,0.7
		C514.4,2697.8,514.7,2697.9,514.9,2697.9L514.9,2697.9z M525,2697.7c0.4,0,0.7-0.1,1-0.3c0.2-0.3,0.4-0.6,0.3-0.9h2.8
		c0,1-0.4,1.9-1.1,2.6c-0.8,0.7-1.8,1-2.9,1c-1.2,0.1-2.4-0.4-3.3-1.3c-0.8-1-1.3-2.3-1.2-3.6v-0.1c0-0.9,0.2-1.7,0.5-2.5
		c0.3-0.7,0.9-1.3,1.5-1.7c0.7-0.4,1.5-0.6,2.4-0.6c1.1-0.1,2.1,0.3,2.9,1c0.7,0.7,1.1,1.7,1.1,2.8h-2.8c0-0.4-0.1-0.8-0.4-1.1
		c-0.2-0.3-0.6-0.4-1-0.4c-0.8,0-1.2,0.5-1.3,1.5c0,0.4-0.1,0.9-0.1,1.3c-0.1,0.7,0.1,1.4,0.3,2
		C524.1,2697.5,524.5,2697.7,525,2697.7L525,2697.7z M533.4,2699.8h-3v-9.5h3V2699.8z M530.3,2687.9c0-0.4,0.2-0.8,0.5-1
		c0.7-0.5,1.7-0.5,2.4,0c0.3,0.3,0.5,0.6,0.5,1c0,0.4-0.2,0.8-0.5,1c-0.7,0.5-1.7,0.5-2.4,0C530.5,2688.6,530.3,2688.3,530.3,2687.9
		z M534.9,2695c0-0.9,0.2-1.7,0.6-2.5c0.3-0.7,0.9-1.3,1.6-1.7c0.7-0.4,1.6-0.6,2.4-0.6c1.3-0.1,2.5,0.4,3.4,1.3
		c0.9,1,1.3,2.3,1.2,3.6v0.1c0.1,1.3-0.4,2.6-1.2,3.5c-0.9,0.9-2.1,1.4-3.3,1.3c-1.2,0.1-2.4-0.4-3.3-1.2c-0.9-0.9-1.3-2.1-1.3-3.3
		L534.9,2695z M537.9,2695.2c0,0.7,0.1,1.3,0.4,1.9c0.3,0.4,0.7,0.6,1.2,0.6c1.1,0,1.6-0.8,1.6-2.4v-0.3c0-1.7-0.5-2.6-1.6-2.6
		c-1,0-1.5,0.7-1.6,2.2L537.9,2695.2z M548.1,2690.3l0.1,1.1c0.6-0.9,1.7-1.3,2.7-1.3c0.8-0.1,1.7,0.3,2.2,0.9
		c0.5,0.8,0.8,1.7,0.8,2.7v6.1h-3v-6c0-0.4-0.1-0.8-0.3-1.1c-0.3-0.3-0.7-0.4-1.1-0.3c-0.5,0-1,0.2-1.3,0.7v6.7h-3v-9.5H548.1z
		 M560.1,2700c-1.3,0.1-2.6-0.4-3.5-1.3c-0.9-0.9-1.4-2.1-1.4-3.4v-0.2c0-0.9,0.2-1.8,0.5-2.6c0.3-0.7,0.9-1.3,1.6-1.7
		c0.8-0.4,1.6-0.6,2.5-0.6c1.2-0.1,2.3,0.4,3.2,1.2c0.8,1,1.2,2.2,1.2,3.5v1.2h-5.9c0.1,0.5,0.3,0.9,0.7,1.3
		c0.4,0.3,0.9,0.5,1.4,0.5c0.8,0,1.7-0.3,2.2-1l1.4,1.6c-0.4,0.5-0.9,1-1.6,1.2C561.6,2699.9,560.9,2700,560.1,2700z M559.8,2692.4
		c-0.9,0-1.4,0.6-1.5,1.7h3v-0.2c0-0.4-0.1-0.8-0.4-1.1C560.6,2692.5,560.2,2692.4,559.8,2692.4z M570.3,2697.2
		c0-0.3-0.2-0.5-0.4-0.6c-0.5-0.2-1-0.4-1.5-0.5c-0.6-0.1-1.3-0.3-1.8-0.6c-0.4-0.2-0.8-0.6-1.1-1c-0.3-0.4-0.4-0.8-0.4-1.3
		c0-0.9,0.4-1.7,1.1-2.2c0.8-0.6,1.8-0.9,2.8-0.8c1.1-0.1,2.1,0.2,3,0.9c0.7,0.5,1.2,1.4,1.1,2.2h-3c0-0.8-0.4-1.1-1.2-1.1
		c-0.3,0-0.6,0.1-0.8,0.3c-0.2,0.2-0.3,0.4-0.3,0.6c0,0.3,0.2,0.5,0.4,0.6c0.4,0.2,0.8,0.3,1.2,0.4c0.5,0.1,1,0.2,1.5,0.4
		c1.3,0.3,2.1,1.4,2.1,2.6c0,0.9-0.4,1.7-1.2,2.1c-0.9,0.6-1.9,0.9-3,0.8c-0.7,0-1.5-0.1-2.2-0.4c-0.6-0.3-1.1-0.7-1.5-1.2
		c-0.3-0.5-0.5-1-0.5-1.6h2.8c0,0.4,0.1,0.7,0.4,1c0.3,0.2,0.7,0.3,1.1,0.3c0.3,0,0.6-0.1,0.9-0.2
		C570.2,2697.6,570.3,2697.4,570.3,2697.2z"/>
	<path id="Trazado_128845" class="st4" d="M428.1,2752.1v4.3H425v-12.8h5.1c0.9,0,1.8,0.2,2.6,0.5c0.7,0.3,1.3,0.9,1.7,1.5
		c0.4,0.7,0.6,1.5,0.6,2.3c0,1.2-0.5,2.3-1.3,3c-1.1,0.8-2.4,1.2-3.7,1.1L428.1,2752.1z M428.1,2749.8h2c0.5,0,1-0.1,1.4-0.4
		c0.3-0.3,0.5-0.8,0.5-1.3c0-0.5-0.1-1-0.5-1.4c-0.3-0.4-0.8-0.6-1.3-0.5h-2.1V2749.8z M442.3,2749.6l-1-0.1
		c-0.7-0.1-1.4,0.2-1.8,0.9v6h-3v-9.5h2.8l0.1,1.2c0.4-0.8,1.2-1.4,2.1-1.4c0.3,0,0.6,0,0.8,0.1L442.3,2749.6z M442.7,2751.6
		c0-0.9,0.2-1.7,0.6-2.5c0.3-0.7,0.9-1.3,1.6-1.7c0.7-0.4,1.6-0.6,2.4-0.6c1.3-0.1,2.5,0.4,3.4,1.3c0.9,1,1.3,2.3,1.2,3.6v0.1
		c0.1,1.3-0.4,2.6-1.2,3.5c-0.9,0.9-2.1,1.4-3.3,1.3c-1.2,0.1-2.4-0.4-3.3-1.2c-0.9-0.9-1.3-2.1-1.3-3.3L442.7,2751.6z
		 M445.6,2751.8c0,0.7,0.1,1.3,0.4,1.9c0.3,0.4,0.7,0.6,1.2,0.6c1.1,0,1.6-0.8,1.6-2.4v-0.3c0-1.7-0.5-2.6-1.6-2.6
		c-1,0-1.5,0.7-1.6,2.2L445.6,2751.8z M457.2,2754.4c0.4,0,0.7-0.1,1-0.3c0.2-0.3,0.4-0.6,0.3-0.9h2.8c0,1-0.4,1.9-1.1,2.6
		c-0.8,0.7-1.8,1-2.9,1c-1.2,0.1-2.4-0.4-3.3-1.3c-0.8-1-1.3-2.3-1.2-3.6v-0.1c0-0.9,0.2-1.7,0.5-2.5c0.3-0.7,0.9-1.3,1.5-1.7
		c0.7-0.4,1.5-0.6,2.4-0.6c1.1-0.1,2.1,0.3,2.9,1c0.7,0.7,1.1,1.7,1.1,2.8h-2.8c0-0.4-0.1-0.8-0.4-1.1c-0.2-0.3-0.6-0.4-1-0.4
		c-0.8,0-1.2,0.5-1.3,1.5c0,0.4-0.1,0.9-0.1,1.3c-0.1,0.7,0.1,1.4,0.3,2C456.3,2754.2,456.7,2754.4,457.2,2754.4L457.2,2754.4z
		 M467.1,2756.7c-1.3,0.1-2.6-0.4-3.5-1.3c-0.9-0.9-1.4-2.1-1.4-3.4v-0.2c0-0.9,0.2-1.8,0.5-2.6c0.3-0.7,0.9-1.3,1.6-1.7
		c0.8-0.4,1.6-0.6,2.5-0.6c1.2-0.1,2.3,0.4,3.2,1.2c0.8,1,1.2,2.2,1.2,3.5v1.2h-5.9c0.1,0.5,0.3,0.9,0.7,1.3
		c0.4,0.3,0.9,0.5,1.4,0.5c0.8,0,1.7-0.3,2.2-1l1.4,1.6c-0.4,0.5-0.9,1-1.6,1.2C468.6,2756.5,467.9,2756.7,467.1,2756.7
		L467.1,2756.7z M466.8,2749.1c-0.9,0-1.4,0.6-1.5,1.7h3v-0.2c0-0.4-0.1-0.8-0.4-1.1C467.6,2749.2,467.2,2749.1,466.8,2749.1z
		 M477.3,2753.8c0-0.3-0.2-0.5-0.4-0.6c-0.5-0.2-1-0.4-1.5-0.5c-0.6-0.1-1.3-0.3-1.8-0.6c-0.4-0.2-0.8-0.6-1.1-1
		c-0.3-0.4-0.4-0.8-0.4-1.3c0-0.9,0.4-1.7,1.1-2.2c0.8-0.6,1.8-0.9,2.8-0.8c1.1-0.1,2.1,0.2,3,0.9c0.7,0.5,1.2,1.4,1.1,2.2h-3
		c0-0.8-0.4-1.1-1.2-1.1c-0.3,0-0.6,0.1-0.8,0.3c-0.2,0.2-0.3,0.4-0.3,0.6c0,0.3,0.2,0.5,0.4,0.6c0.4,0.2,0.8,0.3,1.2,0.4
		c0.5,0.1,1,0.2,1.5,0.4c1.3,0.3,2.1,1.4,2.1,2.6c0,0.9-0.4,1.7-1.2,2.1c-0.9,0.6-1.9,0.9-3,0.8c-0.7,0-1.5-0.1-2.2-0.4
		c-0.6-0.3-1.1-0.7-1.5-1.2c-0.3-0.5-0.5-1-0.5-1.6h2.8c0,0.4,0.1,0.7,0.4,1c0.3,0.2,0.7,0.3,1.1,0.3c0.3,0,0.6-0.1,0.9-0.2
		C477.2,2754.3,477.3,2754.1,477.3,2753.8L477.3,2753.8z M481.2,2751.6c0-0.9,0.2-1.7,0.6-2.5c0.3-0.7,0.9-1.3,1.6-1.7
		c0.7-0.4,1.6-0.6,2.4-0.6c1.3-0.1,2.5,0.4,3.4,1.3c0.9,1,1.3,2.3,1.2,3.6v0.1c0.1,1.3-0.4,2.6-1.2,3.5c-0.9,0.9-2.1,1.4-3.3,1.3
		c-1.2,0.1-2.4-0.4-3.3-1.2c-0.9-0.9-1.3-2.1-1.3-3.3L481.2,2751.6z M484.1,2751.8c0,0.7,0.1,1.3,0.4,1.9c0.3,0.4,0.7,0.6,1.2,0.6
		c1.1,0,1.6-0.8,1.6-2.4v-0.3c0-1.7-0.5-2.6-1.6-2.6c-1,0-1.5,0.7-1.6,2.2L484.1,2751.8z M495.7,2751.7c-0.1-1.3,0.3-2.5,1-3.6
		c0.6-0.9,1.7-1.3,2.7-1.3c0.8,0,1.6,0.4,2.1,1v-4.8h3v13.5h-2.7l-0.1-1c-0.5,0.8-1.4,1.2-2.3,1.2c-1.1,0-2.1-0.4-2.7-1.3
		C496,2754.3,495.7,2753,495.7,2751.7L495.7,2751.7z M498.7,2751.8c0,1.7,0.5,2.5,1.5,2.5c0.6,0,1.1-0.3,1.4-0.8v-3.6
		c-0.2-0.5-0.8-0.9-1.4-0.8c-0.9,0-1.4,0.7-1.5,2.2L498.7,2751.8z M510.8,2756.7c-1.3,0.1-2.6-0.4-3.5-1.3c-0.9-0.9-1.4-2.1-1.4-3.4
		v-0.2c0-0.9,0.2-1.8,0.5-2.6c0.3-0.7,0.9-1.3,1.6-1.7c0.8-0.4,1.6-0.6,2.5-0.6c1.2-0.1,2.3,0.4,3.2,1.2c0.8,1,1.2,2.2,1.2,3.5v1.2
		H509c0.1,0.5,0.3,0.9,0.7,1.3c0.4,0.3,0.9,0.5,1.4,0.5c0.8,0,1.7-0.3,2.2-1l1.4,1.6c-0.4,0.5-0.9,1-1.6,1.2
		C512.3,2756.5,511.6,2756.7,510.8,2756.7L510.8,2756.7z M510.5,2749.1c-0.9,0-1.4,0.6-1.5,1.7h3v-0.2c0-0.4-0.1-0.8-0.4-1.1
		C511.3,2749.2,510.9,2749.1,510.5,2749.1z M525.1,2756.7c-1.3,0.1-2.6-0.4-3.5-1.3c-0.9-0.9-1.4-2.1-1.4-3.4v-0.2
		c0-0.9,0.2-1.8,0.5-2.6c0.3-0.7,0.9-1.3,1.6-1.7c0.8-0.4,1.6-0.6,2.5-0.6c1.2-0.1,2.3,0.4,3.2,1.2c0.8,1,1.2,2.2,1.2,3.5v1.2h-5.9
		c0.1,0.5,0.3,0.9,0.7,1.3c0.4,0.3,0.9,0.5,1.4,0.5c0.8,0,1.7-0.3,2.2-1l1.4,1.6c-0.4,0.5-0.9,1-1.6,1.2
		C526.6,2756.5,525.9,2756.7,525.1,2756.7z M524.8,2749.1c-0.9,0-1.4,0.6-1.5,1.7h3v-0.2c0-0.4-0.1-0.8-0.4-1.1
		C525.6,2749.2,525.2,2749.1,524.8,2749.1z M533,2747l0.1,1.1c0.6-0.9,1.7-1.3,2.7-1.3c0.8-0.1,1.7,0.3,2.2,0.9
		c0.5,0.8,0.8,1.7,0.8,2.7v6.1h-3v-6c0-0.4-0.1-0.8-0.3-1.1c-0.3-0.3-0.7-0.4-1.1-0.3c-0.5,0-1,0.2-1.3,0.7v6.7h-3v-9.5L533,2747z
		 M543.9,2744.6v2.4h1.6v2.1h-1.6v4.4c0,0.3,0,0.5,0.2,0.7c0.2,0.2,0.5,0.2,0.8,0.2c0.2,0,0.5,0,0.7-0.1v2.1
		c-0.5,0.2-1.1,0.3-1.7,0.3c-0.8,0.1-1.6-0.2-2.3-0.7c-0.5-0.6-0.8-1.4-0.7-2.2v-4.7h-1.2v-2.1h1.2v-2.4L543.9,2744.6z
		 M552.4,2749.7l-1-0.1c-0.7-0.1-1.4,0.2-1.8,0.9v6h-3v-9.5h2.8l0.1,1.2c0.4-0.8,1.2-1.4,2.1-1.4c0.3,0,0.6,0,0.8,0.1L552.4,2749.7z
		 M558.1,2756.7c-1.3,0.1-2.6-0.4-3.5-1.3c-0.9-0.9-1.4-2.1-1.4-3.4v-0.2c0-0.9,0.2-1.8,0.5-2.6c0.3-0.7,0.9-1.3,1.6-1.7
		c0.8-0.4,1.6-0.6,2.5-0.6c1.2-0.1,2.3,0.4,3.2,1.2c0.8,1,1.2,2.2,1.2,3.5v1.2h-5.9c0.1,0.5,0.3,0.9,0.7,1.3
		c0.4,0.3,0.9,0.5,1.4,0.5c0.8,0,1.7-0.3,2.2-1l1.4,1.6c-0.4,0.5-0.9,1-1.6,1.2C559.6,2756.5,558.8,2756.7,558.1,2756.7
		L558.1,2756.7z M557.7,2749.1c-0.9,0-1.4,0.6-1.5,1.7h3v-0.2c0-0.4-0.1-0.8-0.4-1.1C558.5,2749.2,558.1,2749.1,557.7,2749.1
		L557.7,2749.1z M562.9,2751.6c0-0.9,0.1-1.7,0.5-2.5c0.3-0.7,0.8-1.3,1.4-1.7c0.6-0.4,1.3-0.6,2.1-0.6c0.9,0,1.7,0.3,2.3,1l0.1-0.8
		h2.7v9.2c0,0.8-0.2,1.5-0.6,2.2c-0.4,0.6-1,1.1-1.7,1.4c-0.8,0.3-1.7,0.5-2.6,0.5c-0.7,0-1.4-0.1-2-0.4c-0.6-0.2-1.1-0.6-1.5-1
		l1.2-1.7c0.5,0.6,1.3,1,2.2,1c1,0.1,1.9-0.6,2-1.5c0-0.2,0-0.3,0-0.5v-0.3c-0.5,0.6-1.3,1-2.2,0.9c-1.1,0-2.1-0.5-2.8-1.3
		c-0.8-1-1.1-2.3-1.1-3.6L562.9,2751.6z M565.9,2751.8c0,0.6,0.1,1.3,0.4,1.8c0.3,0.4,0.7,0.7,1.2,0.7c0.5,0,1.1-0.2,1.4-0.6v-4
		c-0.3-0.4-0.8-0.7-1.4-0.7c-0.5,0-1,0.3-1.2,0.7C566,2750.4,565.9,2751.1,565.9,2751.8L565.9,2751.8z M579,2756.5
		c-0.1-0.3-0.2-0.6-0.3-0.9c-0.6,0.7-1.4,1.1-2.3,1c-0.8,0-1.7-0.3-2.3-0.8c-0.6-0.5-1-1.3-0.9-2c-0.1-0.9,0.4-1.8,1.1-2.3
		c1-0.6,2.2-0.9,3.3-0.8h0.9v-0.5c0-0.9-0.4-1.3-1.1-1.3c-0.5-0.1-1,0.3-1.1,0.8c0,0.1,0,0.2,0,0.3h-3c0-0.9,0.4-1.7,1.2-2.2
		c0.9-0.6,1.9-0.9,3-0.9c1-0.1,2.1,0.3,2.9,0.9c0.7,0.6,1.1,1.5,1.1,2.4v4.2c0,0.7,0.1,1.4,0.4,2v0.1H579z M577.1,2754.5
		c0.3,0,0.6-0.1,0.9-0.2c0.2-0.1,0.4-0.3,0.5-0.5v-1.5h-0.9c-1,0-1.5,0.5-1.5,1.4c0,0.2,0.1,0.5,0.3,0.7
		C576.6,2754.5,576.9,2754.6,577.1,2754.5L577.1,2754.5z"/>
	<path id="Trazado_128846" class="st4" d="M425,2597.8V2585h4.1c1.1,0,2.1,0.2,3.1,0.8c0.9,0.5,1.6,1.3,2.1,2.2c0.5,1,0.8,2,0.8,3.1
		v0.6c0,1.1-0.2,2.2-0.7,3.2c-0.5,0.9-1.2,1.7-2.1,2.2c-0.9,0.5-2,0.8-3,0.8H425z M428.1,2587.4v8h1.1c0.8,0,1.6-0.3,2-0.9
		c0.5-0.8,0.8-1.8,0.7-2.8v-0.6c0.1-1-0.2-2-0.7-2.8c-0.5-0.6-1.3-1-2.1-0.9H428.1z M441.1,2598c-1.3,0.1-2.6-0.4-3.5-1.3
		c-0.9-0.9-1.4-2.1-1.4-3.4v-0.2c0-0.9,0.2-1.8,0.5-2.6c0.3-0.7,0.9-1.3,1.6-1.7c0.8-0.4,1.6-0.6,2.5-0.6c1.2-0.1,2.3,0.4,3.2,1.2
		c0.8,1,1.2,2.2,1.2,3.5v1.2h-5.9c0.1,0.5,0.3,0.9,0.7,1.3c0.4,0.3,0.9,0.5,1.4,0.5c0.8,0,1.7-0.3,2.2-1l1.4,1.6
		c-0.4,0.5-0.9,1-1.6,1.2C442.6,2597.9,441.8,2598,441.1,2598z M440.7,2590.4c-0.9,0-1.4,0.6-1.5,1.7h3v-0.2c0-0.4-0.1-0.8-0.4-1.1
		C441.5,2590.5,441.1,2590.4,440.7,2590.4z M447,2597.8v-7.5h-1.4v-2.1h1.4v-0.3c-0.1-1.1,0.4-2.2,1.2-2.9c0.9-0.7,2.1-1,3.2-0.9
		c1,0,2.1,0.2,3.1,0.5l-0.4,2.3l-0.5-0.1c-0.7-0.2-1.3-0.3-2-0.3c-1.1,0-1.7,0.5-1.7,1.5v0.2h1.9v2.1h-1.9v7.5H447z M455.9,2597.8
		h-3v-9.5h3V2597.8z M460.4,2588.3l0.1,1.1c0.6-0.9,1.7-1.3,2.7-1.3c0.8-0.1,1.7,0.3,2.2,0.9c0.5,0.8,0.8,1.7,0.8,2.7v6.1h-3v-6
		c0-0.4-0.1-0.8-0.3-1.1c-0.3-0.3-0.7-0.4-1.1-0.3c-0.5,0-1,0.2-1.3,0.7v6.7h-3v-9.5H460.4z M471,2597.8h-3v-9.5h3L471,2597.8z
		 M467.8,2585.9c0-0.4,0.2-0.8,0.5-1c0.7-0.5,1.7-0.5,2.4,0c0.3,0.3,0.5,0.6,0.5,1c0,0.4-0.2,0.8-0.5,1c-0.7,0.5-1.7,0.5-2.4,0
		C468,2586.6,467.8,2586.3,467.8,2585.9z M476.8,2595.7c0.4,0,0.7-0.1,1-0.3c0.2-0.3,0.4-0.6,0.3-0.9h2.8c0,1-0.4,1.9-1.1,2.6
		c-0.8,0.7-1.8,1-2.9,1c-1.2,0.1-2.4-0.4-3.3-1.3c-0.8-1-1.3-2.3-1.2-3.6v-0.1c0-0.9,0.2-1.7,0.5-2.5c0.3-0.7,0.9-1.3,1.5-1.7
		c0.7-0.4,1.5-0.6,2.4-0.6c1.1-0.1,2.1,0.3,2.9,1c0.7,0.7,1.1,1.7,1.1,2.8h-2.8c0-0.4-0.1-0.8-0.4-1.1c-0.2-0.3-0.6-0.4-1-0.4
		c-0.8,0-1.2,0.5-1.3,1.5c0,0.4-0.1,0.9-0.1,1.3c-0.1,0.7,0.1,1.4,0.3,2C476,2595.5,476.4,2595.7,476.8,2595.7z M485.3,2597.8h-3
		v-9.5h3V2597.8z M482.1,2585.9c0-0.4,0.2-0.8,0.5-1c0.7-0.5,1.7-0.5,2.4,0c0.3,0.3,0.5,0.6,0.5,1c0,0.4-0.2,0.8-0.5,1
		c-0.7,0.5-1.7,0.5-2.4,0C482.3,2586.6,482.1,2586.3,482.1,2585.9z M486.7,2593c0-0.9,0.2-1.7,0.6-2.5c0.3-0.7,0.9-1.3,1.6-1.7
		c0.7-0.4,1.6-0.6,2.4-0.6c1.3-0.1,2.5,0.4,3.4,1.3c0.9,1,1.3,2.3,1.2,3.6v0.1c0.1,1.3-0.4,2.6-1.2,3.5c-0.9,0.9-2.1,1.4-3.3,1.3
		c-1.2,0.1-2.4-0.4-3.3-1.2c-0.9-0.9-1.3-2.1-1.3-3.3L486.7,2593z M489.7,2593.2c0,0.7,0.1,1.3,0.4,1.9c0.3,0.4,0.7,0.6,1.2,0.6
		c1.1,0,1.6-0.8,1.6-2.4v-0.3c0-1.7-0.5-2.6-1.6-2.6c-1,0-1.5,0.7-1.6,2.2L489.7,2593.2z M491.7,2584.3h3.1l-2.4,2.8H490
		L491.7,2584.3z M499.9,2588.3l0.1,1.1c0.6-0.9,1.7-1.3,2.7-1.3c0.8-0.1,1.7,0.3,2.2,0.9c0.5,0.8,0.8,1.7,0.8,2.7v6.1h-3v-6
		c0-0.4-0.1-0.8-0.3-1.1c-0.3-0.3-0.7-0.4-1.1-0.3c-0.5,0-1,0.2-1.3,0.7v6.7h-3v-9.5H499.9z"/>
	<path id="Trazado_128848" class="st4" d="M406.4,2590.3c0.1,1.2-0.2,2.5-0.8,3.5c-0.6,0.8-1.6,1.2-2.5,1.2c-1,0.1-1.9-0.4-2.5-1.1
		c-0.6-1-0.9-2.2-0.9-3.4v-1.8c-0.1-1.2,0.2-2.4,0.8-3.5c0.6-0.8,1.6-1.2,2.5-1.1c1-0.1,1.9,0.3,2.5,1.1c0.6,1,0.9,2.2,0.8,3.4
		L406.4,2590.3z M405,2588.4c0.1-0.9-0.1-1.7-0.5-2.5c-0.3-0.5-0.9-0.8-1.5-0.8c-0.6,0-1.2,0.3-1.5,0.8c-0.4,0.8-0.5,1.6-0.5,2.4
		v2.2c-0.1,0.9,0.1,1.8,0.5,2.6c0.3,0.5,0.9,0.9,1.5,0.8c0.6,0,1.2-0.3,1.5-0.8c0.4-0.8,0.6-1.6,0.5-2.4L405,2588.4z M415.1,2594.8
		h-7v-1l3.7-4.1c0.4-0.5,0.8-1,1.1-1.5c0.2-0.4,0.3-0.8,0.3-1.2c0-0.5-0.2-1-0.5-1.4c-0.4-0.4-0.8-0.6-1.3-0.5
		c-0.6,0-1.2,0.2-1.6,0.6c-0.4,0.4-0.6,1-0.6,1.6h-1.4c0-0.9,0.3-1.8,0.9-2.4c0.7-0.6,1.6-1,2.5-0.9c0.9,0,1.7,0.2,2.4,0.8
		c0.6,0.5,0.9,1.3,0.9,2.1c0,1.1-0.7,2.3-2,3.8l-2.9,3.1h5.4V2594.8z"/>
	<path id="Trazado_128849" class="st4" d="M406.4,2694.6c0.1,1.2-0.2,2.5-0.8,3.5c-0.6,0.8-1.6,1.2-2.5,1.2c-1,0.1-1.9-0.4-2.5-1.1
		c-0.6-1-0.9-2.2-0.9-3.4v-1.8c-0.1-1.2,0.2-2.4,0.8-3.5c0.6-0.8,1.6-1.2,2.5-1.1c1-0.1,1.9,0.3,2.5,1.1c0.6,1,0.9,2.2,0.8,3.4
		L406.4,2694.6z M405,2692.8c0.1-0.9-0.1-1.7-0.5-2.5c-0.3-0.5-0.9-0.8-1.5-0.8c-0.6,0-1.2,0.3-1.5,0.8c-0.4,0.8-0.5,1.6-0.5,2.4
		v2.2c-0.1,0.9,0.1,1.8,0.5,2.6c0.3,0.5,0.9,0.9,1.5,0.8c0.6,0,1.2-0.3,1.5-0.8c0.4-0.8,0.6-1.6,0.5-2.4L405,2692.8z M413.9,2695.6
		h1.5v1.1h-1.5v2.5h-1.4v-2.5h-4.9v-0.8l4.8-7.4h1.4V2695.6z M409.2,2695.6h3.3v-5.2l-0.2,0.3L409.2,2695.6z"/>
	<path id="Trazado_128850" class="st4" d="M406.4,2749.9c0.1,1.2-0.2,2.5-0.8,3.5c-0.6,0.8-1.6,1.2-2.5,1.2c-1,0.1-1.9-0.4-2.5-1.1
		c-0.6-1-0.9-2.2-0.9-3.4v-1.8c-0.1-1.2,0.2-2.4,0.8-3.5c0.6-0.8,1.6-1.2,2.5-1.1c1-0.1,1.9,0.3,2.5,1.1c0.6,1,0.9,2.2,0.8,3.4
		L406.4,2749.9z M405,2748.1c0.1-0.9-0.1-1.7-0.5-2.5c-0.3-0.5-0.9-0.8-1.5-0.8c-0.6,0-1.2,0.3-1.5,0.8c-0.4,0.8-0.5,1.6-0.5,2.4
		v2.2c-0.1,0.9,0.1,1.8,0.5,2.6c0.3,0.5,0.9,0.9,1.5,0.8c0.6,0,1.2-0.3,1.5-0.8c0.4-0.8,0.6-1.6,0.5-2.4L405,2748.1z M408.8,2749.1
		l0.5-5.3h5.5v1.2h-4.3l-0.3,2.9c0.5-0.3,1.2-0.5,1.8-0.5c0.9,0,1.7,0.3,2.3,1c0.6,0.7,0.9,1.7,0.9,2.6c0.1,0.9-0.3,1.9-0.9,2.6
		c-0.7,0.7-1.6,1-2.5,0.9c-0.8,0-1.7-0.2-2.3-0.8c-0.6-0.6-1-1.3-1-2.2h1.3c0,0.5,0.3,1,0.7,1.4c0.4,0.3,0.9,0.5,1.4,0.5
		c0.6,0,1.1-0.2,1.5-0.6c0.4-0.5,0.6-1.1,0.5-1.8c0-0.6-0.2-1.2-0.6-1.7c-0.4-0.4-1-0.7-1.5-0.6c-0.5,0-1,0.1-1.4,0.4l-0.4,0.3
		L408.8,2749.1z"/>
	<path id="Trazado_128851" class="st4" d="M406.4,2540c0.1,1.2-0.2,2.5-0.8,3.5c-0.6,0.8-1.6,1.2-2.5,1.2c-1,0.1-1.9-0.4-2.5-1.1
		c-0.6-1-0.9-2.2-0.9-3.4v-1.8c-0.1-1.2,0.2-2.4,0.8-3.5c0.6-0.8,1.6-1.2,2.5-1.1c1-0.1,1.9,0.3,2.5,1.1c0.6,1,0.9,2.2,0.8,3.4
		L406.4,2540z M405,2538.1c0.1-0.9-0.1-1.7-0.5-2.5c-0.3-0.5-0.9-0.8-1.5-0.8c-0.6,0-1.2,0.3-1.5,0.8c-0.4,0.8-0.5,1.6-0.5,2.4v2.2
		c-0.1,0.9,0.1,1.8,0.5,2.6c0.3,0.5,0.9,0.9,1.5,0.8c0.6,0,1.2-0.3,1.5-0.8c0.4-0.8,0.6-1.6,0.5-2.4L405,2538.1z M412.6,2544.5h-1.4
		v-9l-2.7,1v-1.2l3.9-1.5h0.2V2544.5z"/>
	<path id="Trazado_128852" class="st4" d="M406.4,2639c0.1,1.2-0.2,2.5-0.8,3.5c-0.6,0.8-1.6,1.2-2.5,1.2c-1,0.1-1.9-0.4-2.5-1.1
		c-0.6-1-0.9-2.2-0.9-3.4v-1.8c-0.1-1.2,0.2-2.4,0.8-3.5c0.6-0.8,1.6-1.2,2.5-1.1c1-0.1,1.9,0.3,2.5,1.1c0.6,1,0.9,2.2,0.8,3.4
		L406.4,2639z M405,2637.1c0.1-0.9-0.1-1.7-0.5-2.5c-0.3-0.5-0.9-0.8-1.5-0.8c-0.6,0-1.2,0.3-1.5,0.8c-0.4,0.8-0.5,1.6-0.5,2.4v2.2
		c-0.1,0.9,0.1,1.8,0.5,2.6c0.3,0.5,0.9,0.9,1.5,0.8c0.6,0,1.2-0.3,1.5-0.8c0.4-0.8,0.6-1.6,0.5-2.4L405,2637.1z M410.1,2637.5h1
		c0.5,0,1.1-0.2,1.5-0.5c0.4-0.3,0.6-0.8,0.5-1.3c0.1-0.9-0.5-1.7-1.4-1.9c-0.2,0-0.3,0-0.5,0c-0.5,0-1,0.2-1.4,0.5
		c-0.4,0.3-0.5,0.8-0.5,1.3H408c0-0.8,0.3-1.6,0.9-2.1c0.6-0.6,1.5-0.9,2.4-0.8c0.9,0,1.7,0.2,2.4,0.8c0.6,0.6,0.9,1.4,0.9,2.2
		c0,0.5-0.2,1-0.5,1.3c-0.3,0.4-0.7,0.8-1.2,1c0.5,0.2,1,0.5,1.4,0.9c0.3,0.5,0.5,1,0.5,1.6c0,0.9-0.3,1.7-0.9,2.3
		c-0.7,0.6-1.5,0.9-2.4,0.8c-0.9,0-1.8-0.2-2.4-0.8c-0.6-0.5-1-1.3-0.9-2.1h1.4c0,0.5,0.2,1,0.5,1.3c0.4,0.4,0.9,0.5,1.5,0.5
		c0.5,0,1.1-0.1,1.5-0.5c0.4-0.4,0.6-0.9,0.5-1.5c0-0.5-0.2-1.1-0.6-1.4c-0.5-0.4-1.1-0.5-1.6-0.5h-1V2637.5z"/>
</g>
</svg>
