<svg xmlns="http://www.w3.org/2000/svg" width="338.152" height="318.068" viewBox="0 0 338.152 318.068">
  <g id="Webinar-amico" transform="translate(-11.99 -41.627)">
    <g id="freepik--Floor--inject-21" transform="translate(11.99 158.532)" opacity="0.2">
      <ellipse id="freepik--floor--inject-21-2" data-name="freepik--floor--inject-21" cx="169.076" cy="100.582" rx="169.076" ry="100.582" transform="translate(0 0)" fill="#727997"/>
    </g>
    <g id="freepik--Shadows--inject-21" transform="translate(44.134 169.328)">
      <path id="freepik--shadow--inject-21" d="M144.02,400.194,60.5,352.045c-2.351-1.357-2.351-3.552,0-4.916l116.2-67.095a9.419,9.419,0,0,1,8.524,0l83.519,48.149c2.351,1.357,2.351,3.552,0,4.916l-116.2,67.095a9.419,9.419,0,0,1-8.517,0Z" transform="translate(-57.674 -237.502)" fill="#e0e0e0"/>
      <path id="Trazado_125383" data-name="Trazado 125383" d="M242.41,436.64l.078-.092,4.205-4.617h0v-.035a.405.405,0,0,1,.078-.078l.043-.05h0a2.116,2.116,0,0,1,2.628,0,7.267,7.267,0,0,1,3.3,5.683,2.142,2.142,0,0,1-1.272,2.266h-.05l-.234.05h-.057l-6.088,1.328a1.485,1.485,0,0,1-1.066-.227,4.17,4.17,0,0,1-1.883-3.261,1.577,1.577,0,0,1,.32-.966Z" transform="translate(-110.778 -281.613)" fill="#e0e0e0"/>
      <path id="Trazado_125384" data-name="Trazado 125384" d="M339.775,376.764l-88.633,51.225-12.275,2.5a.376.376,0,0,1-.4-.547l3.843-7.054,88.64-51.232C333.368,370.257,341.672,375.67,339.775,376.764Z" transform="translate(-109.714 -264.267)" fill="#e0e0e0"/>
      <path id="freepik--shadow--inject-21-2" data-name="freepik--shadow--inject-21" d="M310.1,417.715c.888,2.415,3.467,3.921,7.771,4.482l76.777-44.711,7.97-8.077a.618.618,0,0,0-.632-1.023l-14.676,4.859Z" transform="translate(-130.475 -263.378)" fill="#e0e0e0"/>
    </g>
    <g id="freepik--Books--inject-21" transform="translate(49.398 146.967)">
      <g id="freepik--books--inject-21-2" data-name="freepik--books--inject-21" transform="translate(0 41.131)">
        <g id="freepik--book--inject-21" transform="translate(9.839 14.243)">
          <path id="Trazado_125408" data-name="Trazado 125408" d="M78.5,352.344l76.784,43.624,111.372-63.934L189.879,288.41Z" transform="translate(-78.5 -273.236)" fill="#26aab7"/>
          <path id="Trazado_125409" data-name="Trazado 125409" d="M78.5,352.344l76.784,43.624,111.372-63.934L189.879,288.41Z" transform="translate(-78.5 -273.236)" opacity="0.4"/>
          <path id="Trazado_125410" data-name="Trazado 125410" d="M156.711,415.225,81.7,372.432c1.272-3.6,1.172-5.214-.263-10l74.7,42.5S157.059,405.379,156.711,415.225Z" transform="translate(-79.352 -294.675)" fill="#f5f5f5"/>
          <path id="Trazado_125411" data-name="Trazado 125411" d="M152.808,399.438a10.229,10.229,0,0,1,4.667,8.027v6.791c0,2.962-2.089,4.156-4.667,2.678l-74.3-42.388v-2.323l73.666,41.848c1.542.888,2.792.17,2.792-1.605l-.043-6.1a6.145,6.145,0,0,0-2.8-4.816L78.51,359.678V357.05Z" transform="translate(-78.503 -293.116)" fill="#1565c0"/>
          <path id="Trazado_125412" data-name="Trazado 125412" d="M152.808,399.438a10.229,10.229,0,0,1,4.667,8.027v6.791c0,2.962-2.089,4.156-4.667,2.678l-74.3-42.388v-2.323l73.666,41.848c1.542.888,2.792.17,2.792-1.605l-.043-6.1a6.145,6.145,0,0,0-2.8-4.816L78.51,359.678V357.05Z" transform="translate(-78.229 -293.116)" opacity="0.3"/>
          <path id="Trazado_125413" data-name="Trazado 125413" d="M78.51,330.984,189.882,267.05l74.3,42.388a10.229,10.229,0,0,1,4.667,8.027v6.791a3.24,3.24,0,0,1-1.364,3L156.1,391.188a3.248,3.248,0,0,0,1.364-3v-6.805a10.237,10.237,0,0,0-4.66-8.027Z" transform="translate(-78.503 -267.05)" fill="#1565c0"/>
          <path id="Trazado_125414" data-name="Trazado 125414" d="M78.51,330.984,189.882,267.05l74.3,42.388a10.229,10.229,0,0,1,4.667,8.027v6.791a3.24,3.24,0,0,1-1.364,3L156.1,391.188a3.248,3.248,0,0,0,1.364-3v-6.805a10.237,10.237,0,0,0-4.66-8.027Z" transform="translate(-79.6 -267.05)" opacity="0.2"/>
          <path id="Trazado_125415" data-name="Trazado 125415" d="M187.75,395.518a9.427,9.427,0,0,1,1.364,4.568v6.8a3.248,3.248,0,0,1-1.364,3l111.379-63.934a3.24,3.24,0,0,0,1.364-3v-6.812a9.5,9.5,0,0,0-1.364-4.568Z" transform="translate(-110.142 -285.737)" fill="#26aab7"/>
          <path id="Trazado_125416" data-name="Trazado 125416" d="M187.75,395.518a9.4,9.4,0,0,1,1.364,4.568v6.8a3.256,3.256,0,0,1-1.364,3l111.372-63.934a3.251,3.251,0,0,0,1.371-3v-6.812a9.4,9.4,0,0,0-1.364-4.568Z" transform="translate(-110.142 -285.737)" fill="#1565c0"/>
          <path id="Trazado_125417" data-name="Trazado 125417" d="M327.524,340.36c1.513,6.564,1.492,9.647,0,14.463l-3.864,2.231c1.492-4.816,1.513-7.9,0-14.463Z" transform="translate(-149.505 -288.283)" fill="#fff" opacity="0.37"/>
          <path id="Trazado_125418" data-name="Trazado 125418" d="M210.037,407.89c1.513,6.564,1.492,9.555,0,14.371l-3.857,2.209c1.485-4.816,1.506-7.814,0-14.364Z" transform="translate(-115.48 -307.841)" fill="#fff" opacity="0.37"/>
        </g>
        <g id="freepik--book--inject-21-2" data-name="freepik--book--inject-21">
          <path id="Trazado_125421" data-name="Trazado 125421" d="M64.65,331.574,141.434,375.2l111.372-63.934L176.029,267.64Z" transform="translate(-64.65 -252.978)" fill="#26aab7"/>
          <path id="Trazado_125422" data-name="Trazado 125422" d="M64.65,331.574,141.434,375.2l111.372-63.934L176.029,267.64Z" transform="translate(-64.65 -252.978)" fill="#fff" opacity="0.2"/>
          <path id="Trazado_125423" data-name="Trazado 125423" d="M142.873,394.681l-74.98-42.807c1.272-3.6,1.172-4.7-.263-9.484l74.7,42.495S143.192,384.821,142.873,394.681Z" transform="translate(-65.513 -274.628)" fill="#f5f5f5"/>
          <path id="Trazado_125424" data-name="Trazado 125424" d="M138.958,379.4a10.229,10.229,0,0,1,4.667,8.027v6.273c0,2.962-2.089,4.156-4.667,2.678l-74.3-42.388v-2.323l73.666,41.848c1.542.888,2.792.17,2.792-1.605l-.043-5.583a6.159,6.159,0,0,0-2.8-4.823L64.66,339.635V337Z" transform="translate(-64.653 -273.066)" fill="#26aab7"/>
          <path id="Trazado_125425" data-name="Trazado 125425" d="M138.958,379.4a10.229,10.229,0,0,1,4.667,8.027v6.273c0,2.962-2.089,4.156-4.667,2.678l-74.3-42.388v-2.323l73.666,41.848c1.542.888,2.792.17,2.792-1.605l-.043-5.583a6.159,6.159,0,0,0-2.8-4.823L64.66,339.635V337Z" transform="translate(-64.653 -273.066)" fill="#fff" opacity="0.4"/>
          <path id="Trazado_125426" data-name="Trazado 125426" d="M64.65,310.934,176.029,247l74.277,42.4a10.244,10.244,0,0,1,4.688,8.041v6.273a3.229,3.229,0,0,1-1.371,3L142.251,370.6a3.256,3.256,0,0,0,1.364-3V361.37a10.251,10.251,0,0,0-4.66-8.034Z" transform="translate(-64.65 -247)" fill="#26aab7"/>
          <path id="Trazado_125427" data-name="Trazado 125427" d="M64.65,310.934,176.029,247l74.277,42.4a10.244,10.244,0,0,1,4.688,8.041v6.273a3.229,3.229,0,0,1-1.371,3L142.251,370.6a3.256,3.256,0,0,0,1.364-3V361.37a10.251,10.251,0,0,0-4.66-8.034Z" transform="translate(-64.65 -247)" fill="#fff" opacity="0.85"/>
          <path id="Trazado_125428" data-name="Trazado 125428" d="M173.9,375.489a9.4,9.4,0,0,1,1.364,4.568v6.28a3.256,3.256,0,0,1-1.364,3L285.272,325.4a3.228,3.228,0,0,0,1.371-3v-6.265a9.413,9.413,0,0,0-1.371-4.568Z" transform="translate(-96.292 -265.701)" fill="#26aab7"/>
          <path id="Trazado_125429" data-name="Trazado 125429" d="M173.9,375.489a9.4,9.4,0,0,1,1.364,4.568v6.28a3.256,3.256,0,0,1-1.364,3L285.272,325.4a3.228,3.228,0,0,0,1.371-3v-6.265a9.413,9.413,0,0,0-1.371-4.568Z" transform="translate(-96.292 -265.701)" fill="#fff" opacity="0.6"/>
          <path id="Trazado_125430" data-name="Trazado 125430" d="M313.674,320.32c1.513,6.564,1.492,9.128,0,13.945L309.81,336.5c1.492-4.816,1.513-7.381,0-13.952Z" transform="translate(-135.655 -268.235)" fill="#fff"/>
          <path id="Trazado_125431" data-name="Trazado 125431" d="M196.184,387.82c1.513,6.564,1.492,9.05,0,13.866l-3.864,2.224c1.492-4.809,1.513-7.3,0-13.859Z" transform="translate(-101.627 -287.785)" fill="#fff"/>
        </g>
      </g>
    </g>
    <g id="freepik--Pen--inject-21" transform="translate(172.176 269.322)">
      <g id="freepik--pen--inject-21-2" data-name="freepik--pen--inject-21" transform="translate(0 0)">
        <g id="freepik--pen--inject-21-3" data-name="freepik--pen--inject-21">
          <path id="Trazado_125461" data-name="Trazado 125461" d="M369.1,363.649a7.281,7.281,0,0,0,3.3,5.683,2.621,2.621,0,0,0,1.89.4,1.692,1.692,0,0,1-.355.284l.789-.455h.05l.114-.078a1.289,1.289,0,0,0,.149-.128l.085-.085h0l.078-.092a2.027,2.027,0,0,0,.27-.49,1.486,1.486,0,0,0,.057-.163.163.163,0,0,0,0-.078.6.6,0,0,0,.035-.142,3.322,3.322,0,0,0,.092-.824,7.281,7.281,0,0,0-3.289-5.683,2.941,2.941,0,0,0-1.478-.455h-.206l-.192.036H370.3l-.135.057h0l-.128.064-.71.391a1.51,1.51,0,0,1,.355-.128,2.628,2.628,0,0,0-.59,1.89Zm5.427,6.031h.057Z" transform="translate(-275.601 -361.34)" fill="#26aab7"/>
          <path id="Trazado_125462" data-name="Trazado 125462" d="M249.23,411.436l4.639,8.1.789-.455,84.534-48.838a1.694,1.694,0,0,0,.355-.284,2.607,2.607,0,0,0,.611-1.847,7.281,7.281,0,0,0-3.3-5.683,2.977,2.977,0,0,0-1.47-.448,1.993,1.993,0,0,0-.419.043,1.513,1.513,0,0,0-.355.128h-.057Z" transform="translate(-240.887 -361.525)" fill="#f0f0f0"/>
          <path id="Trazado_125463" data-name="Trazado 125463" d="M251.159,431.746c-1.819-1.051-3.289-.2-3.289,1.9a7.274,7.274,0,0,0,3.289,5.683c1.819,1.051,3.3.2,3.3-1.9a7.267,7.267,0,0,0-3.3-5.676Z" transform="translate(-240.493 -381.601)" fill="#26aab7"/>
          <path id="Trazado_125464" data-name="Trazado 125464" d="M297.221,396.567h0l.107-.064a.874.874,0,0,1,.767.114,2.6,2.6,0,0,1,1.172,2.025.874.874,0,0,1-.277.71h0l-.142.085L248.809,428.32l-3.289-1.9Z" transform="translate(-239.812 -371.512)" fill="#455a64"/>
          <path id="Trazado_125465" data-name="Trazado 125465" d="M253.485,436.349l-4.646,2.685-3.289-1.9,6.294-3.63a7.949,7.949,0,0,1,1.641,2.849Z" transform="translate(-239.821 -382.239)" fill="#37474f"/>
          <path id="Trazado_125466" data-name="Trazado 125466" d="M240.138,440.008h0l3.815-4.191.1-.114a1.492,1.492,0,0,1,1.882,0,5.143,5.143,0,0,1,2.323,4.028,1.534,1.534,0,0,1-.888,1.605h0l-.149.035-5.591,1.215h0a.873.873,0,0,1-.6-.128,2.351,2.351,0,0,1-1.058-1.84A.839.839,0,0,1,240.138,440.008Z" transform="translate(-238.203 -382.781)" fill="#26aab7"/>
          <path id="Trazado_125467" data-name="Trazado 125467" d="M240.138,440.008h0l3.815-4.191.1-.114a1.492,1.492,0,0,1,1.882,0,5.143,5.143,0,0,1,2.323,4.028,1.534,1.534,0,0,1-.888,1.605h0l-.149.035-5.591,1.215h0a.873.873,0,0,1-.6-.128,2.351,2.351,0,0,1-1.058-1.84A.839.839,0,0,1,240.138,440.008Z" transform="translate(-238.203 -382.781)" opacity="0.1"/>
          <path id="Trazado_125468" data-name="Trazado 125468" d="M239.908,441.531a2.337,2.337,0,0,0,1.066,1.833.852.852,0,0,0,.6.128h0l2.841-.611c.44-.1.71-.519.71-1.186a3.751,3.751,0,0,0-1.691-2.941,1.094,1.094,0,0,0-1.357,0l-.078.085-1.89,2.074h0A.817.817,0,0,0,239.908,441.531Z" transform="translate(-238.186 -383.693)" fill="#26aab7"/>
          <path id="Trazado_125469" data-name="Trazado 125469" d="M240.968,441.832c-.583-.334-1.058-.064-1.058.611a2.351,2.351,0,0,0,1.058,1.84c.59.334,1.058.064,1.058-.611A2.344,2.344,0,0,0,240.968,441.832Z" transform="translate(-238.188 -384.611)" opacity="0.1"/>
          <path id="Trazado_125470" data-name="Trazado 125470" d="M347.584,372.788a.8.8,0,0,1,.824.078,2.565,2.565,0,0,1,1.165,2.017.81.81,0,0,1-.348.76h0l-29.083,16.815a.874.874,0,0,0,.277-.71,2.6,2.6,0,0,0-1.172-2.025.874.874,0,0,0-.767-.114Z" transform="translate(-260.944 -364.633)" fill="#fafafa"/>
          <path id="Trazado_125471" data-name="Trazado 125471" d="M358.994,373.533a2.6,2.6,0,0,0,1.165,2.017.713.713,0,0,0,1.165-.675,2.564,2.564,0,0,0-1.165-2.017.71.71,0,0,0-1.165.675Z" transform="translate(-272.673 -364.625)" fill="#f5f5f5"/>
          <path id="Trazado_125472" data-name="Trazado 125472" d="M362.32,365.617h.092l4.859-2.841.114-.064h0a2.131,2.131,0,0,1,2,.249,6.543,6.543,0,0,1,2.962,5.136,2.074,2.074,0,0,1-.874,1.918h0l-4.916,2.841h0a2.131,2.131,0,0,1-2.053-.227,6.564,6.564,0,0,1-2.962-5.136,2.131,2.131,0,0,1,.774-1.875Z" transform="translate(-273.413 -361.695)" fill="#26aab7"/>
          <path id="Trazado_125473" data-name="Trazado 125473" d="M362.32,365.617h.092l4.859-2.841.114-.064h0a2.131,2.131,0,0,1,2,.249,6.543,6.543,0,0,1,2.962,5.136,2.074,2.074,0,0,1-.874,1.918h0l-4.916,2.841h0a2.131,2.131,0,0,1-2.053-.227,6.564,6.564,0,0,1-2.962-5.136,2.131,2.131,0,0,1,.774-1.875Z" transform="translate(-273.413 -361.695)" opacity="0.05"/>
          <path id="Trazado_125474" data-name="Trazado 125474" d="M364.462,366.935c-1.634-.945-2.962-.185-2.962,1.7a6.564,6.564,0,0,0,2.962,5.136c1.634.945,2.962.178,2.962-1.712A6.55,6.55,0,0,0,364.462,366.935Z" transform="translate(-273.403 -362.843)" opacity="0.1"/>
          <path id="Trazado_125475" data-name="Trazado 125475" d="M237.851,443.875h0l2.01-1.208h0a.377.377,0,0,1,.391,0,1.222,1.222,0,0,1,.547.945.377.377,0,0,1-.163.348h0l-2,1.215h0a.788.788,0,0,1-.369.092.767.767,0,0,1-.412-1.421Z" transform="translate(-237.485 -384.879)" fill="#455a64"/>
          <path id="Trazado_125476" data-name="Trazado 125476" d="M237.746,444.478h0l.107-.085h0a.384.384,0,0,1,.348.057,1.208,1.208,0,0,1,.547.945.369.369,0,0,1-.156.341h-.078a.589.589,0,0,1-.249.043.774.774,0,0,1-.774-.774.71.71,0,0,1,.256-.526Z" transform="translate(-237.487 -385.389)" fill="#263238"/>
        </g>
      </g>
    </g>
    <g id="freepik--Pencil--inject-21" transform="translate(226.377 271.203)">
      <g id="freepik--pencil--inject-21-2" data-name="freepik--pencil--inject-21">
        <path id="Trazado_125477" data-name="Trazado 125477" d="M419.59,366.525,432.668,364a.4.4,0,0,1,.384.668l-8.908,9.988Z" transform="translate(-344.429 -363.988)" fill="#ffa8a7"/>
        <path id="Trazado_125478" data-name="Trazado 125478" d="M437.323,364.632a.4.4,0,0,0-.362-.632l-2.55.5h0a2.216,2.216,0,0,1,1.051,2.081v.227Z" transform="translate(-348.721 -363.991)" fill="#263238"/>
        <path id="Trazado_125479" data-name="Trazado 125479" d="M333.778,412.443l1.066-.611,1.293-.71,61.8-35.441a5.924,5.924,0,0,0-.362-4.333c-.923-2.074-2.721-3.708-4.212-3.808l-61.8,35.391-2.465,1.421C330.774,403.535,335.419,411.59,333.778,412.443Z" transform="translate(-318.218 -365.017)" fill="#455a64"/>
        <path id="Trazado_125480" data-name="Trazado 125480" d="M339.511,423.6l2.387-1.371c.71-.376.3-2.131-.526-3.893-1.087-2.373-3.232-4.674-4.163-4.184l-1.762,1.009-.618.376c.931-.5,3.076,1.8,4.163,4.184.789,1.712,1.186,3.381.59,3.829h0A.107.107,0,0,1,339.511,423.6Z" transform="translate(-319.88 -378.498)" fill="#ebebeb"/>
        <path id="Trazado_125481" data-name="Trazado 125481" d="M339.375,423.683c1.634-.867-3.055-8.937-4.688-8.07l-2.387,1.371c1.634-.867,6.322,7.2,4.681,8.07Z" transform="translate(-319.148 -378.921)" fill="#26aab7"/>
        <path id="Trazado_125482" data-name="Trazado 125482" d="M333.793,426.868l2.358-1.35c1.613-.838-2.841-8.667-4.546-8.148l-.1.036-2.366,1.378C330.788,417.96,335.434,426.015,333.793,426.868Z" transform="translate(-318.232 -379.442)" fill="#ebebeb"/>
        <path id="Trazado_125483" data-name="Trazado 125483" d="M408.173,364.192l-.419-.192-9.476,5.186L333.8,406.125c-.092-.142-.171-.156-.227-.057,1.421,2.174,2.444,4.909,1.527,5.385l1.066-.611,1.293-.71,61.774-35.476h0l8.858-10.03a.4.4,0,0,0,.085-.433Z" transform="translate(-319.515 -363.991)" opacity="0.15"/>
        <path id="Trazado_125484" data-name="Trazado 125484" d="M319.34,433.154l10.009-5.726c.71-.362.313-2.074-.5-3.857-1.08-2.38-3.218-4.7-4.156-4.227h0L314.651,425.1c-2,1.151-.163,5.484,2.06,7.416A2.373,2.373,0,0,0,319.34,433.154Z" transform="translate(-313.788 -380.002)" fill="#f28f8f"/>
        <path id="Trazado_125485" data-name="Trazado 125485" d="M319.933,432.386c-.575-2.252-2.4-4.468-4.085-4.937a1.612,1.612,0,0,0-1.5.2c-1.506,1.421.249,5.37,2.351,7.2a2.394,2.394,0,0,0,2.579.661C320.033,435.071,320.331,433.92,319.933,432.386Z" transform="translate(-313.785 -382.339)" opacity="0.1"/>
      </g>
    </g>
    <g id="freepik--speech-bubble--inject-21" transform="translate(184.946 43.627)">
      <g id="freepik--speech-bubble--inject-21-2" data-name="freepik--speech-bubble--inject-21">
        <g id="freepik--speech-bubble--inject-21-3" data-name="freepik--speech-bubble--inject-21">
          <path id="freepik--speech-bubble--inject-21-4" data-name="freepik--speech-bubble--inject-21" d="M260.561,79.9l10.762-5.626s6.827,1.748,18.235,1.073c16.871-1,26.717-8.127,24.21-18.129-2.572-10.251-13.852-14.278-33.963-13.5-25.154.98-31.256,18.036-16.239,28.117Z" transform="translate(-255.462 -43.627)" fill="#1565c0"/>
          <path id="freepik--speech-bubble--inject-21-5" data-name="freepik--speech-bubble--inject-21" d="M260.3,79.9l10.212-5.626s6.478,1.748,17.3,1.073c16.009-1,25.351-8.127,22.972-18.129-2.44-10.251-13.144-14.278-32.227-13.5-23.869.98-29.659,18.036-15.409,28.117Z" transform="translate(-257.266 -45.627)" fill="#fff" opacity="0.38"/>
        </g>
        <circle id="Elipse_4761" data-name="Elipse 4761" cx="2.685" cy="2.685" r="2.685" transform="translate(13.95 13.592)" fill="#fff"/>
        <circle id="Elipse_4762" data-name="Elipse 4762" cx="2.685" cy="2.685" r="2.685" transform="translate(26.567 13.592)" fill="#fff"/>
        <circle id="Elipse_4763" data-name="Elipse 4763" cx="2.685" cy="2.685" r="2.685" transform="translate(39.183 13.592)" fill="#fff"/>
      </g>
    </g>
    <g id="freepik--Character--inject-21" transform="translate(45.607 50.367)">
      <g id="freepik--Laptop--inject-21" transform="translate(0 25.658)">
        <path id="Trazado_125486" data-name="Trazado 125486" d="M72.27,294.938c0,1.833,1.378,3.012,3.076,3.992l69.51,40.136a6.784,6.784,0,0,0,6.145,0l112.168-64.743c1.7-.98,3.076-2.245,3.076-4.078s-1.378-2.976-3.069-3.957L193.623,226.16a6.77,6.77,0,0,0-6.138,0L75.346,290.9C73.648,291.9,72.27,293.1,72.27,294.938Z" transform="translate(-63.066 -128.678)" fill="#37474f"/>
        <path id="Trazado_125487" data-name="Trazado 125487" d="M76.081,294.448l69.51,40.129a6.784,6.784,0,0,0,6.145,0L263.9,269.834c1.691-.973,1.691-2.564,0-3.552L194.358,226.16a6.77,6.77,0,0,0-6.138,0L76.081,290.9C74.383,291.9,74.383,293.468,76.081,294.448Z" transform="translate(-63.801 -128.678)" fill="#455a64"/>
        <path id="Trazado_125488" data-name="Trazado 125488" d="M147.932,362.075v4.475a6.272,6.272,0,0,1-3.076-.71l-69.51-40.157c-1.7-.98-3.076-2.131-3.076-3.992,0-1.726,1.236-2.927,2.841-3.9-1.321.931-1.343,2.493.242,3.41l69.51,40.136A6.272,6.272,0,0,0,147.932,362.075Z" transform="translate(-63.066 -155.43)" fill="#263238"/>
        <path id="Trazado_125489" data-name="Trazado 125489" d="M67.191,251.936c-1.35-.625-1.712-1.691-1.847-3.552L59.32,160.227a6.109,6.109,0,0,1,2.841-5.186L174.3,90.269c1.691-.98,2.934-1.513,4.5-.44s1.6,1.662,1.726,3.552l6.024,88.164a6.1,6.1,0,0,1-2.841,5.186L71.581,251.467C69.883,252.455,68.924,252.732,67.191,251.936Z" transform="translate(-59.315 -89.235)" fill="#37474f"/>
        <path id="Trazado_125490" data-name="Trazado 125490" d="M180.868,93.372c-.128-1.882-1.605-2.614-3.3-1.641L65.389,156.482a5.8,5.8,0,0,0-2.131,2.252l-2.9-1.47h0a5.932,5.932,0,0,1,2.131-2.252L174.6,90.268c1.7-.98,2.948-1.52,4.511-.44S180.7,91.49,180.868,93.372Z" transform="translate(-59.616 -89.233)" fill="#455a64"/>
        <path id="Trazado_125491" data-name="Trazado 125491" d="M71.352,279.333a3.932,3.932,0,0,1-4.163.334c-1.257-.526-1.712-1.684-1.84-3.552l-6.031-88.179a5.448,5.448,0,0,1,.71-2.927l2.927,1.456h0a5.555,5.555,0,0,0-.71,2.927l6.031,88.171A1.982,1.982,0,0,0,71.352,279.333Z" transform="translate(-59.313 -116.973)" fill="#263238"/>
        <path id="Trazado_125492" data-name="Trazado 125492" d="M69.485,163.15,177.4,100.893c1.016-.59,1.9-.149,1.982.98l5.619,82.247a3.666,3.666,0,0,1-1.7,3.111L75.388,249.489c-1.016.59-1.9.149-1.982-.98L67.78,166.248a3.687,3.687,0,0,1,1.7-3.1Z" transform="translate(-61.765 -92.535)"/>
        <path id="Trazado_125493" data-name="Trazado 125493" d="M69.485,163.547a3.687,3.687,0,0,0-1.7,3.111l5.534,80.876L180,185.959a3.666,3.666,0,0,0,1.7-3.111L176.169,102Z" transform="translate(-61.765 -92.931)" fill="#26aab7"/>
        <path id="Trazado_125494" data-name="Trazado 125494" d="M69.485,163.547a3.687,3.687,0,0,0-1.7,3.111l5.534,80.876L180,185.959a3.666,3.666,0,0,0,1.7-3.111L176.169,102Z" transform="translate(-61.765 -92.931)" fill="#fff" opacity="0.8"/>
        <path id="Trazado_125495" data-name="Trazado 125495" d="M89.764,293.932l103-59.494a3.2,3.2,0,0,1,2.9,0l3.758,2.131a.888.888,0,0,1,0,1.676L96.363,297.7a3.2,3.2,0,0,1-2.9,0l-3.737-2.131a.881.881,0,0,1,.036-1.641Z" transform="translate(-67.965 -131.188)" fill="#263238"/>
        <path id="Trazado_125496" data-name="Trazado 125496" d="M103.914,302.321l103.054-59.48a2.941,2.941,0,0,1,2.643-.142l26.824,15.486c.661.384.554,1.066-.249,1.527L133.252,319.128a2.963,2.963,0,0,1-2.643.149l-26.937-15.415C103,303.465,103.118,302.783,103.914,302.321Z" transform="translate(-72.035 -133.61)" fill="#263238"/>
        <path id="Trazado_125497" data-name="Trazado 125497" d="M194.287,268.732l3.225-1.861c.135-.085.149-.206,0-.277l-3.09-1.776a.519.519,0,0,0-.469,0l-3.225,1.861c-.135.078-.149.2,0,.27l3.09,1.783A.519.519,0,0,0,194.287,268.732Zm-4.717-6.45-3.225,1.868c-.135.078-.149.2,0,.27l3.04,1.783a.5.5,0,0,0,.469,0l3.225-1.861c.135-.078.149-.2,0-.27l-3.09-1.783a.518.518,0,0,0-.419-.007Zm-10.421,6.024-5.463,3.154c-.135.085-.149.206,0,.277l3.09,1.776a.518.518,0,0,0,.469,0l5.463-3.154c.135-.078.149-.2,0-.27l-3.083-1.783A.547.547,0,0,0,179.149,268.306Zm5.683-3.3-3.232,1.861c-.135.078-.149.2,0,.27l3.09,1.783a.518.518,0,0,0,.469,0l3.225-1.868c.135-.078.149-.2,0-.27L185.294,265a.533.533,0,0,0-.433.007Zm-12.63,7.3-3.232,1.868c-.135.078-.149.2,0,.27l3.083,1.783a.5.5,0,0,0,.469,0l3.225-1.861c.142-.078.149-.2,0-.27l-3.083-1.783A.518.518,0,0,0,172.2,272.313Zm-4.717,2.7-3.225,1.861c-.142.078-.149.2,0,.27l3.083,1.783a.519.519,0,0,0,.469,0l3.225-1.868c.142-.078.149-.2,0-.27l-3.083-1.776a.519.519,0,0,0-.469,0Zm12.076,7.267,3.225-1.861c.142-.078.149-.2,0-.27l-3.083-1.783a.519.519,0,0,0-.469,0L176,280.233c-.135.078-.149.2,0,.27l3.083,1.783a.5.5,0,0,0,.5.021Zm-4.717,2.728,3.225-1.868c.142-.078.149-.2,0-.27l-3.083-1.776a.519.519,0,0,0-.469,0l-3.225,1.861c-.142.078-.149.2,0,.27l3.083,1.783a.518.518,0,0,0,.49.028Zm-4.717,2.721,3.232-1.861c.135-.078.149-.2,0-.27l-3.083-1.783a.519.519,0,0,0-.469,0l-3.154,1.9c-.142.078-.149.2,0,.27l3.083,1.783a.518.518,0,0,0,.412-.014Zm-4.71,2.721,3.225-1.861c.135-.078.149-.2,0-.27l-3.09-1.783a.519.519,0,0,0-.469,0l-3.225,1.868c-.135.078-.149.2,0,.27l3.09,1.776a.519.519,0,0,0,.49.028Zm24.153-19.024,3.225-1.861c.135-.078.149-.2,0-.27l-3.09-1.783a.519.519,0,0,0-.469,0l-3.225,1.861c-.135.078-.149.206,0,.27l3.09,1.819a.519.519,0,0,0,.469,0Zm-5.271,8.134,7.217-4.127c.135-.078.149-.2,0-.27l-7.494-4.326a.519.519,0,0,0-.469,0l-3.722,2.131c-.142.078-.149.2,0,.27l3.964,2.287c.128.071.114.192,0,.27l-2.984,1.719c-.135.085-.149.206,0,.277l3.09,1.776a.518.518,0,0,0,.4.021Zm-21.531-1.826-3.218,1.89c-.142.078-.149.2,0,.27l3.083,1.783a.519.519,0,0,0,.469,0l3.232-1.861c.135-.078.149-.2,0-.27l-3.083-1.783a.519.519,0,0,0-.483,0Zm-4.717,2.721-3.225,1.861c-.135.085-.149.206,0,.277l3.09,1.776a.518.518,0,0,0,.469,0l3.225-1.861c.135-.078.149-.2,0-.27l-3.09-1.783a.519.519,0,0,0-.469.028Zm-26.092,29.068a.519.519,0,0,0,.469,0l3.225-1.861c.135-.078.149-.2,0-.27l-3.09-1.783a.519.519,0,0,0-.469,0l-3.225,1.861c-.135.085-.149.206,0,.27Zm-11.636-7.288-3.225,1.9c-.135.078-.149.2,0,.27l3.09,1.783a.547.547,0,0,0,.469,0l3.225-1.861c.135-.078.149-.2,0-.27l-3.09-1.783a.519.519,0,0,0-.469-.014ZM126.3,307.7a.518.518,0,0,0,.469,0L130,305.828c.142-.078.149-.2,0-.27l-3.083-1.783a.5.5,0,0,0-.469,0l-3.225,1.861c-.142.078-.149.2,0,.27Zm13.014,2.927,3.225-1.861c.135-.085.149-.206,0-.277l-3.09-1.776a.519.519,0,0,0-.469,0l-3.225,1.861c-.135.078-.149.2,0,.27l3.09,1.783a.519.519,0,0,0,.469.028Zm-5.186,2.735a.518.518,0,0,0,.469,0l3.225-1.861c.135-.078.149-.2,0-.27l-3.083-1.783a.518.518,0,0,0-.469,0l-3.232,1.861c-.135.078-.149.2,0,.27Zm-9.093-13.845-3.225,1.861c-.135.085-.149.206,0,.27l3.09,1.783a.518.518,0,0,0,.469,0l3.225-1.861c.135-.078.149-.2,0-.27l-3.09-1.783a.519.519,0,0,0-.469.028ZM148.618,285.9l-3.225,1.9c-.135.078-.149.2,0,.27l3.09,1.783a.519.519,0,0,0,.469,0l3.225-1.861c.135-.085.149-.206,0-.277l-3.09-1.776a.519.519,0,0,0-.469-.007Zm-18.86,10.918-3.225,1.861c-.135.078-.149.2,0,.27l3.09,1.783a.518.518,0,0,0,.469,0l3.225-1.861c.135-.085.149-.206,0-.277l-3.09-1.776A.519.519,0,0,0,129.757,296.82Zm23.577-13.611-3.225,1.861c-.135.078-.149.2,0,.27l3.09,1.783a.5.5,0,0,0,.469,0l3.225-1.861c.135-.078.149-.2,0-.27l-3.09-1.783a.5.5,0,0,0-.469,0Zm-9.412,5.441-3.232,1.861c-.135.078-.149.2,0,.27l3.083,1.783a.519.519,0,0,0,.469,0l3.225-1.861c.142-.078.149-.2,0-.27l-3.083-1.783a.519.519,0,0,0-.462,0Zm-4.731,2.7-3.225,1.868c-.142.078-.149.2,0,.27l3.083,1.783a.547.547,0,0,0,.469,0l3.225-1.861c.142-.078.149-.2,0-.27l-3.083-1.79A.518.518,0,0,0,139.191,291.351Zm-4.717,2.728-3.225,1.861c-.142.078-.149.2,0,.27l3.083,1.783a.519.519,0,0,0,.469,0l3.232-1.868c.135-.078.149-.2,0-.27l-3.083-1.783a.5.5,0,0,0-.476.028ZM156,295.925l3.225-1.861c.135-.085.149-.206,0-.277l-3.09-1.776a.519.519,0,0,0-.469,0l-3.218,1.875c-.135.078-.149.2,0,.27l3.09,1.783a.518.518,0,0,0,.462-.014Zm43.993-39.66-3.225,1.861c-.142.085-.149.206,0,.277l3.083,1.776a.518.518,0,0,0,.469,0l3.225-1.861c.142-.078.149-.2,0-.27l-3.083-1.783a.519.519,0,0,0-.462,0Zm-5.683,3.3-3.225,1.861c-.135.085-.149.206,0,.27l3.09,1.783a.518.518,0,0,0,.469,0l3.225-1.861c.135-.078.149-.2,0-.27l-3.09-1.783a.519.519,0,0,0-.49,0Zm10.428-6.017-3.275,1.861c-.135.078-.149.2,0,.27l3.083,1.783a.519.519,0,0,0,.469,0l3.225-1.861c.142-.078.149-.206,0-.27l-3.083-1.783a.519.519,0,0,0-.44,0Zm-26.071,24.217,3.232-1.868c.135-.078.149-.2,0-.27l-3.09-1.783a.547.547,0,0,0-.469,0l-3.218,1.883c-.135.078-.149.2,0,.27l3.083,1.783a.519.519,0,0,0,.44-.014Zm31.256-26.994a.547.547,0,0,0-.469,0l-3.225,1.861c-.135.078-.149.2,0,.27l3.09,1.783a.519.519,0,0,0,.469,0l3.225-1.868c.135-.078.149-.2,0-.27Zm-49.2,42.431,3.225-1.861c.135-.078.149-.2,0-.27l-3.09-1.783a.5.5,0,0,0-.469,0l-3.225,1.861c-.135.078-.149.2,0,.27l3.09,1.783a.5.5,0,0,0,.469,0Zm57.824-33.388,3.232-1.847c.135-.078.149-.2,0-.27l-3.09-1.783a.5.5,0,0,0-.469,0l-3.225,1.861c-.135.078-.149.2,0,.27l3.083,1.783A.5.5,0,0,0,218.547,259.81Zm-9.121.178,3.225-1.861c.135-.078.149-.2,0-.27l-3.09-1.783a.519.519,0,0,0-.469,0l-3.2,1.89c-.135.078-.149.2,0,.27l3.09,1.783A.547.547,0,0,0,209.425,259.988Zm4.88-6.635a.519.519,0,0,0-.469,0l-3.225,1.861c-.135.078-.149.206,0,.27l3.09,1.783a.519.519,0,0,0,.469,0l3.225-1.861c.135-.078.149-.2,0-.27Zm.995-.575,7.473,4.326a.518.518,0,0,0,.469,0l3.225-1.861c.142-.078.149-.2,0-.27l-7.494-4.326a.519.519,0,0,0-.469,0l-3.225,1.861a.157.157,0,0,0,.021.27Zm-10.89,6.038-3.232,1.861c-.135.078-.149.2,0,.27l3.09,1.783a.519.519,0,0,0,.469,0l3.225-1.868c.135-.078.149-.2,0-.27l-3.083-1.783A.5.5,0,0,0,204.41,258.815ZM168.892,279.3l-3.225,1.861c-.135.085-.149.206,0,.277l3.09,1.776a.519.519,0,0,0,.469,0l3.225-1.861c.135-.078.149-.2,0-.27l-3.069-1.811a.519.519,0,0,0-.469,0Zm44.455-16.751a.519.519,0,0,0,.469,0l3.225-1.868c.135-.078.149-.2,0-.27l-3.09-1.783a.547.547,0,0,0-.469,0l-3.225,1.861c-.135.078-.149.2,0,.27Zm-39.738,14.03-3.225,1.861c-.135.078-.149.2,0,.27l3.09,1.783a.519.519,0,0,0,.469,0l3.225-1.861c.135-.078.149-.206,0-.27l-3.09-1.783a.519.519,0,0,0-.448,0ZM136.669,306.83a.519.519,0,0,0,.469,0l3.225-1.861c.135-.085.149-.206,0-.277l-3.09-1.776a.519.519,0,0,0-.469,0l-3.225,1.861c-.135.078-.149.2,0,.27Zm-5.484-5.747-3.232,1.868c-.135.078-.149.2,0,.27L131.036,305a.547.547,0,0,0,.469,0l3.225-1.861c.142-.078.149-.2,0-.27l-3.083-1.783a.519.519,0,0,0-.455-.007Zm10.656,3.012,3.232-1.868c.135-.078.149-.2,0-.27l-3.083-1.783a.5.5,0,0,0-.469,0l-3.225,1.861c-.142.078-.149.2,0,.27l3.083,1.783a.519.519,0,0,0,.476.007Zm4.717-2.728,3.225-1.861c.142-.078.149-.2,0-.27l-3.019-1.783a.518.518,0,0,0-.469,0l-3.225,1.868c-.142.078-.149.2,0,.27l3.083,1.783a.547.547,0,0,0,.419-.007Zm4.717-2.721,3.225-1.861c.142-.078.149-.2,0-.27l-3.083-1.783a.518.518,0,0,0-.469,0l-3.232,1.861c-.135.078-.149.206,0,.27l3.083,1.783a.519.519,0,0,0,.49,0Zm-15.387-.284-3.225,1.861c-.135.078-.149.2,0,.27l3.09,1.783a.519.519,0,0,0,.469,0l3.225-1.861c.135-.078.149-.2,0-.27l-3.09-1.783a.519.519,0,0,0-.455,0Zm4.717-2.721-3.225,1.861c-.135.078-.149.2,0,.27l3.09,1.783a.518.518,0,0,0,.469,0l3.225-1.868c.135-.078.149-.2,0-.27l-3.083-1.8a.519.519,0,0,0-.462,0Zm18.868-10.89-3.232,1.861c-.135.078-.149.2,0,.27l3.083,1.783a.519.519,0,0,0,.469,0l3.225-1.868c.142-.078.149-.2,0-.27l-3.083-1.783a.547.547,0,0,0-.448.007Zm-4.717,2.721-3.225,1.861c-.142.078-.149.2,0,.27l3.083,1.783a.519.519,0,0,0,.469,0l3.225-1.861c.142-.078.149-.2,0-.27l-3.083-1.783a.519.519,0,0,0-.455,0Zm9.427-5.449-3.211,1.868c-.135.078-.149.2,0,.27l3.09,1.783a.5.5,0,0,0,.469,0l3.225-1.861c.135-.078.149-.2,0-.27l-3.09-1.783a.519.519,0,0,0-.469-.007Zm-18.839,10.9-3.225,1.861c-.135.078-.149.2,0,.27l3.09,1.783a.5.5,0,0,0,.469,0l3.225-1.861c.135-.078.149-.2,0-.27l-3.09-1.783a.5.5,0,0,0-.469,0Zm4.717-2.728-3.232,1.868c-.142.085-.149.206,0,.277l3.083,1.776a.518.518,0,0,0,.469,0l3.232-1.861c.135-.078.149-.2,0-.27l-3.09-1.783a.519.519,0,0,0-.469-.007Zm-6.017,17.759,3.225-1.861c.135-.078.149-.2,0-.27l-3.09-1.783a.5.5,0,0,0-.469,0l-3.225,1.861c-.135.078-.149.2,0,.27l3.09,1.783a.5.5,0,0,0,.462-.028ZM119.18,306.78,116.1,305a.547.547,0,0,0-.469,0l-3.232,1.861c-.135.078-.149.2,0,.27l3.083,1.783a.518.518,0,0,0,.469,0l3.225-1.868a.167.167,0,0,0-.007-.291Zm6.145,1.542-3.083-1.776a.519.519,0,0,0-.469,0l-4.973,2.841c-.135.078-.149.2,0,.27l3.09,1.783a.518.518,0,0,0,.469,0l4.973-2.841c.121-.114.121-.2-.021-.305Zm-10.748-5.058-3.09-1.783a.519.519,0,0,0-.469,0l-3.971,2.295c-.135.078-.149.2,0,.27l3.09,1.783a.519.519,0,0,0,.469,0l3.971-2.295c.092-.107.107-.227-.014-.3Zm3.04-1.762a.519.519,0,0,0,.469,0l3.225-1.861c.142-.078.149-.2,0-.27l-3.083-1.783a.519.519,0,0,0-.469,0l-3.225,1.861c-.142.085-.156.206,0,.27Zm13.362,8.652-3.09-1.783a.519.519,0,0,0-.469,0l-6.23,3.58c-.135.078-.149.2,0,.27L124.28,314a.5.5,0,0,0,.469,0l6.2-3.552c.121-.135.135-.256.014-.327Zm2.174,3.836-3.083-1.783a.519.519,0,0,0-.469,0L125.63,314.5c-.142.078-.149.2,0,.27l3.083,1.783a.519.519,0,0,0,.469,0l3.971-2.295c.114-.107.114-.227-.014-.3Zm19.528-32.727a.519.519,0,0,0,.469,0l3.225-1.868c.135-.078.149-.2,0-.27l-3.09-1.783a.5.5,0,0,0-.469,0l-3.211,1.84c-.135.078-.149.2,0,.27Zm-9.469,5.413a.519.519,0,0,0,.469,0l3.225-1.861c.142-.078.149-.2,0-.27l-3.083-1.783a.518.518,0,0,0-.469,0l-3.225,1.861c-.142.078-.156.2,0,.27ZM122.3,298.753a.518.518,0,0,0,.469,0l3.225-1.861c.135-.085.149-.206,0-.27l-3.083-1.783a.518.518,0,0,0-.469,0l-3.232,1.861c-.135.078-.149.2,0,.27Zm25.63-14.8a.518.518,0,0,0,.469,0l3.225-1.861c.135-.085.149-.206,0-.277l-3.083-1.776a.519.519,0,0,0-.469,0l-3.232,1.861c-.135.078-.149.2,0,.27Zm-9.434,5.449a.547.547,0,0,0,.469,0l3.225-1.861c.142-.078.156-.2,0-.27l-3.083-1.783a.518.518,0,0,0-.469,0l-3.225,1.868c-.142.078-.149.2,0,.27Zm-3.062,24.749a.519.519,0,0,0-.469,0L129.992,317c-.135.085-.149.206,0,.277l3.083,1.776a.519.519,0,0,0,.469,0l4.973-2.841c.135-.078.149-.2,0-.27Zm-3.7-20.842a.547.547,0,0,0,.469,0l3.225-1.861c.135-.078.149-.2,0-.27l-3.09-1.783a.518.518,0,0,0-.469,0l-3.225,1.868c-.135.078-.149.2,0,.27Zm-4.717,2.721a.518.518,0,0,0,.469,0l3.225-1.868c.135-.078.149-.2,0-.27l-3.09-1.783a.526.526,0,0,0-.469,0l-3.225,1.861c-.135.078-.149.2,0,.27ZM222.8,263.71a.5.5,0,0,0-.469,0l-7.942,4.582c-.142.078-.149.2,0,.27l3.083,1.783a.519.519,0,0,0,.469,0l7.935-4.568c.142-.078.149-.2,0-.27Zm-10.428,6.024a.518.518,0,0,0-.469,0L208.68,271.6c-.135.078-.149.2,0,.27l3.09,1.783a.519.519,0,0,0,.469,0l3.225-1.868c.135-.078.149-.2,0-.27ZM148.724,305.2l3.232-1.861c.135-.078.149-.2,0-.27l-3.062-1.776a.519.519,0,0,0-.469,0l-3.225,1.868c-.135.078-.149.2,0,.27l3.09,1.776a.5.5,0,0,0,.455-.007Zm54.223-30.027a.518.518,0,0,0-.469,0l-3.232,1.868c-.135.078-.149.2,0,.27l3.083,1.783a.547.547,0,0,0,.469,0l3.225-1.861c.142-.078.149-.2,0-.27Zm24.572-14.207a.519.519,0,0,0-.469,0l-3.232,1.868c-.135.078-.149.2,0,.27l3.09,1.776a.518.518,0,0,0,.469,0l3.225-1.861c.135-.078.149-.2,0-.27Zm7.814-.938-7.494-4.333a.5.5,0,0,0-.469,0l-3.232,1.861c-.135.078-.149.2,0,.27l7.48,4.4a.519.519,0,0,0,.469,0l3.225-1.861c.135-.121.149-.27.028-.313Zm-50,25.3a.5.5,0,0,0-.469,0l-3.971,2.287c-.135.078-.149.2,0,.27l3.09,1.783a.519.519,0,0,0,.469,0l3.971-2.294c.135-.078.149-.2,0-.27Zm11.913-6.876a.519.519,0,0,0-.469,0l-4.973,2.841c-.135.078-.149.2,0,.27l3.09,1.783a.5.5,0,0,0,.469,0l4.973-2.842c.135-.078.149-.2,0-.27Zm-22.831,13.185a.519.519,0,0,0-.469,0L147.4,306.979c-.135.085-.149.206,0,.277l3.09,1.776a.518.518,0,0,0,.469,0l26.554-15.33c.142-.078.149-.2,0-.27Zm-28.046,16.189a.519.519,0,0,0-.469,0l-3.971,2.295c-.142.078-.156.2,0,.27l3.083,1.783a.518.518,0,0,0,.469,0l3.971-2.295c.135-.078.149-.2,0-.27Zm33.508-19.315a.519.519,0,0,0-.469,0l-3.971,2.295c-.135.078-.149.2,0,.27l3.09,1.783a.519.519,0,0,0,.469,0l3.971-2.295c.135-.078.149-.2,0-.27Zm-38.964,22.5a.519.519,0,0,0-.469,0l-3.971,2.295c-.135.078-.149.2,0,.27l3.09,1.783a.519.519,0,0,0,.469,0l3.971-2.295c.135-.078.149-.2,0-.27Zm49.889-28.813a.547.547,0,0,0-.469,0l-3.971,2.287c-.142.085-.149.206,0,.277l3.083,1.776a.518.518,0,0,0,.469,0l3.943-2.287c.142-.078.149-.2,0-.27Zm16.871-9.739a.518.518,0,0,0-.469,0l-3.225,1.847c-.135.078-.149.2,0,.27l3.09,1.783a.519.519,0,0,0,.469,0l3.225-1.861c.135-.078.149-.2,0-.27Zm10.563-7.388,3.232-1.861c.135-.078.149-.2,0-.27l-3.083-1.783a.518.518,0,0,0-.469,0l-3.225,1.861c-.142.085-.149.206,0,.27l3.1,1.783a.519.519,0,0,0,.44,0ZM199,266l3.232-1.868c.135-.078.149-.2,0-.27l-3.09-1.783a.5.5,0,0,0-.469,0l-3.225,1.861c-.142.078-.149.2,0,.27l3.083,1.783a.519.519,0,0,0,.469.021Zm-12.524,17.425,9.434-5.441c.135-.085.149-.206,0-.277l-3.09-1.776a.518.518,0,0,0-.469,0l-9.4,5.477c-.142.085-.149.206,0,.27l3.083,1.783A.519.519,0,0,0,186.473,283.423Zm26.589-15.628a.5.5,0,0,0,.462,0l3.232-1.861c.135-.078.149-.2,0-.27l-3.09-1.783a.519.519,0,0,0-.469,0l-3.211,1.9c-.135.078-.149.2,0,.27Zm-3.943-2.564,3.225-1.861c.135-.078.149-.2,0-.27l-3.069-1.755a.519.519,0,0,0-.469,0l-3.225,1.861c-.135.078-.149.2,0,.27l3.09,1.783a.519.519,0,0,0,.448,0Zm-27.364,20.885,3.232-1.861c.135-.078.149-.2,0-.27l-3.083-1.783a.518.518,0,0,0-.469,0l-3.225,1.868c-.142.078-.149.2,0,.27l3.083,1.783a.5.5,0,0,0,.462.021Zm20.878-12.3a.518.518,0,0,0,.469,0l3.225-1.868c.142-.078.149-.2,0-.27l-3.083-1.783a.5.5,0,0,0-.469,0l-3.232,1.861c-.135.078-.149.2,0,.27Zm-44.455,25.922,3.225-1.868c.142-.078.149-.2,0-.27l-3.083-1.783a.547.547,0,0,0-.469,0l-3.2,1.932c-.142.078-.149.2,0,.27l3.083,1.783a.519.519,0,0,0,.44-.036Zm4.717-2.728,3.225-1.861c.142-.078.149-.2,0-.27l-3.019-1.755a.519.519,0,0,0-.469,0l-3.232,1.868c-.135.078-.149.2,0,.27l3.09,1.783a.5.5,0,0,0,.4-.007Zm-9.434,5.449,3.232-1.861c.135-.078.149-.2,0-.27l-3.083-1.783a.518.518,0,0,0-.469,0l-3.225,1.861c-.142.078-.149.2,0,.27L153,302.454a.519.519,0,0,0,.462.028Zm18.875-10.862,3.225-1.861c.135-.078.149-.206,0-.27l-3.09-1.783a.519.519,0,0,0-.469,0l-3.218,1.875c-.135.078-.149.2,0,.27l3.09,1.783A.518.518,0,0,0,172.337,291.592Zm-4.717,2.721,3.225-1.861c.135-.078.149-.2,0-.27l-3.09-1.783a.519.519,0,0,0-.469,0l-3.225,1.861c-.135.085-.149.206,0,.277l3.09,1.776a.518.518,0,0,0,.462,0Zm9.427-5.441L180.279,287c.135-.078.149-.2,0-.27l-3.069-1.776a.547.547,0,0,0-.469,0l-3.225,1.861c-.135.078-.149.2,0,.27l3.09,1.783a.5.5,0,0,0,.433,0Zm25.737-37.877a.518.518,0,0,0,.469,0l3.225-1.868c.142-.078.149-.2,0-.27l-.817-.476a.547.547,0,0,0-.469,0l-3.232,1.861c-.135.078-.149.2,0,.27Zm-23.442,14.84a.519.519,0,0,0,.469,0l3.225-1.868c.135-.078.149-.2,0-.27l-3.09-1.776a.518.518,0,0,0-.469,0l-3.225,1.861c-.135.078-.149.2,0,.27Zm9.427-5.449a.519.519,0,0,0,.469,0l3.225-1.861c.142-.078.149-.2,0-.27l-3.076-1.8a.518.518,0,0,0-.469,0l-3.225,1.861c-.142.085-.149.206,0,.277Zm-15.188,8.773a.519.519,0,0,0,.469,0l3.225-1.868c.135-.078.149-.2,0-.27l-3.083-1.783a.547.547,0,0,0-.469,0L170.49,267.1c-.135.078-.149.2,0,.27Zm10.471-6.045a.5.5,0,0,0,.469,0l3.232-1.861c.135-.078.149-.2,0-.27l-3.083-1.783a.519.519,0,0,0-.469,0l-3.225,1.868c-.142.078-.149.2,0,.27ZM164.161,274.6a.519.519,0,0,0,.469,0l3.225-1.861c.142-.078.156-.2,0-.27l-3.083-1.783a.519.519,0,0,0-.469,0l-3.225,1.861c-.142.085-.149.206,0,.277Zm4.717-2.721a.518.518,0,0,0,.469,0l3.225-1.861c.142-.078.149-.2,0-.27l-3.076-1.8a.519.519,0,0,0-.469,0l-3.225,1.861c-.142.078-.156.2,0,.27Zm24.479-15.443a.519.519,0,0,0,.469,0l3.232-1.861c.135-.078.149-.2,0-.27l-.824-.476a.518.518,0,0,0-.469,0L192.54,255.7c-.142.078-.149.2,0,.27Zm14.151-8.162a.526.526,0,0,0,.469,0l3.225-1.861c.135-.078.149-.2,0-.27l-.824-.476a.5.5,0,0,0-.469,0l-3.225,1.861c-.135.078-.149.2,0,.27Zm6.486,3.744a.5.5,0,0,0,.469,0l3.225-1.861c.135-.078.149-.2,0-.27L214.6,248.1a.519.519,0,0,0-.469,0l-3.225,1.868c-.135.078-.149.2,0,.27Zm8.979,10.343L226.2,260.5c.142-.085.149-.206,0-.27l-3.083-1.783a.518.518,0,0,0-.469,0l-3.225,1.861c-.142.078-.149.2,0,.27l3.083,1.783a.519.519,0,0,0,.455,0Zm-24.863-8.645a.518.518,0,0,0,.469,0l3.225-1.861c.142-.078.149-.206,0-.27l-.817-.476a.519.519,0,0,0-.469,0l-3.254,1.883c-.135.078-.149.2,0,.27Zm-38.63,23.613a.5.5,0,0,0,.469,0l3.232-1.861c.135-.078.149-.2,0-.27l-3.09-1.783a.5.5,0,0,0-.469,0l-3.225,1.861c-.135.078-.149.2,0,.27Z" transform="translate(-73.107 -134.524)" fill="#455a64"/>
        <path id="Trazado_125498" data-name="Trazado 125498" d="M199.85,320.071l.7.4,18.633,10.762L252.325,312.1l.689-.391-19.336-11.16Z" transform="translate(-100.016 -150.436)" fill="#263238"/>
        <path id="Trazado_125499" data-name="Trazado 125499" d="M252.357,312.874,234.136,302.36,201.43,321.249l18.214,10.514Z" transform="translate(-100.474 -150.961)" fill="#37474f"/>
      </g>
      <g id="freepik--character--inject-21-2" data-name="freepik--character--inject-21" transform="translate(14.955)">
        <path id="Trazado_125500" data-name="Trazado 125500" d="M124.6,55.733c-5.825-3.815-13.334-3.133-17.4-.057-5.683,4.319-7.686,9.071-8.709,18.47C97.076,87.387,95.584,91.195,94.014,94.2A11.174,11.174,0,0,1,87.45,99.79a7.736,7.736,0,0,0,7.523.305c-1.335,6.393-3.2,11.757-1.542,18.512,1.115,4.546,3.488,9.7,6.99,12.957,2.984,2.778,7.253,3.623,10.84,5.193-2.422-5.193-3.722-10.094-2.046-15.934,1.847-6.443,6.166-11.927,8.077-18.42,2.657-8.979,5.683-18.285,6.443-27.655C124.368,66.85,124.666,61.16,124.6,55.733Z" transform="translate(-82.417 -53.115)" fill="#263238"/>
        <path id="Trazado_125501" data-name="Trazado 125501" d="M131.517,58.318c-.931-.874-5.044-.305-7.53,2.657s-3.964,7.267-.945,9.576C125.869,72.717,136.859,61.187,131.517,58.318Z" transform="translate(-92.237 -54.514)" fill="#fb8c00"/>
        <path id="Trazado_125502" data-name="Trazado 125502" d="M162.95,70.67c2.046-.753,2.92-3.388,2.309-5.484A9.381,9.381,0,0,0,161.11,60.3,21.432,21.432,0,0,0,147,57.016a27.8,27.8,0,0,0-14.172-.71,14.726,14.726,0,0,0-11.366,13.263c-7.3,1.719-10.485,10.656-5.981,20.246,3.275,6.933,10.656,11.728,11.572,15.181l27.662-21.5c1.08,1.684,4.419,1.762,5.782,1.094s2.216-3.14,1.307-4.362a4.818,4.818,0,1,0,1.137-9.569Z" transform="translate(-89.934 -53.866)" fill="#263238"/>
        <path id="Trazado_125503" data-name="Trazado 125503" d="M132.693,56.56A15,15,0,0,0,125,61.469a14.208,14.208,0,0,0-2.358,3.928,14.769,14.769,0,0,0-.98,4.454v.234l-.227.057a9.384,9.384,0,0,0-4.525,2.529,10.9,10.9,0,0,0-2.628,4.5,17.191,17.191,0,0,0,.476,10.45,26.6,26.6,0,0,0,5.541,9.121c1.186,1.364,2.437,2.671,3.637,4.028.6.71,1.208,1.357,1.748,2.131a7.189,7.189,0,0,1,1.264,2.394,7.323,7.323,0,0,0-1.385-2.3,27.036,27.036,0,0,0-1.819-2c-1.272-1.293-2.564-2.564-3.786-3.907a36.148,36.148,0,0,1-3.41-4.262,21.218,21.218,0,0,1-2.429-4.93,19.351,19.351,0,0,1-1.137-5.441,14.875,14.875,0,0,1,.583-5.5,11.572,11.572,0,0,1,2.841-4.767,10.066,10.066,0,0,1,4.866-2.664l-.249.291a14.641,14.641,0,0,1,3.666-8.6,15.11,15.11,0,0,1,3.644-2.976,13.725,13.725,0,0,1,4.362-1.669Z" transform="translate(-89.797 -54.113)"/>
        <path id="Trazado_125504" data-name="Trazado 125504" d="M251.023,134.044c1.52-1.293,1.8-1.627,3.843-3.268a14.613,14.613,0,0,0,3.126-2.913c.767-1.421.05-2.792-.59-2.564-1.286.455-2.806,1.542-5.768,3.552-3.261,2.238-5.562,4.447-5.733,4.092a35.387,35.387,0,0,1,3.474-4.12c3.992-4.312,4.774-5.093,5.505-6.479,1.549-2.884-.625-3.36-1.577-2.763-1.087.71-2.266,1.982-5.122,4.816-3.1,3.076-5.8,6.209-6.045,6.024s4.042-4.88,6.614-8.318c2.38-3.19.831-4.539.149-4.646s-1.556.817-2.707,2.053c-2.081,2.266-8.134,9.7-9.4,11.117s-2.223,1.932-2.387-.362c-.156-2.131-.05-4.447-.987-5.932-1.57-2.479-3.3-1.868-3.31-.213,0,2.344-.561,4.973-.973,8.716-.22,1.954-.185,4.262-.227,5.64-.242,4.752-4.227,7.21-7.544,9.5s-12.353,7.438-12.353,7.438-16.85-17.354-21.766-21.6c-5.839-5.058-7.509-5.413-15.756-5.349l11.664,30s15.856,14.669,21.24,17.8,7.573,1.421,14.115-4.383c5.022-4.454,13.291-14.662,15.287-16.928s2.841-3.729,5.179-4.582c3.147-1.151,4.767-2.735,6.862-5.136,1-1.144,2.657-3.445,4.184-4.973a71.1,71.1,0,0,1,6.528-5.491c1.378-1.158,1.591-3.552-.341-2.785-3.666,1.421-7.338,4.518-7.459,4.312S249.993,134.925,251.023,134.044Z" transform="translate(-106.757 -71.748)" fill="#ffbda7"/>
        <path id="Trazado_125505" data-name="Trazado 125505" d="M261.86,141c1.684,2.479,2.06,8.34.419,11.828C265.668,149.524,265.312,143.55,261.86,141Z" transform="translate(-132.931 -78.569)" fill="#f0997a"/>
        <path id="Trazado_125506" data-name="Trazado 125506" d="M221.822,170.333a13.456,13.456,0,0,0-5.172,12.531c-1.215-4.007-2.266-9.008,3.857-13.994Z" transform="translate(-119.567 -86.641)" fill="#f0997a"/>
        <path id="Trazado_125507" data-name="Trazado 125507" d="M108.576,141.757l6.5-2.6s9.7-2.515,17.759-4.262c8.524-1.073,15.848-1.875,15.848-1.875l2.877-.05s6.393,5.626,11.075,10.819,8.794,9.533,9.057,16.09c.348,8.858-5.342,12.076-5.342,12.076l.348,11.288,7.395,20.921L102.63,245.408c2.174-25.467,7.814-29.665,11-47.318-.611-9.235-5.207-21.908-5.988-28.344C104.917,147.518,108.576,141.757,108.576,141.757Z" transform="translate(-86.814 -76.243)" fill="#fb8c00"/>
        <g id="freepik--Top--inject-21" transform="translate(27.416 11.39)">
          <path id="Trazado_125508" data-name="Trazado 125508" d="M128.408,112.177c.27-3.119.71-9.32.71-9.32-.774,1.03-4.973,2.458-7.814-1.577-3.31-4.653-2.785-7.985-.476-10.215,2.628-2.543,7.232-1.89,9.15,2.131,1.2,2.841,3.552-.511,1.186-4.973-.788-7.857,9.235-2.65,15.479-19.031,6.3-.355,10.1,1.421,13.163,6.663,1.421,2.373,3.076,5.79,2.735,15.685-.44,12.6-2.337,16.566-6.749,18.676-2.032.973-4.12,1.343-8.034,1.051l-.036,1.208a5.81,5.81,0,0,0,.043.838,1.421,1.421,0,0,0,1.335,1.343,32.321,32.321,0,0,0,4.326-.121s3.211,8.07-7.445,10.364a36.726,36.726,0,0,1-26.213-4.227,38.1,38.1,0,0,0,4.568-2.763C127.626,115.53,128.223,114.13,128.408,112.177Z" transform="translate(-118.959 -69.149)" fill="#ffbda7"/>
          <path id="Trazado_125509" data-name="Trazado 125509" d="M126.509,112.891a1.527,1.527,0,1,0,.409-1.106A1.534,1.534,0,0,0,126.509,112.891Z" transform="translate(-121.145 -81.356)" fill="#fafafa"/>
          <path id="Trazado_125510" data-name="Trazado 125510" d="M154.778,111.17l6.848,2.131a3.552,3.552,0,0,1-4.426,2.486,3.758,3.758,0,0,1-2.422-4.617Z" transform="translate(-129.289 -81.319)" fill="#b16668"/>
          <path id="Trazado_125511" data-name="Trazado 125511" d="M155.253,113.389a3.935,3.935,0,0,1,3.964,3.048,3.452,3.452,0,0,1-1.989,0,3.7,3.7,0,0,1-2.508-2.969A4.372,4.372,0,0,1,155.253,113.389Z" transform="translate(-129.316 -81.961)" fill="#f28f8f"/>
          <path id="Trazado_125512" data-name="Trazado 125512" d="M174.822,85.942l-4.312-1.03a2.131,2.131,0,0,1,2.593-1.676A2.33,2.33,0,0,1,174.822,85.942Z" transform="translate(-133.889 -73.211)" fill="#263238"/>
          <path id="Trazado_125513" data-name="Trazado 125513" d="M146.95,85.5l4.2-1.584a2.131,2.131,0,0,0-2.841-1.35A2.358,2.358,0,0,0,146.95,85.5Z" transform="translate(-127.031 -72.989)" fill="#263238"/>
          <path id="Trazado_125514" data-name="Trazado 125514" d="M170.619,94.265a1.911,1.911,0,0,0,1.691,2,1.783,1.783,0,0,0,1.968-1.648,1.9,1.9,0,0,0-1.719-2,1.783,1.783,0,0,0-1.939,1.648Z" transform="translate(-133.92 -75.944)" fill="#263238"/>
          <path id="Trazado_125515" data-name="Trazado 125515" d="M149.469,94.4a1.9,1.9,0,0,0,1.712,2,1.776,1.776,0,0,0,1.968-1.648,1.89,1.89,0,0,0-1.712-2,1.783,1.783,0,0,0-1.968,1.641Z" transform="translate(-127.794 -75.983)" fill="#263238"/>
          <path id="Trazado_125516" data-name="Trazado 125516" d="M152.807,125.038a34.2,34.2,0,0,1-11.742-3.3,11.032,11.032,0,0,1-4.575-5.072,8.73,8.73,0,0,0,3.154,6.393c3.552,2.984,13.17,3.992,13.17,3.992a4.366,4.366,0,0,1-.043-.838Z" transform="translate(-124.036 -82.912)" fill="#f0997a"/>
        </g>
        <g id="freepik--Arm--inject-21" transform="translate(0 65.528)">
          <path id="Trazado_125517" data-name="Trazado 125517" d="M152.31,186.37c3.467-2.948,5.228-4.113,6.9-4.7s7.459-3.438,9.7-4.149c1.421-.455,2.131,1.811.412,3.509-1.343,1.307-4.93,3.14-6.493,4.127s-4.5,5.051-4.5,5.051Z" transform="translate(-101.202 -154.659)" fill="#f0997a"/>
          <path id="Trazado_125518" data-name="Trazado 125518" d="M123.609,202.957c-11.366,6.45-21.311,14.484-32.329,16.14C80.539,220.7,80.205,211.808,80.4,205.181c.242-8.368,4.93-34.609,7.367-43.333,2.586-9.285,4.262-12.709,14.328-16.488,8.311,5.449,6.393,23.442,4.625,30.312-1.882,7.168-4.93,20.558-4.93,20.558s13.1-4.127,16.246-5.79,8.418-8.738,10.5-11c2.841-3.083,4.355-2.792,5.9-2.657,5.065.44,6.194.788,7.3,1.421a2.266,2.266,0,0,1,1.1,1.89c1.343.085,3.332-.085,3.729,2.088a6.087,6.087,0,0,1,.192,1.748,1.463,1.463,0,0,1,.9.44c1.193,1.215-.433,5.782-1.57,6.94-.8.817-2,.987-3.6.874-1.364-.1-.824-1.513-.824-1.513l-1.882.234c-3.893,3.154-4.085,7.814-9.4,9.42A24.186,24.186,0,0,0,123.609,202.957Z" transform="translate(-80.365 -145.36)" fill="#ffbda7"/>
          <path id="Trazado_125519" data-name="Trazado 125519" d="M165.831,193.852,159.8,193h5.825A2.287,2.287,0,0,1,165.831,193.852Z" transform="translate(-103.372 -159.158)" fill="#f0997a"/>
          <path id="Trazado_125520" data-name="Trazado 125520" d="M170.992,199.276l-6.912-.455,6.869-.341A3.615,3.615,0,0,1,170.992,199.276Z" transform="translate(-104.611 -160.745)" fill="#f0997a"/>
          <path id="Trazado_125521" data-name="Trazado 125521" d="M171.682,203.93a2.131,2.131,0,0,1-.867.86,4.525,4.525,0,0,1-1.151.476l.085-.071c-.156.369-.334.71-.5,1.094l-.156-.17a1.371,1.371,0,0,1,1.108.2,1.818,1.818,0,0,1,.654.86,2.131,2.131,0,0,0-.71-.71,1.357,1.357,0,0,0-.938-.114l-.263.071.107-.249c.163-.369.327-.71.511-1.094v-.057h.057a6.293,6.293,0,0,0,1.115-.391A2.514,2.514,0,0,0,171.682,203.93Z" transform="translate(-106.019 -162.323)" fill="#f0997a"/>
          <path id="Trazado_125522" data-name="Trazado 125522" d="M168.484,205.34a20.975,20.975,0,0,1-2.472.327,2.685,2.685,0,0,1-.767,1.371,14.2,14.2,0,0,1-1.264,1.2l1.882-.234a3.058,3.058,0,0,1,2.089-1.307Z" transform="translate(-104.582 -162.732)" fill="#f0997a"/>
          <path id="Trazado_125523" data-name="Trazado 125523" d="M106.625,213.46l-.568,2.479c-4.838,1.577-9.945,5.342-10.947,8.105C95.742,219.718,98.115,216.316,106.625,213.46Z" transform="translate(-84.636 -165.084)" fill="#f0997a"/>
        </g>
        <path id="Trazado_125524" data-name="Trazado 125524" d="M170.426,88.251l-.71-.092a20.764,20.764,0,0,0-7.459.327c-2.472.824-3.325,1.733-4.767,1.769-1.563,0-2.593-.874-5.505-1.662-2.373-.625-6.393-.511-9.59-.178l-1.016.114a1.6,1.6,0,0,0-1.179,1.6,3.4,3.4,0,0,0,.952,1.854,2.294,2.294,0,0,1,.327.753c.327,1.307.519,3.857,1.186,5.264a6.223,6.223,0,0,0,1.307,1.875,4.774,4.774,0,0,0,.668.533l.391.242a5.682,5.682,0,0,0,1.144.469l.192.05.3.071.32.05a7.105,7.105,0,0,0,.995.092h.952c4-.263,5.562-2.287,6.436-4.262s.519-4.582,2.209-4.625h.156a.5.5,0,0,1,.149,0c1.243.256,1.215,2.65,2.081,4.362a7.424,7.424,0,0,0,1.286,1.854,3.779,3.779,0,0,0,.3.284l.156.128.163.128.149.107.163.107.128.071.085.05a4.973,4.973,0,0,0,1.456.526h.128a6.67,6.67,0,0,0,1.712.071,4.639,4.639,0,0,0,4.468-3.644,31.084,31.084,0,0,0,.483-4.653,1.314,1.314,0,0,1,.213-.6,3.062,3.062,0,0,0,.5-1.662C171.314,88.94,170.831,88.3,170.426,88.251Zm-16.1,7.1a5.946,5.946,0,0,1-1.25,2.756h0a5.683,5.683,0,0,1-4.262,1.84,4.745,4.745,0,0,1-4.326-1.811c-.05-.064-.092-.135-.135-.2a1.494,1.494,0,0,1-.128-.192,1.233,1.233,0,0,1-.107-.185l-.092-.163-.064-.135a.921.921,0,0,1-.057-.121c0-.064-.064-.128-.092-.2h0c-.078-.2-.149-.391-.213-.583-.036-.114-.071-.234-.1-.348s-.107-.391-.142-.561v-.206c-.305-1.378-.661-4.07.057-4.681s2.543-1.25,5.484-1.009h.313a11.755,11.755,0,0,1,1.314.206,2.207,2.207,0,0,1,.511.114,9.811,9.811,0,0,1,1.264.384l.391.149c.149.057.284.128.419.192l.085.043.149.078a2.629,2.629,0,0,1,.86.661c.5.767.391,2.465.121,3.95Zm15.195-1.172c-.1.966-.32,3.09-1.982,4.127a3.914,3.914,0,0,1-1.847.568,4.184,4.184,0,0,1-4.028-1.719h0l-.078-.114a1.032,1.032,0,0,1-.085-.135.434.434,0,0,1-.05-.071l-.114-.2-.121-.234c0-.043-.036-.078-.05-.121a.253.253,0,0,1,0-.064.532.532,0,0,1-.043-.092v-.078a7.643,7.643,0,0,1-.305-.952c-.355-1.421-.59-3.055-.142-3.843s2.287-1.641,4.049-1.9c.4-.057.781-.092,1.137-.107h.995l.305.036a4.5,4.5,0,0,1,.568.1h.391l.171.057.27.107h.05a2.571,2.571,0,0,1,.625.391c.476.618.4,3.026.284,4.22Z" transform="translate(-97.694 -63.214)" fill="#37474f"/>
        <path id="Trazado_125525" data-name="Trazado 125525" d="M137.407,89.63,128.3,95.576a5.079,5.079,0,0,1,2.628,1.215l6.99-4.759Z" transform="translate(-94.248 -63.691)" fill="#37474f"/>
        <path id="Trazado_125526" data-name="Trazado 125526" d="M169.542,102.277,164,105.055l-1.421-8.809a2.451,2.451,0,0,1,.881-1.726Z" transform="translate(-104.177 -65.107)" fill="#f0997a"/>
      </g>
      <g id="freepik--video-bar--inject-21" transform="translate(11.747 105.773)">
        <g id="freepik--Window--inject-21">
          <path id="Trazado_125527" data-name="Trazado 125527" d="M186.637,205.307a.83.83,0,0,0-.036-.192v-.036a1.185,1.185,0,0,0-.043-.185,1.108,1.108,0,0,0-.121-.263.349.349,0,0,0-.071-.107.314.314,0,0,0-.057-.071.6.6,0,0,0-.135-.135h0a.631.631,0,0,0-.178-.1,1.485,1.485,0,0,0-1.378.17l-103.1,59.316c-1.13.654-2.053,1.648-2.053,4.525v3.09a1.421,1.421,0,0,0,2.131,1.222l103-59.309a4.546,4.546,0,0,0,2.053-3.552v-4.1C186.651,205.456,186.644,205.385,186.637,205.307Z" transform="translate(-76.898 -202.624)" fill="#455a64" opacity="0.8"/>
          <path id="Trazado_125528" data-name="Trazado 125528" d="M79.132,296.743l-.078-.036-2.131-1.257a2.188,2.188,0,0,1-1.073-1.584v-3.893a4.262,4.262,0,0,1,.71-2.223h0l2.529,1.456a5.889,5.889,0,0,0-.668,2.991v3.31a1.513,1.513,0,0,0,.1.5A1.421,1.421,0,0,0,79.132,296.743Z" transform="translate(-75.85 -226.844)" fill="#263238" opacity="0.9"/>
          <path id="Trazado_125529" data-name="Trazado 125529" d="M185.209,203.595a1.47,1.47,0,0,0-1.378.178L80.755,263.1a4.374,4.374,0,0,0-.568.4,2.947,2.947,0,0,0-.341.327,2.882,2.882,0,0,0-.455.6l-2.572-1.478a4.427,4.427,0,0,1,.433-.583l.163-.178.17-.163.178-.149a3.14,3.14,0,0,1,.369-.256l103.082-59.33a1.421,1.421,0,0,1,1.485-.121C183.078,202.394,184.768,203.36,185.209,203.595Z" transform="translate(-76.131 -202.013)" fill="#455a64" opacity="0.6"/>
          <path id="Trazado_125530" data-name="Trazado 125530" d="M80.47,300.41Z" transform="translate(-77.188 -230.511)" fill="#263238" opacity="0.9"/>
        </g>
        <path id="Trazado_125531" data-name="Trazado 125531" d="M90.38,290.2v-2.522c0-.185.114-.376.227-.376h2.223c.142,0,.142.32,0,.49l-2.223,2.536C90.494,290.433,90.38,290.376,90.38,290.2Z" transform="translate(-80.058 -226.714)" fill="#fff"/>
        <path id="Trazado_125532" data-name="Trazado 125532" d="M97.66,285.991v-2.522c0-.178.114-.369.227-.369h2.223c.142,0,.142.32,0,.483L97.9,286.1C97.774,286.233,97.66,286.176,97.66,285.991Z" transform="translate(-82.167 -225.498)" fill="#fff"/>
        <path id="Trazado_125533" data-name="Trazado 125533" d="M101.43,284.073h0c-.092.057-.17,0-.17-.128v-2.586a.419.419,0,0,1,.17-.327h0c.092-.05.17,0,.17.128v2.593a.4.4,0,0,1-.171.32Z" transform="translate(-83.209 -224.893)" fill="#fff"/>
        <path id="Trazado_125534" data-name="Trazado 125534" d="M85.658,292.414v-2.486c0-.178-.114-.234-.227-.114l-2.216,2.543c-.149.171-.149.49,0,.49h2.216A.569.569,0,0,0,85.658,292.414Z" transform="translate(-77.951 -227.424)" fill="#fff"/>
        <path id="Trazado_125535" data-name="Trazado 125535" d="M82.79,294.839h0a.4.4,0,0,0,.17-.32v-2.579c0-.121-.078-.178-.17-.128h0a.419.419,0,0,0-.17.327v2.586C82.62,294.839,82.7,294.9,82.79,294.839Z" transform="translate(-77.811 -228.016)" fill="#fff"/>
        <path id="Trazado_125536" data-name="Trazado 125536" d="M223.239,211.622a.206.206,0,0,1-.2-.2v-1.151a.206.206,0,0,1,.1-.171l.923-.533a.2.2,0,0,1,.27.071.192.192,0,0,1-.071.263l-.831.483v1.037A.2.2,0,0,1,223.239,211.622Z" transform="translate(-118.48 -204.194)" fill="#fff"/>
        <path id="Trazado_125537" data-name="Trazado 125537" d="M226.4,209.792a.2.2,0,0,1-.2-.192v-.817l-.625.362a.2.2,0,0,1-.27-.071.192.192,0,0,1,.071-.263l.923-.533a.2.2,0,0,1,.2,0,.185.185,0,0,1,.092.163V209.6A.192.192,0,0,1,226.4,209.792Z" transform="translate(-119.13 -203.82)" fill="#fff"/>
        <path id="Trazado_125538" data-name="Trazado 125538" d="M225.48,213.394a.193.193,0,0,1-.1-.362l.824-.476v-1.044a.2.2,0,0,1,.2-.192.192.192,0,0,1,.192.192v1.158a.2.2,0,0,1-.092.17l-.923.533Z" transform="translate(-119.13 -204.708)" fill="#fff"/>
        <path id="Trazado_125539" data-name="Trazado 125539" d="M223.239,214.92a.235.235,0,0,1-.1,0,.206.206,0,0,1-.1-.171V213.6a.206.206,0,0,1,.2-.2.2.2,0,0,1,.192.2v.81l.632-.362a.2.2,0,1,1,.2.341l-.924.533a.263.263,0,0,1-.1,0Z" transform="translate(-118.48 -205.311)" fill="#fff"/>
        <path id="Trazado_125540" data-name="Trazado 125540" d="M220.027,212.966l-.376.149h-.05a1.319,1.319,0,0,0-.092-.242s0-.078,0-.121l.213-.476v-.107l-.3-.22a.094.094,0,0,0-.078.064l-.263.426c0,.043-.057.078-.078.071a.832.832,0,0,0-.227,0,.046.046,0,0,1-.043-.043l-.036-.476s0-.036-.05,0l-.4.242a.092.092,0,0,0-.05.085l-.043.5a.234.234,0,0,1-.05.114,1.913,1.913,0,0,0-.2.22.135.135,0,0,1-.085.057l-.3-.156a.106.106,0,0,0-.064.078l-.263.5c0,.043-.043.092,0,.107l.241.263a.2.2,0,0,1,0,.114,2.449,2.449,0,0,0-.085.305.185.185,0,0,1-.064.107l-.362.263a.128.128,0,0,0-.043.092v.54c0,.036,0,.057.043.043l.369-.163h.05a1.3,1.3,0,0,0,.1.249.213.213,0,0,1,0,.121l-.206.462v.107l.3.234s.043,0,.071-.064l.263-.426a.089.089,0,0,1,.078-.078.49.49,0,0,0,.227,0,.05.05,0,0,1,.043.05l.043.469s0,.043.05,0l.4-.234a.135.135,0,0,0,.05-.085l.036-.511a.2.2,0,0,1,.057-.107,1.478,1.478,0,0,0,.192-.227c.036-.036.064-.064.085-.05l.3.142a.094.094,0,0,0,.078-.064l.256-.5c0-.05.036-.1,0-.114l-.234-.263a.135.135,0,0,1,0-.107,2.416,2.416,0,0,0,.078-.305.249.249,0,0,1,.064-.114l.362-.263a.135.135,0,0,0,.05-.092v-.54C220.07,212.966,220.048,212.952,220.027,212.966Zm-1.556,2.131c-.376.22-.71,0-.71-.519a1.669,1.669,0,0,1,.71-1.321c.384-.213.71,0,.71.526a1.641,1.641,0,0,1-.71,1.328Z" transform="translate(-116.696 -204.891)" fill="#fff"/>
        <path id="Trazado_125541" data-name="Trazado 125541" d="M126.133,264.286V263L106.6,274.281a1.343,1.343,0,0,0-.675,1.016c0,.348.3.455.675.234Z" transform="translate(-84.562 -219.676)" fill="#26aab7"/>
        <path id="Trazado_125542" data-name="Trazado 125542" d="M189.722,218.123a.76.76,0,0,0-.263.1L134.37,250v1.257l55.089-31.8a1.477,1.477,0,0,0,.483-.455,1.769,1.769,0,0,0,.142-.284.76.76,0,0,0,.05-.277.313.313,0,0,0-.412-.313Z" transform="translate(-92.799 -206.674)" fill="#fff" opacity="0.5"/>
        <path id="Trazado_125543" data-name="Trazado 125543" d="M134.954,262.9a2.38,2.38,0,0,1-.98,1.868c-.54.305-.973,0-.973-.746a2.33,2.33,0,0,1,.973-1.861C134.506,261.849,134.954,262.176,134.954,262.9Z" transform="translate(-92.402 -219.399)" fill="#26aab7"/>
        <path id="Trazado_125544" data-name="Trazado 125544" d="M134.954,262.9a2.38,2.38,0,0,1-.98,1.868c-.54.305-.973,0-.973-.746a2.33,2.33,0,0,1,.973-1.861C134.506,261.849,134.954,262.176,134.954,262.9Z" transform="translate(-92.402 -219.399)" fill="#fff" opacity="0.5"/>
        <path id="Trazado_125545" data-name="Trazado 125545" d="M134.744,263.305a1.527,1.527,0,0,1-.632,1.208c-.348.2-.632,0-.632-.483a1.506,1.506,0,0,1,.632-1.2C134.46,262.63,134.744,262.836,134.744,263.305Z" transform="translate(-92.541 -219.605)" fill="#26aab7"/>
      </g>
    </g>
  </g>
</svg>
