<svg xmlns="http://www.w3.org/2000/svg" width="586.75" height="582.742" viewBox="0 0 586.75 582.742">
  <g id="Grupo_71742" data-name="Grupo 71742" transform="translate(-191 -4068)">
    <g id="foco-02" transform="translate(191 4068)">
      <circle id="Elipse_4609" data-name="Elipse 4609" cx="25.536" cy="25.536" r="25.536" transform="translate(0 0)" fill="#a32330"/>
      <circle id="Elipse_4610" data-name="Elipse 4610" cx="25.536" cy="25.536" r="25.536" transform="translate(64.881 0)" fill="#a32330"/>
      <circle id="Elipse_4611" data-name="Elipse 4611" cx="25.536" cy="25.536" r="25.536" transform="translate(129.9 0)" fill="#a32330"/>
      <circle id="Elipse_4612" data-name="Elipse 4612" cx="25.536" cy="25.536" r="25.536" transform="translate(0 66.759)" fill="#a32330"/>
      <circle id="Elipse_4613" data-name="Elipse 4613" cx="25.536" cy="25.536" r="25.536" transform="translate(64.881 66.759)" fill="#d0d2d3"/>
      <circle id="Elipse_4614" data-name="Elipse 4614" cx="25.536" cy="25.536" r="25.536" transform="translate(129.9 66.759)" fill="#a32330"/>
      <circle id="Elipse_4615" data-name="Elipse 4615" cx="25.536" cy="25.536" r="25.536" transform="translate(0 132.305)" fill="#a32330"/>
      <circle id="Elipse_4616" data-name="Elipse 4616" cx="25.536" cy="25.536" r="25.536" transform="translate(64.881 132.305)" fill="#a32330"/>
      <circle id="Elipse_4617" data-name="Elipse 4617" cx="25.536" cy="25.536" r="25.536" transform="translate(129.9 132.305)" fill="#a32330"/>
      <circle id="Elipse_4618" data-name="Elipse 4618" cx="25.536" cy="25.536" r="25.536" transform="translate(0 202.866)" fill="#d35a30"/>
      <circle id="Elipse_4619" data-name="Elipse 4619" cx="25.536" cy="25.536" r="25.536" transform="translate(64.881 202.866)" fill="#d35a30"/>
      <circle id="Elipse_4620" data-name="Elipse 4620" cx="25.536" cy="25.536" r="25.536" transform="translate(129.9 202.866)" fill="#d35a30"/>
      <circle id="Elipse_4621" data-name="Elipse 4621" cx="25.536" cy="25.536" r="25.536" transform="translate(0 269.626)" fill="#d35a30"/>
      <circle id="Elipse_4622" data-name="Elipse 4622" cx="25.536" cy="25.536" r="25.536" transform="translate(64.881 269.626)" fill="#d0d2d3"/>
      <circle id="Elipse_4623" data-name="Elipse 4623" cx="72.691" cy="72.691" r="72.691" transform="translate(217.615 222.47)" fill="#d0d2d3"/>
      <circle id="Elipse_4624" data-name="Elipse 4624" cx="25.536" cy="25.536" r="25.536" transform="translate(129.9 269.626)" fill="#d35a30"/>
      <circle id="Elipse_4625" data-name="Elipse 4625" cx="25.536" cy="25.536" r="25.536" transform="translate(0 335.171)" fill="#d35a30"/>
      <circle id="Elipse_4626" data-name="Elipse 4626" cx="25.536" cy="25.536" r="25.536" transform="translate(64.881 335.171)" fill="#d35a30"/>
      <circle id="Elipse_4627" data-name="Elipse 4627" cx="25.536" cy="25.536" r="25.536" transform="translate(129.9 335.171)" fill="#d35a30"/>
      <circle id="Elipse_4628" data-name="Elipse 4628" cx="25.536" cy="25.536" r="25.536" transform="translate(0 399.343)" fill="#f0c54d"/>
      <circle id="Elipse_4629" data-name="Elipse 4629" cx="25.536" cy="25.536" r="25.536" transform="translate(64.881 399.343)" fill="#f0c54d"/>
      <circle id="Elipse_4630" data-name="Elipse 4630" cx="25.536" cy="25.536" r="25.536" transform="translate(129.9 399.343)" fill="#f0c54d"/>
      <circle id="Elipse_4631" data-name="Elipse 4631" cx="25.536" cy="25.536" r="25.536" transform="translate(0 466.102)" fill="#f0c54d"/>
      <circle id="Elipse_4632" data-name="Elipse 4632" cx="25.536" cy="25.536" r="25.536" transform="translate(64.881 466.102)" fill="#d0d2d3"/>
      <circle id="Elipse_4633" data-name="Elipse 4633" cx="25.536" cy="25.536" r="25.536" transform="translate(129.9 466.102)" fill="#f0c54d"/>
      <circle id="Elipse_4634" data-name="Elipse 4634" cx="25.536" cy="25.536" r="25.536" transform="translate(0 531.671)" fill="#f0c54d"/>
      <circle id="Elipse_4635" data-name="Elipse 4635" cx="25.536" cy="25.536" r="25.536" transform="translate(64.881 531.671)" fill="#f0c54d"/>
      <circle id="Elipse_4636" data-name="Elipse 4636" cx="25.536" cy="25.536" r="25.536" transform="translate(129.9 531.671)" fill="#f0c54d"/>
      <circle id="Elipse_4637" data-name="Elipse 4637" cx="25.536" cy="25.536" r="25.536" transform="translate(405.778 0)" fill="#5ea59c"/>
      <circle id="Elipse_4638" data-name="Elipse 4638" cx="25.536" cy="25.536" r="25.536" transform="translate(470.66 0)" fill="#5ea59c"/>
      <circle id="Elipse_4639" data-name="Elipse 4639" cx="25.536" cy="25.536" r="25.536" transform="translate(535.679 0)" fill="#5ea59c"/>
      <circle id="Elipse_4640" data-name="Elipse 4640" cx="25.536" cy="25.536" r="25.536" transform="translate(405.778 66.759)" fill="#5ea59c"/>
      <circle id="Elipse_4641" data-name="Elipse 4641" cx="25.536" cy="25.536" r="25.536" transform="translate(470.66 66.759)" fill="#d0d2d3"/>
      <circle id="Elipse_4642" data-name="Elipse 4642" cx="25.536" cy="25.536" r="25.536" transform="translate(535.679 66.759)" fill="#5ea59c"/>
      <circle id="Elipse_4643" data-name="Elipse 4643" cx="25.536" cy="25.536" r="25.536" transform="translate(405.778 132.305)" fill="#5ea59c"/>
      <circle id="Elipse_4644" data-name="Elipse 4644" cx="25.536" cy="25.536" r="25.536" transform="translate(470.66 132.305)" fill="#5ea59c"/>
      <circle id="Elipse_4645" data-name="Elipse 4645" cx="25.536" cy="25.536" r="25.536" transform="translate(535.679 132.305)" fill="#5ea59c"/>
      <circle id="Elipse_4646" data-name="Elipse 4646" cx="25.536" cy="25.536" r="25.536" transform="translate(199.202 0)" fill="#872461"/>
      <circle id="Elipse_4647" data-name="Elipse 4647" cx="25.536" cy="25.536" r="25.536" transform="translate(264.083 0)" fill="#872461"/>
      <circle id="Elipse_4648" data-name="Elipse 4648" cx="25.536" cy="25.536" r="25.536" transform="translate(329.102 0)" fill="#872461"/>
      <circle id="Elipse_4649" data-name="Elipse 4649" cx="25.536" cy="25.536" r="25.536" transform="translate(199.202 66.759)" fill="#872461"/>
      <circle id="Elipse_4650" data-name="Elipse 4650" cx="25.536" cy="25.536" r="25.536" transform="translate(264.083 66.759)" fill="#d0d2d3"/>
      <circle id="Elipse_4651" data-name="Elipse 4651" cx="25.536" cy="25.536" r="25.536" transform="translate(329.102 66.759)" fill="#872461"/>
      <circle id="Elipse_4652" data-name="Elipse 4652" cx="25.536" cy="25.536" r="25.536" transform="translate(199.202 132.305)" fill="#872461"/>
      <circle id="Elipse_4653" data-name="Elipse 4653" cx="25.536" cy="25.536" r="25.536" transform="translate(264.083 132.305)" fill="#872461"/>
      <circle id="Elipse_4654" data-name="Elipse 4654" cx="25.536" cy="25.536" r="25.536" transform="translate(329.102 132.305)" fill="#872461"/>
      <circle id="Elipse_4655" data-name="Elipse 4655" cx="25.536" cy="25.536" r="25.536" transform="translate(405.778 202.866)" fill="#9ec54d"/>
      <circle id="Elipse_4656" data-name="Elipse 4656" cx="25.536" cy="25.536" r="25.536" transform="translate(470.66 202.866)" fill="#9ec54d"/>
      <circle id="Elipse_4657" data-name="Elipse 4657" cx="25.536" cy="25.536" r="25.536" transform="translate(535.679 202.866)" fill="#9ec54d"/>
      <circle id="Elipse_4658" data-name="Elipse 4658" cx="25.536" cy="25.536" r="25.536" transform="translate(405.778 269.626)" fill="#9ec54d"/>
      <circle id="Elipse_4659" data-name="Elipse 4659" cx="25.536" cy="25.536" r="25.536" transform="translate(470.66 269.626)" fill="#d0d2d3"/>
      <circle id="Elipse_4660" data-name="Elipse 4660" cx="25.536" cy="25.536" r="25.536" transform="translate(535.679 269.626)" fill="#9ec54d"/>
      <circle id="Elipse_4661" data-name="Elipse 4661" cx="25.536" cy="25.536" r="25.536" transform="translate(405.778 335.171)" fill="#9ec54d"/>
      <circle id="Elipse_4662" data-name="Elipse 4662" cx="25.536" cy="25.536" r="25.536" transform="translate(470.66 335.171)" fill="#9ec54d"/>
      <circle id="Elipse_4663" data-name="Elipse 4663" cx="25.536" cy="25.536" r="25.536" transform="translate(535.679 335.171)" fill="#9ec54d"/>
      <circle id="Elipse_4664" data-name="Elipse 4664" cx="25.536" cy="25.536" r="25.536" transform="translate(405.778 399.343)" fill="#c4d64c"/>
      <circle id="Elipse_4665" data-name="Elipse 4665" cx="25.536" cy="25.536" r="25.536" transform="translate(470.66 399.343)" fill="#c4d64c"/>
      <circle id="Elipse_4666" data-name="Elipse 4666" cx="25.536" cy="25.536" r="25.536" transform="translate(535.679 399.343)" fill="#c4d64c"/>
      <circle id="Elipse_4667" data-name="Elipse 4667" cx="25.536" cy="25.536" r="25.536" transform="translate(405.778 466.102)" fill="#c4d64c"/>
      <circle id="Elipse_4668" data-name="Elipse 4668" cx="25.536" cy="25.536" r="25.536" transform="translate(470.66 466.102)" fill="#d0d2d3"/>
      <circle id="Elipse_4669" data-name="Elipse 4669" cx="25.536" cy="25.536" r="25.536" transform="translate(535.679 466.102)" fill="#c4d64c"/>
      <circle id="Elipse_4670" data-name="Elipse 4670" cx="25.536" cy="25.536" r="25.536" transform="translate(405.778 531.671)" fill="#c4d64c"/>
      <circle id="Elipse_4671" data-name="Elipse 4671" cx="25.536" cy="25.536" r="25.536" transform="translate(470.66 531.671)" fill="#c4d64c"/>
      <circle id="Elipse_4672" data-name="Elipse 4672" cx="25.536" cy="25.536" r="25.536" transform="translate(535.679 531.671)" fill="#c4d64c"/>
      <circle id="Elipse_4673" data-name="Elipse 4673" cx="25.536" cy="25.536" r="25.536" transform="translate(199.271 399.343)" fill="#f5ec4a"/>
      <circle id="Elipse_4674" data-name="Elipse 4674" cx="25.536" cy="25.536" r="25.536" transform="translate(264.152 399.343)" fill="#f5ec4a"/>
      <circle id="Elipse_4675" data-name="Elipse 4675" cx="25.536" cy="25.536" r="25.536" transform="translate(329.171 399.343)" fill="#f5ec4a"/>
      <circle id="Elipse_4676" data-name="Elipse 4676" cx="25.536" cy="25.536" r="25.536" transform="translate(199.271 466.102)" fill="#f5ec4a"/>
      <circle id="Elipse_4677" data-name="Elipse 4677" cx="25.536" cy="25.536" r="25.536" transform="translate(264.152 466.102)" fill="#d0d2d3"/>
      <circle id="Elipse_4678" data-name="Elipse 4678" cx="25.536" cy="25.536" r="25.536" transform="translate(329.171 466.102)" fill="#f5ec4a"/>
      <circle id="Elipse_4679" data-name="Elipse 4679" cx="25.536" cy="25.536" r="25.536" transform="translate(199.271 531.671)" fill="#f5ec4a"/>
      <circle id="Elipse_4680" data-name="Elipse 4680" cx="25.536" cy="25.536" r="25.536" transform="translate(264.152 531.671)" fill="#f5ec4a"/>
      <circle id="Elipse_4681" data-name="Elipse 4681" cx="25.536" cy="25.536" r="25.536" transform="translate(329.171 531.671)" fill="#f5ec4a"/>
    </g>
    <g id="Grupo_71741" data-name="Grupo 71741" transform="translate(207.279 4072.679)">
      <text id="_6" data-name="6" transform="translate(0 30)" fill="#fff" font-size="29" font-family="Roboto-Regular, Roboto"><tspan x="0" y="0">6</tspan></text>
      <text id="_6-2" data-name="6" transform="translate(406.062 30)" fill="#fff" font-size="29" font-family="Roboto-Regular, Roboto"><tspan x="0" y="0">6</tspan></text>
      <text id="_6-3" data-name="6" transform="translate(198.057 30)" fill="#fff" font-size="29" font-family="Roboto-Regular, Roboto"><tspan x="0" y="0">6</tspan></text>
      <text id="_6-4" data-name="6" transform="translate(0 234.387)" fill="#fff" font-size="29" font-family="Roboto-Regular, Roboto"><tspan x="0" y="0">6</tspan></text>
      <text id="_6-5" data-name="6" transform="translate(406.062 234.387)" fill="#fff" font-size="29" font-family="Roboto-Regular, Roboto"><tspan x="0" y="0">6</tspan></text>
      <text id="_6-6" data-name="6" transform="translate(0 431.52)" fill="#fff" font-size="29" font-family="Roboto-Regular, Roboto"><tspan x="0" y="0">6</tspan></text>
      <text id="_6-7" data-name="6" transform="translate(406.062 431.52)" fill="#fff" font-size="29" font-family="Roboto-Regular, Roboto"><tspan x="0" y="0">6</tspan></text>
      <text id="_6-8" data-name="6" transform="translate(198.057 431.52)" fill="#fff" font-size="29" font-family="Roboto-Regular, Roboto"><tspan x="0" y="0">6</tspan></text>
      <text id="_5" data-name="5" transform="translate(0 161.723)" fill="#fff" font-size="29" font-family="Roboto-Regular, Roboto"><tspan x="0" y="0">5</tspan></text>
      <text id="_5-2" data-name="5" transform="translate(406.062 161.723)" fill="#fff" font-size="29" font-family="Roboto-Regular, Roboto"><tspan x="0" y="0">5</tspan></text>
      <text id="_5-3" data-name="5" transform="translate(198.057 161.723)" fill="#fff" font-size="29" font-family="Roboto-Regular, Roboto"><tspan x="0" y="0">5</tspan></text>
      <text id="_5-4" data-name="5" transform="translate(0 366.111)" fill="#fff" font-size="29" font-family="Roboto-Regular, Roboto"><tspan x="0" y="0">5</tspan></text>
      <text id="_5-5" data-name="5" transform="translate(406.062 366.111)" fill="#fff" font-size="29" font-family="Roboto-Regular, Roboto"><tspan x="0" y="0">5</tspan></text>
      <text id="_5-6" data-name="5" transform="translate(0 563.244)" fill="#fff" font-size="29" font-family="Roboto-Regular, Roboto"><tspan x="0" y="0">5</tspan></text>
      <text id="_5-7" data-name="5" transform="translate(406.062 563.244)" fill="#fff" font-size="29" font-family="Roboto-Regular, Roboto"><tspan x="0" y="0">5</tspan></text>
      <text id="_5-8" data-name="5" transform="translate(198.057 563.244)" fill="#fff" font-size="29" font-family="Roboto-Regular, Roboto"><tspan x="0" y="0">5</tspan></text>
      <text id="_2" data-name="2" transform="translate(0 96.314)" fill="#fff" font-size="29" font-family="Roboto-Regular, Roboto"><tspan x="0" y="0">2</tspan></text>
      <text id="_2-2" data-name="2" transform="translate(406.062 96.314)" fill="#fff" font-size="29" font-family="Roboto-Regular, Roboto"><tspan x="0" y="0">2</tspan></text>
      <text id="_2-3" data-name="2" transform="translate(198.057 96.314)" fill="#fff" font-size="29" font-family="Roboto-Regular, Roboto"><tspan x="0" y="0">2</tspan></text>
      <text id="_2-4" data-name="2" transform="translate(0 300.701)" fill="#fff" font-size="29" font-family="Roboto-Regular, Roboto"><tspan x="0" y="0">2</tspan></text>
      <text id="_2-5" data-name="2" transform="translate(406.062 300.701)" fill="#fff" font-size="29" font-family="Roboto-Regular, Roboto"><tspan x="0" y="0">2</tspan></text>
      <text id="_2-6" data-name="2" transform="translate(0 497.834)" fill="#fff" font-size="29" font-family="Roboto-Regular, Roboto"><tspan x="0" y="0">2</tspan></text>
      <text id="_2-7" data-name="2" transform="translate(406.062 497.834)" fill="#fff" font-size="29" font-family="Roboto-Regular, Roboto"><tspan x="0" y="0">2</tspan></text>
      <text id="_2-8" data-name="2" transform="translate(198.057 497.834)" fill="#fff" font-size="29" font-family="Roboto-Regular, Roboto"><tspan x="0" y="0">2</tspan></text>
      <text id="_3" data-name="3" transform="translate(65.115 30)" fill="#fff" font-size="29" font-family="Roboto-Regular, Roboto"><tspan x="0" y="0">3</tspan></text>
      <text id="_3-2" data-name="3" transform="translate(471.176 30)" fill="#fff" font-size="29" font-family="Roboto-Regular, Roboto"><tspan x="0" y="0">3</tspan></text>
      <text id="_3-3" data-name="3" transform="translate(263.171 30)" fill="#fff" font-size="29" font-family="Roboto-Regular, Roboto"><tspan x="0" y="0">3</tspan></text>
      <text id="_3-4" data-name="3" transform="translate(65.115 234.387)" fill="#fff" font-size="29" font-family="Roboto-Regular, Roboto"><tspan x="0" y="0">3</tspan></text>
      <text id="_3-5" data-name="3" transform="translate(471.176 234.387)" fill="#fff" font-size="29" font-family="Roboto-Regular, Roboto"><tspan x="0" y="0">3</tspan></text>
      <text id="_3-6" data-name="3" transform="translate(65.115 431.52)" fill="#fff" font-size="29" font-family="Roboto-Regular, Roboto"><tspan x="0" y="0">3</tspan></text>
      <text id="_3-7" data-name="3" transform="translate(471.176 431.52)" fill="#fff" font-size="29" font-family="Roboto-Regular, Roboto"><tspan x="0" y="0">3</tspan></text>
      <text id="_3-8" data-name="3" transform="translate(263.171 431.52)" fill="#fff" font-size="29" font-family="Roboto-Regular, Roboto"><tspan x="0" y="0">3</tspan></text>
      <text id="F" transform="translate(65.115 96.314)" fill="#727997" font-size="29" font-family="Roboto-Regular, Roboto"><tspan x="0" y="0">F</tspan></text>
      <text id="G" transform="translate(471.176 96.314)" fill="#727997" font-size="29" font-family="Roboto-Regular, Roboto"><tspan x="0" y="0">G</tspan></text>
      <text id="C" transform="translate(263.171 96.314)" fill="#727997" font-size="29" font-family="Roboto-Regular, Roboto"><tspan x="0" y="0">C</tspan></text>
      <text id="FOCO" transform="translate(234.232 300.701)" fill="#727997" font-size="29" font-family="Roboto-Regular, Roboto"><tspan x="0" y="0">FOCO</tspan></text>
      <text id="B" transform="translate(65.115 300.701)" fill="#727997" font-size="29" font-family="Roboto-Regular, Roboto"><tspan x="0" y="0">B</tspan></text>
      <text id="D" transform="translate(471.176 300.701)" fill="#727997" font-size="29" font-family="Roboto-Regular, Roboto"><tspan x="0" y="0">D</tspan></text>
      <text id="E" transform="translate(65.115 493.217)" fill="#727997" font-size="28" font-family="Roboto-Regular, Roboto"><tspan x="0" y="0">E</tspan></text>
      <text id="H" transform="translate(468.463 494.217)" fill="#727997" font-size="29" font-family="Roboto-Regular, Roboto"><tspan x="0" y="0">H</tspan></text>
      <text id="A" transform="translate(263.171 494.217)" fill="#727997" font-size="29" font-family="Roboto-Regular, Roboto"><tspan x="0" y="0">A</tspan></text>
      <text id="_1" data-name="1" transform="translate(66.019 161.723)" fill="#fff" font-size="29" font-family="Roboto-Regular, Roboto"><tspan x="0" y="0">1</tspan></text>
      <text id="_1-2" data-name="1" transform="translate(472.081 161.723)" fill="#fff" font-size="29" font-family="Roboto-Regular, Roboto"><tspan x="0" y="0">1</tspan></text>
      <text id="_1-3" data-name="1" transform="translate(264.076 161.723)" fill="#fff" font-size="29" font-family="Roboto-Regular, Roboto"><tspan x="0" y="0">1</tspan></text>
      <text id="_1-4" data-name="1" transform="translate(66.019 366.111)" fill="#fff" font-size="29" font-family="Roboto-Regular, Roboto"><tspan x="0" y="0">1</tspan></text>
      <text id="_1-5" data-name="1" transform="translate(472.081 366.111)" fill="#fff" font-size="29" font-family="Roboto-Regular, Roboto"><tspan x="0" y="0">1</tspan></text>
      <text id="_1-6" data-name="1" transform="translate(66.019 563.244)" fill="#fff" font-size="29" font-family="Roboto-Regular, Roboto"><tspan x="0" y="0">1</tspan></text>
      <text id="_1-7" data-name="1" transform="translate(472.081 563.244)" fill="#fff" font-size="29" font-family="Roboto-Regular, Roboto"><tspan x="0" y="0">1</tspan></text>
      <text id="_1-8" data-name="1" transform="translate(264.076 563.244)" fill="#fff" font-size="29" font-family="Roboto-Regular, Roboto"><tspan x="0" y="0">1</tspan></text>
      <text id="_7" data-name="7" transform="translate(131.133 30)" fill="#fff" font-size="29" font-family="Roboto-Regular, Roboto"><tspan x="0" y="0">7</tspan></text>
      <text id="_7-2" data-name="7" transform="translate(537.195 30)" fill="#fff" font-size="29" font-family="Roboto-Regular, Roboto"><tspan x="0" y="0">7</tspan></text>
      <text id="_7-3" data-name="7" transform="translate(329.19 30)" fill="#fff" font-size="29" font-family="Roboto-Regular, Roboto"><tspan x="0" y="0">7</tspan></text>
      <text id="_7-4" data-name="7" transform="translate(131.133 234.387)" fill="#fff" font-size="29" font-family="Roboto-Regular, Roboto"><tspan x="0" y="0">7</tspan></text>
      <text id="_7-5" data-name="7" transform="translate(537.195 234.387)" fill="#fff" font-size="29" font-family="Roboto-Regular, Roboto"><tspan x="0" y="0">7</tspan></text>
      <text id="_7-6" data-name="7" transform="translate(131.133 431.52)" fill="#fff" font-size="29" font-family="Roboto-Regular, Roboto"><tspan x="0" y="0">7</tspan></text>
      <text id="_7-7" data-name="7" transform="translate(537.195 431.52)" fill="#fff" font-size="29" font-family="Roboto-Regular, Roboto"><tspan x="0" y="0">7</tspan></text>
      <text id="_7-8" data-name="7" transform="translate(329.19 431.52)" fill="#fff" font-size="29" font-family="Roboto-Regular, Roboto"><tspan x="0" y="0">7</tspan></text>
      <text id="_8" data-name="8" transform="translate(131.133 161.723)" fill="#fff" font-size="29" font-family="Roboto-Regular, Roboto"><tspan x="0" y="0">8</tspan></text>
      <text id="_8-2" data-name="8" transform="translate(537.195 161.723)" fill="#fff" font-size="29" font-family="Roboto-Regular, Roboto"><tspan x="0" y="0">8</tspan></text>
      <text id="_8-3" data-name="8" transform="translate(329.19 161.723)" fill="#fff" font-size="29" font-family="Roboto-Regular, Roboto"><tspan x="0" y="0">8</tspan></text>
      <text id="_8-4" data-name="8" transform="translate(131.133 366.111)" fill="#fff" font-size="29" font-family="Roboto-Regular, Roboto"><tspan x="0" y="0">8</tspan></text>
      <text id="_8-5" data-name="8" transform="translate(537.195 366.111)" fill="#fff" font-size="29" font-family="Roboto-Regular, Roboto"><tspan x="0" y="0">8</tspan></text>
      <text id="_8-6" data-name="8" transform="translate(131.133 563.244)" fill="#fff" font-size="29" font-family="Roboto-Regular, Roboto"><tspan x="0" y="0">8</tspan></text>
      <text id="_8-7" data-name="8" transform="translate(537.195 563.244)" fill="#fff" font-size="29" font-family="Roboto-Regular, Roboto"><tspan x="0" y="0">8</tspan></text>
      <text id="_8-8" data-name="8" transform="translate(329.19 563.244)" fill="#fff" font-size="29" font-family="Roboto-Regular, Roboto"><tspan x="0" y="0">8</tspan></text>
      <text id="_4" data-name="4" transform="translate(131.133 96.314)" fill="#fff" font-size="29" font-family="Roboto-Regular, Roboto"><tspan x="0" y="0">4</tspan></text>
      <text id="_4-2" data-name="4" transform="translate(537.195 96.314)" fill="#fff" font-size="29" font-family="Roboto-Regular, Roboto"><tspan x="0" y="0">4</tspan></text>
      <text id="_4-3" data-name="4" transform="translate(329.19 96.314)" fill="#fff" font-size="29" font-family="Roboto-Regular, Roboto"><tspan x="0" y="0">4</tspan></text>
      <text id="_4-4" data-name="4" transform="translate(131.133 300.701)" fill="#fff" font-size="29" font-family="Roboto-Regular, Roboto"><tspan x="0" y="0">4</tspan></text>
      <text id="_4-5" data-name="4" transform="translate(537.195 300.701)" fill="#fff" font-size="29" font-family="Roboto-Regular, Roboto"><tspan x="0" y="0">4</tspan></text>
      <text id="_4-6" data-name="4" transform="translate(131.133 497.834)" fill="#fff" font-size="29" font-family="Roboto-Regular, Roboto"><tspan x="0" y="0">4</tspan></text>
      <text id="_4-7" data-name="4" transform="translate(537.195 497.834)" fill="#fff" font-size="29" font-family="Roboto-Regular, Roboto"><tspan x="0" y="0">4</tspan></text>
      <text id="_4-8" data-name="4" transform="translate(329.19 497.834)" fill="#fff" font-size="29" font-family="Roboto-Regular, Roboto"><tspan x="0" y="0">4</tspan></text>
    </g>
  </g>
</svg>
