<svg xmlns="http://www.w3.org/2000/svg" width="319.464" height="313.889" viewBox="0 0 319.464 313.889"><g transform="translate(-20.71 -29.562)"><g transform="translate(20.71 159.046)"><ellipse cx="159.732" cy="92.202" rx="159.732" ry="92.202" fill="#d0d8eb"/></g><g transform="translate(248.859 35.21)"><g transform="translate(0 0)"><path d="M425.693,60.832l-4.284-2.475a4.2,4.2,0,0,0,0-.527V56.589a7.626,7.626,0,0,0-3.466-6,2.711,2.711,0,0,0-2.08-.4,11.568,11.568,0,0,0-5.144-8.215c-2.856-1.657-5.179-.319-5.179,2.988v1.858a9.055,9.055,0,0,0,.437,2.655L402.42,47.4c-1.061-.61-1.92-.118-1.92,1.109a4.243,4.243,0,0,0,1.92,3.328l23.217,13.407c1.061.61,1.92.118,1.92-1.109a4.243,4.243,0,0,0-1.865-3.3Z" transform="translate(-365.359 -38.8)" fill="#dee4f0"/><path d="M352.874,46.112l2.364.908V41.814c0-4.16,3.293-5.116,6.87-3.057h0a14.332,14.332,0,0,1,6.475,11.217v.756a3.466,3.466,0,0,1,3,.458h0a10.316,10.316,0,0,1,4.659,8.069V59.6l3.293,1.879a6.787,6.787,0,0,1,3.071,5.31c0,1.962-1.386,2.773-3.071,1.775l-26.662-15.39a6.794,6.794,0,0,1-3.064-5.317C349.81,45.925,351.183,45.135,352.874,46.112Z" transform="translate(-349.81 -37.71)" fill="#dee4f0"/></g></g><g transform="translate(46.735 223.361)"><ellipse cx="48.098" cy="27.765" rx="48.098" ry="27.765" transform="translate(165.368 34.938)" fill="#aeb6cd"/><path d="M87.956,374.8l78.268-45.186a.943.943,0,0,0,0-1.789l-5.622-3.244a3.466,3.466,0,0,0-3.1,0l-31.772,18.343a3.376,3.376,0,0,1-3.092,0L64.711,309.478a3.466,3.466,0,0,0-3.1,0l-2.718,1.567a.943.943,0,0,0,0,1.789l57.984,33.477a.943.943,0,0,1,0,1.789L79.235,369.77a.943.943,0,0,0,0,1.782l5.622,3.244a3.4,3.4,0,0,0,3.1,0Z" transform="translate(-58.251 -309.113)" fill="#aeb6cd"/></g><g transform="translate(55.83 227.576)"><path d="M102.449,367.746l5.546-3.154s2.648-14.593.693-27.141c-2.773-17.636-14.794-23.723-19.155-21.969s-5.387,6.981,2.5,17.172C96.618,338.692,102.594,351.406,102.449,367.746Z" transform="translate(-75.911 -315.193)" fill="#26aab7"/><g transform="translate(10.262)" opacity="0.15"><path d="M102.449,367.746l5.546-3.154s2.648-14.593.693-27.141c-2.773-17.636-14.794-23.723-19.155-21.969s-5.387,6.981,2.5,17.172C96.618,338.692,102.594,351.406,102.449,367.746Z" transform="translate(-86.173 -315.193)"/></g><path d="M107.093,361.908h-.049a.4.4,0,0,1-.34-.444c2.281-16.513-4.361-34.607-11.785-41.893a.4.4,0,0,1,0-.562.4.4,0,0,1,.555,0c7.626,7.418,14.371,25.81,12.056,42.566a.4.4,0,0,1-.437.333Z" transform="translate(-78.559 -316.329)" fill="#fff"/><path d="M82.587,383.349c-.873.5-2.669-.6-3.362-1.061a8.264,8.264,0,0,1-2.773-3.175,7.751,7.751,0,0,1-.693-4.686,18.024,18.024,0,0,1,.589-2.489c.236-.811.464-1.615.693-2.419a6.163,6.163,0,0,0,.354-2.44c-.215-1.657-1.685-2.815-3.016-3.813-1.477-1.109-3.016-2.565-3.009-4.555a7,7,0,0,1,1.761-4.16c.95-1.206,2.08-2.274,2.939-3.542a4.936,4.936,0,0,0,1.005-3.1,5.019,5.019,0,0,0-.693-1.927A24.942,24.942,0,0,1,74.3,342.1,3.921,3.921,0,0,1,75,337.983a4.548,4.548,0,0,1,3.425-.853,7.812,7.812,0,0,1,3.189,1.116c3.161,1.761,4.964,5.5,8.319,6.856a32.433,32.433,0,0,0,4.062.991,4.938,4.938,0,0,1,3.348,2.295c1.234,2.461-1.054,5.491-.187,8.1.77,2.309,3.009,3.2,4.27,5.276a4.929,4.929,0,0,1,.589,3.029,14.288,14.288,0,0,1-1.276,5.109,35.889,35.889,0,0,1-2.773,4.6C97.852,374.552,82.719,383.273,82.587,383.349Z" transform="translate(-71.37 -321.915)" fill="#26aab7"/><path d="M94.921,379.673h0a.4.4,0,0,1-.381-.409c.652-15.633-6.711-32.888-12.07-37.9a.4.4,0,0,1,0-.555.4.4,0,0,1,.562,0c5.463,5.116,12.978,22.655,12.319,38.51a.4.4,0,0,1-.43.354Z" transform="translate(-74.74 -323.016)" fill="#fff"/><path d="M91.862,369.12a.347.347,0,0,1-.118,0A52.686,52.686,0,0,0,80.4,367.29a.4.4,0,1,1,.035-.79,54.316,54.316,0,0,1,11.543,1.865.388.388,0,0,1,.256.492.381.381,0,0,1-.374.263Z" transform="translate(-74.025 -330.931)" fill="#fff"/></g><g transform="translate(49.093 29.562)"><g transform="translate(0 59.75)"><path d="M160.132,316.808V314.77L123.84,335.762l1.726,1.019Z" transform="translate(-80.728 -176.799)" fill="#37474f"/><path d="M95.8,117.694a.485.485,0,0,1,.236.52L65.963,251.7l-.853,3.785a2.357,2.357,0,0,1-1.206-.236h0l-2.01-1.185a.485.485,0,0,1-.229-.527l30.87-137.021a.485.485,0,0,1,.693-.319Z" transform="translate(-61.653 -115.871)" fill="#37474f"/><path d="M101.1,115.75,70.085,253.423a.8.8,0,0,1-.388.52l-2.017,1.165a2.031,2.031,0,0,1-1.04.257l.853-3.785,30.149-133.8Z" transform="translate(-63.182 -115.75)" fill="#455a64"/><path d="M119.829,331.362v3.979a2.385,2.385,0,0,1-1.116-.25h0l-1.872-1.081a.783.783,0,0,1-.451-.645V213.8l3.466,2Z" transform="translate(-78.443 -145.827)" fill="#37474f"/><path d="M124.815,213.81V333.389a.776.776,0,0,1-.458.6l-1.858,1.082a2.218,2.218,0,0,1-1.13.27V215.8Z" transform="translate(-79.971 -145.83)" fill="#455a64"/><path d="M175.407,303.248a2.343,2.343,0,0,1-1.081-.312L172.4,301.82a.978.978,0,0,1-.471-.693L151.31,193.61l3.466,2,19.889,103.773Z" transform="translate(-89.155 -139.633)" fill="#37474f"/><path d="M180.39,301.233h0a.8.8,0,0,1-.478.652l-1.761,1.026-.083.049a2.33,2.33,0,0,1-1.13.27l-.742-3.848L156.3,195.61l3.466-1.99,20.583,107.454h0Z" transform="translate(-90.685 -139.637)" fill="#455a64"/><path d="M124.62,341.468l39.2-22.635V314.84l-39.2,22.635Z" transform="translate(-80.968 -176.821)" fill="#455a64"/></g><path d="M146.9,40.59h0l-.069-.042-.187-.1c-1.005-.568-5.165-2.912-14.142-8.063-7.161-4.118-16.049-3.868-25.65,1.692C83.11,47.765,63.893,88.445,63.9,124.945c0,21.664,6.78,36.992,17.241,42.982,6.295,3.612,12.756,7.272,14.226,8.111a1.184,1.184,0,0,1,.159.09l.153.083h0c7.113,3.958,15.9,3.653,25.415-1.837C144.8,160.682,164.012,120,164.012,83.5,164.019,61.929,157.295,46.642,146.9,40.59Z" transform="translate(-62.342 -29.562)" fill="#fb8c00"/><path d="M146.9,40.59h0l-.069-.042-.187-.1c-1.005-.568-5.165-2.912-14.142-8.063-7.161-4.118-16.049-3.868-25.65,1.692C83.11,47.765,63.893,88.445,63.9,124.945c0,21.664,6.78,36.992,17.241,42.982,6.295,3.612,12.756,7.272,14.226,8.111a1.184,1.184,0,0,1,.159.09l.153.083h0c7.113,3.958,15.9,3.653,25.415-1.837C144.8,160.682,164.012,120,164.012,83.5,164.019,61.929,157.295,46.642,146.9,40.59Z" transform="translate(-62.342 -29.562)" opacity="0.1"/><path d="M154.855,152.719,71.949,104.85A127.259,127.259,0,0,0,63.9,148.04c0,21.664,6.78,36.992,17.241,42.982,6.295,3.612,12.756,7.272,14.226,8.111a1.184,1.184,0,0,1,.159.09l.153.083h0c7.113,3.958,15.9,3.653,25.415-1.837C134.8,189.572,147,172.643,154.855,152.719Z" transform="translate(-62.342 -52.657)" opacity="0.1"/><path d="M64,173.07c.811,19.5,7.369,33.276,17.158,38.891,6.295,3.612,12.756,7.272,14.226,8.111a1.183,1.183,0,0,1,.159.09l.153.083h0c7.113,3.958,15.9,3.653,25.415-1.837a53.832,53.832,0,0,0,9.338-6.967Z" transform="translate(-62.373 -73.583)" opacity="0.1"/><path d="M127.412,45.823C103.71,59.508,84.5,100.188,84.5,136.688s19.217,54.989,42.919,41.3,42.919-54.4,42.919-90.871S151.121,32.131,127.412,45.823Z" transform="translate(-68.661 -33.166)" fill="#fb8c00"/><path d="M131.182,65.148c-19,10.967-34.392,43.571-34.392,72.791s15.4,44.07,34.4,33.1,34.378-43.55,34.378-72.8S150.184,54.174,131.182,65.148Z" transform="translate(-72.431 -39.368)" fill="#fafafa"/><path d="M134.962,84.476c-14.295,8.25-25.872,32.777-25.872,54.767s11.584,33.151,25.872,24.9,25.872-32.777,25.872-54.767S149.236,76.219,134.962,84.476Z" transform="translate(-76.204 -45.572)" fill="#fb8c00"/><path d="M138.741,103.8c-9.588,5.546-17.331,21.976-17.331,36.742s7.771,22.233,17.331,16.7,17.331-21.983,17.331-36.742S148.322,98.263,138.741,103.8Z" transform="translate(-79.983 -51.775)" fill="#fafafa"/><path d="M142.505,123.118c-4.853,2.822-8.832,11.189-8.825,18.718s3.952,11.314,8.825,8.5,8.825-11.182,8.825-18.718S147.379,120.3,142.505,123.118Z" transform="translate(-83.747 -57.975)" fill="#455a64"/></g><g transform="translate(155.755 83.867)"><g transform="translate(35.514)"><g transform="translate(33.242 77.948)"><path d="M379.28,378.89c-.18,1.3-.776,2.371.929,5.4a11.94,11.94,0,0,0,4.471,4.16,19.319,19.319,0,0,1,3.709,3.466,16.521,16.521,0,0,0,3.9,3.771c1.165.769,4.159.471,5.47-.305s1.733-2.031,1.352-4.291-7.369-2.156-7.369-2.156Z" transform="translate(-334.425 -268.97)" fill="#37474f"/><path d="M400.887,359l-.347,21.2c0,1.248-6.842,2.808-8.319-.042a46.8,46.8,0,0,0-1.026-6.5c-.534-2.128-1.442-5.83-1.442-5.83-.776-4.416-1.123-7.674-1.123-7.674Z" transform="translate(-337.37 -262.869)" fill="#ffa8a7"/><path d="M355.182,373.025s-3.224,19.619-3.321,20.7-3.14,1.782-5.393,1.712-3.584-1.116-3.563-1.6L342.35,372.9Z" transform="translate(-323.173 -267.133)" fill="#ffa8a7"/><path d="M357.952,300.1s.277-3.778,2.51-15.182c1.553-7.9,2.842-16.388,2.842-16.388s2.773,10.232,4.4,18.295c1.165,5.865,2.336,11.39,4.6,22.565a139.093,139.093,0,0,0,3.6,14.558c4.347,2.309,10.7-.34,10.7-.34s.263-6.815.173-15.252c-.111-10.926-2.5-15.2-2.5-15.2s-.922-14.732-1.387-25.609c-.624-15.425-.146-29.81-3.778-41.817-.562-.153-34.663-15.05-35.55,5.352-.215,5.04-.589,18.454-.95,29.221-.617,18.246-.444,31.82-.465,38.032-.125,5.983-.18,11.591-.069,22.753.055,4.853.34,9.012.34,9.012,4.09,2.773,12.832-.61,12.832-.61s.388-4.8,1.594-11.577C359,306.065,357.952,300.1,357.952,300.1Z" transform="translate(-323.073 -220.333)" fill="#37474f"/><g transform="translate(27.281 18.182)" opacity="0.2"><path d="M361.548,262.886c-1.92-.555-5.782-2.822-6.5-4.263-.825-1.657-1.005-10.357-1.012-10.725v-.34l14.038-1,.042.305a88.03,88.03,0,0,1,.825,9.581v.451c.055,1.387-5.47,5.643-6.031,5.983a.894.894,0,0,1-.458.125A3.187,3.187,0,0,1,361.548,262.886Zm-6.842-14.69c.062,2.683.333,8.915.943,10.135s4.16,3.376,6.087,3.924c.693.194.846.1.853.1,1.206-.742,5.747-4.617,5.719-5.407v-.458a84.509,84.509,0,0,0-.776-9.206Z" transform="translate(-354.04 -246.56)"/></g><g transform="translate(51.496 15.568)" opacity="0.2"><path d="M396.825,257.972l.132-.693c-2.378-1.144-5.837-3.05-6.1-3.7a85.406,85.406,0,0,1-1.179-8.763c.693-.18,2.863-.693,6.114-1.386l-.132-.645c-4.062.86-6.4,1.477-6.419,1.484l-.27.069v.277c.083.832.818,8.16,1.248,9.227S395.833,257.494,396.825,257.972Z" transform="translate(-388.97 -242.79)"/></g><path d="M341.75,370.65l.062,1.56s1.255,1.636,6.634,1.747,6.78-1.289,6.78-1.289l.173-1.3c.86.2.693,1.22.125,3.764s-1.04,4.742-1.594,5.269-3.466,1.428-6.621,1.283-5.227-1.456-5.782-2.218-.742-3.813-.894-5.456S340.815,370.712,341.75,370.65Z" transform="translate(-322.636 -266.443)" fill="#727997"/><path d="M387.632,358.315l.381,1.56s1.227,1.387,6.593.929,5.99-1.962,5.99-1.962V357.58c1.144.173,1.442,1.075,1.151,3.66s-.548,4.853-1.04,5.407-3.279,1.768-6.454,1.955-4.673-.8-5.3-1.5-1.192-4.035-1.511-5.657S386.717,358.481,387.632,358.315Z" transform="translate(-336.892 -262.434)" fill="#727997"/><path d="M372.73,281.037l2.447-12.1a11.7,11.7,0,0,0,6.315-7.813s.409,5.546-4.423,8.319l-3.009,11.536,1.2,9.941Z" transform="translate(-332.492 -232.845)" opacity="0.2"/><path d="M315.071,413.439c-.485-.049-.43,1.387-.263,2.038s2.17,2.724,5.733,3.466,8.478.076,10.593,0,5.754.943,7.854,1.248,5.893-.4,7.147-1.588a2.2,2.2,0,0,0,.513-1.74c-.042-1.387-.166-1.685-.333-1.671Z" transform="translate(-314.688 -279.568)" fill="#37474f"/><path d="M345.807,397.369a13.17,13.17,0,0,0,.444-2.309,4.271,4.271,0,0,0-.27-1.913,2.024,2.024,0,0,0-1.276-.957l-.305,1.948c-.409.4-1.56.575-2.031.88-1.061.693-1.269,2.128-1.546,3.362a1.934,1.934,0,0,1-.319.811c-.957,1.185-1.234-.887-1.283-1.442a3.314,3.314,0,0,0-.735-2.246,3.792,3.792,0,0,0-2.08-.693c-.728-.062-1.594-.035-1.99-.693l-.049-1.227c-.617-.069-1.5.049-1.754.693a2.17,2.17,0,0,0-.055.991c.1.922.229,1.844.409,2.773a10.334,10.334,0,0,1,.312,2.08,3.55,3.55,0,0,1,0,.388,2.08,2.08,0,0,1-.693.742,8.88,8.88,0,0,1-3.633.846c-1.83.118-3.383-.159-5.442-.187a10.967,10.967,0,0,0-5.477,1.116,4.922,4.922,0,0,0-2.773,4.853,6.8,6.8,0,0,0,3.258,2.953,17.616,17.616,0,0,0,5.393,1.165,52.147,52.147,0,0,0,7.348-.284,20.965,20.965,0,0,1,5.435.575,13.332,13.332,0,0,0,7.161-.055,3.892,3.892,0,0,0,2.565-1.9,13.8,13.8,0,0,0-.257-4.3c-.048-.284-.1-.562-.166-.839s-.166-.693-.257-1.026c-.139-.52-.146-1.088-.236-1.622-.035-.194-.139-.693-.27-1.324a16.078,16.078,0,0,1,.277-1.809C345.578,398.3,345.7,397.812,345.807,397.369Z" transform="translate(-314.859 -273.05)" fill="#455a64"/><path d="M337.635,404.564a6.322,6.322,0,0,0-2.2,4.159c.042,1.054-1.816,1.123-1.858.076a9.012,9.012,0,0,1,1.678-3.688A3.355,3.355,0,0,1,337.635,404.564Z" transform="translate(-320.483 -276.835)" fill="#fafafa"/><path d="M331.986,405.342a6.579,6.579,0,0,0-2.031,3.542c-.035.776-1.65.693-1.615-.083a5.01,5.01,0,0,1,2.038-3.522C330.877,404.926,331.82,405.016,331.986,405.342Z" transform="translate(-318.876 -276.996)" fill="#fafafa"/><path d="M324.619,404.923c-.853,0-2.641,1.137-3.522,3.744a14.863,14.863,0,0,0-.4,5.893,8.319,8.319,0,0,1-4.714-2.246,4.853,4.853,0,0,1-1.179-1.5,5.206,5.206,0,0,1,.894-3.979c1.241-1.47,3.154-2.433,6.163-2.586,3.376-.173,3.667.728,3.667.728Z" transform="translate(-314.697 -276.743)" fill="#fafafa"/><path d="M381.351,374.779c1.671-.978,6.5,1.227,6.5,1.227l.284,1.13s.2.8.305,1.2c.25.894,1.386,1.185,2.218,1.3a12.478,12.478,0,0,0,6.343-1.1c.88-.485.936-1.019.936-1.019v-1.185c.541,0,1.158.25,1.068,1.387a37.1,37.1,0,0,0,0,7.445c.152.915.409,1.99.541,2.9.1.617.069,2.433-.742,3.161h0a2.988,2.988,0,0,1-.811.693,5.708,5.708,0,0,1-6.295-.513c-1.83-1.775-3.12-3.39-5.685-5.546-1.518-1.262-2.981-1.865-4.215-3.418h0a9.788,9.788,0,0,1-1.532-2.953C379.34,376.935,379.632,375.785,381.351,374.779Z" transform="translate(-334.645 -267.633)" fill="#455a64"/><path d="M388.425,382.54a6.066,6.066,0,0,1,2.253-2.96c-.1-.423-.222-.853-.326-1.289a6.357,6.357,0,0,0-3.328,3.688C386.782,382.755,387.884,383.191,388.425,382.54Z" transform="translate(-336.867 -268.786)" fill="#fafafa"/><path d="M392.028,384.715a5.764,5.764,0,0,1,.5-1.061c-.146-.575-.3-1.192-.464-1.844a6.308,6.308,0,0,0-1.428,2.343C390.392,384.895,391.494,385.332,392.028,384.715Z" transform="translate(-337.974 -269.866)" fill="#fafafa"/><path d="M381.661,382.273h0c0-.2-.291-4.964,6.066-6.523,0-.035-.111-.451-.159-.624h0a5.581,5.581,0,0,0-2.919-1.386,4.62,4.62,0,0,0-5,2.156C378.666,377.566,380.371,381.449,381.661,382.273Z" transform="translate(-334.525 -267.37)" fill="#fafafa"/></g><path d="M310.047,174.539c-2.683-.631-7.494-2.08-12.846-3.924-5.886-2.08-12.014-3.889-13.047-4.076-1.969-.354-4.79-.166-6.537-.638-2.08-.568-4.194-.735-6.017-2.08a2.246,2.246,0,0,1-1.061-1.532c0-.326.076-.652.062-.977,0-.513-.34-.984-.284-1.49.069-.693.8-1.206.832-1.906a4.548,4.548,0,0,0-.166-.908c-.083-.555.464-1.3.77-1.747.166-.236.631-.652.367-.964a23.572,23.572,0,0,0-2.932-2.773c-1.927-1.615-2.981-3.092-2.177-4.014,1.109-1.283,3.147.374,5.726,2.177,1.435,1.005,2.842,2.08,4.3,3.036.568.381,2.87,2.26,3.466,1.317a1.6,1.6,0,0,0,.146-1.005c-.062-.693-.187-1.435-.2-2.156a4.159,4.159,0,0,1,.416-2.08,1.5,1.5,0,0,1,.527-.61.776.776,0,0,1,.776-.035,1.206,1.206,0,0,1,.458.693c.333.867.659,1.733.984,2.6a19.472,19.472,0,0,0,1.83,4.194,7.327,7.327,0,0,0,2.468,2.412c.693.326,5.31,1.442,6.822,1.809,2.607.624,17.421,3.681,17.713,3.751l39.876-4.34-.555,12.992S315.3,175.78,310.047,174.539Z" transform="translate(-266.738 -119.908)" fill="#ffa8a7"/><path d="M387.4,162.761c2.711-.36,6.8-.333,9.123,2.711s2.295,5.456,2.267,9.338-1.927,10.8-1.927,10.8Z" transform="translate(-303.751 -124.678)" fill="#727997"/><path d="M281.785,162.035a.693.693,0,0,1-.166.555.749.749,0,0,1-.548.2,2.774,2.774,0,0,1-.589-.076c-.159,0-.374,0-.416.139a.326.326,0,0,0,.1.263,7.549,7.549,0,0,0,.88.742c.381.333.839.964.416,1.387a1.109,1.109,0,0,1-.977.367c-.27,0-.541-.1-.818-.118-.049,0-.111,0-.1.069a.125.125,0,0,0,.035.049,4.083,4.083,0,0,1,1.012.936.971.971,0,0,1,.173.839c-.139.333-.693.5-1,.52h-.159v.035h.049a2.2,2.2,0,0,0,.305.083,1.068,1.068,0,0,0,1.165-.8,1.172,1.172,0,0,0-.367-1.241,1.387,1.387,0,0,0,1.262-.5c.693-.77.243-1.421-.367-2a1.234,1.234,0,0,0,.575-.27,8.013,8.013,0,0,0,1.352,3.9,12.894,12.894,0,0,1-.77-4.61,5.693,5.693,0,0,1,.111-1.137,10.027,10.027,0,0,1,.194-1.012,7.432,7.432,0,0,1,.506-1.588,3,3,0,0,0-.9.846c-.208.3-.194.749-.652.8a1.255,1.255,0,0,1-.735-.222,2.226,2.226,0,0,0-.693-.326.18.18,0,0,0-.159.035c-.049.062,0,.153.055.215a4.6,4.6,0,0,1,1.213,1.636.735.735,0,0,1,.021.284Z" transform="translate(-270.671 -123.501)" fill="#f28f8f"/><path d="M362.38,155.408l1.324,12.714,12.693.693-1.012-14.745Z" transform="translate(-296.076 -122.06)" fill="#ffa8a7"/><path d="M350.385,134.05s-3.217,4.361-2.9,4.853,2.489.977,2.489.977Z" transform="translate(-291.499 -115.919)" fill="#f28f8f"/><path d="M360.331,116.511c-6.094.95-7.979,3.466-9.054,13.047-1.13,9.976-.27,13.172.971,14.593.839.957,5.761,1.386,8.284.825,3.161-.693,10.323-2.808,13.865-7.667,4.194-5.712,5.643-13.685,1.664-17.193C370.494,115.173,362.813,116.123,360.331,116.511Z" transform="translate(-292.508 -110.435)" fill="#ffa8a7"/><path d="M349.807,117.161a8.173,8.173,0,0,0,1.47,1.3,21.27,21.27,0,0,0,2.447,1.532,15.724,15.724,0,0,1,2.385,1.276,3.362,3.362,0,0,1,1.1,3.14c0,.825-.076,1.844-.125,2.946-.069,1.664.922,2.981,1.56.783,0,0,1.151-3.646,4.243-3.016s3.175,4.16,1.546,6.835c-1,1.629-3.4,1.061-3.4,1.061a10.919,10.919,0,0,0,2.808,8.562s2.406,1.421,7.362.638c3.6-4.444,5.837-6.572,7.841-10.468,4.243-8.229,2.7-13.622-.118-16.007-.374-3.917-3.341-5.823-6.787-6.815-5.158-1.477-10.2,1.387-15.3-.069a25.2,25.2,0,0,1-2.482-.79,1.386,1.386,0,0,0-1.012-.125,1.144,1.144,0,0,0-.555,1.123,3.127,3.127,0,0,0,1.387,2.53c-.1-.069-.617.042-.756.042h-.867a15.666,15.666,0,0,1-1.712-.2,3.175,3.175,0,0,0-1.172,0,2.114,2.114,0,0,0-1.449,2.08,5.254,5.254,0,0,0,.8,2.558,7.131,7.131,0,0,0,.575.929Q349.7,117.086,349.807,117.161Z" transform="translate(-291.732 -107.896)" fill="#37474f"/><path d="M352.91,156.377c.693.77,4.028,1.2,6.621,1.04h.18l-.18-1.387S355.385,156.987,352.91,156.377Z" transform="translate(-293.171 -122.661)" fill="#f28f8f"/><path d="M381.993,169.511c-1.56-3.757-4.943-7.314-9.3-6.593-1.012.166-1.976.25-2.932.423-.513,2.128-7.3,2.329-12.874,1.04l-6.537.783c-4,1.345-7.217,9.061-7.785,20.8s.062,29.81.291,37.983a44.964,44.964,0,0,0,25.352,2.6c11.986-2.385,13.941-7.529,13.941-7.529l-.922-20.978c0-4.562,1.664-10.745,2.017-13.678C384.315,175.342,382.936,171.792,381.993,169.511Z" transform="translate(-289.928 -124.745)" fill="#455a64"/></g><g transform="translate(0 49.841)"><path d="M228.1,184.625a2.121,2.121,0,0,0-.839,1.7.652.652,0,0,0,.319.589l22.732,11.279L251.5,195.8l-22.732-11.279A.693.693,0,0,0,228.1,184.625Z" transform="translate(-219.114 -181.228)" fill="#455a64"/><path d="M223.975,185.485a83.33,83.33,0,0,1-8.465-5.685s8.264,2.586,9.65,3.293Z" transform="translate(-215.51 -179.793)" fill="#455a64"/><path d="M247.226,194.473l-22.364-11.03-9.352-3.653,9.026,4.548,22.607,11.286Z" transform="translate(-215.51 -179.79)" fill="#fff" opacity="0.2"/><path d="M260.889,200.923a2.08,2.08,0,0,0-.839,1.692c.042.6.478.818.977.485a2.08,2.08,0,0,0,.839-1.7C261.825,200.785,261.4,200.563,260.889,200.923Z" transform="translate(-229.173 -186.219)" fill="#37474f"/><path d="M259.834,197.6c3.168-5.83,18.766-13.581,31.675-7.2s36.826,31.12,43.127,44.049c-15.141,2.6-46.087.222-58.545-5.934S257.144,211.169,259.834,197.6Z" transform="translate(-228.922 -182.309)" fill="#1565c0"/><path d="M259.834,197.6c3.168-5.83,18.766-13.581,31.675-7.2s36.826,31.12,43.127,44.049c-15.141,2.6-46.087.222-58.545-5.934S257.144,211.169,259.834,197.6Z" transform="translate(-228.922 -182.323)" fill="#fff" opacity="0.49"/><path d="M270.851,218.016c-.638-9.851,4.617-21.692,11.737-26.434,3.009-2.01,5.865-2.426,8.215-1.49-12.77-5.789-27.876,1.782-30.988,7.508-2.69,13.574,3.827,24.749,16.278,30.905h0C273.222,227.042,271.212,223.361,270.851,218.016Z" transform="translate(-228.916 -182.314)" fill="#1565c0"/><path d="M276.118,232.745c12.479,6.156,43.4,8.534,58.545,5.934-13.241.263-37.484-3.993-51.231-11.245-11.355-5.99-21.338-16.472-23.571-25.595C257.15,215.414,263.667,226.589,276.118,232.745Z" transform="translate(-228.928 -186.554)" opacity="0.15"/><path d="M260.1,199.035c12.18-4.908,24.867-2.281,33.456,2.322s34.767,24.9,41.346,34.531c0,0-18.794-26.032-39.2-38.129S260.1,199.035,260.1,199.035Z" transform="translate(-229.188 -183.748)" fill="#fff" opacity="0.5"/><path d="M391.927,279.788c-2.038,2.87-9.4-.8-17.394-7.307h0l-4.215-9.012,1.477,6.69a100.965,100.965,0,0,1-13.525-14.413c2.322-.159,4.589-.409,6.766-.776l11.175,5.4S395.345,274.984,391.927,279.788Z" transform="translate(-259.301 -202.851)" fill="#1565c0"/><path d="M391.927,279.788c-2.038,2.87-9.4-.8-17.394-7.307h0l-4.215-9.012,1.477,6.69a100.965,100.965,0,0,1-13.525-14.413c2.322-.159,4.589-.409,6.766-.776l11.175,5.4S395.345,274.984,391.927,279.788Z" transform="translate(-259.301 -202.83)" opacity="0.15"/><g transform="translate(98.969 52.139)" opacity="0.15"><path d="M358.27,255.763a92.286,92.286,0,0,0,6.239,7.383,24.644,24.644,0,0,1-3.854-6.108l4.437-.77,11.092,4.118L365.015,255C362.859,255.354,360.592,255.6,358.27,255.763Z" transform="translate(-358.27 -255)"/></g><path d="M376.288,257.439l-11.2-5.387c-2.974-2.551-3.612-3.8-6.572-6.08a127.106,127.106,0,0,1,15.12-.548l-2.621,3.744,6.933-3.466c6.128.589,10.059,1.976,12.284,3.875C396.919,255.262,388.5,260,376.288,257.439Z" transform="translate(-259.378 -199.913)" fill="#1565c0"/><path d="M371.049,249.148l2.62-3.744a127.109,127.109,0,0,0-15.12.548s11.584-.118,13.414.194Z" transform="translate(-259.387 -199.907)" fill="#fff" opacity="0.5"/><path d="M389.491,258.272c8.61.118,13.3-3.9,7.82-8.6-2.225-1.9-6.156-3.286-12.284-3.875l-3.466,1.74,3.861-1.068s7.889.8,11.418,4.693C399.009,253.564,396.555,258.209,389.491,258.272Z" transform="translate(-266.446 -200.038)" fill="#fff" opacity="0.5"/></g><path d="M328.18,184.136c-7.307,13.816-11.48,23.127-13.775,25.456s-19.619,15.945-25.879,16.569-11.862-1.289-12.409-4.478a7.321,7.321,0,0,1-.035-2.7s1.5,1.054,1.581,1.081c1.906.652,4.8.437,6.177-.617,2.038-1.56-2.565-2.773-3.64-4.076-1.387-1.629-.783-3.39,2.676-1.879,3.009,1.324,5.685,2.371,7.827,2.309S305.15,202.84,305.15,202.84s6.6-13.941,9.671-21.387c5.775-13.983,11.425-13.914,14.489-13.983Z" transform="translate(-234.057 -126.17)" fill="#ffa8a7"/><path d="M345.771,166.2c-3,.3-5.241.43-7.751,1.754-3.043,1.6-4.118,4.465-5.5,7.626C329.9,181.569,327.4,187,327.4,187c.991,2.7,6.572,9.193,11.626,7.307,0,0,4.257-7.348,6.475-12.09C347.574,177.777,347.983,169.846,345.771,166.2Z" transform="translate(-249.832 -125.781)" fill="#727997"/></g></g></svg>