<svg xmlns="http://www.w3.org/2000/svg" width="469" height="373.5" viewBox="0 0 469 373.5">
  <g id="Grupo_72176" data-name="Grupo 72176" transform="translate(-915 -5451)">
    <rect id="Rectángulo_32099" data-name="Rectángulo 32099" width="469" height="373.5" rx="20" transform="translate(915 5451)" fill="#f3f9ff" opacity="0.5"/>
    <g id="Grupo_72174" data-name="Grupo 72174" transform="translate(8.932 32.961)">
      <path id="Trazado_127414" data-name="Trazado 127414" d="M944.6,88.43c-7.593,3.161,56.584,102.453,203.384,94.821s207.99-88.654,205.947-92.277-112.648,40.28-212,40.28S950.709,85.886,944.6,88.43Z" transform="translate(-5.248 5497.127)" fill="#420000"/>
      <path id="Trazado_127415" data-name="Trazado 127415" d="M982.13,200.554s6.63-53.019,32.629-98.907,50.976-55.2,55.563-53.848S1078.031,97.06,1106,94.053s33.65-41.3,34.691-43.845,24.476-7.15,51.5,39.239,34.691,106,34.691,106-7.131,27.521-115.636,36.194S982.13,200.554,982.13,200.554Z" transform="translate(30.11 5459.434)" fill="#a20c0c"/>
      <path id="Trazado_127416" data-name="Trazado 127416" d="M1077.722,68.214s-39.008,51.766-43.094,160.869c0,0-40.473-8.538-52.5-28.543,0,0,7.189-55.486,33.958-101.22s51.689-52.556,54.233-51.535S1076.489,64.937,1077.722,68.214Z" transform="translate(30.11 5459.448)" fill="#cb2525"/>
      <path id="Trazado_127417" data-name="Trazado 127417" d="M1062.13,65.275s2.949-9.636,4.356-15.071,24.052-5.782,49.434,35.809,36.213,102.588,36.618,109.469-24.283,21.566-45.252,25.228C1107.382,220.709,1098.054,95.263,1062.13,65.275Z" transform="translate(104.292 5459.399)" fill="#640000"/>
      <path id="Trazado_127418" data-name="Trazado 127418" d="M951.066,88.39c0-1.58-14.686,12.373-14.686,12.373s46.139,110.567,223.274,104.843C1327.48,200.171,1369.918,105.1,1369.918,105.1l-8.923-14.03s-18.347,34.961-79.018,62.251-128.9,39.181-204.1,23.648S952.241,105.35,951.066,88.39Z" transform="translate(-12.312 5497.07)" fill="#a20c0c"/>
    </g>
  </g>
</svg>
