<svg xmlns="http://www.w3.org/2000/svg" width="295.055" height="299.878" viewBox="0 0 295.055 299.878"><g transform="translate(-29.443 -29.122)"><g transform="translate(29.935 148.738)"><ellipse cx="147.282" cy="90.131" rx="147.282" ry="90.131" fill="#d0d8eb" opacity="0.43"/></g><g transform="translate(55.783 29.122)"><g transform="translate(0)"><path d="M145.049,58.123,140.74,60.61a5.58,5.58,0,0,0,.039-.566v-1.25c0-2.224-1.559-3.125-3.487-2.013a6.8,6.8,0,0,0-2.079,1.974c-.316-2.8-2.507-3.836-5.171-2.3a11.533,11.533,0,0,0-5.21,9.033v1.868a4.908,4.908,0,0,0,.441,2.164l-3.579,2.066a4.276,4.276,0,0,0-1.934,3.408c0,1.23.868,1.73,1.934,1.112l23.355-13.48a4.27,4.27,0,0,0,1.934-3.349C146.983,58,146.122,57.5,145.049,58.123Z" transform="translate(-86.681 -38.229)" fill="#b0c0d2"/><path d="M99.355,37.594l-2.375.914V33.246c0-4.158-3.289-5.151-6.908-3.072h0a14.38,14.38,0,0,0-6.513,11.276v.75a3.5,3.5,0,0,0-3.02.467h0a10.368,10.368,0,0,0-4.684,8.118v.342l-3.289,1.914A6.835,6.835,0,0,0,69.48,58.39c0,1.974,1.382,2.763,3.086,1.776l26.816-15.48a6.822,6.822,0,0,0,3.086-5.349C102.44,37.377,101.059,36.581,99.355,37.594Z" transform="translate(-69.48 -29.122)" fill="#b0c0d2"/></g></g><g transform="translate(29.443 187.526)"><path d="M55.216,311.774l4.48-2.586s2.664-11.072,1.605-21.052c-1.493-14.006-10.717-19.276-14.224-18.072s-4.52,5.263,1.283,13.631C51.782,288.629,55.986,298.912,55.216,311.774Z" transform="translate(-34.501 -269.897)" fill="#26aab7"/><g transform="translate(9.727)" opacity="0.15"><path d="M55.216,311.774l4.48-2.586s2.664-11.072,1.605-21.052c-1.493-14.006-10.717-19.276-14.224-18.072s-4.52,5.263,1.283,13.631C51.782,288.629,55.986,298.912,55.216,311.774Z" transform="translate(-44.228 -269.897)"/></g><path d="M59.576,307.4h-.039a.309.309,0,0,1-.25-.362c2.428-12.928-2.059-27.454-7.645-33.487a.309.309,0,0,1,0-.441.316.316,0,0,1,.441,0c5.684,6.171,10.289,20.947,7.816,34.039A.3.3,0,0,1,59.576,307.4Z" transform="translate(-37.006 -270.967)" fill="#fff"/><path d="M37.79,327.4c-.711.362-2.592-1.25-3.112-1.638a6.527,6.527,0,0,1-2.059-2.632,6.2,6.2,0,0,1-.362-3.717,15.243,15.243,0,0,1,.566-1.941c.217-.625.434-1.25.658-1.882a4.8,4.8,0,0,0,.382-1.908c-.105-1.316-1.217-2.283-2.23-3.125-1.118-.928-2.27-2.138-2.184-3.7a5.546,5.546,0,0,1,1.546-3.217c.8-.914,1.737-1.711,2.461-2.678a3.868,3.868,0,0,0,.9-2.395,3.947,3.947,0,0,0-.454-1.546,22.538,22.538,0,0,1-1.513-3.138,3.137,3.137,0,0,1,.658-3.224,3.625,3.625,0,0,1,2.737-.539,6.278,6.278,0,0,1,2.467,1.013c2.421,1.513,3.691,4.533,6.283,5.73a26.054,26.054,0,0,0,3.158.947,3.947,3.947,0,0,1,2.553,1.941c.868,1.974-1.053,4.283-.474,6.375.513,1.855,2.25,2.632,3.158,4.329a3.829,3.829,0,0,1,.342,2.408,11.342,11.342,0,0,1-1.2,3.947,35.05,35.05,0,0,1-2.395,3.678S37.895,327.352,37.79,327.4Z" transform="translate(-29.443 -276.792)" fill="#26aab7"/><path d="M48.193,325.17h0a.309.309,0,0,1-.283-.336c1.132-12.289-3.987-26.184-8.007-30.342a.316.316,0,0,1,0-.441.309.309,0,0,1,.441,0c4.1,4.257,9.322,18.355,8.145,30.855A.3.3,0,0,1,48.193,325.17Z" transform="translate(-32.991 -278.129)" fill="#fff"/><path d="M45.886,317.062a.229.229,0,0,1-.092,0,41.45,41.45,0,0,0-8.862-1.888.322.322,0,0,1-.283-.342.3.3,0,0,1,.336-.283,42.822,42.822,0,0,1,9.026,1.928.316.316,0,0,1-.125.605Z" transform="translate(-31.908 -285.173)" fill="#fff"/></g><g transform="translate(36.217 138.638)"><path d="M44.266,302.286,123,347.739a8.487,8.487,0,0,0,8.217.151l158.519-91.506c2.5-1.441,4.52-4.671,4.526-7.237s-2.026-5.763-4.526-7.2l-78.447-45.276a9.993,9.993,0,0,0-9.039,0L44.266,287.878c-2.5,1.447-4.526,4.671-4.526,7.2S41.766,300.845,44.266,302.286Z" transform="translate(-39.74 -195.588)" fill="#37474f"/><path d="M123,370.8,44.266,325.348c-2.5-1.441-4.526-4.664-4.526-7.2s2.026-5.757,4.526-7.2L127.285,263V371.927A8.349,8.349,0,0,1,123,370.8Z" transform="translate(-39.74 -218.65)" fill="#263238"/><path d="M126.265,339.641a8.862,8.862,0,0,0,7.974,0l156.907-90.591c3.375-1.974,3.375-5.138,0-7.085l-78.46-45.3a9.993,9.993,0,0,0-9.039,0L45.66,287.878c-2.487,1.441-2.487,3.789,0,5.224Z" transform="translate(-41.127 -195.588)" fill="#455a64"/><path d="M141.428,334.875a9.467,9.467,0,0,0,8.592,0l135.006-77.953c2.375-1.368,2.375-3.592,0-4.961l-73.8-42.6a9.507,9.507,0,0,0-8.592,0L67.619,287.3c-2.362,1.368-2.362,3.6,0,4.967Z" transform="translate(-48.672 -199.947)" fill="#37474f"/><path d="M280.69,208.35a8.7,8.7,0,0,1,4.039,1.013l73.8,42.6c2.375,1.368,2.375,3.592,0,4.961l-14.618,8.428L280.69,224.988Z" transform="translate(-122.171 -199.954)" fill="#263238"/><path d="M202.924,214.256a9.506,9.506,0,0,1,8.592,0l73.809,42.6a4.474,4.474,0,0,1,1.125.9,4.335,4.335,0,0,1-1.072.836L150.359,336.552a9.467,9.467,0,0,1-8.592,0l-73.809-42.6a4.395,4.395,0,0,1-1.118-.895,4.31,4.31,0,0,1,1.066-.842Z" transform="translate(-49.011 -201.623)" fill="#fafafa"/><path d="M350.879,239.453,337.8,231.9c-.783-.454-.822-1.158-.092-1.579a3.033,3.033,0,0,1,2.743.046l13.059,7.533c.783.454.822,1.158.086,1.586a3.039,3.039,0,0,1-2.717-.033Z" transform="translate(-141.499 -207.366)" fill="#263238"/><path d="M323.584,223.721a.809.809,0,0,1,0-1.533,2.941,2.941,0,0,1,2.632,0,.809.809,0,0,1,0,1.533A2.941,2.941,0,0,1,323.584,223.721Z" transform="translate(-136.658 -204.582)" fill="#263238"/><path d="M315.524,219.041a.809.809,0,0,1,0-1.533,2.941,2.941,0,0,1,2.632,0,.809.809,0,0,1,0,1.533A2.941,2.941,0,0,1,315.524,219.041Z" transform="translate(-133.901 -202.981)" fill="#263238"/><path d="M380,256.291a.809.809,0,0,1,0-1.533,2.941,2.941,0,0,1,2.632,0,.809.809,0,0,1,0,1.533,2.941,2.941,0,0,1-2.632,0Z" transform="translate(-155.96 -215.724)" fill="#263238"/><path d="M371.944,251.631a.809.809,0,0,1,0-1.533,2.941,2.941,0,0,1,2.632,0,.809.809,0,0,1,0,1.533A2.941,2.941,0,0,1,371.944,251.631Z" transform="translate(-153.202 -214.13)" fill="#263238"/></g><g transform="translate(78.335 50.92)"><g transform="translate(0 0)"><path d="M130.483,325.975,103.76,310.548,223.47,241.43l27.27,15.118Z" transform="translate(-103.76 -123.553)" fill="#e0e0e0"/><g transform="translate(19.493 12.861)"><path d="M133.39,189.546,247.244,123.81l4.553,2.632a4.763,4.763,0,0,1,2.145,3.71v83.986a4.75,4.75,0,0,1-2.145,3.711L142.232,281.111a4.763,4.763,0,0,1-4.283,0l-2.414-1.395a4.763,4.763,0,0,1-2.145-3.711Z" transform="translate(-133.39 -96.175)" fill="#26aab7"/><path d="M133.39,189.546,247.244,123.81l4.553,2.632a4.763,4.763,0,0,1,2.145,3.71v83.986a4.75,4.75,0,0,1-2.145,3.711L142.232,281.111a4.763,4.763,0,0,1-4.283,0l-2.414-1.395a4.763,4.763,0,0,1-2.145-3.711Z" transform="translate(-133.39 -96.175)" opacity="0.2"/><path d="M246.613,102.063l.467-.25-1.77-1.033h0a3.413,3.413,0,0,0-.467-.23l-50.1-18.559a3.461,3.461,0,0,0-3.849,1.224L134.837,165.07a9.711,9.711,0,0,0-1.447,4.671v5.441l1.737,1.007,112.118-66.743v-5.434A3.658,3.658,0,0,0,246.613,102.063Z" transform="translate(-133.39 -81.81)" fill="#26aab7"/><path d="M193.414,84.034a3.046,3.046,0,0,0-.579.618L136.783,166.5a8.553,8.553,0,0,0-1.039,2.342L134,167.836a10.191,10.191,0,0,1,.454-1.237.275.275,0,0,1,0-.039c.079-.171.158-.329.243-.493a.442.442,0,0,1,.039-.079,4.89,4.89,0,0,1,.3-.493L191.1,83.678a2.849,2.849,0,0,1,.276-.342c.1-.092.2-.191.3-.276Z" transform="translate(-133.599 -82.234)" opacity="0.1"/><path d="M277.262,101.795a2.685,2.685,0,0,0-.48-.23L226.67,82.992a3.441,3.441,0,0,0-3.289.612l-1.711-1.013a3.474,3.474,0,0,1,3.289-.612l50.085,18.572a2.8,2.8,0,0,1,.467.23Z" transform="translate(-163.591 -81.804)" fill="#fff" opacity="0.35"/><path d="M135.14,208.853a4.448,4.448,0,0,1,.3-.493,4.447,4.447,0,0,0-.3.493Z" transform="translate(-133.989 -125.1)" fill="#26aab7"/><path d="M221.22,83.286a2.944,2.944,0,0,1,.3-.276A2.944,2.944,0,0,0,221.22,83.286Z" transform="translate(-163.438 -82.217)" fill="#26aab7"/><path d="M134,211.273a10.744,10.744,0,0,1,.461-1.243,10.743,10.743,0,0,0-.461,1.243Z" transform="translate(-133.599 -125.672)" fill="#26aab7"/><path d="M134.71,209.743c.072-.171.158-.336.237-.493C134.9,209.395,134.782,209.559,134.71,209.743Z" transform="translate(-133.842 -125.405)" fill="#26aab7"/><path d="M134.69,209.978v0Z" transform="translate(-133.835 -125.639)" opacity="0.2"/><path d="M133.99,211.92Z" transform="translate(-133.595 -126.318)" opacity="0.2"/><path d="M221.67,83.01Z" transform="translate(-163.591 -82.217)" opacity="0.2"/><path d="M135.07,209.189a.494.494,0,0,1,.046-.079.5.5,0,0,0-.046.079Z" transform="translate(-133.965 -125.357)" opacity="0.2"/><path d="M220.79,83.766a2.251,2.251,0,0,1,.283-.336A2.251,2.251,0,0,0,220.79,83.766Z" transform="translate(-163.29 -82.36)" opacity="0.2"/><path d="M193.519,84.753,137.467,166.6A9.756,9.756,0,0,0,136,171.279v5.434l113.854-65.736v-5.434a3.947,3.947,0,0,0-2.4-3.447L197.368,83.529A3.441,3.441,0,0,0,193.519,84.753Z" transform="translate(-134.283 -82.335)" fill="#26aab7"/><path d="M249.874,116.084a3.678,3.678,0,0,0-.612-1.914L136.428,179.485h0a8.46,8.46,0,0,0-.428,2.336v5.434l113.854-65.736Z" transform="translate(-134.283 -92.877)" opacity="0.05"/></g><g transform="translate(29.618 9.707)"><path d="M249.385,80.293a1.316,1.316,0,0,0-.533-1.191l-3.48-1.974a1.316,1.316,0,0,0-1.316.132l-93.42,53.947a4.092,4.092,0,0,0-1.849,3.2V246.252a1.316,1.316,0,0,0,.539,1.2l3.467,1.974a1.316,1.316,0,0,0,1.316-.125l93.42-53.914a4.1,4.1,0,0,0,1.855-3.25Z" transform="translate(-148.78 -77.011)" fill="#26aab7"/><path d="M249.385,80.293a1.316,1.316,0,0,0-.533-1.191l-3.48-1.974a1.316,1.316,0,0,0-1.316.132l-93.42,53.947a4.092,4.092,0,0,0-1.849,3.2V246.252a1.316,1.316,0,0,0,.539,1.2l3.467,1.974a1.316,1.316,0,0,0,1.316-.125l93.42-53.914a4.1,4.1,0,0,0,1.855-3.25Z" transform="translate(-148.78 -77.011)" fill="#fff" opacity="0.95"/><path d="M155.979,250.281l93.42-53.914a4.1,4.1,0,0,0,1.816-3.211V81.315c0-1.178-.829-1.651-1.849-1.066L155.979,134.2a4.1,4.1,0,0,0-1.849,3.2V249.242C154.13,250.393,154.959,250.867,155.979,250.281Z" transform="translate(-150.61 -78.033)" fill="#26aab7"/><path d="M155.979,250.281l93.42-53.914a4.1,4.1,0,0,0,1.816-3.211V81.315c0-1.178-.829-1.651-1.849-1.066L155.979,134.2a4.1,4.1,0,0,0-1.849,3.2V249.242C154.13,250.393,154.959,250.867,155.979,250.281Z" transform="translate(-150.61 -78.033)" fill="#fff" opacity="0.8"/><path d="M152.323,277.06a1.388,1.388,0,0,0,.434,1.132c-.625-.355-3.046-1.763-3.355-1.934a1.276,1.276,0,0,1-.546-1.191V163.226a3.7,3.7,0,0,1,.546-1.816l3.467,1.974a3.763,3.763,0,0,0-.546,1.829Z" transform="translate(-148.804 -105.884)" fill="#26aab7"/><path d="M152.323,277.06a1.388,1.388,0,0,0,.434,1.132c-.625-.355-3.046-1.763-3.355-1.934a1.276,1.276,0,0,1-.546-1.191V163.226a3.7,3.7,0,0,1,.546-1.816l3.467,1.974a3.763,3.763,0,0,0-.546,1.829Z" transform="translate(-148.804 -105.884)" fill="#fff" opacity="0.7"/><path d="M152.323,277.06a1.388,1.388,0,0,0,.434,1.132c-.625-.355-3.046-1.763-3.355-1.934a1.276,1.276,0,0,1-.546-1.191V163.226a3.7,3.7,0,0,1,.546-1.816l3.467,1.974a3.763,3.763,0,0,0-.546,1.829Z" transform="translate(-148.804 -105.884)" opacity="0.05"/></g><g transform="translate(66.828)"><path d="M205.863,207.714c-.408,10.408.289,32.7.289,32.7s11.033,3.329,18.526,2.092S248.212,229.9,248.212,229.9l-2.671-24.125Z" transform="translate(-205.475 -111.357)" fill="#37474f"/><path d="M243.831,243.81,245.62,226.8a22.761,22.761,0,0,0,9.316-9.993c-6.395,8.375-13.066,7.02-13.066,7.02V244.7C242.508,244.435,243.166,244.132,243.831,243.81Z" transform="translate(-217.837 -115.131)" fill="#263238"/><path d="M249.807,148.8c1.789-9.059,2.6-21.092-5.263-23.3-2.053-.572-7.276-.171-7.276-.171l-8.493.421c-4.73.6-11.362,1.539-13.1,1.974-4.566,1.125-5.921,8.553-7.967,25.092-1.276,10.342-2.368,18.421-2.368,28.487,8.342,7.48,34.427,4.533,40.362-.336C245.905,169.552,246.563,165.322,249.807,148.8Z" transform="translate(-205.34 -83.787)" fill="#455a64"/><path d="M236.725,120.724c-.079,1.651,1.822,4.441,4.737,6.4s5.421,2.757,5.737,3.572c-1.382.257-2.632.941-3.658,3.289-.98,2.263-.974,2.336-4.336,0s-6.368-7.7-6.355-9.493,2.632-5.263,3.947-4.954Z" transform="translate(-214.751 -81.847)" fill="#37474f"/><path d="M254.66,131.731a11.567,11.567,0,0,0,2.039-4.947l.428-4.243a2.263,2.263,0,0,1,1.164.757c.362.553,2.151,4.25,2.092,6.309a15.785,15.785,0,0,1-1.237,6.033c-.7,1.178-1.164-.895-1.625-1.7C256.93,132.9,256.121,131.757,254.66,131.731Z" transform="translate(-222.213 -82.88)" fill="#37474f"/><path d="M251.915,140.11a80.08,80.08,0,0,1-.526,11.421,12.066,12.066,0,0,0,4.441-.118s-1.138,1.4-5.309.757A120.329,120.329,0,0,0,251.915,140.11Z" transform="translate(-220.797 -88.891)" fill="#37474f"/><path d="M262.217,81.8a11.842,11.842,0,0,0-23.612-.895l-5.375-3.822a4.2,4.2,0,0,0-3.461,1.27c-1.474,1.553-.566,6.322,1.362,10.98,0,0,1.941,8.493,2.691,9.868a3.862,3.862,0,0,0,2.257,1.763l-.184-5.171,21.493-1.546-2.125-1.513A11.842,11.842,0,0,0,262.217,81.8Z" transform="translate(-213.448 -65.015)" fill="#263238"/><path d="M234.848,90.329c-.658.414-1.316-1.02-2.533-1.757-1.053-.658-3.414-1.73-4.967.882-1.678,2.809,1.368,6.691,3.5,7.493,3.158,1.184,4.283-1.316,4.283-1.316l-.658,13.158c4.322,7.855,17.053,7.382,12.717.8l.52-5.072a23.909,23.909,0,0,0,5.053.184c2.743-.467,4.447-2.632,5.263-5.658,1.27-4.809,1.724-8.684.447-18.079-1.4-10.3-13.408-10.23-19.829-6.059S234.848,90.329,234.848,90.329Z" transform="translate(-212.703 -65.682)" fill="#ffa8a7"/><path d="M261.837,67.916a4.434,4.434,0,0,0-2.9-.336,3.513,3.513,0,0,0-2.105-3.533,4.066,4.066,0,0,0-4.447.6,2.093,2.093,0,0,0-1.724-2.349,5.671,5.671,0,0,0-3.164.526c-1.507.572-2.993,1.217-4.526,1.73-2.7.9-5.579,1.414-8.02,2.882a4.842,4.842,0,0,0-1.526,1.316,4.2,4.2,0,0,0-.658,2.678,5.357,5.357,0,0,0,.132.921,2.421,2.421,0,0,0-.658-.5,2.276,2.276,0,0,0-3.118,1.086l4.066,2.105c-.1.822-.2,1.645-.283,2.467-.224,2.164-.658,4.7-.151,6.855a1.579,1.579,0,0,0,.263.724,12.855,12.855,0,0,1,2.118,2.059c.316.382.7,1,1.2,1.151a1.224,1.224,0,0,0,1.408-.658,2.243,2.243,0,0,0,.046-.961l-.395-4.013a2.3,2.3,0,0,1,.066-1.059,3.033,3.033,0,0,1,.98-1.046,4.605,4.605,0,0,0,1.6-3.21,4.783,4.783,0,0,1,.105-1.151c.086-.283.309-.724.658-.724.625,0,4.033.737,4.888.855,4.46.612,9.25.73,13.158-1.461,1.533-.849,4.112-2.632,4.382-4.513a2.526,2.526,0,0,0-1.395-2.441Z" transform="translate(-213.475 -62.256)" fill="#263238"/><path d="M252.652,118.6s-6.164-1.151-8.329-2.263a7.04,7.04,0,0,1-3.013-2.895,9.612,9.612,0,0,0,1.737,3.441c1.6,1.974,9.441,3.349,9.441,3.349Z" transform="translate(-217.646 -79.767)" fill="#f28f8f"/><path d="M256.946,97.384a1.158,1.158,0,1,1-1.171-1.184,1.171,1.171,0,0,1,1.171,1.184Z" transform="translate(-222.203 -73.869)" fill="#263238"/><path d="M253.257,91.026l-2.711,1.316a1.586,1.586,0,0,1,.724-2.066,1.474,1.474,0,0,1,1.987.75Z" transform="translate(-220.757 -71.793)" fill="#263238"/><path d="M254.714,109l4.888,1.75a2.559,2.559,0,0,1-3.289,1.664,2.717,2.717,0,0,1-1.6-3.414Z" transform="translate(-222.181 -78.248)" fill="#b16668"/><path d="M257.831,113.137a2.553,2.553,0,0,0-2.855-2.178,2.45,2.45,0,0,0-.316.072,2.671,2.671,0,0,0,1.691,2.046,2.48,2.48,0,0,0,1.48.059Z" transform="translate(-222.213 -78.91)" fill="#f28f8f"/><path d="M272.872,91.727l-2.632-1.362a1.428,1.428,0,0,1,1.974-.618A1.5,1.5,0,0,1,272.872,91.727Z" transform="translate(-227.543 -71.6)" fill="#263238"/><path d="M271.017,97.106a1.171,1.171,0,0,1-1.132,1.211,1.184,1.184,0,0,1-1.178-1.184,1.158,1.158,0,1,1,2.309,0Z" transform="translate(-227.018 -73.762)" fill="#263238"/><path d="M263.27,96.65l.23,7.467,4.4-1.026Z" transform="translate(-225.158 -74.023)" fill="#f28f8f"/></g><g transform="translate(19.467 41.502)"><path d="M191.578,255.679l.118-.105-46.171,68.092-1.882,1.086h0a1.553,1.553,0,0,1-1.454.164l47.572-70.335Z" transform="translate(-136.374 -169.554)" fill="#fff" opacity="0.4"/><path d="M257.98,130.136h0c-.105-.612-.428-.783-.849-.493a2.507,2.507,0,0,0-.546.566l-.237.329-46.822,71.184-6.987,9.737a3.987,3.987,0,0,1-3.855,1.441l-6.033-1.434L146.6,194.511a2.421,2.421,0,0,0-.941-.039,2.154,2.154,0,0,0-.349.112l1.737-1,44.164,16.184,5.816,2.079a3.947,3.947,0,0,0,3.849-1.447l6.993-9.73,47.046-71.513a1.974,1.974,0,0,1,.533-.487l-4.072-2.349,1.711-.98,2.816,1.625a4.908,4.908,0,0,1,2.079,3.171Z" transform="translate(-137.442 -125.34)" fill="#26aab7"/><path d="M234.135,240.941l-6.993,9.743a3.987,3.987,0,0,1-3.849,1.441l-6.033-1.434.118-.105.289-.461,3.947.941a3.947,3.947,0,0,0,3.849-1.441L232.391,240Z" transform="translate(-162.056 -164.566)" fill="#fff" opacity="0.4"/><path d="M288.355,126.958l-2.816-1.618-1.7.98,4.066,2.349h0a1.974,1.974,0,0,0-.533.487l-47.052,71.513-.066.092h0l1.743.947,46.815-71.177.243-.336a2.211,2.211,0,0,1,.546-.559c.414-.289.743-.125.842.493h0a4.875,4.875,0,0,0-2.086-3.171Z" transform="translate(-169.922 -125.34)" opacity="0.1"/><path d="M143.436,229.533l-10.046-5.8v86.46a4.763,4.763,0,0,0,2.145,3.711l2.414,1.395a4.763,4.763,0,0,0,4.283,0l1.2-.7Z" transform="translate(-133.364 -159)" fill="#26aab7"/><path d="M143.436,229.533l-10.046-5.8v86.46a4.763,4.763,0,0,0,2.145,3.711l2.414,1.395a4.763,4.763,0,0,0,4.283,0l1.2-.7Z" transform="translate(-133.364 -159)" opacity="0.15"/><path d="M257.434,132.838v83.986a4.349,4.349,0,0,1-.658,2.164,4.69,4.69,0,0,1-1.257,1.414l-.086.039-.132.092L145.724,283.791h0a1.533,1.533,0,0,1-1.461.171,1.316,1.316,0,0,1-.658-1.026,2.367,2.367,0,0,1,0-.382V198.568a1.862,1.862,0,0,1,2.408-1.895l46.052,16.954,6.033,1.434a3.987,3.987,0,0,0,3.855-1.441l6.987-9.737L255.763,132.7l.237-.329C256.789,131.266,257.434,131.477,257.434,132.838Z" transform="translate(-136.856 -127.503)" fill="#26aab7"/><path d="M289.271,258.091a1.136,1.136,0,0,0,.138-.086l.079-.053a4.6,4.6,0,0,0,1.257-1.4,4.408,4.408,0,0,0,.658-2.132L242.91,241.44,275.383,266.1Z" transform="translate(-170.832 -165.059)" fill="#26aab7"/><path d="M143.564,325.161a1.467,1.467,0,0,0,.658,1.408,1.526,1.526,0,0,0,1.461-.164h0l37.723-21.776,8.618-48.388-48.454,67.539Z" transform="translate(-136.841 -170.122)" fill="#26aab7"/><path d="M133.778,211.92l1.743,1.007a8.369,8.369,0,0,0-.428,2.336v5.428l-1.743-1.007v-5.434A8.368,8.368,0,0,1,133.778,211.92Z" transform="translate(-133.35 -154.96)" opacity="0.15"/><path d="M143.852,227.247l-1.737,1-1.763-1.013-4.322-2.493,1.678-1Z" transform="translate(-134.267 -159.004)" fill="#26aab7"/><path d="M143.895,227.279l-6.217-3.539-1.678,1,4.322,2.493,1.763,1.013h0a1.375,1.375,0,0,1,.329-.105,2.263,2.263,0,0,1,.934.033l3.5,1.316L187.065,244.3l.658-.934Z" transform="translate(-134.257 -159.004)" opacity="0.1"/></g><g transform="translate(48.427 43.673)"><path d="M206.074,129c-5.585.4-9.414,1.73-13.006,10.375-2.329,5.585-11.447,25.658-12.329,28.987-1.033,3.895-3.368,33.519-3.368,33.519l5.329,1.974s-1.822,6.375-3.368,10.013c-1.776,4.2,6.9,3.322,9.691-.493s4.684-8.928,3.158-10.724a25,25,0,0,0-4.224-3.908l5.829-26.427,12.23-26S212.166,133.605,206.074,129Z" transform="translate(-177.37 -128.763)" fill="#ffa8a7"/><path d="M190.668,234.073a11.5,11.5,0,0,0-5.408-1.546,10.441,10.441,0,0,1,5.658,0Z" transform="translate(-180.069 -164.047)" fill="#f28f8f"/><path d="M211.544,128.64c-3.132,0-8.98-.164-12.77,6.678s-9.145,19.875-9.145,19.875,2.224,5.474,14.145,6.618l9.125-19.454S215.13,133.442,211.544,128.64Z" transform="translate(-181.564 -128.639)" fill="#37474f"/></g><g transform="translate(103.828 4.464)"><path d="M278.05,132.1c4.71,3.717,12.355,9.553,16.072,11.888,2.809-3.395,7.98-10.276,9.21-11.783,1.618-1.914,6.678-5.013,6.678-5.013l1.9,7.625s-9.553,17.618-13.013,20.875c-3.645,3.434-6.283,2.013-13.408-1.25-6.73-3.086-14.039-6.914-14.039-6.914,1.447-12.8.467-19.737-5.651-21.895C269.879,126.11,274.1,128.985,278.05,132.1Z" transform="translate(-263.024 -88.401)" fill="#ffa8a7"/><path d="M288.9,141.2c-2.461.658-7.546,7.895-6.618,12.5l-12.96-6.408c1.566-8.835,1.908-19.737-5.559-21.849a10.381,10.381,0,0,0-2.184-.276h0c3.717-.368,6.145-.257,10.039,2.671S288.9,141.2,288.9,141.2Z" transform="translate(-261.58 -88.193)" fill="#37474f"/><path d="M307.374,153.167c-1.855,1.632-2.454,4.566-2.816,5.73a10.224,10.224,0,0,1,1.743-6.428Z" transform="translate(-276.275 -97.583)" fill="#f28f8f"/><path d="M336.28,113.6l4.447-2.7s.507,23.98.526,24.756a2.631,2.631,0,0,0,.934,1.539l-4.447,2.717a2.664,2.664,0,0,1-.934-1.539C336.793,137.558,336.28,113.6,336.28,113.6Z" transform="translate(-287.136 -83.362)" fill="#37474f"/><path d="M341.5,126.07s1.276.3,1.763,2.283.737,5.763-.4,7.007-2.691,1.789-3.724,1.316c-1.928-.836-1.316-4.75.2-5.658,2.474-1.441,2.178-3.033,2.178-3.033Z" transform="translate(-287.701 -88.552)" fill="#ffa8a7"/><path d="M328,115.09l1.974,2.375.349,16.908-1.974,3.289,6.579,3.632a2.421,2.421,0,0,1-.934-1.539l-.461-21.645Z" transform="translate(-284.303 -84.795)" fill="#455a64"/><path d="M328.46,149.43l.02,1.033,6.612,3.638-.026-1.039Z" transform="translate(-284.46 -96.543)" fill="#fb8c00"/><path d="M338.526,154.587l4.441-2.7-.026-1.039-4.441,2.7Z" transform="translate(-287.895 -97.029)" fill="#fb8c00"/><path d="M338.526,154.587l4.441-2.7-.026-1.039-4.441,2.7Z" transform="translate(-287.895 -97.099)" opacity="0.24"/><path d="M327.339,97.228h0a2.932,2.932,0,0,0-2.8,1.138l-.033.039a9.3,9.3,0,0,0-1.9,8.2v.046a2.937,2.937,0,0,0,2.072,2.27h0l3.842.921,2.349-11.763Z" transform="translate(-282.366 -78.664)" fill="#fb8c00"/><path d="M327.339,97.228h0a2.932,2.932,0,0,0-2.8,1.138l-.033.039a9.3,9.3,0,0,0-1.9,8.2v.046a2.937,2.937,0,0,0,2.072,2.27h0l3.842.921,2.349-11.763Z" transform="translate(-282.366 -78.664)" fill="#fff" opacity="0.7"/><path d="M324.686,112.609h0l3.842.921.776-3.9-6.987-1.618a7.348,7.348,0,0,0,.283,2.283v.046C323.022,111.694,323.785,112.47,324.686,112.609Z" transform="translate(-282.358 -82.373)" opacity="0.05"/><path d="M336.393,97.284h0a3.493,3.493,0,0,0-3.125,1.118c-.112.1-.224.211-.336.329s-.25.276-.368.428a7.851,7.851,0,0,0-.566.8,10.525,10.525,0,0,0-.855,1.651,12.762,12.762,0,0,0-.954,5.026,8.98,8.98,0,0,0,.362,2.388,3.745,3.745,0,0,0,2.4,2.8l-3.645-.842h0a4.23,4.23,0,0,1-2.895-2.908,9.1,9.1,0,0,1-.355-2.283,12.658,12.658,0,0,1,.954-5.138A10.746,10.746,0,0,1,327.861,99a9.044,9.044,0,0,1,.566-.8q.178-.224.375-.434a3.89,3.89,0,0,1,.336-.322,4.158,4.158,0,0,1,3.539-1.013h.237Z" transform="translate(-283.637 -78.39)" fill="#fb8c00"/><path d="M329.31,115.871h0a4.23,4.23,0,0,1-2.895-2.908,9.1,9.1,0,0,1-.355-2.283l4.145.855a8.98,8.98,0,0,0,.362,2.388,3.746,3.746,0,0,0,2.4,2.8Z" transform="translate(-283.639 -83.286)" opacity="0.1"/><path d="M341.029,100.56a11.667,11.667,0,0,1-2.388,10.289,3.7,3.7,0,0,1-3.48,1.441H335.1a3.745,3.745,0,0,1-2.4-2.8A11.683,11.683,0,0,1,335.082,99.2a3.728,3.728,0,0,1,3.461-1.447A3.68,3.68,0,0,1,341.029,100.56Z" transform="translate(-285.786 -78.844)" fill="#fb8c00"/><path d="M341.029,100.56a11.667,11.667,0,0,1-2.388,10.289,3.7,3.7,0,0,1-3.48,1.441H335.1a3.745,3.745,0,0,1-2.4-2.8A11.683,11.683,0,0,1,335.082,99.2a3.728,3.728,0,0,1,3.461-1.447A3.68,3.68,0,0,1,341.029,100.56Z" transform="translate(-285.902 -78.844)" opacity="0.2"/><path d="M356.44,93.6s-4.3,4.171-6.355,13.039a34.784,34.784,0,0,0-.783,4.835,24.434,24.434,0,0,0,.757,9.664c-2.632-3.289-5.717-6.533-9.77-8.553a50.51,50.51,0,0,0-4.862-2.059h0a3.4,3.4,0,0,1-2.23-2.579,9.074,9.074,0,0,1-.329-3.145,11.659,11.659,0,0,1,.3-2.112,10.382,10.382,0,0,1,2.342-4.7,3.327,3.327,0,0,1,3.138-1.316h0a51.259,51.259,0,0,0,5.263.289C348.427,96.955,352.625,95.357,356.44,93.6Z" transform="translate(-285.961 -77.443)" fill="#fb8c00"/><path d="M356.44,93.6s-4.3,4.171-6.355,13.039a34.784,34.784,0,0,0-.783,4.835,24.434,24.434,0,0,0,.757,9.664c-2.632-3.289-5.717-6.533-9.77-8.553a50.51,50.51,0,0,0-4.862-2.059h0a3.4,3.4,0,0,1-2.23-2.579,9.074,9.074,0,0,1-.329-3.145,11.659,11.659,0,0,1,.3-2.112,10.382,10.382,0,0,1,2.342-4.7,3.327,3.327,0,0,1,3.138-1.316h0a51.259,51.259,0,0,0,5.263.289C348.427,96.955,352.625,95.357,356.44,93.6Z" transform="translate(-285.961 -77.443)" fill="#fff" opacity="0.7"/><path d="M349.3,117.3a24.434,24.434,0,0,0,.757,9.664c-2.632-3.289-5.717-6.533-9.77-8.553a50.512,50.512,0,0,0-4.862-2.059h0a3.4,3.4,0,0,1-2.23-2.579,9.074,9.074,0,0,1-.329-3.145C337.315,111.413,344.651,113.077,349.3,117.3Z" transform="translate(-285.961 -83.269)" opacity="0.05"/><path d="M375.9,96.641a24.829,24.829,0,0,1,.428,11.276h0a26.136,26.136,0,0,1-6.132,13.21c-5.467,5.862-11.8,4.388-14.138-3.289a21.538,21.538,0,0,1-.862-5.678,30.02,30.02,0,0,1,3.52-14.566,18.575,18.575,0,0,1,1.053-1.743l.474-.658h0c.23-.322.461-.625.7-.921s.513-.612.783-.895C367.238,87.51,373.566,88.97,375.9,96.641Z" transform="translate(-293.607 -76.136)" fill="#fb8c00"/><path d="M376.331,117.35a26.136,26.136,0,0,1-6.132,13.21c-5.467,5.862-11.8,4.388-14.138-3.289a21.538,21.538,0,0,1-.862-5.678h0c.75.855,2.8,1.776,3.217.566a19.38,19.38,0,0,0,.77,5.033,8.51,8.51,0,0,0,2.987,4.71,4.118,4.118,0,0,0,3.691.513,9.638,9.638,0,0,0,4-2.743,24.3,24.3,0,0,0,5.46-11.335C375.358,118.35,375.878,118.574,376.331,117.35Z" transform="translate(-293.608 -85.568)" opacity="0.1"/><path d="M376.9,98.418a23.894,23.894,0,0,1,.145,11.6,24.363,24.363,0,0,1-5.46,11.335,9.638,9.638,0,0,1-4,2.743,4.118,4.118,0,0,1-3.691-.513,8.406,8.406,0,0,1-2.987-4.71,19.381,19.381,0,0,1-.77-5.033c0-.658,0-1.362,0-2.053a26.811,26.811,0,0,1,.434-3.651c.046-.25.092-.5.145-.743.086-.414.178-.829.283-1.237a28.442,28.442,0,0,1,1.355-4.053v-.046a25.372,25.372,0,0,1,1.211-2.474c.316-.566.658-1.105,1-1.618l.454-.658c.191-.243.382-.487.572-.717s.388-.447.586-.658a9.572,9.572,0,0,1,4-2.743C373.14,92.339,375.64,94.267,376.9,98.418Z" transform="translate(-295.298 -77.235)" fill="#fb8c00"/><path d="M376.9,98.418a23.894,23.894,0,0,1,.145,11.6,24.363,24.363,0,0,1-5.46,11.335,9.638,9.638,0,0,1-4,2.743,4.118,4.118,0,0,1-3.691-.513,8.406,8.406,0,0,1-2.987-4.71,19.381,19.381,0,0,1-.77-5.033c0-.658,0-1.362,0-2.053a26.811,26.811,0,0,1,.434-3.651c.046-.25.092-.5.145-.743.086-.414.178-.829.283-1.237a28.442,28.442,0,0,1,1.355-4.053v-.046a25.372,25.372,0,0,1,1.211-2.474c.316-.566.658-1.105,1-1.618l.454-.658c.191-.243.382-.487.572-.717s.388-.447.586-.658a9.572,9.572,0,0,1,4-2.743C373.14,92.339,375.64,94.267,376.9,98.418Z" transform="translate(-295.272 -77.235)" opacity="0.3"/><path d="M367.3,107.855l-1.816,9.158c-1.316-.079-3.546-.184-5.3-.1v-.658a27.888,27.888,0,0,1,.434-3.651c.046-.25.1-.493.145-.743.086-.414.184-.829.289-1.23a28.5,28.5,0,0,1,1.349-4.059.137.137,0,0,0,0-.046c.086-.191.164-.382.25-.566A28.478,28.478,0,0,0,367.3,107.855Z" transform="translate(-295.312 -81.672)" fill="#fb8c00"/><g transform="translate(64.868 24.288)" opacity="0.4"><path d="M367.3,107.855l-1.816,9.158c-1.316-.079-3.546-.184-5.3-.1v-.658a27.888,27.888,0,0,1,.434-3.651c.046-.25.1-.493.145-.743.086-.414.184-.829.289-1.23a28.5,28.5,0,0,1,1.349-4.059.137.137,0,0,0,0-.046c.086-.191.164-.382.25-.566A28.478,28.478,0,0,0,367.3,107.855Z" transform="translate(-360.18 -105.96)" fill="#fff"/></g><path d="M367.5,117.88c-.954.289-1.763-.3-2.151-1.6v-.039a7.368,7.368,0,0,1,1.5-6.487h0a2.861,2.861,0,0,1,1.2-.822c.954-.289,1.757.309,2.151,1.6v.039a7.362,7.362,0,0,1-1.5,6.487h0a2.947,2.947,0,0,1-1.2.816Z" transform="translate(-297.007 -82.664)" fill="#fb8c00"/><g transform="translate(68.127 26.197)" opacity="0.7"><path d="M367.5,117.88c-.954.289-1.763-.3-2.151-1.6v-.039a7.368,7.368,0,0,1,1.5-6.487h0a2.861,2.861,0,0,1,1.2-.822c.954-.289,1.757.309,2.151,1.6v.039a7.362,7.362,0,0,1-1.5,6.487h0a2.947,2.947,0,0,1-1.2.816Z" transform="translate(-365.135 -108.861)" fill="#fff"/></g><path d="M363.25,81a.98.98,0,0,1-1.237-.658l-2.8-9.171a.993.993,0,0,1,1.895-.579l2.8,9.171A.98.98,0,0,1,363.25,81Z" transform="translate(-294.974 -69.355)" fill="#e0e0e0"/><path d="M349.375,89.547a.993.993,0,0,1-.967-.224L341.4,82.745a.993.993,0,1,1,1.355-1.447l7.007,6.579a.987.987,0,0,1,.046,1.4A.914.914,0,0,1,349.375,89.547Z" transform="translate(-288.764 -73.127)" fill="#e0e0e0"/><path d="M360.333,159.333a1.04,1.04,0,0,1-.513,0,.993.993,0,0,1-.743-1.191l2.164-9.342a.993.993,0,1,1,1.934.447l-2.184,9.362a.994.994,0,0,1-.658.724Z" transform="translate(-294.926 -96.051)" fill="#e0e0e0"/><path d="M385.318,153.395a.993.993,0,0,1-1.237-.658l-2.8-9.171a.993.993,0,1,1,1.895-.579l2.8,9.171A.993.993,0,0,1,385.318,153.395Z" transform="translate(-302.509 -94.074)" fill="#e0e0e0"/><path d="M398.851,135.769a.993.993,0,0,1-.967-.224l-7.007-6.579a.993.993,0,0,1,1.349-1.454l7.013,6.546a.987.987,0,0,1,.046,1.4,1.02,1.02,0,0,1-.434.309Z" transform="translate(-305.72 -88.968)" fill="#e0e0e0"/><path d="M407.616,119.255a1.033,1.033,0,0,1-.513,0l-9.342-2.164a1,1,0,0,1-.743-1.191.987.987,0,0,1,1.191-.743l9.342,2.164a.993.993,0,0,1,.066,1.914Z" transform="translate(-307.906 -84.809)" fill="#e0e0e0"/><path d="M406.982,99.132l-9.178,2.8a.991.991,0,0,1-.579-1.895l9.21-2.8a.993.993,0,0,1,.579,1.895Z" transform="translate(-307.746 -78.679)" fill="#e0e0e0"/><path d="M390.542,88.077a.993.993,0,0,1-1.02-1.625l6.546-7.007a.994.994,0,1,1,1.454,1.355l-6.546,7.007A.987.987,0,0,1,390.542,88.077Z" transform="translate(-305.26 -72.493)" fill="#e0e0e0"/><path d="M378.416,80.383a1.013,1.013,0,0,1-.507,0,.987.987,0,0,1-.743-1.191l2.164-9.342a.993.993,0,1,1,1.934.447L379.1,79.639A1.013,1.013,0,0,1,378.416,80.383Z" transform="translate(-301.114 -69.042)" fill="#e0e0e0"/><path d="M322.89,132.452c1.888-2.395,1.974-3.9,3.434-5.079s2.96-1.25,5.158-.618c1.651.474,3.592.237,4.263.849.191.132-.105,1.191-.882,1.572a9.168,9.168,0,0,1-3.559.355c-2.539,0-.454,2.5-2.9,5.026C327.37,136.367,322.89,132.452,322.89,132.452Z" transform="translate(-282.555 -88.651)" fill="#ffa8a7"/></g></g></g></g></svg>